<svg id="Group_538" data-name="Group 538" xmlns="http://www.w3.org/2000/svg" width="32" height="32" viewBox="0 0 32 32">
  <path id="Path_657" data-name="Path 657" d="M23.447,23.452H19.893V17.883c0-1.328-.027-3.037-1.853-3.037-1.852,0-2.135,1.445-2.135,2.94v5.667H12.351V12h3.413v1.56h.047a3.749,3.749,0,0,1,3.371-1.849c3.6,0,4.267,2.371,4.267,5.455v6.287ZM8.337,10.433A2.064,2.064,0,1,1,10.4,8.371a2.061,2.061,0,0,1-2.064,2.063Zm1.781,13.019H6.555V12H10.12V23.452ZM25.227,3H4.772A1.749,1.749,0,0,0,3,4.729V25.271A1.749,1.749,0,0,0,4.771,27H25.221A1.756,1.756,0,0,0,27,25.271V4.729A1.756,1.756,0,0,0,25.221,3h0Z" transform="translate(1 1)" fill="#1e1941"/>
</svg>
