<svg xmlns="http://www.w3.org/2000/svg" xmlns:xlink="http://www.w3.org/1999/xlink" width="153" height="124.218" viewBox="0 0 153 124.218"><defs><clipPath id="a"><rect width="106.76" height="42.799" transform="translate(0 0)" fill="none"/></clipPath></defs><g transform="translate(-21246 -8556)"><path d="M0,0H153V124.218H0Z" transform="translate(21246 8556)" fill="none"/><g transform="translate(21269 8597)"><g clip-path="url(#a)"><path d="M0,.419H3.119L9.962,11.312V.419h3.375V17.038h-3.1L3.375,6.238v10.8H0ZM24.709,17.457a8.664,8.664,0,0,1-3.328-.605,6.767,6.767,0,0,1-2.49-1.746,7.972,7.972,0,0,1-1.583-2.747,11.445,11.445,0,0,1-.536-3.631A11.45,11.45,0,0,1,17.308,5.1a7.967,7.967,0,0,1,1.583-2.746A7,7,0,0,1,21.4.605,8.606,8.606,0,0,1,24.709,0a8.669,8.669,0,0,1,3.329.605A6.57,6.57,0,0,1,30.5,2.351,7.69,7.69,0,0,1,32.064,5.1,11.45,11.45,0,0,1,32.6,8.728a11.445,11.445,0,0,1-.536,3.631,7.421,7.421,0,0,1-1.536,2.747,6.562,6.562,0,0,1-2.467,1.746,8.731,8.731,0,0,1-3.352.605m-.023-2.98a3.746,3.746,0,0,0,3.259-1.489,7.232,7.232,0,0,0,1.07-4.26,7.184,7.184,0,0,0-1.07-4.236,3.726,3.726,0,0,0-3.259-1.513,3.724,3.724,0,0,0-3.258,1.513,7.177,7.177,0,0,0-1.071,4.236,7.225,7.225,0,0,0,1.071,4.26,3.745,3.745,0,0,0,3.258,1.489M34.172.419h3.91l2.677,11.545L43.482.512H47.16L50,11.964,52.513.419h3.724L51.722,17.038H48.347l-3.1-12.29-3,12.29H38.967Z" fill="#e1ebff"/><path d="M.139,21.665H5.7a9.724,9.724,0,0,1,3.026.4,4.659,4.659,0,0,1,1.885,1.07,3.487,3.487,0,0,1,.955,1.583,6.233,6.233,0,0,1,.279,1.885,7.1,7.1,0,0,1-.279,2,4,4,0,0,1-.978,1.676A4.791,4.791,0,0,1,8.7,31.417a9.131,9.131,0,0,1-3,.419H2.257v6.448H.139Zm5.54,8.356a7.24,7.24,0,0,0,2-.233,2.842,2.842,0,0,0,1.233-.675,2.3,2.3,0,0,0,.605-1.047,4.914,4.914,0,0,0,.187-1.4,4.756,4.756,0,0,0-.187-1.4,2.09,2.09,0,0,0-.651-1,2.962,2.962,0,0,0-1.257-.582,7.587,7.587,0,0,0-1.955-.209h-3.4v6.54Zm16.165,6.61A6.027,6.027,0,0,1,20.191,38a5.045,5.045,0,0,1-2.49.559,5.764,5.764,0,0,1-1.676-.233,3.679,3.679,0,0,1-1.3-.651,3.263,3.263,0,0,1-.838-1.141,3.838,3.838,0,0,1-.3-1.583,3.548,3.548,0,0,1,.512-2,3.779,3.779,0,0,1,1.4-1.211,7.024,7.024,0,0,1,1.978-.628,17.662,17.662,0,0,1,2.258-.233l2.072-.07v-.465a3.114,3.114,0,0,0-.652-2.211,2.845,2.845,0,0,0-2.118-.675,3.654,3.654,0,0,0-2.118.488,2.166,2.166,0,0,0-.885,1.3l-1.839-.21a3.41,3.41,0,0,1,1.56-2.4,6.3,6.3,0,0,1,3.351-.768,6.379,6.379,0,0,1,2.188.326,3.55,3.55,0,0,1,1.467.884,3.277,3.277,0,0,1,.791,1.443,6.759,6.759,0,0,1,.256,1.932v7.821H21.844ZM21.8,32.255l-1.932.07a11.343,11.343,0,0,0-2.049.233,3.937,3.937,0,0,0-1.3.512,1.788,1.788,0,0,0-.675.768,2.868,2.868,0,0,0-.186,1.071,2.029,2.029,0,0,0,.535,1.466A2.565,2.565,0,0,0,18,36.91a4.076,4.076,0,0,0,2.793-.884,3.067,3.067,0,0,0,1-2.421Zm5.607,8.589a3.865,3.865,0,0,0,1.3.233,1.542,1.542,0,0,0,1.14-.4,3.688,3.688,0,0,0,.815-1.42l.489-1.28-5.1-11.731h2.35L32.2,35.7l3.468-9.45H37.9L32.642,39.424a13.9,13.9,0,0,1-.651,1.42,5.146,5.146,0,0,1-.722,1.071,2.389,2.389,0,0,1-.954.651,3.334,3.334,0,0,1-1.327.233,6.413,6.413,0,0,1-1-.07,5.683,5.683,0,0,1-.977-.256ZM40.214,26.25h2v1.839a5.567,5.567,0,0,1,1.792-1.653,3.992,3.992,0,0,1,2-.558,3.649,3.649,0,0,1,2.165.582,3.358,3.358,0,0,1,1.234,1.676A5.555,5.555,0,0,1,51.27,26.46a4.528,4.528,0,0,1,2.234-.582,3.635,3.635,0,0,1,2.723.977,4.186,4.186,0,0,1,.978,3.1v8.333H55.18V30.417a5.467,5.467,0,0,0-.14-1.35,1.938,1.938,0,0,0-.419-.862,1.265,1.265,0,0,0-.651-.442,2.728,2.728,0,0,0-.908-.139,3.664,3.664,0,0,0-1.117.186,3.415,3.415,0,0,0-1.141.652,3.294,3.294,0,0,0-.768.954,2.64,2.64,0,0,0-.3,1.28v7.588H47.709V30.44a3.257,3.257,0,0,0-.559-2.188,1.935,1.935,0,0,0-1.56-.628,3.233,3.233,0,0,0-2.234.977,5.019,5.019,0,0,0-.768.954,3.015,3.015,0,0,0-.349,1.56v7.169H40.214Zm31.03,8.659a4.3,4.3,0,0,1-1.559,2.746,5.534,5.534,0,0,1-3.561,1A5.337,5.337,0,0,1,61.911,37a6.835,6.835,0,0,1-1.466-4.656,8.429,8.429,0,0,1,.419-2.769,5.738,5.738,0,0,1,1.163-2.025,5.028,5.028,0,0,1,1.816-1.234,5.8,5.8,0,0,1,2.281-.442,5.9,5.9,0,0,1,2.4.442,4.211,4.211,0,0,1,1.629,1.234,4.829,4.829,0,0,1,.955,1.838,8.059,8.059,0,0,1,.325,2.351v1.024H62.493a5.994,5.994,0,0,0,.232,1.7,4.612,4.612,0,0,0,.7,1.35,3.36,3.36,0,0,0,1.14.885,4.311,4.311,0,0,0,3.771-.233,2.934,2.934,0,0,0,.954-1.559Zm-1.838-3.654a6.06,6.06,0,0,0-.187-1.56,3.141,3.141,0,0,0-.582-1.187,2.6,2.6,0,0,0-1.024-.791,3.694,3.694,0,0,0-1.512-.28,3.26,3.26,0,0,0-2.514.978,4.742,4.742,0,0,0-1.048,2.84Zm5.287-5h2v1.839a5.365,5.365,0,0,1,1.955-1.7,5.174,5.174,0,0,1,2.258-.512A3.81,3.81,0,0,1,83.933,27a4.769,4.769,0,0,1,1,3.282v8.007H82.909V30.673a3.532,3.532,0,0,0-.6-2.351,2.331,2.331,0,0,0-1.862-.7,4.122,4.122,0,0,0-1.35.232A3.335,3.335,0,0,0,77.9,28.6a3.794,3.794,0,0,0-.884,1.094,3.069,3.069,0,0,0-.3,1.466v7.123H74.693Zm14.551,1.606H87.382V26.25h1.862V22.969h2.025V26.25h3.189v1.606H91.269v7.053a2.334,2.334,0,0,0,.4,1.42,1.408,1.408,0,0,0,1.21.535,4.839,4.839,0,0,0,.885-.07,4.454,4.454,0,0,0,.721-.186l.349,1.559a7.617,7.617,0,0,1-2.3.373,3.832,3.832,0,0,1-1.653-.3,2.459,2.459,0,0,1-1-.861,3.49,3.49,0,0,1-.513-1.327,11.287,11.287,0,0,1-.116-1.675ZM98.5,34.769a2.4,2.4,0,0,0,1.047,1.769,4.723,4.723,0,0,0,2.328.489,3.492,3.492,0,0,0,2.165-.512,1.723,1.723,0,0,0,.651-1.4,2.21,2.21,0,0,0-.093-.652,1.094,1.094,0,0,0-.3-.558,1.927,1.927,0,0,0-.652-.442,4.743,4.743,0,0,0-1.094-.3l-1.536-.233a11.274,11.274,0,0,1-1.793-.419,4.669,4.669,0,0,1-1.3-.651,2.8,2.8,0,0,1-.814-1,3.688,3.688,0,0,1-.257-1.443,3.1,3.1,0,0,1,.35-1.49,3.381,3.381,0,0,1,1-1.094,4.685,4.685,0,0,1,1.513-.7,6.829,6.829,0,0,1,1.909-.256,7.724,7.724,0,0,1,2.165.256,4.185,4.185,0,0,1,1.443.7,3.1,3.1,0,0,1,.861,1.047,5.969,5.969,0,0,1,.465,1.281l-1.838.3a4.97,4.97,0,0,0-.373-.861,1.743,1.743,0,0,0-.558-.6,2.288,2.288,0,0,0-.862-.372,4.534,4.534,0,0,0-1.233-.14,5.061,5.061,0,0,0-1.4.163,2.571,2.571,0,0,0-.907.4,1.478,1.478,0,0,0-.466.581,1.539,1.539,0,0,0-.14.652,2.3,2.3,0,0,0,.093.675,1.217,1.217,0,0,0,.349.512,2.437,2.437,0,0,0,.7.373,6.547,6.547,0,0,0,1.14.279l1.746.279a5.739,5.739,0,0,1,3.026,1.211,3.258,3.258,0,0,1,.931,2.513,3.326,3.326,0,0,1-.3,1.42,3.244,3.244,0,0,1-.908,1.117,4.413,4.413,0,0,1-1.512.722,7.239,7.239,0,0,1-2.118.279,9.592,9.592,0,0,1-2.049-.209,5.418,5.418,0,0,1-1.652-.652,3.622,3.622,0,0,1-1.164-1.21,4.019,4.019,0,0,1-.512-1.816Z" fill="#e1ebff"/></g></g></g></svg>