<svg xmlns="http://www.w3.org/2000/svg" width="153" height="124.218" viewBox="0 0 153 124.218">
  <g id="contributor-28" transform="translate(-21676 -8878)">
    <g id="Group_475" data-name="Group 475" transform="translate(21676 8878)">
      <path id="Path_50" data-name="Path 50" d="M0,0H153V124.218H0Z" fill="none"/>
    </g>
    <g id="Mox_Logo" transform="translate(21521.457 8707.646)">
      <g id="Group_545" data-name="Group 545" transform="translate(189.34 219.11)">
        <path id="Path_658" data-name="Path 658" d="M214.47,219.154l.026,26.659h-4.53v-17.28c-.965.92-8.048,5.967-8.048,5.967s-7.18-5.047-8.084-5.967c0,0,0,6.168,0,8.124v9.158H189.34V219.11s10.726,8.655,12.578,10.219Z" transform="translate(-189.34 -219.11)" fill="#e1ebff"/>
        <g id="Group_543" data-name="Group 543" transform="translate(29.38 0.362)">
          <path id="Path_659" data-name="Path 659" d="M407.309,239.61l-.02,5.413-6.519,2.77,6.474.8-1.083,6.344,4.589-5.478,5.176,1.819-3.1-4.417,11.432-10.632-13.554,7.536Z" transform="translate(-395.346 -233.774)" fill="#e1ebff"/>
          <path id="Path_660" data-name="Path 660" d="M380.93,247.53a13.11,13.11,0,1,1,13.11-13.11A13.123,13.123,0,0,1,380.93,247.53Zm-.092-21.887a8.967,8.967,0,1,0,8.968,8.968A8.978,8.978,0,0,0,380.838,225.643Z" transform="translate(-367.82 -221.31)" fill="#e1ebff"/>
        </g>
        <g id="Group_544" data-name="Group 544" transform="translate(58.888 0.588)">
          <path id="Path_661" data-name="Path 661" d="M556.651,228.022q1.884,2.738,2.642,3.924h.1q1.049-1.632,2.622-3.9l3.71-5.361H571.2l-9.054,12.784,9.442,13.212h-5.4l-4.061-5.809q-1.5-2.136-2.759-4.041h-.077q-1.321,1.983-2.759,4.041l-4.061,5.809h-5.4l9.442-13.212-9.054-12.784h5.48Z" transform="translate(-547.07 -222.68)" fill="#e1ebff"/>
        </g>
      </g>
    </g>
  </g>
</svg>
