<svg xmlns="http://www.w3.org/2000/svg" xmlns:xlink="http://www.w3.org/1999/xlink" width="153" height="124" viewBox="0 0 153 124"><defs><clipPath id="a"><rect width="114.775" height="34.319" transform="translate(0 0)" fill="none"/></clipPath></defs><g transform="translate(-21462 -8230)"><g transform="translate(21462 8230)"><rect width="153" height="124" fill="none"/></g><g transform="translate(21481 8274)"><g clip-path="url(#a)"><path d="M27.412,6.83a.608.608,0,0,1,0-.919.733.733,0,0,1,.976,0,.608.608,0,0,1,0,.919.79.79,0,0,1-.5.172.528.528,0,0,1-.479-.172M25.691,8.647a.685.685,0,0,1-.173-.459.8.8,0,0,1,.173-.459.657.657,0,0,1,.918,0,.684.684,0,0,1,.172.459.8.8,0,0,1-.172.459.7.7,0,0,1-.918,0m-1.875,1.8a.651.651,0,0,1-.172-.459.8.8,0,0,1,.172-.459.632.632,0,0,1,1.09.459.8.8,0,0,1-.172.459.6.6,0,0,1-.459.172.651.651,0,0,1-.459-.172m-1.779,1.8a.611.611,0,0,1-.21-.459.642.642,0,0,1,.21-.459.731.731,0,0,1,.976,0,.607.607,0,0,1,0,.918.691.691,0,0,1-.5.172.645.645,0,0,1-.478-.172m-1.722,1.779a.578.578,0,0,1-.172-.459.8.8,0,0,1,.172-.459.659.659,0,0,1,.919,0,.581.581,0,0,1,.172.459.755.755,0,0,1-.172.459.579.579,0,0,1-.46.172.415.415,0,0,1-.459-.172M18.23,15.361A.8.8,0,0,1,18.4,14.9a.659.659,0,0,1,.919,0,.6.6,0,0,1,.172.459.8.8,0,0,1-.172.459.651.651,0,0,1-.459.172.8.8,0,0,1-.46-.172.71.71,0,0,1-.172-.459M14.9,19.34a.651.651,0,0,1-.172-.459.8.8,0,0,1,.172-.459.657.657,0,0,1,.918,0,.6.6,0,0,1,.172.459.8.8,0,0,1-.172.459.578.578,0,0,1-.459.172.474.474,0,0,1-.459-.172m-1.875,1.8a.611.611,0,0,1-.21-.459.642.642,0,0,1,.21-.459.731.731,0,0,1,.976,0,.607.607,0,0,1,0,.918.691.691,0,0,1-.5.172.555.555,0,0,1-.478-.172m-1.722,1.818a.656.656,0,0,1-.172-.46.755.755,0,0,1,.172-.459A.632.632,0,0,1,12.4,22.5a.8.8,0,0,1-.172.46.607.607,0,0,1-.459.172.729.729,0,0,1-.46-.172m-1.779,1.8a.581.581,0,0,1-.172-.459.8.8,0,0,1,.172-.46.661.661,0,0,1,.919,0,.69.69,0,0,1,.172.46.755.755,0,0,1-.172.459.6.6,0,0,1-.459.172.533.533,0,0,1-.46-.172m-1.874,1.8a.612.612,0,0,1-.211-.459.643.643,0,0,1,.211-.459.7.7,0,0,1,.956,0,.643.643,0,0,1,.211.459.612.612,0,0,1-.211.459.784.784,0,0,1-.5.172.578.578,0,0,1-.459-.172m-1.76,1.779a.6.6,0,0,1-.172-.459.8.8,0,0,1,.172-.459.657.657,0,0,1,.918,0,.6.6,0,0,1,.172.459.8.8,0,0,1-.172.459.651.651,0,0,1-.459.172.491.491,0,0,1-.459-.172M6.81,6.83a.685.685,0,0,0,.172-.46.8.8,0,0,0-.172-.459.659.659,0,0,0-.918,0,.6.6,0,0,0-.172.459.8.8,0,0,0,.172.46A.655.655,0,0,0,6.351,7,.478.478,0,0,0,6.81,6.83m1.8,1.817a.6.6,0,0,0,0-.918.73.73,0,0,0-.975,0,.6.6,0,0,0,0,.918.784.784,0,0,0,.5.172.813.813,0,0,0,.478-.172m1.818,1.8a.655.655,0,0,0,.172-.459.8.8,0,0,0-.172-.459.632.632,0,0,0-1.091.459.8.8,0,0,0,.172.459.6.6,0,0,0,.459.172.724.724,0,0,0,.46-.172m1.8,1.8a.655.655,0,0,0,.172-.459.8.8,0,0,0-.172-.459.632.632,0,0,0-1.091.459.755.755,0,0,0,.172.459.6.6,0,0,0,.46.172.66.66,0,0,0,.459-.172m1.76,1.779a.614.614,0,0,0,.21-.459.646.646,0,0,0-.21-.459.706.706,0,0,0-.957,0,.607.607,0,0,0,0,.918.689.689,0,0,0,.5.172.439.439,0,0,0,.46-.172m2.008,1.339a.8.8,0,0,0-.172-.459.657.657,0,0,0-.918,0,.6.6,0,0,0-.172.459.8.8,0,0,0,.172.459.651.651,0,0,0,.459.172.8.8,0,0,0,.459-.172.553.553,0,0,0,.172-.459m1.607,2.3a.6.6,0,0,0,.172-.459.79.79,0,0,0-.172-.459.657.657,0,0,0-.918,0,.6.6,0,0,0-.172.459.8.8,0,0,0,.172.459.655.655,0,0,0,.459.172.712.712,0,0,0,.459-.172m1.8,1.683a.612.612,0,0,0,.211-.459.643.643,0,0,0-.211-.459.7.7,0,0,0-.956,0,.6.6,0,0,0,0,.918.689.689,0,0,0,.5.172.521.521,0,0,0,.459-.172m1.817,1.8a.652.652,0,0,0,.173-.459.8.8,0,0,0-.173-.459.657.657,0,0,0-.918,0,.684.684,0,0,0-.172.459.8.8,0,0,0,.172.459.6.6,0,0,0,.459.172.5.5,0,0,0,.459-.172m1.8,1.818a.656.656,0,0,0,.172-.46.755.755,0,0,0-.172-.459.632.632,0,0,0-1.091.459.8.8,0,0,0,.172.46.607.607,0,0,0,.459.172.69.69,0,0,0,.46-.172m1.683,1.8a.578.578,0,0,0,.172-.459.8.8,0,0,0-.172-.46.659.659,0,0,0-.918,0,.685.685,0,0,0-.172.46.749.749,0,0,0,.172.459.6.6,0,0,0,.459.172.554.554,0,0,0,.459-.172m1.913,1.8a.578.578,0,0,0,.172-.459.8.8,0,0,0-.172-.459.657.657,0,0,0-.918,0,.6.6,0,0,0-.173.459.75.75,0,0,0,.173.459.649.649,0,0,0,.459.172.578.578,0,0,0,.459-.172m1.779,1.779a.607.607,0,0,0,0-.918.706.706,0,0,0-.957,0,.607.607,0,0,0,0,.918.787.787,0,0,0,.5.172.464.464,0,0,0,.459-.172M11.057,7.308A11.188,11.188,0,0,1,17.1,5.51a10.857,10.857,0,0,1,6.044,1.8l3.865-3.864A16.079,16.079,0,0,0,17.1,0,15.812,15.812,0,0,0,7.231,3.444ZM7.193,23.166a10.712,10.712,0,0,1-1.837-6.007,10.39,10.39,0,0,1,1.837-6.006L3.367,7.327A16.08,16.08,0,0,0,3.4,27.068Zm15.973,3.845a10.951,10.951,0,0,1-6.007,1.894,10.463,10.463,0,0,1-6.083-1.856L7.212,30.875a15.57,15.57,0,0,0,9.947,3.443,16.154,16.154,0,0,0,9.852-3.443Zm3.749-15.9a10.772,10.772,0,0,1,0,12.032l3.864,3.826a15.7,15.7,0,0,0,3.443-9.814,15.572,15.572,0,0,0-3.443-9.947ZM30.951,28.2a2.717,2.717,0,1,1-2.716,2.716A2.715,2.715,0,0,1,30.951,28.2m-27.622,0A2.717,2.717,0,1,1,.65,30.913,2.682,2.682,0,0,1,3.329,28.2M30.989.593A2.683,2.683,0,0,1,33.668,3.31a2.679,2.679,0,1,1-5.357,0A2.708,2.708,0,0,1,30.989.593m-27.7,0a2.679,2.679,0,1,1,0,5.357A2.706,2.706,0,0,1,.574,3.272,2.707,2.707,0,0,1,3.29.593M54.231,22.248l-1.339-1.186A5.268,5.268,0,0,1,49.1,22.573,4.047,4.047,0,0,1,44.782,19H54.9c.459-4.744-2.315-7-5.968-7a5.959,5.959,0,0,0-6.179,6.179,5.9,5.9,0,0,0,6.293,6.217,7.1,7.1,0,0,0,5.184-2.142m-1.166-4.955H44.8a4.091,4.091,0,0,1,4.227-3.558c2.315,0,3.9,1.224,4.037,3.482ZM59.817,7.25h-1.97V24.16h1.97ZM65.4,12.243H63.567V24.161h1.97V17.523a3.442,3.442,0,0,1,3.52-3.577,3.3,3.3,0,0,1,2.066.669L72,12.932a4.412,4.412,0,0,0-2.774-.88,3.813,3.813,0,0,0-3.654,1.97Zm7.747,5.968a6.179,6.179,0,0,0,12.358,0,6.179,6.179,0,1,0-12.358,0m10.407,0A4.154,4.154,0,0,1,79.31,22.5a4.1,4.1,0,0,1-4.189-4.285,4.146,4.146,0,0,1,4.227-4.438,4.2,4.2,0,0,1,4.209,4.438m4.8-6.006V24.161h1.97V17.752a3.736,3.736,0,0,1,3.654-3.9A3.389,3.389,0,0,1,97.6,17.58v6.581h1.971V17.58c0-3.52-2.219-5.528-5.242-5.528a4.9,4.9,0,0,0-4.074,2.066l-.115-1.894ZM114.737,7.25h-1.97v7.136a5,5,0,0,0-4.457-2.392c-3.367,0-6.007,2.181-6.007,6.179a5.768,5.768,0,0,0,6.045,6.179,4.977,4.977,0,0,0,4.457-2.429l.115,2.18h1.856Zm-6.255,6.6a4.149,4.149,0,0,1,4.228,4.285,4.157,4.157,0,0,1-4.228,4.361,4.051,4.051,0,0,1-4.189-4.323A4.014,4.014,0,0,1,108.4,13.85Z" fill="#e1ebff"/></g></g></g></svg>