<svg xmlns="http://www.w3.org/2000/svg" xmlns:xlink="http://www.w3.org/1999/xlink" width="153" height="124.218" viewBox="0 0 153 124.218"><defs><clipPath id="a"><rect width="110.953" height="15.101" transform="translate(0 0)" fill="#2d5abe"/></clipPath></defs><g transform="translate(-21031 -8716)"><path d="M0,0H153V124.218H0Z" transform="translate(21031 8716)" fill="none"/><g transform="translate(21052 8771)"><g clip-path="url(#a)"><path d="M3.9,1.619h.39l.069.07V4.547H7.146v.7H4.357v7.246c0,.929.411,1.349,1.09,1.349a3.272,3.272,0,0,0,1.679-.729l.36.5a5.893,5.893,0,0,1-3.2,1.489,2.2,2.2,0,0,1-2.319-2.488V5.247H0V4.618l.07-.071h1.9V2.768Z" fill="#2d5abe"/><path d="M14.576,15.1l-.07-.079.21-1.73A5.075,5.075,0,0,1,11.158,15.1,2.48,2.48,0,0,1,8.43,12.613c0-1.839,1.619-2.909,3.808-3.508l2.278-.62v-1.5c0-1.39-.649-1.949-1.589-1.949a2.064,2.064,0,0,0-1.5.559,5.653,5.653,0,0,0-.28,2.39H8.87L8.8,7.915V7.476c0-2.049,2.509-3.069,4.628-3.169,1.659,0,3.468.65,3.468,2.929v6.726h1.439l.07.069v.411Zm-.06-5.967-1.219.32c-1.569.44-2.529,1.329-2.529,2.6a1.626,1.626,0,0,0,1.64,1.779A2.868,2.868,0,0,0,14.516,12.6Z" fill="#2d5abe"/><path d="M19.04,14.862l-.07-.07v-.36l1.629-.29V5.5l-1.439-.15-.07-.07V4.918l3.818-.61.07.08v9.754l1.509.29v.36l-.07.07ZM20.189.91l.09-.14a5.533,5.533,0,0,1,1.8-.22,3.4,3.4,0,0,1,.869.16l.1.14.06,1.879-.1.14a5.759,5.759,0,0,1-1.789.209,3.547,3.547,0,0,1-.879-.159l-.09-.14Z" fill="#2d5abe"/><path d="M24.93,4.618l.07-.07H35.464l.07.07v.35l-1.489.29,2.169,6.966.25,1.569,2.579-8.535-1.49-.29v-.35l.08-.07h3.038l.07.07v.35l-1.009.29-2.9,9.6-2.249.2L32.856,9.455l-1.639,5.407-2.249.2-3.028-9.8-1.01-.29Zm5.907,9.175,1.669-5.468-.98-3.157H28.408L30.6,12.224Z" fill="#2d5abe"/><path d="M47.386,15.1l-.07-.079.21-1.73A5.075,5.075,0,0,1,43.968,15.1a2.48,2.48,0,0,1-2.728-2.488c0-1.839,1.619-2.909,3.808-3.508l2.278-.62v-1.5c0-1.39-.649-1.949-1.589-1.949a2.064,2.064,0,0,0-1.5.559,5.653,5.653,0,0,0-.28,2.39H41.68l-.071-.071V7.476c0-2.049,2.509-3.069,4.628-3.169,1.659,0,3.468.65,3.468,2.929v6.726h1.439l.07.069v.411Zm-.06-5.967-1.219.32c-1.569.44-2.529,1.329-2.529,2.6a1.626,1.626,0,0,0,1.64,1.779A2.868,2.868,0,0,0,47.326,12.6Z" fill="#2d5abe"/><path d="M53.409,14.142V5.5l-1.439-.15-.07-.07v-.36l3.888-.609.07.08-.3,1.908a6.756,6.756,0,0,1,3.978-1.988c1.7,0,2.968,1.179,2.968,3.327v6.507l1.519.29v.359l-.07.071H58.576l-.07-.071v-.359l1.619-.29V7.685c0-1.409-.749-2.038-1.839-2.038a3.325,3.325,0,0,0-2.5,1.489v7.006l1.619.29v.359l-.07.071H51.85l-.07-.071v-.359Z" fill="#2d5abe"/><path d="M73.3,1.619h.39l.069.07V4.547h2.789v.7H73.756v7.246c0,.929.411,1.349,1.09,1.349a3.272,3.272,0,0,0,1.679-.729l.36.5a5.893,5.893,0,0,1-3.2,1.489,2.2,2.2,0,0,1-2.319-2.488V5.247H69.4V4.618l.07-.071h1.9V2.768Z" fill="#2d5abe"/><path d="M86.754,8.9H79.668a2.174,2.174,0,0,0-.01.26c0,2.809,1.829,4.4,3.808,4.4a4.314,4.314,0,0,0,3-1.369l.42.42c-.8,1.049-2.429,2.5-4.218,2.5a5.092,5.092,0,0,1-5.307-5.2,5.382,5.382,0,0,1,5.527-5.6,3.65,3.65,0,0,1,3.938,3.757v.76Zm-7.036-.7h4.7c.16-2.118-.539-3.208-1.859-3.208-1.409,0-2.578,1.06-2.838,3.208" fill="#2d5abe"/><path d="M93.846,4.308c2.089,0,3.978,1.1,3.878,3.608l-.08.07H95.315c.24-2.109-.5-3.009-1.759-3.009-1.629,0-2.948,1.5-2.948,3.978,0,2.978,1.809,4.6,3.778,4.6a4.018,4.018,0,0,0,3.058-1.52l.45.41c-.85,1.119-2.389,2.618-4.3,2.658a5.086,5.086,0,0,1-5.267-5.216,5.379,5.379,0,0,1,5.517-5.577" fill="#2d5abe"/><path d="M100.338,14.142V1.239L98.9,1.079l-.07-.07V.66L102.647,0l.069.07V6.077a6.6,6.6,0,0,1,3.748-1.769c1.7,0,2.979,1.179,2.979,3.327v6.507l1.509.29v.359l-.07.071H105.5l-.07-.071v-.359l1.629-.29V7.685c0-1.409-.759-2.038-1.849-2.038a3.327,3.327,0,0,0-2.5,1.489v7.006l1.63.29v.359l-.07.071h-5.5l-.07-.071v-.359Z" fill="#2d5abe"/></g></g></g></svg>