<svg xmlns="http://www.w3.org/2000/svg" xmlns:xlink="http://www.w3.org/1999/xlink" width="153" height="124.218" viewBox="0 0 153 124.218"><defs><clipPath id="a"><rect width="74.559" height="38.588" transform="translate(0 0)" fill="#2d5abe"/></clipPath></defs><g transform="translate(-21246 -8716)"><path d="M0,0H153V124.218H0Z" transform="translate(21246 8716)" fill="none"/><g transform="translate(21285 8759)"><g clip-path="url(#a)"><path d="M.063,13.387,0,13.323V13l1.467-.261V4.951l-1.3-.134L.108,4.753V4.429L3.547,3.88l.063.072v8.786L4.969,13v.324l-.063.064ZM1.1.819,1.179.693A4.985,4.985,0,0,1,2.8.5a3.083,3.083,0,0,1,.783.144l.09.126.054,1.693-.09.126a5.192,5.192,0,0,1-1.612.189,3.229,3.229,0,0,1-.792-.144L1.152,2.5Z" fill="#2d5abe"/><path d="M7.047,12.739V4.952l-1.3-.135-.063-.063V4.43l3.5-.549.063.072-.27,1.719a6.082,6.082,0,0,1,3.583-1.791c1.53,0,2.673,1.062,2.673,3v5.86L16.608,13v.324l-.063.063H11.7l-.063-.063V13l1.459-.261V6.924c0-1.27-.675-1.837-1.656-1.837A3,3,0,0,0,9.19,6.428v6.311L10.648,13v.324l-.063.063H5.643l-.063-.063V13Z" fill="#2d5abe"/><path d="M21.836,13.6a8.942,8.942,0,0,1-3.718-.9V1.125l-1.3-.152L16.758.91V.594L20.206,0l.063.063v4.97a4.008,4.008,0,0,1,2.62-1.153c2.179,0,3.889,1.792,3.889,4.484A4.911,4.911,0,0,1,21.836,13.6M20.269,5.771V12.2a2.059,2.059,0,0,0,1.684.8c1.692,0,2.764-1.567,2.764-3.763,0-2.656-1.306-4.2-2.8-4.2a2.069,2.069,0,0,0-1.648.729" fill="#2d5abe"/><path d="M32.869,13.6a4.724,4.724,0,0,1-4.78-4.861A4.8,4.8,0,0,1,33,3.881a4.719,4.719,0,0,1,4.78,4.861A4.8,4.8,0,0,1,32.869,13.6m-.342-9.092C31.221,4.511,30.2,5.8,30.2,7.878c0,3.024,1.468,5.086,3.142,5.086,1.306,0,2.332-1.279,2.332-3.358,0-3.025-1.477-5.095-3.151-5.095" fill="#2d5abe"/><path d="M42.157,3.953V10.6c0,1.261.612,1.783,1.594,1.783a3.517,3.517,0,0,0,2.313-1.17V4.952l-1.4-.135-.063-.063V4.43l3.538-.549.063.072v8.624h1.305l.063.064v.369l-3.511.593L46,13.531l.27-1.692A6.345,6.345,0,0,1,42.652,13.6a2.634,2.634,0,0,1-2.646-2.953v-5.7l-1.288-.135-.063-.063V4.43l3.439-.549Z" fill="#2d5abe"/><path d="M51.651,12.739V4.952l-1.3-.135-.063-.063V4.43l3.5-.549.063.072-.27,1.719A6.082,6.082,0,0,1,57.17,3.881c1.53,0,2.673,1.062,2.673,3v5.86L61.212,13v.324l-.063.063H56.305l-.063-.063V13l1.459-.261V6.924c0-1.27-.675-1.837-1.656-1.837a3,3,0,0,0-2.251,1.341v6.311L55.252,13v.324l-.063.063H50.247l-.063-.063V13Z" fill="#2d5abe"/><path d="M67.086,3.925a5.9,5.9,0,0,1,1.5.207V1.125L67.275.973,67.212.91V.594L70.661,0l.063.063V12.748h1.287l.063.063v.36l-3.538.432-.063-.072.3-1.332a3.954,3.954,0,0,1-2.836,1.4c-2.161,0-3.871-1.8-3.871-4.465a4.922,4.922,0,0,1,5.023-5.213m1.5,7.679V5.213a2.157,2.157,0,0,0-1.657-.693c-1.683,0-2.8,1.566-2.8,3.744,0,2.638,1.3,4.178,2.782,4.178a1.941,1.941,0,0,0,1.675-.838" fill="#2d5abe"/><path d="M5.77,25.553v9.4a3.725,3.725,0,0,1-3.025,3.638H1.088l-.063-.064V37.04H3.258a1.886,1.886,0,0,0,.36-1.377V26.552l-1.3-.135-.063-.063V26.03l3.449-.549ZM3.294,22.42l.09-.126a4.957,4.957,0,0,1,1.611-.2,3.191,3.191,0,0,1,.793.144l.081.126.053,1.693-.081.126a5.273,5.273,0,0,1-1.611.188,3.25,3.25,0,0,1-.8-.143L3.348,24.1Z" fill="#2d5abe"/><path d="M10.782,25.552v6.653c0,1.26.612,1.783,1.594,1.783a3.517,3.517,0,0,0,2.313-1.17V26.551l-1.4-.135-.063-.063V26.03l3.538-.55.063.072v8.625h1.3l.063.063v.369l-3.511.594-.063-.072.27-1.692A6.351,6.351,0,0,1,11.277,35.2,2.634,2.634,0,0,1,8.631,32.25v-5.7l-1.288-.135-.063-.063V26.03l3.439-.55Z" fill="#2d5abe"/><path d="M20.276,34.339V26.551l-1.3-.135-.063-.063v-.324l3.5-.549.063.072-.27,1.72A6.077,6.077,0,0,1,25.8,25.48c1.53,0,2.673,1.062,2.673,3v5.861l1.369.261v.324l-.063.062H24.93l-.063-.062V34.6l1.459-.261V28.523c0-1.27-.675-1.836-1.656-1.836a3,3,0,0,0-2.251,1.34v6.312l1.458.261v.324l-.063.062H18.872l-.063-.062V34.6Z" fill="#2d5abe"/><path d="M35.658,25.48c1.882,0,3.583.99,3.493,3.25l-.072.063h-2.1c.216-1.9-.45-2.709-1.585-2.709-1.468,0-2.656,1.35-2.656,3.583,0,2.682,1.63,4.141,3.4,4.141A3.622,3.622,0,0,0,38.9,32.439l.405.369a5.432,5.432,0,0,1-3.871,2.4,4.582,4.582,0,0,1-4.744-4.7,4.845,4.845,0,0,1,4.969-5.023" fill="#2d5abe"/><path d="M43.263,23.058h.351l.063.063V25.7h2.512v.63H43.677v6.526c0,.838.369,1.216.981,1.216a2.948,2.948,0,0,0,1.513-.657l.324.45A5.325,5.325,0,0,1,43.614,35.2a1.986,1.986,0,0,1-2.089-2.243V26.327H39.752v-.568l.063-.062h1.71v-1.6Z" fill="#2d5abe"/><path d="M47,34.987l-.063-.062V34.6L48.4,34.34V26.552l-1.3-.135-.063-.063V26.03l3.439-.549.063.072V34.34L51.9,34.6v.324l-.063.062ZM48.032,22.42l.081-.126a4.985,4.985,0,0,1,1.621-.2,3.083,3.083,0,0,1,.783.144l.09.126.054,1.693-.09.126a5.2,5.2,0,0,1-1.612.188,3.243,3.243,0,0,1-.792-.143l-.081-.126Z" fill="#2d5abe"/><path d="M57.645,35.2a4.726,4.726,0,0,1-4.78-4.863A4.8,4.8,0,0,1,57.78,25.48a4.719,4.719,0,0,1,4.78,4.861A4.8,4.8,0,0,1,57.645,35.2M57.3,26.111c-1.306,0-2.323,1.287-2.323,3.366,0,3.026,1.468,5.087,3.142,5.087,1.306,0,2.332-1.278,2.332-3.358,0-3.025-1.477-5.095-3.151-5.095" fill="#2d5abe"/><path d="M65,34.339V26.551l-1.3-.135-.063-.063v-.324l3.5-.549.063.072-.27,1.72a6.077,6.077,0,0,1,3.583-1.792c1.53,0,2.673,1.062,2.673,3v5.861l1.369.261v.324l-.063.062H69.652l-.063-.062V34.6l1.459-.261V28.523c0-1.27-.675-1.836-1.656-1.836a3,3,0,0,0-2.251,1.34v6.312L68.6,34.6v.324l-.063.062H63.594l-.063-.062V34.6Z" fill="#2d5abe"/></g></g></g></svg>