<svg xmlns="http://www.w3.org/2000/svg" xmlns:xlink="http://www.w3.org/1999/xlink" width="153" height="124.218" viewBox="0 0 153 124.218"><defs><clipPath id="a"><rect width="102.578" height="19.695" fill="none"/></clipPath></defs><g transform="translate(-21031 -9047)"><path d="M0,0H153V124.218H0Z" transform="translate(21031 9047)" fill="none"/><g transform="translate(21056 9100)"><path d="M8.531,0,0,4.924v9.848L8.531,19.7l8.532-4.923V4.924Z" fill="#e1ebff"/><path d="M8.531,0,0,4.924v9.848L8.531,19.7l8.532-4.923V4.924Z" fill="#e1ebff"/><path d="M13.009,18.077H11.8l-1.453-1.333V16.06l1.5-1.436V12.35l1.966-1.283,2.24,1.693Zm-5.026-3.59L8.2,12.35,7.47,10.435h4.343l-.718,1.915.205,2.137H7.983Zm.991,2.257L7.521,18.095H6.29L3.23,12.76l2.257-1.676L7.47,12.35v2.274l1.5,1.436ZM6.273,6.486h6.719l.8,3.419H5.487Z" transform="translate(-1.11 -2.229)" fill="#1e1941"/><g transform="translate(0 0)"><g clip-path="url(#a)"><path d="M38.53,17.813a3.865,3.865,0,0,1-3.915-3.932A3.922,3.922,0,0,1,38.547,9.9a3.79,3.79,0,0,1,3.026,1.3L40.5,12.359a2.534,2.534,0,0,0-1.966-.94,2.285,2.285,0,0,0-2.188,2.427,2.32,2.32,0,0,0,2.274,2.462,2.7,2.7,0,0,0,1.967-.941l1.042,1.043a3.917,3.917,0,0,1-3.094,1.4" transform="translate(-11.894 -3.401)" fill="#e1ebff"/><path d="M49.409,17.82H47.665v-7.9h1.744v1.846a2.68,2.68,0,0,1,2.684-1.846v1.846h-.1c-1.521,0-2.582.991-2.582,3.009Z" transform="translate(-16.379 -3.408)" fill="#e1ebff"/><path d="M64.069,9.872,60.223,19.924H58.462L59.3,17.8,56,9.872h1.863l2.24,5.864,2.154-5.864Z" transform="translate(-19.243 -3.392)" fill="#e1ebff"/><path d="M74.058,11.393a2.274,2.274,0,0,0-2.205,2.444,2.285,2.285,0,0,0,2.205,2.445,2.23,2.23,0,0,0,2.171-2.445,2.239,2.239,0,0,0-2.171-2.444m.393,6.394a3.083,3.083,0,0,1-2.564-1.334v3.471H70.143V9.871h1.744V11.29a3.039,3.039,0,0,1,2.564-1.419,3.646,3.646,0,0,1,3.539,3.949,3.651,3.651,0,0,1-3.539,3.966" transform="translate(-24.103 -3.392)" fill="#e1ebff"/><path d="M86.493,10.527v3.727a.827.827,0,0,0,.941.941h.683V16.75h-1.2a1.941,1.941,0,0,1-2.171-2.222v-4h-.957V9.04h.957V6.954h1.744V9.04h1.624v1.487Z" transform="translate(-28.793 -2.39)" fill="#e1ebff"/><path d="M96.639,11.4a2.282,2.282,0,0,0-2.291,2.427,2.346,2.346,0,0,0,2.308,2.462,2.282,2.282,0,0,0,2.291-2.428A2.315,2.315,0,0,0,96.639,11.4m0,6.411a3.92,3.92,0,0,1-4.018-3.932A3.971,3.971,0,0,1,96.673,9.9a3.928,3.928,0,0,1,4.035,3.949,3.971,3.971,0,0,1-4.069,3.966" transform="translate(-31.827 -3.401)" fill="#e1ebff"/><path d="M128.181,11.4a2.282,2.282,0,0,0-2.291,2.427,2.346,2.346,0,0,0,2.308,2.462,2.282,2.282,0,0,0,2.291-2.428,2.325,2.325,0,0,0-2.308-2.461m0,6.411a3.921,3.921,0,0,1-4.018-3.932A3.971,3.971,0,0,1,128.215,9.9a3.928,3.928,0,0,1,4.035,3.949,3.982,3.982,0,0,1-4.069,3.966" transform="translate(-42.665 -3.401)" fill="#e1ebff"/><path d="M147.561,9.872c1.659,0,2.667,1.043,2.667,2.906v5.009h-1.743v-4.48c0-1.214-.564-1.846-1.539-1.846-.94,0-1.624.667-1.624,1.881V17.8h-1.744v-4.5c0-1.18-.581-1.846-1.539-1.846s-1.624.718-1.624,1.9V17.8h-1.744V9.889h1.744v1.3a2.733,2.733,0,0,1,2.308-1.3,2.392,2.392,0,0,1,2.257,1.334,3.112,3.112,0,0,1,2.582-1.351" transform="translate(-47.65 -3.393)" fill="#e1ebff"/><path d="M108.908,19.24v.889l-.051.086-.769.427h-.1l-.752-.427-.051-.086V19.24l.051-.085.752-.427h.1l.769.427Z" transform="translate(-36.83 -6.436)" fill="#e1ebff"/><path d="M115.846,17.786a3.959,3.959,0,0,1,.171-7.916,3.822,3.822,0,0,1,3.009,1.368l-1.094,1.145a2.573,2.573,0,0,0-1.949-.991,2.271,2.271,0,0,0-2.222,2.393,2.3,2.3,0,0,0,2.222,2.5,2.645,2.645,0,0,0,1.984-.906l1.026,1.06a3.89,3.89,0,0,1-3.146,1.351" transform="translate(-38.485 -3.392)" fill="#e1ebff"/></g></g></g></g></svg>