<svg xmlns="http://www.w3.org/2000/svg" xmlns:xlink="http://www.w3.org/1999/xlink" width="153" height="124.218" viewBox="0 0 153 124.218"><defs><clipPath id="a"><rect width="112.658" height="17.788" transform="translate(0 0)" fill="none"/></clipPath></defs><g transform="translate(-21031 -8556)"><path d="M0,0H153V124.218H0Z" transform="translate(21031 8556)" fill="none"/><g transform="translate(21051 8609)"><g clip-path="url(#a)"><path d="M85.756,7.595h7.128q-1.611,0-3.221,0-1.953,0-3.907,0" fill="#e1ebff"/><path d="M22.305,9.878a9.583,9.583,0,0,0-.975-3.39,11.112,11.112,0,0,0-9.4-6.444A9.783,9.783,0,0,0,7.837.527a11.289,11.289,0,0,0-6.909,6.3,10.405,10.405,0,0,0-.921,4.222c-.007.786,0,1.572,0,2.357h0c0,.975-.019,1.95,0,2.924a1.508,1.508,0,0,0,1.9,1.406,1.518,1.518,0,0,0,1.171-1.5c0-1.572,0-3.143.005-4.715a2.628,2.628,0,0,1,.1-.733,1.636,1.636,0,0,1,2.48-.84A1.655,1.655,0,0,1,6.4,11.368q0,2.238,0,4.475c0,.15,0,.3.006.448a1.547,1.547,0,0,0,1.842,1.44A1.517,1.517,0,0,0,9.529,16.2c0-1.512,0-3.023,0-4.535,0-.11,0-.219,0-.329a1.652,1.652,0,0,1,3.285-.27,2.641,2.641,0,0,1,.029.445c0,1.591-.007,3.182,0,4.774a1.442,1.442,0,0,0,.837,1.315,1.474,1.474,0,0,0,1.584-.088,1.554,1.554,0,0,0,.7-1.375c0-1.541,0-3.083,0-4.625a2.276,2.276,0,0,1,.071-.588,1.649,1.649,0,0,1,1.579-1.189,1.59,1.59,0,0,1,1.559,1.123,3.113,3.113,0,0,1,.1.823c.009,1.522,0,3.044.005,4.565a1.527,1.527,0,0,0,1.214,1.5,1.546,1.546,0,0,0,1.719-.83,2.018,2.018,0,0,0,.187-.956c0-1.482.01-2.964,0-4.446,0-.545-.045-1.092-.1-1.635" fill="#e1ebff"/><path d="M65.816,15.125c-.118.011-.214.024-.31.028a5.218,5.218,0,0,1-.624.02.665.665,0,0,1-.687-.619,3.352,3.352,0,0,1-.054-.592c0-3.142.015-6.284-.009-9.427A3.546,3.546,0,0,0,62,1.212,8.629,8.629,0,0,0,58.7.393a8.017,8.017,0,0,0-4.483.96A3.75,3.75,0,0,0,52.6,3.022,5.31,5.31,0,0,0,52.121,4.7c-.037.293-.057.588-.086.916.14.014.217.029.294.029.588,0,1.174,0,1.761,0,.295,0,.313-.021.326-.325a2.688,2.688,0,0,1,1.886-2.5,6,6,0,0,1,2.508-.181,4.356,4.356,0,0,1,1.434.378,2.169,2.169,0,0,1,1.333,1.71,4.029,4.029,0,0,1-.02,1.155,1.372,1.372,0,0,1-1.328,1.3c-1.486.2-2.972.394-4.457.605a6.192,6.192,0,0,0-2.995,1.237,3.655,3.655,0,0,0-1.311,1.843,6.043,6.043,0,0,0-.16,3.091,4.287,4.287,0,0,0,2.663,3.146,6.616,6.616,0,0,0,4.74-.081,7.917,7.917,0,0,0,2.723-1.941c.058-.061.123-.116.211-.2.044.114.073.185.095.258.085.285.151.578.255.856a1.81,1.81,0,0,0,1.343,1.194,4.366,4.366,0,0,0,2.3-.09c.2-.063.222-.091.223-.326,0-.468,0-.935,0-1.4a1.937,1.937,0,0,0-.039-.25M61.652,9.071c-.033.655-.059,1.31-.106,1.964a8.128,8.128,0,0,1-.137,1.122,3.237,3.237,0,0,1-1.136,1.777,5.015,5.015,0,0,1-3.02,1.266,5.428,5.428,0,0,1-1.624-.141,2.347,2.347,0,0,1-1.751-2.07,4.447,4.447,0,0,1,.042-1.038,2.167,2.167,0,0,1,1.656-1.805c.752-.21,1.528-.343,2.3-.487a20.048,20.048,0,0,0,2.451-.476c.34-.109.669-.25,1-.377.088-.033.176-.069.311-.123.006.161.016.275.012.388" fill="#e1ebff"/><path d="M96.537,7.654c-.081-.729-.149-1.465-.3-2.181a5.951,5.951,0,0,0-2.2-3.587A6.765,6.765,0,0,0,88.507.557,6.412,6.412,0,0,0,84.033,3.59,9.975,9.975,0,0,0,82.52,8.909a15.979,15.979,0,0,0,.166,2.136,8.254,8.254,0,0,0,.907,2.944,6.4,6.4,0,0,0,3.623,3.151,7.14,7.14,0,0,0,2.936.355,7.515,7.515,0,0,0,2.37-.54,6.625,6.625,0,0,0,3.818-4.7,1.528,1.528,0,0,0,.02-.281c-.137-.009-.244-.021-.35-.021q-.776,0-1.551,0c-.587,0-.534-.037-.736.513a4.173,4.173,0,0,1-2.836,2.675,4.55,4.55,0,0,1-2.412,0,3.429,3.429,0,0,1-1.855-1.123,4.86,4.86,0,0,1-.927-1.654,9.8,9.8,0,0,1-.417-2.371A1.917,1.917,0,0,1,85.3,9.7H96.666c0-.155,0-.253,0-.35-.04-.565-.065-1.132-.128-1.694m-2.788-.063c-.288.009-.577,0-.865,0H89.663q-1.953,0-3.907,0c-.378,0-.42-.041-.407-.4A4.526,4.526,0,0,1,86.9,3.826a4.413,4.413,0,0,1,5-.562,3.634,3.634,0,0,1,1.473,1.673,7.388,7.388,0,0,1,.62,2.381c.02.217-.019.266-.244.273" fill="#e1ebff"/><path d="M112.653,10.725c-.009-1.76-.017-3.519-.06-5.278a7.507,7.507,0,0,0-.351-2.081A3.813,3.813,0,0,0,109.355.635a10.64,10.64,0,0,0-1.233-.2,5.633,5.633,0,0,0-3.16.526,6.489,6.489,0,0,0-2.091,1.653c-.109.124-.224.243-.335.364l-.093-.031V2.654c0-.527,0-1.055,0-1.582,0-.265-.025-.288-.293-.289-.557,0-1.114,0-1.671,0-.428,0-.428,0-.428.421q0,7.668,0,15.335c0,.04,0,.08,0,.12,0,.256.015.27.271.271q1,0,2,0a2.1,2.1,0,0,0,.25-.038v-.345q0-4.177,0-8.354a10.936,10.936,0,0,1,.12-1.753,4.268,4.268,0,0,1,.817-2.053,4.309,4.309,0,0,1,4.05-1.607,2.4,2.4,0,0,1,2.2,1.853,7.864,7.864,0,0,1,.31,2.206c0,.6,0,1.193,0,1.79q0,3.924,0,7.847c0,.125.013.251.019.355.041.024.049.033.058.033l2.324.02c.125,0,.176-.072.177-.19,0-.079,0-.159,0-.238,0-1.91.006-3.82,0-5.729" fill="#e1ebff"/><path d="M75.277,7.321c-.3-.482-.32-.6.125-1.045q2.656-2.66,5.3-5.33a2.161,2.161,0,0,0,.153-.2c-.989,0-1.934,0-2.878,0a.75.75,0,0,0-.555.25c-.344.359-.692.714-1.038,1.071Q75.253,3.237,74.122,4.4q-1.467,1.508-2.937,3.011a3.779,3.779,0,0,1-.3.249c-.006-.19-.013-.3-.013-.417q0-3,0-6c0-.089,0-.179,0-.268a.177.177,0,0,0-.2-.2q-1,0-2,0a.192.192,0,0,0-.217.193c-.017.187-.044.375-.044.563q0,7.056,0,14.113c0,.208-.012.417-.03.625-.045.521.089.667.617.654s1.033-.025,1.549-.041c.085,0,.17-.021.286-.036v-.376c0-1.75,0-3.5,0-5.251a.837.837,0,0,1,.257-.64C71.67,10,72.256,9.4,72.846,8.812a2.016,2.016,0,0,1,.209-.153c.079.12.147.215.206.315q1.483,2.5,2.965,5c.512.863,1.028,1.725,1.535,2.591a.645.645,0,0,0,.6.362c.865,0,1.731,0,2.6,0a1.634,1.634,0,0,0,.245-.041c-.111-.19-.2-.345-.291-.5Q78.1,11.854,75.277,7.321" fill="#e1ebff"/><path d="M33.713,6.488q.745-.753,1.494-1.5l3.963-3.97c.072-.073.141-.148.256-.269h-.4c-.756,0-1.512.019-2.267,0a1.163,1.163,0,0,0-.946.4Q33.4,3.645,30.977,6.133c-.3.314-.615.622-.913.943-.159.171-.3.363-.437.54a.225.225,0,0,1-.2-.234c-.006-.1-.006-.2-.006-.3V1.175c0-.392,0-.393-.4-.394-.5,0-.994,0-1.492,0-.522,0-.48-.012-.481.494V16.4c0,.07,0,.14,0,.209.009.253.025.277.273.279q.911.006,1.821,0c.253,0,.274-.025.28-.273.016-.665.042-1.331.038-2,0-.9-.043-1.789-.047-2.683a2.6,2.6,0,0,1,1-2.107c.336-.277.63-.6.942-.909.083-.081.163-.164.273-.273.1.152.194.268.268.392q.984,1.653,1.962,3.31c.825,1.394,1.654,2.787,2.474,4.184a.72.72,0,0,0,.7.405c.785-.017,1.571-.006,2.357-.006h.354l.051-.069c-2.072-3.387-4.174-6.756-6.276-10.143.076-.088.137-.165.206-.234" fill="#e1ebff"/><path d="M49.278.459A4.14,4.14,0,0,0,47.655.59a4.194,4.194,0,0,0-1.61.991,10.806,10.806,0,0,0-1.326,1.608c-.053.074-.084.179-.238.194-.009-.119-.024-.224-.024-.329,0-.626,0-1.253,0-1.879,0-.114-.02-.228-.029-.333A12.8,12.8,0,0,0,42.1.87V9.527q0,3.5,0,7.009c0,.125.018.25.029.387h2.44v-.415c0-2.137,0-4.275,0-6.412,0-.934.023-1.868.04-2.8a4.145,4.145,0,0,1,.372-1.645A3.715,3.715,0,0,1,47.666,3.36a12.748,12.748,0,0,1,1.479-.147c.116-.011.231-.018.348-.027a.994.994,0,0,0,.035-.171c0-.765.006-1.531,0-2.3,0-.193-.046-.244-.251-.26" fill="#e1ebff"/></g></g></g></svg>