<svg xmlns="http://www.w3.org/2000/svg" xmlns:xlink="http://www.w3.org/1999/xlink" width="153" height="124.218" viewBox="0 0 153 124.218"><defs><clipPath id="a"><rect width="62.023" height="22.664" transform="translate(0 0)" fill="#2d5abe"/></clipPath></defs><g transform="translate(-21031 -8230)"><path d="M0,0H153V124.218H0Z" transform="translate(21031 8230)" fill="none"/><g transform="translate(21076 8280)"><path d="M5.909,0,.18.99v.525l.1.1,2.16.239V21.224L0,21.659v.54l.105.105H8.174L8.28,22.2v-.54l-2.266-.435V.1Z" fill="#2d5abe"/><g clip-path="url(#a)"><path d="M17.849,22.664a7.872,7.872,0,0,1-7.965-8.1c0-5.34,4.26-8.025,8.19-8.1a7.864,7.864,0,0,1,7.965,8.1c0,5.34-4.26,8.025-8.19,8.1m-.57-15.149c-2.175,0-3.87,2.145-3.87,5.61,0,5.04,2.445,8.474,5.235,8.474,2.175,0,3.885-2.129,3.885-5.594,0-5.04-2.46-8.49-5.25-8.49" fill="#2d5abe"/><path d="M36.524,6.465c3.135,0,5.97,1.65,5.82,5.415l-.12.1H38.729c.36-3.165-.75-4.515-2.64-4.515-2.445,0-4.425,2.25-4.425,5.97,0,4.469,2.715,6.9,5.67,6.9,2.13,0,3.285-.991,4.59-2.28l.675.614c-1.275,1.681-3.585,3.93-6.45,3.99a7.633,7.633,0,0,1-7.9-7.829c0-5.805,4.485-8.325,8.28-8.37" fill="#2d5abe"/><path d="M49.664,6.585V17.669c0,2.1,1.02,2.97,2.655,2.97a5.862,5.862,0,0,0,3.855-1.95V8.25l-2.325-.225-.1-.1V7.38l5.9-.915.1.12V20.954h2.174l.1.1v.615l-5.849.99-.1-.12.45-2.82c-1.245,1.125-3.78,2.94-6.03,2.94-2.52,0-4.41-1.77-4.41-4.92V8.25l-2.144-.225-.1-.1V7.38l5.729-.915Z" fill="#2d5abe"/></g></g></g></svg>