<svg xmlns="http://www.w3.org/2000/svg" xmlns:xlink="http://www.w3.org/1999/xlink" width="153" height="124" viewBox="0 0 153 124"><defs><clipPath id="a"><rect width="112.612" height="29.482" fill="none"/></clipPath></defs><g transform="translate(-21462 -8879)"><g transform="translate(21462 8879)"><rect width="153" height="124" fill="none"/></g><g transform="translate(21482 8923.98)"><g transform="translate(0 0)" clip-path="url(#a)"><path d="M25.443,3.535a1.768,1.768,0,1,0-1.772-1.768,1.769,1.769,0,0,0,1.772,1.768" transform="translate(-3.069 0)" fill="#e1ebff"/><path d="M27.734,32.223a1.768,1.768,0,1,0-1.772-1.768,1.77,1.77,0,0,0,1.772,1.768" transform="translate(-3.366 -3.719)" fill="#e1ebff"/><path d="M26.067,8.7A1.484,1.484,0,1,0,24.58,7.214,1.485,1.485,0,0,0,26.067,8.7" transform="translate(-3.187 -0.743)" fill="#e1ebff"/><path d="M30.612,9.35a1.484,1.484,0,1,0-1.487-1.484A1.485,1.485,0,0,0,30.612,9.35" transform="translate(-3.776 -0.827)" fill="#e1ebff"/><path d="M25.518,13.079a1.262,1.262,0,1,0-1.265-1.263,1.265,1.265,0,0,0,1.265,1.263" transform="translate(-3.145 -1.368)" fill="#e1ebff"/><path d="M30.063,13.7A1.262,1.262,0,1,0,28.8,12.433,1.265,1.265,0,0,0,30.063,13.7" transform="translate(-3.734 -1.448)" fill="#e1ebff"/><path d="M33.7,15.11a1.262,1.262,0,1,0-1.266-1.263A1.264,1.264,0,0,0,33.7,15.11" transform="translate(-4.205 -1.631)" fill="#e1ebff"/><path d="M28.742,17.224a1.1,1.1,0,1,0-1.108-1.1,1.106,1.106,0,0,0,1.108,1.1" transform="translate(-3.583 -1.946)" fill="#e1ebff"/><path d="M24.2,16.608a1.1,1.1,0,1,0-1.108-1.1,1.106,1.106,0,0,0,1.108,1.1" transform="translate(-2.994 -1.867)" fill="#e1ebff"/><path d="M32.414,18.639a1.1,1.1,0,1,0-1.108-1.1,1.106,1.106,0,0,0,1.108,1.1" transform="translate(-4.059 -2.13)" fill="#e1ebff"/><path d="M26.948,19.919a.947.947,0,1,0-.95-.947.948.948,0,0,0,.95.947" transform="translate(-3.371 -2.337)" fill="#e1ebff"/><path d="M30.62,21.3a.947.947,0,1,0-.95-.947.948.948,0,0,0,.95.947" transform="translate(-3.847 -2.515)" fill="#e1ebff"/><path d="M22.439,19.266a.947.947,0,1,0-.95-.947.948.948,0,0,0,.95.947" transform="translate(-2.786 -2.252)" fill="#e1ebff"/><path d="M24.971,21.743a.789.789,0,1,0-.791-.789.79.79,0,0,0,.791.789" transform="translate(-3.135 -2.614)" fill="#e1ebff"/><path d="M26.548,24.273a.695.695,0,1,0-.7-.695.7.7,0,0,0,.7.695" transform="translate(-3.352 -2.967)" fill="#e1ebff"/><path d="M24.64,24.82a.568.568,0,1,0-.569-.568.569.569,0,0,0,.569.568" transform="translate(-3.121 -3.07)" fill="#e1ebff"/><path d="M22.912,22.9a.695.695,0,1,0-.7-.695.7.7,0,0,0,.7.695" transform="translate(-2.88 -2.788)" fill="#e1ebff"/><path d="M20.426,21.127a.789.789,0,1,0-.791-.789.79.79,0,0,0,.791.789" transform="translate(-2.546 -2.534)" fill="#e1ebff"/><path d="M20.389,14.308a.789.789,0,1,0-.791-.789.79.79,0,0,0,.791.789" transform="translate(-2.541 -1.65)" fill="#e1ebff"/><path d="M20.8,11.144a.695.695,0,1,0-.7-.695.7.7,0,0,0,.7.695" transform="translate(-2.607 -1.265)" fill="#e1ebff"/><path d="M21.7,8.571A.568.568,0,1,0,21.126,8a.569.569,0,0,0,.569.568" transform="translate(-2.739 -0.964)" fill="#e1ebff"/><path d="M20.149,7.3a.695.695,0,1,0-.7-.695.7.7,0,0,0,.7.695" transform="translate(-2.522 -0.766)" fill="#e1ebff"/><path d="M28.607,23.121a.789.789,0,1,0-.791-.789.79.79,0,0,0,.791.789" transform="translate(-3.606 -2.793)" fill="#e1ebff"/><path d="M18.062,6.221a.789.789,0,1,0-.791-.789.79.79,0,0,0,.791.789" transform="translate(-2.239 -0.602)" fill="#e1ebff"/><path d="M18.68,10.065a.789.789,0,1,0-.791-.789.79.79,0,0,0,.791.789" transform="translate(-2.319 -1.1)" fill="#e1ebff"/><path d="M17.64,13.681a.947.947,0,1,0-.95-.947.948.948,0,0,0,.95.947" transform="translate(-2.164 -1.528)" fill="#e1ebff"/><path d="M14.306,13.634a1.1,1.1,0,1,0-1.108-1.1,1.106,1.106,0,0,0,1.108,1.1" transform="translate(-1.711 -1.481)" fill="#e1ebff"/><path d="M10.428,14.457a1.262,1.262,0,1,0-1.265-1.263,1.265,1.265,0,0,0,1.265,1.263" transform="translate(-1.188 -1.547)" fill="#e1ebff"/><path d="M6.178,16.459a1.484,1.484,0,1,0-1.487-1.484,1.485,1.485,0,0,0,1.487,1.484" transform="translate(-0.608 -1.749)" fill="#e1ebff"/><path d="M1.772,19.855A1.768,1.768,0,1,0,0,18.088a1.769,1.769,0,0,0,1.772,1.768" transform="translate(0 -2.116)" fill="#e1ebff"/><path d="M4.469,12.215a1.484,1.484,0,1,0-1.487-1.483,1.485,1.485,0,0,0,1.487,1.483" transform="translate(-0.387 -1.199)" fill="#e1ebff"/><path d="M8.719,10.214A1.262,1.262,0,1,0,7.454,8.951a1.265,1.265,0,0,0,1.265,1.263" transform="translate(-0.966 -0.997)" fill="#e1ebff"/><path d="M8.1,6.37A1.262,1.262,0,1,0,6.835,5.107,1.264,1.264,0,0,0,8.1,6.37" transform="translate(-0.886 -0.498)" fill="#e1ebff"/><path d="M11.98,5.546a1.1,1.1,0,1,0-1.108-1.1,1.106,1.106,0,0,0,1.108,1.1" transform="translate(-1.41 -0.432)" fill="#e1ebff"/><path d="M15.312,5.593a.947.947,0,1,0-.95-.947.948.948,0,0,0,.95.947" transform="translate(-1.862 -0.479)" fill="#e1ebff"/><path d="M15.93,9.437a.947.947,0,1,0-.95-.947.948.948,0,0,0,.95.947" transform="translate(-1.942 -0.978)" fill="#e1ebff"/><path d="M12.6,9.427a1.1,1.1,0,1,0-1.108-1.1,1.106,1.106,0,0,0,1.108,1.1" transform="translate(-1.49 -0.935)" fill="#e1ebff"/><path d="M9.078,19.234a.568.568,0,1,0-.569-.568.569.569,0,0,0,.569.568" transform="translate(-1.103 -2.346)" fill="#e1ebff"/><path d="M11.677,18.87a.695.695,0,1,0-.7-.695.7.7,0,0,0,.7.695" transform="translate(-1.424 -2.266)" fill="#e1ebff"/><path d="M14.535,17.754a.789.789,0,1,0-.791-.789.79.79,0,0,0,.791.789" transform="translate(-1.782 -2.097)" fill="#e1ebff"/><path d="M15.2,20.608a.947.947,0,1,0-.95-.947.948.948,0,0,0,.95.947" transform="translate(-1.848 -2.426)" fill="#e1ebff"/><path d="M11.736,21.344a.789.789,0,1,0-.791-.789.79.79,0,0,0,.791.789" transform="translate(-1.419 -2.563)" fill="#e1ebff"/><path d="M8.659,21.336a.695.695,0,1,0-.7-.695.7.7,0,0,0,.7.695" transform="translate(-1.032 -2.586)" fill="#e1ebff"/><path d="M8.681,23.81a.789.789,0,1,0-.791-.789.79.79,0,0,0,.791.789" transform="translate(-1.023 -2.882)" fill="#e1ebff"/><path d="M12.367,24.235a.947.947,0,1,0-.95-.947.948.948,0,0,0,.95.947" transform="translate(-1.48 -2.896)" fill="#e1ebff"/><path d="M16.67,23.716a1.1,1.1,0,1,0-1.108-1.1,1.106,1.106,0,0,0,1.108,1.1" transform="translate(-2.018 -2.788)" fill="#e1ebff"/><path d="M19.191,26.824a1.262,1.262,0,1,0-1.266-1.263,1.264,1.264,0,0,0,1.266,1.263" transform="translate(-2.324 -3.15)" fill="#e1ebff"/><path d="M13.87,27.307a1.1,1.1,0,1,0-1.108-1.1,1.106,1.106,0,0,0,1.108,1.1" transform="translate(-1.655 -3.254)" fill="#e1ebff"/><path d="M10.852,29.773a1.1,1.1,0,1,0-1.108-1.1,1.106,1.106,0,0,0,1.108,1.1" transform="translate(-1.263 -3.573)" fill="#e1ebff"/><path d="M13.337,32.917a1.262,1.262,0,1,0-1.265-1.263,1.265,1.265,0,0,0,1.265,1.263" transform="translate(-1.565 -3.94)" fill="#e1ebff"/><path d="M20,33.432a1.484,1.484,0,1,0-1.487-1.484A1.485,1.485,0,0,0,20,33.432" transform="translate(-2.4 -3.95)" fill="#e1ebff"/><path d="M16.355,30.451a1.262,1.262,0,1,0-1.265-1.263,1.265,1.265,0,0,0,1.265,1.263" transform="translate(-1.956 -3.62)" fill="#e1ebff"/><path d="M22.8,29.805a1.484,1.484,0,1,0-1.487-1.483A1.485,1.485,0,0,0,22.8,29.805" transform="translate(-2.763 -3.479)" fill="#e1ebff"/><path d="M9.349,26.7a.947.947,0,1,0-.95-.947.948.948,0,0,0,.95.947" transform="translate(-1.089 -3.216)" fill="#e1ebff"/><rect width="2.172" height="19.052" transform="translate(43.404 5.263)" fill="#e1ebff"/><path d="M60.4,15.505a9.719,9.719,0,1,1,9.735,9.859A9.944,9.944,0,0,1,60.4,15.505m12.639,7.238a7.987,7.987,0,0,0,4.624-7.238,7.55,7.55,0,1,0-7.528,7.867,7.061,7.061,0,0,0,2.9-.629" transform="translate(-7.831 -0.732)" fill="#e1ebff"/><path d="M94.593,8.1H88.2V6.046h14.933V8.1h-6.4v17H94.563Z" transform="translate(-11.436 -0.784)" fill="#e1ebff"/><path d="M117.028,8.7l-7.214,16.4h-2.362l7.907-17.978A1.788,1.788,0,0,1,117,6.047a1.756,1.756,0,0,1,1.639,1.074L126.543,25.1h-2.361Z" transform="translate(-13.932 -0.784)" fill="#e1ebff"/></g></g></g></svg>