<svg xmlns="http://www.w3.org/2000/svg" xmlns:xlink="http://www.w3.org/1999/xlink" width="153" height="124.218" viewBox="0 0 153 124.218"><defs><clipPath id="a"><rect width="95.652" height="40.291" fill="#2d5abe"/></clipPath></defs><g transform="translate(-21676 -8716)"><g transform="translate(21676 8716)"><path d="M0,0H153V124.218H0Z" fill="none"/></g><g transform="translate(21705 8758)"><g clip-path="url(#a)"><path d="M11.528,0H18.05c2.472,0,4.287.856,4.287,3.023,0,1.683-1.141,2.823-3.213,3.489,2.149.161,3.707,1.217,3.707,3.194,0,2.471-2.443,3.821-4.848,3.983H11.472l-.068-.066V13.28l1.693-.294V.7L11.452.409V.067ZM15.5.685V6.274h1.482c1.864,0,2.938-1.017,2.938-2.747A2.7,2.7,0,0,0,16.994.58,8.982,8.982,0,0,0,15.5.685m0,12.405h1.8c1.815,0,3.108-.875,3.108-2.947s-1.274-3.27-3.546-3.27H15.5Z" fill="#2d5abe"/><path d="M23.783,13.689l-.066-.067V13.28L25.266,13V4.781L23.9,4.639l-.066-.067V4.23l3.631-.58.066.076V13l1.436.276v.342l-.067.067ZM24.876.418l.086-.133A5.252,5.252,0,0,1,26.673.076,3.209,3.209,0,0,1,27.5.228l.095.133.057,1.787-.1.133a5.478,5.478,0,0,1-1.7.2,3.411,3.411,0,0,1-.836-.152l-.085-.134Z" fill="#2d5abe"/><path d="M31.156,13V4.781l-1.369-.142-.067-.067V4.23l3.7-.58.066.076L33.2,5.542A6.419,6.419,0,0,1,36.983,3.65c1.616,0,2.823,1.122,2.823,3.166V13l1.446.276v.342l-.067.067H36.071L36,13.622V13.28L37.544,13V6.863c0-1.34-.713-1.939-1.749-1.939A3.161,3.161,0,0,0,33.419,6.34V13l1.54.276v.342l-.067.067H29.673l-.067-.067V13.28Z" fill="#2d5abe"/><path d="M48.05,13.917l-.067-.076.2-1.644a4.825,4.825,0,0,1-3.384,1.72,2.358,2.358,0,0,1-2.6-2.366c0-1.75,1.54-2.767,3.622-3.337l2.167-.59V6.2c0-1.322-.618-1.854-1.512-1.854a1.963,1.963,0,0,0-1.426.532,5.39,5.39,0,0,0-.265,2.272H42.622l-.066-.067V6.664c0-1.949,2.385-2.918,4.4-3.013,1.578,0,3.3.617,3.3,2.785v6.4h1.369l.066.066v.39Zm-.057-5.675-1.16.3c-1.492.419-2.4,1.265-2.4,2.472a1.545,1.545,0,0,0,1.558,1.692,2.733,2.733,0,0,0,2.006-1.169Z" fill="#2d5abe"/><path d="M53.766,13V4.781L52.4,4.639l-.067-.067V4.23l3.7-.58.066.076L55.81,5.542A6.422,6.422,0,0,1,59.594,3.65c1.615,0,2.823,1.122,2.823,3.166V13l1.445.276v.342l-.067.067H58.681l-.066-.067V13.28L60.155,13V6.863c0-1.34-.713-1.939-1.749-1.939A3.163,3.163,0,0,0,56.029,6.34V13l1.54.276v.342l-.067.067H52.284l-.067-.067V13.28Z" fill="#2d5abe"/><path d="M70,3.65c1.987,0,3.784,1.046,3.688,3.432l-.076.066H71.4c.229-2-.475-2.861-1.672-2.861-1.55,0-2.8,1.426-2.8,3.783,0,2.833,1.721,4.373,3.594,4.373A3.824,3.824,0,0,0,73.427,11l.428.39c-.809,1.065-2.273,2.491-4.088,2.529a4.838,4.838,0,0,1-5.01-4.962A5.115,5.115,0,0,1,70,3.65" fill="#2d5abe"/><path d="M83.961,8.014h-6.74a1.959,1.959,0,0,0-.01.247c0,2.671,1.741,4.183,3.622,4.183a4.1,4.1,0,0,0,2.852-1.3l.4.4a5.652,5.652,0,0,1-4.011,2.377,4.844,4.844,0,0,1-5.048-4.944A5.119,5.119,0,0,1,80.282,3.65a3.473,3.473,0,0,1,3.746,3.574v.723ZM77.27,7.348h4.467c.152-2.015-.514-3.051-1.769-3.051-1.34,0-2.452,1.008-2.7,3.051" fill="#2d5abe"/><path d="M.066,36.488,0,36.422V36.08L1.549,35.8V23.531L.18,23.38l-.066-.068V22.98l3.631-.628.066.067V35.8l1.436.277v.342l-.067.066Z" fill="#2d5abe"/><path d="M12.164,36.717l-.067-.076L12.3,35a4.83,4.83,0,0,1-3.383,1.721,2.36,2.36,0,0,1-2.6-2.367c0-1.749,1.54-2.767,3.622-3.337l2.168-.589V29c0-1.322-.618-1.854-1.512-1.854a1.96,1.96,0,0,0-1.426.532A5.374,5.374,0,0,0,8.9,29.948H6.736l-.067-.066v-.418c0-1.949,2.386-2.919,4.4-3.014,1.578,0,3.3.617,3.3,2.785v6.4h1.369l.066.066v.39Zm-.057-5.676-1.16.305c-1.492.418-2.4,1.264-2.4,2.471A1.546,1.546,0,0,0,10.1,35.51a2.736,2.736,0,0,0,2.006-1.17Z" fill="#2d5abe"/><path d="M19.7,26.526V33.55c0,1.331.646,1.883,1.683,1.883A3.713,3.713,0,0,0,23.831,34.2V27.581l-1.474-.143-.066-.066V27.03l3.736-.58.067.076v9.106h1.378l.066.067v.39l-3.707.627-.066-.076.285-1.787a6.709,6.709,0,0,1-3.822,1.863c-1.6,0-2.794-1.122-2.794-3.118V27.581l-1.36-.143-.066-.066V27.03l3.631-.58Z" fill="#2d5abe"/><path d="M29.727,35.8V27.581l-1.369-.142-.067-.067v-.341l3.7-.581.066.077-.285,1.815a6.425,6.425,0,0,1,3.783-1.892c1.616,0,2.823,1.122,2.823,3.166V35.8l1.446.276v.342l-.067.067H34.642l-.067-.067V36.08l1.54-.276V29.663c0-1.34-.713-1.939-1.749-1.939a3.159,3.159,0,0,0-2.376,1.417V35.8l1.54.276v.342l-.067.067H28.244l-.067-.067V36.08Z" fill="#2d5abe"/><path d="M45.965,26.45c1.986,0,3.783,1.046,3.688,3.432l-.076.066H47.362c.228-2.006-.475-2.861-1.673-2.861-1.549,0-2.8,1.426-2.8,3.783,0,2.833,1.721,4.373,3.593,4.373A3.822,3.822,0,0,0,49.387,33.8l.428.39c-.808,1.065-2.272,2.491-4.088,2.529a4.838,4.838,0,0,1-5.01-4.962,5.116,5.116,0,0,1,5.248-5.3" fill="#2d5abe"/><path d="M52.127,35.8V23.532l-1.369-.152-.067-.067v-.332l3.632-.628.067.066v5.714a6.281,6.281,0,0,1,3.564-1.683c1.616,0,2.833,1.122,2.833,3.166V35.8l1.436.276v.342l-.067.067H57.042l-.066-.067V36.08l1.548-.276V29.663c0-1.34-.721-1.939-1.758-1.939a3.159,3.159,0,0,0-2.376,1.417V35.8l1.55.276v.342l-.068.067H50.645l-.068-.067V36.08Z" fill="#2d5abe"/><path d="M64.107,39.606V27.6l-1.37-.142-.066-.068v-.342l3.669-.6.066.076-.247,1.406a4.542,4.542,0,0,1,3.072-1.482c2.252,0,4.02,1.891,4.02,4.7a5.2,5.2,0,0,1-5.313,5.5,5.675,5.675,0,0,1-1.56-.218v3.165l2.311.275v.343l-.067.067H62.633l-.067-.067v-.343Zm2.271-11v6.7a2.224,2.224,0,0,0,1.74.723c1.778,0,2.956-1.654,2.956-3.946,0-2.785-1.369-4.411-2.947-4.411a2.075,2.075,0,0,0-1.749.932" fill="#2d5abe"/><path d="M80.544,36.717l-.067-.076.2-1.645a4.83,4.83,0,0,1-3.384,1.721,2.359,2.359,0,0,1-2.6-2.367c0-1.749,1.54-2.767,3.622-3.337l2.167-.589V29c0-1.322-.618-1.854-1.512-1.854a1.963,1.963,0,0,0-1.426.532,5.4,5.4,0,0,0-.265,2.272H75.116l-.066-.066v-.418c0-1.949,2.385-2.919,4.4-3.014,1.578,0,3.3.617,3.3,2.785v6.4h1.369l.066.066v.39Zm-.057-5.676-1.16.305c-1.492.418-2.4,1.264-2.4,2.471a1.546,1.546,0,0,0,1.558,1.693,2.734,2.734,0,0,0,2.006-1.17Z" fill="#2d5abe"/><path d="M90.386,26.5a6.258,6.258,0,0,1,1.578.218V23.541l-1.378-.162-.067-.067V22.98l3.641-.628.067.066v13.4h1.359l.066.066v.381l-3.736.456-.066-.076.313-1.407a4.175,4.175,0,0,1-2.994,1.483c-2.281,0-4.088-1.9-4.088-4.714a5.2,5.2,0,0,1,5.305-5.5m1.578,8.109v-6.75a2.285,2.285,0,0,0-1.749-.731c-1.777,0-2.956,1.654-2.956,3.954,0,2.786,1.368,4.411,2.936,4.411a2.053,2.053,0,0,0,1.769-.884" fill="#2d5abe"/></g></g></g></svg>