<svg xmlns="http://www.w3.org/2000/svg" xmlns:xlink="http://www.w3.org/1999/xlink" width="153" height="124.218" viewBox="0 0 153 124.218"><defs><clipPath id="a"><rect width="62.572" height="45.131" fill="#2d5abe"/></clipPath></defs><g transform="translate(-21676 -8393)"><g transform="translate(21676 8393)"><path d="M0,0H153V124.218H0Z" fill="none"/></g><g transform="translate(21721 8433)"><path d="M10.316.875l.258,1.372,1.46,4.145H8.42ZM11.709,0l-1.65.172L6.675,9.991l-.8.215v.258l.05.05H8.3l.05-.05v-.258L7.177,9.983,8.262,6.838h3.929L13.3,9.983l-1.17.224v.258l.049.05h3.8l.05-.05v-.258l-.805-.215Z" transform="translate(2.557)" fill="#2d5abe"/><g transform="translate(0 0)"><g clip-path="url(#a)"><path d="M17.139,2.042c1.5,0,2.857.789,2.784,2.593l-.056.05H18.194c.171-1.516-.36-2.163-1.264-2.163-1.171,0-2.118,1.078-2.118,2.859,0,2.141,1.3,3.3,2.715,3.3a2.894,2.894,0,0,0,2.2-1.091l.323.294A4.336,4.336,0,0,1,16.959,9.8a3.656,3.656,0,0,1-3.787-3.75,3.866,3.866,0,0,1,3.967-4.007" transform="translate(5.732 0.888)" fill="#2d5abe"/><path d="M19.593,9.11V2.9L18.558,2.79l-.05-.05V2.48l2.73-.438.052.057-.166,1.752A3.042,3.042,0,0,1,22.76,2.128H23.9l.05.05v1.2H22.179A2.2,2.2,0,0,0,21.3,4.406v4.7l1.731.208v.258l-.05.05H18.472l-.049-.05V9.318Z" transform="translate(8.016 0.888)" fill="#2d5abe"/><path d="M26.37,9.8a3.77,3.77,0,0,1-3.813-3.878,3.831,3.831,0,0,1,3.924-3.879,3.765,3.765,0,0,1,3.813,3.879A3.832,3.832,0,0,1,26.37,9.8M26.1,2.544c-1.043,0-1.853,1.028-1.853,2.687,0,2.414,1.17,4.059,2.506,4.059,1.042,0,1.861-1.02,1.861-2.679,0-2.414-1.178-4.066-2.514-4.066" transform="translate(9.815 0.888)" fill="#2d5abe"/><path d="M29.077,6.919h.33l.776,1.759a2.453,2.453,0,0,0,1.673.633c.755,0,1.394-.382,1.394-1.142,0-.8-.891-1.121-1.953-1.537-1.25-.5-2.514-1.1-2.514-2.428s1.227-2.161,3.045-2.161a6.571,6.571,0,0,1,2.356.675l-.1,1.983-.05.049h-.344l-.7-1.652a2.457,2.457,0,0,0-1.58-.567c-.662,0-1.358.287-1.358,1.035,0,.782.861,1.084,1.917,1.507,1.22.489,2.565,1.042,2.565,2.421S33.307,9.8,31.427,9.8a7.008,7.008,0,0,1-2.493-.732l.093-2.1Z" transform="translate(12.524 0.888)" fill="#2d5abe"/><path d="M34.007,6.919h.33l.776,1.759a2.456,2.456,0,0,0,1.673.633c.755,0,1.394-.382,1.394-1.142,0-.8-.891-1.121-1.953-1.537-1.25-.5-2.514-1.1-2.514-2.428s1.227-2.161,3.045-2.161a6.571,6.571,0,0,1,2.356.675l-.1,1.983-.05.049h-.344L37.924,3.1a2.461,2.461,0,0,0-1.582-.567c-.662,0-1.356.287-1.356,1.035,0,.782.86,1.084,1.917,1.507,1.22.489,2.565,1.042,2.565,2.421S38.238,9.8,36.357,9.8a7.008,7.008,0,0,1-2.493-.732l.093-2.1Z" transform="translate(14.67 0.888)" fill="#2d5abe"/><path d="M11.688,22.207l.8-.215,3.384-9.818L17.52,12l3.512,9.991.805.215v.258l-.05.052h-3.8l-.05-.052v-.258l1.17-.222L18,18.838H14.073l-1.085,3.146,1.17.222v.258l-.05.052H11.738l-.05-.052Zm2.542-3.813h3.614l-1.458-4.145-.258-1.372Z" transform="translate(5.086 5.221)" fill="#2d5abe"/><path d="M19.6,18.919h.329l.776,1.759a2.457,2.457,0,0,0,1.675.633c.753,0,1.392-.382,1.392-1.142,0-.8-.89-1.121-1.953-1.537-1.25-.5-2.514-1.1-2.514-2.428s1.228-2.161,3.045-2.161a6.571,6.571,0,0,1,2.356.675l-.1,1.983-.05.049h-.344l-.7-1.652a2.457,2.457,0,0,0-1.58-.567c-.66,0-1.358.287-1.358,1.035,0,.782.863,1.084,1.919,1.507,1.22.489,2.563,1.042,2.563,2.421S23.833,21.8,21.952,21.8a7.017,7.017,0,0,1-2.493-.732l.095-2.1Z" transform="translate(8.402 6.11)" fill="#2d5abe"/><path d="M23.988,22.446l-.05-.05v-.26l1.171-.208V15.715l-1.035-.108-.05-.05V15.3l2.744-.438.05.057v7.009l1.084.208v.26l-.049.05Zm.827-10.027.065-.1a3.978,3.978,0,0,1,1.292-.158,2.459,2.459,0,0,1,.626.115l.072.1.043,1.35-.072.1a4.143,4.143,0,0,1-1.284.151,2.552,2.552,0,0,1-.634-.115l-.065-.1Z" transform="translate(10.416 5.291)" fill="#2d5abe"/><path d="M31.679,21.8l-.049-.057.151-1.243a3.649,3.649,0,0,1-2.559,1.3,1.783,1.783,0,0,1-1.959-1.788c0-1.322,1.164-2.091,2.735-2.522l1.637-.445V15.967c0-1-.465-1.4-1.141-1.4a1.48,1.48,0,0,0-1.078.4,4.06,4.06,0,0,0-.2,1.716H27.579l-.05-.05v-.316c0-1.472,1.8-2.2,3.325-2.276,1.191,0,2.491.466,2.491,2.1v4.834H34.38l.05.05v.294Zm-.043-4.288-.875.23c-1.128.316-1.818.956-1.818,1.867a1.168,1.168,0,0,0,1.178,1.279A2.059,2.059,0,0,0,31.636,20Z" transform="translate(11.863 6.11)" fill="#2d5abe"/><path d="M0,34.207l.8-.215,3.383-9.818L5.832,24l3.512,9.991.807.215v.258l-.052.052H6.3l-.05-.052v-.258l1.17-.222L6.314,30.838H2.386L1.3,33.984l1.17.222v.258l-.049.052H.051L0,34.465Zm2.543-3.813H6.156L4.7,26.249l-.258-1.372Z" transform="translate(0 10.443)" fill="#2d5abe"/><path d="M7.31,34.565l-.049-.05v-.258l1.17-.208V24.775L7.4,24.66l-.052-.05v-.251l2.744-.474.052.05V34.049l1.085.208v.258l-.052.05Z" transform="translate(3.159 10.393)" fill="#2d5abe"/><path d="M10.351,34.565l-.05-.05v-.258l1.17-.208V24.775l-1.033-.115-.052-.05v-.251l2.745-.474.05.05V34.049l1.085.208v.258l-.052.05Z" transform="translate(4.482 10.393)" fill="#2d5abe"/><path d="M13.451,34.446l-.05-.05v-.26l1.171-.208V27.715l-1.035-.108-.05-.05V27.3l2.744-.438.05.057v7.009l1.084.208v.26l-.049.05Zm.827-10.027.065-.1a3.978,3.978,0,0,1,1.292-.158,2.459,2.459,0,0,1,.626.115l.072.1.043,1.35-.072.1a4.143,4.143,0,0,1-1.284.151,2.553,2.553,0,0,1-.634-.115l-.065-.1Z" transform="translate(5.831 10.512)" fill="#2d5abe"/><path d="M21.142,33.8l-.049-.057.151-1.243a3.649,3.649,0,0,1-2.559,1.3,1.783,1.783,0,0,1-1.959-1.788c0-1.322,1.164-2.091,2.735-2.522l1.637-.445V27.967c0-1-.465-1.4-1.141-1.4a1.48,1.48,0,0,0-1.078.4,4.06,4.06,0,0,0-.2,1.716H17.042l-.05-.05v-.316c0-1.472,1.8-2.2,3.325-2.276,1.191,0,2.491.466,2.491,2.1v4.834h1.035l.05.05v.294ZM21.1,29.511l-.875.23c-1.128.316-1.818.956-1.818,1.867a1.168,1.168,0,0,0,1.178,1.279A2.059,2.059,0,0,0,21.1,32Z" transform="translate(7.278 11.331)" fill="#2d5abe"/><path d="M23.167,33.11V26.9L22.13,26.79l-.049-.05v-.26l2.794-.438.05.057-.217,1.372a4.863,4.863,0,0,1,2.859-1.429A2.123,2.123,0,0,1,29.7,28.434V33.11l1.091.208v.258l-.05.05H26.879l-.049-.05v-.258l1.161-.208V28.47c0-1.013-.538-1.465-1.322-1.465a2.383,2.383,0,0,0-1.794,1.071V33.11l1.162.208v.258l-.05.05H22.046L22,33.576v-.258Z" transform="translate(9.572 11.331)" fill="#2d5abe"/><path d="M32.56,26.042c1.5,0,2.859.789,2.787,2.593l-.059.05H33.615c.174-1.516-.359-2.163-1.264-2.163-1.17,0-2.118,1.078-2.118,2.859,0,2.141,1.3,3.3,2.717,3.3a2.892,2.892,0,0,0,2.2-1.091l.323.294a4.336,4.336,0,0,1-3.088,1.91,3.656,3.656,0,0,1-3.786-3.75,3.865,3.865,0,0,1,3.965-4.007" transform="translate(12.443 11.331)" fill="#2d5abe"/><path d="M40.752,29.34H35.66c-.006.057-.006.122-.006.185a2.861,2.861,0,0,0,2.735,3.162,3.111,3.111,0,0,0,2.156-.985l.3.3a4.271,4.271,0,0,1-3.031,1.8A3.661,3.661,0,0,1,34,30.065a3.869,3.869,0,0,1,3.974-4.023,2.624,2.624,0,0,1,2.83,2.7v.545Zm-5.056-.5h3.377c.115-1.523-.389-2.3-1.336-2.3-1.013,0-1.853.761-2.041,2.3" transform="translate(14.795 11.331)" fill="#2d5abe"/><path d="M39.885,30.919h.329l.778,1.759a2.453,2.453,0,0,0,1.673.633c.753,0,1.392-.382,1.392-1.142,0-.8-.89-1.121-1.953-1.537-1.249-.5-2.513-1.1-2.513-2.428s1.227-2.161,3.045-2.161a6.588,6.588,0,0,1,2.356.675l-.1,1.983-.05.049H44.5L43.8,27.1a2.458,2.458,0,0,0-1.582-.567c-.66,0-1.356.287-1.356,1.035,0,.782.861,1.084,1.917,1.507,1.221.489,2.565,1.042,2.565,2.421S44.116,33.8,42.235,33.8a7.015,7.015,0,0,1-2.494-.732l.095-2.1Z" transform="translate(17.227 11.331)" fill="#2d5abe"/></g></g></g></g></svg>