<svg xmlns="http://www.w3.org/2000/svg" xmlns:xlink="http://www.w3.org/1999/xlink" width="153" height="124" viewBox="0 0 153 124"><defs><clipPath id="a"><rect width="103.724" height="22.664" transform="translate(0 0)" fill="#2d5abe"/></clipPath></defs><g transform="translate(-21462 -8063)"><g transform="translate(21462 8063)"><rect width="153" height="124" fill="none"/></g><g transform="translate(21487 8113)"><g clip-path="url(#a)"><path d="M.615,16.65H1.3l1.621,3.675a5.121,5.121,0,0,0,3.5,1.32c1.574,0,2.91-.8,2.91-2.385,0-1.665-1.861-2.34-4.08-3.21C2.639,15,0,13.755,0,10.98,0,8.22,2.564,6.465,6.359,6.465a13.745,13.745,0,0,1,4.92,1.411l-.21,4.139-.1.1h-.721L8.789,8.671a5.113,5.113,0,0,0-3.3-1.186c-1.381,0-2.836.6-2.836,2.16,0,1.635,1.8,2.265,4.006,3.15,2.549,1.02,5.353,2.175,5.353,5.055,0,2.85-2.564,4.815-6.494,4.815a14.581,14.581,0,0,1-5.205-1.53l.2-4.38Z" fill="#2d5abe"/><path d="M22.439,22.664a7.872,7.872,0,0,1-7.965-8.1c0-5.34,4.26-8.025,8.19-8.1a7.864,7.864,0,0,1,7.965,8.1c0,5.34-4.26,8.025-8.19,8.1m-.57-15.149C19.695,7.515,18,9.66,18,13.125c0,5.04,2.445,8.474,5.234,8.474,2.175,0,3.885-2.129,3.885-5.594,0-5.04-2.46-8.49-5.25-8.49" fill="#2d5abe"/><path d="M37.109,2.43h.586l.1.105v4.29h4.185v1.05H37.8V18.749c0,1.395.615,2.025,1.635,2.025a4.905,4.905,0,0,0,2.521-1.095l.539.75a8.845,8.845,0,0,1-4.8,2.235c-2.235,0-3.481-1.425-3.481-3.735V7.875H31.259V6.93l.106-.105h2.849V4.155Z" fill="#2d5abe"/><path d="M53.129,22.665l-.105-.121.316-2.594A7.62,7.62,0,0,1,48,22.665c-2.28,0-4.1-1.35-4.1-3.735,0-2.76,2.43-4.365,5.715-5.265l3.42-.93v-2.25c0-2.085-.975-2.925-2.385-2.925a3.092,3.092,0,0,0-2.25.84,8.5,8.5,0,0,0-.42,3.585h-3.42l-.1-.1v-.66c0-3.075,3.766-4.605,6.945-4.755,2.49,0,5.205.975,5.205,4.395v10.1h2.16l.1.1v.615Zm-.09-8.955-1.83.48c-2.355.66-3.795,1.995-3.795,3.9a2.439,2.439,0,0,0,2.461,2.67,4.306,4.306,0,0,0,3.164-1.845Z" fill="#2d5abe"/><path d="M64.6,2.43h.585l.1.105v4.29h4.184v1.05H65.294V18.749c0,1.395.615,2.025,1.635,2.025a4.9,4.9,0,0,0,2.52-1.095l.54.75a8.848,8.848,0,0,1-4.8,2.235c-2.234,0-3.481-1.425-3.481-3.735V7.875H58.753V6.93l.106-.105h2.849V4.155Z" fill="#2d5abe"/><path d="M84.794,13.35H74.159a3.263,3.263,0,0,0-.015.39c0,4.215,2.744,6.6,5.715,6.6a6.483,6.483,0,0,0,4.5-2.056l.629.631c-1.2,1.574-3.645,3.749-6.329,3.749a7.642,7.642,0,0,1-7.965-7.8c0-5.834,4.47-8.354,8.295-8.4,3.284.03,5.909,2.01,5.909,5.64v1.14ZM74.234,12.3h7.05c.239-3.18-.81-4.815-2.79-4.815-2.115,0-3.869,1.59-4.26,4.815" fill="#2d5abe"/><path d="M86.489,22.3l-.1-.1v-.54l2.444-.435V1.86l-2.16-.24-.1-.1V.99L92.294,0l.1.105V14.159l7.441-6.27-2.386-.435V6.929l.105-.1h5.356l.119.1v.525l-1.695.421-6.464,5.444,2.715,1.245,4.589,6.54,1.545.555v.54l-.1.1h-4.86l-5.31-7.785L92.4,15.4v5.82l2.865.435v.54l-.1.1Z" fill="#2d5abe"/></g></g></g></svg>