<svg xmlns="http://www.w3.org/2000/svg" xmlns:xlink="http://www.w3.org/1999/xlink" width="153" height="124.218" viewBox="0 0 153 124.218"><defs><clipPath id="a"><rect width="112.257" height="20.053" transform="translate(0 0)" fill="none"/></clipPath></defs><g transform="translate(-21246 -8393)"><path d="M0,0H153V124.218H0Z" transform="translate(21246 8393)" fill="none"/><g transform="translate(21266 8445)"><g clip-path="url(#a)"><path d="M22.656,5.6a7.12,7.12,0,0,0-7.264,7.24,7.051,7.051,0,0,0,7.264,7.213,7.134,7.134,0,0,0,7.319-7.24A7.1,7.1,0,0,0,22.656,5.6m.028,11.466A4.013,4.013,0,0,1,18.66,12.84a4,4,0,0,1,4-4.253,4.041,4.041,0,0,1,4.051,4.253,4.012,4.012,0,0,1-4.023,4.225m8.182-8.317h2.025V19.784h3.241V5.868H30.866ZM7.237,8.586A3.683,3.683,0,0,1,10.8,11.2h3.43A6.8,6.8,0,0,0,7.264,5.6,7.12,7.12,0,0,0,0,12.84a7.051,7.051,0,0,0,7.264,7.213A6.833,6.833,0,0,0,14.2,14.427H10.8a3.653,3.653,0,0,1-3.538,2.638,3.975,3.975,0,0,1-4-4.225,3.965,3.965,0,0,1,3.97-4.254m85.2,2.908-2.377-.35c-1.134-.161-1.944-.538-1.944-1.427,0-.969,1.054-1.453,2.485-1.453,1.566,0,2.565.673,2.781,1.776h3.133C96.162,7.241,94,5.6,90.681,5.6c-3.43,0-5.7,1.749-5.7,4.225,0,2.369,1.485,3.742,4.482,4.172l2.377.35c1.161.161,1.809.619,1.809,1.48,0,1.1-1.134,1.561-2.7,1.561-1.918,0-3-.78-3.16-1.964H84.605c.3,2.719,2.43,4.629,6.319,4.629,3.538,0,5.886-1.615,5.886-4.388,0-2.476-1.7-3.768-4.374-4.171M34.512.135a2,2,0,0,0-2.08,2.045,2.08,2.08,0,0,0,4.159,0A2,2,0,0,0,34.512.135m47.554,10.5c0-3.014-1.836-5.032-5.724-5.032-3.673,0-5.725,1.857-6.131,4.71h3.214c.162-1.1,1.026-2.018,2.863-2.018,1.647,0,2.457.726,2.457,1.615,0,1.158-1.485,1.453-3.321,1.642-2.485.269-5.563,1.13-5.563,4.36,0,2.5,1.864,4.118,4.834,4.118,2.322,0,3.78-.969,4.51-2.5a2.4,2.4,0,0,0,2.566,2.261h1.89V16.9H82.067V10.632Zm-3.186,3.5a3.385,3.385,0,0,1-3.592,3.23c-1.216,0-2.242-.512-2.242-1.588,0-1.372,1.648-1.749,3.16-1.91,1.458-.135,2.268-.458,2.674-1.077ZM61.678,5.6a5.649,5.649,0,0,0-4.4,2.018V0h-3.24V19.784h3.186v-1.83a5.619,5.619,0,0,0,4.456,2.1,6.861,6.861,0,0,0,6.833-7.213A6.917,6.917,0,0,0,61.678,5.6m-.486,11.466a4.013,4.013,0,0,1-4.024-4.225,4.057,4.057,0,0,1,4.051-4.253,3.984,3.984,0,0,1,4,4.253,4.012,4.012,0,0,1-4.023,4.225M46.285,5.6a4.851,4.851,0,0,0-4.294,2.072v-1.8H38.777V19.783h3.241V12.22a3.34,3.34,0,0,1,3.348-3.634,2.947,2.947,0,0,1,3.024,3.231v7.967h3.241V11.575c0-3.5-1.808-5.976-5.346-5.976m65.972,6.783A6.578,6.578,0,0,0,105.425,5.6a7.043,7.043,0,0,0-7.21,7.24,7.033,7.033,0,0,0,7.264,7.213,6.575,6.575,0,0,0,6.7-4.818H108.8a3.248,3.248,0,0,1-3.268,1.938,3.889,3.889,0,0,1-4-3.553h10.721V12.382Zm-10.532-1.077a3.627,3.627,0,0,1,3.646-2.88,3.394,3.394,0,0,1,3.564,2.88Z" fill="#e1ebff"/></g></g></g></svg>