<svg xmlns="http://www.w3.org/2000/svg" xmlns:xlink="http://www.w3.org/1999/xlink" width="153" height="124.218" viewBox="0 0 153 124.218"><defs><clipPath id="a"><rect width="93.996" height="64.303" fill="#e1ebff"/></clipPath><clipPath id="c"><rect width="8.308" height="9.517" fill="#e1ebff"/></clipPath><clipPath id="d"><rect width="8.295" height="9.517" fill="#e1ebff"/></clipPath><clipPath id="e"><rect width="8.308" height="9.504" fill="#e1ebff"/></clipPath><clipPath id="g"><rect width="8.295" height="9.504" fill="#e1ebff"/></clipPath><clipPath id="h"><rect width="8.282" height="9.517" fill="#e1ebff"/></clipPath><clipPath id="k"><rect width="8.282" height="9.504" fill="#e1ebff"/></clipPath></defs><g transform="translate(-21676 -8230)"><g transform="translate(21676 8230)"><path d="M0,0H153V124.218H0Z" fill="none"/></g><g transform="translate(21706 8259)"><g clip-path="url(#a)"><g clip-path="url(#a)"><path d="M3.421,356.2a.512.512,0,0,1,.579.579V374.1a.506.506,0,0,1-.579.579H.6c-.4,0-.6-.193-.6-.579V356.779c0-.4.206-.579.6-.579Z" transform="translate(0 -310.391)" fill="#e1ebff"/><path d="M69.268,387.2a12.019,12.019,0,0,1,2.945.3,4.476,4.476,0,0,1,1.916.952,3.652,3.652,0,0,1,1.029,1.672,8.068,8.068,0,0,1,.309,2.444v3.794a8.495,8.495,0,0,1-.309,2.443,3.763,3.763,0,0,1-1.029,1.672,4.257,4.257,0,0,1-1.916.939,12.755,12.755,0,0,1-2.945.283H61.9a12.723,12.723,0,0,1-2.958-.283,4.274,4.274,0,0,1-1.9-.939,3.763,3.763,0,0,1-1.029-1.672,8.495,8.495,0,0,1-.309-2.443v-3.794a8.5,8.5,0,0,1,.309-2.444,3.763,3.763,0,0,1,1.029-1.672,4.351,4.351,0,0,1,1.9-.952,12.061,12.061,0,0,1,2.958-.3Zm-9.851,8.5a6.119,6.119,0,0,0,.129,1.4,1.932,1.932,0,0,0,.45.887,1.86,1.86,0,0,0,.875.476,5.811,5.811,0,0,0,1.376.154h6.662a4.741,4.741,0,0,0,1.4-.154,1.86,1.86,0,0,0,.875-.476,1.716,1.716,0,0,0,.45-.887,6.045,6.045,0,0,0,.129-1.4v-2.508a5.835,5.835,0,0,0-.129-1.363,2.123,2.123,0,0,0-.45-.9,1.662,1.662,0,0,0-.875-.476,6.736,6.736,0,0,0-1.4-.141H62.259a5.138,5.138,0,0,0-1.376.141,1.755,1.755,0,0,0-.875.476,1.811,1.811,0,0,0-.45.9,5.835,5.835,0,0,0-.129,1.363V395.7Z" transform="translate(-48.537 -337.404)" fill="#e1ebff"/><path d="M246.088,356.2c.4,0,.6.193.6.579v2.585a.533.533,0,0,1-.6.6H237.9v14.121a.506.506,0,0,1-.579.579h-2.842a.512.512,0,0,1-.579-.579V359.968H225.7a.538.538,0,0,1-.6-.6v-2.585c0-.4.206-.579.6-.579h20.384Z" transform="translate(-196.151 -310.391)" fill="#e1ebff"/><path d="M415.838,387.2a8.972,8.972,0,0,1,2.212.219,2.7,2.7,0,0,1,2.1,2.083,8.969,8.969,0,0,1,.219,2.019v2.508a1.57,1.57,0,0,1-.36,1.183,1.638,1.638,0,0,1-1.119.321H405.7v.643a2.371,2.371,0,0,0,.592,1.788,3.463,3.463,0,0,0,2.276.553h10.867a.418.418,0,0,1,.463.476v2.225a.418.418,0,0,1-.463.476H408.2a12.723,12.723,0,0,1-2.958-.283,4.343,4.343,0,0,1-1.9-.939,3.763,3.763,0,0,1-1.029-1.672,8.068,8.068,0,0,1-.309-2.443v-3.794a8.5,8.5,0,0,1,.309-2.444,3.763,3.763,0,0,1,1.029-1.672,4.351,4.351,0,0,1,1.9-.952,11.991,11.991,0,0,1,2.958-.3Zm-10.147,5.993h10.558a.392.392,0,0,0,.437-.45v-1.106a1.633,1.633,0,0,0-.334-1.17,1.747,1.747,0,0,0-1.247-.334h-6.546a3.473,3.473,0,0,0-2.276.54,2.384,2.384,0,0,0-.592,1.8Z" transform="translate(-350.301 -337.404)" fill="#e1ebff"/><path d="M578.623,356.113c.244,0,.373.077.4.257a.508.508,0,0,1-.141.437l-8,8.218,8.372,8.887a.463.463,0,0,1,.141.437c-.026.167-.154.257-.4.257h-3.575a1.323,1.323,0,0,1-.5-.077.859.859,0,0,1-.334-.283l-6.443-6.842-6.469,6.829a.933.933,0,0,1-.347.283,1.264,1.264,0,0,1-.514.077h-3.382c-.232,0-.347-.077-.373-.257a.508.508,0,0,1,.141-.437l8.578-9.028-7.742-8.076a.575.575,0,0,1-.129-.437c.013-.167.141-.257.386-.257h3.575a1.094,1.094,0,0,1,.5.09.942.942,0,0,1,.334.27l5.684,6.122,6.019-6.122a.946.946,0,0,1,.836-.36h3.382Z" transform="translate(-485.41 -310.304)" fill="#e1ebff"/><path d="M399.3,0V9.5l8.3-4.746Z" transform="translate(-347.948)" fill="#e1ebff"/><g transform="translate(59.647 4.758)" opacity="0.9" style="isolation:isolate"><g clip-path="url(#c)"><path d="M463.8,37v9.517l8.308-4.771Z" transform="translate(-463.8 -37)" fill="#e1ebff"/></g></g><g transform="translate(51.352 9.504)" opacity="0.8" style="isolation:isolate"><g clip-path="url(#d)"><path d="M399.3,73.9v9.517l8.3-4.746Z" transform="translate(-399.3 -73.9)" fill="#e1ebff"/></g></g><g transform="translate(59.647 14.275)" opacity="0.8" style="isolation:isolate"><g clip-path="url(#e)"><path d="M463.8,111v9.5l8.308-4.758Z" transform="translate(-463.8 -111)" fill="#e1ebff"/></g></g><g transform="translate(51.352 19.021)" opacity="0.8" style="isolation:isolate"><g clip-path="url(#d)"><path d="M399.3,147.9v9.517l8.3-4.758Z" transform="translate(-399.3 -147.9)" fill="#e1ebff"/></g></g><path d="M463.8,184.9v9.517l8.308-4.758Z" transform="translate(-404.153 -161.121)" fill="#e1ebff"/><g transform="translate(29.901 9.195)" opacity="0.4" style="isolation:isolate"><g clip-path="url(#g)"><path d="M232.5,71.5V81l8.3-4.758Z" transform="translate(-232.5 -71.5)" fill="#e1ebff"/></g></g><g transform="translate(40.369 12.719)" opacity="0.2" style="isolation:isolate"><g clip-path="url(#h)"><path d="M313.9,98.9v9.517l8.282-4.746Z" transform="translate(-313.9 -98.9)" fill="#e1ebff"/></g></g><g transform="translate(34.222 18.738)" opacity="0.3" style="isolation:isolate"><g clip-path="url(#d)"><path d="M266.1,145.7v9.517l8.3-4.758Z" transform="translate(-266.1 -145.7)" fill="#e1ebff"/></g></g><g transform="translate(39.688 25.914)" opacity="0.9" style="isolation:isolate"><g clip-path="url(#h)"><path d="M308.6,201.5v9.517l8.282-4.758Z" transform="translate(-308.6 -201.5)" fill="#e1ebff"/></g></g><g transform="translate(51.288 30.017)" opacity="0.7" style="isolation:isolate"><g clip-path="url(#k)"><path d="M398.8,233.4v9.5l8.282-4.758Z" transform="translate(-398.8 -233.4)" fill="#e1ebff"/></g></g><g transform="translate(41.758 8.025)" opacity="0.9" style="isolation:isolate"><g clip-path="url(#h)"><path d="M324.7,62.4v9.517l8.282-4.746Z" transform="translate(-324.7 -62.4)" fill="#e1ebff"/></g></g><g transform="translate(43.057)" opacity="0.8" style="isolation:isolate"><g clip-path="url(#g)"><path d="M343.1,0V9.5l-8.3-4.746Z" transform="translate(-334.8)" fill="#e1ebff"/></g></g><g transform="translate(33.45 4.038)" opacity="0.6" style="isolation:isolate"><g clip-path="url(#c)"><path d="M268.408,31.4v9.517L260.1,36.146Z" transform="translate(-260.1 -31.4)" fill="#e1ebff"/></g></g><g transform="translate(41.758 8.745)" opacity="0.6" style="isolation:isolate"><g clip-path="url(#d)"><path d="M333,68v9.517l-8.3-4.758Z" transform="translate(-324.7 -68)" fill="#e1ebff"/></g></g><g transform="translate(32.036 12.719)" opacity="0.95" style="isolation:isolate"><g clip-path="url(#d)"><path d="M257.4,98.9v9.517l-8.3-4.746Z" transform="translate(-249.1 -98.9)" fill="#e1ebff"/></g></g><g transform="translate(43.07 19.021)" opacity="0.6" style="isolation:isolate"><g clip-path="url(#h)"><path d="M343.182,147.9v9.517l-8.282-4.758Z" transform="translate(-334.9 -147.9)" fill="#e1ebff"/></g></g><g transform="translate(25.914 21.233)" opacity="0.55" style="isolation:isolate"><g clip-path="url(#c)"><path d="M209.808,165.1v9.517l-8.308-4.758Z" transform="translate(-201.5 -165.1)" fill="#e1ebff"/></g></g><path d="M472.108,73.9v9.517L463.8,78.671Z" transform="translate(-404.153 -64.396)" fill="#e1ebff"/><g transform="translate(51.352 14.275)" opacity="0.95" style="isolation:isolate"><g clip-path="url(#g)"><path d="M407.6,111v9.5l-8.3-4.758Z" transform="translate(-399.3 -111)" fill="#e1ebff"/></g></g><g transform="translate(59.647 19.021)" opacity="0.9" style="isolation:isolate"><g clip-path="url(#c)"><path d="M472.108,147.9v9.517l-8.308-4.758Z" transform="translate(-463.8 -147.9)" fill="#e1ebff"/></g></g><g transform="translate(51.352 23.779)" opacity="0.7" style="isolation:isolate"><g clip-path="url(#d)"><path d="M407.6,184.9v9.517l-8.3-4.758Z" transform="translate(-399.3 -184.9)" fill="#e1ebff"/></g></g><g transform="translate(41.218 27.74)" opacity="0.4" style="isolation:isolate"><g clip-path="url(#d)"><path d="M328.8,215.7v9.517l-8.3-4.746Z" transform="translate(-320.5 -215.7)" fill="#e1ebff"/></g></g><path d="M407.6,37v9.517l-8.3-4.771Z" transform="translate(-347.948 -32.242)" fill="#e1ebff"/></g></g></g></g></svg>