<svg xmlns="http://www.w3.org/2000/svg" xmlns:xlink="http://www.w3.org/1999/xlink" width="153" height="124.218" viewBox="0 0 153 124.218"><defs><clipPath id="a"><rect width="81.551" height="22.727" transform="translate(0 0)" fill="#e1ebff"/></clipPath></defs><g transform="translate(-21246 -8230)"><path d="M0,0H153V124.218H0Z" transform="translate(21246 8230)" fill="none"/><g transform="translate(21282 8280)"><g clip-path="url(#a)"><path d="M23.778,22.727a9.128,9.128,0,0,1-2.593-.35,6.325,6.325,0,0,1-1.77-.771l.263-3.172c.245.175.525.35.858.543a9.3,9.3,0,0,0,1.034.473,7.96,7.96,0,0,0,1.087.351,4.427,4.427,0,0,0,1,.14,2.187,2.187,0,0,0,.912-.158,1.373,1.373,0,0,0,.525-.385,1.16,1.16,0,0,0,.228-.544,3.177,3.177,0,0,0,.053-.56,1.563,1.563,0,0,0-.631-1.367,6.944,6.944,0,0,0-1.647-.771c-.456-.158-.894-.333-1.332-.526a4.959,4.959,0,0,1-1.157-.736,3.361,3.361,0,0,1-.823-1.156,4.417,4.417,0,0,1-.316-1.787,6.591,6.591,0,0,1,.211-1.613A4.091,4.091,0,0,1,20.431,8.8,3.88,3.88,0,0,1,21.886,7.64a5.191,5.191,0,0,1,2.3-.456,8.04,8.04,0,0,1,1.279.105,12.185,12.185,0,0,1,1.244.263,8.479,8.479,0,0,1,1.069.351,2.421,2.421,0,0,1,.719.4l-.263,3.171a3.612,3.612,0,0,0-.649-.56,5.612,5.612,0,0,0-.911-.526,5.506,5.506,0,0,0-1.069-.368,4.053,4.053,0,0,0-1.069-.158,2.761,2.761,0,0,0-1.366.368,1.362,1.362,0,0,0-.649,1.279,1.411,1.411,0,0,0,.263.877,1.906,1.906,0,0,0,.666.56,4.086,4.086,0,0,0,.929.386c.35.1.718.228,1.086.35a11.865,11.865,0,0,1,1.367.561,3.714,3.714,0,0,1,1.1.841,3.985,3.985,0,0,1,.753,1.279,5.527,5.527,0,0,1,.281,1.928,7.551,7.551,0,0,1-.158,1.472,3.159,3.159,0,0,1-.683,1.419,3.949,3.949,0,0,1-1.56,1.069,6.639,6.639,0,0,1-2.786.473" fill="#e1ebff"/><path d="M35.992,22.727a5.578,5.578,0,0,1-2.7-.631,5.871,5.871,0,0,1-1.962-1.682,7.245,7.245,0,0,1-1.174-2.453,10.958,10.958,0,0,1-.4-3,11.1,11.1,0,0,1,.4-2.978,7.686,7.686,0,0,1,1.174-2.471,5.871,5.871,0,0,1,1.962-1.682,5.628,5.628,0,0,1,2.7-.631,10.31,10.31,0,0,1,1.384.087,5.122,5.122,0,0,1,1.017.246,5.686,5.686,0,0,1,.788.35c.228.14.456.281.666.421l-.263,3.171a7.441,7.441,0,0,0-1.577-.911,4.638,4.638,0,0,0-1.735-.315,2.345,2.345,0,0,0-2.085,1.3,6.464,6.464,0,0,0-.771,3.4,6.686,6.686,0,0,0,.771,3.4,2.365,2.365,0,0,0,2.085,1.3,4.638,4.638,0,0,0,1.735-.315,6.676,6.676,0,0,0,1.577-.912l.263,3.172a7.286,7.286,0,0,1-1.472.771,5.8,5.8,0,0,1-2.383.368" fill="#e1ebff"/><path d="M52.393,22.726H50.816a2.946,2.946,0,0,1-1.577-.473A2.821,2.821,0,0,1,48.1,20.992a3.715,3.715,0,0,1-1.718,1.279,6.117,6.117,0,0,1-2.26.455,3.374,3.374,0,0,1-2.558-1.174,4.366,4.366,0,0,1-.806-1.4,5.642,5.642,0,0,1-.3-1.893,4,4,0,0,1,.823-2.593,6.2,6.2,0,0,1,1.963-1.612,9.135,9.135,0,0,1,2.33-.859,11.053,11.053,0,0,1,1.98-.28,3.546,3.546,0,0,0-.49-1.875,1.952,1.952,0,0,0-1.63-.578,5.773,5.773,0,0,0-1.77.262,11.255,11.255,0,0,0-1.857.859l-.245-3.014a14.364,14.364,0,0,1,2.505-.981A8.23,8.23,0,0,1,46.4,7.254a5.11,5.11,0,0,1,1.892.333A3.625,3.625,0,0,1,49.8,8.638a4.869,4.869,0,0,1,.982,1.875,9.186,9.186,0,0,1,.35,2.769v4.03a12.6,12.6,0,0,0,.053,1.314,2.613,2.613,0,0,0,.157.719.571.571,0,0,0,.316.3,1.667,1.667,0,0,0,.455.053h.474ZM47.574,15.4a4.243,4.243,0,0,0-.929.21,5.3,5.3,0,0,0-1.1.508,3.793,3.793,0,0,0-.928.824,1.8,1.8,0,0,0-.386,1.157,2.235,2.235,0,0,0,.351,1.366,1.52,1.52,0,0,0,1.279.438,2.038,2.038,0,0,0,.736-.263,3.063,3.063,0,0,0,1-.823V15.4Z" fill="#e1ebff"/><path d="M58.21,22.727H56.861a3.183,3.183,0,0,1-1.455-.315,2.981,2.981,0,0,1-1.016-.842,3.92,3.92,0,0,1-.613-1.244,5.346,5.346,0,0,1-.211-1.524V0h3.558V17.277a13.768,13.768,0,0,0,.052,1.385,1.571,1.571,0,0,0,.228.718.605.605,0,0,0,.42.263,6.158,6.158,0,0,0,.649.035Z" fill="#e1ebff"/><path d="M71.02,22.726H69.443a2.943,2.943,0,0,1-1.577-.473,2.82,2.82,0,0,1-1.139-1.261,3.715,3.715,0,0,1-1.718,1.279,6.117,6.117,0,0,1-2.26.455,3.374,3.374,0,0,1-2.558-1.174,4.366,4.366,0,0,1-.806-1.4,5.642,5.642,0,0,1-.3-1.893,4,4,0,0,1,.823-2.593,6.2,6.2,0,0,1,1.963-1.612,9.135,9.135,0,0,1,2.33-.859,11.053,11.053,0,0,1,1.98-.28,3.546,3.546,0,0,0-.49-1.875,1.952,1.952,0,0,0-1.63-.578,5.773,5.773,0,0,0-1.77.262,11.255,11.255,0,0,0-1.857.859l-.245-3.014a14.364,14.364,0,0,1,2.5-.981,8.23,8.23,0,0,1,2.331-.333,5.11,5.11,0,0,1,1.892.333,3.625,3.625,0,0,1,1.507,1.051,4.869,4.869,0,0,1,.982,1.875,9.186,9.186,0,0,1,.35,2.769v4.03a12.6,12.6,0,0,0,.053,1.314,2.613,2.613,0,0,0,.157.719.571.571,0,0,0,.316.3,1.667,1.667,0,0,0,.455.053h.473ZM66.2,15.4a4.243,4.243,0,0,0-.929.21,5.3,5.3,0,0,0-1.1.508,3.774,3.774,0,0,0-.928.824,1.8,1.8,0,0,0-.386,1.157,2.235,2.235,0,0,0,.351,1.366,1.52,1.52,0,0,0,1.279.438,2.038,2.038,0,0,0,.736-.263,3.063,3.063,0,0,0,1-.823V15.4Z" fill="#e1ebff"/><path d="M77.7,22.727A5.574,5.574,0,0,1,75,22.1a5.865,5.865,0,0,1-1.963-1.682,7.245,7.245,0,0,1-1.174-2.453,10.958,10.958,0,0,1-.4-3,11.1,11.1,0,0,1,.4-2.978,7.686,7.686,0,0,1,1.174-2.471A5.865,5.865,0,0,1,75,7.833,5.621,5.621,0,0,1,77.7,7.2a10.31,10.31,0,0,1,1.384.087,5.122,5.122,0,0,1,1.017.246,5.633,5.633,0,0,1,.788.35c.228.14.456.281.666.421l-.263,3.171a7.441,7.441,0,0,0-1.577-.911,4.638,4.638,0,0,0-1.735-.315,2.345,2.345,0,0,0-2.085,1.3,6.464,6.464,0,0,0-.771,3.4,6.686,6.686,0,0,0,.771,3.4,2.365,2.365,0,0,0,2.085,1.3,4.638,4.638,0,0,0,1.735-.315,6.676,6.676,0,0,0,1.577-.912l.263,3.172a7.286,7.286,0,0,1-1.472.771,5.8,5.8,0,0,1-2.383.368" fill="#e1ebff"/><path d="M0,7.2V11.39l5.362,3.575L0,18.522v4.205l11.653-7.762Z" fill="#e1ebff"/></g></g></g></svg>