<svg xmlns="http://www.w3.org/2000/svg" xmlns:xlink="http://www.w3.org/1999/xlink" width="153" height="124.218" viewBox="0 0 153 124.218"><defs><clipPath id="a"><rect width="92.563" height="27.479" transform="translate(0 0)" fill="#2d5abe"/></clipPath></defs><g transform="translate(-21031 -8063)"><path d="M0,0H153V124.218H0Z" transform="translate(21031 8063)" fill="none"/><g transform="translate(21061 8111)"><g clip-path="url(#a)"><path d="M.1,21.479l-.1-.1v-.54L2.445,20.4V7.425L.285,7.2l-.1-.105v-.54L5.91,5.64l.105.12V20.4l2.265.435v.54l-.1.1ZM1.83.54,1.965.33A8.3,8.3,0,0,1,4.665,0a5.138,5.138,0,0,1,1.3.24l.15.21.09,2.819-.15.21A8.612,8.612,0,0,1,3.375,3.8a5.349,5.349,0,0,1-1.32-.24l-.135-.21Z" fill="#2d5abe"/><path d="M11.745,20.4V7.425L9.585,7.2,9.48,7.095v-.54l5.835-.915.105.12-.45,2.865c1.1-1.05,3.509-2.925,5.969-2.985,2.55,0,4.455,1.77,4.455,4.994V20.4l2.28.435v.54l-.1.1H19.5l-.105-.1v-.54l2.431-.435V10.71c0-2.115-1.125-3.061-2.761-3.061a5,5,0,0,0-3.749,2.235V20.4l2.43.435v.54l-.105.1H9.4l-.1-.1v-.54Z" fill="#2d5abe"/><path d="M30.66,26.4V7.454L28.5,7.229l-.1-.105v-.54l5.79-.945.1.12-.39,2.22a7.168,7.168,0,0,1,4.845-2.34c3.555,0,6.345,2.985,6.345,7.425,0,5.265-3.6,8.609-8.385,8.685a8.835,8.835,0,0,1-2.46-.346v5l3.645.436v.539l-.1.105h-9.45l-.1-.105v-.539ZM34.245,9.044V19.619a3.51,3.51,0,0,0,2.745,1.139c2.8,0,4.665-2.61,4.665-6.224,0-4.4-2.16-6.96-4.65-6.96a3.275,3.275,0,0,0-2.76,1.47" fill="#2d5abe"/><path d="M61.394,12.525H50.759a3.263,3.263,0,0,0-.015.39c0,4.215,2.745,6.6,5.715,6.6a6.483,6.483,0,0,0,4.5-2.056l.629.631c-1.2,1.574-3.644,3.749-6.329,3.749a7.642,7.642,0,0,1-7.965-7.8c0-5.834,4.47-8.354,8.3-8.4,3.285.03,5.91,2.01,5.91,5.64v1.14Zm-10.56-1.05h7.05c.24-3.18-.81-4.815-2.79-4.815-2.115,0-3.87,1.59-4.26,4.815" fill="#2d5abe"/><path d="M68.414,1.605H69l.1.105V6h4.185V7.05H69.1V17.924c0,1.4.615,2.025,1.635,2.025a4.9,4.9,0,0,0,2.52-1.095l.54.75A8.845,8.845,0,0,1,69,21.839c-2.235,0-3.48-1.425-3.48-3.735V7.05H62.564V6.105l.1-.105h2.85V3.33Z" fill="#2d5abe"/><path d="M80.2,5.76V16.844c0,2.1,1.02,2.97,2.655,2.97a5.862,5.862,0,0,0,3.855-1.95V7.425L84.389,7.2l-.105-.105v-.54l5.9-.915.1.12V20.129h2.174l.105.1v.615l-5.849.99-.1-.12.45-2.82c-1.245,1.125-3.78,2.94-6.03,2.94-2.52,0-4.41-1.77-4.41-4.92V7.425L74.475,7.2l-.1-.105v-.54L80.1,5.64Z" fill="#2d5abe"/></g></g></g></svg>