<svg xmlns="http://www.w3.org/2000/svg" xmlns:xlink="http://www.w3.org/1999/xlink" width="153" height="124" viewBox="0 0 153 124"><defs><clipPath id="a"><rect width="56.925" height="50.014" fill="none"/></clipPath></defs><g transform="translate(-21462 -9048)"><g transform="translate(21462 9048)"><rect width="153" height="124" fill="none"/></g><g transform="translate(21510 9084)"><g transform="translate(0 0)" clip-path="url(#a)"><path d="M43.083,15.253a3.8,3.8,0,0,0-3.561,0L31.2,20.161,25.554,23.28,17.38,28.188a3.8,3.8,0,0,1-3.56,0L7.437,24.333a3.651,3.651,0,0,1-1.79-3.119V13.8a3.647,3.647,0,0,1,1.79-3.119l6.384-3.708a3.8,3.8,0,0,1,3.56,0l6.384,3.856a3.648,3.648,0,0,1,1.79,3.118v4.908L31.2,15.59V10.534a3.646,3.646,0,0,0-1.79-3.118L17.529.442a3.8,3.8,0,0,0-3.561,0L1.79,7.563A3.3,3.3,0,0,0,0,10.534V24.5a3.646,3.646,0,0,0,1.79,3.118l12.03,6.974a3.8,3.8,0,0,0,3.56,0l8.174-4.761L31.2,26.566,39.375,21.8a3.8,3.8,0,0,1,3.561,0l6.382,3.708A3.65,3.65,0,0,1,51.11,28.63v7.416a3.644,3.644,0,0,1-1.792,3.118l-6.235,3.708a3.8,3.8,0,0,1-3.561,0L33.14,39.163a3.648,3.648,0,0,1-1.792-3.118v-4.74l-5.624,3.266V39.48a3.647,3.647,0,0,0,1.79,3.119l12.029,6.972a3.8,3.8,0,0,0,3.561,0L55.133,42.6a3.652,3.652,0,0,0,1.792-3.119V25.365a3.644,3.644,0,0,0-1.792-3.118Z" transform="translate(0 0)" fill="#e1ebff"/></g></g></g></svg>