<svg xmlns="http://www.w3.org/2000/svg" xmlns:xlink="http://www.w3.org/1999/xlink" width="153" height="124.218" viewBox="0 0 153 124.218"><defs><clipPath id="a"><rect width="90.02" height="20.828" transform="translate(0 0)" fill="none"/></clipPath></defs><g transform="translate(-21246 -9047)"><path d="M0,0H153V124.218H0Z" transform="translate(21246 9047)" fill="none"/><g transform="translate(21277 9099)"><g clip-path="url(#a)"><path d="M58.417,7.585a8.306,8.306,0,0,0-10.909,0,7.092,7.092,0,0,0-2.29,5.6,7.2,7.2,0,0,0,2.29,5.63,8.4,8.4,0,0,0,10.909,0,7.122,7.122,0,0,0,2.318-5.63,7.023,7.023,0,0,0-2.318-5.6m-8.331,8.662a4.11,4.11,0,0,1-1.2-3.062,3.988,3.988,0,0,1,1.2-3.033,3.919,3.919,0,0,1,2.861-1.168,3.983,3.983,0,0,1,2.891,1.168,3.918,3.918,0,0,1,1.232,3.033,4.012,4.012,0,0,1-1.232,3.062,4.073,4.073,0,0,1-2.891,1.138,4.007,4.007,0,0,1-2.861-1.138M66.149.4H62.542V20.42h3.607ZM77.792,5.951v7.987c0,1.924-1.021,3.2-2.964,3.2-1.976,0-2.97-1.273-2.97-3.2V5.951H68.244v8.6c0,3.332,2.061,6.277,6.584,6.277h.028c4.495,0,6.553-3.011,6.553-6.277v-8.6Zm-36.413,0-3.607,9.8-3.607-9.8H30.329l5.756,14.468h3.379L45.22,5.951ZM30.346,12.777A7.276,7.276,0,0,0,28.4,7.585a6.515,6.515,0,0,0-4.98-2.042,7.358,7.358,0,0,0-7.472,7.642A7.548,7.548,0,0,0,18.065,18.7a7.041,7.041,0,0,0,5.183,2.129,6.846,6.846,0,0,0,6.669-4.23l-2.69-1.576a4.184,4.184,0,0,1-3.922,2.655,3.764,3.764,0,0,1-3.894-3.617H30.345V12.776ZM23.3,8.343a3.527,3.527,0,0,1,3.723,3.034H19.409A4.157,4.157,0,0,1,23.3,8.343ZM15.946,20.419l-4.84-8.633c3.062-1.137,4.58-3.121,4.58-6.009C15.689,2.247,12.938,0,8.559,0H0V20.419H3.779V12.135H6.987l4.636,8.284ZM8.559,3.384c2.233,0,3.35.9,3.35,2.683s-1.118,2.684-3.35,2.684H3.779V3.384ZM87.524,20.827a4.246,4.246,0,0,1-4.2-4.288V2.042h3.607V5.957H90.02V8.932H86.927V16.3a1.245,1.245,0,0,0,1.234,1.256H90.02v3.268Z" fill="#e1ebff"/></g></g></g></svg>