<svg xmlns="http://www.w3.org/2000/svg" xmlns:xlink="http://www.w3.org/1999/xlink" width="153" height="124.218" viewBox="0 0 153 124.218"><defs><clipPath id="a"><rect width="84.041" height="83.731" fill="#e1ebff"/></clipPath></defs><g transform="translate(-21031 -8878)"><path d="M0,0H153V124.218H0Z" transform="translate(21031 8878)" fill="none"/><g transform="translate(21065 8899)"><path d="M7.2,95.049l-1.01,1.844-2.071.4,1.427,1.513L5.3,100.9l1.9-.89,1.9.871-.244-2.072,1.445-1.53-2.09-.384L7.2,95.049" transform="translate(-2.389 -55.109)" fill="#e1ebff"/><path d="M29.46,122.779l-1.01,1.845-2.072.4,1.428,1.514-.244,2.091,1.9-.889,1.9.87-.243-2.071,1.445-1.532-2.089-.382-1.01-1.845" transform="translate(-15.294 -71.186)" fill="#e1ebff"/><path d="M184.859,95.159,185.867,97l2.072.4-1.428,1.514.244,2.09-1.9-.889-1.9.871.244-2.072-1.446-1.531,2.09-.383,1.01-1.846" transform="translate(-105.383 -55.173)" fill="#e1ebff"/><path d="M164.034,122.721l1.01,1.846,2.072.4-1.427,1.514.244,2.089-1.9-.888-1.9.872.244-2.072-1.445-1.531,2.089-.383,1.01-1.846" transform="translate(-93.309 -71.153)" fill="#e1ebff"/><path d="M75.018,19.781l-.046,11.606L61,37.329l13.88,1.716-2.322,13.6L82.4,40.9l11.094,3.9-6.638-9.47,24.511-22.793L82.305,28.694l-7.288-8.913" transform="translate(-35.367 -7.27)" fill="#e1ebff"/><g clip-path="url(#a)"><path d="M61.434,4.038A24.07,24.07,0,1,0,85.5,28.108,24.1,24.1,0,0,0,61.434,4.038m0,52.178A28.108,28.108,0,1,1,89.543,28.108,28.14,28.14,0,0,1,61.434,56.216" transform="translate(-19.322 0.001)" fill="#e1ebff"/><path d="M55.679,154.992H52.994v2.65h2.685Zm-3.662,0H49.411v2.65h2.606Zm.977,3.491v1.641c0,.506.045,1.4.112,2.02H51.9c.056-.538.112-1.514.112-2.02v-1.641H49.411v.8H48.378c.045-.472.078-1.2.078-1.673v-2.426a8.542,8.542,0,0,0-.078-1.157,36.01,36.01,0,0,0,3.639.123v-.527a6.166,6.166,0,0,0-.112-1.673,11.123,11.123,0,0,0,1.19.066c.179,0,.213.045.033.2-.09.08-.134.281-.134.619v1.313c1.965-.01,3.2-.056,3.751-.123-.023.292-.055.989-.055,1.383v2.155c0,.449.033,1.135.055,1.607H55.679v-.687H52.994" transform="translate(-28.049 -88.099)" fill="#e1ebff"/><path d="M81.325,159.686a3.131,3.131,0,0,0-.652-.954l.729-.461a7.654,7.654,0,0,0,.719.911Zm1.415.146v.909c-.662-.068-1.515-.078-2.74-.078-1.73,0-2.416.024-3.055.078v-.909a21.16,21.16,0,0,0,2.3.08V158.08c-.809,0-1.347.021-1.831.068v-.865c.506.045,1.035.067,1.831.077v-1.313c-1.057.01-1.7.045-2.033.08V155.2c.428.044,1.269.078,2.752.078a25.02,25.02,0,0,0,2.515-.078v.932c-.36-.036-1.292-.08-2.381-.08v1.313a21.273,21.273,0,0,0,2.146-.077v.865c-.551-.057-1.18-.068-2.146-.068v1.832c1.168,0,2-.024,2.639-.08m.584-5.571H76.361v7.379h6.963Zm-6.963,8.873H75.35a16.848,16.848,0,0,0,.1-1.843v-6.648a8.069,8.069,0,0,0-.1-1.281,39.317,39.317,0,0,0,4.492.113,40.336,40.336,0,0,0,4.492-.113,7.458,7.458,0,0,0-.1,1.281v6.625a12.759,12.759,0,0,0,.1,1.7H83.324v-.538H76.361v.708" transform="translate(-43.688 -88.919)" fill="#e1ebff"/><path d="M110.13,154.376h-1.72v5.2h1.72Zm-1.72,6v1.27h-1.02a12.519,12.519,0,0,0,.089-1.585v-5.637a4.461,4.461,0,0,0-.067-.966c.685.057,1.28.079,1.876.079s1.223-.022,1.864-.079a3.965,3.965,0,0,0-.068.966v5.459a13.674,13.674,0,0,0,.078,1.6H110.13v-1.111Zm-6.13,1.448a2.653,2.653,0,0,0-.864-.608c1.414-1.223,1.92-3.008,2.021-6.422a11.594,11.594,0,0,0-1.628.1v-1.053a11.254,11.254,0,0,0,1.64.1c.033-1.887.011-2.066-.091-2.335a7.749,7.749,0,0,0,1.259.145c.134.011.146.056.034.225a4.251,4.251,0,0,0-.258,1.964,14.1,14.1,0,0,0,2.223-.1l-.3,5.9c-.079,1.6-.3,1.874-1.832,2.1a1.987,1.987,0,0,0-.415-1.156c1.146.091,1.3-.056,1.37-1.471l.213-4.413h-1.291c-.168,3.942-.719,5.626-2.077,7.03" transform="translate(-58.8 -87.898)" fill="#e1ebff"/><path d="M138.15,159.8a6.609,6.609,0,0,0-2.066-1.617l.629-.64c.751.482,1.448.943,2.111,1.427Zm-2.4-3.334h1.708v-1.27h-1.708Zm-.84-1.271H133.3v1.27H134.9Zm-2.449,4.92a1.793,1.793,0,0,0-.909-.753,5.31,5.31,0,0,0,2.74-2.178c-.82,0-1.382.023-1.91.057a10.624,10.624,0,0,0,.09-1.45,9.773,9.773,0,0,0-.09-1.426c.719.065,1.347.09,2.528.09v-.831c-1.326.01-2.213.054-2.967.111v-.977c.8.056,1.64.1,2.967.114a9.158,9.158,0,0,0-.079-1.135,4.662,4.662,0,0,0,.987.09c.306-.012.338.034.115.257a.577.577,0,0,0-.182.45v.337c1.361,0,2.259-.035,3.021-.092v.955c-.762-.057-1.66-.1-3.021-.111v.831c1.2-.012,1.944-.045,2.63-.09a10.182,10.182,0,0,0-.079,1.414,10.728,10.728,0,0,0,.079,1.484c-.674-.046-1.426-.069-2.63-.079v.953c0,.81.024,1.3.092,2.112h-1.011c.067-.8.079-1.291.079-2.112v-.775A7.593,7.593,0,0,1,132.456,160.111Zm-2.135-5.424a6.94,6.94,0,0,0-.762-1.966l.954-.349c.314.674.583,1.3.853,1.956Zm2.326,5.929c.887.416,2.975.382,6.457-.144a3.279,3.279,0,0,0-.37,1.233c-5.121.181-5.918.034-7.087-.627-.774-.44-1.044-.35-1.785.775a3.232,3.232,0,0,0-.887-.708,5.609,5.609,0,0,1,1.235-.966v-3.537a6.209,6.209,0,0,0-1.055.067v-.966a6.97,6.97,0,0,0,2.1,0,5.851,5.851,0,0,0-.123,1.325v3.019a6.844,6.844,0,0,1,1.517.529" transform="translate(-74.779 -87.974)" fill="#e1ebff"/><path d="M4.547,181.878l.166,1.062a3.335,3.335,0,0,0-.527-.146,2.906,2.906,0,0,0-.536-.049,2.528,2.528,0,0,0-1.852.726,2.458,2.458,0,0,0-.736,1.825,2.519,2.519,0,0,0,.784,1.906,2.8,2.8,0,0,0,2.019.749,2.678,2.678,0,0,0,.405-.032,3.731,3.731,0,0,0,.453-.1l-.214,1.053a.376.376,0,0,1-.058.01,5.011,5.011,0,0,1-.548.049,4,4,0,0,1-2.838-.992A3.748,3.748,0,0,1,1,182.77a3.49,3.49,0,0,1,2.57-1c.1,0,.195,0,.289.007s.181.013.264.022c.058.009.148.027.272.052.067.013.116.022.148.03" transform="translate(0 -105.388)" fill="#e1ebff"/><path d="M14.752,181.745v2.98h3.69v-2.88l1.034-.1v7.078l-1.034.084V185.74h-3.69v3.083l-1.048.084v-7.063Z" transform="translate(-7.945 -105.375)" fill="#e1ebff"/><path d="M32.025,181.745v7.078l-1.035.084v-7.063Z" transform="translate(-17.968 -105.375)" fill="#e1ebff"/><path d="M36.979,181.347l4.581,4.943v-4.676l1.035-.1v7.361l-4.566-4.95v4.667l-1.05.084v-7.33" transform="translate(-21.44 -105.144)" fill="#e1ebff"/><path d="M55.662,183.278l-.915,1.788h1.8Zm.048-1.905,3.622,7.187-1,.252-1.416-2.869H54.294l-1.455,2.869-.887-.252,3.757-7.187" transform="translate(-30.122 -105.159)" fill="#e1ebff"/><path d="M74.459,181.878l.166,1.062a3.383,3.383,0,0,0-.527-.146,2.89,2.89,0,0,0-.535-.049,2.531,2.531,0,0,0-1.852.726,2.456,2.456,0,0,0-.736,1.825,2.518,2.518,0,0,0,.784,1.906,2.8,2.8,0,0,0,2.019.749,2.677,2.677,0,0,0,.405-.032,3.731,3.731,0,0,0,.453-.1l-.214,1.053a.344.344,0,0,1-.057.01,5.005,5.005,0,0,1-.549.049,4,4,0,0,1-2.837-.992,3.746,3.746,0,0,1-.061-5.171,3.488,3.488,0,0,1,2.569-1c.1,0,.195,0,.289.007s.182.013.264.022c.058.009.148.027.271.052.068.013.117.022.149.03" transform="translate(-40.534 -105.388)" fill="#e1ebff"/><path d="M87.47,181.878l.167,1.062a3.393,3.393,0,0,0-.526-.146,2.918,2.918,0,0,0-.537-.049,2.529,2.529,0,0,0-1.852.726,2.46,2.46,0,0,0-.736,1.825,2.516,2.516,0,0,0,.785,1.906,2.8,2.8,0,0,0,2.018.749,2.666,2.666,0,0,0,.4-.032,3.736,3.736,0,0,0,.453-.1l-.214,1.053a.362.362,0,0,1-.057.01,5.063,5.063,0,0,1-.548.049,4.005,4.005,0,0,1-2.839-.992,3.746,3.746,0,0,1-.059-5.171,3.486,3.486,0,0,1,2.569-1c.1,0,.195,0,.288.007s.182.013.265.022c.057.009.147.027.271.052.068.013.116.022.148.03" transform="translate(-48.078 -105.388)" fill="#e1ebff"/><path d="M96.625,181.983h3.417l.258.945H97.674v1.934h2.1v.978h-2.1v2.125H100.6l-.371,1h-3.6Z" transform="translate(-56.023 -105.513)" fill="#e1ebff"/><path d="M108.759,181.745v6.082h3.083l-.39,1h-3.742v-6.978Z" transform="translate(-62.45 -105.375)" fill="#e1ebff"/><path d="M119.144,181.983h3.417l.258.945h-2.625v1.934h2.1v.978h-2.1v2.125h2.925l-.371,1h-3.6v-6.978" transform="translate(-69.079 -105.513)" fill="#e1ebff"/><path d="M131.276,182.907v2.216h.377a1.6,1.6,0,0,0,1.039-.3,1.022,1.022,0,0,0,.366-.838.962.962,0,0,0-.35-.807,1.672,1.672,0,0,0-1.032-.271Zm-1.048-.924h1.339a5.345,5.345,0,0,1,.927.065,2.2,2.2,0,0,1,.636.206,1.768,1.768,0,0,1,.714.713,2.133,2.133,0,0,1,.263,1.056,1.734,1.734,0,0,1-.448,1.192,1.978,1.978,0,0,1-1.187.626l2.131,2.887-.987.421-2.34-3.4v3.212l-1.048.084v-7.063" transform="translate(-75.506 -105.513)" fill="#e1ebff"/><path d="M144.371,183.278l-.915,1.788h1.8Zm.047-1.905,3.623,7.187-1,.252-1.417-2.869H143l-1.454,2.869-.887-.252,3.756-7.187" transform="translate(-81.555 -105.159)" fill="#e1ebff"/><path d="M157.711,181.983h4.451v1h-1.769v5.981l-1.043.084V182.98h-1.911l.272-1" transform="translate(-91.282 -105.513)" fill="#e1ebff"/><path d="M173.245,182.527a2.5,2.5,0,0,0-1.866.774,2.809,2.809,0,0,0,0,3.821,2.638,2.638,0,0,0,3.733,0,2.8,2.8,0,0,0,0-3.817A2.5,2.5,0,0,0,173.245,182.527Zm0-.985a3.784,3.784,0,0,1,1.306.224,3.455,3.455,0,0,1,1.1.642,3.833,3.833,0,0,1,.949,1.278,3.654,3.654,0,0,1,.328,1.525,3.727,3.727,0,0,1-.25,1.342,3.687,3.687,0,0,1-.717,1.164,3.5,3.5,0,0,1-1.214.874,3.885,3.885,0,0,1-2.8.074,3.336,3.336,0,0,1-1.088-.642,3.852,3.852,0,0,1-.955-1.282,3.677,3.677,0,0,1,0-3.057,3.811,3.811,0,0,1,.952-1.276,3.366,3.366,0,0,1,1.088-.642,3.765,3.765,0,0,1,1.305-.224" transform="translate(-98.313 -105.257)" fill="#e1ebff"/><path d="M190.638,182.907v2.216h.376a1.6,1.6,0,0,0,1.04-.3,1.021,1.021,0,0,0,.366-.838.961.961,0,0,0-.351-.807,1.667,1.667,0,0,0-1.032-.271Zm-1.049-.924h1.339a5.328,5.328,0,0,1,.926.065,2.2,2.2,0,0,1,.637.206,1.757,1.757,0,0,1,.712.713,2.125,2.125,0,0,1,.265,1.056,1.728,1.728,0,0,1-.449,1.192,1.969,1.969,0,0,1-1.186.626l2.13,2.887-.986.421-2.34-3.4v3.212l-1.049.084v-7.063" transform="translate(-109.923 -105.513)" fill="#e1ebff"/></g></g></g></svg>