<svg xmlns="http://www.w3.org/2000/svg" xmlns:xlink="http://www.w3.org/1999/xlink" width="153" height="124.218" viewBox="0 0 153 124.218"><defs><clipPath id="a"><rect width="73.228" height="35.624" transform="translate(0 0)" fill="#2d5abe"/></clipPath></defs><g transform="translate(-21676 -8556)"><g transform="translate(21676 8556)"><path d="M0,0H153V124.218H0Z" fill="none"/></g><g transform="translate(21716 8600.001)"><g clip-path="url(#a)"><path d="M4.518,9.012h.437l1.027,2.329a3.247,3.247,0,0,0,2.216.837c1,0,1.843-.5,1.843-1.512,0-1.055-1.178-1.483-2.585-2.034C5.8,7.967,4.128,7.178,4.128,5.419S5.754,2.557,8.16,2.557a8.738,8.738,0,0,1,3.118.894l-.134,2.623-.066.067h-.456L9.7,3.955A3.249,3.249,0,0,0,7.608,3.2c-.874,0-1.8.38-1.8,1.369,0,1.036,1.141,1.435,2.538,2,1.616.647,3.4,1.379,3.4,3.2,0,1.806-1.626,3.051-4.117,3.051a9.226,9.226,0,0,1-3.3-.97l.123-2.775Z" fill="#2d5abe"/><path d="M16.328,0h.37l.067.066V2.785h2.652v.666H16.765v6.892c0,.884.39,1.283,1.036,1.283a3.1,3.1,0,0,0,1.6-.694l.342.475A5.6,5.6,0,0,1,16.7,12.824a2.1,2.1,0,0,1-2.2-2.367V3.451H12.62v-.6l.066-.067h1.807V1.093Z" fill="#2d5abe"/><path d="M26.476,12.823l-.067-.076.2-1.644a4.825,4.825,0,0,1-3.383,1.72,2.359,2.359,0,0,1-2.6-2.366c0-1.75,1.54-2.767,3.622-3.337l2.168-.59V5.105c0-1.322-.618-1.854-1.512-1.854a1.96,1.96,0,0,0-1.426.532,5.367,5.367,0,0,0-.266,2.272H21.048l-.067-.067V5.57c0-1.949,2.386-2.918,4.4-3.013,1.578,0,3.3.617,3.3,2.785v6.4H30.05l.066.066v.39Zm-.057-5.675-1.16.3c-1.492.419-2.405,1.265-2.405,2.472a1.545,1.545,0,0,0,1.559,1.692,2.735,2.735,0,0,0,2.006-1.169Z" fill="#2d5abe"/><path d="M32.191,11.911V3.688l-1.369-.142-.067-.067V3.137l3.613-.58.066.076-.219,2.32a4.026,4.026,0,0,1,2.168-2.282h1.5l.067.067V4.325H35.613a2.9,2.9,0,0,0-1.159,1.359v6.227l2.291.276v.342l-.067.067h-5.97l-.067-.067v-.342Z" fill="#2d5abe"/><path d="M42.158,0h.37L42.6.066V2.785h2.652v.666H42.6v6.892c0,.884.39,1.283,1.036,1.283a3.1,3.1,0,0,0,1.6-.694l.342.475a5.6,5.6,0,0,1-3.042,1.417,2.1,2.1,0,0,1-2.2-2.367V3.451H38.45v-.6l.066-.067h1.807V1.093Z" fill="#2d5abe"/><path d="M49.625,2.633V9.658c0,1.331.646,1.882,1.683,1.882A3.717,3.717,0,0,0,53.751,10.3V3.688l-1.474-.142-.066-.067V3.137l3.735-.58.067.076V11.74h1.379l.066.066v.39l-3.707.627-.067-.076.285-1.787a6.7,6.7,0,0,1-3.822,1.863c-1.6,0-2.794-1.121-2.794-3.118V3.688l-1.36-.142-.066-.067V3.137l3.632-.58Z" fill="#2d5abe"/><path d="M59.457,15.714V3.708l-1.371-.143L58.021,3.5V3.156l3.668-.6.067.076L61.508,4.04A4.549,4.549,0,0,1,64.58,2.557c2.252,0,4.02,1.892,4.02,4.706a5.2,5.2,0,0,1-5.313,5.5,5.619,5.619,0,0,1-1.559-.219v3.166l2.31.275v.343l-.066.066h-5.99l-.066-.066v-.343Zm2.271-11v6.7a2.219,2.219,0,0,0,1.739.722c1.778,0,2.957-1.653,2.957-3.945,0-2.785-1.37-4.411-2.948-4.411a2.072,2.072,0,0,0-1.748.932" fill="#2d5abe"/><path d="M.39,31.812H.827l1.027,2.329a3.247,3.247,0,0,0,2.216.837c1,0,1.843-.5,1.843-1.512,0-1.055-1.178-1.483-2.585-2.034C1.674,30.767,0,29.978,0,28.219s1.626-2.862,4.032-2.862a8.738,8.738,0,0,1,3.118.894l-.134,2.623-.066.067H6.494l-.922-2.186A3.249,3.249,0,0,0,3.48,26c-.874,0-1.8.38-1.8,1.369,0,1.036,1.141,1.435,2.538,2,1.616.647,3.395,1.379,3.395,3.2,0,1.806-1.626,3.051-4.117,3.051a9.226,9.226,0,0,1-3.3-.97l.123-2.775Z" fill="#2d5abe"/><path d="M12.2,22.8h.37l.067.066v2.719h2.652v.666H12.637v6.892c0,.884.39,1.283,1.036,1.283a3.1,3.1,0,0,0,1.6-.694l.342.475a5.6,5.6,0,0,1-3.042,1.417,2.1,2.1,0,0,1-2.2-2.367V26.251H8.492v-.6l.066-.067h1.807V23.893Z" fill="#2d5abe"/><path d="M22.348,35.623l-.067-.076.2-1.644a4.825,4.825,0,0,1-3.383,1.72,2.359,2.359,0,0,1-2.6-2.366c0-1.75,1.54-2.767,3.622-3.337l2.168-.59V27.905c0-1.322-.618-1.854-1.512-1.854a1.96,1.96,0,0,0-1.426.532,5.367,5.367,0,0,0-.266,2.272H16.92l-.067-.067V28.37c0-1.949,2.386-2.918,4.4-3.013,1.578,0,3.3.617,3.3,2.785v6.4h1.369l.066.066V35Zm-.057-5.675-1.16.3c-1.492.419-2.405,1.265-2.405,2.472a1.545,1.545,0,0,0,1.559,1.692,2.735,2.735,0,0,0,2.006-1.169Z" fill="#2d5abe"/><path d="M32.19,25.4a6.215,6.215,0,0,1,1.578.219V22.448l-1.379-.162-.066-.066v-.333l3.64-.627.067.066v13.4h1.359l.067.066v.38l-3.736.456-.066-.076.313-1.407a4.173,4.173,0,0,1-2.994,1.483c-2.282,0-4.088-1.9-4.088-4.714a5.2,5.2,0,0,1,5.3-5.505m1.578,8.109v-6.75a2.286,2.286,0,0,0-1.75-.731c-1.777,0-2.956,1.654-2.956,3.954,0,2.786,1.369,4.411,2.937,4.411a2.052,2.052,0,0,0,1.769-.884" fill="#2d5abe"/><path d="M38.17,35.4l-.066-.067v-.342l1.55-.276V26.488l-1.369-.142-.067-.067v-.342l3.632-.58.066.076v9.278l1.436.276v.342l-.067.067Zm1.094-13.271.085-.133a5.255,5.255,0,0,1,1.712-.209,3.209,3.209,0,0,1,.827.152l.1.133.056,1.787-.094.133a5.487,5.487,0,0,1-1.7.2,3.4,3.4,0,0,1-.836-.152l-.086-.134Z" fill="#2d5abe"/><path d="M47.587,25.433v7.025c0,1.331.646,1.882,1.683,1.882A3.713,3.713,0,0,0,51.713,33.1V26.488l-1.474-.142-.066-.067v-.342l3.736-.58.067.076V34.54h1.378l.066.066V35l-3.707.627-.066-.076.285-1.787a6.7,6.7,0,0,1-3.822,1.863c-1.6,0-2.794-1.121-2.794-3.118V26.488l-1.36-.142-.066-.067v-.342l3.631-.58Z" fill="#2d5abe"/><path d="M57.608,34.711V26.488l-1.369-.142-.067-.067v-.342l3.689-.58.066.076-.275,1.692a6.017,6.017,0,0,1,3.584-1.768,2.4,2.4,0,0,1,2.4,1.74,5.9,5.9,0,0,1,3.546-1.74c1.56,0,2.606,1.112,2.606,3.061v6.293l1.435.276v.342l-.067.067H68.141l-.067-.067v-.342l1.445-.276V28.437c0-1.255-.551-1.816-1.512-1.816A2.935,2.935,0,0,0,65.8,27.914a4.236,4.236,0,0,1,.029.5v6.293l1.445.276v.342l-.058.067H62.18l-.066-.067v-.342l1.445-.276V28.437c0-1.255-.542-1.816-1.5-1.816a2.838,2.838,0,0,0-2.186,1.255v6.835l1.444.276v.342l-.066.067H56.125l-.067-.067v-.342Z" fill="#2d5abe"/></g></g></g></svg>