<svg xmlns="http://www.w3.org/2000/svg" xmlns:xlink="http://www.w3.org/1999/xlink" width="153" height="124.218" viewBox="0 0 153 124.218"><defs><clipPath id="a"><rect width="42.861" height="82.898" fill="#e1ebff"/></clipPath></defs><g transform="translate(-21676 -8063)"><g transform="translate(21676 8063)"><path d="M0,0H153V124.218H0Z" fill="none"/></g><g transform="translate(21731 8083)"><path d="M19.4,464.526h9.948V471.8H19.4Zm23.4-.013h9.916v7.3H42.8Zm-27.284-3.926V475.73H33.3V464.523h5.553v11.218h17.8V460.587Z" transform="translate(-13.799 -409.662)" fill="#e1ebff"/><g clip-path="url(#a)"><path d="M82.807,110.463a2.725,2.725,0,0,0-2.759-.456,1.908,1.908,0,0,0-1.2,1.777,3.1,3.1,0,0,0,1.287,3.1c.672.458,1.431.788,2.248,1.228-.254.652-.512,1.416-.845,2.145a6.3,6.3,0,0,1-2.039,2.636c-1.456,1.028-2.843.533-3.1-1.22a15.21,15.21,0,0,1-.011-3.352c.252-3.194.558-6.384.861-9.574.16-1.687.354-3.37.537-5.055.041-.375-.053-.671-.452-.765a.756.756,0,0,0-.927.409,1.25,1.25,0,0,0-.1.426q-.353,3.324-.7,6.649-.322,3.074-.646,6.148a1.857,1.857,0,0,1-.812,1.385,2.547,2.547,0,0,1-3.921-1.648c.326-.037.653-.061.976-.113A4.414,4.414,0,0,0,74.716,112a2.024,2.024,0,0,0-.075-2.338,2.28,2.28,0,0,0-2.4-1.01,4.21,4.21,0,0,0-3.356,3.15c-.086.3-.145.6-.228.959a5.819,5.819,0,0,0-.821-.127c-.421-.007-.548-.216-.59-.605-.084-.787-.225-1.568-.328-2.353-.069-.519-.114-1.041-.171-1.578l.533-.025a4.612,4.612,0,0,0,3.576-1.809.8.8,0,0,0-.093-1.18c-.426-.337-.734-.136-1.026.224a3.339,3.339,0,0,1-3.347,1.233c-.9-.146-1.236.134-1.149,1.012.105,1.062.254,2.121.394,3.179a25.518,25.518,0,0,1,.36,6.434c-.29,2.426-1.529,3.858-3.639,4.171a2.007,2.007,0,0,1-1.875-.656c.555-1.221,1.13-2.352,1.586-3.528a5.234,5.234,0,0,0,.285-3.093,2.355,2.355,0,0,0-2.2-1.858,1.969,1.969,0,0,0-2.092,1.454,4.7,4.7,0,0,0-.235.735,8.809,8.809,0,0,0,.606,5.822c.072.156.084.466-.013.555-1.208,1.111-3.245,1.653-4.182-.8a2.465,2.465,0,0,1-.2-.631c-.144-1.59-.359-3.181-.377-4.774s.173-3.16.259-4.741a.7.7,0,0,0-.694-.822.672.672,0,0,0-.765.691c-.058,2.446-.157,4.893-.139,7.339a9.4,9.4,0,0,0,.857,3.971,3.508,3.508,0,0,0,5.7,1.216c.191-.162.378-.33.577-.5a3.445,3.445,0,0,0,3.837.867,6.353,6.353,0,0,0,1.429-.706,6.485,6.485,0,0,0,2.823-5.634c.025-.711,0-1.424,0-2.155a2.831,2.831,0,0,0,.42.043c.556-.031.754.239.882.776a3.628,3.628,0,0,0,3.649,2.872,15.151,15.151,0,0,0,2.125-.276,22.81,22.81,0,0,0,.391,2.707c.672,2.572,3.07,3.42,5.264,1.913a5.189,5.189,0,0,0,.477-.376,9.9,9.9,0,0,0,3.019-5.407.69.69,0,0,1,.466-.516,7.822,7.822,0,0,0,1.917-1.142,10.563,10.563,0,0,0,2.943-5.761,6.579,6.579,0,0,0,.158-1.091.745.745,0,0,0-.72-.823c-.472-.061-.634.239-.709.656a17.957,17.957,0,0,1-.393,1.778,8.979,8.979,0,0,1-2.112,4.014,11.064,11.064,0,0,1-1.221.92c-.035-.542-.043-.909-.084-1.272a3.765,3.765,0,0,0-1.211-2.643m-11.544.211a2.515,2.515,0,0,1,1.125-.523,1.238,1.238,0,0,1,1.018.294c.145.213.009.742-.169,1.03a3.316,3.316,0,0,1-3.005,1.356,3.058,3.058,0,0,1,1.032-2.157m-11.994,3.843c.125-.35.5-.61.764-.912a3.908,3.908,0,0,1,.736,1.018,3.078,3.078,0,0,1,.025,1.353,9.429,9.429,0,0,1-1.225,3.358,6.888,6.888,0,0,1-.3-4.817m21.1-1.864c-.165-.375-.315-.792.058-1.116a1.084,1.084,0,0,1,1.286-.1,1.351,1.351,0,0,1,.622.716c.186.711.258,1.451.39,2.271a2.768,2.768,0,0,1-2.356-1.774" transform="translate(-46.533 -89.743)" fill="#e1ebff"/><path d="M70.84,637.555a1.5,1.5,0,0,0-1.631,2.15c.206.392.064.552-.3.614a2.486,2.486,0,0,1-.656.024,4.078,4.078,0,0,1-2.226-.884c-1.5-1.218-2.991-2.451-4.5-3.661a6.558,6.558,0,0,0-6.025-1.32,5.2,5.2,0,0,1-2.892,0,6.625,6.625,0,0,0-6.07,1.361c-1.475,1.192-2.934,2.4-4.409,3.6a4,4,0,0,1-2.712.924c-.563-.018-.671-.216-.468-.7a1.521,1.521,0,0,0-.514-1.866,1.5,1.5,0,0,0-1.961.227,2.74,2.74,0,0,0-.658,2.569,3.469,3.469,0,0,0,3.956,2.749,22.189,22.189,0,0,0,4.711-1.1c3.05-1.139,6.03-2.462,9.031-3.731a1.121,1.121,0,0,1,.979-.012q4.194,1.777,8.409,3.507a19.42,19.42,0,0,0,5.854,1.408,9.26,9.26,0,0,0,1.871-.554,3.227,3.227,0,0,0,1.427-4.26,1.757,1.757,0,0,0-1.219-1.035" transform="translate(-31.794 -564.109)" fill="#e1ebff"/><path d="M36.549,23.555V20.272A80.708,80.708,0,0,0,0,30.012l1.5,2.866a77.367,77.367,0,0,1,35.054-9.324" transform="translate(0 -18.031)" fill="#e1ebff"/><path d="M129.2,336.436a.614.614,0,0,0,.694-.679c0-2.43.009-4.86-.007-7.291a.645.645,0,0,0-.918-.632c-.378.115-.422.415-.421.746,0,.934,0,1.867,0,2.832h-3.4c0-.237,0-.436,0-.636,0-.773.008-1.547-.006-2.32a.6.6,0,0,0-.658-.653.587.587,0,0,0-.663.641q0,3.673,0,7.346a.661.661,0,0,0,1.322-.019c.011-.792,0-1.583.006-2.375,0-.193.019-.387.029-.571h3.369c0,.987.005,1.94,0,2.894a.618.618,0,0,0,.653.716" transform="translate(-110.129 -291.547)" fill="#e1ebff"/><path d="M200.073,329.37c.567,0,.8-.2.792-.674-.006-.516-.329-.645-.771-.644-1.123,0-2.245,0-3.368,0-.776,0-.9.132-.905.895q0,3.064,0,6.128c0,1.492-.212,1.6,1.556,1.576.92-.014,1.84,0,2.76,0,.456,0,.743-.191.728-.691-.015-.467-.282-.642-.723-.631-.386.01-.773,0-1.159,0h-1.791v-2.3c.73,0,1.391,0,2.052,0,.631,0,.857-.18.861-.665s-.228-.673-.851-.68c-.676-.007-1.352,0-2.06,0v-2.307c.977,0,1.927,0,2.878,0" transform="translate(-174.163 -291.781)" fill="#e1ebff"/><path d="M48.558,329.707c.282.133.54.317.822.451.37.177.839.009.86-.377a1.208,1.208,0,0,0-.358-.884,4,4,0,0,0-2.451-.824,4.4,4.4,0,0,0-4.18,2.888,4.313,4.313,0,0,0,1.4,4.769,4.425,4.425,0,0,0,5.025.285c.2-.127.436-.292.5-.489a.971.971,0,0,0-.048-.794,1,1,0,0,0-.781-.114,2.8,2.8,0,0,0-.669.372,2.894,2.894,0,0,1-3.559-.679,2.924,2.924,0,0,1-.159-3.717,2.883,2.883,0,0,1,3.6-.888" transform="translate(-38.26 -291.8)" fill="#e1ebff"/><path d="M131.01,3.037,130.224,0l-6.714,1.75.789,3.032,6.711-1.744" transform="translate(-109.854 0.001)" fill="#e1ebff"/><rect width="6.876" height="3.045" transform="translate(18.996 79.853)" fill="#e1ebff"/><path d="M306.18,334.9a1.266,1.266,0,0,1-1.588-.841c-.2-.418-.492-.607-.926-.439s-.391.54-.3.892a1.754,1.754,0,0,0,.254.545,2.719,2.719,0,0,0,2.121,1.158c2.116-.008,3.287-1.807,2.362-3.524a4.575,4.575,0,0,0-.86-1.065c-.408-.4-.88-.726-1.309-1.1a2.5,2.5,0,0,1-.634-.679c-.108-.216-.139-.682-.025-.753a1.4,1.4,0,0,1,.894-.127c.18.027.347.259.485.427.264.32.569.519.945.243s.3-.692.1-1.043a2.027,2.027,0,0,0-1.731-1.026,2,2,0,0,0-1.953,1.107,1.639,1.639,0,0,0,.277,1.992c.367.409.793.764,1.191,1.144a14.174,14.174,0,0,1,1.377,1.345,1.031,1.031,0,0,1-.679,1.744" transform="translate(-269.774 -291.349)" fill="#e1ebff"/><path d="M257,329.412c.811,0,1.621,0,2.432,0a.589.589,0,0,0,.636-.67.569.569,0,0,0-.611-.634q-1.934-.013-3.868,0a.541.541,0,0,0-.576.6q-.006,3.675,0,7.35a.661.661,0,0,0,1.322-.012c.013-.792,0-1.584.007-2.376,0-.193.017-.387.027-.607.751,0,1.431-.006,2.111,0,.457.005.812-.1.829-.649.015-.485-.226-.691-.836-.7-.694-.007-1.388,0-2.1,0v-2.307H257" transform="translate(-226.817 -291.822)" fill="#e1ebff"/><path d="M80.093,514.7a2.045,2.045,0,1,0-2.069-2,2.016,2.016,0,0,0,2.069,2" transform="translate(-69.397 -454.155)" fill="#e1ebff"/><path d="M291.194,514.708a2.044,2.044,0,1,0-2-2.072,2.037,2.037,0,0,0,2,2.072" transform="translate(-257.221 -454.163)" fill="#e1ebff"/></g></g></g></svg>