<svg xmlns="http://www.w3.org/2000/svg" xmlns:xlink="http://www.w3.org/1999/xlink" width="153" height="124" viewBox="0 0 153 124"><defs><clipPath id="a"><rect width="71.07" height="27.479" transform="translate(0 0)" fill="#2d5abe"/></clipPath></defs><g transform="translate(-21462 -8556)"><g transform="translate(21462 8556)"><rect width="153" height="124" fill="none"/></g><g transform="translate(21503 8605.001)"><g clip-path="url(#a)"><path d="M.1,21.479l-.1-.1v-.54L2.445,20.4V7.425L.285,7.2l-.1-.105v-.54L5.91,5.64l.106.12V20.4l2.264.435v.54l-.1.1ZM1.83.54,1.966.33A8.3,8.3,0,0,1,4.666,0,5.158,5.158,0,0,1,5.971.24l.15.21.09,2.819-.151.21A8.612,8.612,0,0,1,3.375,3.8a5.338,5.338,0,0,1-1.319-.24l-.136-.21Z" fill="#2d5abe"/><path d="M11.746,20.4V7.425L9.586,7.2,9.48,7.095v-.54L15.3,5.64l.1.12-.434,2.67c1.109-1.035,3.269-2.715,5.654-2.79a3.785,3.785,0,0,1,3.8,2.745C25.56,7.319,27.689,5.7,30.015,5.64c2.46,0,4.11,1.755,4.11,4.829V20.4l2.265.435v.54l-.106.1H28.365l-.1-.1v-.54l2.279-.435V10.5c0-1.98-.869-2.865-2.385-2.865a4.626,4.626,0,0,0-3.479,2.039,6.7,6.7,0,0,1,.045.8V20.4l2.28.435v.54l-.09.1H18.96l-.1-.1v-.54l2.28-.435V10.5c0-1.98-.855-2.865-2.369-2.865a4.488,4.488,0,0,0-3.451,1.979V20.4l2.281.435v.54l-.106.1H9.4l-.1-.1v-.54Z" fill="#2d5abe"/><path d="M39.375,26.4V7.454l-2.159-.225-.1-.105v-.54L42.9,5.639l.106.12-.391,2.22a7.17,7.17,0,0,1,4.846-2.34c3.555,0,6.344,2.985,6.344,7.425,0,5.265-3.6,8.609-8.385,8.685a8.827,8.827,0,0,1-2.459-.346v5l3.645.436v.539l-.106.105H37.051l-.106-.105v-.539ZM42.961,9.044V19.619a3.507,3.507,0,0,0,2.744,1.139c2.8,0,4.665-2.61,4.665-6.224,0-4.4-2.159-6.96-4.649-6.96a3.273,3.273,0,0,0-2.76,1.47" fill="#2d5abe"/><path d="M65.325,21.839l-.1-.121.315-2.594a7.616,7.616,0,0,1-5.34,2.715c-2.279,0-4.1-1.35-4.1-3.735,0-2.76,2.43-4.365,5.715-5.265l3.42-.93V9.659c0-2.085-.976-2.925-2.386-2.925a3.1,3.1,0,0,0-2.25.84,8.5,8.5,0,0,0-.42,3.585h-3.42l-.1-.105v-.66c0-3.075,3.765-4.605,6.944-4.755,2.49,0,5.205.975,5.205,4.4V20.129h2.16l.106.1v.615Zm-.09-8.955-1.83.48c-2.355.66-3.795,1.995-3.795,3.9a2.439,2.439,0,0,0,2.46,2.67,4.31,4.31,0,0,0,3.165-1.845Z" fill="#2d5abe"/></g></g></g></svg>