<svg xmlns="http://www.w3.org/2000/svg" xmlns:xlink="http://www.w3.org/1999/xlink" width="153" height="124.218" viewBox="0 0 153 124.218"><defs><clipPath id="a"><rect width="62.115" height="21.524" fill="#2d5abe"/></clipPath></defs><g transform="translate(-21676 -8878)"><g transform="translate(21676 8878)"><path d="M0,0H153V124.218H0Z" fill="none"/></g><g transform="translate(21721 8927.959)"><path d="M20.876,0l-7.2,18.8-.778-3.132L6.482,0H.206L.1.1V.631l2.116.456.339.66V20.083L0,20.539v.529l.1.1h6l.1-.1v-.529l-2.674-.456V1.513l.75,2.928L11.2,21.524l2.632-.354L21.406,1.323v18.76l-2.634.456v.529l.1.1h8.792l.1-.1v-.529l-2.632-.456v-19L27.668.631V.1l-.1-.1Z" transform="translate(0 0)" fill="#2d5abe"/><g transform="translate(0 0)"><g clip-path="url(#a)"><path d="M26.835,19.529a7.718,7.718,0,0,1-7.807-7.94c0-5.234,4.176-7.866,8.028-7.939a7.707,7.707,0,0,1,7.807,7.939c0,5.235-4.176,7.866-8.028,7.94m-.558-14.85c-2.133,0-3.794,2.1-3.794,5.5,0,4.94,2.4,8.307,5.132,8.307,2.131,0,3.808-2.089,3.808-5.484,0-4.94-2.41-8.322-5.145-8.322" transform="translate(10.4 1.995)" fill="#2d5abe"/><path d="M29.316,18.448l1.455-.456L35.8,11.714,30.875,4.923l-1.426-.456V3.981l.1-.1H37.3l.1.1v.486l-2.25.456,2.19,2.985,1.281,2.145,4.1-5.13-2.162-.456V3.981l.1-.1h4.6l.1.1v.486l-1.426.456L39.329,10.7l5.308,7.292,1.455.456v.5l-.1.1H38.226l-.1-.1v-.5l2.25-.456-2.6-3.484L36.5,12.376l-4.5,5.616,2.162.456v.5l-.1.1H29.418l-.1-.1Z" transform="translate(16.024 2.12)" fill="#2d5abe"/></g></g></g></g></svg>