<svg xmlns="http://www.w3.org/2000/svg" xmlns:xlink="http://www.w3.org/1999/xlink" width="153" height="124.218" viewBox="0 0 153 124.218"><defs><clipPath id="a"><rect width="47.595" height="40.686" transform="translate(0 0)" fill="#e1ebff"/></clipPath></defs><g transform="translate(-21031 -8393)"><path d="M0,0H153V124.218H0Z" transform="translate(21031 8393)" fill="none"/><g transform="translate(21084 8435)"><g clip-path="url(#a)"><path d="M24.723,1.072c-.825-1.429-2.175-1.429-3,0L.352,38.088c-.825,1.429-.15,2.6,1.5,2.6H14.186a5.764,5.764,0,0,0,4.5-2.6L30.89,16.95a5.764,5.764,0,0,0,0-5.2Z" fill="#e1ebff"/><path d="M32.39,14.351h0l15.2,26.334Z" fill="#e1ebff"/><path d="M38.44,24.83c-.825-1.429-2.175-1.429-3,0L27.786,38.088c-.825,1.429-.15,2.6,1.5,2.6H44.594c1.65,0,2.325-1.169,1.5-2.6Z" fill="#e1ebff"/></g></g></g></svg>