<svg xmlns="http://www.w3.org/2000/svg" xmlns:xlink="http://www.w3.org/1999/xlink" width="153" height="124" viewBox="0 0 153 124"><defs><clipPath id="a"><rect width="101.029" height="51.609" transform="translate(0 0)" fill="none"/></clipPath></defs><g transform="translate(-21462 -8393)"><g transform="translate(21462 8393)"><rect width="153" height="124" fill="none"/></g><g transform="translate(21488 8429)"><path d="M15.305,34.316l-.32.135-.319-.135L6.2,30.6.017,32.683l14.968,6.583,14.953-6.583L23.758,30.6Z" fill="#e1ebff"/><path d="M15.305,28.288l-.32.135-.319-.135L6.2,24.567.017,26.638l14.968,6.584,14.953-6.584-6.18-2.071Z" fill="#e1ebff"/><path d="M14.514,0,0,20.761l14.514,6.382Z" fill="#e1ebff"/><path d="M37.65,17.242V11.18h4.6v1.179H38.98v1.229h2.88v1.2H38.98v1.263h3.3v1.195Z" fill="#e1ebff"/><path d="M48.595,17.242l-2.947-3.856v3.856H44.335V11.18h1.229l2.829,3.738V11.18h1.33v6.062Z" fill="#e1ebff"/><path d="M54.825,12.393v4.849H53.478V12.393H51.626V11.181H56.66v1.212Z" fill="#e1ebff"/><path d="M58.546,17.242V11.18h4.58v1.179h-3.25v1.229h2.863v1.2H59.876v1.263h3.3v1.195Z" fill="#e1ebff"/><g clip-path="url(#a)"><path d="M68.952,13.235c0-.573-.4-.859-1.044-.859h-1.33v1.751h1.363c.623-.017,1.011-.354,1.011-.892m-.034,4.007-1.3-1.953H66.578v1.953H65.247V11.18h2.779c1.431,0,2.29.741,2.29,2V13.2a1.888,1.888,0,0,1-1.3,1.886L70.5,17.259H68.918Z" fill="#e1ebff"/><path d="M75.821,13.286c0-.59-.42-.91-1.077-.91H73.717v1.853h1.061a.941.941,0,0,0,1.06-.91v-.033Zm-1.094,2.138H73.7v1.819H72.37V11.181h2.475a2.081,2.081,0,0,1,2.324,2.105V13.3c.016,1.381-1.078,2.122-2.442,2.122" fill="#e1ebff"/><path d="M82.759,13.235c0-.573-.4-.859-1.044-.859h-1.33v1.751h1.364c.639-.017,1.01-.354,1.01-.892m-.017,4.007-1.3-1.953H80.4v1.953H79.054V11.18h2.779c1.431,0,2.29.741,2.29,2V13.2a1.888,1.888,0,0,1-1.3,1.886l1.482,2.172H82.742Z" fill="#e1ebff"/><rect width="1.33" height="6.062" transform="translate(86.245 11.181)" fill="#e1ebff"/><path d="M92.138,17.326a3.848,3.848,0,0,1-2.576-.977l.791-.943a2.768,2.768,0,0,0,1.8.741c.539,0,.875-.219.875-.572v-.017c0-.337-.2-.522-1.229-.775-1.229-.3-2.02-.639-2.02-1.852V12.9a1.916,1.916,0,0,1,2.138-1.836,3.548,3.548,0,0,1,2.256.775l-.69,1.01a2.888,2.888,0,0,0-1.583-.589c-.5,0-.774.235-.774.522V12.8c0,.4.252.522,1.3.808,1.229.32,1.92.757,1.92,1.818v.017c.017,1.212-.909,1.886-2.206,1.886" fill="#e1ebff"/><path d="M96.4,17.242V11.18h4.58v1.179h-3.25v1.229h2.863v1.2H97.728v1.263h3.3v1.195Z" fill="#e1ebff"/><path d="M37.65,29.248V23.186h4.6v1.179H38.98v1.229h2.88v1.2H38.98v1.279h3.3v1.179Z" fill="#e1ebff"/><path d="M47.1,24.415v4.833h-1.33V24.415H43.914V23.186h5.034v1.229Z" fill="#e1ebff"/><path d="M54.64,29.248V26.806H52.165v2.442h-1.33V23.186h1.33v2.391H54.64V23.186h1.33v6.062Z" fill="#e1ebff"/><path d="M58.293,29.248V23.186h4.58v1.179h-3.25v1.229h2.863v1.2H59.623v1.279h3.284v1.179Z" fill="#e1ebff"/><path d="M68.683,25.241c0-.573-.4-.859-1.044-.859h-1.33v1.751h1.364a.885.885,0,0,0,1.01-.892m-.017,4.007-1.3-1.953H66.326v1.953H65V23.186h2.779c1.431,0,2.29.741,2.29,2v.017a1.888,1.888,0,0,1-1.3,1.886l1.482,2.172H68.666Z" fill="#e1ebff"/><path d="M72.118,29.248V23.186H76.7v1.179h-3.25v1.229h2.863v1.2H73.448v1.279h3.3v1.179Z" fill="#e1ebff"/><path d="M81.345,29.349a2.406,2.406,0,0,1-2.627-2.694V23.186h1.33v3.435c0,.994.489,1.5,1.3,1.5s1.3-.488,1.3-1.465V23.186h1.33v3.435a2.41,2.41,0,0,1-2.627,2.728" fill="#e1ebff"/><path d="M90.976,29.248V25.291l-1.7,2.593h-.05l-1.684-2.576v3.94H86.228V23.186h1.448l1.6,2.56,1.617-2.56h1.431v6.062Z" fill="#e1ebff"/><path d="M40.344,36.74l-.809,1.97h1.617Zm1.835,4.513-.556-1.364H39.047l-.556,1.364H37.128l2.609-6.112h1.23l2.61,6.112Z" fill="#e1ebff"/><path d="M45.379,41.253V35.191h1.33v4.85H49.74v1.212Z" fill="#e1ebff"/><path d="M51.609,41.253V35.191h1.347v4.85h3.031v1.212Z" fill="#e1ebff"/><rect width="1.33" height="6.062" transform="translate(57.923 35.192)" fill="#e1ebff"/><path d="M64.322,36.74l-.808,1.97H65.13Zm1.852,4.513-.556-1.364H63.042l-.556,1.364H61.123l2.609-6.112h1.23l2.61,6.112Z" fill="#e1ebff"/><path d="M73.633,41.253,70.686,37.4v3.856H69.373V35.191H70.6l2.829,3.738V35.191h1.33v6.062Z" fill="#e1ebff"/><path d="M79.93,41.354a3.07,3.07,0,0,1-3.115-3.132v-.017a3.072,3.072,0,0,1,3.166-3.132,3.118,3.118,0,0,1,2.391.943l-.859.977a2.264,2.264,0,0,0-1.549-.69,1.792,1.792,0,0,0-1.751,1.885v.017a1.8,1.8,0,0,0,1.751,1.9,2.175,2.175,0,0,0,1.6-.707l.859.859a3.036,3.036,0,0,1-2.492,1.094" fill="#e1ebff"/><path d="M84.359,41.253V35.191h4.58V36.37h-3.25V37.6h2.863v1.2H85.689v1.279h3.3v1.179Z" fill="#e1ebff"/><path d="M15.407,40.209V51.575L29.77,33.811Z" fill="#e1ebff"/><path d="M14.447,40.226.084,33.811l14.363,17.8Z" fill="#e1ebff"/><path d="M15.407.051V27.127l14.5-6.365Z" fill="#e1ebff"/></g></g></g></svg>