<svg xmlns="http://www.w3.org/2000/svg" xmlns:xlink="http://www.w3.org/1999/xlink" width="153" height="124" viewBox="0 0 153 124"><defs><clipPath id="a"><rect width="119.521" height="22.205" fill="none"/></clipPath></defs><g transform="translate(-21462 -8717)"><g transform="translate(21462 8717)"><rect width="153" height="124" fill="none"/></g><g transform="translate(21479 8767)"><path d="M12.439,0,5.1,6.822,7.8,9.33,12.439,5.02l4.645,4.314,2.7-2.51Z" transform="translate(-0.485)" fill="#e1ebff"/><path d="M0,12.006l2.7,2.509,2.7-2.509L2.7,9.5Z" transform="translate(0 -0.904)" fill="#e1ebff"/><path d="M12.439,18.541,7.8,14.229,5.091,16.735l0,0,7.343,6.821,7.344-6.824,0,0-2.7-2.506Z" transform="translate(-0.485 -1.354)" fill="#e1ebff"/><path d="M20.449,12.008,23.15,9.5l2.7,2.509-2.7,2.509Z" transform="translate(-1.947 -0.904)" fill="#e1ebff"/><path d="M15.663,12l-2.74-2.546L10.9,11.337l-.233.216-.48.445,0,0,0,.005,2.739,2.543L15.663,12l0,0Z" transform="translate(-0.969 -0.9)" fill="#e1ebff"/><g transform="translate(0 0)"><g clip-path="url(#a)"><path d="M31.076,5.946h5.876A4.671,4.671,0,0,1,40.26,7a2.729,2.729,0,0,1,.652.91,2.551,2.551,0,0,1,.214,1.075v.033a2.739,2.739,0,0,1-.135.891,2.7,2.7,0,0,1-.881,1.249,3.437,3.437,0,0,1-.64.4A4.323,4.323,0,0,1,41.2,12.613a2.569,2.569,0,0,1,.631,1.841v.033A2.878,2.878,0,0,1,41.5,15.9a2.841,2.841,0,0,1-.957,1.011,4.719,4.719,0,0,1-1.5.6,8.649,8.649,0,0,1-1.943.2H31.076Zm5.287,4.76a3.088,3.088,0,0,0,1.467-.295,1.051,1.051,0,0,0,.416-.4.954.954,0,0,0,.124-.547V9.428a.979.979,0,0,0-.111-.506,1.056,1.056,0,0,0-.359-.394,2.469,2.469,0,0,0-1.357-.31H33.793v2.489ZM37.1,15.45a2.853,2.853,0,0,0,1.454-.31,1.1,1.1,0,0,0,.4-.417,1.007,1.007,0,0,0,.12-.551v-.033a1.048,1.048,0,0,0-.119-.523,1.138,1.138,0,0,0-.37-.41,2.748,2.748,0,0,0-1.574-.351H33.793v2.6Z" transform="translate(-2.958 -0.566)" fill="#e1ebff"/><rect width="2.789" height="11.775" transform="translate(42.373 5.381)" fill="#e1ebff"/><path d="M54.578,5.947H57.15l5.944,7.247V5.947h2.752V17.722H63.473l-6.138-7.485v7.485H54.578Z" transform="translate(-5.195 -0.566)" fill="#e1ebff"/><path d="M75.789,5.854h2.568l5.432,11.859H80.878l-1.159-2.641h-5.36L73.2,17.713H70.356Zm2.934,6.931-1.687-3.82-1.68,3.82Z" transform="translate(-6.697 -0.557)" fill="#e1ebff"/><path d="M88.536,5.947h2.571l5.94,7.247V5.947H99.8V17.722H97.427l-6.138-7.485v7.485H88.536Z" transform="translate(-8.428 -0.566)" fill="#e1ebff"/><path d="M111.394,17.908a7.042,7.042,0,0,1-2.59-.47,6.329,6.329,0,0,1-2.061-1.286,5.85,5.85,0,0,1-1.851-4.3v-.033a5.887,5.887,0,0,1,1.849-4.3,6.315,6.315,0,0,1,2.077-1.312,7.227,7.227,0,0,1,2.678-.479,8.994,8.994,0,0,1,1.621.136,7.029,7.029,0,0,1,1.333.37,5.909,5.909,0,0,1,1.1.571,7.443,7.443,0,0,1,.944.74l-1.773,1.9a6.719,6.719,0,0,0-1.51-.977,4.1,4.1,0,0,0-1.728-.351,3.747,3.747,0,0,0-1.447.274,3.524,3.524,0,0,0-1.2.8,3.649,3.649,0,0,0-.763,1.17,3.756,3.756,0,0,0-.271,1.422v.033a3.818,3.818,0,0,0,.271,1.421,3.668,3.668,0,0,0,.756,1.177,3.473,3.473,0,0,0,1.193.813,3.7,3.7,0,0,0,1.45.28,4.117,4.117,0,0,0,1.837-.37,7.139,7.139,0,0,0,1.494-1.01l1.775,1.666a8.948,8.948,0,0,1-1.014.877,6.147,6.147,0,0,1-1.15.665,6.294,6.294,0,0,1-1.367.419,8.689,8.689,0,0,1-1.658.147" transform="translate(-9.985 -0.545)" fill="#e1ebff"/><path d="M121.447,5.947h9.54v2.3h-6.8V10.64h5.985v2.3H124.2v2.473h6.881v2.3h-9.629Z" transform="translate(-11.561 -0.566)" fill="#e1ebff"/></g></g></g></g></svg>