<svg width="659" height="880" viewBox="0 0 659 880" fill="none" xmlns="http://www.w3.org/2000/svg">
<path fill-rule="evenodd" clip-rule="evenodd" d="M763.544 498.44C763.544 299.071 610.509 135.474 415.515 118.637C302.341 108.716 295.248 92.3656 271.429 59.5093C271.12 59.0895 270.832 58.6697 270.523 58.2499C270.457 58.1394 270.368 58.0289 270.302 57.9406C245.047 23.4271 204.258 0.999976 158.211 0.999974C81.5609 0.99997 19.4499 63.133 19.4499 139.761C19.4499 164.088 25.7251 186.957 36.7067 206.821C55.2449 241.556 66.4474 255.653 28.6638 355.636C10.8326 399.739 0.99998 447.929 0.999978 498.418C0.999969 708.99 171.689 879.679 382.261 879.679C592.833 879.701 763.544 709.012 763.544 498.44Z" fill="url(#paint0_linear)" stroke="#F9F9F9" stroke-width="0.5" stroke-miterlimit="10"/>
<defs>
<linearGradient id="paint0_linear" x1="402" y1="787" x2="0.999929" y2="-157" gradientUnits="userSpaceOnUse">
<stop offset="0.073571" stop-color="white"/>
<stop offset="0.907275" stop-color="#E5E5E5"/>
</linearGradient>
</defs>
</svg>
