<svg width="247" height="203" viewBox="0 0 247 203" fill="none" xmlns="http://www.w3.org/2000/svg">
<g opacity="0.2" filter="url(#filter0_d)">
<rect x="12.748" y="145.752" width="44.2504" height="44.2504" stroke="black" stroke-opacity="0.15"/>
<rect x="56.9985" y="145.752" width="44.2504" height="44.2504" stroke="black" stroke-opacity="0.15"/>
<rect x="101.249" y="145.752" width="44.2504" height="44.2504" stroke="black" stroke-opacity="0.15"/>
<rect x="12.748" y="101.501" width="44.2504" height="44.2504" stroke="black" stroke-opacity="0.15"/>
<rect x="56.9985" y="101.501" width="44.2504" height="44.2504" stroke="black" stroke-opacity="0.15"/>
<rect x="101.249" y="101.501" width="44.2504" height="44.2504" stroke="black" stroke-opacity="0.15"/>
<rect x="12.748" y="57.2505" width="44.2504" height="44.2504" stroke="black" stroke-opacity="0.15"/>
<rect x="56.9985" y="57.2505" width="44.2504" height="44.2504" stroke="black" stroke-opacity="0.15"/>
<rect x="101.249" y="57.2505" width="44.2504" height="44.2504" stroke="black" stroke-opacity="0.15"/>
<rect x="12.7483" y="13" width="44.2504" height="44.2504" stroke="black" stroke-opacity="0.15"/>
<rect x="56.9985" y="13.0005" width="44.2504" height="44.2504" stroke="black" stroke-opacity="0.15"/>
<rect x="101.249" y="13.0005" width="44.2504" height="44.2504" stroke="black" stroke-opacity="0.15"/>
<rect x="145.499" y="145.752" width="44.2504" height="44.2504" stroke="black" stroke-opacity="0.15"/>
<rect x="145.499" y="101.501" width="44.2504" height="44.2504" stroke="black" stroke-opacity="0.15"/>
<rect x="145.499" y="57.2505" width="44.2504" height="44.2504" stroke="black" stroke-opacity="0.15"/>
<rect x="145.499" y="13.0005" width="44.2504" height="44.2504" stroke="black" stroke-opacity="0.15"/>
<rect x="189.75" y="145.752" width="44.2504" height="44.2504" stroke="black" stroke-opacity="0.15"/>
<rect x="189.75" y="101.501" width="44.2504" height="44.2504" stroke="black" stroke-opacity="0.15"/>
<rect x="189.75" y="57.2505" width="44.2504" height="44.2504" stroke="black" stroke-opacity="0.15"/>
<rect x="189.75" y="13.0005" width="44.2504" height="44.2504" stroke="black" stroke-opacity="0.15"/>
</g>
<circle cx="78.5" cy="35.5" r="22" fill="white" stroke="#5CC1FA"/>
<circle cx="78.5001" cy="35.5001" r="19.2857" fill="white" stroke="#5CC1FA" stroke-linecap="round" stroke-dasharray="2 4"/>
<path d="M78.2649 36.0111C78.1754 36.0111 78.0992 35.985 78.0366 35.9327C77.9828 35.8804 77.956 35.8064 77.956 35.7106V34.7958C77.3292 34.7435 76.7874 34.6041 76.3307 34.3776C75.883 34.1424 75.5383 33.8549 75.2965 33.5151C75.0637 33.1666 74.9383 32.7963 74.9204 32.4043C74.9204 32.3346 74.9473 32.2736 75.001 32.2213C75.0547 32.1691 75.1219 32.1429 75.2025 32.1429H75.8472C76.0173 32.1429 76.1337 32.2301 76.1964 32.4043C76.277 32.7702 76.5053 33.0882 76.8814 33.3583C77.2665 33.6196 77.8127 33.7503 78.5201 33.7503C79.2812 33.7503 79.8498 33.6196 80.2259 33.3583C80.602 33.0969 80.7901 32.7354 80.7901 32.2736C80.7901 31.9774 80.696 31.7335 80.508 31.5418C80.3289 31.3501 80.0558 31.1846 79.6887 31.0452C79.3305 30.8971 78.7887 30.7185 78.0634 30.5094C77.3739 30.3177 76.8232 30.113 76.4113 29.8952C75.9994 29.6774 75.6905 29.4117 75.4845 29.0981C75.2786 28.7757 75.1756 28.3706 75.1756 27.8827C75.1756 27.2293 75.4219 26.6804 75.9144 26.2361C76.4069 25.7918 77.0874 25.5304 77.956 25.452V24.5503C77.956 24.4545 77.9828 24.3804 78.0366 24.3282C78.0992 24.2759 78.1754 24.2498 78.2649 24.2498H78.7484C78.838 24.2498 78.9096 24.2802 78.9633 24.3412C79.0171 24.3935 79.0439 24.4632 79.0439 24.5503V25.4651C79.617 25.5348 80.1095 25.6916 80.5214 25.9356C80.9333 26.1795 81.2423 26.467 81.4482 26.7981C81.6631 27.1204 81.7795 27.4471 81.7974 27.7782C81.7974 27.8566 81.7706 27.9219 81.7168 27.9742C81.6631 28.0265 81.596 28.0526 81.5154 28.0526H80.8438C80.7721 28.0526 80.7005 28.0308 80.6289 27.9873C80.5662 27.9437 80.5259 27.8784 80.508 27.7912C80.4543 27.4166 80.2394 27.1073 79.8633 26.8634C79.4872 26.6195 79.0171 26.4975 78.4529 26.4975C77.844 26.4975 77.3605 26.6151 77.0023 26.8503C76.6441 27.0768 76.4651 27.4166 76.4651 27.8696C76.4651 28.1746 76.5456 28.4229 76.7068 28.6145C76.877 28.8062 77.1322 28.9761 77.4724 29.1242C77.8217 29.2723 78.3231 29.4422 78.9768 29.6338C79.7379 29.8429 80.3379 30.052 80.7766 30.2611C81.2154 30.4702 81.5422 30.7316 81.7571 31.0452C81.972 31.3501 82.0795 31.7465 82.0795 32.2344C82.0795 32.9749 81.8064 33.5717 81.2602 34.0248C80.7229 34.4778 79.9842 34.7391 79.0439 34.8088V35.7106C79.0439 35.7977 79.0171 35.8674 78.9633 35.9196C78.9096 35.9806 78.838 36.0111 78.7484 36.0111H78.2649Z" fill="#5CC1FA"/>
<path d="M73.0482 46.7499C72.3254 46.7499 71.7832 46.5425 71.4218 46.1277C71.0603 45.7073 70.8657 45.1448 70.8379 44.4402C70.8324 44.2868 70.8296 44.0368 70.8296 43.6902C70.8296 43.338 70.8324 43.0823 70.8379 42.9232C70.8657 42.2186 71.0603 41.659 71.4218 41.2442C71.7832 40.8238 72.3254 40.6135 73.0482 40.6135C73.5431 40.6135 73.9546 40.7073 74.2826 40.8948C74.6107 41.0766 74.8526 41.3095 75.0083 41.5936C75.1695 41.872 75.2585 42.159 75.2752 42.4544V42.4715C75.2752 42.5169 75.2585 42.5539 75.2251 42.5823C75.1918 42.6107 75.1501 42.6249 75.1 42.6249H74.9332C74.8331 42.6249 74.772 42.5652 74.7497 42.4459C74.6441 41.963 74.4522 41.622 74.1742 41.4232C73.8962 41.2243 73.5209 41.1249 73.0482 41.1249C72.5255 41.1249 72.1196 41.2755 71.8305 41.5766C71.5413 41.8777 71.3856 42.3408 71.3634 42.9658C71.3578 43.1192 71.3551 43.355 71.3551 43.6732C71.3551 43.9914 71.3578 44.2328 71.3634 44.3976C71.3856 45.0226 71.5413 45.4857 71.8305 45.7868C72.1196 46.088 72.5255 46.2385 73.0482 46.2385C73.5209 46.2385 73.8962 46.1391 74.1742 45.9402C74.4522 45.7414 74.6441 45.4005 74.7497 44.9175C74.772 44.7982 74.8331 44.7385 74.9332 44.7385H75.1C75.1501 44.7385 75.1918 44.7556 75.2251 44.7897C75.2641 44.8181 75.2807 44.8578 75.2752 44.909C75.2585 45.2044 75.1695 45.4942 75.0083 45.7783C74.8526 46.0567 74.6107 46.2897 74.2826 46.4772C73.9546 46.659 73.5431 46.7499 73.0482 46.7499Z" fill="#5CC1FA"/>
<path d="M77.9639 46.6647C77.9083 46.6647 77.8639 46.6476 77.8305 46.6135C77.7971 46.5794 77.7805 46.534 77.7805 46.4772V41.2101H76.129C76.0734 41.2101 76.0289 41.1931 75.9955 41.159C75.9622 41.1249 75.9455 41.0794 75.9455 41.0226V40.8948C75.9455 40.838 75.9622 40.7925 75.9955 40.7584C76.0289 40.7186 76.0734 40.6988 76.129 40.6988H79.949C80.0102 40.6988 80.0575 40.7158 80.0908 40.7499C80.1242 40.784 80.1409 40.8323 80.1409 40.8948V41.0226C80.1409 41.0794 80.1214 41.1249 80.0825 41.159C80.0491 41.1931 80.0046 41.2101 79.949 41.2101H78.3059V46.4772C78.3059 46.534 78.2865 46.5794 78.2475 46.6135C78.2142 46.6476 78.1697 46.6647 78.1141 46.6647H77.9639Z" fill="#5CC1FA"/>
<path d="M82.8579 46.7499C82.4242 46.7499 82.0461 46.6789 81.7236 46.5368C81.4066 46.3891 81.162 46.1988 80.9896 45.9658C80.8228 45.7328 80.7338 45.4828 80.7227 45.2158C80.7227 45.1703 80.7394 45.1306 80.7727 45.0965C80.8061 45.0624 80.8478 45.0453 80.8979 45.0453H81.0647C81.1648 45.0453 81.2259 45.1022 81.2482 45.2158C81.2871 45.4885 81.44 45.7272 81.7069 45.9317C81.9738 46.1363 82.3575 46.2385 82.8579 46.2385C83.3862 46.2385 83.7782 46.1419 84.034 45.9488C84.2953 45.7499 84.426 45.4743 84.426 45.122C84.426 44.9061 84.362 44.73 84.2341 44.5936C84.1118 44.4516 83.9311 44.3294 83.692 44.2272C83.4529 44.1192 83.0915 43.9857 82.6077 43.8266C82.1795 43.6845 81.8431 43.5453 81.5985 43.409C81.3594 43.2726 81.1814 43.105 81.0647 42.9061C80.9479 42.7073 80.8895 42.4544 80.8895 42.1476C80.8895 41.8578 80.9646 41.5965 81.1147 41.3635C81.2704 41.1306 81.4928 40.9488 81.782 40.8181C82.0711 40.6817 82.4159 40.6135 82.8162 40.6135C83.2277 40.6135 83.5808 40.6902 83.8755 40.8436C84.1702 40.9914 84.3926 41.1817 84.5427 41.4147C84.6929 41.6419 84.7735 41.872 84.7846 42.105C84.7846 42.1505 84.7679 42.1902 84.7346 42.2243C84.7068 42.2584 84.6651 42.2755 84.6095 42.2755H84.4426C84.4037 42.2755 84.3648 42.2641 84.3259 42.2414C84.287 42.213 84.2647 42.1675 84.2592 42.105C84.2258 41.8209 84.0757 41.588 83.8088 41.4061C83.5474 41.2186 83.2166 41.1249 82.8162 41.1249C82.3881 41.1249 82.0461 41.2101 81.7903 41.3806C81.5401 41.551 81.415 41.8067 81.415 42.1476C81.415 42.3692 81.4706 42.5539 81.5818 42.7016C81.6986 42.8436 81.8709 42.9686 82.0989 43.0766C82.3269 43.1789 82.6633 43.3039 83.1081 43.4516C83.5641 43.5993 83.92 43.7414 84.1757 43.8777C84.4315 44.0141 84.6234 44.1789 84.7513 44.372C84.8847 44.5652 84.9514 44.8152 84.9514 45.122C84.9514 45.6334 84.7652 46.034 84.3926 46.3238C84.0201 46.6078 83.5085 46.7499 82.8579 46.7499Z" fill="#5CC1FA"/>
<path d="M86.3399 46.6647C86.2843 46.6647 86.2398 46.6476 86.2064 46.6135C86.1731 46.5794 86.1564 46.534 86.1564 46.4772V40.8863C86.1564 40.8294 86.1731 40.784 86.2064 40.7499C86.2398 40.7158 86.2843 40.6988 86.3399 40.6988H86.4984C86.554 40.6988 86.5985 40.7158 86.6318 40.7499C86.6652 40.784 86.6819 40.8294 86.6819 40.8863V46.4772C86.6819 46.534 86.6652 46.5794 86.6318 46.6135C86.5985 46.6476 86.554 46.6647 86.4984 46.6647H86.3399Z" fill="#5CC1FA"/>
<circle cx="167.5" cy="79.5" r="22" fill="white" stroke="#5CC1FA"/>
<circle cx="167.5" cy="79.5001" r="19.2857" fill="white" stroke="#5CC1FA" stroke-linecap="round" stroke-dasharray="2 4"/>
<path d="M167.265 80.0111C167.175 80.0111 167.099 79.985 167.037 79.9327C166.983 79.8804 166.956 79.8064 166.956 79.7106V78.7958C166.329 78.7435 165.787 78.6041 165.331 78.3776C164.883 78.1424 164.538 77.8549 164.296 77.5151C164.064 77.1666 163.938 76.7963 163.92 76.4043C163.92 76.3346 163.947 76.2736 164.001 76.2213C164.055 76.1691 164.122 76.1429 164.202 76.1429H164.847C165.017 76.1429 165.134 76.2301 165.196 76.4043C165.277 76.7702 165.505 77.0882 165.881 77.3583C166.266 77.6196 166.813 77.7503 167.52 77.7503C168.281 77.7503 168.85 77.6196 169.226 77.3583C169.602 77.0969 169.79 76.7354 169.79 76.2736C169.79 75.9774 169.696 75.7335 169.508 75.5418C169.329 75.3501 169.056 75.1846 168.689 75.0452C168.33 74.8971 167.789 74.7185 167.063 74.5094C166.374 74.3177 165.823 74.113 165.411 73.8952C164.999 73.6774 164.69 73.4117 164.485 73.0981C164.279 72.7757 164.176 72.3706 164.176 71.8827C164.176 71.2293 164.422 70.6804 164.914 70.2361C165.407 69.7918 166.087 69.5304 166.956 69.452V68.5503C166.956 68.4545 166.983 68.3804 167.037 68.3282C167.099 68.2759 167.175 68.2498 167.265 68.2498H167.748C167.838 68.2498 167.91 68.2802 167.963 68.3412C168.017 68.3935 168.044 68.4632 168.044 68.5503V69.4651C168.617 69.5348 169.11 69.6916 169.521 69.9356C169.933 70.1795 170.242 70.467 170.448 70.7981C170.663 71.1204 170.78 71.4471 170.797 71.7782C170.797 71.8566 170.771 71.9219 170.717 71.9742C170.663 72.0265 170.596 72.0526 170.515 72.0526H169.844C169.772 72.0526 169.701 72.0308 169.629 71.9873C169.566 71.9437 169.526 71.8784 169.508 71.7912C169.454 71.4166 169.239 71.1073 168.863 70.8634C168.487 70.6195 168.017 70.4975 167.453 70.4975C166.844 70.4975 166.361 70.6151 166.002 70.8503C165.644 71.0768 165.465 71.4166 165.465 71.8696C165.465 72.1746 165.546 72.4229 165.707 72.6145C165.877 72.8062 166.132 72.9761 166.472 73.1242C166.822 73.2723 167.323 73.4422 167.977 73.6338C168.738 73.8429 169.338 74.052 169.777 74.2611C170.215 74.4702 170.542 74.7316 170.757 75.0452C170.972 75.3501 171.08 75.7465 171.08 76.2344C171.08 76.9749 170.806 77.5717 170.26 78.0248C169.723 78.4778 168.984 78.7391 168.044 78.8088V79.7106C168.044 79.7977 168.017 79.8674 167.963 79.9196C167.91 79.9806 167.838 80.0111 167.748 80.0111H167.265Z" fill="#5CC1FA"/>
<path d="M162.048 90.7499C161.325 90.7499 160.783 90.5425 160.422 90.1277C160.06 89.7073 159.866 89.1448 159.838 88.4402C159.832 88.2868 159.83 88.0368 159.83 87.6902C159.83 87.338 159.832 87.0823 159.838 86.9232C159.866 86.2186 160.06 85.659 160.422 85.2442C160.783 84.8238 161.325 84.6135 162.048 84.6135C162.543 84.6135 162.955 84.7073 163.283 84.8948C163.611 85.0766 163.853 85.3095 164.008 85.5936C164.17 85.872 164.258 86.159 164.275 86.4544V86.4715C164.275 86.5169 164.258 86.5539 164.225 86.5823C164.192 86.6107 164.15 86.6249 164.1 86.6249H163.933C163.833 86.6249 163.772 86.5652 163.75 86.4459C163.644 85.963 163.452 85.622 163.174 85.4232C162.896 85.2243 162.521 85.1249 162.048 85.1249C161.526 85.1249 161.12 85.2755 160.83 85.5766C160.541 85.8777 160.386 86.3408 160.363 86.9658C160.358 87.1192 160.355 87.355 160.355 87.6732C160.355 87.9914 160.358 88.2328 160.363 88.3976C160.386 89.0226 160.541 89.4857 160.83 89.7868C161.12 90.088 161.526 90.2385 162.048 90.2385C162.521 90.2385 162.896 90.1391 163.174 89.9402C163.452 89.7414 163.644 89.4005 163.75 88.9175C163.772 88.7982 163.833 88.7385 163.933 88.7385H164.1C164.15 88.7385 164.192 88.7556 164.225 88.7897C164.264 88.8181 164.281 88.8578 164.275 88.909C164.258 89.2044 164.17 89.4942 164.008 89.7783C163.853 90.0567 163.611 90.2897 163.283 90.4772C162.955 90.659 162.543 90.7499 162.048 90.7499Z" fill="#5CC1FA"/>
<path d="M166.964 90.6647C166.908 90.6647 166.864 90.6476 166.83 90.6135C166.797 90.5794 166.78 90.534 166.78 90.4772V85.2101H165.129C165.073 85.2101 165.029 85.1931 164.996 85.159C164.962 85.1249 164.945 85.0794 164.945 85.0226V84.8948C164.945 84.838 164.962 84.7925 164.996 84.7584C165.029 84.7186 165.073 84.6988 165.129 84.6988H168.949C169.01 84.6988 169.057 84.7158 169.091 84.7499C169.124 84.784 169.141 84.8323 169.141 84.8948V85.0226C169.141 85.0794 169.121 85.1249 169.082 85.159C169.049 85.1931 169.005 85.2101 168.949 85.2101H167.306V90.4772C167.306 90.534 167.286 90.5794 167.248 90.6135C167.214 90.6476 167.17 90.6647 167.114 90.6647H166.964Z" fill="#5CC1FA"/>
<path d="M171.858 90.7499C171.424 90.7499 171.046 90.6789 170.724 90.5368C170.407 90.3891 170.162 90.1988 169.99 89.9658C169.823 89.7328 169.734 89.4828 169.723 89.2158C169.723 89.1703 169.739 89.1306 169.773 89.0965C169.806 89.0624 169.848 89.0453 169.898 89.0453H170.065C170.165 89.0453 170.226 89.1022 170.248 89.2158C170.287 89.4885 170.44 89.7272 170.707 89.9317C170.974 90.1363 171.357 90.2385 171.858 90.2385C172.386 90.2385 172.778 90.1419 173.034 89.9488C173.295 89.7499 173.426 89.4743 173.426 89.122C173.426 88.9061 173.362 88.73 173.234 88.5936C173.112 88.4516 172.931 88.3294 172.692 88.2272C172.453 88.1192 172.091 87.9857 171.608 87.8266C171.18 87.6845 170.843 87.5453 170.598 87.409C170.359 87.2726 170.181 87.105 170.065 86.9061C169.948 86.7073 169.89 86.4544 169.89 86.1476C169.89 85.8578 169.965 85.5965 170.115 85.3635C170.27 85.1306 170.493 84.9488 170.782 84.8181C171.071 84.6817 171.416 84.6135 171.816 84.6135C172.228 84.6135 172.581 84.6902 172.875 84.8436C173.17 84.9914 173.393 85.1817 173.543 85.4147C173.693 85.6419 173.773 85.872 173.785 86.105C173.785 86.1505 173.768 86.1902 173.735 86.2243C173.707 86.2584 173.665 86.2755 173.609 86.2755H173.443C173.404 86.2755 173.365 86.2641 173.326 86.2414C173.287 86.213 173.265 86.1675 173.259 86.105C173.226 85.8209 173.076 85.588 172.809 85.4061C172.547 85.2186 172.217 85.1249 171.816 85.1249C171.388 85.1249 171.046 85.2101 170.79 85.3806C170.54 85.551 170.415 85.8067 170.415 86.1476C170.415 86.3692 170.471 86.5539 170.582 86.7016C170.699 86.8436 170.871 86.9686 171.099 87.0766C171.327 87.1789 171.663 87.3039 172.108 87.4516C172.564 87.5993 172.92 87.7414 173.176 87.8777C173.432 88.0141 173.623 88.1789 173.751 88.372C173.885 88.5652 173.951 88.8152 173.951 89.122C173.951 89.6334 173.765 90.034 173.393 90.3238C173.02 90.6078 172.508 90.7499 171.858 90.7499Z" fill="#5CC1FA"/>
<path d="M175.34 90.6647C175.284 90.6647 175.24 90.6476 175.206 90.6135C175.173 90.5794 175.156 90.534 175.156 90.4772V84.8863C175.156 84.8294 175.173 84.784 175.206 84.7499C175.24 84.7158 175.284 84.6988 175.34 84.6988H175.498C175.554 84.6988 175.598 84.7158 175.632 84.7499C175.665 84.784 175.682 84.8294 175.682 84.8863V90.4772C175.682 90.534 175.665 90.5794 175.632 90.6135C175.598 90.6476 175.554 90.6647 175.498 90.6647H175.34Z" fill="#5CC1FA"/>
<circle cx="78.5" cy="123.5" r="22" fill="white" stroke="#5CC1FA"/>
<circle cx="78.5001" cy="123.5" r="19.2857" fill="white" stroke="#5CC1FA" stroke-linecap="round" stroke-dasharray="2 4"/>
<path d="M78.2649 124.011C78.1754 124.011 78.0992 123.985 78.0366 123.933C77.9828 123.88 77.956 123.806 77.956 123.711V122.796C77.3292 122.744 76.7874 122.604 76.3307 122.378C75.883 122.142 75.5383 121.855 75.2965 121.515C75.0637 121.167 74.9383 120.796 74.9204 120.404C74.9204 120.335 74.9473 120.274 75.001 120.221C75.0547 120.169 75.1219 120.143 75.2025 120.143H75.8472C76.0173 120.143 76.1337 120.23 76.1964 120.404C76.277 120.77 76.5053 121.088 76.8814 121.358C77.2665 121.62 77.8127 121.75 78.5201 121.75C79.2812 121.75 79.8498 121.62 80.2259 121.358C80.602 121.097 80.7901 120.735 80.7901 120.274C80.7901 119.977 80.696 119.733 80.508 119.542C80.3289 119.35 80.0558 119.185 79.6887 119.045C79.3305 118.897 78.7887 118.719 78.0634 118.509C77.3739 118.318 76.8232 118.113 76.4113 117.895C75.9994 117.677 75.6905 117.412 75.4845 117.098C75.2786 116.776 75.1756 116.371 75.1756 115.883C75.1756 115.229 75.4219 114.68 75.9144 114.236C76.4069 113.792 77.0874 113.53 77.956 113.452V112.55C77.956 112.454 77.9828 112.38 78.0366 112.328C78.0992 112.276 78.1754 112.25 78.2649 112.25H78.7484C78.838 112.25 78.9096 112.28 78.9633 112.341C79.0171 112.394 79.0439 112.463 79.0439 112.55V113.465C79.617 113.535 80.1095 113.692 80.5214 113.936C80.9333 114.179 81.2423 114.467 81.4482 114.798C81.6631 115.12 81.7795 115.447 81.7974 115.778C81.7974 115.857 81.7706 115.922 81.7168 115.974C81.6631 116.026 81.596 116.053 81.5154 116.053H80.8438C80.7721 116.053 80.7005 116.031 80.6289 115.987C80.5662 115.944 80.5259 115.878 80.508 115.791C80.4543 115.417 80.2394 115.107 79.8633 114.863C79.4872 114.619 79.0171 114.497 78.4529 114.497C77.844 114.497 77.3605 114.615 77.0023 114.85C76.6441 115.077 76.4651 115.417 76.4651 115.87C76.4651 116.175 76.5456 116.423 76.7068 116.615C76.877 116.806 77.1322 116.976 77.4724 117.124C77.8217 117.272 78.3231 117.442 78.9768 117.634C79.7379 117.843 80.3379 118.052 80.7766 118.261C81.2154 118.47 81.5422 118.732 81.7571 119.045C81.972 119.35 82.0795 119.747 82.0795 120.234C82.0795 120.975 81.8064 121.572 81.2602 122.025C80.7229 122.478 79.9842 122.739 79.0439 122.809V123.711C79.0439 123.798 79.0171 123.867 78.9633 123.92C78.9096 123.981 78.838 124.011 78.7484 124.011H78.2649Z" fill="#5CC1FA"/>
<path d="M73.0482 134.75C72.3254 134.75 71.7832 134.543 71.4218 134.128C71.0603 133.707 70.8657 133.145 70.8379 132.44C70.8324 132.287 70.8296 132.037 70.8296 131.69C70.8296 131.338 70.8324 131.082 70.8379 130.923C70.8657 130.219 71.0603 129.659 71.4218 129.244C71.7832 128.824 72.3254 128.614 73.0482 128.614C73.5431 128.614 73.9546 128.707 74.2826 128.895C74.6107 129.077 74.8526 129.31 75.0083 129.594C75.1695 129.872 75.2585 130.159 75.2752 130.454V130.471C75.2752 130.517 75.2585 130.554 75.2251 130.582C75.1918 130.611 75.1501 130.625 75.1 130.625H74.9332C74.8331 130.625 74.772 130.565 74.7497 130.446C74.6441 129.963 74.4522 129.622 74.1742 129.423C73.8962 129.224 73.5209 129.125 73.0482 129.125C72.5255 129.125 72.1196 129.275 71.8305 129.577C71.5413 129.878 71.3856 130.341 71.3634 130.966C71.3578 131.119 71.3551 131.355 71.3551 131.673C71.3551 131.991 71.3578 132.233 71.3634 132.398C71.3856 133.023 71.5413 133.486 71.8305 133.787C72.1196 134.088 72.5255 134.239 73.0482 134.239C73.5209 134.239 73.8962 134.139 74.1742 133.94C74.4522 133.741 74.6441 133.4 74.7497 132.918C74.772 132.798 74.8331 132.739 74.9332 132.739H75.1C75.1501 132.739 75.1918 132.756 75.2251 132.79C75.2641 132.818 75.2807 132.858 75.2752 132.909C75.2585 133.204 75.1695 133.494 75.0083 133.778C74.8526 134.057 74.6107 134.29 74.2826 134.477C73.9546 134.659 73.5431 134.75 73.0482 134.75Z" fill="#5CC1FA"/>
<path d="M77.9639 134.665C77.9083 134.665 77.8639 134.648 77.8305 134.614C77.7971 134.579 77.7805 134.534 77.7805 134.477V129.21H76.129C76.0734 129.21 76.0289 129.193 75.9955 129.159C75.9622 129.125 75.9455 129.079 75.9455 129.023V128.895C75.9455 128.838 75.9622 128.793 75.9955 128.758C76.0289 128.719 76.0734 128.699 76.129 128.699H79.949C80.0102 128.699 80.0575 128.716 80.0908 128.75C80.1242 128.784 80.1409 128.832 80.1409 128.895V129.023C80.1409 129.079 80.1214 129.125 80.0825 129.159C80.0491 129.193 80.0046 129.21 79.949 129.21H78.3059V134.477C78.3059 134.534 78.2865 134.579 78.2475 134.614C78.2142 134.648 78.1697 134.665 78.1141 134.665H77.9639Z" fill="#5CC1FA"/>
<path d="M82.8579 134.75C82.4242 134.75 82.0461 134.679 81.7236 134.537C81.4066 134.389 81.162 134.199 80.9896 133.966C80.8228 133.733 80.7338 133.483 80.7227 133.216C80.7227 133.17 80.7394 133.131 80.7727 133.096C80.8061 133.062 80.8478 133.045 80.8979 133.045H81.0647C81.1648 133.045 81.2259 133.102 81.2482 133.216C81.2871 133.489 81.44 133.727 81.7069 133.932C81.9738 134.136 82.3575 134.239 82.8579 134.239C83.3862 134.239 83.7782 134.142 84.034 133.949C84.2953 133.75 84.426 133.474 84.426 133.122C84.426 132.906 84.362 132.73 84.2341 132.594C84.1118 132.452 83.9311 132.329 83.692 132.227C83.4529 132.119 83.0915 131.986 82.6077 131.827C82.1795 131.685 81.8431 131.545 81.5985 131.409C81.3594 131.273 81.1814 131.105 81.0647 130.906C80.9479 130.707 80.8895 130.454 80.8895 130.148C80.8895 129.858 80.9646 129.596 81.1147 129.364C81.2704 129.131 81.4928 128.949 81.782 128.818C82.0711 128.682 82.4159 128.614 82.8162 128.614C83.2277 128.614 83.5808 128.69 83.8755 128.844C84.1702 128.991 84.3926 129.182 84.5427 129.415C84.6929 129.642 84.7735 129.872 84.7846 130.105C84.7846 130.15 84.7679 130.19 84.7346 130.224C84.7068 130.258 84.6651 130.275 84.6095 130.275H84.4426C84.4037 130.275 84.3648 130.264 84.3259 130.241C84.287 130.213 84.2647 130.168 84.2592 130.105C84.2258 129.821 84.0757 129.588 83.8088 129.406C83.5474 129.219 83.2166 129.125 82.8162 129.125C82.3881 129.125 82.0461 129.21 81.7903 129.381C81.5401 129.551 81.415 129.807 81.415 130.148C81.415 130.369 81.4706 130.554 81.5818 130.702C81.6986 130.844 81.8709 130.969 82.0989 131.077C82.3269 131.179 82.6633 131.304 83.1081 131.452C83.5641 131.599 83.92 131.741 84.1757 131.878C84.4315 132.014 84.6234 132.179 84.7513 132.372C84.8847 132.565 84.9514 132.815 84.9514 133.122C84.9514 133.633 84.7652 134.034 84.3926 134.324C84.0201 134.608 83.5085 134.75 82.8579 134.75Z" fill="#5CC1FA"/>
<path d="M86.3399 134.665C86.2843 134.665 86.2398 134.648 86.2064 134.614C86.1731 134.579 86.1564 134.534 86.1564 134.477V128.886C86.1564 128.829 86.1731 128.784 86.2064 128.75C86.2398 128.716 86.2843 128.699 86.3399 128.699H86.4984C86.554 128.699 86.5985 128.716 86.6318 128.75C86.6652 128.784 86.6819 128.829 86.6819 128.886V134.477C86.6819 134.534 86.6652 134.579 86.6318 134.614C86.5985 134.648 86.554 134.665 86.4984 134.665H86.3399Z" fill="#5CC1FA"/>
<defs>
<filter id="filter0_d" x="0.248047" y="0.5" width="246.252" height="202.003" filterUnits="userSpaceOnUse" color-interpolation-filters="sRGB">
<feFlood flood-opacity="0" result="BackgroundImageFix"/>
<feColorMatrix in="SourceAlpha" type="matrix" values="0 0 0 0 0 0 0 0 0 0 0 0 0 0 0 0 0 0 127 0"/>
<feOffset/>
<feGaussianBlur stdDeviation="6"/>
<feColorMatrix type="matrix" values="0 0 0 0 0 0 0 0 0 0.93956 0 0 0 0 1 0 0 0 0.5 0"/>
<feBlend mode="normal" in2="BackgroundImageFix" result="effect1_dropShadow"/>
<feBlend mode="normal" in="SourceGraphic" in2="effect1_dropShadow" result="shape"/>
</filter>
</defs>
</svg>
