<svg width="248" height="204" viewBox="0 0 248 204" fill="none" xmlns="http://www.w3.org/2000/svg">
<g opacity="0.2" filter="url(#filter0_d)">
<rect x="12.9331" y="146.5" width="44.4999" height="44.4999" stroke="black" stroke-opacity="0.15"/>
<rect x="57.4333" y="146.5" width="44.4999" height="44.4999" stroke="black" stroke-opacity="0.15"/>
<rect x="101.933" y="146.5" width="44.4999" height="44.4999" stroke="black" stroke-opacity="0.15"/>
<rect x="12.9331" y="101.999" width="44.4999" height="44.4999" stroke="black" stroke-opacity="0.15"/>
<rect x="57.4333" y="101.999" width="44.4999" height="44.4999" stroke="black" stroke-opacity="0.15"/>
<rect x="101.933" y="101.999" width="44.4999" height="44.4999" stroke="black" stroke-opacity="0.15"/>
<rect x="12.9331" y="57.499" width="44.4999" height="44.4999" stroke="black" stroke-opacity="0.15"/>
<rect x="57.4333" y="57.499" width="44.4999" height="44.4999" stroke="black" stroke-opacity="0.15"/>
<rect x="101.933" y="57.499" width="44.4999" height="44.4999" stroke="black" stroke-opacity="0.15"/>
<rect x="12.9333" y="13" width="44.4999" height="44.4999" stroke="black" stroke-opacity="0.15"/>
<rect x="57.4333" y="13" width="44.4999" height="44.4999" stroke="black" stroke-opacity="0.15"/>
<rect x="101.933" y="13" width="44.4999" height="44.4999" stroke="black" stroke-opacity="0.15"/>
<rect x="146.433" y="146.5" width="44.4999" height="44.4999" stroke="black" stroke-opacity="0.15"/>
<rect x="146.433" y="101.999" width="44.4999" height="44.4999" stroke="black" stroke-opacity="0.15"/>
<rect x="146.433" y="57.499" width="44.4999" height="44.4999" stroke="black" stroke-opacity="0.15"/>
<rect x="146.433" y="13" width="44.4999" height="44.4999" stroke="black" stroke-opacity="0.15"/>
<rect x="190.933" y="146.5" width="44.4999" height="44.4999" stroke="black" stroke-opacity="0.15"/>
<rect x="190.933" y="101.999" width="44.4999" height="44.4999" stroke="black" stroke-opacity="0.15"/>
<rect x="190.933" y="57.499" width="44.4999" height="44.4999" stroke="black" stroke-opacity="0.15"/>
<rect x="190.933" y="13" width="44.4999" height="44.4999" stroke="black" stroke-opacity="0.15"/>
</g>
<path d="M235.433 106.68H101.408L83.9262 91.1406H14L36.8231 114.449H235.433V106.68Z" fill="white" stroke="#5CC1FA"/>
<path d="M235.433 114.45H36.8231L44.5927 122.219H235.433V114.45Z" fill="white" stroke="#5CC1FA"/>
<path d="M235.433 122.219H44.5927L70.815 146.499H228.149V133.874L235.433 129.989V122.219Z" fill="white" stroke="#5CC1FA"/>
<rect width="15.5391" height="11.6544" transform="matrix(-1 0 0 1 74.2146 79.4871)" fill="white" stroke="#5CC1FA"/>
<rect width="15.3087" height="12.247" transform="matrix(-1 0 0 1 155.827 94.45)" fill="white" stroke="#5CC1FA"/>
<rect width="15.3087" height="12.247" transform="matrix(-1 0 0 1 171.136 94.45)" fill="white" stroke="#5CC1FA"/>
<rect width="27.5557" height="38.2718" transform="matrix(-1 0 0 1 214 68.4248)" fill="white" stroke="#5CC1FA"/>
<rect width="15.5391" height="11.6544" transform="matrix(-1 0 0 1 66.4448 67.8323)" fill="white" stroke="#5CC1FA"/>
<rect width="15.3087" height="13.7779" transform="matrix(-1 0 0 1 148.173 80.6721)" fill="white" stroke="#5CC1FA"/>
<rect width="15.3087" height="13.7779" transform="matrix(-1 0 0 1 163.482 80.6721)" fill="white" stroke="#5CC1FA"/>
<rect width="15.5391" height="11.6544" transform="matrix(-1 0 0 1 58.675 79.4871)" fill="white" stroke="#5CC1FA"/>
<rect width="15.3087" height="12.247" transform="matrix(-1 0 0 1 140.518 94.45)" fill="white" stroke="#5CC1FA"/>
<rect width="15.5391" height="11.6544" transform="matrix(-1 0 0 1 50.9058 67.8323)" fill="white" stroke="#5CC1FA"/>
<rect width="15.3087" height="13.7779" transform="matrix(-1 0 0 1 132.864 80.6721)" fill="white" stroke="#5CC1FA"/>
<rect width="15.5391" height="11.6544" transform="matrix(-1 0 0 1 58.675 56.1777)" fill="white" stroke="#5CC1FA"/>
<rect width="15.3087" height="12.247" transform="matrix(-1 0 0 1 140.518 68.4248)" fill="white" stroke="#5CC1FA"/>
<rect width="15.3087" height="12.247" transform="matrix(-1 0 0 1 155.827 68.4248)" fill="white" stroke="#5CC1FA"/>
<rect width="13.3809" height="6.69047" transform="matrix(-1 0 0 1 206.998 77.9224)" fill="white" stroke="#5CC1FA"/>
<rect width="15.5391" height="11.6544" transform="matrix(-1 0 0 1 43.1362 79.4871)" fill="white" stroke="#5CC1FA"/>
<rect width="15.3087" height="12.247" transform="matrix(-1 0 0 1 125.21 94.45)" fill="white" stroke="#5CC1FA"/>
<line y1="-0.5" x2="11.6544" y2="-0.5" transform="matrix(5.66629e-08 -1 -1 -3.37202e-08 198.743 67.832)" stroke="#5CC1FA"/>
<line y1="-0.5" x2="13.5968" y2="-0.5" transform="matrix(-1 0 0 1 206.297 56.1785)" stroke="#5CC1FA"/>
<line y1="-0.5" x2="13.5968" y2="-0.5" transform="matrix(-1 0 0 1 206.297 60.8394)" stroke="#5CC1FA"/>
<defs>
<filter id="filter0_d" x="0.433105" y="0.5" width="247.5" height="203" filterUnits="userSpaceOnUse" color-interpolation-filters="sRGB">
<feFlood flood-opacity="0" result="BackgroundImageFix"/>
<feColorMatrix in="SourceAlpha" type="matrix" values="0 0 0 0 0 0 0 0 0 0 0 0 0 0 0 0 0 0 127 0"/>
<feOffset/>
<feGaussianBlur stdDeviation="6"/>
<feColorMatrix type="matrix" values="0 0 0 0 0 0 0 0 0 0.93956 0 0 0 0 1 0 0 0 0.5 0"/>
<feBlend mode="normal" in2="BackgroundImageFix" result="effect1_dropShadow"/>
<feBlend mode="normal" in="SourceGraphic" in2="effect1_dropShadow" result="shape"/>
</filter>
</defs>
</svg>
