<svg width="247" height="203" viewBox="0 0 247 203" fill="none" xmlns="http://www.w3.org/2000/svg">
<g opacity="0.2" filter="url(#filter0_d)">
<rect x="13" y="145.601" width="44.2" height="44.2" stroke="black" stroke-opacity="0.15"/>
<rect x="57.2002" y="145.601" width="44.2" height="44.2" stroke="black" stroke-opacity="0.15"/>
<rect x="101.4" y="145.601" width="44.2" height="44.2" stroke="black" stroke-opacity="0.15"/>
<rect x="13" y="101.4" width="44.2" height="44.2" stroke="black" stroke-opacity="0.15"/>
<rect x="57.2002" y="101.4" width="44.2" height="44.2" stroke="black" stroke-opacity="0.15"/>
<rect x="101.4" y="101.4" width="44.2" height="44.2" stroke="black" stroke-opacity="0.15"/>
<rect x="13" y="57.1997" width="44.2" height="44.2" stroke="black" stroke-opacity="0.15"/>
<rect x="57.2002" y="57.1997" width="44.2" height="44.2" stroke="black" stroke-opacity="0.15"/>
<rect x="101.4" y="57.1997" width="44.2" height="44.2" stroke="black" stroke-opacity="0.15"/>
<rect x="13" y="13" width="44.2" height="44.2" stroke="black" stroke-opacity="0.15"/>
<rect x="57.2002" y="13.0005" width="44.2" height="44.2" stroke="black" stroke-opacity="0.15"/>
<rect x="101.4" y="13.0005" width="44.2" height="44.2" stroke="black" stroke-opacity="0.15"/>
<rect x="145.6" y="145.601" width="44.2" height="44.2" stroke="black" stroke-opacity="0.15"/>
<rect x="145.6" y="101.4" width="44.2" height="44.2" stroke="black" stroke-opacity="0.15"/>
<rect x="145.6" y="57.1997" width="44.2" height="44.2" stroke="black" stroke-opacity="0.15"/>
<rect x="145.6" y="13.0005" width="44.2" height="44.2" stroke="black" stroke-opacity="0.15"/>
<rect x="189.8" y="145.601" width="44.2" height="44.2" stroke="black" stroke-opacity="0.15"/>
<rect x="189.8" y="101.4" width="44.2" height="44.2" stroke="black" stroke-opacity="0.15"/>
<rect x="189.8" y="57.1997" width="44.2" height="44.2" stroke="black" stroke-opacity="0.15"/>
<rect x="189.8" y="13.0005" width="44.2" height="44.2" stroke="black" stroke-opacity="0.15"/>
</g>
<rect x="56.7854" y="57.2842" width="44.4323" height="44.4323" fill="white" stroke="#5CC1FA"/>
<line x1="65.0608" y1="58.1094" x2="65.0608" y2="50.1587" stroke="#5CC1FA"/>
<line x1="72.6326" y1="58.1094" x2="72.6326" y2="50.1587" stroke="#5CC1FA"/>
<line x1="80.2048" y1="58.1094" x2="80.2048" y2="50.1587" stroke="#5CC1FA"/>
<line x1="87.7769" y1="58.1094" x2="87.7769" y2="50.1587" stroke="#5CC1FA"/>
<line x1="95.3491" y1="58.1094" x2="95.3491" y2="50.1587" stroke="#5CC1FA"/>
<line x1="65.061" y1="109.789" x2="65.061" y2="101.839" stroke="#5CC1FA"/>
<path d="M72.2699 101.839L72.2698 134.271L90.7112 134.271" stroke="#5CC1FA"/>
<line x1="80.2051" y1="109.789" x2="80.2051" y2="101.839" stroke="#5CC1FA"/>
<line x1="87.7773" y1="109.789" x2="87.7773" y2="101.839" stroke="#5CC1FA"/>
<line x1="95.3496" y1="109.789" x2="95.3496" y2="101.839" stroke="#5CC1FA"/>
<line x1="57.6104" y1="94.8611" x2="49.6597" y2="94.8611" stroke="#5CC1FA"/>
<line x1="57.6104" y1="87.2869" x2="49.6597" y2="87.2869" stroke="#5CC1FA"/>
<line x1="57.6104" y1="79.7156" x2="49.6597" y2="79.7156" stroke="#5CC1FA"/>
<line x1="57.6104" y1="72.1416" x2="49.6597" y2="72.1416" stroke="#5CC1FA"/>
<line x1="57.6104" y1="64.5728" x2="49.6597" y2="64.5728" stroke="#5CC1FA"/>
<line x1="109.668" y1="94.8611" x2="101.718" y2="94.8611" stroke="#5CC1FA"/>
<line x1="109.668" y1="87.2869" x2="101.718" y2="87.2869" stroke="#5CC1FA"/>
<line x1="109.668" y1="79.7156" x2="101.718" y2="79.7156" stroke="#5CC1FA"/>
<line x1="109.668" y1="72.1416" x2="101.718" y2="72.1416" stroke="#5CC1FA"/>
<line x1="109.668" y1="64.5728" x2="101.718" y2="64.5728" stroke="#5CC1FA"/>
<rect x="144.821" y="101.487" width="44.4323" height="44.4323" fill="white" stroke="#5CC1FA"/>
<line x1="153.097" y1="102.312" x2="153.097" y2="94.3616" stroke="#5CC1FA"/>
<line x1="160.669" y1="102.312" x2="160.669" y2="94.3616" stroke="#5CC1FA"/>
<line x1="168.241" y1="102.312" x2="168.241" y2="94.3616" stroke="#5CC1FA"/>
<line x1="175.813" y1="102.312" x2="175.813" y2="94.3616" stroke="#5CC1FA"/>
<line x1="183.385" y1="102.312" x2="183.385" y2="94.3616" stroke="#5CC1FA"/>
<line x1="153.097" y1="153.992" x2="153.097" y2="146.041" stroke="#5CC1FA"/>
<line x1="160.669" y1="153.992" x2="160.669" y2="146.041" stroke="#5CC1FA"/>
<line x1="168.241" y1="153.992" x2="168.241" y2="146.041" stroke="#5CC1FA"/>
<line x1="175.813" y1="153.992" x2="175.813" y2="146.041" stroke="#5CC1FA"/>
<line x1="183.385" y1="153.992" x2="183.385" y2="146.041" stroke="#5CC1FA"/>
<line x1="145.646" y1="139.064" x2="137.695" y2="139.064" stroke="#5CC1FA"/>
<path d="M144.482 124.095L127.427 124.095L127.427 134.991L112.267 134.991" stroke="#5CC1FA"/>
<line x1="145.646" y1="130.825" x2="137.695" y2="130.825" stroke="#5CC1FA"/>
<line x1="145.646" y1="116.345" x2="137.695" y2="116.345" stroke="#5CC1FA"/>
<line x1="145.646" y1="108.776" x2="137.695" y2="108.776" stroke="#5CC1FA"/>
<line x1="197.704" y1="139.064" x2="189.753" y2="139.064" stroke="#5CC1FA"/>
<line x1="197.704" y1="131.49" x2="189.753" y2="131.49" stroke="#5CC1FA"/>
<line x1="197.704" y1="123.918" x2="189.753" y2="123.918" stroke="#5CC1FA"/>
<line x1="197.704" y1="116.345" x2="189.753" y2="116.345" stroke="#5CC1FA"/>
<line x1="197.704" y1="108.776" x2="189.753" y2="108.776" stroke="#5CC1FA"/>
<circle cx="101.639" cy="134.381" r="19.1109" fill="white" stroke="#5CC1FA"/>
<path d="M95.5876 125.946H107.182V133.761L104.652 138.053H98.1172L95.5876 133.761V125.946Z" fill="white" stroke="#5CC1FA"/>
<path d="M106.76 145.208L96.0087 145.208L96.0087 143.516L98.3544 142.016L104.414 142.016L106.76 143.516L106.76 145.208Z" fill="white" stroke="#5CC1FA"/>
<path d="M107.316 127.432H111.11V128.205C111.11 130.301 109.411 132 107.316 132V132V127.432Z" stroke="#5CC1FA"/>
<path d="M95.4534 127.432H91.659V128.205C91.659 130.301 93.3578 132 95.4534 132V132V127.432Z" stroke="#5CC1FA"/>
<path d="M101.385 137.764V142.222" stroke="#5CC1FA"/>
<defs>
<filter id="filter0_d" x="0.5" y="0.5" width="246" height="201.801" filterUnits="userSpaceOnUse" color-interpolation-filters="sRGB">
<feFlood flood-opacity="0" result="BackgroundImageFix"/>
<feColorMatrix in="SourceAlpha" type="matrix" values="0 0 0 0 0 0 0 0 0 0 0 0 0 0 0 0 0 0 127 0"/>
<feOffset/>
<feGaussianBlur stdDeviation="6"/>
<feColorMatrix type="matrix" values="0 0 0 0 0 0 0 0 0 0.93956 0 0 0 0 1 0 0 0 0.5 0"/>
<feBlend mode="normal" in2="BackgroundImageFix" result="effect1_dropShadow"/>
<feBlend mode="normal" in="SourceGraphic" in2="effect1_dropShadow" result="shape"/>
</filter>
</defs>
</svg>
