<svg width="249" height="204" viewBox="0 0 249 204" fill="none" xmlns="http://www.w3.org/2000/svg">
<g opacity="0.2" filter="url(#filter0_d)">
<rect x="13" y="146.801" width="44.6" height="44.6" stroke="black" stroke-opacity="0.15"/>
<rect x="57.6003" y="146.801" width="44.6" height="44.6" stroke="black" stroke-opacity="0.15"/>
<rect x="102.2" y="146.801" width="44.6" height="44.6" stroke="black" stroke-opacity="0.15"/>
<rect x="13" y="102.199" width="44.6" height="44.6" stroke="black" stroke-opacity="0.15"/>
<rect x="57.6003" y="102.199" width="44.6" height="44.6" stroke="black" stroke-opacity="0.15"/>
<rect x="102.2" y="102.199" width="44.6" height="44.6" stroke="black" stroke-opacity="0.15"/>
<rect x="13" y="57.5989" width="44.6" height="44.6" stroke="black" stroke-opacity="0.15"/>
<rect x="57.6003" y="57.5989" width="44.6" height="44.6" stroke="black" stroke-opacity="0.15"/>
<rect x="102.2" y="57.5989" width="44.6" height="44.6" stroke="black" stroke-opacity="0.15"/>
<rect x="13" y="13" width="44.6" height="44.6" stroke="black" stroke-opacity="0.15"/>
<rect x="57.6003" y="13" width="44.6" height="44.6" stroke="black" stroke-opacity="0.15"/>
<rect x="102.2" y="13" width="44.6" height="44.6" stroke="black" stroke-opacity="0.15"/>
<rect x="146.8" y="146.801" width="44.6" height="44.6" stroke="black" stroke-opacity="0.15"/>
<rect x="146.8" y="102.199" width="44.6" height="44.6" stroke="black" stroke-opacity="0.15"/>
<rect x="146.8" y="57.5989" width="44.6" height="44.6" stroke="black" stroke-opacity="0.15"/>
<rect x="146.8" y="13" width="44.6" height="44.6" stroke="black" stroke-opacity="0.15"/>
<rect x="191.4" y="146.801" width="44.6" height="44.6" stroke="black" stroke-opacity="0.15"/>
<rect x="191.4" y="102.199" width="44.6" height="44.6" stroke="black" stroke-opacity="0.15"/>
<rect x="191.4" y="57.5989" width="44.6" height="44.6" stroke="black" stroke-opacity="0.15"/>
<rect x="191.4" y="13" width="44.6" height="44.6" stroke="black" stroke-opacity="0.15"/>
</g>
<rect x="148.439" y="122.856" width="74.8837" height="9.93504" transform="rotate(-49.6071 148.439 122.856)" fill="white" stroke="#5CC1FA"/>
<rect x="0.666453" y="-0.236306" width="75.5453" height="8.11939" transform="matrix(0.902759 0.430146 0.430146 -0.902759 69.8505 97.469)" fill="white" stroke="#5CC1FA"/>
<rect x="26.366" y="129.874" width="64.6102" height="5.34194" transform="rotate(-45 26.366 129.874)" fill="white" stroke="#5CC1FA"/>
<circle cx="203.576" cy="65.4895" r="20.0032" fill="white" stroke="#5CC1FA"/>
<circle cx="150.307" cy="130.975" r="15.9026" fill="white" stroke="#5CC1FA"/>
<circle cx="70.0968" cy="90.7623" r="13.1688" fill="white" stroke="#5CC1FA"/>
<circle cx="28.3926" cy="132.244" r="10.435" fill="white" stroke="#5CC1FA"/>
<defs>
<filter id="filter0_d" x="0.5" y="0.5" width="248" height="203.401" filterUnits="userSpaceOnUse" color-interpolation-filters="sRGB">
<feFlood flood-opacity="0" result="BackgroundImageFix"/>
<feColorMatrix in="SourceAlpha" type="matrix" values="0 0 0 0 0 0 0 0 0 0 0 0 0 0 0 0 0 0 127 0"/>
<feOffset/>
<feGaussianBlur stdDeviation="6"/>
<feColorMatrix type="matrix" values="0 0 0 0 0 0 0 0 0 0.93956 0 0 0 0 1 0 0 0 0.5 0"/>
<feBlend mode="normal" in2="BackgroundImageFix" result="effect1_dropShadow"/>
<feBlend mode="normal" in="SourceGraphic" in2="effect1_dropShadow" result="shape"/>
</filter>
</defs>
</svg>
