<svg width="249" height="204" viewBox="0 0 249 204" fill="none" xmlns="http://www.w3.org/2000/svg">
<g opacity="0.2" filter="url(#filter0_d)">
<rect x="13.0283" y="146.783" width="44.5944" height="44.5944" stroke="black" stroke-opacity="0.15"/>
<rect x="57.6228" y="146.783" width="44.5944" height="44.5944" stroke="black" stroke-opacity="0.15"/>
<rect x="102.217" y="146.783" width="44.5944" height="44.5944" stroke="black" stroke-opacity="0.15"/>
<rect x="13.0283" y="102.188" width="44.5944" height="44.5944" stroke="black" stroke-opacity="0.15"/>
<rect x="57.6228" y="102.188" width="44.5944" height="44.5944" stroke="black" stroke-opacity="0.15"/>
<rect x="102.217" y="102.188" width="44.5944" height="44.5944" stroke="black" stroke-opacity="0.15"/>
<rect x="13.0283" y="57.5935" width="44.5944" height="44.5944" stroke="black" stroke-opacity="0.15"/>
<rect x="57.6228" y="57.5935" width="44.5944" height="44.5944" stroke="black" stroke-opacity="0.15"/>
<rect x="102.217" y="57.5935" width="44.5944" height="44.5944" stroke="black" stroke-opacity="0.15"/>
<rect x="13.0283" y="13.0007" width="44.5944" height="44.5944" stroke="black" stroke-opacity="0.15"/>
<rect x="57.6228" y="13" width="44.5944" height="44.5944" stroke="black" stroke-opacity="0.15"/>
<rect x="102.217" y="13" width="44.5944" height="44.5944" stroke="black" stroke-opacity="0.15"/>
<rect x="146.811" y="146.783" width="44.5944" height="44.5944" stroke="black" stroke-opacity="0.15"/>
<rect x="146.811" y="102.188" width="44.5944" height="44.5944" stroke="black" stroke-opacity="0.15"/>
<rect x="146.811" y="57.5935" width="44.5944" height="44.5944" stroke="black" stroke-opacity="0.15"/>
<rect x="146.811" y="13" width="44.5944" height="44.5944" stroke="black" stroke-opacity="0.15"/>
<rect x="191.406" y="146.783" width="44.5944" height="44.5944" stroke="black" stroke-opacity="0.15"/>
<rect x="191.406" y="102.188" width="44.5944" height="44.5944" stroke="black" stroke-opacity="0.15"/>
<rect x="191.406" y="57.5935" width="44.5944" height="44.5944" stroke="black" stroke-opacity="0.15"/>
<rect x="191.406" y="13" width="44.5944" height="44.5944" stroke="black" stroke-opacity="0.15"/>
</g>
<rect x="58" y="56.7517" width="132.672" height="90.032" fill="white" stroke="#5CC1FA"/>
<path d="M121.166 136.321L124.192 133L125.438 136.33" stroke="#5CC1FA" stroke-miterlimit="10" stroke-linecap="round" stroke-linejoin="round"/>
<path d="M125.396 141.068L123.628 143L122.382 139.667" stroke="#5CC1FA" stroke-miterlimit="10" stroke-linecap="round" stroke-linejoin="round"/>
<path d="M126.681 139.667L125.396 141.068" stroke="#5CC1FA" stroke-miterlimit="10" stroke-linecap="round"/>
<path d="M125.432 136.33H127.605L128.851 139.667H124.548L123.302 136.33H119L120.246 139.667H122.382" stroke="#5CC1FA" stroke-miterlimit="10" stroke-linecap="round" stroke-linejoin="round"/>
<path d="M125.435 136.33L122.379 139.667" stroke="#5CC1FA" stroke-miterlimit="10" stroke-linecap="round"/>
<rect x="102" y="147" width="45" height="11" fill="white" stroke="#5CC1FA"/>
<rect x="89.5625" y="158.168" width="67.008" height="5.36064" fill="white" stroke="#5CC1FA"/>
<rect x="58.0366" y="56.7517" width="132.672" height="73.2846" fill="white" stroke="#5CC1FA"/>
<path d="M129.248 85.9L128.999 86.0809L122.188 91.0337L122.188 91.0338C121.875 91.2605 121.806 91.6986 122.034 92.0107L122.034 92.0111C122.17 92.1997 122.383 92.2992 122.601 92.2992C122.743 92.2992 122.887 92.2554 123.012 92.1654C123.012 92.1654 123.012 92.1653 123.012 92.1652L132.59 85.2L123.012 78.2338L129.248 85.9ZM129.248 85.9H128.94M129.248 85.9H128.94M128.94 85.9H119.4C114.493 85.9 110.5 89.8928 110.5 94.8C110.5 95.1872 110.187 95.5 109.8 95.5C109.413 95.5 109.1 95.1872 109.1 94.8C109.1 89.1208 113.721 84.5 119.4 84.5H128.94H129.247L128.999 84.3192L122.189 79.3656L122.189 79.3654C121.876 79.1387 121.807 78.7007 122.034 78.3885L122.035 78.3881M128.94 85.9L122.035 78.3881M122.035 78.3881C122.26 78.075 122.698 78.006 123.012 78.2337L122.035 78.3881Z" fill="#5CC1FA" stroke="white" stroke-width="0.2"/>
<path d="M101.1 94C101.1 80.8216 111.822 70.1 125 70.1C138.178 70.1 148.9 80.8216 148.9 94C148.9 107.178 138.178 117.9 125 117.9C111.822 117.9 101.1 107.178 101.1 94ZM102.5 94C102.5 106.406 112.594 116.5 125 116.5C137.406 116.5 147.5 106.406 147.5 94C147.5 81.5936 137.406 71.5 125 71.5C112.594 71.5 102.5 81.5936 102.5 94Z" fill="#5CC1FA" stroke="white" stroke-width="0.2"/>
<path d="M119.952 102.1L120.201 101.919L127.012 96.9662L127.012 96.9661C127.324 96.7394 127.394 96.3013 127.166 95.9892L127.166 95.989C126.939 95.6762 126.502 95.6068 126.189 95.8344L116.61 102.8L126.188 109.766L119.952 102.1ZM119.952 102.1H120.26M119.952 102.1H120.26M127.247 109.67L127.166 109.611C127.029 109.8 126.816 109.9 126.599 109.9C126.456 109.9 126.313 109.857 126.188 109.766L127.247 109.67ZM127.247 109.67L127.166 109.611C127.394 109.299 127.325 108.861 127.012 108.635L127.012 108.634L120.201 103.681L119.952 103.5H120.26H129.8C135.479 103.5 140.1 98.8791 140.1 93.1999C140.1 92.8127 139.787 92.4999 139.4 92.4999C139.013 92.4999 138.7 92.8127 138.7 93.1999C138.7 98.1071 134.707 102.1 129.8 102.1H120.26M127.247 109.67L120.26 102.1" fill="#5CC1FA" stroke="white" stroke-width="0.2"/>
<defs>
<filter id="filter0_d" x="0.52832" y="0.5" width="247.972" height="203.378" filterUnits="userSpaceOnUse" color-interpolation-filters="sRGB">
<feFlood flood-opacity="0" result="BackgroundImageFix"/>
<feColorMatrix in="SourceAlpha" type="matrix" values="0 0 0 0 0 0 0 0 0 0 0 0 0 0 0 0 0 0 127 0"/>
<feOffset/>
<feGaussianBlur stdDeviation="6"/>
<feColorMatrix type="matrix" values="0 0 0 0 0 0 0 0 0 0.93956 0 0 0 0 1 0 0 0 0.5 0"/>
<feBlend mode="normal" in2="BackgroundImageFix" result="effect1_dropShadow"/>
<feBlend mode="normal" in="SourceGraphic" in2="effect1_dropShadow" result="shape"/>
</filter>
</defs>
</svg>
