<svg width="587" height="982" viewBox="0 0 587 982" fill="none" xmlns="http://www.w3.org/2000/svg">
<path d="M476.799 777.499C515.625 812.617 518.63 872.561 483.512 911.387C448.394 950.213 388.45 953.219 349.624 918.1C310.798 882.982 307.792 823.038 342.91 784.212C378.029 745.386 437.972 742.381 476.799 777.499Z" fill="url(#paint0_linear)"/>
<path d="M224.953 374.583C181.724 394.589 128.869 388.244 91.317 354.278C41.166 308.916 37.2838 231.494 82.6455 181.343C128.007 131.192 205.43 127.31 255.581 172.671C264.015 180.3 271.135 188.831 276.929 197.995C324.207 269.472 383.75 302.821 498.49 227.772L426.924 470.077C371.426 344.82 303.4 340.36 224.953 374.583Z" fill="url(#paint1_linear)"/>
<path fill-rule="evenodd" clip-rule="evenodd" d="M665.713 593.889C591.533 616.311 588.024 626.004 568.11 659.254C564.59 665.286 560.407 671.047 555.532 676.437C517.569 718.408 452.763 721.658 410.791 683.695C373.296 649.78 366.734 594.451 392.819 553.111L392.809 553.102C414.281 518.984 421.635 512.444 407.525 433.222C396.874 373.133 413.104 308.933 457.204 260.177C532.978 176.403 662.329 169.908 746.112 245.69C829.885 321.464 836.38 450.814 760.598 534.597C734.098 563.877 701.061 583.714 665.713 593.889Z" fill="url(#paint2_linear)"/>
<path fill-rule="evenodd" clip-rule="evenodd" d="M808.271 443.174C775.192 455.367 747.505 475.503 700.822 509.707C635.873 558.897 543.118 556.621 480.472 499.957C409.608 435.861 404.122 326.458 468.219 255.594C492.4 228.86 523.03 211.437 555.595 203.543C570.118 199.837 583.076 196.516 594.88 193.315C648.366 189.644 703.205 206.865 746.11 245.672C803.009 297.155 824.236 373.338 808.271 443.174Z" fill="url(#paint3_linear)"/>
<path d="M394.92 91.7986C420.223 91.7986 440.735 71.2865 440.735 45.9835C440.735 20.6806 420.223 0.168457 394.92 0.168457C369.617 0.168457 349.105 20.6806 349.105 45.9835C349.105 71.2865 369.617 91.7986 394.92 91.7986Z" fill="url(#paint4_linear)"/>
<defs>
<linearGradient id="paint0_linear" x1="413.383" y1="954.763" x2="239.696" y2="815.266" gradientUnits="userSpaceOnUse">
<stop stop-color="#F1F1F1"/>
<stop offset="0.880208" stop-color="white"/>
</linearGradient>
<linearGradient id="paint1_linear" x1="167.015" y1="422.747" x2="413.171" y2="150.601" gradientUnits="userSpaceOnUse">
<stop stop-color="#F1F1F1"/>
<stop offset="0.880208" stop-color="white"/>
</linearGradient>
<linearGradient id="paint2_linear" x1="294.401" y1="273.691" x2="561.085" y2="774.238" gradientUnits="userSpaceOnUse">
<stop stop-color="#F1F1F1"/>
<stop offset="0.880208" stop-color="white"/>
</linearGradient>
<linearGradient id="paint3_linear" x1="633.569" y1="284.632" x2="332.694" y2="719.533" gradientUnits="userSpaceOnUse">
<stop stop-color="#F1F1F1"/>
<stop offset="0.43177" stop-color="white"/>
<stop offset="0.880208" stop-color="white"/>
</linearGradient>
<linearGradient id="paint4_linear" x1="394.92" y1="0.168457" x2="394.92" y2="91.7986" gradientUnits="userSpaceOnUse">
<stop stop-color="#EDEDED"/>
<stop offset="1" stop-color="white"/>
</linearGradient>
</defs>
</svg>
