<svg width="39" height="39" viewBox="0 0 39 39" fill="none" xmlns="http://www.w3.org/2000/svg">
<path fill-rule="evenodd" clip-rule="evenodd" d="M23.7246 22.8124V17.394C23.7246 15.2431 21.9844 13.4994 19.8378 13.4994C17.6912 13.4994 15.951 15.2431 15.951 17.394V22.8124C15.951 24.9633 17.6912 26.7069 19.8378 26.7069C21.9844 26.7069 23.7246 24.9633 23.7246 22.8124ZM19.8378 12.4835C17.1312 12.4835 14.937 14.682 14.937 17.394V22.8124C14.937 25.5244 17.1312 27.7229 19.8378 27.7229C22.5444 27.7229 24.7385 25.5244 24.7385 22.8124V17.394C24.7385 14.682 22.5444 12.4835 19.8378 12.4835Z" fill="black"/>
<path fill-rule="evenodd" clip-rule="evenodd" d="M26.2903 12.8221L29.0369 15.4933C29.2052 15.6569 29.2052 15.9223 29.0369 16.0859C28.8687 16.2496 28.5958 16.2496 28.4275 16.0859L26.2903 14.0075L24.1531 16.0859C23.9848 16.2496 23.7119 16.2496 23.5436 16.0859C23.3754 15.9223 23.3754 15.6569 23.5436 15.4933L26.2903 12.8221Z" fill="black"/>
<path fill-rule="evenodd" clip-rule="evenodd" d="M20.7677 8.42627L23.2502 8.55039C23.5298 8.56437 23.7452 8.80285 23.7312 9.08305C23.7173 9.36325 23.4793 9.57906 23.1996 9.56508L21.6173 9.48597L21.3534 11.0512C21.3067 11.3278 21.0451 11.5142 20.769 11.4675C20.493 11.4207 20.307 11.1586 20.3536 10.882L20.7677 8.42627Z" fill="black"/>
<path fill-rule="evenodd" clip-rule="evenodd" d="M18.1946 8.45781L19.1666 10.75C19.2761 11.0082 19.156 11.3064 18.8983 11.4162C18.6406 11.5259 18.3429 11.4055 18.2334 11.1473L17.6139 9.68627L16.0932 10.1315C15.8244 10.2102 15.5429 10.0556 15.4643 9.78635C15.3858 9.51706 15.54 9.23498 15.8088 9.15629L18.1946 8.45781Z" fill="black"/>
<path fill-rule="evenodd" clip-rule="evenodd" d="M26.3814 23.8162L27.9592 26.4458C28.1035 26.6862 28.0259 26.9983 27.7859 27.1429C27.546 27.2874 27.2345 27.2097 27.0902 26.9693L25.9477 25.0652L23.8726 25.8479C23.6106 25.9467 23.3182 25.8139 23.2195 25.5514C23.1209 25.2888 23.2534 24.9958 23.5154 24.897L26.3814 23.8162Z" fill="black"/>
<path fill-rule="evenodd" clip-rule="evenodd" d="M13.2417 23.9076L16.1469 24.8775C16.4125 24.9662 16.5561 25.2539 16.4676 25.52C16.3791 25.7862 16.092 25.9301 15.8264 25.8414L13.7228 25.1391L12.6541 27.0856C12.5191 27.3314 12.2108 27.4211 11.9655 27.2858C11.7202 27.1506 11.6307 26.8417 11.7657 26.5959L13.2417 23.9076Z" fill="black"/>
<path fill-rule="evenodd" clip-rule="evenodd" d="M13.1239 12.9059L16.0321 15.5771C16.2103 15.7407 16.2103 16.0061 16.0321 16.1697C15.854 16.3334 15.5651 16.3334 15.3869 16.1697L13.1239 14.0913L10.861 16.1697C10.6828 16.3334 10.3939 16.3334 10.2157 16.1697C10.0375 16.0061 10.0375 15.7407 10.2157 15.5771L13.1239 12.9059Z" fill="black"/>
<path fill-rule="evenodd" clip-rule="evenodd" d="M23.7246 20.1032C23.7246 19.8226 23.8596 19.5952 24.026 19.5952H27.141C27.3075 19.5952 27.4424 19.8226 27.4424 20.1032C27.4424 20.3837 27.3075 20.6112 27.141 20.6112H24.026C23.8596 20.6112 23.7246 20.3837 23.7246 20.1032Z" fill="black"/>
<path fill-rule="evenodd" clip-rule="evenodd" d="M12.2332 20.1032C12.2332 19.8226 12.3681 19.5952 12.5346 19.5952H15.6495C15.816 19.5952 15.951 19.8226 15.951 20.1032C15.951 20.3837 15.816 20.6112 15.6495 20.6112H12.5346C12.3681 20.6112 12.2332 20.3837 12.2332 20.1032Z" fill="black"/>
<path fill-rule="evenodd" clip-rule="evenodd" d="M21.5277 11.4675H17.8099C17.7166 11.4675 17.6409 11.5433 17.6409 11.6369V12.3142C17.6409 12.4077 17.7166 12.4835 17.8099 12.4835H21.5277C21.621 12.4835 21.6967 12.4077 21.6967 12.3142V11.6369C21.6967 11.5433 21.621 11.4675 21.5277 11.4675ZM17.8099 10.4516C17.1566 10.4516 16.6269 10.9822 16.6269 11.6369V12.3142C16.6269 12.9688 17.1566 13.4994 17.8099 13.4994H21.5277C22.181 13.4994 22.7106 12.9688 22.7106 12.3142V11.6369C22.7106 10.9822 22.181 10.4516 21.5277 10.4516H17.8099Z" fill="black"/>
<circle cx="19.5" cy="19.5" r="18.5" stroke="black" stroke-width="2"/>
</svg>
