<svg width="11" height="6" viewBox="0 0 11 6" fill="none" xmlns="http://www.w3.org/2000/svg">
<path d="M0.202009 5.03571C0.202009 5.11607 0.242188 5.20647 0.302455 5.26674L0.804688 5.76897C0.864955 5.82924 0.955358 5.86942 1.03571 5.86942C1.11607 5.86942 1.20647 5.82924 1.26674 5.76897L5.21429 1.82143L9.16183 5.76897C9.2221 5.82924 9.3125 5.86942 9.39286 5.86942C9.48326 5.86942 9.56362 5.82924 9.62388 5.76897L10.1261 5.26674C10.1864 5.20647 10.2266 5.11607 10.2266 5.03571C10.2266 4.95536 10.1864 4.86496 10.1261 4.80469L5.44531 0.123884C5.38505 0.0636157 5.29464 0.0234373 5.21429 0.0234373C5.13393 0.0234373 5.04353 0.0636157 4.98326 0.123884L0.302455 4.80469C0.242188 4.86495 0.202009 4.95536 0.202009 5.03571Z" fill="white"/>
</svg>
