<svg width="111" height="114" viewBox="0 0 111 114" fill="none" xmlns="http://www.w3.org/2000/svg">
<path d="M12.5219 44.3848L0.0922852 57.1765L12.5219 69.9682L24.9516 57.1765L12.5219 44.3848Z" fill="#2E2E2E"/>
<path d="M55.2255 25.7631L76.3195 47.4716L88.976 35.1701L55.2255 0.436523L21.4751 35.1701L34.1315 47.4716L55.2255 25.7631Z" fill="#2E2E2E"/>
<path d="M97.5978 44.3369L85.1682 57.1287L97.5978 69.9204L110.027 57.1287L97.5978 44.3369Z" fill="#2E2E2E"/>
<path d="M55.2255 87.9941L34.1315 66.2856L21.4751 78.5871L55.2255 113.321L88.976 78.5871L76.3195 66.2856L55.2255 87.9941Z" fill="#2E2E2E"/>
<path d="M54.707 44.2371L42.2773 57.0288L54.707 69.8205L67.1367 57.0288L54.707 44.2371Z" fill="#2E2E2E"/>
</svg>
