<svg width="73" height="76" viewBox="0 0 73 76" fill="none" xmlns="http://www.w3.org/2000/svg">
<path d="M8.17514 29.8165L0 38.2297L8.17514 46.643L16.3503 38.2297L8.17514 29.8165Z" fill="#FFC700"/>
<path d="M36.2616 17.5687L50.1354 31.8467L58.4597 23.7559L36.2616 0.911133L14.0635 23.7559L22.3877 31.8467L36.2616 17.5687Z" fill="#FFC700"/>
<path d="M64.1307 29.785L55.9556 38.1982L64.1307 46.6115L72.3058 38.1982L64.1307 29.785Z" fill="#FFC700"/>
<path d="M36.2616 58.4989L22.3877 44.2209L14.0635 52.3118L36.2616 75.1565L58.4597 52.3118L50.1354 44.2209L36.2616 58.4989Z" fill="#FFC700"/>
<path d="M35.9208 29.7193L27.7456 38.1326L35.9208 46.5459L44.0959 38.1326L35.9208 29.7193Z" fill="#FFC700"/>
</svg>
