<svg width="60" height="60" viewBox="0 0 60 60" fill="none" xmlns="http://www.w3.org/2000/svg">
<path d="M47.3 11.6998C47.1 11.4998 47 11.1998 47 10.8998C47 10.5998 47.1 10.2998 47.3 10.0998C47.8 9.6998 48.5 9.6998 49 10.0998C49.2 10.2998 49.4 10.5998 49.4 10.8998C49.4 11.1998 49.3 11.4998 49 11.6998C48.8 11.8998 48.5 11.9998 48.2 11.9998C47.8 11.9998 47.5 11.8998 47.3 11.6998Z" fill="black"/>
<path d="M44.3 14.7999C44.1 14.5999 44 14.2999 44 13.9999C44 13.6999 44.1 13.3999 44.3 13.1999C44.7 12.7999 45.4 12.7999 45.9 13.1999C46.1 13.3999 46.2 13.6999 46.2 13.9999C46.2 14.2999 46.1 14.5999 45.9 14.7999C45.7 14.9999 45.4 15.0999 45.1 15.0999C44.8 15.0999 44.6 14.9999 44.3 14.7999Z" fill="black"/>
<path fill-rule="evenodd" clip-rule="evenodd" d="M41.0998 17.9C40.8998 17.7 40.7998 17.4 40.7998 17.1C40.7998 16.8 40.8998 16.5 41.0998 16.3C41.4998 15.9 42.1998 15.9 42.6998 16.3C42.8998 16.5 42.9998 16.8 42.9998 17.1C42.9998 17.4 42.8998 17.7 42.6998 17.9C42.4998 18.1 42.1998 18.2 41.8998 18.2C41.5998 18.2 41.2998 18.1 41.0998 17.9Z" fill="black"/>
<path d="M38.0002 21.0001C37.8002 20.8001 37.7002 20.5001 37.7002 20.2001C37.7002 19.9001 37.8002 19.6001 38.0002 19.4001C38.5002 19.0001 39.2002 19.0001 39.7002 19.4001C39.9002 19.6001 40.0002 19.9001 40.0002 20.2001C40.0002 20.5001 39.9002 20.8001 39.7002 21.0001C39.5002 21.2001 39.2002 21.3001 38.9002 21.3001C38.6002 21.3001 38.2002 21.2001 38.0002 21.0001Z" fill="black"/>
<path fill-rule="evenodd" clip-rule="evenodd" d="M35.0002 24.1002C34.8002 23.9002 34.7002 23.6002 34.7002 23.3002C34.7002 23.0002 34.8002 22.7002 35.0002 22.5002C35.4002 22.1002 36.1002 22.1002 36.6002 22.5002C36.8002 22.7002 36.9002 23.0002 36.9002 23.3002C36.9002 23.6002 36.8002 23.9002 36.6002 24.1002C36.4002 24.3002 36.1002 24.4002 35.8002 24.4002C35.5002 24.4002 35.3002 24.3002 35.0002 24.1002Z" fill="black"/>
<path fill-rule="evenodd" clip-rule="evenodd" d="M31.5 26.3998C31.5 26.0998 31.6 25.7998 31.8 25.5998C32.2 25.1998 32.9 25.1998 33.4 25.5998C33.6 25.7998 33.7 26.0998 33.7 26.3998C33.7 26.6998 33.6 26.9998 33.4 27.1998C33.2 27.3998 32.9 27.4998 32.6 27.4998C32.3 27.4998 32 27.3998 31.8 27.1998C31.6 26.9998 31.5 26.6998 31.5 26.3998Z" fill="black"/>
<path fill-rule="evenodd" clip-rule="evenodd" d="M25.6999 33.2999C25.4999 33.0999 25.3999 32.7999 25.3999 32.4999C25.3999 32.1999 25.4999 31.8999 25.6999 31.6999C26.0999 31.2999 26.7999 31.2999 27.2999 31.6999C27.4999 31.8999 27.5999 32.1999 27.5999 32.4999C27.5999 32.7999 27.4999 33.0999 27.2999 33.2999C27.0999 33.4999 26.7999 33.5999 26.4999 33.5999C26.1999 33.5999 25.9999 33.4999 25.6999 33.2999Z" fill="black"/>
<path fill-rule="evenodd" clip-rule="evenodd" d="M22.5002 36.4C22.3002 36.2 22.2002 35.9 22.2002 35.6C22.2002 35.3 22.3002 35 22.5002 34.8C23.0002 34.4 23.7002 34.4 24.2002 34.8C24.4002 35 24.5002 35.3 24.5002 35.6C24.5002 35.9 24.4002 36.2 24.2002 36.4C24.0002 36.6 23.7002 36.7 23.4002 36.7C23.0002 36.7 22.8002 36.6 22.5002 36.4Z" fill="black"/>
<path fill-rule="evenodd" clip-rule="evenodd" d="M19.5002 39.5001C19.3002 39.3001 19.2002 39.0001 19.2002 38.7001C19.2002 38.4001 19.3002 38.1001 19.5002 37.9001C19.9002 37.5001 20.6002 37.5001 21.1002 37.9001C21.3002 38.1001 21.4002 38.4001 21.4002 38.7001C21.4002 39.0001 21.3002 39.3001 21.1002 39.5001C20.9002 39.7001 20.6002 39.8001 20.3002 39.8001C20.0002 39.8001 19.8002 39.7001 19.5002 39.5001Z" fill="black"/>
<path fill-rule="evenodd" clip-rule="evenodd" d="M16.5002 42.6002C16.3002 42.4002 16.2002 42.1002 16.2002 41.8002C16.2002 41.5002 16.3002 41.2002 16.5002 41.0002C16.9002 40.6002 17.6002 40.6002 18.1002 41.0002C18.3002 41.2002 18.4002 41.5002 18.4002 41.8002C18.4002 42.1002 18.3002 42.4002 18.1002 42.6002C17.9002 42.8002 17.6002 42.9002 17.3002 42.9002C17.0002 42.9002 16.7002 42.8002 16.5002 42.6002Z" fill="black"/>
<path fill-rule="evenodd" clip-rule="evenodd" d="M13.1998 45.6998C12.9998 45.4998 12.7998 45.1998 12.7998 44.8998C12.7998 44.5998 12.8998 44.2998 13.1998 44.0998C13.6998 43.6998 14.3998 43.6998 14.8998 44.0998C15.0998 44.2998 15.1998 44.5998 15.1998 44.8998C15.1998 45.1998 15.0998 45.4998 14.8998 45.6998C14.6998 45.8998 14.3998 45.9998 14.0998 45.9998C13.7998 45.9998 13.4998 45.8998 13.1998 45.6998Z" fill="black"/>
<path fill-rule="evenodd" clip-rule="evenodd" d="M10.1999 48.7999C9.9999 48.4999 9.8999 48.2999 9.8999 47.9999C9.8999 47.6999 9.9999 47.3999 10.1999 47.1999C10.5999 46.7999 11.2999 46.7999 11.7999 47.1999C11.9999 47.3999 12.0999 47.6999 12.0999 47.9999C12.0999 48.2999 11.9999 48.5999 11.7999 48.7999C11.5999 48.9999 11.2999 49.0999 10.9999 49.0999C10.6999 49.0999 10.4999 48.9999 10.1999 48.7999Z" fill="black"/>
<path fill-rule="evenodd" clip-rule="evenodd" d="M11.7999 11.6998C11.9999 11.4998 12.0999 11.1998 12.0999 10.8998C12.0999 10.5998 11.9999 10.2998 11.7999 10.0998C11.3999 9.6998 10.6999 9.6998 10.1999 10.0998C9.9999 10.2998 9.8999 10.5998 9.8999 10.8998C9.8999 11.1998 9.9999 11.4998 10.1999 11.6998C10.3999 11.8998 10.6999 11.9998 10.9999 11.9998C11.2999 11.9998 11.5999 11.8998 11.7999 11.6998Z" fill="black"/>
<path fill-rule="evenodd" clip-rule="evenodd" d="M14.8999 14.7999C15.0999 14.5999 15.1999 14.2999 15.1999 13.9999C15.1999 13.6999 15.0999 13.3999 14.8999 13.1999C14.3999 12.7999 13.6999 12.7999 13.1999 13.1999C12.9999 13.3999 12.8999 13.6999 12.8999 13.9999C12.8999 14.2999 12.9999 14.5999 13.1999 14.7999C13.3999 14.9999 13.6999 15.0999 13.9999 15.0999C14.3999 15.0999 14.6999 14.9999 14.8999 14.7999Z" fill="black"/>
<path fill-rule="evenodd" clip-rule="evenodd" d="M18.0001 17.9C18.2001 17.7 18.3001 17.4 18.3001 17.1C18.3001 16.8 18.2001 16.5 18.0001 16.3C17.6001 15.9 16.9001 15.9 16.4001 16.3C16.2001 16.5 16.1001 16.8 16.1001 17.1C16.1001 17.4 16.2001 17.7 16.4001 17.9C16.6001 18.1 16.9001 18.2 17.2001 18.2C17.5001 18.2 17.8001 18.1 18.0001 17.9Z" fill="black"/>
<path fill-rule="evenodd" clip-rule="evenodd" d="M21.1002 21.0001C21.3002 20.8001 21.4002 20.5001 21.4002 20.2001C21.4002 19.9001 21.3002 19.6001 21.1002 19.4001C20.7002 19.0001 20.0002 19.0001 19.5002 19.4001C19.3002 19.6001 19.2002 19.9001 19.2002 20.2001C19.2002 20.5001 19.3002 20.8001 19.5002 21.0001C19.7002 21.2001 20.0002 21.3001 20.3002 21.3001C20.6002 21.3001 20.9002 21.2001 21.1002 21.0001Z" fill="black"/>
<path fill-rule="evenodd" clip-rule="evenodd" d="M24.2002 24.1002C24.4002 23.9002 24.6002 23.6002 24.6002 23.3002C24.6002 23.0002 24.5002 22.7002 24.2002 22.5002C23.8002 22.1002 23.0002 22.1002 22.5002 22.5002C22.3002 22.7002 22.2002 23.0002 22.2002 23.3002C22.2002 23.6002 22.3002 23.9002 22.5002 24.1002C22.7002 24.3002 23.0002 24.4002 23.3002 24.4002C23.6002 24.4002 24.0002 24.3002 24.2002 24.1002Z" fill="black"/>
<path fill-rule="evenodd" clip-rule="evenodd" d="M27.5999 26.3998C27.5999 26.0998 27.4999 25.7998 27.2999 25.5998C26.8999 25.1998 26.1999 25.1998 25.6999 25.5998C25.4999 25.7998 25.3999 26.0998 25.3999 26.3998C25.3999 26.6998 25.4999 26.9998 25.6999 27.1998C25.8999 27.3998 26.1999 27.4998 26.4999 27.4998C26.7999 27.4998 27.0999 27.3998 27.2999 27.1998C27.4999 26.9998 27.5999 26.6998 27.5999 26.3998Z" fill="black"/>
<path fill-rule="evenodd" clip-rule="evenodd" d="M30.4 30.2999C30.6 30.0999 30.7 29.7999 30.7 29.4999C30.7 29.1999 30.6 28.8999 30.4 28.6999C30 28.2999 29.3 28.2999 28.8 28.6999C28.6 28.8999 28.5 29.1999 28.5 29.4999C28.5 29.7999 28.6 30.0999 28.8 30.2999C29 30.4999 29.3 30.5999 29.6 30.5999C29.9 30.5999 30.2 30.4999 30.4 30.2999Z" fill="black"/>
<path fill-rule="evenodd" clip-rule="evenodd" d="M33.4999 33.2999C33.6999 33.0999 33.7999 32.7999 33.7999 32.4999C33.7999 32.1999 33.6999 31.8999 33.4999 31.6999C32.9999 31.2999 32.2999 31.2999 31.7999 31.6999C31.5999 31.8999 31.3999 32.1999 31.3999 32.4999C31.3999 32.7999 31.4999 33.0999 31.7999 33.2999C31.9999 33.4999 32.2999 33.5999 32.5999 33.5999C32.9999 33.5999 33.2999 33.4999 33.4999 33.2999Z" fill="black"/>
<path fill-rule="evenodd" clip-rule="evenodd" d="M36.6002 36.4C36.8002 36.2 36.9002 35.9 36.9002 35.6C36.9002 35.3 36.8002 35 36.6002 34.8C36.2002 34.4 35.5002 34.4 35.0002 34.8C34.8002 35 34.7002 35.3 34.7002 35.6C34.7002 35.9 34.8002 36.2 35.0002 36.4C35.2002 36.6 35.5002 36.7 35.8002 36.7C36.1002 36.7 36.4002 36.6 36.6002 36.4Z" fill="black"/>
<path fill-rule="evenodd" clip-rule="evenodd" d="M39.6998 39.5001C39.8998 39.3001 39.9998 39.0001 39.9998 38.7001C39.9998 38.4001 39.8998 38.1001 39.6998 37.9001C39.2998 37.5001 38.5998 37.5001 38.0998 37.9001C37.8998 38.1001 37.7998 38.4001 37.7998 38.7001C37.7998 39.0001 37.8998 39.3001 38.0998 39.5001C38.2998 39.7001 38.5998 39.8001 38.8998 39.8001C39.1998 39.8001 39.4998 39.7001 39.6998 39.5001Z" fill="black"/>
<path fill-rule="evenodd" clip-rule="evenodd" d="M42.6002 42.6002C42.8002 42.4002 42.9002 42.1002 42.9002 41.8002C42.9002 41.5002 42.8002 41.2002 42.6002 41.0002C42.2002 40.6002 41.5002 40.6002 41.0002 41.0002C40.8002 41.2002 40.7002 41.5002 40.7002 41.8002C40.7002 42.1002 40.8002 42.4002 41.0002 42.6002C41.2002 42.8002 41.5002 42.9002 41.8002 42.9002C42.2002 42.9002 42.4002 42.8002 42.6002 42.6002Z" fill="black"/>
<path fill-rule="evenodd" clip-rule="evenodd" d="M45.9 45.6998C46.1 45.4998 46.2 45.1998 46.2 44.8998C46.2 44.5998 46.1 44.2998 45.9 44.0998C45.5 43.6998 44.8 43.6998 44.3 44.0998C44.1 44.2998 44 44.5998 44 44.8998C44 45.1998 44.1 45.4998 44.3 45.6998C44.5 45.8998 44.8 45.9998 45.1 45.9998C45.4 45.9998 45.7 45.8998 45.9 45.6998Z" fill="black"/>
<path fill-rule="evenodd" clip-rule="evenodd" d="M49 48.7999C49.2 48.5999 49.3 48.2999 49.3 47.9999C49.3 47.6999 49.2 47.3999 49 47.1999C48.5 46.7999 47.8 46.7999 47.3 47.1999C47.1 47.3999 47 47.6999 47 47.9999C47 48.2999 47.1 48.5999 47.4 48.7999C47.6 48.9999 47.9 49.0999 48.2 49.0999C48.5 49.0999 48.8 48.9999 49 48.7999Z" fill="black"/>
<path d="M19.1 12.6C22.2 10.6 25.7 9.5 29.5 9.5C33.2 9.5 36.7 10.5 39.9 12.6L46.6 6C41.4 2 35.7 0 29.5 0C23.3 0 17.6 2 12.5 5.9L19.1 12.6Z" fill="black"/>
<path fill-rule="evenodd" clip-rule="evenodd" d="M12.5 39.7999C10.4 36.5999 9.3 33.0999 9.4 29.3999C9.4 25.5999 10.5 22.1999 12.5 18.9999L5.9 12.3999C2 17.4999 0 23.1999 0 29.3999C0 35.5999 1.9 41.2999 5.9 46.3999L12.5 39.7999Z" fill="black"/>
<path fill-rule="evenodd" clip-rule="evenodd" d="M39.8999 46.5C36.6999 48.6 33.2999 49.7 29.4999 49.7C25.6999 49.7 22.1999 48.6 18.9999 46.5L12.3999 53.1C17.4999 57.1 23.2999 59.1 29.4999 59C35.6999 59 41.3999 57 46.4999 53.1L39.8999 46.5Z" fill="black"/>
<path fill-rule="evenodd" clip-rule="evenodd" d="M46.3999 19.1C48.4999 22.3 49.5999 25.8 49.4999 29.7C49.4999 33.4 48.3999 36.8 46.3999 39.9L53.0999 46.5C56.9999 41.4 58.9999 35.8 59.0999 29.6C59.1999 23.3 57.1999 17.6 53.1999 12.5L46.3999 19.1Z" fill="black"/>
<path fill-rule="evenodd" clip-rule="evenodd" d="M53.3998 48.5C55.9998 48.5 57.9998 50.6 57.9998 53.1C57.9998 55.7 55.8998 57.7 53.3998 57.7C50.7998 57.7 48.7998 55.6 48.7998 53.1C48.6998 50.6 50.7998 48.5 53.3998 48.5Z" fill="black"/>
<path fill-rule="evenodd" clip-rule="evenodd" d="M5.8002 48.5C8.3002 48.5 10.4002 50.6 10.4002 53.1C10.4002 55.6 8.4002 57.7 5.8002 57.7C3.3002 57.7 1.2002 55.6 1.2002 53.1C1.2002 50.6 3.3002 48.5 5.8002 48.5Z" fill="black"/>
<path fill-rule="evenodd" clip-rule="evenodd" d="M53.4998 1C55.9998 1 57.9998 3.1 57.9998 5.6C57.9998 8.2 55.9998 10.2 53.3998 10.2C50.8998 10.2 48.7998 8.1 48.7998 5.6C48.8998 3.1 50.8998 1 53.4998 1Z" fill="black"/>
<path fill-rule="evenodd" clip-rule="evenodd" d="M5.7001 1C8.3001 1 10.3001 3 10.3001 5.6C10.3001 8.1 8.2001 10.2 5.7001 10.2C3.2001 10.2 1.1001 8.2 1.1001 5.6C1.1001 3 3.2001 1 5.7001 1Z" fill="black"/>
</svg>
