<svg width="91" height="91" viewBox="0 0 91 91" fill="none" xmlns="http://www.w3.org/2000/svg">
<path d="M72.5284 18.4012C72.2243 18.0972 72.0723 17.641 72.0723 17.1849C72.0723 16.7288 72.2243 16.2727 72.5284 15.9686C73.2886 15.3604 74.3529 15.3604 75.1131 15.9686C75.4172 16.2727 75.7213 16.7288 75.7213 17.1849C75.7213 17.641 75.5692 18.0972 75.1131 18.4012C74.809 18.7053 74.3529 18.8574 73.8968 18.8574C73.2886 18.8574 72.8325 18.7053 72.5284 18.4012Z" fill="black" fill-opacity="0.8"/>
<path d="M67.9671 23.1146C67.663 22.8105 67.511 22.3544 67.511 21.8983C67.511 21.4422 67.663 20.986 67.9671 20.682C68.5753 20.0738 69.6396 20.0738 70.3998 20.682C70.7039 20.986 70.8559 21.4422 70.8559 21.8983C70.8559 22.3544 70.7039 22.8105 70.3998 23.1146C70.0957 23.4187 69.6396 23.5708 69.1834 23.5708C68.7273 23.5708 68.4232 23.4187 67.9671 23.1146Z" fill="black" fill-opacity="0.8"/>
<path fill-rule="evenodd" clip-rule="evenodd" d="M63.1016 27.828C62.7975 27.5239 62.6455 27.0678 62.6455 26.6117C62.6455 26.1555 62.7975 25.6994 63.1016 25.3953C63.7098 24.7872 64.7741 24.7872 65.5343 25.3953C65.8384 25.6994 65.9904 26.1555 65.9904 26.6117C65.9904 27.0678 65.8384 27.5239 65.5343 27.828C65.2302 28.1321 64.7741 28.2841 64.318 28.2841C63.8618 28.2841 63.4057 28.1321 63.1016 27.828Z" fill="black" fill-opacity="0.8"/>
<path d="M58.3887 32.5414C58.0847 32.2373 57.9326 31.7812 57.9326 31.3251C57.9326 30.8689 58.0847 30.4128 58.3887 30.1087C59.149 29.5005 60.2132 29.5005 60.9735 30.1087C61.2775 30.4128 61.4296 30.8689 61.4296 31.3251C61.4296 31.7812 61.2775 32.2373 60.9735 32.5414C60.6694 32.8455 60.2132 32.9975 59.7571 32.9975C59.301 32.9975 58.6928 32.8455 58.3887 32.5414Z" fill="black" fill-opacity="0.8"/>
<path fill-rule="evenodd" clip-rule="evenodd" d="M53.8277 37.255C53.5236 36.9509 53.3716 36.4948 53.3716 36.0387C53.3716 35.5825 53.5236 35.1264 53.8277 34.8223C54.4359 34.2142 55.5002 34.2142 56.2604 34.8223C56.5645 35.1264 56.7165 35.5825 56.7165 36.0387C56.7165 36.4948 56.5645 36.9509 56.2604 37.255C55.9563 37.5591 55.5002 37.7111 55.044 37.7111C54.5879 37.7111 54.2838 37.5591 53.8277 37.255Z" fill="black" fill-opacity="0.8"/>
<path fill-rule="evenodd" clip-rule="evenodd" d="M48.5059 40.7513C48.5059 40.2952 48.6579 39.8391 48.962 39.535C49.5702 38.9268 50.6344 38.9268 51.3947 39.535C51.6987 39.8391 51.8508 40.2952 51.8508 40.7513C51.8508 41.2074 51.6987 41.6636 51.3947 41.9677C51.0906 42.2717 50.6344 42.4238 50.1783 42.4238C49.7222 42.4238 49.2661 42.2717 48.962 41.9677C48.6579 41.6636 48.5059 41.2074 48.5059 40.7513Z" fill="black" fill-opacity="0.8"/>
<path fill-rule="evenodd" clip-rule="evenodd" d="M39.6873 51.2423C39.3832 50.9382 39.2312 50.4821 39.2312 50.026C39.2312 49.5699 39.3832 49.1137 39.6873 48.8096C40.2955 48.2015 41.3598 48.2015 42.12 48.8096C42.4241 49.1137 42.5761 49.5699 42.5761 50.026C42.5761 50.4821 42.4241 50.9382 42.12 51.2423C41.8159 51.5464 41.3598 51.6984 40.9037 51.6984C40.4475 51.6984 40.1435 51.5464 39.6873 51.2423Z" fill="black" fill-opacity="0.8"/>
<path fill-rule="evenodd" clip-rule="evenodd" d="M34.8223 55.9557C34.5183 55.6516 34.3662 55.1955 34.3662 54.7394C34.3662 54.2832 34.5183 53.8271 34.8223 53.523C35.5825 52.9149 36.6468 52.9149 37.4071 53.523C37.7111 53.8271 37.8632 54.2832 37.8632 54.7394C37.8632 55.1955 37.7111 55.6516 37.4071 55.9557C37.103 56.2598 36.6468 56.4118 36.1907 56.4118C35.5825 56.4118 35.2785 56.2598 34.8223 55.9557Z" fill="black" fill-opacity="0.8"/>
<path fill-rule="evenodd" clip-rule="evenodd" d="M30.2611 60.6693C29.957 60.3652 29.8049 59.9091 29.8049 59.453C29.8049 58.9969 29.957 58.5407 30.2611 58.2366C30.8692 57.6285 31.9335 57.6285 32.6937 58.2366C32.9978 58.5407 33.1499 58.9969 33.1499 59.453C33.1499 59.9091 32.9978 60.3652 32.6937 60.6693C32.3896 60.9734 31.9335 61.1254 31.4774 61.1254C31.0213 61.1254 30.7172 60.9734 30.2611 60.6693Z" fill="black" fill-opacity="0.8"/>
<path fill-rule="evenodd" clip-rule="evenodd" d="M25.6998 65.3827C25.3957 65.0786 25.2437 64.6225 25.2437 64.1664C25.2437 63.7102 25.3957 63.2541 25.6998 62.95C26.3079 62.3419 27.3722 62.3419 28.1324 62.95C28.4365 63.2541 28.5886 63.7102 28.5886 64.1664C28.5886 64.6225 28.4365 65.0786 28.1324 65.3827C27.8284 65.6868 27.3722 65.8388 26.9161 65.8388C26.46 65.8388 26.0039 65.6868 25.6998 65.3827Z" fill="black" fill-opacity="0.8"/>
<path fill-rule="evenodd" clip-rule="evenodd" d="M20.6819 70.0953C20.3778 69.7913 20.0737 69.3351 20.0737 68.879C20.0737 68.4229 20.2258 67.9668 20.6819 67.6627C21.4421 67.0545 22.5064 67.0545 23.2666 67.6627C23.5707 67.9668 23.7227 68.4229 23.7227 68.879C23.7227 69.3351 23.5707 69.7913 23.2666 70.0953C22.9625 70.3994 22.5064 70.5515 22.0503 70.5515C21.5942 70.5515 21.138 70.3994 20.6819 70.0953Z" fill="black" fill-opacity="0.8"/>
<path fill-rule="evenodd" clip-rule="evenodd" d="M16.1207 74.809C15.8166 74.3528 15.6646 74.0488 15.6646 73.5926C15.6646 73.1365 15.8166 72.6804 16.1207 72.3763C16.7288 71.7681 17.7931 71.7681 18.5533 72.3763C18.8574 72.6804 19.0095 73.1365 19.0095 73.5926C19.0095 74.0488 18.8574 74.5049 18.5533 74.809C18.2493 75.113 17.7931 75.2651 17.337 75.2651C16.8809 75.2651 16.5768 75.113 16.1207 74.809Z" fill="black" fill-opacity="0.8"/>
<path fill-rule="evenodd" clip-rule="evenodd" d="M18.5533 18.4012C18.8574 18.0972 19.0095 17.641 19.0095 17.1849C19.0095 16.7288 18.8574 16.2727 18.5533 15.9686C17.9452 15.3604 16.8809 15.3604 16.1207 15.9686C15.8166 16.2727 15.6646 16.7288 15.6646 17.1849C15.6646 17.641 15.8166 18.0972 16.1207 18.4012C16.4248 18.7053 16.8809 18.8574 17.337 18.8574C17.7931 18.8574 18.2493 18.7053 18.5533 18.4012Z" fill="black" fill-opacity="0.8"/>
<path fill-rule="evenodd" clip-rule="evenodd" d="M23.2667 23.1146C23.5708 22.8105 23.7228 22.3544 23.7228 21.8983C23.7228 21.4422 23.5708 20.986 23.2667 20.682C22.5065 20.0738 21.4422 20.0738 20.682 20.682C20.3779 20.986 20.2258 21.4422 20.2258 21.8983C20.2258 22.3544 20.3779 22.8105 20.682 23.1146C20.986 23.4187 21.4422 23.5708 21.8983 23.5708C22.5065 23.5708 22.9626 23.4187 23.2667 23.1146Z" fill="black" fill-opacity="0.8"/>
<path fill-rule="evenodd" clip-rule="evenodd" d="M27.9804 27.828C28.2844 27.5239 28.4365 27.0678 28.4365 26.6117C28.4365 26.1555 28.2844 25.6994 27.9804 25.3953C27.3722 24.7872 26.3079 24.7872 25.5477 25.3953C25.2436 25.6994 25.0916 26.1555 25.0916 26.6117C25.0916 27.0678 25.2436 27.5239 25.5477 27.828C25.8518 28.1321 26.3079 28.2841 26.764 28.2841C27.2201 28.2841 27.6763 28.1321 27.9804 27.828Z" fill="black" fill-opacity="0.8"/>
<path fill-rule="evenodd" clip-rule="evenodd" d="M32.6937 32.5414C32.9978 32.2373 33.1499 31.7812 33.1499 31.3251C33.1499 30.8689 32.9978 30.4128 32.6937 30.1087C32.0856 29.5005 31.0213 29.5005 30.2611 30.1087C29.957 30.4128 29.8049 30.8689 29.8049 31.3251C29.8049 31.7812 29.957 32.2373 30.2611 32.5414C30.5651 32.8455 31.0213 32.9975 31.4774 32.9975C31.9335 32.9975 32.3896 32.8455 32.6937 32.5414Z" fill="black" fill-opacity="0.8"/>
<path fill-rule="evenodd" clip-rule="evenodd" d="M37.4071 37.255C37.7111 36.9509 38.0152 36.4948 38.0152 36.0387C38.0152 35.5825 37.8632 35.1264 37.4071 34.8223C36.7989 34.2142 35.5825 34.2142 34.8223 34.8223C34.5183 35.1264 34.3662 35.5825 34.3662 36.0387C34.3662 36.4948 34.5183 36.9509 34.8223 37.255C35.1264 37.5591 35.5825 37.7111 36.0387 37.7111C36.4948 37.7111 37.103 37.5591 37.4071 37.255Z" fill="black" fill-opacity="0.8"/>
<path fill-rule="evenodd" clip-rule="evenodd" d="M42.5761 40.7513C42.5761 40.2952 42.4241 39.8391 42.12 39.535C41.5118 38.9268 40.4475 38.9268 39.6873 39.535C39.3832 39.8391 39.2312 40.2952 39.2312 40.7513C39.2312 41.2074 39.3832 41.6636 39.6873 41.9677C39.9914 42.2717 40.4475 42.4238 40.9037 42.4238C41.3598 42.4238 41.8159 42.2717 42.12 41.9677C42.4241 41.6636 42.5761 41.2074 42.5761 40.7513Z" fill="black" fill-opacity="0.8"/>
<path fill-rule="evenodd" clip-rule="evenodd" d="M46.8334 46.681C47.1375 46.3769 47.2895 45.9208 47.2895 45.4647C47.2895 45.0086 47.1375 44.5524 46.8334 44.2484C46.2252 43.6402 45.1609 43.6402 44.4007 44.2484C44.0966 44.5524 43.9446 45.0086 43.9446 45.4647C43.9446 45.9208 44.0966 46.3769 44.4007 46.681C44.7048 46.9851 45.1609 47.1372 45.617 47.1372C46.0732 47.1372 46.5293 46.9851 46.8334 46.681Z" fill="black" fill-opacity="0.8"/>
<path fill-rule="evenodd" clip-rule="evenodd" d="M51.5464 51.2423C51.8505 50.9382 52.0025 50.4821 52.0025 50.026C52.0025 49.5699 51.8505 49.1137 51.5464 48.8096C50.7862 48.2015 49.7219 48.2015 48.9617 48.8096C48.6576 49.1137 48.3535 49.5699 48.3535 50.026C48.3535 50.4821 48.5056 50.9382 48.9617 51.2423C49.2658 51.5464 49.7219 51.6984 50.178 51.6984C50.7862 51.6984 51.2423 51.5464 51.5464 51.2423Z" fill="black" fill-opacity="0.8"/>
<path fill-rule="evenodd" clip-rule="evenodd" d="M56.2604 55.9557C56.5645 55.6516 56.7165 55.1955 56.7165 54.7394C56.7165 54.2832 56.5645 53.8271 56.2604 53.523C55.6522 52.9149 54.5879 52.9149 53.8277 53.523C53.5236 53.8271 53.3716 54.2832 53.3716 54.7394C53.3716 55.1955 53.5236 55.6516 53.8277 55.9557C54.1318 56.2598 54.5879 56.4118 55.044 56.4118C55.5002 56.4118 55.9563 56.2598 56.2604 55.9557Z" fill="black" fill-opacity="0.8"/>
<path fill-rule="evenodd" clip-rule="evenodd" d="M60.973 60.6693C61.2771 60.3652 61.4292 59.9091 61.4292 59.453C61.4292 58.9969 61.2771 58.5407 60.973 58.2366C60.3649 57.6285 59.3006 57.6285 58.5404 58.2366C58.2363 58.5407 58.0842 58.9969 58.0842 59.453C58.0842 59.9091 58.2363 60.3652 58.5404 60.6693C58.8444 60.9734 59.3006 61.1254 59.7567 61.1254C60.2128 61.1254 60.6689 60.9734 60.973 60.6693Z" fill="black" fill-opacity="0.8"/>
<path fill-rule="evenodd" clip-rule="evenodd" d="M65.3827 65.3827C65.6868 65.0786 65.8388 64.6225 65.8388 64.1664C65.8388 63.7102 65.6868 63.2541 65.3827 62.95C64.7745 62.3419 63.7102 62.3419 62.95 62.95C62.6459 63.2541 62.4939 63.7102 62.4939 64.1664C62.4939 64.6225 62.6459 65.0786 62.95 65.3827C63.2541 65.6868 63.7102 65.8388 64.1664 65.8388C64.7745 65.8388 65.0786 65.6868 65.3827 65.3827Z" fill="black" fill-opacity="0.8"/>
<path fill-rule="evenodd" clip-rule="evenodd" d="M70.3998 70.0953C70.7039 69.7913 70.8559 69.3351 70.8559 68.879C70.8559 68.4229 70.7039 67.9668 70.3998 67.6627C69.7916 67.0545 68.7273 67.0545 67.9671 67.6627C67.663 67.9668 67.511 68.4229 67.511 68.879C67.511 69.3351 67.663 69.7913 67.9671 70.0953C68.2712 70.3994 68.7273 70.5515 69.1834 70.5515C69.6396 70.5515 70.0957 70.3994 70.3998 70.0953Z" fill="black" fill-opacity="0.8"/>
<path fill-rule="evenodd" clip-rule="evenodd" d="M75.1131 74.809C75.4172 74.5049 75.5692 74.0488 75.5692 73.5926C75.5692 73.1365 75.4172 72.6804 75.1131 72.3763C74.3529 71.7681 73.2886 71.7681 72.5284 72.3763C72.2243 72.6804 72.0723 73.1365 72.0723 73.5926C72.0723 74.0488 72.2243 74.5049 72.6804 74.809C72.9845 75.113 73.4406 75.2651 73.8968 75.2651C74.3529 75.2651 74.809 75.113 75.1131 74.809Z" fill="black" fill-opacity="0.8"/>
<path d="M29.6527 19.7698C34.366 16.729 39.6875 15.0565 45.4651 15.0565C51.0906 15.0565 56.4121 16.577 61.2774 19.7698L71.4642 9.73507C63.5581 3.65339 54.8917 0.612549 45.4651 0.612549C36.0385 0.612549 27.3721 3.65339 19.6179 9.58303L29.6527 19.7698Z" fill="black" fill-opacity="0.8"/>
<path fill-rule="evenodd" clip-rule="evenodd" d="M19.6178 61.1251C16.4249 56.2597 14.7525 50.9383 14.9045 45.3127C14.9045 39.5351 16.577 34.3657 19.6178 29.5003L9.58303 19.4656C3.65339 27.2197 0.612549 35.8861 0.612549 45.3127C0.612549 54.7393 3.50135 63.4057 9.58303 71.1599L19.6178 61.1251Z" fill="black" fill-opacity="0.8"/>
<path fill-rule="evenodd" clip-rule="evenodd" d="M61.2771 71.312C56.4118 74.5049 51.2424 76.1774 45.4648 76.1774C39.6872 76.1774 34.3657 74.5049 29.5003 71.312L19.4656 81.3468C27.2197 87.4285 36.0382 90.4693 45.4648 90.3173C54.8914 90.3173 63.5578 87.2764 71.3119 81.3468L61.2771 71.312Z" fill="black" fill-opacity="0.8"/>
<path fill-rule="evenodd" clip-rule="evenodd" d="M71.1599 29.6524C74.3528 34.5178 76.0253 39.8393 75.8732 45.7689C75.8732 51.3945 74.2008 56.5639 71.1599 61.2772L81.3467 71.312C87.2764 63.5578 90.3172 55.0435 90.4692 45.6169C90.6213 36.0382 87.5804 27.3718 81.4988 19.6177L71.1599 29.6524Z" fill="black" fill-opacity="0.8"/>
<path fill-rule="evenodd" clip-rule="evenodd" d="M81.8029 74.3528C85.756 74.3528 88.7968 77.5457 88.7968 81.3467C88.7968 85.2998 85.6039 88.3406 81.8029 88.3406C77.8498 88.3406 74.8089 85.1478 74.8089 81.3467C74.6569 77.5457 77.8498 74.3528 81.8029 74.3528Z" fill="black" fill-opacity="0.8"/>
<path fill-rule="evenodd" clip-rule="evenodd" d="M9.43143 74.3528C13.2325 74.3528 16.4254 77.5457 16.4254 81.3467C16.4254 85.1478 13.3845 88.3406 9.43143 88.3406C5.63038 88.3406 2.4375 85.1478 2.4375 81.3467C2.4375 77.5457 5.63038 74.3528 9.43143 74.3528Z" fill="black" fill-opacity="0.8"/>
<path fill-rule="evenodd" clip-rule="evenodd" d="M81.9548 2.13281C85.7559 2.13281 88.7967 5.32569 88.7967 9.12674C88.7967 13.0798 85.7559 16.1207 81.8028 16.1207C78.0017 16.1207 74.8088 12.9278 74.8088 9.12674C74.9609 5.32569 78.0017 2.13281 81.9548 2.13281Z" fill="black" fill-opacity="0.8"/>
<path fill-rule="evenodd" clip-rule="evenodd" d="M9.27909 2.13281C13.2322 2.13281 16.273 5.17365 16.273 9.12674C16.273 12.9278 13.0801 16.1207 9.27909 16.1207C5.47804 16.1207 2.28516 13.0798 2.28516 9.12674C2.28516 5.17365 5.47804 2.13281 9.27909 2.13281Z" fill="black" fill-opacity="0.8"/>
</svg>
