<svg width="98" height="97" viewBox="0 0 98 97" fill="none" xmlns="http://www.w3.org/2000/svg">
<path opacity="0.95" d="M61.9947 93.6009C61.7717 93.3779 61.5487 93.1549 61.3257 93.1549C55.5276 91.8169 50.1756 89.8099 45.4925 87.1338C35.2344 81.1128 28.7673 72.4157 28.5443 62.1575C28.5443 58.3665 29.2133 54.5755 30.9973 50.7844C32.1124 48.5544 37.4644 40.3033 38.5794 38.7423C42.3705 32.7212 41.0325 33.1672 35.9034 25.8081L27.8753 14.658L22.7463 7.07593C19.6242 9.08295 16.9482 11.313 14.2722 13.766C5.35206 22.6861 0 34.7282 0 48.3314C0 66.8406 10.2581 82.8968 25.1993 91.1479C8.25109 78.6597 0.446005 59.9275 6.91308 40.9723C8.6971 35.8432 11.3731 31.1602 14.7182 26.9231L20.2932 35.1742C20.9622 36.0663 20.9622 37.4043 20.0702 38.2963C17.3942 41.6413 15.1642 45.4324 13.8262 49.2234C6.69007 70.4086 26.0913 91.8169 46.6075 95.3849C50.6216 96.0539 57.7576 96.7229 61.3257 95.8309C62.2177 95.6079 62.4407 94.2699 61.9947 93.6009Z" fill="#020202"/>
<path opacity="0.95" d="M36.1263 3.06171C36.1263 3.28471 36.3493 3.50771 36.7953 3.50771C42.5934 4.84573 47.9454 6.85275 52.6285 9.52878C62.8866 15.5499 69.3537 24.2469 69.5767 34.5051C69.5767 38.2961 68.9077 42.0871 67.1236 45.8782C66.0086 48.1082 60.6566 56.3593 59.5416 57.9203C55.7505 63.9414 57.0885 63.4954 62.2176 70.8545L70.0227 82.2276L75.1517 89.8097C78.2738 87.8027 80.9498 85.5726 83.6258 83.1196C92.5459 74.1995 97.898 61.9344 97.898 48.5542C98.121 30.045 87.8629 13.9888 72.9217 5.73774C89.8699 18.2259 97.675 36.9581 91.2079 55.9133C89.4239 61.0424 86.7479 65.7254 83.4028 69.9625L77.8278 61.4884C77.1588 60.5964 77.1588 59.2583 78.0508 58.3663C80.7268 55.0213 82.9568 51.2303 84.2948 47.4392C91.4309 26.7 72.0297 5.06873 51.7365 1.50069C47.7224 0.831685 40.5863 0.162677 37.0183 1.05469C35.6803 1.27769 35.4573 2.3927 36.1263 3.06171Z" fill="#020202"/>
</svg>
