<svg width="98" height="96" viewBox="0 0 98 96" fill="none" xmlns="http://www.w3.org/2000/svg">
<path opacity="0.95" d="M61.9947 92.9762C61.7717 92.7531 61.5487 92.5301 61.3257 92.5301C55.5276 91.1921 50.1756 89.1851 45.4925 86.5091C35.2344 80.488 28.7673 71.7909 28.5443 61.5328C28.5443 57.7417 29.2133 53.9507 30.9973 50.1597C32.1124 47.9296 37.4644 39.6785 38.5794 38.1175C42.3705 32.0965 41.0325 32.5425 35.9034 25.1834L27.8753 14.0333L22.7463 6.45117C19.6242 8.45819 16.9482 10.6882 14.2722 13.1412C5.35206 22.0613 0 34.1035 0 47.7066C0 66.2158 10.2581 82.272 25.1993 90.5231C8.25109 78.035 0.446005 59.3028 6.91308 40.3476C8.6971 35.2185 11.3731 30.5354 14.7182 26.2984L20.2932 34.5495C20.9622 35.4415 20.9622 36.7795 20.0702 37.6715C17.3942 41.0166 15.1642 44.8076 13.8262 48.5986C6.69007 69.7839 26.0913 91.1921 46.6075 94.7602C50.6216 95.4292 57.7576 96.0982 61.3257 95.2062C62.2177 94.9832 62.4407 93.6452 61.9947 92.9762Z" fill="#020202" fill-opacity="0.8"/>
<path opacity="0.95" d="M36.1261 2.43695C36.1261 2.65996 36.3491 2.88296 36.7951 2.88296C42.5931 4.22097 47.9452 6.228 52.6282 8.90403C62.8864 14.9251 69.3534 23.6222 69.5764 33.8803C69.5764 37.6713 68.9074 41.4624 67.1234 45.2534C66.0084 47.4835 60.6563 55.7346 59.5413 57.2956C55.7503 63.3166 57.0883 62.8706 62.2173 70.2297L70.0224 81.6028L75.1515 89.1849C78.2735 87.1779 80.9496 84.9479 83.6256 82.4949C92.5457 73.5748 97.8978 61.3096 97.8978 47.9295C98.1208 29.4203 87.8626 13.3641 72.9215 5.11298C89.8697 17.6011 97.6748 36.3333 91.2077 55.2885C89.4237 60.4176 86.7476 65.1007 83.4026 69.3377L77.8275 60.8636C77.1585 59.9716 77.1585 58.6336 78.0505 57.7416C80.7266 54.3965 82.9566 50.6055 84.2946 46.8145C91.4307 26.0752 72.0295 4.44398 51.7362 0.875937C47.7222 0.206929 40.5861 -0.462079 37.0181 0.429931C35.6801 0.652934 35.457 1.76795 36.1261 2.43695Z" fill="#020202" fill-opacity="0.8"/>
</svg>
