<svg width="111" height="107" viewBox="0 0 111 107" fill="none" xmlns="http://www.w3.org/2000/svg">
<path d="M80.7455 13.0759C84.2761 13.0759 87.1385 10.2209 87.1385 6.69922C87.1385 3.17746 84.2761 0.32251 80.7455 0.32251C77.2145 0.32251 74.3521 3.17746 74.3521 6.69922C74.3521 10.2209 77.2145 13.0759 80.7455 13.0759Z" fill="#2E2E2E"/>
<path d="M87.9375 103.147C91.4685 103.147 94.3309 100.292 94.3309 96.7706C94.3309 93.2488 91.4685 90.394 87.9375 90.394C84.4068 90.394 81.5444 93.2488 81.5444 96.7706C81.5444 100.292 84.4068 103.147 87.9375 103.147Z" fill="#2E2E2E"/>
<path d="M82.5741 29.0177C85.5376 29.0177 87.9397 26.6217 87.9397 23.666C87.9397 20.7102 85.5376 18.314 82.5741 18.314C79.6107 18.314 77.2083 20.7102 77.2083 23.666C77.2083 26.6217 79.6107 29.0177 82.5741 29.0177Z" fill="#2E2E2E"/>
<path d="M96.8437 31.0672C99.8068 31.0672 102.209 28.671 102.209 25.7152C102.209 22.7598 99.8068 20.3635 96.8437 20.3635C93.8802 20.3635 91.4778 22.7598 91.4778 25.7152C91.4778 28.671 93.8802 31.0672 96.8437 31.0672Z" fill="#2E2E2E"/>
<path d="M80.7479 42.5686C83.2699 42.5686 85.3146 40.5292 85.3146 38.0139C85.3146 35.4983 83.2699 33.459 80.7479 33.459C78.2258 33.459 76.1814 35.4983 76.1814 38.0139C76.1814 40.5292 78.2258 42.5686 80.7479 42.5686Z" fill="#2E2E2E"/>
<path d="M95.0171 44.5044C97.5392 44.5044 99.5836 42.465 99.5836 39.9494C99.5836 37.4338 97.5392 35.3948 95.0171 35.3948C92.4951 35.3948 90.4507 37.4338 90.4507 39.9494C90.4507 42.465 92.4951 44.5044 95.0171 44.5044Z" fill="#2E2E2E"/>
<path d="M106.434 48.9458C108.955 48.9458 111 46.9064 111 44.3908C111 41.8755 108.955 39.8362 106.434 39.8362C103.912 39.8362 101.867 41.8755 101.867 44.3908C101.867 46.9064 103.912 48.9458 106.434 48.9458Z" fill="#2E2E2E"/>
<path d="M90.7941 55.4353C93.0006 55.4353 94.7898 53.651 94.7898 51.45C94.7898 49.2488 93.0006 47.4644 90.7941 47.4644C88.5872 47.4644 86.7981 49.2488 86.7981 51.45C86.7981 53.651 88.5872 55.4353 90.7941 55.4353Z" fill="#2E2E2E"/>
<path d="M76.5216 53.4993C78.7284 53.4993 80.5173 51.7149 80.5173 49.5139C80.5173 47.3127 78.7284 45.5286 76.5216 45.5286C74.3147 45.5286 72.5259 47.3127 72.5259 49.5139C72.5259 51.7149 74.3147 53.4993 76.5216 53.4993Z" fill="#2E2E2E"/>
<path d="M102.323 59.8768C104.529 59.8768 106.318 58.0924 106.318 55.8914C106.318 53.6902 104.529 51.9058 102.323 51.9058C100.116 51.9058 98.3269 53.6902 98.3269 55.8914C98.3269 58.0924 100.116 59.8768 102.323 59.8768Z" fill="#2E2E2E"/>
<path d="M85.0851 63.7482C86.9764 63.7482 88.51 62.2187 88.51 60.3321C88.51 58.4452 86.9764 56.9158 85.0851 56.9158C83.1934 56.9158 81.6602 58.4452 81.6602 60.3321C81.6602 62.2187 83.1934 63.7482 85.0851 63.7482Z" fill="#2E2E2E"/>
<path d="M96.6166 68.0755C98.5082 68.0755 100.041 66.5461 100.041 64.6595C100.041 62.7728 98.5082 61.2434 96.6166 61.2434C94.7249 61.2434 93.1917 62.7728 93.1917 64.6595C93.1917 66.5461 94.7249 68.0755 96.6166 68.0755Z" fill="#2E2E2E"/>
<path d="M70.9278 61.6966C72.8195 61.6966 74.3528 60.1672 74.3528 58.2806C74.3528 56.3939 72.8195 54.8645 70.9278 54.8645C69.0362 54.8645 67.5029 56.3939 67.5029 58.2806C67.5029 60.1672 69.0362 61.6966 70.9278 61.6966Z" fill="#2E2E2E"/>
<path d="M78.8046 69.3285C80.3807 69.3285 81.6584 68.0538 81.6584 66.4818C81.6584 64.9095 80.3807 63.635 78.8046 63.635C77.2282 63.635 75.9504 64.9095 75.9504 66.4818C75.9504 68.0538 77.2282 69.3285 78.8046 69.3285Z" fill="#2E2E2E"/>
<path d="M83.7155 77.185C85.1029 77.185 86.2273 76.0635 86.2273 74.68C86.2273 73.2963 85.1029 72.1748 83.7155 72.1748C82.3285 72.1748 81.2041 73.2963 81.2041 74.68C81.2041 76.0635 82.3285 77.185 83.7155 77.185Z" fill="#2E2E2E"/>
<path d="M77.6651 78.78C78.8002 78.78 79.7201 77.8624 79.7201 76.7304C79.7201 75.5986 78.8002 74.6807 77.6651 74.6807C76.5304 74.6807 75.6101 75.5986 75.6101 76.7304C75.6101 77.8624 76.5304 78.78 77.6651 78.78Z" fill="#2E2E2E"/>
<path d="M72.2964 72.8577C73.6834 72.8577 74.8081 71.7359 74.8081 70.3524C74.8081 68.9689 73.6834 67.8472 72.2964 67.8472C70.9093 67.8472 69.7849 68.9689 69.7849 70.3524C69.7849 71.7359 70.9093 72.8577 72.2964 72.8577Z" fill="#2E2E2E"/>
<path d="M64.5351 67.3927C66.1112 67.3927 67.3889 66.1183 67.3889 64.546C67.3889 62.9737 66.1112 61.6992 64.5351 61.6992C62.9586 61.6992 61.6809 62.9737 61.6809 64.546C61.6809 66.1183 62.9586 67.3927 64.5351 67.3927Z" fill="#2E2E2E"/>
<path d="M64.4196 45.9826C65.996 45.9826 67.2737 44.7081 67.2737 43.1358C67.2737 41.5635 65.996 40.2891 64.4196 40.2891C62.8435 40.2891 61.5654 41.5635 61.5654 43.1358C61.5654 44.7081 62.8435 45.9826 64.4196 45.9826Z" fill="#2E2E2E"/>
<path d="M65.6753 35.9633C67.0624 35.9633 68.1868 34.8416 68.1868 33.4581C68.1868 32.0746 67.0624 30.9531 65.6753 30.9531C64.2883 30.9531 63.1636 32.0746 63.1636 33.4581C63.1636 34.8416 64.2883 35.9633 65.6753 35.9633Z" fill="#2E2E2E"/>
<path d="M68.4183 27.7646C69.5533 27.7646 70.4733 26.847 70.4733 25.7152C70.4733 24.5831 69.5533 23.6655 68.4183 23.6655C67.2835 23.6655 66.3633 24.5831 66.3633 25.7152C66.3633 26.847 67.2835 27.7646 68.4183 27.7646Z" fill="#2E2E2E"/>
<path d="M63.6214 23.8937C65.0084 23.8937 66.1328 22.7723 66.1328 21.3888C66.1328 20.0053 65.0084 18.8835 63.6214 18.8835C62.2343 18.8835 61.1096 20.0053 61.1096 21.3888C61.1096 22.7723 62.2343 23.8937 63.6214 23.8937Z" fill="#2E2E2E"/>
<path d="M90.2206 73.6532C91.797 73.6532 93.0747 72.3788 93.0747 70.8065C93.0747 69.2342 91.797 67.9597 90.2206 67.9597C88.6445 67.9597 87.3665 69.2342 87.3665 70.8065C87.3665 72.3788 88.6445 73.6532 90.2206 73.6532Z" fill="#2E2E2E"/>
<path d="M57.1146 20.5915C58.6908 20.5915 59.9685 19.317 59.9685 17.7447C59.9685 16.1724 58.6908 14.8979 57.1146 14.8979C55.5382 14.8979 54.2605 16.1724 54.2605 17.7447C54.2605 19.317 55.5382 20.5915 57.1146 20.5915Z" fill="#2E2E2E"/>
<path d="M59.0563 32.6623C60.6324 32.6623 61.9104 31.3878 61.9104 29.8155C61.9104 28.2432 60.6324 26.9688 59.0563 26.9688C57.4799 26.9688 56.2021 28.2432 56.2021 29.8155C56.2021 31.3878 57.4799 32.6623 59.0563 32.6623Z" fill="#2E2E2E"/>
<path d="M55.8592 44.1629C57.7509 44.1629 59.2842 42.6335 59.2842 40.7469C59.2842 38.8603 57.7509 37.3308 55.8592 37.3308C53.9676 37.3308 52.4343 38.8603 52.4343 40.7469C52.4343 42.6335 53.9676 44.1629 55.8592 44.1629Z" fill="#2E2E2E"/>
<path d="M45.4701 44.1619C47.6767 44.1619 49.4658 42.3775 49.4658 40.1763C49.4658 37.9753 47.6767 36.1909 45.4701 36.1909C43.2632 36.1909 41.4741 37.9753 41.4741 40.1763C41.4741 42.3775 43.2632 44.1619 45.4701 44.1619Z" fill="#2E2E2E"/>
<path d="M33.3692 46.8957C35.8913 46.8957 37.9357 44.8566 37.9357 42.341C37.9357 39.8254 35.8913 37.7864 33.3692 37.7864C30.8471 37.7864 28.8027 39.8254 28.8027 42.341C28.8027 44.8566 30.8471 46.8957 33.3692 46.8957Z" fill="#2E2E2E"/>
<path d="M20.1267 53.3861C23.0902 53.3861 25.4923 50.9899 25.4923 48.0341C25.4923 45.0783 23.0902 42.6824 20.1267 42.6824C17.1633 42.6824 14.761 45.0783 14.761 48.0341C14.761 50.9899 17.1633 53.3861 20.1267 53.3861Z" fill="#2E2E2E"/>
<path d="M6.42615 64.3174C9.95698 64.3174 12.8193 61.4626 12.8193 57.9408C12.8193 54.419 9.95698 51.564 6.42615 51.564C2.89529 51.564 0.032959 54.419 0.032959 57.9408C0.032959 61.4626 2.89529 64.3174 6.42615 64.3174Z" fill="#2E2E2E"/>
<path d="M14.7607 40.0631C17.7242 40.0631 20.1264 37.6672 20.1264 34.7114C20.1264 31.7556 17.7242 29.3594 14.7607 29.3594C11.7973 29.3594 9.39502 31.7556 9.39502 34.7114C9.39502 37.6672 11.7973 40.0631 14.7607 40.0631Z" fill="#2E2E2E"/>
<path d="M28.003 33.5727C30.5251 33.5727 32.5694 31.5334 32.5694 29.0178C32.5694 26.5025 30.5251 24.4631 28.003 24.4631C25.4809 24.4631 23.4365 26.5025 23.4365 29.0178C23.4365 31.5334 25.4809 33.5727 28.003 33.5727Z" fill="#2E2E2E"/>
<path d="M26.0619 21.5017C28.584 21.5017 30.6283 19.4626 30.6283 16.947C30.6283 14.4314 28.584 12.3921 26.0619 12.3921C23.5398 12.3921 21.4951 14.4314 21.4951 16.947C21.4951 19.4626 23.5398 21.5017 26.0619 21.5017Z" fill="#2E2E2E"/>
<path d="M38.1646 18.7691C40.3715 18.7691 42.1603 16.9847 42.1603 14.7834C42.1603 12.5825 40.3715 10.7981 38.1646 10.7981C35.9578 10.7981 34.1689 12.5825 34.1689 14.7834C34.1689 16.9847 35.9578 18.7691 38.1646 18.7691Z" fill="#2E2E2E"/>
<path d="M48.5514 18.77C50.4427 18.77 51.9763 17.2406 51.9763 15.354C51.9763 13.4671 50.4427 11.9377 48.5514 11.9377C46.6597 11.9377 45.1265 13.4671 45.1265 15.354C45.1265 17.2406 46.6597 18.77 48.5514 18.77Z" fill="#2E2E2E"/>
<path d="M50.493 30.838C52.3847 30.838 53.918 29.3085 53.918 27.4219C53.918 25.5353 52.3847 24.0059 50.493 24.0059C48.6014 24.0059 47.0681 25.5353 47.0681 27.4219C47.0681 29.3085 48.6014 30.838 50.493 30.838Z" fill="#2E2E2E"/>
<path d="M40.1034 30.9541C42.31 30.9541 44.0991 29.1698 44.0991 26.9685C44.0991 24.7676 42.31 22.9832 40.1034 22.9832C37.8965 22.9832 36.1074 24.7676 36.1074 26.9685C36.1074 29.1698 37.8965 30.9541 40.1034 30.9541Z" fill="#2E2E2E"/>
<path d="M28.8006 61.2429C29.9354 61.2429 30.8553 60.3253 30.8553 59.1932C30.8553 58.0612 29.9354 57.1436 28.8006 57.1436C27.6656 57.1436 26.7456 58.0612 26.7456 59.1932C26.7456 60.3253 27.6656 61.2429 28.8006 61.2429Z" fill="#2E2E2E"/>
<path d="M37.021 60.218C38.4081 60.218 39.5325 59.0965 39.5325 57.713C39.5325 56.3295 38.4081 55.2078 37.021 55.2078C35.6337 55.2078 34.5093 56.3295 34.5093 57.713C34.5093 59.0965 35.6337 60.218 37.021 60.218Z" fill="#2E2E2E"/>
<path d="M46.0392 56.8029C47.6156 56.8029 48.8934 55.5284 48.8934 53.9561C48.8934 52.3839 47.6156 51.1094 46.0392 51.1094C44.4631 51.1094 43.1851 52.3839 43.1851 53.9561C43.1851 55.5284 44.4631 56.8029 46.0392 56.8029Z" fill="#2E2E2E"/>
<path d="M48.2108 65.9117C50.1024 65.9117 51.6357 64.3823 51.6357 62.4956C51.6357 60.609 50.1024 59.0796 48.2108 59.0796C46.3195 59.0796 44.7859 60.609 44.7859 62.4956C44.7859 64.3823 46.3195 65.9117 48.2108 65.9117Z" fill="#2E2E2E"/>
<path d="M37.2511 68.0734C38.8275 68.0734 40.1053 66.7989 40.1053 65.2269C40.1053 63.6546 38.8275 62.3801 37.2511 62.3801C35.675 62.3801 34.397 63.6546 34.397 65.2269C34.397 66.7989 35.675 68.0734 37.2511 68.0734Z" fill="#2E2E2E"/>
<path d="M27.5464 67.9602C28.9337 67.9602 30.0581 66.8384 30.0581 65.455C30.0581 64.0715 28.9337 62.9497 27.5464 62.9497C26.1593 62.9497 25.0349 64.0715 25.0349 65.455C25.0349 66.8384 26.1593 67.9602 27.5464 67.9602Z" fill="#2E2E2E"/>
<path d="M27.6581 75.8188C29.2345 75.8188 30.5122 74.5443 30.5122 72.972C30.5122 71.4 29.2345 70.1252 27.6581 70.1252C26.0819 70.1252 24.8042 71.4 24.8042 72.972C24.8042 74.5443 26.0819 75.8188 27.6581 75.8188Z" fill="#2E2E2E"/>
<path d="M39.3046 77.2977C41.1962 77.2977 42.7295 75.7682 42.7295 73.8816C42.7295 71.995 41.1962 70.4656 39.3046 70.4656C37.4129 70.4656 35.8796 71.995 35.8796 73.8816C35.8796 75.7682 37.4129 77.2977 39.3046 77.2977Z" fill="#2E2E2E"/>
<path d="M52.893 75.8182C55.0995 75.8182 56.8886 74.0338 56.8886 71.8328C56.8886 69.6316 55.0995 67.8472 52.893 67.8472C50.6861 67.8472 48.897 69.6316 48.897 71.8328C48.897 74.0338 50.6861 75.8182 52.893 75.8182Z" fill="#2E2E2E"/>
<path d="M60.8812 85.7246C63.4032 85.7246 65.4476 83.6855 65.4476 81.1699C65.4476 78.6543 63.4032 76.615 60.8812 76.615C58.3591 76.615 56.3147 78.6543 56.3147 81.1699C56.3147 83.6855 58.3591 85.7246 60.8812 85.7246Z" fill="#2E2E2E"/>
<path d="M44.0992 87.0911C46.3061 87.0911 48.0949 85.3067 48.0949 83.1057C48.0949 80.9045 46.3061 79.1204 44.0992 79.1204C41.8923 79.1204 40.1035 80.9045 40.1035 83.1057C40.1035 85.3067 41.8923 87.0911 44.0992 87.0911Z" fill="#2E2E2E"/>
<path d="M34.6251 94.8335C36.8317 94.8335 38.6208 93.0491 38.6208 90.8481C38.6208 88.6469 36.8317 86.8628 34.6251 86.8628C32.4183 86.8628 30.6292 88.6469 30.6292 90.8481C30.6292 93.0491 32.4183 94.8335 34.6251 94.8335Z" fill="#2E2E2E"/>
<path d="M42.5005 104.855C45.0226 104.855 47.0673 102.816 47.0673 100.301C47.0673 97.785 45.0226 95.7456 42.5005 95.7456C39.9785 95.7456 37.9341 97.785 37.9341 100.301C37.9341 102.816 39.9785 104.855 42.5005 104.855Z" fill="#2E2E2E"/>
<path d="M63.5068 106.678C66.4702 106.678 68.8724 104.281 68.8724 101.326C68.8724 98.3698 66.4702 95.9739 63.5068 95.9739C60.5433 95.9739 58.1409 98.3698 58.1409 101.326C58.1409 104.281 60.5433 106.678 63.5068 106.678Z" fill="#2E2E2E"/>
<path d="M51.9778 97.1103C54.4999 97.1103 56.5446 95.071 56.5446 92.5557C56.5446 90.0401 54.4999 88.0007 51.9778 88.0007C49.456 88.0007 47.4114 90.0401 47.4114 92.5557C47.4114 95.071 49.456 97.1103 51.9778 97.1103Z" fill="#2E2E2E"/>
<path d="M72.3002 95.2901C75.2636 95.2901 77.6661 92.8939 77.6661 89.9381C77.6661 86.9824 75.2636 84.5864 72.3002 84.5864C69.337 84.5864 66.9346 86.9824 66.9346 89.9381C66.9346 92.8939 69.337 95.2901 72.3002 95.2901Z" fill="#2E2E2E"/>
<path d="M29.8302 85.0426C31.7215 85.0426 33.2551 83.5131 33.2551 81.6265C33.2551 79.7399 31.7215 78.2104 29.8302 78.2104C27.9386 78.2104 26.4053 79.7399 26.4053 81.6265C26.4053 83.5131 27.9386 85.0426 29.8302 85.0426Z" fill="#2E2E2E"/>
</svg>
