<svg width="148" height="25" viewBox="0 0 148 25" fill="none" xmlns="http://www.w3.org/2000/svg">
<path d="M148.001 19.9058C147.112 19.8985 146.223 19.8768 145.327 19.8985C145.002 19.9058 144.922 19.8045 144.922 19.4933C144.929 16.0348 144.929 12.569 144.929 9.11051C144.929 9.07433 144.929 9.03816 144.929 9.00198C144.922 8.50997 144.655 8.16267 144.279 8.1482C143.925 8.14096 143.643 8.50274 143.643 9.00198C143.643 12.475 143.643 15.948 143.643 19.421C143.643 19.5585 143.643 19.7032 143.643 19.8696C142.61 19.8696 141.62 19.8696 140.572 19.8696C140.572 19.7176 140.572 19.5729 140.572 19.4355C140.572 16.0131 140.572 12.5835 140.565 9.16116C140.565 8.92239 140.536 8.67639 140.456 8.45932C140.37 8.20608 140.16 8.0469 139.871 8.05414C139.582 8.06138 139.401 8.23503 139.322 8.4955C139.264 8.69086 139.242 8.89345 139.242 9.09604C139.235 12.5329 139.242 15.9697 139.242 19.4065C139.242 19.5512 139.242 19.6959 139.242 19.8913C138.874 19.8913 138.527 19.8913 138.187 19.8913C137.631 19.8913 137.082 19.8768 136.525 19.8985C136.236 19.913 136.157 19.8117 136.157 19.5295C136.164 17.1129 136.164 14.6963 136.164 12.2796C136.164 10.1741 136.171 8.07585 136.157 5.97034C136.157 5.67369 136.236 5.57239 136.54 5.57963C137.212 5.60133 137.891 5.5941 138.563 5.57963C138.838 5.57239 138.939 5.65921 138.968 5.9414C139.004 6.3104 139.098 6.67217 139.185 7.13524C139.604 6.02099 140.203 5.23956 141.446 5.34086C142.234 5.40598 142.776 5.97034 143.318 7.2293C143.477 6.91818 143.6 6.58535 143.795 6.29593C144.705 4.94291 146.671 5.00079 147.487 6.41893C147.704 6.79518 147.827 7.2293 147.986 7.64172C148.001 11.7297 148.001 15.8177 148.001 19.9058Z" fill="white"/>
<path d="M0.00722624 4.32065C0.0578099 4.10358 0.101167 3.87929 0.151751 3.66222C0.592551 1.80272 1.82101 0.717406 3.61312 0.218162C4.66815 -0.0784902 5.73763 -0.0784902 6.77821 0.254339C8.44747 0.782525 9.43024 1.96913 9.61812 3.66946C9.75542 4.89948 9.64702 6.16568 9.64702 7.43911C8.55586 7.43911 7.44302 7.43911 6.30128 7.43911C6.29405 7.30888 6.28682 7.17864 6.28682 7.05564C6.28682 6.18739 6.29405 5.32637 6.2796 4.45812C6.27237 3.78522 5.87493 3.43069 5.15953 3.43069C4.45859 3.43069 4.03947 3.79246 4.03947 4.45812C4.03224 8.24224 4.03224 12.0336 4.03947 15.8177C4.03947 16.4689 4.45859 16.8235 5.14508 16.8307C5.86048 16.8379 6.27237 16.4834 6.2796 15.8177C6.29405 14.8192 6.2796 13.8208 6.2796 12.8006C7.41412 12.8006 8.52696 12.8006 9.66148 12.8006C9.6687 12.8512 9.69038 12.9091 9.69038 12.967C9.69038 14.0161 9.71929 15.058 9.67593 16.0999C9.59644 18.0245 8.56309 19.4137 6.83602 19.9998C4.67537 20.7306 2.05225 19.9419 0.816565 18.1765C0.397443 17.5759 0.144525 16.9103 0.0650361 16.1795C0.0578099 16.0999 0.0216787 16.0203 0 15.9407C0.00722624 12.0625 0.00722624 8.1916 0.00722624 4.32065Z" fill="white"/>
<path d="M111.436 24.6666C111.429 23.8997 111.414 23.1327 111.422 22.3586C111.422 22.279 111.573 22.1343 111.646 22.1343C112.787 22.2066 113.019 21.6784 113.264 20.5425C113.539 19.2907 113.228 18.1186 113.004 16.9175C112.513 14.2983 112.014 11.6863 111.515 9.07432C111.306 7.98177 111.104 6.88199 110.901 5.7822C110.887 5.70261 110.887 5.62302 110.872 5.52173C111.898 5.52173 112.91 5.52173 113.965 5.52173C114.312 8.3146 114.659 11.093 115.006 13.9003C115.338 11.1075 115.663 8.32907 115.988 5.5362C116.978 5.5362 117.932 5.5362 118.944 5.5362C118.886 5.8835 118.843 6.22356 118.778 6.55639C118.33 8.93685 117.882 11.3245 117.434 13.705C117 16.0203 116.588 18.3284 116.14 20.6438C116.025 21.2515 115.844 21.8593 115.649 22.4454C115.194 23.8056 114.196 24.4785 112.794 24.6088C112.679 24.616 112.563 24.6449 112.44 24.6666C112.108 24.6666 111.776 24.6666 111.436 24.6666Z" fill="white"/>
<path d="M75.55 10.0366C75.4849 10.449 75.4271 10.8542 75.3693 11.2666C74.9791 14.0378 74.5816 16.809 74.1914 19.5801C74.1697 19.7393 74.1553 19.884 73.9241 19.884C72.9341 19.8768 71.9513 19.884 70.8963 19.884C69.8918 13.4083 68.8946 6.9471 67.8901 0.44969C68.0563 0.435219 68.1647 0.420749 68.2731 0.420749C69.3065 0.420749 70.3471 0.427984 71.3804 0.413513C71.6406 0.413513 71.7273 0.493103 71.7562 0.753578C72.1103 4.11081 72.4716 7.46805 72.8401 10.8253C72.8835 11.216 72.9341 11.5995 73.0569 11.983C73.5194 8.14094 73.9746 4.29893 74.4371 0.442455C75.391 0.442455 76.2943 0.442455 77.2553 0.442455C77.6745 4.2917 78.0936 8.13371 78.5199 12.0481C78.5777 11.9395 78.6211 11.9034 78.6283 11.86C78.968 9.04537 79.3004 6.23079 79.6328 3.42345C79.7412 2.52626 79.8423 1.6363 79.9363 0.739107C79.958 0.550986 79.9869 0.420749 80.2253 0.420749C81.2587 0.427984 82.2993 0.427984 83.3326 0.427984C83.3687 0.427984 83.3977 0.44969 83.4771 0.471397C83.3904 1.00682 83.3182 1.54947 83.2242 2.09213C82.8557 4.2917 82.4872 6.4985 82.1186 8.69807C81.7067 11.1726 81.2948 13.6471 80.8829 16.1216C80.695 17.2359 80.5144 18.3501 80.3482 19.4644C80.3048 19.79 80.1892 19.9057 79.8496 19.8913C78.9824 19.8623 78.1153 19.8768 77.2481 19.884C77.0097 19.884 76.9229 19.8261 76.8868 19.5729C76.6411 17.6411 76.381 15.7164 76.1281 13.7918C75.9619 12.5401 75.8173 11.2956 75.6583 10.0439C75.6222 10.0366 75.5861 10.0366 75.55 10.0366Z" fill="white"/>
<path d="M30.8559 19.8479C29.8009 19.8479 28.7603 19.8479 27.6836 19.8479C27.6836 19.6742 27.6836 19.515 27.6836 19.3631C27.6836 15.948 27.6836 12.5329 27.6836 9.11774C27.6836 8.92961 27.6619 8.72702 27.6041 8.55337C27.4957 8.24225 27.2573 8.05413 26.9176 8.08307C26.5708 8.11201 26.3829 8.34355 26.3106 8.6619C26.2673 8.85002 26.2745 9.04538 26.2745 9.2335C26.2745 12.6124 26.2745 15.9914 26.2745 19.3703C26.2745 19.5223 26.2745 19.6742 26.2745 19.8479C25.1833 19.8479 24.1428 19.8479 23.0661 19.8479C23.0661 19.667 23.0661 19.515 23.0661 19.3631C23.0661 15.9263 23.0661 12.4894 23.0661 9.04538C23.0661 8.8645 23.066 8.67637 23.0155 8.50996C22.9143 8.1916 22.7192 7.96007 22.3434 7.9673C22.0399 7.97454 21.7726 8.19884 21.7003 8.54614C21.6642 8.73426 21.6642 8.92961 21.6642 9.11774C21.6642 12.5329 21.6642 15.948 21.6642 19.3631C21.6642 19.515 21.6642 19.667 21.6642 19.8479C20.573 19.8479 19.5324 19.8479 18.4413 19.8479C18.434 19.7249 18.4196 19.5946 18.4196 19.4716C18.4196 14.9495 18.4196 10.4346 18.4124 5.91244C18.4124 5.60132 18.4846 5.49279 18.8098 5.50726C19.518 5.52897 20.2334 5.52897 20.9415 5.50726C21.2378 5.50002 21.339 5.61579 21.3751 5.8835C21.4257 6.25974 21.5052 6.63599 21.5991 7.13523C22.0255 6.02098 22.6253 5.22508 23.832 5.27573C25.046 5.32637 25.5663 6.2091 25.9782 7.251C26.0577 7.07011 26.1155 6.93264 26.1733 6.8024C26.6214 5.73156 27.4451 5.21061 28.5797 5.27573C29.5552 5.33361 30.4296 6.04992 30.7042 7.05564C30.8126 7.44635 30.8776 7.85877 30.8776 8.26396C30.8921 12.0119 30.8848 15.7671 30.8848 19.515C30.8704 19.6091 30.8559 19.7176 30.8559 19.8479Z" fill="white"/>
<path d="M34.6645 19.0664C34.6645 19.5584 34.6645 19.9636 34.6645 20.3688C34.6645 21.6278 34.6573 22.894 34.6717 24.1529C34.6717 24.4424 34.6067 24.5581 34.296 24.5509C33.4794 24.5292 32.6556 24.5292 31.839 24.5509C31.5355 24.5581 31.4561 24.4568 31.4561 24.1602C31.4633 20.651 31.4633 17.1418 31.4633 13.6326C31.4633 11.0858 31.4633 8.53889 31.4633 5.98479C31.4633 5.84008 31.4633 5.70261 31.4633 5.52896C32.3593 5.52896 33.2193 5.52896 34.1009 5.52896C34.1514 5.86179 34.202 6.18738 34.2598 6.54915C34.3249 6.49127 34.361 6.46956 34.3899 6.43339C35.1198 5.45661 36.1387 5.07313 37.266 5.35531C38.2559 5.60131 38.9786 6.46956 39.1448 7.63447C39.1954 7.9673 39.217 8.30736 39.217 8.64019C39.2243 11.4186 39.2243 14.1898 39.217 16.9682C39.217 17.7206 39.0436 18.4225 38.6173 19.0447C37.7429 20.3109 36.2326 20.4846 35.0909 19.4571C34.968 19.3559 34.8524 19.2401 34.6645 19.0664ZM36.0303 12.7282C36.0303 11.5054 36.0303 10.2754 36.0303 9.05261C36.0303 8.89343 36.023 8.74149 36.0086 8.58231C35.9652 8.24224 35.7412 8.00347 35.4449 7.97453C35.1125 7.94559 34.8307 8.11924 34.7295 8.45207C34.679 8.61848 34.6717 8.80661 34.6717 8.98749C34.6645 11.4475 34.6717 13.9148 34.6717 16.3749C34.6717 16.5196 34.6717 16.6643 34.6934 16.809C34.7584 17.1635 35.0692 17.4457 35.3799 17.4457C35.6979 17.4385 35.9652 17.149 36.0086 16.7656C36.023 16.6209 36.0303 16.4762 36.0303 16.3314C36.0303 15.1304 36.0303 13.9293 36.0303 12.7282Z" fill="white"/>
<path d="M98.689 0.42804C99.7584 0.42804 100.799 0.42804 101.89 0.42804C101.89 4.12534 101.89 7.80094 101.89 11.4765C101.919 11.4838 101.955 11.4838 101.984 11.491C102.519 9.49402 103.046 7.49705 103.581 5.50007C104.593 5.50007 105.576 5.50007 106.623 5.50007C106.508 5.89078 106.407 6.26702 106.291 6.63603C105.778 8.30018 105.258 9.95709 104.759 11.6285C104.708 11.7877 104.716 11.983 104.759 12.1494C105.417 14.6095 106.089 17.0623 106.753 19.5151C106.782 19.6164 106.797 19.7177 106.833 19.8769C106.378 19.8769 105.959 19.8769 105.547 19.8769C105.077 19.8769 104.607 19.8551 104.138 19.8841C103.812 19.9058 103.704 19.7756 103.646 19.4789C103.285 17.8292 102.916 16.1796 102.519 14.4141C102.41 14.6891 102.345 14.8627 102.266 15.0364C101.977 15.6875 101.869 16.3532 101.897 17.0695C101.934 17.9812 101.905 18.8928 101.905 19.8407C100.828 19.8407 99.7801 19.8407 98.6962 19.8407C98.689 13.3867 98.689 6.93268 98.689 0.42804Z" fill="white"/>
<path d="M47.5342 19.8479C46.6092 19.8479 45.6987 19.8479 44.7593 19.8479C44.7159 19.421 44.6726 19.0013 44.6148 18.4731C44.4775 18.6757 44.398 18.7987 44.3113 18.9145C43.473 20.1228 41.8543 20.4701 40.7632 19.667C40.1995 19.2473 39.9322 18.654 39.8165 17.9811C39.766 17.6772 39.7515 17.3589 39.7515 17.0478C39.7443 13.3577 39.7515 9.66763 39.7515 5.97757C39.7515 5.83286 39.7515 5.69539 39.7515 5.52174C39.9177 5.5145 40.0478 5.50003 40.1779 5.50003C40.9511 5.50003 41.717 5.50003 42.4903 5.50003C42.9672 5.50003 42.9672 5.50003 42.9672 5.99204C42.9672 8.42314 42.9672 10.847 42.9672 13.2781C42.9672 14.2911 42.9672 15.2968 42.9672 16.3098C42.9672 16.3966 42.9672 16.4762 42.9672 16.563C42.9816 17.0695 43.2996 17.4457 43.6898 17.4385C44.0583 17.424 44.3618 17.0405 44.3618 16.5558C44.3618 13.0466 44.3618 9.5374 44.3618 6.02822C44.3618 5.87627 44.3618 5.71709 44.3618 5.53621C45.4313 5.53621 46.4647 5.53621 47.5269 5.53621C47.5342 10.3116 47.5342 15.0653 47.5342 19.8479Z" fill="white"/>
<path d="M17.8489 12.721C17.8489 13.9003 17.8633 15.0725 17.8489 16.2518C17.791 19.6959 14.4959 20.8174 12.2052 19.6814C10.8828 19.023 10.2541 17.8581 10.2252 16.44C10.1674 13.9437 10.1818 11.4403 10.2179 8.94406C10.2469 6.9905 11.7066 5.45659 13.6143 5.2757C15.6304 5.08758 17.2852 6.25249 17.7405 8.19881C17.8199 8.54611 17.8489 8.90789 17.8561 9.26966C17.8561 10.4129 17.8489 11.5705 17.8489 12.721ZM14.7127 12.6775C14.7127 11.8744 14.7127 11.064 14.7127 10.2609C14.7127 9.69655 14.7199 9.13218 14.691 8.56782C14.6693 8.18434 14.4019 7.90216 14.0768 7.86598C13.766 7.82981 13.4553 8.06858 13.3469 8.43758C13.3036 8.58229 13.2963 8.74147 13.2963 8.90065C13.2891 9.91361 13.2963 10.9193 13.2963 11.9323C13.2963 13.4951 13.2963 15.058 13.2963 16.6208C13.2963 17.1346 13.5998 17.5108 13.9973 17.5253C14.3947 17.5397 14.691 17.178 14.7127 16.6498C14.7199 16.5557 14.7127 16.4544 14.7127 16.3604C14.7127 15.1303 14.7127 13.9076 14.7127 12.6775Z" fill="white"/>
<path d="M95.256 14.5805C96.2243 14.5805 97.1493 14.5805 98.0742 14.5805C98.0887 14.6022 98.1248 14.6167 98.1248 14.6312C98.1032 15.4705 98.1682 16.3243 98.0381 17.1419C97.7491 18.8856 96.3183 20.0433 94.5406 20.0939C92.6907 20.1446 91.1732 19.052 90.7469 17.3372C90.6457 16.9465 90.5879 16.5341 90.5807 16.1289C90.5662 13.8353 90.5517 11.5344 90.5807 9.24078C90.5951 7.59834 91.2527 6.3032 92.8063 5.58689C95.2921 4.44369 98.0598 6.14402 98.1393 8.87177C98.1754 10.2031 98.1465 11.5416 98.1465 12.873C98.1465 12.9453 98.1321 13.0104 98.1248 13.119C96.6651 13.119 95.2271 13.119 93.7746 13.119C93.753 13.2058 93.7241 13.2637 93.7241 13.3143C93.7241 14.443 93.7096 15.5718 93.7241 16.7077C93.7313 17.3589 94.3022 17.7207 94.8441 17.4313C95.1549 17.2649 95.256 16.9682 95.256 16.6426C95.256 15.9697 95.256 15.2968 95.256 14.5805ZM95.126 11.5489C95.126 10.5214 95.1476 9.51573 95.1115 8.51C95.097 8.11205 94.7502 7.85158 94.4106 7.86605C94.0565 7.88052 93.7457 8.20611 93.7241 8.62577C93.7024 9.00925 93.7168 9.39272 93.7168 9.7762C93.7168 10.3623 93.7168 10.9483 93.7168 11.5489C94.2082 11.5489 94.6635 11.5489 95.126 11.5489Z" fill="white"/>
<path d="M61.9217 13.1334C60.4258 13.1334 58.9806 13.1334 57.5281 13.1334C57.5137 13.2202 57.492 13.2781 57.492 13.336C57.492 14.4575 57.4775 15.5717 57.5064 16.686C57.5137 16.9103 57.6221 17.1925 57.7883 17.3517C58.1857 17.7279 58.865 17.4819 58.9661 16.9392C59.0312 16.5847 59.0167 16.2229 59.024 15.8612C59.0312 15.4415 59.024 15.0291 59.024 14.5877C59.9995 14.5877 60.9317 14.5877 61.8928 14.5877C61.9578 16.2591 62.0951 17.9522 60.6571 19.1967C59.5298 20.1735 58.2074 20.3399 56.8272 19.8696C55.447 19.3993 54.6593 18.3791 54.4136 16.9392C54.363 16.6209 54.3414 16.2953 54.3414 15.9697C54.3341 13.6978 54.3341 11.4258 54.3414 9.15392C54.3486 7.95284 54.7532 6.90371 55.6927 6.12952C56.8416 5.18891 58.1568 5.00079 59.5298 5.4928C60.8522 5.97034 61.6182 6.9833 61.8205 8.35803C61.9361 9.13945 61.9 9.93535 61.9072 10.7312C61.9361 11.5127 61.9217 12.2941 61.9217 13.1334ZM58.93 11.5561C58.93 10.5431 58.9372 9.58081 58.9228 8.61127C58.9228 8.45932 58.8361 8.28567 58.7421 8.15543C58.4675 7.76472 57.9039 7.77919 57.6582 8.19161C57.557 8.35803 57.5064 8.57509 57.5064 8.77045C57.492 9.62422 57.4992 10.4708 57.4992 11.3245C57.4992 11.4041 57.5281 11.4837 57.5426 11.5633C58.0051 11.5561 58.4459 11.5561 58.93 11.5561Z" fill="white"/>
<path d="M90.068 13.1261C89.7645 13.1261 89.4899 13.1261 89.2153 13.1261C88.1314 13.1261 87.0474 13.1334 85.9635 13.1189C85.7323 13.1189 85.6455 13.1913 85.6455 13.4228C85.6528 14.4936 85.6383 15.5645 85.6528 16.6353C85.66 17.3227 86.1514 17.6845 86.715 17.4529C87.0836 17.301 87.1775 16.9826 87.192 16.6281C87.2064 16.0999 87.1992 15.5717 87.1992 15.0435C87.1992 14.8988 87.1992 14.7614 87.1992 14.5877C88.1675 14.5877 89.0997 14.5877 90.0752 14.5877C90.0969 15.9263 90.2559 17.2865 89.4393 18.4804C88.5071 19.8479 87.163 20.2892 85.595 20.0143C84.0847 19.7538 83.1019 18.8349 82.6756 17.3589C82.5888 17.0622 82.5383 16.7439 82.531 16.44C82.5238 13.9293 82.4949 11.4114 82.5383 8.90066C82.5599 7.5187 83.2031 6.42615 84.4243 5.73878C86.5488 4.5377 89.75 5.46384 90.0463 8.69807C90.1764 10.1524 90.068 11.6139 90.068 13.1261ZM87.0763 11.5416C87.0763 10.5142 87.1052 9.50844 87.0619 8.50271C87.0402 8.04688 86.5633 7.7647 86.1803 7.89494C85.8117 8.02518 85.6672 8.32183 85.66 8.67636C85.6455 9.09602 85.6528 9.51567 85.6528 9.93533C85.6528 10.4635 85.6528 10.9845 85.6528 11.5344C86.1514 11.5416 86.5994 11.5416 87.0763 11.5416Z" fill="white"/>
<path d="M135.564 12.721C135.564 13.9366 135.6 15.1521 135.557 16.3604C135.507 17.7424 135.001 18.9218 133.729 19.6308C132.5 20.311 131.229 20.2965 130.022 19.5874C128.829 18.8856 128.316 17.7279 128.295 16.4038C128.244 13.951 128.259 11.4982 128.287 9.04542C128.309 7.20763 129.458 5.78948 131.149 5.39877C132.977 4.97912 134.849 6.07166 135.34 7.88052C135.478 8.37253 135.535 8.89348 135.55 9.39996C135.579 10.507 135.557 11.614 135.564 12.721C135.557 12.721 135.557 12.721 135.564 12.721ZM132.551 12.7644C132.551 11.8889 132.551 11.0135 132.551 10.1307C132.551 9.6532 132.558 9.16842 132.551 8.69089C132.544 8.2857 132.284 7.98182 131.951 7.96011C131.59 7.9384 131.33 8.18441 131.272 8.60406C131.25 8.74877 131.243 8.89348 131.243 9.03819C131.243 11.5127 131.243 13.9872 131.243 16.4617C131.243 16.6064 131.257 16.7511 131.279 16.8886C131.344 17.2576 131.612 17.5181 131.915 17.5109C132.219 17.5109 132.508 17.1997 132.551 16.8307C132.558 16.7439 132.551 16.6643 132.551 16.5775C132.551 15.3113 132.551 14.0379 132.551 12.7644Z" fill="white"/>
<path d="M127.825 10.9483C126.907 10.9483 126.098 10.9483 125.231 10.9483C125.231 10.3333 125.238 9.72552 125.231 9.11774C125.231 8.90068 125.216 8.68362 125.151 8.48103C125.057 8.15543 124.833 7.95284 124.465 7.96731C124.096 7.98178 123.858 8.16267 123.771 8.52444C123.735 8.67638 123.72 8.83556 123.72 8.98751C123.72 11.4982 123.72 14.0089 123.72 16.5196C123.72 16.6715 123.742 16.8307 123.785 16.9826C123.887 17.3155 124.118 17.5108 124.472 17.5181C124.819 17.5253 125.043 17.33 125.144 17.0188C125.209 16.8307 125.231 16.6209 125.231 16.4183C125.238 15.796 125.238 15.1738 125.238 14.5226C126.083 14.5226 126.893 14.5226 127.753 14.5226C127.767 15.948 127.933 17.4023 127.088 18.6974C126.365 19.8045 125.281 20.2097 124.009 20.0939C122.687 19.9709 121.675 19.3125 121.162 18.0824C120.917 17.5036 120.772 16.8307 120.758 16.2012C120.714 13.8859 120.714 11.5633 120.75 9.24075C120.772 7.73578 121.307 6.44787 122.723 5.72433C124.819 4.65349 127.109 5.70262 127.594 7.99625C127.781 8.94409 127.753 9.94258 127.825 10.9483Z" fill="white"/>
<path d="M107.252 19.8768C107.252 13.3794 107.252 6.93265 107.252 0.442475C107.368 0.435239 107.476 0.413533 107.592 0.413533C108.423 0.413533 109.254 0.420768 110.085 0.406297C110.388 0.399062 110.475 0.493122 110.468 0.789775C110.453 2.86634 110.46 4.95014 110.46 7.02671C110.46 11.1581 110.453 15.2968 110.468 19.4282C110.468 19.7972 110.366 19.8985 110.005 19.8841C109.225 19.8551 108.437 19.8768 107.657 19.8768C107.534 19.8768 107.404 19.8768 107.252 19.8768Z" fill="white"/>
<path d="M47.9607 8.24224C47.9607 7.33058 47.9607 6.49851 47.9607 5.61578C48.4521 5.61578 48.929 5.61578 49.4493 5.61578C49.4493 4.92842 49.4565 4.28447 49.4421 3.64051C49.4348 3.38004 49.4999 3.27151 49.7817 3.21362C50.5694 3.04721 51.3498 2.83738 52.1302 2.64926C52.2459 2.62032 52.3615 2.59861 52.5277 2.56967C52.5277 3.58987 52.5277 4.57388 52.5277 5.61578C53.0841 5.61578 53.5899 5.61578 54.1391 5.61578C54.1391 6.46956 54.1464 7.26546 54.1247 8.06859C54.1247 8.13371 53.9512 8.23501 53.8501 8.24224C53.4237 8.26395 52.9902 8.24948 52.5277 8.24948C52.5277 8.41589 52.5277 8.51719 52.5277 8.62572C52.5277 11.2088 52.5205 13.7918 52.5421 16.3749C52.5494 17.5398 52.665 18.6974 53.0986 19.8334C53.0118 19.8479 52.9323 19.8768 52.8529 19.8768C51.964 19.8768 51.068 19.8696 50.1792 19.884C49.9551 19.884 49.8612 19.7972 49.7962 19.6019C49.4276 18.5455 49.3409 17.4457 49.3337 16.3387C49.3265 13.7918 49.3192 11.2449 49.3337 8.69807C49.3337 8.32183 49.2253 8.2133 48.864 8.24224C48.5822 8.26395 48.2859 8.24224 47.9607 8.24224Z" fill="white"/>
<path d="M68.2737 5.34806C68.2737 6.49849 68.2737 7.60551 68.2737 8.74148C68.1364 8.74148 68.0063 8.73424 67.8834 8.74148C67.5005 8.77042 67.1102 8.77042 66.7417 8.85724C66.0913 9.00195 65.7589 9.46502 65.6794 10.109C65.6578 10.3116 65.6578 10.5142 65.6578 10.724C65.6578 13.582 65.6578 16.4472 65.6578 19.3052C65.6578 19.9636 65.7083 19.8696 65.0724 19.8768C64.3354 19.884 63.6055 19.8768 62.8684 19.8768C62.7384 19.8768 62.6083 19.8768 62.4276 19.8768C62.4276 19.6959 62.4276 19.5512 62.4276 19.4137C62.4276 14.9278 62.4349 10.449 62.4204 5.96307C62.4204 5.59407 62.5143 5.48554 62.8829 5.50724C63.5694 5.53618 64.2559 5.52171 64.9424 5.51448C65.1736 5.50724 65.2531 5.58683 65.2603 5.81837C65.2892 6.31037 65.3543 6.79515 65.4265 7.30886C65.889 5.95584 66.7056 5.12376 68.2737 5.34806Z" fill="white"/>
<path d="M117.528 16.1506C118.424 16.1506 119.312 16.1506 120.223 16.1506C120.223 17.3806 120.223 18.6106 120.223 19.8696C119.327 19.8696 118.438 19.8696 117.528 19.8696C117.528 18.6323 117.528 17.4023 117.528 16.1506Z" fill="white"/>
</svg>
