<svg width="47" height="27" viewBox="0 0 47 27" fill="none" xmlns="http://www.w3.org/2000/svg">
<path d="M0.280029 14.0307L7.94822 9.42453H27.5495L18.5028 14.0307H0.280029Z" fill="white"/>
<path d="M47 24.0071H13.0101L0 26.9788H31.6421L47 24.0071Z" fill="white"/>
<path d="M29.8327 8.63915C30.8451 6.98349 32.6544 5.37028 35.7777 4.1816C35.7777 4.1816 39.8918 3.375 41.9381 6.87736L45.7722 4.1816C45.7722 4.1816 43.0366 0 37.0055 0C30.9743 0 27.4202 4.33019 27.4202 4.33019C27.4202 4.33019 25.5032 6.77123 24.8139 8.51179C24.8139 8.51179 24.7923 8.55425 24.7493 8.66038H29.8327V8.63915Z" fill="white"/>
<path d="M35.0885 13.6274H40.7104L40.0211 17.1297C40.0211 17.1297 36.3163 20.3774 33.0422 19.1462C29.7466 17.9363 29.2081 15.8986 29.2081 15.8986C29.2081 15.8986 27.9803 12.9057 29.2727 9.74294L24.017 12.4175C23.9524 14.5826 24.4909 17.3632 26.731 20.1014C31.3836 25.7689 39.2026 22.5425 39.2026 22.5425C39.2026 22.5425 43.8552 20.25 44.6737 18.3609L45.7723 9.84907C45.7723 9.84907 35.7778 9.84907 35.7778 9.72171L35.0885 13.6274Z" fill="white"/>
<path d="M25.6325 0.38208L25.0724 4.43633H14.2594L12.3424 19.1462H23.0261L22.7461 22.9245H6.72046L10.1453 0.38208C10.1453 0.38208 25.8263 0.594344 25.6325 0.38208Z" fill="white"/>
</svg>
