<svg width="1030" height="873" viewBox="0 0 1030 873" fill="none" xmlns="http://www.w3.org/2000/svg">
<rect opacity="0.31" x="696.707" y="587" width="83.8528" height="83.8528" rx="2.5" transform="rotate(-45 696.707 587)" stroke="#8EAAC6"/>
<rect opacity="0.31" x="528.742" y="265.232" width="34.0526" height="34.0526" rx="2.5" transform="rotate(-60 528.742 265.232)" stroke="#8EAAC6"/>
<g style="mix-blend-mode:overlay">
<rect x="596.691" y="496.082" width="35.8907" height="35.8907" rx="2.5" transform="rotate(-32.7029 596.691 496.082)" stroke="#C8D6ED"/>
</g>
<rect x="890.707" y="772.829" width="31.2847" height="31.2847" rx="2.5" transform="rotate(-45 890.707 772.829)" stroke="#C8D6ED"/>
<g style="mix-blend-mode:overlay">
<rect x="84.6475" y="160.896" width="63.5985" height="63.5985" rx="1.5" transform="rotate(-68.6858 84.6475 160.896)" stroke="#C8D6ED"/>
</g>
<g style="mix-blend-mode:overlay">
<rect x="357.648" y="245.896" width="63.5985" height="63.5985" rx="1.5" transform="rotate(-68.6858 357.648 245.896)" stroke="#C8D6ED"/>
</g>
<path opacity="0.3" d="M260.274 164.795C260.809 163.772 262.251 163.712 262.87 164.688L282.346 195.407C282.964 196.382 282.295 197.661 281.141 197.709L244.799 199.216C243.645 199.264 242.872 198.045 243.408 197.022L260.274 164.795Z" stroke="white"/>
<path opacity="0.3" d="M28.4082 10.6835C29.0859 9.74855 30.5215 9.89781 30.9924 10.9522L45.824 44.1639C46.2948 45.2183 45.4478 46.387 44.2993 46.2675L8.12119 42.5062C6.97268 42.3868 6.38412 41.0689 7.06179 40.1339L28.4082 10.6835Z" stroke="white"/>
<path opacity="0.65" d="M986.31 636.781C987.435 636.523 988.418 637.58 988.079 638.684L960.574 728.187C960.235 729.291 958.828 729.614 958.042 728.768L894.281 660.196C893.495 659.351 893.919 657.971 895.045 657.713L986.31 636.781Z" stroke="#6765E0"/>
<g style="mix-blend-mode:overlay">
<path d="M866.874 525.416C867.241 524.321 868.655 524.034 869.42 524.899L893.508 552.153C894.273 553.018 893.814 554.386 892.683 554.616L857.036 561.85C855.905 562.08 854.949 560.998 855.316 559.903L866.874 525.416Z" stroke="white"/>
</g>
<path opacity="0.3" d="M249.128 57.4666C250.231 57.1236 251.291 58.1028 251.037 59.2292L243.029 94.7097C242.774 95.836 241.396 96.2648 240.548 95.4814L213.825 70.8057C212.977 70.0223 213.295 68.6144 214.397 68.2714L249.128 57.4666Z" stroke="#0080FF"/>
<path opacity="0.3" d="M620.459 356.664C621.095 355.7 622.536 355.787 623.052 356.819L639.319 389.352C639.836 390.385 639.04 391.59 637.888 391.52L601.58 389.342C600.427 389.273 599.782 387.982 600.418 387.018L620.459 356.664Z" stroke="#0080FF"/>
<path opacity="0.3" d="M972.339 833.089C972.79 832.026 974.223 831.85 974.918 832.772L991.737 855.087C992.432 856.009 991.868 857.338 990.722 857.479L962.987 860.887C961.841 861.028 960.972 859.875 961.423 858.812L972.339 833.089Z" stroke="#0080FF"/>
<circle opacity="0.31" cx="133" cy="34" r="33.5" stroke="url(#paint0_linear)"/>
<circle opacity="0.31" cx="462" cy="380" r="50.5" stroke="#93A6EA"/>
<g style="mix-blend-mode:overlay">
<circle cx="347.5" cy="124.5" r="26" stroke="#F0F5FC"/>
</g>
<g style="mix-blend-mode:overlay">
<circle cx="764.5" cy="451.5" r="26" stroke="#0060FF"/>
</g>
<circle cx="1000" cy="780" r="22.5" stroke="#0060FF"/>
<defs>
<linearGradient id="paint0_linear" x1="171" y1="72.3333" x2="137" y2="7.33333" gradientUnits="userSpaceOnUse">
<stop stop-color="#93A6EA"/>
<stop offset="1" stop-color="#93A6EA" stop-opacity="0.92"/>
</linearGradient>
</defs>
</svg>
