<svg width="39" height="37" viewBox="0 0 39 37" fill="none" xmlns="http://www.w3.org/2000/svg">
<path d="M22.4441 26.2032L16.0343 28.9978V28.7158C14.8037 29.0234 13.4192 29.2029 12.1372 29.2798C6.08643 29.2286 1.31758 26.0493 1.24066 22.306V20.9215C3.21486 23.7931 7.26582 25.7417 12.1372 25.6647C13.7781 25.7417 15.4703 25.4853 16.8804 25.1007L17.4445 23.7162C15.778 24.229 13.932 24.5623 12.1372 24.5623C6.08643 24.5623 1.31758 21.4087 1.24066 17.5885V16.4604C3.21486 19.1268 7.26582 21.0497 12.1372 20.9215C14.3422 21.0497 16.4702 20.5882 18.2906 19.7934L18.5726 18.4089C16.8035 19.3319 14.5217 19.8703 12.1629 19.7934C6.11207 19.8703 1.34322 16.7167 1.2663 12.8196V11.6915C3.2405 14.4092 7.29146 16.3578 12.1629 16.4347C14.9319 16.3578 17.547 15.6143 19.7007 14.4861L19.9828 12.8196C18.0342 14.2554 15.1883 15.204 12.1629 15.3322C6.11207 15.204 1.34322 12.0248 1.2663 8.07641C1.31758 4.30748 6.11207 1.15389 12.1629 1.10261C15.7523 1.15389 19.111 2.4102 21.0852 4.46132L21.2903 4.79462H22.7005L22.4954 4.46132C20.5212 1.76922 16.5471 0.00013366 12.1629 0.00013366C5.44545 -0.0255053 0.112549 3.64087 0.112549 8.05077V8.3328V22.5624C0.3433 26.8698 5.54801 30.3823 12.1116 30.3823C16.4446 30.4079 20.3673 28.6901 22.4441 26.2032Z" fill="white"/>
<path d="M19.8287 36.0229L22.0849 26.4339L15.5983 29.2542L19.5467 12.6401H11.9575L13.9317 4.4613H38.1605L36.1863 12.6401H28.2895L26.5974 17.1526L35.3403 13.4862L19.8287 36.0229ZM23.7771 24.4853L22.649 30.1259L31.9559 16.0501L24.3411 19.4345L27.7255 11.5377H35.3403L36.7504 5.61506H14.7522L13.342 11.5377H20.9568L17.2904 27.3056L23.7771 24.4853Z" fill="white"/>
</svg>
