<svg width="46" height="25" viewBox="0 0 46 25" fill="none" xmlns="http://www.w3.org/2000/svg">
<path d="M7.86025 0.085189V0.58751L8.31666 0.69473C9.01816 0.873921 9.12381 1.30427 9.40413 2.66656L10.1344 6.49639L8.09888 17.6833L5.32666 3.62714C5.01041 2.08492 4.90547 0.937812 6.02887 0.686651L6.555 0.579431V0.085189H0V0.58751L0.667 0.767434C1.334 0.946624 1.61431 1.26902 2.07072 3.38479L6.52697 24.9339H7.67697L10.6598 8.65548L13.966 24.9339H14.8788L19.1604 4.05088C19.6521 1.64943 19.8627 0.966453 20.7057 0.746137L21.372 0.566212V0.085189H16.5564V0.58751L17.2931 0.730715C18.3461 0.94589 18.5912 1.62667 18.0996 4.38796L15.4747 17.6833L12.8153 3.62714C12.5278 2.22886 12.3589 0.937812 13.5175 0.722637L14.2895 0.579431V0.0771103L7.86025 0.085189ZM39.0856 0.152753V0.655073L39.9625 0.870249C40.7337 1.04944 41.05 1.33658 41.05 2.34049V19.7308C41.05 21.6666 41.05 24.2127 39.0842 24.2127C37.9615 24.2127 37.0861 23.2088 37.1551 22.5273C37.2248 21.4162 39.1201 21.4874 39.2251 19.6948C39.3307 18.4463 38.5581 17.8588 37.7861 17.7582C36.6987 17.615 35.3654 18.5469 35.3294 20.4115C35.2949 22.813 36.8388 25 39.4694 25C42.3804 25 44.2851 22.9937 44.2851 19.1565L44.2858 2.37574C44.2858 1.37183 44.5316 1.0487 45.2331 0.870249L46 0.646995V0.144674L39.0856 0.152753ZM27.2622 0C24.2794 0 22.5953 2.54612 22.5953 5.88024C22.5953 12.0836 30.4211 14.4858 30.4211 20.0796C30.4211 22.7329 29.3329 24.2025 27.7617 24.2025C25.4114 24.2025 23.7259 21.2994 23.3055 16.6735H22.7793V24.8487H23.2005C23.5513 23.6737 24.0077 23.5584 24.3937 23.5584C25.0607 23.5584 25.7614 24.9905 27.7969 24.9905C30.9199 24.9905 32.9547 22.2306 32.9561 18.428C32.9561 10.9703 25.1304 9.14165 25.1304 3.79898C25.1304 2.5799 25.4811 0.787996 27.2363 0.787996C29.7634 0.787996 30.8516 4.19408 31.2721 8.31767H31.7982V0.14394H31.377C31.2017 0.932671 30.8861 1.29105 30.4297 1.29105C29.6226 1.29105 29.2078 0.000733984 27.2715 0.000733984L27.2622 0ZM32.9116 7.03175V7.11988L32.9281 7.1096L32.9195 7.03616L32.9116 7.03175Z" fill="white"/>
</svg>
