<svg width="45" height="46" viewBox="0 0 45 46" fill="none" xmlns="http://www.w3.org/2000/svg">
<path d="M43.4603 30.7927C43.5547 30.5512 43.6455 30.3089 43.7318 30.0637C43.7797 29.9264 43.827 29.7884 43.872 29.6497C43.9807 29.3204 44.0813 28.9867 44.175 28.6507C44.19 28.5974 44.2088 28.5457 44.223 28.4924C44.2245 28.4864 44.2238 28.4804 44.2253 28.4744C44.7277 26.6092 45 24.6502 45 22.6274C45 10.2209 34.9065 0.127441 22.5 0.127441C10.0935 0.127441 0 10.2209 0 22.6274C0 24.7612 0.30525 26.8237 0.8625 28.7812C0.86475 28.7894 0.86325 28.7977 0.8655 28.8052C0.876 28.8412 0.8895 28.8764 0.9 28.9124C1.0065 29.2769 1.12125 29.6369 1.245 29.9939C1.27125 30.0689 1.29525 30.1454 1.3215 30.2197C1.46325 30.6134 1.61325 31.0034 1.776 31.3874C1.8615 31.5899 1.956 31.7864 2.04675 31.9859C2.11725 32.1397 2.1855 32.2942 2.25975 32.4464C2.39475 32.7254 2.53725 32.9992 2.68275 33.2714C2.70525 33.3134 2.72775 33.3562 2.751 33.3982C4.995 37.5277 8.4765 40.8524 12.7425 42.8992C12.7478 42.9014 12.7537 42.9044 12.759 42.9074C13.0305 43.0372 13.305 43.1609 13.5825 43.2802C13.71 43.3357 13.8382 43.3889 13.9672 43.4422C14.1945 43.5352 14.4225 43.6274 14.6542 43.7137C14.877 43.7969 15.1027 43.8727 15.3285 43.9492C15.4695 43.9964 15.606 44.0504 15.7477 44.0954C15.7552 44.0977 15.7628 44.0969 15.7703 44.0984C17.8958 44.7659 20.1562 45.1274 22.5 45.1274C24.9465 45.1274 27.3015 44.7292 29.508 44.0039C29.5155 44.0017 29.5238 44.0032 29.532 44.0002C29.5905 43.9807 29.646 43.9574 29.7045 43.9379C30.0195 43.8307 30.3315 43.7174 30.6405 43.5974C30.7733 43.5457 30.906 43.4947 31.038 43.4407C31.2817 43.3402 31.5225 43.2337 31.7617 43.1249C36.858 40.8299 40.8825 36.7469 43.1055 31.6499C43.152 31.5449 43.2007 31.4414 43.2458 31.3357C43.3208 31.1564 43.3897 30.9742 43.4603 30.7927ZM3.498 31.5562C3.40725 31.3634 3.31875 31.1684 3.234 30.9727C3.141 30.7567 3.05175 30.5384 2.9655 30.3187C2.9205 30.2047 2.874 30.0922 2.8305 29.9774C2.69475 29.6122 2.5665 29.2432 2.45025 28.8682C2.57475 28.7729 2.69775 28.6867 2.82225 28.6004L5.18625 32.6954C4.92525 32.9054 4.69725 33.1484 4.48575 33.4064C4.188 32.9107 3.91125 32.4014 3.654 31.8802C3.6015 31.7722 3.549 31.6642 3.498 31.5562ZM14.091 28.8944L10.9207 32.4149C9.627 31.5727 7.97625 31.3724 6.4875 31.9492L4.12125 27.8504C7.4385 26.2657 11.2928 26.7517 14.091 28.8944ZM16.5592 31.7054C17.4233 33.2017 17.8455 34.8554 17.8455 36.4994L17.8447 36.5024C17.8447 36.5024 17.8455 36.5054 17.8455 36.5069C17.8448 37.5937 17.6535 38.6752 17.2868 39.7057L12.9645 37.7812C13.2937 36.5684 13.1595 35.2304 12.483 34.0589C12.3502 33.8294 12.198 33.6187 12.0353 33.4192L15.2017 29.9032C15.7117 30.4402 16.173 31.0364 16.5592 31.7054ZM15.4403 42.4034C15.306 42.3554 15.174 42.3044 15.0405 42.2542C13.7085 41.7464 12.4425 41.1059 11.2552 40.3499C11.694 40.0072 12.0623 39.6007 12.3517 39.1499L16.6747 41.0744C16.4047 41.5709 16.0935 42.0502 15.7305 42.5017C15.6345 42.4687 15.537 42.4379 15.4403 42.4034ZM6.55575 33.5684C8.17275 32.6324 10.2495 33.1904 11.184 34.8082C12.1178 36.4259 11.5613 38.5019 9.9435 39.4372C9.9405 39.4387 9.9375 39.4409 9.93375 39.4424C9.8685 39.3937 9.8055 39.3404 9.741 39.2909C9.45375 39.0712 9.17475 38.8432 8.90025 38.6099C8.7555 38.4869 8.61075 38.3639 8.46975 38.2372C8.18325 37.9799 7.9035 37.7152 7.632 37.4429C7.4685 37.2787 7.31025 37.1092 7.152 36.9397C7.00125 36.7784 6.855 36.6149 6.7095 36.4492C6.4695 36.1754 6.23775 35.8957 6.012 35.6107C5.86725 35.4269 5.72325 35.2432 5.5845 35.0542C5.508 34.9507 5.43525 34.8449 5.361 34.7399C5.65425 34.2547 6.0615 33.8534 6.55575 33.5684ZM17.2545 42.9644C17.6917 42.3562 18.0645 41.7149 18.3652 41.0474C18.3713 41.0362 18.3802 41.0279 18.3855 41.0159C18.3885 41.0099 18.387 41.0032 18.3892 40.9972C18.9187 39.8062 19.2255 38.5379 19.3132 37.2524H20.25C20.664 37.2524 21 36.9172 21 36.5024C21 36.0877 20.664 35.7524 20.25 35.7524H19.317C19.2218 34.3402 18.855 32.9369 18.2078 31.6199L19.017 31.1527C19.3763 30.9457 19.4985 30.4867 19.2915 30.1282C19.0837 29.7689 18.624 29.6459 18.267 29.8537L17.4503 30.3254C16.9365 29.5597 16.3463 28.8712 15.6863 28.2757C15.681 28.2704 15.6788 28.2637 15.6735 28.2584C15.6653 28.2509 15.6547 28.2494 15.6465 28.2427C15.261 27.8977 14.8515 27.5879 14.427 27.3044L14.8995 26.4862C15.1065 26.1269 14.9835 25.6687 14.625 25.4617C14.265 25.2547 13.8075 25.3769 13.6005 25.7362L13.1325 26.5462C11.8403 25.9147 10.4347 25.5382 9 25.4392V24.5024C9 24.0877 8.664 23.7524 8.25 23.7524C7.836 23.7524 7.5 24.0877 7.5 24.5024V25.4474C5.85975 25.5562 4.2195 26.0182 2.703 26.8942C2.478 27.0239 2.25675 27.1709 2.03625 27.3224C1.689 25.8112 1.5 24.2414 1.5 22.6274C1.5 11.0482 10.9207 1.62744 22.5 1.62744C34.0793 1.62744 43.5 11.0482 43.5 22.6274C43.5 24.1289 43.3387 25.5929 43.0373 27.0059C41.373 25.8584 39.4567 25.2074 37.5 25.0724V24.1274C37.5 23.7127 37.164 23.3774 36.75 23.3774C36.336 23.3774 36 23.7127 36 24.1274V25.0657C34.5855 25.1594 33.1815 25.5254 31.8667 26.1689L31.3995 25.3597C31.1925 25.0004 30.7335 24.8774 30.375 25.0852C30.0158 25.2922 29.8935 25.7512 30.1005 26.1097L30.5723 26.9264C29.3453 27.7492 28.3328 28.7812 27.5505 29.9497L26.733 29.4772C26.3723 29.2694 25.9163 29.3924 25.7085 29.7517C25.5015 30.1109 25.6245 30.5692 25.983 30.7762L26.7922 31.2434C26.1607 32.5357 25.7843 33.9412 25.6853 35.3759H24.75C24.336 35.3759 24 35.7112 24 36.1259C24 36.5407 24.336 36.8759 24.75 36.8759H25.6942C25.728 37.3859 25.7917 37.8959 25.8975 38.4029C25.899 38.4134 25.8952 38.4232 25.8975 38.4337C25.899 38.4412 25.9042 38.4479 25.9065 38.4554C26.1427 39.5587 26.5478 40.6447 27.141 41.6737C27.3832 42.0937 27.669 42.5002 27.978 42.8969C26.2305 43.3709 24.3953 43.6274 22.5 43.6274C20.6895 43.6274 18.9323 43.3972 17.2545 42.9644ZM42.609 28.6739C42.525 28.9544 42.432 29.2312 42.3375 29.5064C42.3008 29.6122 42.2685 29.7187 42.2302 29.8237C42.1387 30.0757 42.0368 30.3224 41.9362 30.5699C41.7848 30.9382 41.6265 31.3034 41.4548 31.6612C41.4427 31.6867 41.4315 31.7129 41.4187 31.7384C41.1802 32.2312 40.9193 32.7104 40.6448 33.1807C39.3307 31.4429 37.0095 30.7919 34.9875 31.5749L32.6273 27.4867C33.933 26.8642 35.3332 26.5379 36.735 26.5379C38.8335 26.5379 40.92 27.2249 42.6398 28.5644C42.6292 28.6004 42.6195 28.6372 42.609 28.6739ZM32.3865 41.1479C32.142 41.2792 31.8953 41.4067 31.6455 41.5282C31.4513 41.6219 31.2533 41.7104 31.0553 41.7982C30.9248 41.8567 30.7973 41.9189 30.6653 41.9744C30.306 42.1259 29.9415 42.2669 29.5718 42.3982C29.5538 42.4049 29.5357 42.4102 29.5177 42.4169C29.1007 41.9414 28.74 41.4412 28.4415 40.9244C28.0553 40.2554 27.7703 39.5579 27.5603 38.8477L32.1885 37.8637C32.28 38.1037 32.3857 38.3407 32.5185 38.5702C32.8943 39.2204 33.4222 39.7514 34.0358 40.1624C33.5542 40.4804 33.06 40.7819 32.5515 41.0602C32.496 41.0909 32.4412 41.1194 32.3865 41.1479ZM31.3223 28.2262L33.6885 32.3249C32.4442 33.3262 31.7932 34.8562 31.875 36.3974L27.2407 37.3822C26.784 33.8872 28.29 30.3067 31.3223 28.2262ZM36.744 32.7397C37.9163 32.7397 39.057 33.3472 39.6833 34.4317C39.7095 34.4767 39.7343 34.5232 39.7583 34.5719C39.6795 34.6859 39.5985 34.7977 39.5175 34.9102C39.3773 35.1052 39.2325 35.2957 39.0855 35.4854C38.8665 35.7667 38.6407 36.0427 38.4082 36.3127C38.268 36.4762 38.127 36.6397 37.9823 36.7987C37.803 36.9944 37.62 37.1857 37.4333 37.3739C37.3208 37.4879 37.2045 37.5989 37.089 37.7107C36.7702 38.0189 36.4417 38.3174 36.1042 38.6054C35.9782 38.7127 35.853 38.8199 35.724 38.9249C35.604 39.0224 35.4818 39.1162 35.3602 39.2107C34.7122 38.9204 34.1723 38.4382 33.816 37.8209C32.8823 36.2032 33.4388 34.1272 35.0558 33.1927C35.5882 32.8859 36.1702 32.7397 36.744 32.7397Z" fill="white"/>
<path d="M29.0191 23.6243C29.4863 21.8836 29.2463 20.0641 28.3456 18.5033C28.1746 18.2071 27.9773 17.9326 27.7688 17.6693L33.4568 11.9813C34.1408 12.7388 34.7596 13.5751 35.2898 14.4938C36.5888 16.7438 37.2683 19.3178 37.2548 21.9368C37.2526 22.3508 37.5871 22.6883 38.0011 22.6906C38.0018 22.6906 38.0033 22.6906 38.0048 22.6906C38.4173 22.6906 38.7526 22.3576 38.7548 21.9443C38.7608 20.7466 38.6281 19.5593 38.3768 18.4006L40.0816 17.9431C40.4821 17.8358 40.7191 17.4248 40.6118 17.0243C40.5046 16.6238 40.0928 16.3846 39.6931 16.4941L37.9913 16.9501C37.7146 16.0741 37.3636 15.2236 36.9413 14.4053L38.4638 13.5263C38.8231 13.3193 38.9453 12.8603 38.7383 12.5018C38.5313 12.1426 38.0716 12.0188 37.7138 12.2273L36.1801 13.1131C35.6776 12.3278 35.1256 11.5913 34.5158 10.9223L35.7586 9.67956C36.0518 9.38631 36.0518 8.91231 35.7586 8.61906C35.4653 8.32581 34.9913 8.32581 34.6981 8.61906L33.4583 9.85881C32.7736 9.23481 32.0378 8.68281 31.2676 8.19156L32.1496 6.66456C32.3566 6.30531 32.2343 5.84706 31.8751 5.64006C31.5158 5.43231 31.0568 5.55531 30.8506 5.91456L29.9663 7.44606C29.1481 7.02456 28.2976 6.67881 27.4231 6.40131L27.8828 4.68531C27.9901 4.28556 27.7523 3.87381 27.3526 3.76656C26.9498 3.65631 26.5411 3.89706 26.4338 4.29681L25.9741 6.01281C25.0793 5.81556 24.1696 5.69031 23.2501 5.64606V3.87756C23.2501 3.46281 22.9141 3.12756 22.5001 3.12756C22.0861 3.12756 21.7501 3.46281 21.7501 3.87756V5.64156C20.8373 5.68206 19.9246 5.79231 19.0193 5.99031L18.5656 4.29681C18.4583 3.89706 18.0496 3.65631 17.6468 3.76656C17.2471 3.87381 17.0093 4.28481 17.1166 4.68531L17.5711 6.38256C16.7078 6.65706 15.8626 7.01931 15.0338 7.44756L14.1488 5.91456C13.9418 5.55456 13.4836 5.43156 13.1251 5.64006C12.7658 5.84706 12.6436 6.30606 12.8506 6.66456L13.7296 8.18631C12.9496 8.68656 12.2206 9.24756 11.5471 9.86406L10.3021 8.61906C10.0088 8.32581 9.53484 8.32581 9.24159 8.61906C8.94834 8.91231 8.94834 9.38631 9.24159 9.67956L10.4896 10.9276C9.87084 11.6093 9.31209 12.3398 8.81859 13.1123L7.28634 12.2281C6.92634 12.0203 6.46884 12.1433 6.26184 12.5026C6.05484 12.8618 6.17784 13.3201 6.53634 13.5271L8.07009 14.4128C7.65009 15.2266 7.29759 16.0763 7.01784 16.9531L5.30709 16.4941C4.90884 16.3853 4.49559 16.6246 4.38834 17.0243C4.28109 17.4241 4.51809 17.8358 4.91859 17.9431L6.62934 18.4021C6.37584 19.5533 6.23859 20.7383 6.24234 21.9428C6.24309 22.3568 6.57909 22.6906 6.99234 22.6906C6.99309 22.6906 6.99384 22.6906 6.99459 22.6906C7.40859 22.6891 7.74384 22.3523 7.74234 21.9383C7.73109 18.2153 9.13134 14.6783 11.5493 11.9881L17.2268 17.6656C16.6531 18.3833 16.2248 19.2158 15.9796 20.1308C15.5123 21.8716 15.7523 23.6911 16.6531 25.2518C17.5546 26.8133 19.0103 27.9301 20.7511 28.3966C21.3323 28.5518 21.9226 28.6298 22.5091 28.6298C23.6783 28.6291 24.8326 28.3231 25.8728 27.7223C27.4358 26.8216 28.5526 25.3658 29.0191 23.6243ZM19.1251 16.0328C18.8288 16.2038 18.5551 16.4003 18.2918 16.6088L12.6076 10.9246C13.3703 10.2331 14.2066 9.61356 15.1163 9.08856C20.7961 5.80881 27.7673 6.75006 32.3941 10.9223L26.7113 16.6051C25.9936 16.0313 25.1611 15.6031 24.2468 15.3578C22.5046 14.8936 20.6873 15.1313 19.1251 16.0328ZM21.1411 26.9476C19.7866 26.5853 18.6548 25.7161 17.9536 24.5018C17.2523 23.2876 17.0663 21.8731 17.4293 20.5186C17.7923 19.1641 18.6608 18.0331 19.8751 17.3318C20.6843 16.8646 21.5813 16.6261 22.4911 16.6261C22.9471 16.6261 23.4061 16.6861 23.8583 16.8076C25.2128 17.1698 26.3446 18.0391 27.0458 19.2533C27.7471 20.4676 27.9331 21.8821 27.5701 23.2366C27.2071 24.5911 26.3386 25.7221 25.1243 26.4233C23.9101 27.1246 22.4971 27.3128 21.1411 26.9476Z" fill="white"/>
</svg>
