<svg width="32" height="30" viewBox="0 0 32 30" fill="none" xmlns="http://www.w3.org/2000/svg">
<path d="M31.1188 18.5873L27.6243 4.12614C27.0797 1.87433 25.1704 0.23198 22.9813 0.132697C21.6065 0.0704956 20.3058 0.562125 19.315 1.51787C18.3236 2.47481 17.7778 3.76369 17.7778 5.14707V7.68716H14.2222V5.14707C14.2222 3.76369 13.6764 2.47481 12.685 1.51847C11.6942 0.562125 10.3893 0.0687014 9.01867 0.133295C6.82904 0.232578 4.9197 1.87493 4.3757 4.12673L0.880593 18.5885C0.320593 19.6136 0 20.7901 0 22.0413C0 25.9988 3.18993 29.2183 7.11111 29.2183C10.9144 29.2183 14.0213 26.1866 14.2044 22.393C14.2092 22.3631 14.2222 22.3361 14.2222 22.305V22.0419V16.6591H17.7778V22.0419V22.305C17.7778 22.3343 17.7908 22.3601 17.795 22.3882C17.9757 26.1842 21.0839 29.2183 24.8889 29.2183C28.8101 29.2183 32 25.9988 32 22.0413C32 20.7895 31.6794 19.613 31.1188 18.5873ZM7.11111 28.0222C3.84356 28.0222 1.18519 25.3391 1.18519 22.0413C1.18519 20.9522 1.4797 19.933 1.98637 19.052C2.09541 18.8624 2.21452 18.6812 2.34193 18.5066C2.37333 18.4635 2.40415 18.4205 2.43674 18.3786C2.73481 17.9922 3.07496 17.6459 3.45007 17.3475C3.48385 17.3206 3.51881 17.296 3.55259 17.2697C3.71852 17.1435 3.89096 17.0257 4.06874 16.9181C4.10074 16.8983 4.13215 16.878 4.16474 16.8588C4.5837 16.6154 5.0323 16.4246 5.50044 16.2901C5.54785 16.2763 5.59585 16.2649 5.64385 16.253C5.82993 16.2045 6.01896 16.1663 6.20978 16.1364C6.26904 16.1268 6.3277 16.116 6.38756 16.1088C6.62637 16.0789 6.86756 16.0598 7.11111 16.0598C10.3787 16.0598 13.037 18.7428 13.037 22.0407C13.037 22.0885 13.0311 22.134 13.0299 22.1812L13.024 22.2799C13.024 22.2811 13.0246 22.2823 13.0246 22.2835C12.8972 25.4689 10.2975 28.0222 7.11111 28.0222ZM12.5493 17.4264C12.5031 17.3708 12.4527 17.32 12.4047 17.2661C12.2767 17.1214 12.1446 16.9815 12.0053 16.8481C11.9401 16.7853 11.8732 16.7249 11.8056 16.6651C11.6693 16.5437 11.5283 16.4282 11.3831 16.3176C11.3156 16.2661 11.2492 16.2129 11.1799 16.1639C10.9896 16.0293 10.7929 15.9037 10.5896 15.7883C10.563 15.7733 10.5381 15.7548 10.5114 15.7404C10.2803 15.613 10.0409 15.5012 9.79556 15.3995C9.72326 15.3696 9.64859 15.3457 9.57511 15.3182C9.39615 15.2512 9.21482 15.1902 9.02933 15.1375C8.93985 15.1124 8.85037 15.0891 8.75911 15.0676C8.57422 15.0233 8.38696 14.9874 8.19674 14.9581C8.11259 14.945 8.02904 14.9288 7.9437 14.9192C7.66993 14.8869 7.39319 14.8654 7.11111 14.8654C6.88593 14.8654 6.66193 14.878 6.4403 14.8995C6.34904 14.9079 6.26015 14.9234 6.17007 14.9354C6.04385 14.9527 5.91822 14.9695 5.79378 14.9934C5.68178 15.0143 5.57215 15.0413 5.46252 15.0676C5.36474 15.0915 5.26756 15.1154 5.17096 15.1435C5.05126 15.1776 4.93274 15.2153 4.81541 15.256C4.73304 15.2847 4.65185 15.3152 4.57067 15.3463C4.44859 15.3935 4.3277 15.4426 4.20859 15.4964C4.1357 15.5293 4.06459 15.5658 3.99289 15.6017C3.87259 15.6615 3.7517 15.7207 3.63496 15.7871C3.56919 15.8242 3.50637 15.866 3.44237 15.9055C3.32444 15.9773 3.20593 16.0478 3.09274 16.1262C3.06311 16.1465 3.03585 16.1704 3.00622 16.1914C2.87052 16.2889 2.73481 16.387 2.60622 16.4934L5.52711 4.41023C5.94726 2.67099 7.40504 1.40423 9.072 1.32828C10.1227 1.27206 11.1111 1.65543 11.8661 2.3839C12.621 3.11178 13.037 4.09324 13.037 5.14707V8.28524V16.0604V18.0778C13.0323 18.0712 13.027 18.0652 13.0222 18.058C12.8764 17.8379 12.7176 17.628 12.5493 17.4264ZM14.2222 15.4623V8.88333H17.7778V15.4623H14.2222ZM18.963 18.0778V16.0604V8.28524V5.14707C18.963 4.09324 19.379 3.11178 20.1339 2.3833C20.8462 1.6967 21.7689 1.32409 22.7502 1.32409C22.8095 1.32409 22.8681 1.32529 22.928 1.32828C24.595 1.40423 26.0527 2.67099 26.4729 4.41023L29.3926 16.4922C29.1265 16.2715 28.8397 16.0759 28.5434 15.8959C28.4841 15.86 28.4267 15.8218 28.3668 15.7877C28.2477 15.7195 28.1244 15.6591 28.0012 15.5981C27.9319 15.564 27.8637 15.5287 27.7932 15.497C27.6729 15.4426 27.5508 15.3929 27.427 15.3451C27.347 15.314 27.267 15.2841 27.1864 15.256C27.0684 15.2153 26.9493 15.177 26.8284 15.1423C26.7324 15.1148 26.6359 15.0903 26.5387 15.067C26.4284 15.0407 26.3182 15.0137 26.2062 14.9928C26.0824 14.9689 25.9567 14.9521 25.8305 14.9348C25.7404 14.9228 25.651 14.9073 25.5597 14.8989C25.3381 14.8774 25.1141 14.8642 24.8889 14.8642C24.6068 14.8642 24.3295 14.8852 24.0563 14.918C23.971 14.9282 23.888 14.9438 23.8033 14.9569C23.613 14.9862 23.4258 15.0221 23.2409 15.0664C23.1502 15.0885 23.0601 15.1112 22.9707 15.1364C22.7852 15.189 22.6039 15.25 22.4249 15.317C22.3514 15.3445 22.2767 15.3684 22.2044 15.3983C21.9591 15.5 21.7191 15.6118 21.4886 15.7392C21.4619 15.7542 21.437 15.7721 21.4104 15.7871C21.2071 15.9025 21.0104 16.0281 20.8201 16.1627C20.7508 16.2117 20.6844 16.2643 20.6169 16.3164C20.4717 16.427 20.3307 16.5425 20.1944 16.6639C20.1268 16.7243 20.0599 16.7847 19.9947 16.8469C19.8554 16.9803 19.7233 17.1202 19.5953 17.2649C19.5473 17.3188 19.4969 17.3702 19.4507 17.4252C19.2824 17.6268 19.1236 17.8367 18.9778 18.0568C18.973 18.0652 18.9677 18.0712 18.963 18.0778ZM24.8889 28.0222C21.7025 28.0222 19.1028 25.4689 18.9754 22.2841C18.9754 22.2829 18.976 22.2817 18.976 22.2805L18.9701 22.1818C18.9689 22.1346 18.963 22.0891 18.963 22.0413C18.963 18.7434 21.6213 16.0604 24.8889 16.0604C25.1324 16.0604 25.3736 16.0795 25.6124 16.11C25.6723 16.1172 25.731 16.128 25.7902 16.1376C25.9816 16.1675 26.1707 16.2057 26.3567 16.2542C26.4041 16.2667 26.4521 16.2775 26.499 16.2913C26.9671 16.4258 27.4163 16.6166 27.8359 16.8606C27.8673 16.8792 27.8975 16.8989 27.9289 16.9175C28.1084 17.0263 28.2821 17.1447 28.4498 17.2727C28.4824 17.2978 28.5161 17.3212 28.5481 17.3469C28.925 17.6459 29.2664 17.9934 29.565 18.3816C29.5959 18.4217 29.6261 18.4629 29.6563 18.5042C29.7855 18.6806 29.9064 18.8648 30.0166 19.0574C30.5209 19.9366 30.8148 20.954 30.8148 22.0413C30.8148 25.3391 28.1564 28.0222 24.8889 28.0222Z" fill="black"/>
</svg>
