<svg width="32" height="37" viewBox="0 0 32 37" fill="none" xmlns="http://www.w3.org/2000/svg">
<path d="M31.9066 5.69762C31.1654 2.88962 25.6493 0.127441 16 0.127441C6.35072 0.127441 0.83392 2.88962 0.0934399 5.69762C0.0396799 5.79384 0 5.89922 0 6.01835V6.34562V13.8729V14.2002V14.5274V21.7274V22.0547V22.382V30.2365C0 30.3426 0.0275201 30.4427 0.0748801 30.5317C0.83072 33.7357 7.59296 36.1274 16 36.1274C24.3878 36.1274 31.1392 33.7455 31.92 30.5533C31.9712 30.4597 32 30.3517 32 30.2365V22.382V22.0547V21.7274V14.5274V14.2002V13.8729V6.34562V6.01835C32 5.89922 31.9603 5.79384 31.9066 5.69762ZM30.6694 22.3722C30.6515 22.4514 30.6266 22.5299 30.5952 22.6098C30.5696 22.6746 30.5382 22.7394 30.5037 22.8042C30.4608 22.8847 30.4128 22.9652 30.3558 23.0457C30.3136 23.1066 30.2656 23.1668 30.2157 23.227C30.1446 23.3127 30.0691 23.3985 29.9834 23.4836C29.9315 23.5353 29.8746 23.5863 29.817 23.6381C29.712 23.7317 29.6026 23.8246 29.4803 23.9169C29.4278 23.9568 29.3715 23.9954 29.3158 24.0347C29.1712 24.1368 29.0202 24.2383 28.8544 24.3378C28.8109 24.3646 28.7642 24.3901 28.7187 24.4163C28.528 24.5263 28.329 24.6356 28.1139 24.7416C28.0864 24.7554 28.0576 24.7685 28.0294 24.7815C27.7894 24.8974 27.5386 25.0113 27.2704 25.1213C27.2627 25.1245 27.255 25.1271 27.2474 25.1304C25.7939 25.7241 23.9347 26.2235 21.7683 26.5508C21.7574 26.5521 21.7466 26.5534 21.7357 26.5554C21.3146 26.6189 20.8826 26.6751 20.439 26.7249C20.3667 26.7327 20.2906 26.738 20.2176 26.7458C19.8304 26.7871 19.4387 26.825 19.0355 26.8551C18.8512 26.8689 18.6579 26.8754 18.4704 26.8872C18.167 26.9055 17.8669 26.9258 17.5558 26.937C17.0477 26.9533 16.5293 26.9638 16 26.9638C15.4707 26.9638 14.9523 26.9533 14.4435 26.935C14.1325 26.9239 13.8323 26.9029 13.529 26.8853C13.3414 26.8741 13.1482 26.8669 12.9638 26.8532C12.5606 26.8231 12.169 26.7851 11.7818 26.7439C11.7088 26.736 11.6326 26.7308 11.5603 26.7229C11.1168 26.6732 10.6848 26.6162 10.2637 26.5534C10.2528 26.5521 10.2419 26.5508 10.231 26.5488C8.06464 26.2215 6.20544 25.7221 4.752 25.1285C4.74432 25.1258 4.73664 25.1226 4.72896 25.1193C4.4608 25.0093 4.20928 24.8954 3.96992 24.7796C3.9424 24.7658 3.91296 24.7528 3.88544 24.7397C3.6704 24.6336 3.47136 24.525 3.28064 24.4143C3.23584 24.3882 3.18848 24.3626 3.14496 24.3358C2.9792 24.2363 2.82816 24.1349 2.68352 24.0327C2.62848 23.9935 2.57152 23.9549 2.51904 23.9149C2.3968 23.8226 2.28736 23.7297 2.1824 23.6361C2.12544 23.585 2.06784 23.534 2.016 23.4816C1.93024 23.3965 1.85472 23.3114 1.78368 23.225C1.73376 23.1648 1.68576 23.1046 1.64352 23.0437C1.5872 22.9632 1.5392 22.8827 1.49568 22.8022C1.46112 22.7374 1.4304 22.6726 1.40416 22.6078C1.3728 22.5286 1.34784 22.4494 1.32992 22.3702C1.30624 22.2661 1.28 22.1601 1.28 22.0547C1.28 21.9807 1.28832 21.9068 1.29984 21.8335C1.31584 21.7346 1.30688 21.6358 1.28 21.5422V16.6829C1.29792 16.6999 1.32032 16.7162 1.33888 16.7333C1.4784 16.8589 1.62048 16.9839 1.78048 17.1044C4.19136 18.9692 9.01248 20.4184 16 20.4184C22.9581 20.4184 27.767 18.981 30.1882 17.1273C30.3814 16.9833 30.5555 16.8347 30.7194 16.6835L30.72 16.6829V21.5422C30.6931 21.6358 30.6842 21.7346 30.7002 21.8335C30.7123 21.9068 30.72 21.9807 30.72 22.0547C30.72 22.1601 30.6938 22.2661 30.6694 22.3722ZM30.72 8.82831V13.6877C30.6931 13.7813 30.6842 13.8801 30.7002 13.9789C30.7123 14.0522 30.72 14.1262 30.72 14.2002C30.72 14.3055 30.6938 14.4116 30.6694 14.5176C30.6515 14.5968 30.6266 14.6754 30.5952 14.7552C30.5696 14.82 30.5382 14.8848 30.5037 14.9496C30.4608 15.0301 30.4128 15.1106 30.3558 15.1911C30.3136 15.252 30.2656 15.3122 30.2157 15.3725C30.1446 15.4582 30.0691 15.544 29.9834 15.629C29.9315 15.6807 29.8746 15.7318 29.817 15.7835C29.712 15.8771 29.6026 15.9701 29.4803 16.0623C29.4278 16.1023 29.3715 16.1409 29.3158 16.1802C29.1712 16.2823 29.0202 16.3837 28.8544 16.4832C28.8109 16.5101 28.7642 16.5356 28.7187 16.5618C28.528 16.6717 28.329 16.781 28.1139 16.8871C28.0864 16.9008 28.0576 16.9139 28.0294 16.927C27.7894 17.0429 27.5386 17.1567 27.2704 17.2667C27.2627 17.27 27.255 17.2726 27.2474 17.2759C25.7939 17.8695 23.9347 18.369 21.7683 18.6962C21.7574 18.6975 21.7466 18.6989 21.7357 18.7008C21.3146 18.7643 20.8826 18.8206 20.439 18.8703C20.3667 18.8782 20.2906 18.8834 20.2176 18.8913C19.8304 18.9325 19.4387 18.9705 19.0355 19.0006C18.8512 19.0143 18.6579 19.0209 18.4704 19.0327C18.167 19.051 17.8669 19.0713 17.5558 19.0824C17.0477 19.0988 16.5293 19.1093 16 19.1093C15.4707 19.1093 14.9523 19.0988 14.4435 19.0805C14.1325 19.0693 13.8323 19.0484 13.529 19.0307C13.3414 19.0196 13.1482 19.0124 12.9638 18.9986C12.5606 18.9685 12.169 18.9306 11.7818 18.8893C11.7088 18.8815 11.6326 18.8762 11.5603 18.8684C11.1168 18.8186 10.6848 18.7617 10.2637 18.6989C10.2528 18.6975 10.2419 18.6962 10.231 18.6943C8.06464 18.367 6.20544 17.8676 4.752 17.2739C4.74432 17.2713 4.73664 17.268 4.72896 17.2647C4.4608 17.1548 4.20928 17.0409 3.96992 16.925C3.9424 16.9113 3.91296 16.8982 3.88544 16.8851C3.6704 16.7791 3.47136 16.6704 3.28064 16.5598C3.23584 16.5336 3.18848 16.5081 3.14496 16.4813C2.9792 16.3818 2.82816 16.2803 2.68352 16.1782C2.62848 16.1389 2.57152 16.1003 2.51904 16.0604C2.3968 15.9681 2.28736 15.8751 2.1824 15.7816C2.12544 15.7305 2.06784 15.6794 2.016 15.6271C1.93024 15.542 1.85472 15.4569 1.78368 15.3705C1.73376 15.3103 1.68576 15.2501 1.64352 15.1892C1.5872 15.1087 1.5392 15.0282 1.49568 14.9477C1.46112 14.8829 1.4304 14.8181 1.40416 14.7533C1.3728 14.6741 1.34784 14.5949 1.32992 14.5157C1.30624 14.4116 1.28 14.3055 1.28 14.2002C1.28 14.1262 1.28832 14.0522 1.29984 13.9789C1.31584 13.8801 1.30688 13.7813 1.28 13.6877V8.82831C1.3568 8.89966 1.44448 8.9697 1.52768 9.04039C1.57376 9.07966 1.61664 9.11893 1.66528 9.15821C1.85728 9.31268 2.06464 9.46519 2.28928 9.61377C2.336 9.64453 2.38848 9.67464 2.43712 9.70541C2.62528 9.82519 2.82432 9.94235 3.0336 10.0575C3.11104 10.1001 3.18848 10.142 3.26848 10.1839C3.50208 10.3056 3.7472 10.4241 4.00512 10.5386C4.04736 10.5576 4.08576 10.5773 4.12864 10.5956C4.4288 10.7258 4.74752 10.8502 5.07904 10.9706C5.17056 11.004 5.26656 11.0354 5.36064 11.0682C5.62432 11.1592 5.89696 11.2462 6.1792 11.3306C6.28096 11.3607 6.3808 11.3922 6.48512 11.421C6.85952 11.527 7.24608 11.6278 7.65184 11.7207C7.70752 11.7338 7.76768 11.7443 7.824 11.7568C8.18176 11.8366 8.55296 11.9106 8.9344 11.9799C9.06368 12.0035 9.19488 12.0258 9.32672 12.048C9.6896 12.1089 10.0634 12.1645 10.4467 12.2156C10.5453 12.2287 10.6394 12.2437 10.7392 12.2562C11.2154 12.3151 11.7082 12.3655 12.2144 12.4087C12.3392 12.4192 12.4691 12.427 12.5958 12.4362C13.001 12.4663 13.415 12.4911 13.8387 12.5108C13.993 12.518 14.1466 12.5252 14.304 12.5311C14.8557 12.5501 15.4176 12.5638 16 12.5638C16.5824 12.5638 17.1443 12.5501 17.696 12.5311C17.8528 12.5252 18.0064 12.518 18.1613 12.5108C18.585 12.4911 18.999 12.4663 19.4042 12.4362C19.5309 12.4264 19.6602 12.4192 19.7856 12.4087C20.2918 12.3661 20.7846 12.3151 21.2608 12.2562C21.3606 12.2437 21.4547 12.2287 21.5533 12.2156C21.9366 12.1645 22.3098 12.1089 22.6733 12.048C22.8051 12.0258 22.9363 12.0035 23.0656 11.9799C23.447 11.9106 23.8182 11.8366 24.176 11.7568C24.2323 11.7443 24.2925 11.7332 24.3482 11.7207C24.7539 11.6278 25.1405 11.5264 25.5149 11.421C25.6192 11.3915 25.719 11.3607 25.8208 11.3306C26.103 11.2462 26.3757 11.1592 26.6394 11.0682C26.7334 11.0354 26.8294 11.004 26.921 10.9706C27.2525 10.8502 27.5718 10.7258 27.8714 10.5956C27.9142 10.5773 27.9526 10.5576 27.9949 10.5386C28.2528 10.4234 28.4979 10.3056 28.7315 10.1839C28.8115 10.142 28.8896 10.1001 28.9664 10.0575C29.1757 9.943 29.3747 9.82584 29.5629 9.70541C29.6115 9.67464 29.664 9.64453 29.7107 9.61377C29.9354 9.46519 30.1427 9.31333 30.3347 9.15821C30.3827 9.11893 30.4256 9.07966 30.4723 9.04039C30.5555 8.9697 30.6432 8.89966 30.72 8.82831ZM16 1.43653C24.6752 1.43653 30.72 4.0233 30.72 6.34562C30.72 8.66795 24.6752 11.2547 16 11.2547C7.3248 11.2547 1.28 8.66795 1.28 6.34562C1.28 4.0233 7.3248 1.43653 16 1.43653ZM30.72 30.0421C30.711 30.0709 30.7046 30.1004 30.6995 30.1305C30.3366 32.3946 24.343 34.8183 16 34.8183C7.65696 34.8183 1.66336 32.3946 1.30048 30.1305C1.29536 30.101 1.28832 30.0722 1.28 30.0448V24.5374C1.29792 24.5544 1.32032 24.5708 1.33888 24.5878C1.4784 24.7135 1.62048 24.8385 1.78048 24.9589C4.19136 26.8237 9.01248 28.2729 16 28.2729C22.9581 28.2729 27.767 26.8355 30.1882 24.9818C30.3814 24.8378 30.5555 24.6893 30.7194 24.5381L30.72 24.5374V30.0421Z" fill="black"/>
</svg>
