<svg width="1100" height="1041" viewBox="0 0 1100 1041" fill="none" xmlns="http://www.w3.org/2000/svg">
<path fill-rule="evenodd" clip-rule="evenodd" d="M1100 169.51C1100 75.8888 1024.09 0 930.447 0C836.802 0 760.894 75.8888 760.894 169.51C760.894 211.694 776.308 250.271 801.804 279.93C732.635 280.827 675.414 331.191 663.924 397.282H663.906C654.264 452.255 655.742 465.8 567.657 534.036C567.006 534.547 566.373 535.074 565.722 535.584C431.73 577.1 368.807 520.245 325.663 424.689C299.85 363.999 239.672 321.428 169.553 321.428C75.9082 321.428 0 397.317 0 490.938C0 584.559 75.9082 660.448 169.553 660.448C185.301 660.448 200.539 658.301 215.003 654.273C322.707 626.655 410.369 643.384 460.587 796.639C479.52 934.661 597.922 1041 741.169 1041C897.596 1041 1024.43 914.219 1024.43 757.815C1024.43 703.142 1008.91 652.092 982.073 608.799C926.717 516.885 932.119 503.674 942.553 451.041C944.541 441.577 945.597 431.778 945.597 421.716C945.597 390.65 935.585 361.923 918.64 338.562C922.547 338.826 926.488 338.984 930.465 338.984C1024.07 339.037 1100 263.131 1100 169.51Z" fill="url(#paint0_linear)"/>
<defs>
<linearGradient id="paint0_linear" x1="531" y1="-49" x2="791" y2="951" gradientUnits="userSpaceOnUse">
<stop offset="0.140625" stop-color="#E9E9E9"/>
<stop offset="0.735052" stop-color="white" stop-opacity="0"/>
</linearGradient>
</defs>
</svg>
