<svg width="78" height="110" viewBox="0 0 78 110" fill="none" xmlns="http://www.w3.org/2000/svg">
<rect x="0.5" y="40.1775" width="76.3548" height="69.3226" rx="4.5" stroke="black"/>
<path d="M65.0486 23.5618V23.5618C65.0486 11.1013 54.9473 1 42.4867 1H38.6776C24.1133 1 12.3066 12.8067 12.3066 27.371V39.6774" stroke="black"/>
<path fill-rule="evenodd" clip-rule="evenodd" d="M43.0725 79.8158C45.6998 78.2959 47.4674 75.4552 47.4674 72.2017C47.4674 67.3469 43.5318 63.4114 38.677 63.4114C33.8223 63.4114 29.8867 67.3469 29.8867 72.2017C29.8867 75.4555 31.6546 78.2964 34.2822 79.8162V85.3872C34.2822 87.8146 36.25 89.7824 38.6774 89.7824C41.1048 89.7824 43.0725 87.8146 43.0725 85.3872V79.8158Z" fill="black"/>
</svg>
