<svg width="114" height="111" viewBox="0 0 114 111" fill="none" xmlns="http://www.w3.org/2000/svg">
<path d="M114 54.4091C114 85.7539 91.3616 108.818 57.6482 108.818C26.5257 108.818 1.2959 84.4584 1.2959 54.4091C1.2959 24.3598 26.5257 0 57.6482 0C91.3616 0 114 24.3598 114 54.4091Z" fill="black"/>
<circle cx="55.0211" cy="55.0927" r="54.5211" fill="white" stroke="black"/>
<circle cx="55.021" cy="55.0925" r="48.3091" stroke="black"/>
<path fill-rule="evenodd" clip-rule="evenodd" d="M56.2715 27.3394C56.6136 27.4053 56.8967 27.6446 57.0188 27.9709L63.4543 45.1717H74.3725C74.7899 45.1717 75.1633 45.4308 75.3093 45.8218L81.9879 63.7043C82.1026 64.0113 82.0595 64.3551 81.8727 64.6243C81.6858 64.8936 81.3789 65.0542 81.0511 65.0542H69.8642L63.2726 72.2402L63.2724 72.24L53.7968 82.5957C53.5618 82.8525 53.2103 82.9686 52.8686 82.9023C52.5269 82.836 52.2442 82.5968 52.1224 82.2708L45.6867 65.0542H34.9315C34.5142 65.0542 34.1408 64.795 33.9947 64.404L27.3161 46.5215C27.2015 46.2145 27.2445 45.8708 27.4314 45.6015C27.6183 45.3323 27.9252 45.1717 28.2529 45.1717H39.377L55.343 27.6478C55.5776 27.3903 55.9294 27.2734 56.2715 27.3394ZM63.1866 47.1717L55.7753 55.2622L58.6853 63.0542H79.6102L73.6785 47.1717H63.1866ZM54.9897 53.1589L61.6053 45.937L55.7191 30.2046L42.0826 45.1717H51.3127C51.7301 45.1717 52.1035 45.4308 52.2495 45.8218L54.9897 53.1589ZM53.4731 54.8145L45.9252 63.0542H35.6255L29.6939 47.1717H50.6187L53.4731 54.8145ZM47.5272 64.2661L54.2586 56.9178L57.0545 64.404C57.2006 64.795 57.574 65.0542 57.9913 65.0542H67.1503L61.816 70.8694C61.8098 70.8759 61.8036 70.8825 61.7975 70.8891L53.4239 80.0406L47.5272 64.2661Z" fill="black"/>
</svg>
