<svg width="185" height="30" viewBox="0 0 185 30" fill="none" xmlns="http://www.w3.org/2000/svg">
<path d="M33.2311 13.5115L26.3264 1.66109C26.0624 1.21902 25.6866 0.852694 25.2359 0.598245C24.7853 0.343796 24.2754 0.21001 23.7566 0.210083H9.94585C9.425 0.210188 8.91335 0.34593 8.46228 0.603679C8.0112 0.861428 7.63658 1.23211 7.37603 1.6785L0.471381 13.5245C0.213661 13.9719 0.078125 14.478 0.078125 14.9929C0.078125 15.5079 0.213661 16.014 0.471381 16.4613L7.37603 28.3074C7.63544 28.7547 8.0098 29.1262 8.46114 29.3841C8.91247 29.642 9.42471 29.7771 9.94585 29.7758H23.7551C24.276 29.7757 24.7876 29.6399 25.2387 29.3822C25.6898 29.1244 26.0644 28.7538 26.325 28.3074L33.2296 16.4613C33.4877 16.0118 33.6236 15.5037 33.6238 14.9866C33.6241 14.4695 33.4888 13.9612 33.2311 13.5115ZM16.8505 25.1558V23.1244C18.4768 23.1244 20.0665 22.647 21.4187 21.7528C22.7709 20.8585 23.8248 19.5874 24.4471 18.1002C25.0695 16.6131 25.2323 14.9766 24.915 13.3979C24.5978 11.8191 23.8147 10.369 22.6647 9.23075C21.5148 8.09253 20.0497 7.3174 18.4546 7.00337C16.8596 6.68933 15.2063 6.85051 13.7039 7.46651C12.2014 8.0825 10.9172 9.12566 10.0137 10.4641C9.1102 11.8025 8.62795 13.376 8.62795 14.9857C8.62337 16.7606 9.21255 18.4872 10.3035 19.8959L11.7871 18.4652C11.0665 17.4444 10.6824 16.228 10.6876 14.9828C10.6876 13.7737 11.0498 12.5918 11.7285 11.5865C12.4071 10.5812 13.3717 9.7977 14.5002 9.33502C15.6287 8.87233 16.8705 8.75127 18.0686 8.98715C19.2666 9.22302 20.3671 9.80524 21.2308 10.6602C22.0946 11.5151 22.6828 12.6043 22.9211 13.7902C23.1594 14.976 23.0371 16.2051 22.5696 17.3222C22.1022 18.4392 21.3106 19.3939 20.2949 20.0656C19.2793 20.7373 18.0852 21.0959 16.8637 21.0959V19.0645C17.6776 19.0622 18.4726 18.8212 19.1483 18.3719C19.8239 17.9227 20.3499 17.2853 20.6597 16.5403C20.9696 15.7954 21.0495 14.9762 20.8893 14.1863C20.7291 13.3964 20.3359 12.6713 19.7596 12.1024C19.1832 11.5336 18.4495 11.1465 17.651 10.9902C16.8525 10.8339 16.0252 10.9153 15.2734 11.2241C14.5217 11.5329 13.8792 12.0553 13.4273 12.7254C12.9753 13.3954 12.7341 14.1829 12.7341 14.9886C12.7316 15.7021 12.9214 16.4033 13.2838 17.02L14.8187 15.5385C14.7674 15.3616 14.7418 15.1784 14.7425 14.9944C14.7425 14.5814 14.8662 14.1777 15.098 13.8344C15.3298 13.491 15.6592 13.2234 16.0447 13.0653C16.4302 12.9073 16.8543 12.8659 17.2635 12.9465C17.6727 13.0271 18.0486 13.2259 18.3436 13.5179C18.6386 13.81 18.8395 14.182 18.9209 14.587C19.0023 14.9921 18.9606 15.4119 18.8009 15.7934C18.6412 16.175 18.3708 16.5011 18.0239 16.7305C17.677 16.9599 17.2692 17.0824 16.852 17.0824C16.6474 17.0807 16.4445 17.0464 16.2509 16.9808L10.9442 22.1058C10.8946 22.1547 10.8389 22.1971 10.7785 22.232C10.7653 22.2451 10.7404 22.2451 10.7272 22.2567C10.6874 22.2829 10.6446 22.3044 10.5997 22.3205C10.5747 22.3336 10.5484 22.3336 10.5234 22.3452L10.4076 22.3829C10.3829 22.3823 10.3583 22.3872 10.3358 22.3974C10.2977 22.3974 10.2596 22.4105 10.2332 22.4105C10.1951 22.4105 10.1569 22.3974 10.1174 22.3974C10.087 22.3985 10.0567 22.3941 10.0279 22.3844L9.91213 22.3466C9.88721 22.3336 9.86082 22.3336 9.8359 22.322C9.7947 22.3057 9.75578 22.2842 9.72009 22.2581C9.69698 22.2485 9.67528 22.2358 9.65559 22.2204C9.61868 22.1941 9.58433 22.1645 9.55297 22.1319C9.53978 22.1188 9.51486 22.1072 9.50166 22.0811C7.8481 20.3993 6.83319 18.2032 6.62911 15.8652C6.42503 13.5272 7.04435 11.1913 8.382 9.25374C9.71964 7.3162 11.6933 5.89631 13.9681 5.23495C16.2428 4.57359 18.6787 4.71148 20.8625 5.62522C23.0463 6.53896 24.8435 8.17229 25.9493 10.2481C27.055 12.324 27.4013 14.7146 26.9292 17.0143C26.4572 19.314 25.196 21.3813 23.3595 22.8655C21.523 24.3497 19.2243 25.1594 16.8534 25.1572L16.8505 25.1558Z" fill="white"/>
<path d="M41.3711 5.46293H47.6616C53.7476 5.39909 58.2308 9.31093 58.1418 14.9552C58.2308 20.4864 53.7491 24.6507 47.6616 24.5607H41.3711V5.46293ZM47.6236 21.0435C51.4951 21.0435 54.0922 18.6393 54.0922 14.9683C54.0922 11.2596 51.5579 9.00767 47.6236 9.00767H45.2879V21.0508H47.6236V21.0435Z" fill="white"/>
<path d="M72.5546 24.5741H68.9386V23.1826C68.3637 23.7536 67.6776 24.2019 66.9223 24.5001C66.167 24.7983 65.3583 24.94 64.5459 24.9165C61.4905 24.9165 59.5664 23.1449 59.5664 20.6391C59.5664 18.0578 61.6671 16.4747 65.016 16.4747H68.632V15.8421C68.6624 15.4918 68.613 15.1391 68.4874 14.8104C68.3618 14.4816 68.1633 14.1852 67.9066 13.9432C67.6499 13.7012 67.3417 13.5198 67.0048 13.4124C66.6678 13.3051 66.3109 13.2746 65.9605 13.3232C65.2148 13.3431 64.4834 13.5313 63.8215 13.8734C63.1597 14.2155 62.5847 14.7026 62.1401 15.298L60.0963 12.8937C60.8466 11.9521 61.806 11.1958 62.8993 10.6841C63.9926 10.1723 65.1902 9.91898 66.3985 9.94388C67.2291 9.86535 68.0669 9.97017 68.852 10.2508C69.6371 10.5315 70.3501 10.9811 70.9401 11.5675C71.53 12.1539 71.9824 12.8626 72.2648 13.6429C72.5472 14.4233 72.6526 15.256 72.5736 16.0815V24.5741H72.5546ZM68.6131 19.043H65.5386C64.2525 19.043 63.527 19.5363 63.527 20.4852C63.527 21.4342 64.3416 22.0421 65.5897 22.0421C65.9785 22.064 66.3677 22.007 66.7335 21.8745C67.0994 21.7421 67.4343 21.537 67.7179 21.2717C68.0014 21.0064 68.2277 20.6866 68.3828 20.3316C68.538 19.9766 68.6188 19.594 68.6204 19.2069L68.6131 19.043Z" fill="white"/>
<path d="M83.8482 24.9165C83.0469 24.9419 82.2491 24.8007 81.5058 24.5022C80.7624 24.2036 80.09 23.7542 79.5314 23.1826V29.7758H75.5898V10.25H79.2059V12.0448C79.7478 11.3432 80.454 10.7838 81.2631 10.4153C82.0722 10.0469 82.9596 9.88051 83.8482 9.93076C84.8083 9.93974 85.7566 10.143 86.6352 10.5281C87.5137 10.9132 88.3042 11.4721 88.9583 12.1707C89.6124 12.8694 90.1166 13.6931 90.44 14.5917C90.7634 15.4903 90.8993 16.445 90.8394 17.3975C90.9003 18.3528 90.7656 19.3105 90.4432 20.2125C90.1208 21.1145 89.6175 21.9421 88.9639 22.6451C88.3102 23.3481 87.5198 23.9119 86.6404 24.3024C85.7611 24.6928 84.8112 24.9017 83.8482 24.9165ZM83.1183 13.4624C82.6098 13.453 82.105 13.551 81.6374 13.7498C81.1699 13.9487 80.7501 14.2439 80.4058 14.616C80.0615 14.9881 79.8006 15.4285 79.6403 15.9083C79.48 16.388 79.424 16.8961 79.4759 17.399C79.4238 17.9031 79.4796 18.4124 79.6395 18.8936C79.7994 19.3748 80.0599 19.8169 80.4038 20.191C80.7478 20.565 81.1674 20.8626 81.6352 21.0641C82.1031 21.2656 82.6084 21.3665 83.1183 21.3601C83.6285 21.3621 84.1337 21.2599 84.6025 21.0598C85.0713 20.8597 85.4938 20.566 85.8436 20.1969C86.1935 19.8278 86.4634 19.3912 86.6364 18.9141C86.8095 18.437 86.882 17.9297 86.8496 17.4236C86.8887 16.9152 86.821 16.4043 86.651 15.9232C86.4809 15.4422 86.2122 15.0015 85.8618 14.6291C85.5114 14.2567 85.087 13.9607 84.6155 13.7599C84.144 13.559 83.6356 13.4578 83.1226 13.4624H83.1183Z" fill="white"/>
<path d="M101.434 24.9163C100.633 24.9417 99.835 24.8006 99.0917 24.502C98.3484 24.2035 97.6759 23.754 97.1174 23.1824V29.7757H93.1758V10.2498H96.8035V12.0447C97.3443 11.3447 98.0486 10.7863 98.8555 10.418C99.6624 10.0496 100.548 9.8823 101.434 9.93063C102.394 9.93961 103.343 10.1428 104.221 10.528C105.1 10.9131 105.89 11.472 106.544 12.1706C107.198 12.8693 107.703 13.693 108.026 14.5916C108.349 15.4902 108.485 16.4449 108.425 17.3974C108.486 18.3527 108.352 19.3104 108.029 20.2124C107.707 21.1144 107.203 21.942 106.55 22.645C105.896 23.348 105.106 23.9118 104.226 24.3022C103.347 24.6926 102.397 24.9016 101.434 24.9163ZM100.704 13.4623C100.196 13.4529 99.691 13.5508 99.2234 13.7497C98.7558 13.9486 98.336 14.2438 97.9917 14.6159C97.6475 14.9879 97.3866 15.4284 97.2263 15.9081C97.066 16.3879 97.01 16.896 97.0619 17.3988C97.0098 17.9029 97.0655 18.4123 97.2254 18.8935C97.3853 19.3746 97.6458 19.8168 97.9898 20.1908C98.3337 20.5649 98.7534 20.8625 99.2212 21.0639C99.689 21.2654 100.194 21.3663 100.704 21.36C101.214 21.362 101.72 21.2598 102.188 21.0597C102.657 20.8596 103.08 20.5659 103.43 20.1968C103.779 19.8277 104.049 19.391 104.222 18.914C104.395 18.4369 104.468 17.9296 104.436 17.4235C104.476 16.9148 104.409 16.4035 104.239 15.9219C104.07 15.4404 103.801 14.9992 103.45 14.6266C103.1 14.2539 102.675 13.9579 102.203 13.7575C101.731 13.557 101.222 13.4565 100.709 13.4623H100.704Z" fill="white"/>
<path d="M122.728 24.5736L117.749 17.828H114.871V24.5736H110.93V5.46277H118.15C122.173 5.46277 125.077 7.95555 125.077 11.6265C125.098 12.7595 124.791 13.8745 124.193 14.8392C123.595 15.8039 122.731 16.5779 121.703 17.0692L127.153 24.562H122.728V24.5736ZM114.86 14.3863H118.149C118.529 14.4264 118.913 14.3842 119.275 14.2626C119.637 14.1409 119.968 13.9428 120.245 13.6817C120.523 13.4206 120.74 13.1029 120.882 12.7504C121.024 12.3978 121.088 12.0189 121.068 11.6396C121.08 11.2634 121.012 10.8889 120.867 10.5411C120.722 10.1934 120.504 9.88032 120.228 9.62286C119.951 9.36541 119.623 9.16947 119.264 9.04809C118.906 8.92672 118.526 8.88271 118.149 8.919H114.864L114.86 14.3863Z" fill="white"/>
<path d="M140.363 24.5741H136.747V23.1826C136.172 23.7536 135.486 24.202 134.731 24.5001C133.976 24.7983 133.167 24.94 132.355 24.9166C129.299 24.9166 127.375 23.1449 127.375 20.6391C127.375 18.0578 129.476 16.4748 132.825 16.4748H136.441V15.8421C136.471 15.4915 136.422 15.1386 136.296 14.8096C136.17 14.4806 135.971 14.184 135.714 13.9419C135.457 13.6999 135.149 13.5185 134.811 13.4114C134.474 13.3043 134.117 13.2741 133.766 13.3232C133.02 13.3432 132.289 13.5313 131.627 13.8734C130.965 14.2155 130.39 14.7026 129.946 15.298L127.902 12.8937C128.651 11.954 129.609 11.1989 130.7 10.6875C131.791 10.1761 132.986 9.92208 134.192 9.94535C135.023 9.86681 135.861 9.97163 136.646 10.2523C137.431 10.533 138.144 10.9826 138.734 11.569C139.324 12.1554 139.776 12.8641 140.059 13.6444C140.341 14.4247 140.447 15.2574 140.368 16.083V24.5756L140.363 24.5741ZM136.422 19.043H133.34C132.054 19.043 131.328 19.5363 131.328 20.4853C131.328 21.4342 132.143 22.0422 133.391 22.0422C133.78 22.064 134.169 22.007 134.535 21.8745C134.901 21.7421 135.236 21.537 135.519 21.2717C135.803 21.0064 136.029 20.6866 136.184 20.3316C136.339 19.9766 136.42 19.594 136.422 19.207V19.043Z" fill="white"/>
<path d="M157.831 2.85559V24.5608H154.215V22.7891C153.674 23.4898 152.969 24.0485 152.161 24.4169C151.354 24.7853 150.468 24.9523 149.58 24.9032C148.618 24.8934 147.668 24.6887 146.788 24.3017C145.908 23.9146 145.117 23.3533 144.463 22.652C143.808 21.9508 143.305 21.1243 142.983 20.223C142.661 19.3218 142.527 18.3648 142.589 17.4104C142.527 16.456 142.661 15.4989 142.983 14.5977C143.305 13.6965 143.808 12.87 144.463 12.1687C145.117 11.4675 145.908 10.9061 146.788 10.5191C147.668 10.132 148.618 9.92732 149.58 9.91751C150.381 9.87928 151.181 10.0121 151.925 10.3069C152.67 10.6018 153.342 11.0518 153.897 11.6268V2.85559H157.831ZM150.319 13.4622C149.809 13.4602 149.304 13.5624 148.835 13.7625C148.366 13.9626 147.944 14.2564 147.594 14.6255C147.244 14.9946 146.974 15.4312 146.801 15.9083C146.628 16.3853 146.555 16.8927 146.588 17.3988C146.547 17.9078 146.614 18.4195 146.784 18.9014C146.954 19.3832 147.223 19.8246 147.574 20.1973C147.926 20.57 148.351 20.8659 148.823 21.0661C149.296 21.2663 149.805 21.3663 150.319 21.3599C150.828 21.3694 151.332 21.2714 151.8 21.0725C152.267 20.8737 152.687 20.5785 153.032 20.2064C153.376 19.8343 153.637 19.3938 153.797 18.9141C153.957 18.4344 154.013 17.9263 153.961 17.4234C154.011 16.9197 153.954 16.4112 153.793 15.931C153.633 15.4507 153.372 15.0094 153.029 14.6358C152.685 14.2622 152.266 13.9646 151.8 13.7624C151.333 13.5603 150.828 13.458 150.319 13.4622Z" fill="white"/>
<path d="M173.09 24.5741H169.474V23.1826C168.899 23.7536 168.213 24.202 167.457 24.5001C166.702 24.7983 165.893 24.94 165.081 24.9166C162.026 24.9166 160.102 23.1449 160.102 20.6391C160.102 18.0578 162.202 16.4748 165.551 16.4748H169.167V15.8421C169.198 15.4915 169.148 15.1386 169.022 14.8096C168.897 14.4806 168.698 14.184 168.441 13.9419C168.184 13.6999 167.875 13.5185 167.538 13.4114C167.201 13.3043 166.843 13.2741 166.493 13.3232C165.747 13.3432 165.016 13.5313 164.354 13.8734C163.692 14.2155 163.117 14.7026 162.672 15.298L160.629 12.8937C161.378 11.954 162.335 11.1989 163.426 10.6875C164.518 10.1761 165.713 9.92208 166.919 9.94535C167.75 9.86681 168.587 9.97163 169.373 10.2523C170.158 10.533 170.871 10.9826 171.461 11.569C172.051 12.1554 172.503 12.8641 172.785 13.6444C173.068 14.4247 173.173 15.2574 173.094 16.083V24.5756L173.09 24.5741ZM169.167 19.043H166.087C164.801 19.043 164.075 19.5363 164.075 20.4853C164.075 21.4342 164.89 22.0422 166.138 22.0422C166.527 22.064 166.916 22.007 167.282 21.8745C167.648 21.7421 167.983 21.537 168.266 21.2717C168.55 21.0064 168.776 20.6866 168.931 20.3316C169.086 19.9766 169.167 19.594 169.169 19.207L169.167 19.043Z" fill="white"/>
<path d="M184.994 13.6901H183.95C183.437 13.6307 182.917 13.6855 182.428 13.8505C181.939 14.0154 181.493 14.2864 181.123 14.6437C180.752 15.0011 180.466 15.4359 180.286 15.9167C180.105 16.3974 180.034 16.9121 180.078 17.4234V24.5739H176.137V10.2469H179.753V11.9561C180.224 11.3618 180.826 10.8827 181.513 10.5557C182.199 10.2287 182.952 10.0625 183.713 10.0699C184.149 10.0584 184.583 10.1182 184.999 10.2469V13.6901H184.994Z" fill="white"/>
</svg>
