<svg width="183" height="43" viewBox="0 0 183 43" fill="none" xmlns="http://www.w3.org/2000/svg">
<path fill-rule="evenodd" clip-rule="evenodd" d="M53.8808 24.8871H61.5017V25.4988C61.5017 26.8886 61.3387 28.1189 61.012 29.1887C60.693 30.1795 60.1551 31.1066 59.3993 31.9692C57.687 33.9025 55.5089 34.868 52.8648 34.868C50.2849 34.868 48.0754 33.934 46.2362 32.0644C44.3962 30.1872 43.4766 27.9347 43.4766 25.3061C43.4766 22.6223 44.4122 20.3452 46.2836 18.4765C48.155 16.5993 50.4326 15.6606 53.1165 15.6606C54.5571 15.6606 55.9029 15.9554 57.153 16.5432C58.348 17.1319 59.5224 18.0881 60.6769 19.4112L58.6946 21.3169C57.1813 19.2954 55.3375 18.2846 53.1639 18.2846C51.213 18.2846 49.5765 18.96 48.2544 20.3099C46.9324 21.6361 46.2714 23.2977 46.2714 25.2946C46.2714 27.3553 47.0081 29.0529 48.4817 30.3875C49.8588 31.6254 51.3522 32.244 52.9612 32.244C54.3306 32.244 55.5609 31.782 56.6519 30.858C57.7429 29.9255 58.3519 28.8104 58.4796 27.5111H53.8808V24.8871Z" fill="white"/>
<mask id="mask0" mask-type="alpha" maskUnits="userSpaceOnUse" x="0" y="0" width="183" height="43">
<path d="M0 42.09H182.564V0H0V42.09Z" fill="white"/>
</mask>
<g mask="url(#mask0)">
<path fill-rule="evenodd" clip-rule="evenodd" d="M71.3633 34.5205H74.1466V16.02H71.3633V34.5205Z" fill="white"/>
<path fill-rule="evenodd" clip-rule="evenodd" d="M90.0273 18.6443V34.5209H87.2439V18.6443H83.0039V16.0204H94.2558V18.6443H90.0273Z" fill="white"/>
<path fill-rule="evenodd" clip-rule="evenodd" d="M116.069 17.0086V20.3102C114.46 18.9595 112.796 18.2849 111.076 18.2849C109.18 18.2849 107.584 18.9679 106.286 20.334C104.98 21.6917 104.327 23.3532 104.327 25.3187C104.327 27.2596 104.98 28.8974 106.286 30.2312C107.592 31.5658 109.192 32.2328 111.088 32.2328C112.068 32.2328 112.899 32.0724 113.585 31.7531C113.966 31.5935 114.363 31.3778 114.773 31.1061C115.183 30.8344 115.615 30.5067 116.069 30.123V33.4968C114.476 34.4031 112.804 34.8567 111.052 34.8567C108.416 34.8567 106.167 33.9342 104.303 32.0885C102.448 30.2274 101.52 27.9825 101.52 25.3548C101.52 22.9979 102.296 20.8973 103.849 19.0516C105.76 16.7914 108.233 15.6602 111.267 15.6602C112.924 15.6602 114.524 16.1099 116.069 17.0086Z" fill="white"/>
<path fill-rule="evenodd" clip-rule="evenodd" d="M128.084 22.2687C128.084 24.3116 128.769 25.9916 130.139 27.3094C131.5 28.6256 133.073 29.284 134.857 29.284C136.792 29.284 138.424 28.6133 139.755 27.2725C141.085 25.9164 141.749 24.2641 141.749 22.3162C141.749 20.3454 141.092 18.693 139.779 17.36C138.473 16.0192 136.856 15.3484 134.929 15.3484C133.01 15.3484 131.389 16.0192 130.067 17.36C128.745 18.6854 128.084 20.3208 128.084 22.2687ZM125.277 22.2387C125.277 19.6347 126.228 17.3976 128.132 15.528C130.027 13.6593 132.305 12.7245 134.965 12.7245C137.593 12.7245 139.846 13.6669 141.726 15.5526C143.613 17.4375 144.556 19.7023 144.556 22.3462C144.556 25.0062 143.608 27.2633 141.713 29.1167C139.811 30.9778 137.512 31.9088 134.822 31.9088C132.44 31.9088 130.302 31.0814 128.406 29.4276C126.32 27.5987 125.277 25.2027 125.277 22.2387Z" fill="#0FCE7C"/>
<path fill-rule="evenodd" clip-rule="evenodd" d="M152.758 34.5205H155.541V16.02H152.758V34.5205Z" fill="white"/>
<path fill-rule="evenodd" clip-rule="evenodd" d="M166.332 34.5208V14.7617L179.783 28.8769V16.0204H182.565V35.6475L169.115 21.5676V34.5208H166.332Z" fill="white"/>
<path fill-rule="evenodd" clip-rule="evenodd" d="M17.7608 9.04428V5.09875C17.7608 4.47327 17.2543 3.96521 16.63 3.96521C16.0057 3.96521 15.5 4.47327 15.5 5.09875V9.13101C16.0746 9.06731 16.6583 9.03124 17.2497 9.03124C17.4211 9.03124 17.5909 9.03891 17.7608 9.04428Z" fill="white"/>
<path fill-rule="evenodd" clip-rule="evenodd" d="M23.2266 18.245L23.4087 18.4223C25.1385 20.1076 26.091 22.3686 26.091 24.7876C26.091 27.1046 25.2058 29.2972 23.5992 30.9618L23.5104 31.0524L24.241 31.7631L26.0665 33.212C28.2332 30.9304 29.4275 27.9426 29.4275 24.7876C29.4275 21.4806 28.133 18.39 25.7842 16.0746L24.6381 17.1582L23.2266 18.245Z" fill="#0FCE7C"/>
<path fill-rule="evenodd" clip-rule="evenodd" d="M25.9117 33.3812L25.9996 33.2898C26.0241 33.2645 26.0471 33.2376 26.0708 33.2123L24.2461 31.7626L25.9117 33.3812Z" fill="#0FCE7C"/>
<path fill-rule="evenodd" clip-rule="evenodd" d="M27.3016 38.9973H17.2478C9.43717 38.9973 3.08248 32.6227 3.08248 24.7877C3.08248 16.9519 9.43717 10.5781 17.2478 10.5781C20.4909 10.5781 23.5673 11.6633 26.0645 13.6633L19.1628 20.0601C18.5714 19.8184 17.9257 19.6841 17.2478 19.6841C14.443 19.6841 12.1601 21.9734 12.1601 24.7877C12.1601 27.602 14.443 29.8913 17.2478 29.8913C17.7474 29.8913 18.2302 29.8176 18.6861 29.6826L27.3016 36.1876V38.9973ZM17.2478 26.7984C16.143 26.7984 15.2433 25.8967 15.2433 24.7877C15.2433 23.6787 16.143 22.7762 17.2478 22.7762C18.3541 22.7762 19.2531 23.6787 19.2531 24.7877C19.2531 25.8967 18.3541 26.7984 17.2478 26.7984ZM22.3363 24.7877C22.3363 23.7854 22.0456 22.8506 21.5467 22.0617L25.6628 18.2466L25.698 18.2834L30.5677 13.6787L29.4453 12.5528C26.1869 9.28493 21.8558 7.48523 17.2478 7.48523C7.73718 7.48523 0 15.2466 0 24.7877C0 34.2336 7.58646 41.9313 16.9685 42.0825V42.0902H30.3849V34.645L21.3402 27.8153C21.966 26.9681 22.3363 25.9205 22.3363 24.7877Z" fill="white"/>
<path fill-rule="evenodd" clip-rule="evenodd" d="M33.9517 5.94978L32.7161 7.18923L31.4805 5.94978L32.7161 4.71033L33.9517 5.94978Z" fill="#25E899"/>
<path fill-rule="evenodd" clip-rule="evenodd" d="M22.1852 6.09663L21.5945 6.68911L21.0039 6.09663L21.5945 5.50415L22.1852 6.09663Z" fill="#25E899"/>
<path fill-rule="evenodd" clip-rule="evenodd" d="M28.3162 0.893572C28.3162 0.400093 27.9176 0.000244141 27.4257 0.000244141C26.9338 0.000244141 26.5352 0.400093 26.5352 0.893572C26.5352 1.38705 26.9338 1.7869 27.4257 1.7869C27.9176 1.7869 28.3162 1.38705 28.3162 0.893572Z" fill="#25E899"/>
<path fill-rule="evenodd" clip-rule="evenodd" d="M11.2792 18.292C10.6549 18.292 10.1484 17.7839 10.1484 17.1577V5.09928C10.1484 4.47226 10.6549 3.96497 11.2792 3.96497C11.9035 3.96497 12.4092 4.47226 12.4092 5.09928V17.1577C12.4092 17.7839 11.9035 18.292 11.2792 18.292Z" fill="white"/>
</g>
</svg>
