<svg width="444" height="254" viewBox="0 0 444 254" fill="none" xmlns="http://www.w3.org/2000/svg">
<path opacity="0.3" d="M363.807 222.082H67.1151C62.5597 222.082 58.2645 220.418 55.0106 217.337L-174 0.431345L-173.544 0L55.5312 216.906C58.655 219.864 62.7549 221.466 67.1802 221.466H363.807V222.082Z" fill="white"/>
<path opacity="0.3" d="M373.25 230.401C378.641 230.401 383.012 226.263 383.012 221.158C383.012 216.053 378.641 211.915 373.25 211.915C367.859 211.915 363.488 216.053 363.488 221.158C363.488 226.263 367.859 230.401 373.25 230.401Z" fill="white"/>
<path opacity="0.3" d="M285.388 226.087C287.903 226.087 289.943 224.156 289.943 221.774C289.943 219.392 287.903 217.46 285.388 217.46C282.872 217.46 280.832 219.392 280.832 221.774C280.832 224.156 282.872 226.087 285.388 226.087Z" fill="white"/>
<g opacity="0.3">
<path opacity="0.3" d="M120.319 245.346L114.039 249.186V253.027L126.599 245.346L114.039 237.666V241.506L120.319 245.346Z" fill="white"/>
<path opacity="0.3" d="M132.87 245.346L126.59 249.186V253.027L139.28 245.346L126.59 237.666V241.506L132.87 245.346Z" fill="white"/>
<path opacity="0.3" d="M145.565 245.346L139.285 249.186V253.027L151.976 245.346L139.285 237.666V241.506L145.565 245.346Z" fill="white"/>
<path opacity="0.3" d="M158.118 245.346L151.969 249.186V253.027L164.529 245.346L151.969 237.666V241.506L158.118 245.346Z" fill="white"/>
<path opacity="0.3" d="M170.815 245.346L164.535 249.186V253.027L177.226 245.346L164.535 237.666V241.506L170.815 245.346Z" fill="white"/>
</g>
<g opacity="0.3">
<path opacity="0.3" d="M210.703 8.40993L205.02 11.8856V15.3612L216.387 8.40993L205.02 1.45862V4.93427L210.703 8.40993Z" fill="white"/>
<path opacity="0.3" d="M222.062 8.40993L216.379 11.8856V15.3612L227.864 8.40993L216.379 1.45862V4.93427L222.062 8.40993Z" fill="white"/>
<path opacity="0.3" d="M233.551 8.40981L227.867 11.8855V15.3611L239.353 8.40981L227.867 1.4585V4.93415L233.551 8.40981Z" fill="white"/>
<path opacity="0.3" d="M244.913 8.40993L239.348 11.8856V15.3612L250.715 8.40993L239.348 1.45862V4.93427L244.913 8.40993Z" fill="white"/>
<path opacity="0.3" d="M256.402 8.40981L250.719 11.8855V15.3611L262.204 8.40981L250.719 1.4585V4.93415L256.402 8.40981Z" fill="white"/>
</g>
<path d="M86.3125 204.336H-172.699V203.719H86.3125C88.2648 203.719 89.8918 202.179 89.8918 200.33V96.8069C89.8918 94.5885 91.7791 92.8015 94.1219 92.8015H351.832V93.4177H94.1219C92.1695 93.4177 90.5425 94.9582 90.5425 96.8069V200.33C90.5425 202.549 88.6553 204.336 86.3125 204.336Z" fill="white"/>
<path d="M408.452 154.422H286.755C284.412 154.422 282.525 152.635 282.525 150.417V42.58C282.525 40.7313 280.898 39.1908 278.946 39.1908H-172.047V38.5746H278.946C281.289 38.5746 283.176 40.3616 283.176 42.58V150.417C283.176 152.265 284.803 153.806 286.755 153.806H408.452V154.422Z" fill="white"/>
<path d="M351.509 101.428C356.541 101.428 360.62 97.5658 360.62 92.8013C360.62 88.0367 356.541 84.1743 351.509 84.1743C346.478 84.1743 342.398 88.0367 342.398 92.8013C342.398 97.5658 346.478 101.428 351.509 101.428Z" fill="white"/>
<path d="M408.127 161.2C413.158 161.2 417.238 157.338 417.238 152.573C417.238 147.809 413.158 143.947 408.127 143.947C403.095 143.947 399.016 147.809 399.016 152.573C399.016 157.338 403.095 161.2 408.127 161.2Z" fill="white"/>
<path d="M205.508 45.4216C209.102 45.4216 212.016 42.6628 212.016 39.2595C212.016 35.8563 209.102 33.0974 205.508 33.0974C201.914 33.0974 199 35.8563 199 39.2595C199 42.6628 201.914 45.4216 205.508 45.4216Z" fill="white"/>
<path d="M-0.472637 45.4647C3.12154 45.4647 6.03519 42.7058 6.03519 39.3026C6.03519 35.8994 3.12154 33.1405 -0.472637 33.1405C-4.06681 33.1405 -6.98047 35.8994 -6.98047 39.3026C-6.98047 42.7058 -4.06681 45.4647 -0.472637 45.4647Z" fill="white"/>
<path d="M254.543 99.5797C258.137 99.5797 261.051 96.8208 261.051 93.4176C261.051 90.0144 258.137 87.2555 254.543 87.2555C250.949 87.2555 248.035 90.0144 248.035 93.4176C248.035 96.8208 250.949 99.5797 254.543 99.5797Z" fill="white"/>
<path d="M86.3125 204.335H-172.699V203.719H86.3125C88.2648 203.719 89.8918 202.178 89.8918 200.33V96.8064C89.8918 94.588 91.7791 92.801 94.1219 92.801H351.832V93.4172H94.1219C92.1695 93.4172 90.5425 94.9578 90.5425 96.8064V200.33C90.5425 202.548 88.6553 204.335 86.3125 204.335Z" fill="white"/>
<path d="M408.452 154.422H286.755C284.412 154.422 282.525 152.635 282.525 150.417V42.5797C282.525 40.7311 280.898 39.1906 278.946 39.1906H-172.047V38.5743H278.946C281.289 38.5743 283.176 40.3614 283.176 42.5797V150.417C283.176 152.265 284.803 153.806 286.755 153.806H408.452V154.422Z" fill="white"/>
<g filter="url(#filter0_d)">
<path d="M90.1305 165.913C95.1623 165.913 99.2415 162.051 99.2415 157.286C99.2415 152.522 95.1623 148.659 90.1305 148.659C85.0986 148.659 81.0195 152.522 81.0195 157.286C81.0195 162.051 85.0986 165.913 90.1305 165.913Z" fill="white"/>
</g>
<g filter="url(#filter1_d)">
<path d="M351.509 101.428C356.541 101.428 360.62 97.5653 360.62 92.8008C360.62 88.0362 356.541 84.1738 351.509 84.1738C346.478 84.1738 342.398 88.0362 342.398 92.8008C342.398 97.5653 346.478 101.428 351.509 101.428Z" fill="white"/>
</g>
<g filter="url(#filter2_d)">
<path d="M408.127 161.2C413.158 161.2 417.238 157.338 417.238 152.573C417.238 147.809 413.158 143.946 408.127 143.946C403.095 143.946 399.016 147.809 399.016 152.573C399.016 157.338 403.095 161.2 408.127 161.2Z" fill="white"/>
</g>
<path d="M254.543 99.5793C258.137 99.5793 261.051 96.8205 261.051 93.4172C261.051 90.014 258.137 87.2551 254.543 87.2551C250.949 87.2551 248.035 90.014 248.035 93.4172C248.035 96.8205 250.949 99.5793 254.543 99.5793Z" fill="white"/>
<path d="M117.908 32.7097L111.695 38.592L117.908 44.4743L124.12 38.592L117.908 32.7097Z" fill="#BBBBBB"/>
<path d="M103.228 32.71L97.0156 38.5923L103.228 44.4746L109.44 38.5923L103.228 32.71Z" fill="#BBBBBB"/>
<path d="M88.5483 32.71L82.3359 38.5923L88.5483 44.4746L94.7606 38.5923L88.5483 32.71Z" fill="#BBBBBB"/>
<path d="M73.8608 32.7097L67.6484 38.592L73.8608 44.4743L80.0731 38.592L73.8608 32.7097Z" fill="#BBBBBB"/>
<defs>
<filter id="filter0_d" x="55.0195" y="122.659" width="70.2219" height="69.2539" filterUnits="userSpaceOnUse" color-interpolation-filters="sRGB">
<feFlood flood-opacity="0" result="BackgroundImageFix"/>
<feColorMatrix in="SourceAlpha" type="matrix" values="0 0 0 0 0 0 0 0 0 0 0 0 0 0 0 0 0 0 127 0"/>
<feOffset/>
<feGaussianBlur stdDeviation="13"/>
<feColorMatrix type="matrix" values="0 0 0 0 1 0 0 0 0 1 0 0 0 0 1 0 0 0 1 0"/>
<feBlend mode="normal" in2="BackgroundImageFix" result="effect1_dropShadow"/>
<feBlend mode="normal" in="SourceGraphic" in2="effect1_dropShadow" result="shape"/>
</filter>
<filter id="filter1_d" x="316.398" y="58.1738" width="70.2219" height="69.2539" filterUnits="userSpaceOnUse" color-interpolation-filters="sRGB">
<feFlood flood-opacity="0" result="BackgroundImageFix"/>
<feColorMatrix in="SourceAlpha" type="matrix" values="0 0 0 0 0 0 0 0 0 0 0 0 0 0 0 0 0 0 127 0"/>
<feOffset/>
<feGaussianBlur stdDeviation="13"/>
<feColorMatrix type="matrix" values="0 0 0 0 1 0 0 0 0 1 0 0 0 0 1 0 0 0 1 0"/>
<feBlend mode="normal" in2="BackgroundImageFix" result="effect1_dropShadow"/>
<feBlend mode="normal" in="SourceGraphic" in2="effect1_dropShadow" result="shape"/>
</filter>
<filter id="filter2_d" x="373.016" y="117.946" width="70.2219" height="69.2539" filterUnits="userSpaceOnUse" color-interpolation-filters="sRGB">
<feFlood flood-opacity="0" result="BackgroundImageFix"/>
<feColorMatrix in="SourceAlpha" type="matrix" values="0 0 0 0 0 0 0 0 0 0 0 0 0 0 0 0 0 0 127 0"/>
<feOffset/>
<feGaussianBlur stdDeviation="13"/>
<feColorMatrix type="matrix" values="0 0 0 0 1 0 0 0 0 1 0 0 0 0 1 0 0 0 1 0"/>
<feBlend mode="normal" in2="BackgroundImageFix" result="effect1_dropShadow"/>
<feBlend mode="normal" in="SourceGraphic" in2="effect1_dropShadow" result="shape"/>
</filter>
</defs>
</svg>
