<svg width="429" height="377" viewBox="0 0 429 377" fill="none" xmlns="http://www.w3.org/2000/svg">
<path opacity="0.3" d="M96.4526 222.386H393.551C398.113 222.386 402.414 220.72 405.672 217.635L634.996 0.431936L634.54 0L405.151 217.203C402.023 220.165 397.917 221.769 393.486 221.769H96.4526V222.386Z" fill="white"/>
<path opacity="0.3" d="M84.9821 360.791L308.18 149.512C311.309 146.55 315.414 144.946 319.845 144.946H634.734V144.328H319.78C315.219 144.328 310.917 145.995 307.659 149.08L84.4608 360.421L84.9821 360.791Z" fill="white"/>
<path opacity="0.3" d="M320.627 286.251H634.734V286.868H320.627V286.251Z" fill="white"/>
<path opacity="0.3" d="M330.063 116.646H330.715V170.515C330.715 179.462 323.025 186.682 313.641 186.682H135.538V186.065H313.641C322.699 186.065 330.063 179.092 330.063 170.515V116.646Z" fill="white"/>
<path opacity="0.3" d="M86.9983 230.717C81.5997 230.717 77.2232 226.573 77.2232 221.461C77.2232 216.349 81.5997 212.205 86.9983 212.205C92.397 212.205 96.7734 216.349 96.7734 221.461C96.7734 226.573 92.397 230.717 86.9983 230.717Z" fill="white"/>
<path opacity="0.3" d="M77.8421 376.705C72.4434 376.705 68.067 372.561 68.067 367.449C68.067 362.337 72.4434 358.193 77.8421 358.193C83.2407 358.193 87.6172 362.337 87.6172 367.449C87.6172 372.561 83.2407 376.705 77.8421 376.705Z" fill="white"/>
<path opacity="0.3" d="M394.595 149.265C392.075 149.265 390.033 147.332 390.033 144.946C390.033 142.561 392.075 140.627 394.595 140.627C397.114 140.627 399.156 142.561 399.156 144.946C399.156 147.332 397.114 149.265 394.595 149.265Z" fill="white"/>
<path opacity="0.3" d="M174.977 226.397C172.458 226.397 170.416 224.464 170.416 222.078C170.416 219.693 172.458 217.759 174.977 217.759C177.497 217.759 179.539 219.693 179.539 222.078C179.539 224.464 177.497 226.397 174.977 226.397Z" fill="white"/>
<path opacity="0.3" d="M174.97 181.746C172.45 181.746 170.408 183.68 170.408 186.065C170.408 188.451 172.45 190.385 174.97 190.385C177.489 190.385 179.531 188.451 179.531 186.065C179.531 183.68 177.489 181.746 174.97 181.746Z" fill="white"/>
<path opacity="0.3" d="M125.772 176.809C120.373 176.809 115.997 180.953 115.997 186.065C115.997 191.177 120.373 195.321 125.772 195.321C131.17 195.321 135.547 191.177 135.547 186.065C135.547 180.953 131.17 176.809 125.772 176.809Z" fill="white"/>
<path opacity="0.3" d="M320.948 295.507C315.549 295.507 311.172 291.363 311.172 286.251C311.172 281.14 315.549 276.996 320.948 276.996C326.346 276.996 330.723 281.14 330.723 286.251C330.723 291.363 326.346 295.507 320.948 295.507Z" fill="white"/>
<g opacity="0.3">
<path opacity="0.3" d="M253.792 152.719L258.469 155.578V158.438L249.116 152.719L258.469 146.999V149.859L253.792 152.719Z" fill="white"/>
<path opacity="0.3" d="M244.449 152.718L249.125 155.577V158.437L239.675 152.718L249.125 146.998V149.858L244.449 152.718Z" fill="white"/>
<path opacity="0.3" d="M234.996 152.718L239.672 155.577V158.437L230.222 152.718L239.672 146.998V149.858L234.996 152.718Z" fill="white"/>
<path opacity="0.3" d="M225.648 152.718L230.227 155.577V158.437L220.874 152.718L230.227 146.998V149.858L225.648 152.718Z" fill="white"/>
<path opacity="0.3" d="M216.191 152.718L220.867 155.577V158.437L211.417 152.718L220.867 146.998V149.858L216.191 152.718Z" fill="white"/>
</g>
<g opacity="0.3">
<path opacity="0.3" d="M217.89 352.168L223.836 355.804V359.44L211.944 352.168L223.836 344.896V348.532L217.89 352.168Z" fill="white"/>
<path opacity="0.3" d="M205.996 352.167L211.941 355.803V359.439L199.926 352.167L211.941 344.895V348.531L205.996 352.167Z" fill="white"/>
<path opacity="0.3" d="M193.972 352.167L199.918 355.803V359.439L187.902 352.167L199.918 344.895V348.531L193.972 352.167Z" fill="white"/>
<path opacity="0.3" d="M182.084 352.167L187.906 355.803V359.439L176.014 352.167L187.906 344.895V348.531L182.084 352.167Z" fill="white"/>
<path opacity="0.3" d="M170.066 352.167L176.012 355.803V359.439L163.996 352.167L176.012 344.895V348.531L170.066 352.167Z" fill="white"/>
</g>
<path d="M35.712 328.581L155.424 215.167C156.467 214.18 157.966 213.871 159.335 214.426C160.703 214.982 161.55 216.154 161.55 217.573V322.781C161.55 325.003 163.44 326.792 165.786 326.792H634.34V326.175H165.786C163.831 326.175 162.202 324.632 162.202 322.781V217.573C162.202 215.907 161.224 214.488 159.595 213.871C157.966 213.254 156.207 213.563 154.968 214.735L35.1906 328.15L35.712 328.581Z" fill="white"/>
<path d="M35.1227 335.431C30.0839 335.431 25.9992 331.563 25.9992 326.792C25.9992 322.021 30.0839 318.153 35.1227 318.153C40.1614 318.153 44.2461 322.021 44.2461 326.792C44.2461 331.563 40.1614 335.431 35.1227 335.431Z" fill="white"/>
<path d="M411.792 332.345C408.193 332.345 405.275 329.582 405.275 326.174C405.275 322.767 408.193 320.004 411.792 320.004C415.391 320.004 418.309 322.767 418.309 326.174C418.309 329.582 415.391 332.345 411.792 332.345Z" fill="white"/>
<path d="M371.39 332.345C367.79 332.345 364.873 329.582 364.873 326.174C364.873 322.767 367.79 320.004 371.39 320.004C374.989 320.004 377.906 322.767 377.906 326.174C377.906 329.582 374.989 332.345 371.39 332.345Z" fill="white"/>
<path d="M415.515 213.311C411.915 213.311 408.998 210.548 408.998 207.141C408.998 203.733 411.915 200.97 415.515 200.97C419.114 200.97 422.031 203.733 422.031 207.141C422.031 210.548 419.114 213.311 415.515 213.311Z" fill="white"/>
<path d="M108.112 266.32C104.513 266.32 101.595 263.558 101.595 260.15C101.595 256.742 104.513 253.979 108.112 253.979C111.711 253.979 114.629 256.742 114.629 260.15C114.629 263.558 111.711 266.32 108.112 266.32Z" fill="white"/>
<path d="M318.178 191.431L324.398 185.54L318.178 179.65L311.957 185.54L318.178 191.431Z" fill="white"/>
<path d="M296.76 191.431L302.98 185.54L296.76 179.65L290.539 185.54L296.76 191.431Z" fill="white"/>
<g filter="url(#filter0_d)">
<path d="M330.703 122.476L339.254 114.379L330.703 106.283L322.152 114.379L330.703 122.476Z" fill="white"/>
</g>
<path d="M35.712 328.582L155.424 215.167C156.467 214.18 157.966 213.871 159.335 214.427C160.703 214.982 161.55 216.154 161.55 217.574V322.781C161.55 325.003 163.44 326.792 165.786 326.792H634.34V326.175H165.786C163.831 326.175 162.202 324.633 162.202 322.781V217.574C162.202 215.908 161.224 214.488 159.595 213.871C157.966 213.254 156.207 213.563 154.968 214.735L35.1906 328.15L35.712 328.582Z" fill="white"/>
<g filter="url(#filter1_d)">
<path d="M35.1227 335.431C30.0839 335.431 25.9992 331.563 25.9992 326.792C25.9992 322.021 30.0839 318.153 35.1227 318.153C40.1614 318.153 44.2461 322.021 44.2461 326.792C44.2461 331.563 40.1614 335.431 35.1227 335.431Z" fill="white"/>
</g>
<path d="M411.792 332.346C408.193 332.346 405.275 329.583 405.275 326.175C405.275 322.767 408.193 320.005 411.792 320.005C415.391 320.005 418.309 322.767 418.309 326.175C418.309 329.583 415.391 332.346 411.792 332.346Z" fill="white"/>
<path d="M371.39 332.346C367.79 332.346 364.873 329.583 364.873 326.175C364.873 322.767 367.79 320.005 371.39 320.005C374.989 320.005 377.906 322.767 377.906 326.175C377.906 329.583 374.989 332.346 371.39 332.346Z" fill="white"/>
<path d="M108.112 266.321C104.513 266.321 101.595 263.558 101.595 260.15C101.595 256.743 104.513 253.98 108.112 253.98C111.711 253.98 114.629 256.743 114.629 260.15C114.629 263.558 111.711 266.321 108.112 266.321Z" fill="white"/>
<defs>
<filter id="filter0_d" x="296.152" y="80.2827" width="69.1019" height="68.1933" filterUnits="userSpaceOnUse" color-interpolation-filters="sRGB">
<feFlood flood-opacity="0" result="BackgroundImageFix"/>
<feColorMatrix in="SourceAlpha" type="matrix" values="0 0 0 0 0 0 0 0 0 0 0 0 0 0 0 0 0 0 127 0"/>
<feOffset/>
<feGaussianBlur stdDeviation="13"/>
<feColorMatrix type="matrix" values="0 0 0 0 1 0 0 0 0 1 0 0 0 0 1 0 0 0 1 0"/>
<feBlend mode="normal" in2="BackgroundImageFix" result="effect1_dropShadow"/>
<feBlend mode="normal" in="SourceGraphic" in2="effect1_dropShadow" result="shape"/>
</filter>
<filter id="filter1_d" x="0" y="292.153" width="70.2469" height="69.2775" filterUnits="userSpaceOnUse" color-interpolation-filters="sRGB">
<feFlood flood-opacity="0" result="BackgroundImageFix"/>
<feColorMatrix in="SourceAlpha" type="matrix" values="0 0 0 0 0 0 0 0 0 0 0 0 0 0 0 0 0 0 127 0"/>
<feOffset/>
<feGaussianBlur stdDeviation="13"/>
<feColorMatrix type="matrix" values="0 0 0 0 1 0 0 0 0 1 0 0 0 0 1 0 0 0 1 0"/>
<feBlend mode="normal" in2="BackgroundImageFix" result="effect1_dropShadow"/>
<feBlend mode="normal" in="SourceGraphic" in2="effect1_dropShadow" result="shape"/>
</filter>
</defs>
</svg>
