<?xml version="1.0" encoding="utf-8"?>
<!-- Generator: Adobe Illustrator 24.0.0, SVG Export Plug-In . SVG Version: 6.00 Build 0)  -->
<svg version="1.1" id="Camada_1" xmlns="http://www.w3.org/2000/svg" xmlns:xlink="http://www.w3.org/1999/xlink" x="0px" y="0px"
	 viewBox="0 0 160.7 50" style="enable-background:new 0 0 160.7 50;" xml:space="preserve">
<style type="text/css">
	.st0{fill:#FFFFFF;}
</style>
<g>
	<path class="st0" d="M48.4,32.2l-5.8-15.6c-0.1-0.3-0.4-0.6-0.8-0.6h-9.4L26.8,1.1c-0.1-0.3-0.3-0.5-0.6-0.5
		c-0.3-0.1-0.6,0-0.8,0.3L11.5,16.1H1.9c-0.3,0-0.5,0.1-0.7,0.4C1,16.6,1,16.9,1.1,17.2l5.8,15.6c0.1,0.3,0.4,0.6,0.8,0.6H17
		l5.5,14.9c0.1,0.3,0.3,0.5,0.6,0.5c0.1,0,0.1,0,0.2,0c0.2,0,0.5-0.1,0.6-0.3l8.3-9c0,0,0,0,0,0l0,0l5.6-6.2h9.7
		c0.3,0,0.5-0.1,0.7-0.4C48.5,32.8,48.5,32.5,48.4,32.2z M25.7,3l5.1,13.6L25,23.1l-2.4-6.5c-0.1-0.3-0.4-0.6-0.8-0.6h-8L25.7,3z
		 M3.1,17.7h18.1l2.5,6.7l-6.5,7.2H8.3L3.1,17.7z M31,38.4C31,38.4,31,38.4,31,38.4l-7.4,8l-5-13.7l5.8-6.4l2.4,6.5
		c0.1,0.3,0.4,0.6,0.8,0.6h8L31,38.4z M28.2,31.7l-2.5-6.8l6.4-7.1h9.1l5.2,13.9H28.2z"/>
	<g>
		<g>
			<path class="st0" d="M55.2,32.7c-1.2-1.4-1.9-3.2-1.9-5.5c0-0.5,0-1.3,0-2.4c0-1.2,0-2,0-2.5c0.1-2.3,0.7-4.1,1.9-5.5s3-2,5.4-2
				c1.7,0,3,0.3,4.1,0.9c1.1,0.6,1.9,1.4,2.4,2.3s0.8,1.9,0.9,2.8v0.1c0,0.1-0.1,0.3-0.2,0.4s-0.3,0.1-0.4,0.1h-0.6
				c-0.3,0-0.5-0.2-0.6-0.6c-0.4-1.6-1-2.7-1.9-3.3c-0.9-0.6-2.2-1-3.8-1c-1.7,0-3.1,0.5-4.1,1.5s-1.5,2.5-1.6,4.5
				c0,0.5,0,1.3,0,2.3s0,1.8,0,2.4c0.1,2,0.6,3.6,1.6,4.5c1,1,2.3,1.5,4.1,1.5c1.6,0,2.8-0.3,3.8-1c0.9-0.6,1.6-1.8,1.9-3.3
				c0.1-0.4,0.3-0.6,0.6-0.6h0.6c0.2,0,0.3,0.1,0.4,0.2s0.2,0.2,0.2,0.4c-0.1,1-0.3,1.9-0.9,2.8c-0.5,0.9-1.3,1.7-2.4,2.3
				s-2.5,0.9-4.1,0.9C58.2,34.7,56.4,34,55.2,32.7z"/>
		</g>
		<g>
			<path class="st0" d="M70.2,34.3C70.1,34.2,70,34,70,33.9l0.1-0.3l7-18.1c0.1-0.4,0.4-0.6,0.8-0.6h0.9c0.4,0,0.7,0.2,0.8,0.6
				l7,18.1l0.1,0.3c0,0.1-0.1,0.3-0.2,0.4c-0.1,0.1-0.2,0.2-0.4,0.2h-0.6c-0.2,0-0.3,0-0.4-0.1s-0.2-0.2-0.2-0.3l-1.7-4.5h-9.9
				L71.7,34c0,0.1-0.1,0.2-0.2,0.3s-0.2,0.1-0.4,0.1h-0.6C70.4,34.4,70.3,34.4,70.2,34.3z M74.1,27.9h8.5l-4.3-11L74.1,27.9z"/>
		</g>
		<g>
			<path class="st0" d="M90.2,34.3C90.1,34.2,90,34,90,33.8V15.6c0-0.2,0.1-0.3,0.2-0.5c0.1-0.1,0.3-0.2,0.4-0.2h6.5
				c2,0,3.6,0.5,4.7,1.4c1.1,0.9,1.7,2.3,1.7,4.2c0,1.5-0.4,2.6-1.1,3.5s-1.8,1.5-3.1,1.8l4.5,7.6c0.1,0.1,0.1,0.2,0.1,0.3
				s-0.1,0.3-0.2,0.4c-0.1,0.1-0.2,0.2-0.4,0.2H103c-0.3,0-0.5-0.1-0.6-0.2c-0.1-0.1-0.3-0.3-0.4-0.6L97.6,26h-5.7v7.6
				c0,0.2-0.1,0.3-0.2,0.4c-0.1,0.1-0.3,0.2-0.5,0.2h-0.5C90.5,34.4,90.3,34.4,90.2,34.3z M97,24.5c1.6,0,2.8-0.3,3.6-1
				c0.8-0.7,1.2-1.6,1.2-3c0-1.3-0.4-2.3-1.2-3c-0.8-0.7-2-1-3.6-1h-5.2v7.9H97V24.5z"/>
		</g>
		<g>
			<path class="st0" d="M112,34.3c-0.1-0.1-0.2-0.3-0.2-0.4V16.6h-5.5c-0.2,0-0.3-0.1-0.4-0.2s-0.2-0.3-0.2-0.4v-0.4
				c0-0.2,0.1-0.3,0.2-0.5c0.1-0.1,0.3-0.2,0.4-0.2H119c0.2,0,0.4,0.1,0.5,0.2s0.2,0.3,0.2,0.5V16c0,0.2-0.1,0.3-0.2,0.4
				s-0.3,0.2-0.5,0.2h-5.5v17.2c0,0.2-0.1,0.3-0.2,0.4c-0.1,0.1-0.3,0.2-0.5,0.2h-0.5C112.3,34.4,112.2,34.4,112,34.3z"/>
		</g>
		<g>
			<path class="st0" d="M123.3,34.3c-0.1-0.1-0.2-0.3-0.2-0.4V15.6c0-0.2,0.1-0.3,0.2-0.5c0.1-0.1,0.3-0.2,0.4-0.2h10.9
				c0.2,0,0.4,0.1,0.5,0.2c0.1,0.1,0.2,0.3,0.2,0.5V16c0,0.2-0.1,0.3-0.2,0.4c-0.1,0.1-0.3,0.2-0.5,0.2h-9.7v7.1h9.1
				c0.2,0,0.4,0.1,0.5,0.2s0.2,0.3,0.2,0.5v0.4c0,0.2-0.1,0.3-0.2,0.4c-0.1,0.1-0.3,0.2-0.5,0.2h-9.1v7.4h9.9c0.2,0,0.4,0.1,0.5,0.2
				c0.1,0.1,0.2,0.3,0.2,0.5v0.4c0,0.2-0.1,0.3-0.2,0.4c-0.1,0.1-0.3,0.2-0.5,0.2h-11.1C123.5,34.4,123.4,34.4,123.3,34.3z"/>
		</g>
		<g>
			<path class="st0" d="M141.7,34c-1.1-0.5-1.9-1.1-2.4-1.9c-0.6-0.8-0.9-1.6-0.9-2.4c0-0.1,0.1-0.3,0.2-0.4s0.3-0.2,0.4-0.2h0.6
				c0.3,0,0.5,0.2,0.6,0.6c0.1,0.9,0.6,1.7,1.5,2.3c0.9,0.7,2.2,1,3.8,1c1.8,0,3.1-0.3,3.9-1c0.9-0.6,1.3-1.5,1.3-2.7
				c0-0.7-0.2-1.3-0.6-1.7c-0.4-0.5-1-0.9-1.8-1.2c-0.8-0.3-2-0.8-3.6-1.3c-1.4-0.5-2.5-0.9-3.4-1.4c-0.8-0.4-1.4-1-1.8-1.6
				c-0.4-0.6-0.6-1.5-0.6-2.5c0-0.9,0.3-1.8,0.8-2.6c0.5-0.8,1.2-1.4,2.2-1.8c1-0.4,2.1-0.7,3.5-0.7s2.6,0.2,3.5,0.7
				c1,0.5,1.7,1.1,2.2,1.9c0.5,0.8,0.8,1.5,0.8,2.3c0,0.1-0.1,0.3-0.2,0.4c-0.1,0.1-0.2,0.2-0.4,0.2h-0.6c-0.1,0-0.3,0-0.4-0.1
				c-0.1-0.1-0.2-0.2-0.2-0.4c-0.1-0.9-0.6-1.7-1.5-2.3c-0.9-0.6-2-0.9-3.3-0.9c-1.4,0-2.6,0.3-3.4,0.8c-0.8,0.6-1.3,1.4-1.3,2.5
				c0,0.7,0.2,1.3,0.6,1.8c0.4,0.5,1,0.9,1.7,1.2c0.8,0.3,1.9,0.8,3.4,1.2c1.5,0.5,2.7,0.9,3.6,1.4c0.9,0.4,1.5,1,1.9,1.6
				s0.7,1.4,0.7,2.4c0,1.7-0.6,3-1.9,3.9c-1.2,0.9-3,1.4-5.1,1.4C144,34.7,142.7,34.5,141.7,34z"/>
		</g>
		<g>
			<path class="st0" d="M156.6,34.3c-0.1-0.1-0.2-0.3-0.2-0.4V15.6c0-0.2,0.1-0.3,0.2-0.4s0.3-0.2,0.4-0.2h0.5
				c0.2,0,0.3,0.1,0.4,0.2c0.1,0.1,0.2,0.3,0.2,0.4v18.3c0,0.2-0.1,0.3-0.2,0.4c-0.1,0.1-0.3,0.2-0.4,0.2H157
				C156.9,34.4,156.7,34.4,156.6,34.3z"/>
		</g>
	</g>
</g>
</svg>
