<?xml version="1.0" encoding="utf-8"?>
<!-- Generator: Adobe Illustrator 24.0.0, SVG Export Plug-In . SVG Version: 6.00 Build 0)  -->
<svg version="1.1" id="Camada_1" xmlns="http://www.w3.org/2000/svg" xmlns:xlink="http://www.w3.org/1999/xlink" x="0px" y="0px"
	 viewBox="0 0 49.9 50" style="enable-background:new 0 0 49.9 50;" xml:space="preserve">
<style type="text/css">
	.st0{fill:#FFFFFF;}
</style>
<circle class="st0" cx="25" cy="25" r="25"/>
<g>
	<path d="M45.9,31.4l-5.1-13.6c-0.1-0.5-0.6-0.8-0.9-0.8h-8L27.1,4.3C27,4,26.6,3.6,26.3,3.6c-0.3-0.1-0.8,0.1-0.9,0.3L13.3,17.2H5
		c-0.3,0-0.7,0.2-0.8,0.5C4,18,4,18.3,4.1,18.6l5.1,13.6c0.1,0.5,0.6,0.8,0.9,0.8h7.8l4.8,12.8c0.1,0.3,0.5,0.7,0.8,0.7
		c0.1,0,0.1,0,0.2,0c0.3,0,0.6-0.1,0.8-0.3l7.2-7.8l0,0l0,0l4.8-5.4H45c0.3,0,0.7-0.2,0.8-0.5C46,32.1,46.2,31.8,45.9,31.4z
		 M25.7,6.7l4.3,11.2l-4.5,4.9l-1.8-5.1C23.5,17.3,23,17,22.7,17h-6.2L25.7,6.7z M6.5,19.3h15.2l2.1,5.4l-5.5,6.1h-7.5L6.5,19.3z
		 M30.2,36.7L30.2,36.7l-6,6.6L19.9,32l4.6-5.1l2,5.2c0.1,0.5,0.6,0.8,0.9,0.8h6.1L30.2,36.7z M28.2,30.7l-2.1-5.6l5.4-5.9h7.7
		l4.3,11.4H28.2V30.7z"/>
</g>
</svg>
