<?xml version="1.0" encoding="utf-8"?>
<!-- Generator: Adobe Illustrator 24.0.0, SVG Export Plug-In . SVG Version: 6.00 Build 0)  -->
<svg version="1.1" id="Camada_1" xmlns="http://www.w3.org/2000/svg" xmlns:xlink="http://www.w3.org/1999/xlink" x="0px" y="0px"
	 viewBox="0 0 49.9 50" style="enable-background:new 0 0 49.9 50;" xml:space="preserve">
<style type="text/css">
	.st0{fill:#FFFFFF;}
</style>
<g>
	<g>
		<circle cx="25" cy="25" r="24.9"/>
	</g>
	<g>
		<path class="st0" d="M4.9,18.7h15.5c0.2,0,0.3,0.1,0.4,0.3l1.8,5.2c0.1,0.1,0,0.3-0.1,0.4l-5.5,6.2C17,31,16.9,31,16.8,31H9.4
			c-0.2,0-0.3-0.1-0.4-0.3L4.5,19.3C4.4,19,4.6,18.7,4.9,18.7z"/>
	</g>
	<g>
		<path class="st0" d="M32.8,19l-5.4,5.8c-0.1,0.1-0.2,0.3-0.1,0.5l1.9,5.3c0.1,0.2,0.2,0.3,0.4,0.3h15c0.3,0,0.5-0.3,0.4-0.5
			l-3.9-11C41,19.1,40.9,19,40.7,19h-7.6C33,18.8,32.9,18.9,32.8,19z"/>
	</g>
	<g>
		<path class="st0" d="M19.2,33.1l5.1-5.6c0.1-0.1,0.4-0.1,0.4,0.1l2.2,6.2c0,0.1,0.1,0.2,0.2,0.2h7.6c0.2,0,0.3,0.3,0.2,0.4
			L24.3,45.7c-0.1,0.1-0.4,0.1-0.4-0.1l-4.9-12.3C19.1,33.2,19.1,33.1,19.2,33.1z"/>
	</g>
	<g>
		<path class="st0" d="M26,4.5L30.5,16c0.1,0.2,0,0.4-0.1,0.6l-4.6,5.3c-0.2,0.2-0.5,0.2-0.6-0.1l-2.5-5.7c-0.1-0.2-0.2-0.3-0.4-0.3
			h-6.9c-0.3,0-0.4-0.3-0.2-0.5L25.5,4.4C25.7,4.3,25.9,4.3,26,4.5z"/>
	</g>
</g>
</svg>
