<svg width="40" height="40" viewBox="0 0 40 40" fill="none" xmlns="http://www.w3.org/2000/svg">
<path d="M39.8038 6.15713C39.5611 5.91442 39.1688 5.91442 38.9261 6.15713L20.1224 24.9608L12.0094 16.8479C11.7667 16.6052 11.3744 16.6052 11.1317 16.8479C10.889 17.0906 10.889 17.4829 11.1317 17.7256L19.6835 26.2774C19.8046 26.3985 19.9635 26.4593 20.1224 26.4593C20.2813 26.4593 20.4402 26.3985 20.5612 26.2774L39.8038 7.03484C40.0465 6.79213 40.0465 6.39983 39.8038 6.15713Z" fill="white"/>
<path d="M31.9159 5.95486C28.7703 3.25041 24.7008 1.58245 20.2293 1.49387C10.014 1.2915 1.56885 9.40855 1.36648 19.6238C1.16411 29.8391 9.28116 38.2842 19.4964 38.4866C29.7117 38.689 38.1569 30.5719 38.3592 20.3567C38.3939 18.6079 38.1847 16.911 37.7629 15.2984" stroke="white" stroke-linecap="round" stroke-linejoin="round"/>
</svg>
