<svg width="123" height="123" viewBox="0 0 123 123" fill="none" xmlns="http://www.w3.org/2000/svg">
<mask id="path-1-inside-1" fill="white">
<path d="M122.476 61.4328C122.476 27.7739 95.0918 0.390137 61.4328 0.390137C27.7739 0.390137 0.390137 27.7739 0.390137 61.4328C0.390137 73.9303 4.17071 85.5589 10.6412 95.2464L10.6372 95.2891L11.0584 95.9057C11.4246 96.4408 11.8194 96.9475 12.2019 97.4684C12.3565 97.68 12.5091 97.8936 12.6679 98.1052C13.1521 98.7482 13.6506 99.379 14.1573 99.9996C14.3038 100.179 14.4523 100.356 14.6009 100.533C16.9551 103.351 19.5392 105.931 22.3187 108.253C22.4876 108.393 22.6544 108.535 22.8254 108.676C23.4317 109.17 24.0442 109.655 24.6688 110.125C24.9212 110.316 25.1775 110.501 25.4319 110.688C26.026 111.124 26.6202 111.555 27.2306 111.968C27.5562 112.19 27.8939 112.397 28.2236 112.613C29.07 113.162 29.9246 113.693 30.7955 114.198C31.4019 114.552 32.0102 114.904 32.6308 115.238C33.0052 115.439 33.3878 115.627 33.7662 115.82C34.4255 116.158 35.0909 116.485 35.7644 116.799C36.1042 116.955 36.444 117.11 36.7858 117.26C37.5651 117.606 38.3546 117.934 39.1502 118.247C39.3964 118.345 39.6406 118.445 39.8888 118.54C42.0721 119.366 44.3144 120.075 46.6076 120.648C46.7012 120.673 46.7968 120.691 46.8904 120.713C47.9037 120.962 48.9272 121.183 49.9609 121.381C50.2356 121.434 50.5103 121.481 50.7849 121.529C51.6477 121.682 52.5145 121.816 53.3894 121.932C53.7231 121.977 54.0548 122.02 54.3885 122.06C55.2411 122.158 56.0997 122.235 56.9625 122.298C57.284 122.323 57.6034 122.353 57.9249 122.372C59.0867 122.433 60.2547 122.476 61.4328 122.476C62.6109 122.476 63.7789 122.433 64.9407 122.368C65.2622 122.349 65.5817 122.317 65.9032 122.294C66.7659 122.231 67.6246 122.156 68.4771 122.056C68.8109 122.018 69.1445 121.973 69.4762 121.928C70.3512 121.812 71.218 121.678 72.0807 121.525C72.3554 121.476 72.6301 121.43 72.9048 121.377C73.9384 121.179 74.9619 120.958 75.9752 120.709C76.0688 120.687 76.1645 120.667 76.2581 120.644C78.5512 120.07 80.7935 119.362 82.9768 118.536C83.2251 118.443 83.4713 118.341 83.7195 118.243C84.5151 117.93 85.3025 117.602 86.0819 117.258C86.4237 117.108 86.7655 116.953 87.1033 116.797C87.7768 116.483 88.4422 116.156 89.1014 115.818C89.4819 115.624 89.8624 115.435 90.2368 115.236C90.8574 114.902 91.4638 114.55 92.0722 114.196C92.9431 113.689 93.7997 113.16 94.6441 112.611C94.9758 112.395 95.3115 112.188 95.6371 111.966C96.2455 111.553 96.8417 111.122 97.4358 110.686C97.6901 110.499 97.9465 110.314 98.1988 110.123C98.8215 109.652 99.436 109.168 100.042 108.674C100.213 108.533 100.38 108.391 100.549 108.251C103.328 105.927 105.913 103.349 108.269 100.529C108.417 100.352 108.564 100.177 108.708 99.9976C109.215 99.377 109.714 98.7462 110.198 98.1032C110.356 97.8936 110.507 97.68 110.664 97.4663C111.046 96.9454 111.441 96.4388 111.807 95.9036L112.228 95.2871L112.224 95.2444C118.695 85.5589 122.476 73.9303 122.476 61.4328ZM118.406 61.4328C118.406 71.5496 115.743 81.0519 111.099 89.2968C107.748 78.187 97.7451 70.225 85.8499 69.637V69.5718H84.448H73.6414H72.3493C71.9403 69.5718 71.6066 69.2381 71.6066 68.8292V67.5167C71.6066 67.1444 71.9098 66.9002 72.1682 66.8005C85.27 61.8744 93.4416 41.4393 91.7283 27.1472C90.8351 19.704 87.1501 13.0524 81.7926 8.23412C103.18 16.4484 118.406 37.1907 118.406 61.4328ZM107.292 95.1894C107.127 95.4112 106.963 95.631 106.796 95.8507C106.342 96.4469 105.884 97.039 105.408 97.6169C105.359 97.6759 105.308 97.7329 105.259 97.7919C103.615 99.7697 101.839 101.633 99.9467 103.373C99.8348 103.477 99.7229 103.583 99.6089 103.685C99.0453 104.195 98.4674 104.692 97.8834 105.18C97.7003 105.333 97.5152 105.483 97.33 105.634C96.7623 106.096 96.1905 106.549 95.6066 106.989C95.4092 107.138 95.2057 107.278 95.0063 107.424C94.6706 107.671 94.3308 107.909 93.9889 108.147V85.8499H85.8499V73.7044C97.1916 74.3617 106.478 82.8812 108.01 94.1822C107.772 94.52 107.538 94.8578 107.292 95.1894ZM88.1166 111.75C87.7565 111.942 87.3902 112.127 87.0239 112.312C86.4095 112.621 85.7909 112.92 85.1662 113.207C84.861 113.348 84.5578 113.488 84.2506 113.622C83.4672 113.964 82.6757 114.29 81.8781 114.597C81.7132 114.66 81.5525 114.729 81.3877 114.79C79.3529 115.551 77.2734 116.198 75.1552 116.723C75.0026 116.762 74.848 116.792 74.6954 116.829C73.8184 117.039 72.9353 117.23 72.0461 117.397C71.7816 117.448 71.5171 117.492 71.2505 117.539C70.461 117.678 69.6675 117.798 68.8699 117.901C68.5626 117.942 68.2554 117.985 67.9461 118.019C67.1566 118.111 66.361 118.178 65.5654 118.237C65.2704 118.257 64.9774 118.288 64.6803 118.304C63.5998 118.369 62.5194 118.406 61.4328 118.406C60.3463 118.406 59.2658 118.369 58.1874 118.308C57.8903 118.292 57.5973 118.262 57.3023 118.241C56.5067 118.182 55.7111 118.115 54.9216 118.023C54.6123 117.989 54.3051 117.946 53.9978 117.905C53.2002 117.8 52.4066 117.68 51.6172 117.543C51.3526 117.496 51.0861 117.452 50.8216 117.401C49.9324 117.232 49.0473 117.043 48.1703 116.831C48.0177 116.794 47.8651 116.762 47.7125 116.725C45.5943 116.198 43.5127 115.553 41.478 114.792C41.3132 114.731 41.1504 114.662 40.9876 114.599C40.19 114.292 39.3984 113.966 38.6171 113.624C38.3099 113.49 38.0046 113.35 37.6994 113.209C37.0748 112.922 36.4562 112.623 35.8417 112.314C35.4754 112.129 35.1092 111.946 34.749 111.752C34.222 111.474 33.7032 111.177 33.1843 110.881C33.1049 110.835 33.0236 110.79 32.9442 110.743V89.9194H37.0137H49.2223H73.6393H85.8479H89.9174V110.741C89.838 110.788 89.7587 110.833 89.6773 110.879C89.1625 111.177 88.6436 111.472 88.1166 111.75ZM27.2611 106.989C26.6772 106.549 26.1054 106.096 25.5397 105.636C25.3525 105.485 25.1674 105.333 24.9822 105.18C24.3982 104.694 23.8224 104.197 23.2608 103.687C23.1448 103.583 23.0329 103.475 22.919 103.371C21.0266 101.631 19.2503 99.7697 17.6082 97.7919C17.5594 97.7329 17.5085 97.6759 17.4597 97.6169C16.9836 97.039 16.5258 96.4469 16.072 95.8507C15.9052 95.631 15.7383 95.4112 15.5755 95.1894C15.3314 94.8578 15.0974 94.52 14.8593 94.1822C16.3874 82.8812 25.674 74.3617 37.0157 73.7044V85.8499H28.8767V108.147C28.5369 107.909 28.1951 107.669 27.8593 107.424C27.6599 107.278 27.4585 107.138 27.2611 106.989ZM52.2581 63.0423C42.5279 59.4428 34.981 42.8148 34.981 30.9115C34.981 30.651 35.0115 30.3967 35.0196 30.1383L36.5091 28.3009C39.8685 24.3046 45.6045 23.1611 50.7768 25.4522C52.8563 26.376 55.0722 26.842 57.3633 26.842C63.4086 26.842 68.8393 23.5558 71.6636 18.3285C78.1382 20.4549 83.9169 24.4633 87.8256 29.5156C88.4218 41.9277 81.1232 59.0868 70.7378 62.9914C68.7925 63.724 67.5371 65.5003 67.5371 67.5167V68.8292C67.5371 71.4804 69.698 73.6414 72.3493 73.6414H73.6414V85.8499H49.2243V73.6414H50.5164C53.1676 73.6414 55.3286 71.4804 55.3286 68.8292V67.5371C55.3286 65.5308 54.0975 63.724 52.2581 63.0423ZM61.5142 4.46372C61.5386 4.46372 61.559 4.46372 61.5814 4.46372C62.5764 4.46982 63.5551 4.52476 64.4911 4.6326C74.5814 5.75782 83.0602 12.7818 86.3688 22.1091C82.0653 18.3611 76.7891 15.4758 71.1142 13.9152L69.3643 13.435L68.6867 15.1157C66.8127 19.7651 62.3688 22.7725 57.3633 22.7725C55.6439 22.7725 53.9815 22.4225 52.425 21.7327C46.7968 19.2422 40.6498 19.9157 36.1123 23.216C37.3596 19.0936 39.6121 15.3171 42.7477 12.1877C47.7409 7.20657 54.3722 4.46372 61.5142 4.46372ZM81.7804 85.8499H77.7109V73.6414H81.7804V85.8499ZM45.1548 85.8499H41.0853V73.6414H45.1548V85.8499ZM41.0486 8.2443C40.6559 8.59834 40.251 8.93204 39.8725 9.30847C34.0938 15.077 30.9115 22.746 30.9115 30.9115C30.9115 44.3999 39.4371 62.6394 50.846 66.8575C51.0881 66.949 51.259 67.2278 51.259 67.5371V68.8292C51.259 69.2381 50.9253 69.5718 50.5164 69.5718H49.2243H38.4177H37.0157V69.637C25.1206 70.225 15.1177 78.187 11.7665 89.2968C7.12315 81.0519 4.45965 71.5496 4.45965 61.4328C4.45965 37.1989 19.6756 16.4647 41.0486 8.2443Z"/>
</mask>
<path d="M122.476 61.4328C122.476 27.7739 95.0918 0.390137 61.4328 0.390137C27.7739 0.390137 0.390137 27.7739 0.390137 61.4328C0.390137 73.9303 4.17071 85.5589 10.6412 95.2464L10.6372 95.2891L11.0584 95.9057C11.4246 96.4408 11.8194 96.9475 12.2019 97.4684C12.3565 97.68 12.5091 97.8936 12.6679 98.1052C13.1521 98.7482 13.6506 99.379 14.1573 99.9996C14.3038 100.179 14.4523 100.356 14.6009 100.533C16.9551 103.351 19.5392 105.931 22.3187 108.253C22.4876 108.393 22.6544 108.535 22.8254 108.676C23.4317 109.17 24.0442 109.655 24.6688 110.125C24.9212 110.316 25.1775 110.501 25.4319 110.688C26.026 111.124 26.6202 111.555 27.2306 111.968C27.5562 112.19 27.8939 112.397 28.2236 112.613C29.07 113.162 29.9246 113.693 30.7955 114.198C31.4019 114.552 32.0102 114.904 32.6308 115.238C33.0052 115.439 33.3878 115.627 33.7662 115.82C34.4255 116.158 35.0909 116.485 35.7644 116.799C36.1042 116.955 36.444 117.11 36.7858 117.26C37.5651 117.606 38.3546 117.934 39.1502 118.247C39.3964 118.345 39.6406 118.445 39.8888 118.54C42.0721 119.366 44.3144 120.075 46.6076 120.648C46.7012 120.673 46.7968 120.691 46.8904 120.713C47.9037 120.962 48.9272 121.183 49.9609 121.381C50.2356 121.434 50.5103 121.481 50.7849 121.529C51.6477 121.682 52.5145 121.816 53.3894 121.932C53.7231 121.977 54.0548 122.02 54.3885 122.06C55.2411 122.158 56.0997 122.235 56.9625 122.298C57.284 122.323 57.6034 122.353 57.9249 122.372C59.0867 122.433 60.2547 122.476 61.4328 122.476C62.6109 122.476 63.7789 122.433 64.9407 122.368C65.2622 122.349 65.5817 122.317 65.9032 122.294C66.7659 122.231 67.6246 122.156 68.4771 122.056C68.8109 122.018 69.1445 121.973 69.4762 121.928C70.3512 121.812 71.218 121.678 72.0807 121.525C72.3554 121.476 72.6301 121.43 72.9048 121.377C73.9384 121.179 74.9619 120.958 75.9752 120.709C76.0688 120.687 76.1645 120.667 76.2581 120.644C78.5512 120.07 80.7935 119.362 82.9768 118.536C83.2251 118.443 83.4713 118.341 83.7195 118.243C84.5151 117.93 85.3025 117.602 86.0819 117.258C86.4237 117.108 86.7655 116.953 87.1033 116.797C87.7768 116.483 88.4422 116.156 89.1014 115.818C89.4819 115.624 89.8624 115.435 90.2368 115.236C90.8574 114.902 91.4638 114.55 92.0722 114.196C92.9431 113.689 93.7997 113.16 94.6441 112.611C94.9758 112.395 95.3115 112.188 95.6371 111.966C96.2455 111.553 96.8417 111.122 97.4358 110.686C97.6901 110.499 97.9465 110.314 98.1988 110.123C98.8215 109.652 99.436 109.168 100.042 108.674C100.213 108.533 100.38 108.391 100.549 108.251C103.328 105.927 105.913 103.349 108.269 100.529C108.417 100.352 108.564 100.177 108.708 99.9976C109.215 99.377 109.714 98.7462 110.198 98.1032C110.356 97.8936 110.507 97.68 110.664 97.4663C111.046 96.9454 111.441 96.4388 111.807 95.9036L112.228 95.2871L112.224 95.2444C118.695 85.5589 122.476 73.9303 122.476 61.4328ZM118.406 61.4328C118.406 71.5496 115.743 81.0519 111.099 89.2968C107.748 78.187 97.7451 70.225 85.8499 69.637V69.5718H84.448H73.6414H72.3493C71.9403 69.5718 71.6066 69.2381 71.6066 68.8292V67.5167C71.6066 67.1444 71.9098 66.9002 72.1682 66.8005C85.27 61.8744 93.4416 41.4393 91.7283 27.1472C90.8351 19.704 87.1501 13.0524 81.7926 8.23412C103.18 16.4484 118.406 37.1907 118.406 61.4328ZM107.292 95.1894C107.127 95.4112 106.963 95.631 106.796 95.8507C106.342 96.4469 105.884 97.039 105.408 97.6169C105.359 97.6759 105.308 97.7329 105.259 97.7919C103.615 99.7697 101.839 101.633 99.9467 103.373C99.8348 103.477 99.7229 103.583 99.6089 103.685C99.0453 104.195 98.4674 104.692 97.8834 105.18C97.7003 105.333 97.5152 105.483 97.33 105.634C96.7623 106.096 96.1905 106.549 95.6066 106.989C95.4092 107.138 95.2057 107.278 95.0063 107.424C94.6706 107.671 94.3308 107.909 93.9889 108.147V85.8499H85.8499V73.7044C97.1916 74.3617 106.478 82.8812 108.01 94.1822C107.772 94.52 107.538 94.8578 107.292 95.1894ZM88.1166 111.75C87.7565 111.942 87.3902 112.127 87.0239 112.312C86.4095 112.621 85.7909 112.92 85.1662 113.207C84.861 113.348 84.5578 113.488 84.2506 113.622C83.4672 113.964 82.6757 114.29 81.8781 114.597C81.7132 114.66 81.5525 114.729 81.3877 114.79C79.3529 115.551 77.2734 116.198 75.1552 116.723C75.0026 116.762 74.848 116.792 74.6954 116.829C73.8184 117.039 72.9353 117.23 72.0461 117.397C71.7816 117.448 71.5171 117.492 71.2505 117.539C70.461 117.678 69.6675 117.798 68.8699 117.901C68.5626 117.942 68.2554 117.985 67.9461 118.019C67.1566 118.111 66.361 118.178 65.5654 118.237C65.2704 118.257 64.9774 118.288 64.6803 118.304C63.5998 118.369 62.5194 118.406 61.4328 118.406C60.3463 118.406 59.2658 118.369 58.1874 118.308C57.8903 118.292 57.5973 118.262 57.3023 118.241C56.5067 118.182 55.7111 118.115 54.9216 118.023C54.6123 117.989 54.3051 117.946 53.9978 117.905C53.2002 117.8 52.4066 117.68 51.6172 117.543C51.3526 117.496 51.0861 117.452 50.8216 117.401C49.9324 117.232 49.0473 117.043 48.1703 116.831C48.0177 116.794 47.8651 116.762 47.7125 116.725C45.5943 116.198 43.5127 115.553 41.478 114.792C41.3132 114.731 41.1504 114.662 40.9876 114.599C40.19 114.292 39.3984 113.966 38.6171 113.624C38.3099 113.49 38.0046 113.35 37.6994 113.209C37.0748 112.922 36.4562 112.623 35.8417 112.314C35.4754 112.129 35.1092 111.946 34.749 111.752C34.222 111.474 33.7032 111.177 33.1843 110.881C33.1049 110.835 33.0236 110.79 32.9442 110.743V89.9194H37.0137H49.2223H73.6393H85.8479H89.9174V110.741C89.838 110.788 89.7587 110.833 89.6773 110.879C89.1625 111.177 88.6436 111.472 88.1166 111.75ZM27.2611 106.989C26.6772 106.549 26.1054 106.096 25.5397 105.636C25.3525 105.485 25.1674 105.333 24.9822 105.18C24.3982 104.694 23.8224 104.197 23.2608 103.687C23.1448 103.583 23.0329 103.475 22.919 103.371C21.0266 101.631 19.2503 99.7697 17.6082 97.7919C17.5594 97.7329 17.5085 97.6759 17.4597 97.6169C16.9836 97.039 16.5258 96.4469 16.072 95.8507C15.9052 95.631 15.7383 95.4112 15.5755 95.1894C15.3314 94.8578 15.0974 94.52 14.8593 94.1822C16.3874 82.8812 25.674 74.3617 37.0157 73.7044V85.8499H28.8767V108.147C28.5369 107.909 28.1951 107.669 27.8593 107.424C27.6599 107.278 27.4585 107.138 27.2611 106.989ZM52.2581 63.0423C42.5279 59.4428 34.981 42.8148 34.981 30.9115C34.981 30.651 35.0115 30.3967 35.0196 30.1383L36.5091 28.3009C39.8685 24.3046 45.6045 23.1611 50.7768 25.4522C52.8563 26.376 55.0722 26.842 57.3633 26.842C63.4086 26.842 68.8393 23.5558 71.6636 18.3285C78.1382 20.4549 83.9169 24.4633 87.8256 29.5156C88.4218 41.9277 81.1232 59.0868 70.7378 62.9914C68.7925 63.724 67.5371 65.5003 67.5371 67.5167V68.8292C67.5371 71.4804 69.698 73.6414 72.3493 73.6414H73.6414V85.8499H49.2243V73.6414H50.5164C53.1676 73.6414 55.3286 71.4804 55.3286 68.8292V67.5371C55.3286 65.5308 54.0975 63.724 52.2581 63.0423ZM61.5142 4.46372C61.5386 4.46372 61.559 4.46372 61.5814 4.46372C62.5764 4.46982 63.5551 4.52476 64.4911 4.6326C74.5814 5.75782 83.0602 12.7818 86.3688 22.1091C82.0653 18.3611 76.7891 15.4758 71.1142 13.9152L69.3643 13.435L68.6867 15.1157C66.8127 19.7651 62.3688 22.7725 57.3633 22.7725C55.6439 22.7725 53.9815 22.4225 52.425 21.7327C46.7968 19.2422 40.6498 19.9157 36.1123 23.216C37.3596 19.0936 39.6121 15.3171 42.7477 12.1877C47.7409 7.20657 54.3722 4.46372 61.5142 4.46372ZM81.7804 85.8499H77.7109V73.6414H81.7804V85.8499ZM45.1548 85.8499H41.0853V73.6414H45.1548V85.8499ZM41.0486 8.2443C40.6559 8.59834 40.251 8.93204 39.8725 9.30847C34.0938 15.077 30.9115 22.746 30.9115 30.9115C30.9115 44.3999 39.4371 62.6394 50.846 66.8575C51.0881 66.949 51.259 67.2278 51.259 67.5371V68.8292C51.259 69.2381 50.9253 69.5718 50.5164 69.5718H49.2243H38.4177H37.0157V69.637C25.1206 70.225 15.1177 78.187 11.7665 89.2968C7.12315 81.0519 4.45965 71.5496 4.45965 61.4328C4.45965 37.1989 19.6756 16.4647 41.0486 8.2443Z" fill="#557ECE" stroke="white" stroke-width="3" stroke-linecap="round" stroke-linejoin="round" mask="url(#path-1-inside-1)"/>
<path d="M54.7817 101.196L61.3645 93.9712L64.0751 101.216" stroke="#557ECE" stroke-miterlimit="10" stroke-linecap="round" stroke-linejoin="round"/>
<path d="M63.983 111.522L60.1371 115.725L57.4265 108.474" stroke="#557ECE" stroke-miterlimit="10" stroke-linecap="round" stroke-linejoin="round"/>
<path d="M66.7788 108.474L63.9829 111.522" stroke="#557ECE" stroke-miterlimit="10"/>
<path d="M64.0618 101.216H68.7872L71.4978 108.474H62.1388L59.4283 101.216H50.0693L52.7799 108.474H57.4265" stroke="#557ECE" stroke-miterlimit="10" stroke-linecap="round" stroke-linejoin="round"/>
<path d="M64.0686 101.216L57.4202 108.474" stroke="#557ECE" stroke-miterlimit="10"/>
<path d="M33.2925 34.1584V52.7743V71.3902" stroke="#557ECE" stroke-linecap="round" stroke-linejoin="round"/>
<path d="M90.439 34.1584V71.3902" stroke="#557ECE" stroke-linecap="round" stroke-linejoin="round"/>
</svg>
