<svg width="206" height="170" viewBox="0 0 206 170" fill="none" xmlns="http://www.w3.org/2000/svg">
<g opacity="0.2" filter="url(#filter0_d)">
<rect x="13" y="121.129" width="36" height="36" stroke="black" stroke-opacity="0.3"/>
<rect x="49.0001" y="121.129" width="36" height="36" stroke="black" stroke-opacity="0.3"/>
<rect x="13" y="85.1288" width="36" height="36" stroke="black" stroke-opacity="0.3"/>
<rect x="49.0001" y="85.1288" width="36" height="36" stroke="black" stroke-opacity="0.3"/>
<rect x="85.0004" y="85.1288" width="36" height="36" stroke="black" stroke-opacity="0.3"/>
<rect x="49.0001" y="49.1285" width="36" height="36" stroke="black" stroke-opacity="0.3"/>
<rect x="85.0004" y="49.1285" width="36" height="36" stroke="black" stroke-opacity="0.3"/>
<rect x="13.0002" y="13.1284" width="36" height="36" stroke="black" stroke-opacity="0.3"/>
<rect x="49.0001" y="13.1288" width="36" height="36" stroke="black" stroke-opacity="0.3"/>
<rect x="85.0004" y="13.1288" width="36" height="36" stroke="black" stroke-opacity="0.3"/>
<rect x="121" y="121.129" width="36" height="36" stroke="black" stroke-opacity="0.3"/>
<rect x="121" y="85.1288" width="36" height="36" stroke="black" stroke-opacity="0.3"/>
<rect x="121" y="49.1285" width="36" height="36" stroke="black" stroke-opacity="0.3"/>
<rect x="157" y="121.129" width="36" height="36" stroke="black" stroke-opacity="0.3"/>
<rect x="157" y="85.1288" width="36" height="36" stroke="black" stroke-opacity="0.3"/>
<rect x="157" y="49.1285" width="36" height="36" stroke="black" stroke-opacity="0.3"/>
<rect x="157" y="13.1288" width="36" height="36" stroke="black" stroke-opacity="0.3"/>
</g>
<circle cx="66.4927" cy="31.4333" r="17.8049" fill="white" stroke="#666666"/>
<circle cx="66.4927" cy="31.4334" r="15.6899" fill="white" stroke="#666666" stroke-linecap="round" stroke-dasharray="1 2"/>
<path d="M66.3014 31.8492C66.2286 31.8492 66.1667 31.8279 66.1157 31.7854C66.0719 31.7428 66.0501 31.6826 66.0501 31.6046V30.8604C65.5402 30.8179 65.0994 30.7045 64.7279 30.5202C64.3636 30.3288 64.0832 30.0949 63.8865 29.8185C63.6971 29.535 63.5951 29.2338 63.5805 28.9148C63.5805 28.8581 63.6024 28.8085 63.6461 28.766C63.6898 28.7235 63.7444 28.7022 63.81 28.7022H64.3345C64.4729 28.7022 64.5676 28.7731 64.6186 28.9148C64.6842 29.2125 64.8699 29.4712 65.1759 29.6909C65.4892 29.9036 65.9335 30.0099 66.509 30.0099C67.1283 30.0099 67.5909 29.9036 67.8968 29.6909C68.2028 29.4783 68.3558 29.1842 68.3558 28.8085C68.3558 28.5675 68.2793 28.3691 68.1263 28.2131C67.9806 28.0572 67.7584 27.9225 67.4597 27.8091C67.1683 27.6886 66.7276 27.5433 66.1375 27.3732C65.5766 27.2173 65.1286 27.0507 64.7934 26.8735C64.4583 26.6963 64.207 26.4802 64.0395 26.225C63.8719 25.9628 63.7881 25.6332 63.7881 25.2363C63.7881 24.7047 63.9885 24.2582 64.3891 23.8967C64.7898 23.5352 65.3435 23.3226 66.0501 23.2588V22.5252C66.0501 22.4472 66.0719 22.387 66.1157 22.3445C66.1667 22.3019 66.2286 22.2807 66.3014 22.2807H66.6948C66.7677 22.2807 66.8259 22.3055 66.8696 22.3551C66.9134 22.3976 66.9352 22.4543 66.9352 22.5252V23.2694C67.4014 23.3261 67.8021 23.4537 68.1372 23.6522C68.4723 23.8506 68.7237 24.0845 68.8912 24.3538C69.0661 24.6161 69.1608 24.8819 69.1753 25.1512C69.1753 25.215 69.1535 25.2682 69.1098 25.3107C69.0661 25.3532 69.0114 25.3745 68.9459 25.3745H68.3995C68.3412 25.3745 68.2829 25.3568 68.2246 25.3213C68.1737 25.2859 68.1409 25.2327 68.1263 25.1618C68.0826 24.8571 67.9078 24.6055 67.6018 24.407C67.2958 24.2085 66.9134 24.1093 66.4544 24.1093C65.959 24.1093 65.5656 24.205 65.2743 24.3964C64.9829 24.5807 64.8372 24.8571 64.8372 25.2256C64.8372 25.4737 64.9027 25.6757 65.0338 25.8316C65.1723 25.9876 65.3799 26.1258 65.6567 26.2463C65.9408 26.3668 66.3488 26.505 66.8806 26.6609C67.4998 26.831 67.9879 27.0011 68.3448 27.1712C68.7018 27.3413 68.9677 27.554 69.1425 27.8091C69.3174 28.0572 69.4048 28.3797 69.4048 28.7766C69.4048 29.3791 69.1826 29.8646 68.7382 30.2331C68.3011 30.6017 67.7001 30.8143 66.9352 30.871V31.6046C66.9352 31.6755 66.9134 31.7322 66.8696 31.7747C66.8259 31.8243 66.7677 31.8492 66.6948 31.8492H66.3014Z" fill="#666666"/>
<path d="M62.0574 40.5857C61.4693 40.5857 61.0283 40.417 60.7342 40.0796C60.4402 39.7375 60.2818 39.2799 60.2592 38.7067C60.2547 38.5819 60.2524 38.3785 60.2524 38.0965C60.2524 37.81 60.2547 37.6019 60.2592 37.4725C60.2818 36.8993 60.4402 36.444 60.7342 36.1066C61.0283 35.7645 61.4693 35.5935 62.0574 35.5935C62.46 35.5935 62.7948 35.6698 63.0617 35.8223C63.3286 35.9702 63.5254 36.1597 63.652 36.3909C63.7832 36.6174 63.8556 36.8508 63.8692 37.0912V37.105C63.8692 37.142 63.8556 37.1721 63.8284 37.1952C63.8013 37.2183 63.7674 37.2298 63.7267 37.2298H63.591C63.5095 37.2298 63.4598 37.1813 63.4417 37.0842C63.3557 36.6913 63.1997 36.414 62.9735 36.2522C62.7473 36.0904 62.4419 36.0095 62.0574 36.0095C61.6322 36.0095 61.3019 36.132 61.0667 36.377C60.8315 36.622 60.7048 36.9987 60.6867 37.5072C60.6822 37.632 60.6799 37.8238 60.6799 38.0827C60.6799 38.3415 60.6822 38.538 60.6867 38.672C60.7048 39.1805 60.8315 39.5572 61.0667 39.8022C61.3019 40.0472 61.6322 40.1697 62.0574 40.1697C62.4419 40.1697 62.7473 40.0888 62.9735 39.927C63.1997 39.7653 63.3557 39.4879 63.4417 39.095C63.4598 38.9979 63.5095 38.9494 63.591 38.9494H63.7267C63.7674 38.9494 63.8013 38.9633 63.8284 38.991C63.8601 39.0141 63.8737 39.0465 63.8692 39.0881C63.8556 39.3284 63.7832 39.5642 63.652 39.7953C63.5254 40.0218 63.3286 40.2113 63.0617 40.3639C62.7948 40.5118 62.46 40.5857 62.0574 40.5857Z" fill="#666666"/>
<path d="M66.0566 40.5164C66.0114 40.5164 65.9752 40.5025 65.948 40.4748C65.9209 40.4471 65.9073 40.4101 65.9073 40.3639V36.0788H64.5638C64.5185 36.0788 64.4824 36.065 64.4552 36.0372C64.4281 36.0095 64.4145 35.9725 64.4145 35.9263V35.8223C64.4145 35.7761 64.4281 35.7391 64.4552 35.7114C64.4824 35.679 64.5185 35.6628 64.5638 35.6628H67.6716C67.7213 35.6628 67.7598 35.6767 67.7869 35.7044C67.8141 35.7322 67.8277 35.7714 67.8277 35.8223V35.9263C67.8277 35.9725 67.8118 36.0095 67.7802 36.0372C67.753 36.065 67.7168 36.0788 67.6716 36.0788H66.3348V40.3639C66.3348 40.4101 66.319 40.4471 66.2873 40.4748C66.2602 40.5025 66.224 40.5164 66.1788 40.5164H66.0566Z" fill="#666666"/>
<path d="M70.0381 40.5857C69.6853 40.5857 69.3777 40.528 69.1153 40.4124C68.8574 40.2922 68.6584 40.1374 68.5181 39.9478C68.3824 39.7583 68.3101 39.5549 68.301 39.3377C68.301 39.3007 68.3146 39.2683 68.3417 39.2406C68.3689 39.2129 68.4028 39.199 68.4435 39.199H68.5792C68.6606 39.199 68.7104 39.2452 68.7285 39.3377C68.7602 39.5596 68.8846 39.7537 69.1017 39.9201C69.3188 40.0865 69.631 40.1697 70.0381 40.1697C70.4679 40.1697 70.7868 40.0911 70.9949 39.934C71.2075 39.7722 71.3138 39.548 71.3138 39.2614C71.3138 39.0857 71.2618 38.9425 71.1577 38.8315C71.0582 38.716 70.9112 38.6166 70.7167 38.5334C70.5222 38.4455 70.2281 38.3369 69.8345 38.2075C69.4862 38.0919 69.2125 37.9787 69.0135 37.8677C68.819 37.7568 68.6742 37.6204 68.5792 37.4586C68.4842 37.2969 68.4367 37.0912 68.4367 36.8415C68.4367 36.6058 68.4978 36.3932 68.6199 36.2036C68.7466 36.0141 68.9275 35.8662 69.1628 35.7599C69.398 35.649 69.6785 35.5935 70.0042 35.5935C70.3389 35.5935 70.6262 35.6559 70.866 35.7807C71.1057 35.9009 71.2867 36.0557 71.4088 36.2452C71.5309 36.4301 71.5965 36.6174 71.6056 36.8069C71.6056 36.8439 71.592 36.8762 71.5649 36.9039C71.5423 36.9317 71.5083 36.9456 71.4631 36.9456H71.3274C71.2957 36.9456 71.264 36.9363 71.2324 36.9178C71.2007 36.8947 71.1826 36.8577 71.1781 36.8069C71.151 36.5758 71.0288 36.3862 70.8117 36.2383C70.5991 36.0858 70.3299 36.0095 70.0042 36.0095C69.6559 36.0095 69.3777 36.0788 69.1696 36.2175C68.966 36.3562 68.8642 36.5642 68.8642 36.8415C68.8642 37.0218 68.9094 37.1721 68.9999 37.2922C69.0949 37.4078 69.2352 37.5095 69.4206 37.5973C69.6061 37.6805 69.8798 37.7822 70.2417 37.9024C70.6126 38.0226 70.9021 38.1381 71.1102 38.2491C71.3183 38.36 71.4744 38.4941 71.5784 38.6512C71.687 38.8084 71.7413 39.0118 71.7413 39.2614C71.7413 39.6774 71.5898 40.0033 71.2867 40.2391C70.9836 40.4702 70.5674 40.5857 70.0381 40.5857Z" fill="#666666"/>
<path d="M72.8709 40.5164C72.8257 40.5164 72.7895 40.5025 72.7623 40.4748C72.7352 40.4471 72.7216 40.4101 72.7216 40.3639V35.8154C72.7216 35.7691 72.7352 35.7322 72.7623 35.7044C72.7895 35.6767 72.8257 35.6628 72.8709 35.6628H72.9998C73.0451 35.6628 73.0812 35.6767 73.1084 35.7044C73.1355 35.7322 73.1491 35.7691 73.1491 35.8154V40.3639C73.1491 40.4101 73.1355 40.4471 73.1084 40.4748C73.0812 40.5025 73.0451 40.5164 72.9998 40.5164H72.8709Z" fill="#666666"/>
<circle cx="138.899" cy="67.2297" r="17.8049" fill="white" stroke="#666666"/>
<circle cx="138.899" cy="67.2297" r="15.6899" fill="white" stroke="#666666" stroke-linecap="round" stroke-dasharray="1 2"/>
<path d="M138.708 67.6455C138.635 67.6455 138.573 67.6242 138.522 67.5817C138.478 67.5392 138.456 67.4789 138.456 67.4009V66.6567C137.946 66.6142 137.506 66.5008 137.134 66.3165C136.77 66.1251 136.489 65.8912 136.293 65.6148C136.103 65.3313 136.001 65.0301 135.987 64.7111C135.987 64.6544 136.009 64.6048 136.052 64.5623C136.096 64.5198 136.151 64.4985 136.216 64.4985H136.741C136.879 64.4985 136.974 64.5694 137.025 64.7111C137.09 65.0088 137.276 65.2675 137.582 65.4872C137.895 65.6999 138.34 65.8062 138.915 65.8062C139.534 65.8062 139.997 65.6999 140.303 65.4872C140.609 65.2746 140.762 64.9805 140.762 64.6048C140.762 64.3638 140.685 64.1654 140.532 64.0094C140.387 63.8535 140.165 63.7188 139.866 63.6054C139.575 63.4849 139.134 63.3396 138.544 63.1695C137.983 63.0136 137.535 62.847 137.2 62.6699C136.865 62.4927 136.613 62.2765 136.446 62.0213C136.278 61.7591 136.194 61.4295 136.194 61.0326C136.194 60.501 136.395 60.0545 136.795 59.693C137.196 59.3315 137.75 59.1189 138.456 59.0551V58.3215C138.456 58.2435 138.478 58.1833 138.522 58.1408C138.573 58.0982 138.635 58.077 138.708 58.077H139.101C139.174 58.077 139.232 58.1018 139.276 58.1514C139.32 58.1939 139.341 58.2506 139.341 58.3215V59.0657C139.808 59.1224 140.208 59.25 140.543 59.4485C140.879 59.6469 141.13 59.8808 141.297 60.1502C141.472 60.4124 141.567 60.6782 141.582 60.9475C141.582 61.0113 141.56 61.0645 141.516 61.107C141.472 61.1495 141.418 61.1708 141.352 61.1708H140.806C140.747 61.1708 140.689 61.1531 140.631 61.1176C140.58 61.0822 140.547 61.029 140.532 60.9582C140.489 60.6534 140.314 60.4018 140.008 60.2033C139.702 60.0049 139.32 59.9056 138.861 59.9056C138.365 59.9056 137.972 60.0013 137.68 60.1927C137.389 60.377 137.243 60.6534 137.243 61.0219C137.243 61.27 137.309 61.472 137.44 61.628C137.578 61.7839 137.786 61.9221 138.063 62.0426C138.347 62.1631 138.755 62.3013 139.287 62.4572C139.906 62.6273 140.394 62.7974 140.751 62.9675C141.108 63.1376 141.374 63.3503 141.549 63.6054C141.724 63.8535 141.811 64.176 141.811 64.5729C141.811 65.1754 141.589 65.6609 141.144 66.0295C140.707 66.398 140.106 66.6107 139.341 66.6674V67.4009C139.341 67.4718 139.32 67.5285 139.276 67.571C139.232 67.6207 139.174 67.6455 139.101 67.6455H138.708Z" fill="#666666"/>
<path d="M134.464 76.382C133.875 76.382 133.434 76.2133 133.14 75.8759C132.846 75.5338 132.688 75.0762 132.665 74.503C132.661 74.3782 132.659 74.1748 132.659 73.8928C132.659 73.6062 132.661 73.3982 132.665 73.2688C132.688 72.6956 132.846 72.2403 133.14 71.9029C133.434 71.5608 133.875 71.3898 134.464 71.3898C134.866 71.3898 135.201 71.466 135.468 71.6186C135.735 71.7665 135.931 71.956 136.058 72.1871C136.189 72.4136 136.262 72.6471 136.275 72.8874V72.9013C136.275 72.9383 136.262 72.9683 136.235 72.9914C136.207 73.0146 136.174 73.0261 136.133 73.0261H135.997C135.916 73.0261 135.866 72.9776 135.848 72.8805C135.762 72.4876 135.606 72.2102 135.38 72.0485C135.153 71.8867 134.848 71.8058 134.464 71.8058C134.038 71.8058 133.708 71.9283 133.473 72.1733C133.238 72.4183 133.111 72.795 133.093 73.3035C133.088 73.4283 133.086 73.6201 133.086 73.879C133.086 74.1378 133.088 74.3343 133.093 74.4683C133.111 74.9768 133.238 75.3535 133.473 75.5985C133.708 75.8435 134.038 75.966 134.464 75.966C134.848 75.966 135.153 75.8851 135.38 75.7233C135.606 75.5615 135.762 75.2842 135.848 74.8913C135.866 74.7942 135.916 74.7457 135.997 74.7457H136.133C136.174 74.7457 136.207 74.7595 136.235 74.7873C136.266 74.8104 136.28 74.8427 136.275 74.8843C136.262 75.1247 136.189 75.3605 136.058 75.5916C135.931 75.8181 135.735 76.0076 135.468 76.1601C135.201 76.3081 134.866 76.382 134.464 76.382Z" fill="#666666"/>
<path d="M138.463 76.3127C138.418 76.3127 138.381 76.2988 138.354 76.2711C138.327 76.2433 138.313 76.2064 138.313 76.1601V71.8751H136.97C136.925 71.8751 136.888 71.8613 136.861 71.8335C136.834 71.8058 136.821 71.7688 136.821 71.7226V71.6186C136.821 71.5723 136.834 71.5354 136.861 71.5076C136.888 71.4753 136.925 71.4591 136.97 71.4591H140.078C140.127 71.4591 140.166 71.473 140.193 71.5007C140.22 71.5284 140.234 71.5677 140.234 71.6186V71.7226C140.234 71.7688 140.218 71.8058 140.186 71.8335C140.159 71.8613 140.123 71.8751 140.078 71.8751H138.741V76.1601C138.741 76.2064 138.725 76.2433 138.693 76.2711C138.666 76.2988 138.63 76.3127 138.585 76.3127H138.463Z" fill="#666666"/>
<path d="M142.444 76.382C142.091 76.382 141.784 76.3242 141.521 76.2087C141.264 76.0885 141.065 75.9336 140.924 75.7441C140.789 75.5546 140.716 75.3512 140.707 75.134C140.707 75.097 140.721 75.0646 140.748 75.0369C140.775 75.0091 140.809 74.9953 140.85 74.9953H140.985C141.067 74.9953 141.117 75.0415 141.135 75.134C141.166 75.3558 141.291 75.55 141.508 75.7164C141.725 75.8828 142.037 75.966 142.444 75.966C142.874 75.966 143.193 75.8874 143.401 75.7303C143.614 75.5685 143.72 75.3443 143.72 75.0577C143.72 74.882 143.668 74.7387 143.564 74.6278C143.464 74.5122 143.317 74.4129 143.123 74.3296C142.928 74.2418 142.634 74.1332 142.241 74.0038C141.892 73.8882 141.619 73.775 141.42 73.664C141.225 73.5531 141.08 73.4167 140.985 73.2549C140.89 73.0931 140.843 72.8874 140.843 72.6378C140.843 72.4021 140.904 72.1894 141.026 71.9999C141.153 71.8104 141.334 71.6625 141.569 71.5562C141.804 71.4452 142.085 71.3898 142.41 71.3898C142.745 71.3898 143.032 71.4522 143.272 71.577C143.512 71.6972 143.693 71.852 143.815 72.0415C143.937 72.2264 144.003 72.4136 144.012 72.6032C144.012 72.6401 143.998 72.6725 143.971 72.7002C143.948 72.728 143.914 72.7418 143.869 72.7418H143.734C143.702 72.7418 143.67 72.7326 143.639 72.7141C143.607 72.691 143.589 72.654 143.584 72.6032C143.557 72.372 143.435 72.1825 143.218 72.0346C143.005 71.8821 142.736 71.8058 142.41 71.8058C142.062 71.8058 141.784 71.8751 141.576 72.0138C141.372 72.1525 141.27 72.3605 141.27 72.6378C141.27 72.8181 141.316 72.9683 141.406 73.0885C141.501 73.2041 141.641 73.3058 141.827 73.3936C142.012 73.4768 142.286 73.5785 142.648 73.6987C143.019 73.8189 143.308 73.9344 143.516 74.0454C143.724 74.1563 143.881 74.2904 143.985 74.4475C144.093 74.6047 144.147 74.8081 144.147 75.0577C144.147 75.4737 143.996 75.7996 143.693 76.0353C143.39 76.2665 142.974 76.382 142.444 76.382Z" fill="#666666"/>
<path d="M145.277 76.3127C145.232 76.3127 145.196 76.2988 145.168 76.2711C145.141 76.2433 145.128 76.2064 145.128 76.1601V71.6116C145.128 71.5654 145.141 71.5284 145.168 71.5007C145.196 71.473 145.232 71.4591 145.277 71.4591H145.406C145.451 71.4591 145.487 71.473 145.515 71.5007C145.542 71.5284 145.555 71.5654 145.555 71.6116V76.1601C145.555 76.2064 145.542 76.2433 145.515 76.2711C145.487 76.2988 145.451 76.3127 145.406 76.3127H145.277Z" fill="#666666"/>
<circle cx="66.4927" cy="103.026" r="17.8049" fill="white" stroke="#666666"/>
<circle cx="66.4927" cy="103.026" r="15.6899" fill="white" stroke="#666666" stroke-linecap="round" stroke-dasharray="1 2"/>
<path d="M66.3014 103.442C66.2286 103.442 66.1667 103.421 66.1157 103.378C66.0719 103.335 66.0501 103.275 66.0501 103.197V102.453C65.5402 102.411 65.0994 102.297 64.7279 102.113C64.3636 101.921 64.0832 101.688 63.8865 101.411C63.6971 101.128 63.5951 100.826 63.5805 100.507C63.5805 100.451 63.6024 100.401 63.6461 100.359C63.6898 100.316 63.7444 100.295 63.81 100.295H64.3345C64.4729 100.295 64.5676 100.366 64.6186 100.507C64.6842 100.805 64.8699 101.064 65.1759 101.284C65.4892 101.496 65.9335 101.603 66.509 101.603C67.1283 101.603 67.5909 101.496 67.8968 101.284C68.2028 101.071 68.3558 100.777 68.3558 100.401C68.3558 100.16 68.2793 99.9617 68.1263 99.8058C67.9806 99.6498 67.7584 99.5152 67.4597 99.4018C67.1683 99.2813 66.7276 99.136 66.1375 98.9659C65.5766 98.8099 65.1286 98.6434 64.7934 98.4662C64.4583 98.289 64.207 98.0728 64.0395 97.8176C63.8719 97.5554 63.7881 97.2258 63.7881 96.8289C63.7881 96.2973 63.9885 95.8508 64.3891 95.4893C64.7898 95.1278 65.3435 94.9152 66.0501 94.8514V94.1178C66.0501 94.0399 66.0719 93.9796 66.1157 93.9371C66.1667 93.8946 66.2286 93.8733 66.3014 93.8733H66.6948C66.7677 93.8733 66.8259 93.8981 66.8696 93.9477C66.9134 93.9902 66.9352 94.0469 66.9352 94.1178V94.862C67.4014 94.9187 67.8021 95.0463 68.1372 95.2448C68.4723 95.4432 68.7237 95.6771 68.8912 95.9465C69.0661 96.2087 69.1608 96.4745 69.1753 96.7438C69.1753 96.8076 69.1535 96.8608 69.1098 96.9033C69.0661 96.9458 69.0114 96.9671 68.9459 96.9671H68.3995C68.3412 96.9671 68.2829 96.9494 68.2246 96.9139C68.1737 96.8785 68.1409 96.8253 68.1263 96.7545C68.0826 96.4497 67.9078 96.1981 67.6018 95.9996C67.2958 95.8012 66.9134 95.7019 66.4544 95.7019C65.959 95.7019 65.5656 95.7976 65.2743 95.989C64.9829 96.1733 64.8372 96.4497 64.8372 96.8183C64.8372 97.0663 64.9027 97.2683 65.0338 97.4243C65.1723 97.5802 65.3799 97.7184 65.6567 97.8389C65.9408 97.9594 66.3488 98.0976 66.8806 98.2535C67.4998 98.4236 67.9879 98.5937 68.3448 98.7639C68.7018 98.934 68.9677 99.1466 69.1425 99.4018C69.3174 99.6498 69.4048 99.9723 69.4048 100.369C69.4048 100.972 69.1826 101.457 68.7382 101.826C68.3011 102.194 67.7001 102.407 66.9352 102.464V103.197C66.9352 103.268 66.9134 103.325 66.8696 103.367C66.8259 103.417 66.7677 103.442 66.6948 103.442H66.3014Z" fill="#666666"/>
<path d="M62.0574 112.178C61.4693 112.178 61.0283 112.01 60.7342 111.672C60.4402 111.33 60.2818 110.872 60.2592 110.299C60.2547 110.174 60.2524 109.971 60.2524 109.689C60.2524 109.403 60.2547 109.195 60.2592 109.065C60.2818 108.492 60.4402 108.037 60.7342 107.699C61.0283 107.357 61.4693 107.186 62.0574 107.186C62.46 107.186 62.7948 107.262 63.0617 107.415C63.3286 107.563 63.5254 107.752 63.652 107.983C63.7832 108.21 63.8556 108.443 63.8692 108.684V108.698C63.8692 108.735 63.8556 108.765 63.8284 108.788C63.8013 108.811 63.7674 108.822 63.7267 108.822H63.591C63.5095 108.822 63.4598 108.774 63.4417 108.677C63.3557 108.284 63.1997 108.007 62.9735 107.845C62.7473 107.683 62.4419 107.602 62.0574 107.602C61.6322 107.602 61.3019 107.725 61.0667 107.97C60.8315 108.215 60.7048 108.591 60.6867 109.1C60.6822 109.225 60.6799 109.416 60.6799 109.675C60.6799 109.934 60.6822 110.131 60.6867 110.265C60.7048 110.773 60.8315 111.15 61.0667 111.395C61.3019 111.64 61.6322 111.762 62.0574 111.762C62.4419 111.762 62.7473 111.681 62.9735 111.52C63.1997 111.358 63.3557 111.08 63.4417 110.688C63.4598 110.591 63.5095 110.542 63.591 110.542H63.7267C63.7674 110.542 63.8013 110.556 63.8284 110.584C63.8601 110.607 63.8737 110.639 63.8692 110.681C63.8556 110.921 63.7832 111.157 63.652 111.388C63.5254 111.614 63.3286 111.804 63.0617 111.956C62.7948 112.104 62.46 112.178 62.0574 112.178Z" fill="#666666"/>
<path d="M66.0566 112.109C66.0114 112.109 65.9752 112.095 65.948 112.067C65.9209 112.04 65.9073 112.003 65.9073 111.956V107.671H64.5638C64.5185 107.671 64.4824 107.658 64.4552 107.63C64.4281 107.602 64.4145 107.565 64.4145 107.519V107.415C64.4145 107.369 64.4281 107.332 64.4552 107.304C64.4824 107.272 64.5185 107.255 64.5638 107.255H67.6716C67.7213 107.255 67.7598 107.269 67.7869 107.297C67.8141 107.325 67.8277 107.364 67.8277 107.415V107.519C67.8277 107.565 67.8118 107.602 67.7802 107.63C67.753 107.658 67.7168 107.671 67.6716 107.671H66.3348V111.956C66.3348 112.003 66.319 112.04 66.2873 112.067C66.2602 112.095 66.224 112.109 66.1788 112.109H66.0566Z" fill="#666666"/>
<path d="M70.0381 112.178C69.6853 112.178 69.3777 112.121 69.1153 112.005C68.8574 111.885 68.6584 111.73 68.5181 111.54C68.3824 111.351 68.3101 111.148 68.301 110.93C68.301 110.893 68.3146 110.861 68.3417 110.833C68.3689 110.805 68.4028 110.792 68.4435 110.792H68.5792C68.6606 110.792 68.7104 110.838 68.7285 110.93C68.7602 111.152 68.8846 111.346 69.1017 111.513C69.3188 111.679 69.631 111.762 70.0381 111.762C70.4679 111.762 70.7868 111.684 70.9949 111.527C71.2075 111.365 71.3138 111.141 71.3138 110.854C71.3138 110.678 71.2618 110.535 71.1577 110.424C71.0582 110.309 70.9112 110.209 70.7167 110.126C70.5222 110.038 70.2281 109.93 69.8345 109.8C69.4862 109.685 69.2125 109.571 69.0135 109.46C68.819 109.349 68.6742 109.213 68.5792 109.051C68.4842 108.889 68.4367 108.684 68.4367 108.434C68.4367 108.198 68.4978 107.986 68.6199 107.796C68.7466 107.607 68.9275 107.459 69.1628 107.352C69.398 107.242 69.6785 107.186 70.0042 107.186C70.3389 107.186 70.6262 107.248 70.866 107.373C71.1057 107.493 71.2867 107.648 71.4088 107.838C71.5309 108.023 71.5965 108.21 71.6056 108.399C71.6056 108.436 71.592 108.469 71.5649 108.497C71.5423 108.524 71.5083 108.538 71.4631 108.538H71.3274C71.2957 108.538 71.264 108.529 71.2324 108.51C71.2007 108.487 71.1826 108.45 71.1781 108.399C71.151 108.168 71.0288 107.979 70.8117 107.831C70.5991 107.678 70.3299 107.602 70.0042 107.602C69.6559 107.602 69.3777 107.671 69.1696 107.81C68.966 107.949 68.8642 108.157 68.8642 108.434C68.8642 108.614 68.9094 108.765 68.9999 108.885C69.0949 109 69.2352 109.102 69.4206 109.19C69.6061 109.273 69.8798 109.375 70.2417 109.495C70.6126 109.615 70.9021 109.731 71.1102 109.842C71.3183 109.953 71.4744 110.087 71.5784 110.244C71.687 110.401 71.7413 110.604 71.7413 110.854C71.7413 111.27 71.5898 111.596 71.2867 111.832C70.9836 112.063 70.5674 112.178 70.0381 112.178Z" fill="#666666"/>
<path d="M72.8709 112.109C72.8257 112.109 72.7895 112.095 72.7623 112.067C72.7352 112.04 72.7216 112.003 72.7216 111.956V107.408C72.7216 107.362 72.7352 107.325 72.7623 107.297C72.7895 107.269 72.8257 107.255 72.8709 107.255H72.9998C73.0451 107.255 73.0812 107.269 73.1084 107.297C73.1355 107.325 73.1491 107.362 73.1491 107.408V111.956C73.1491 112.003 73.1355 112.04 73.1084 112.067C73.0812 112.095 73.0451 112.109 72.9998 112.109H72.8709Z" fill="#666666"/>
<defs>
<filter id="filter0_d" x="0.5" y="0.628418" width="205" height="169.001" filterUnits="userSpaceOnUse" color-interpolation-filters="sRGB">
<feFlood flood-opacity="0" result="BackgroundImageFix"/>
<feColorMatrix in="SourceAlpha" type="matrix" values="0 0 0 0 0 0 0 0 0 0 0 0 0 0 0 0 0 0 127 0"/>
<feOffset/>
<feGaussianBlur stdDeviation="6"/>
<feColorMatrix type="matrix" values="0 0 0 0 0 0 0 0 0 0.93956 0 0 0 0 1 0 0 0 0.5 0"/>
<feBlend mode="normal" in2="BackgroundImageFix" result="effect1_dropShadow"/>
<feBlend mode="normal" in="SourceGraphic" in2="effect1_dropShadow" result="shape"/>
</filter>
</defs>
</svg>
