<svg width="30" height="36" viewBox="0 0 30 36" fill="none" xmlns="http://www.w3.org/2000/svg">
<path d="M6.80371 8.42615L10.7203 4.12744L12.333 8.4378" stroke="black" stroke-miterlimit="10" stroke-linecap="round" stroke-linejoin="round"/>
<path d="M12.2781 14.5693L9.98989 17.0701L8.3772 12.7559" stroke="black" stroke-miterlimit="10" stroke-linecap="round" stroke-linejoin="round"/>
<path d="M13.9418 12.7559L12.2783 14.5693" stroke="black" stroke-miterlimit="10"/>
<path d="M12.3251 8.43774H15.1366L16.7493 12.7559H11.181L9.56829 8.43774H4L5.6127 12.7559H8.37732" stroke="black" stroke-miterlimit="10" stroke-linecap="round" stroke-linejoin="round"/>
<path d="M12.3291 8.43774L8.37354 12.7559" stroke="black" stroke-miterlimit="10"/>
<path d="M20.6898 0.127441H0V35.092H15H30V9.43765L20.6898 0.127441ZM21.0638 2.30659L27.8209 9.06361H21.0638V2.30659ZM1.2766 33.8154V1.40404H19.7872V10.3402H28.7234V33.8154H1.2766Z" fill="black"/>
<path d="M16.5758 19.2165H22.3205C22.6735 19.2165 22.9588 18.9312 22.9588 18.5782C22.9588 18.2253 22.6735 17.9399 22.3205 17.9399H16.5758C16.2228 17.9399 15.9375 18.2253 15.9375 18.5782C15.9375 18.9312 16.2228 19.2165 16.5758 19.2165Z" fill="black"/>
<path d="M16.5758 24.323H19.7673C20.1203 24.323 20.4056 24.0377 20.4056 23.6847C20.4056 23.3317 20.1203 23.0464 19.7673 23.0464H16.5758C16.2228 23.0464 15.9375 23.3317 15.9375 23.6847C15.9375 24.0377 16.2228 24.323 16.5758 24.323Z" fill="black"/>
<path d="M22.5057 23.2379C22.3844 23.3528 22.3206 23.5181 22.3206 23.6847C22.3206 23.8507 22.3844 24.0166 22.5057 24.1379C22.6263 24.2528 22.7929 24.323 22.9589 24.323C23.1248 24.323 23.2908 24.2585 23.412 24.1315C23.5269 24.016 23.5972 23.8507 23.5972 23.6847C23.5972 23.5181 23.5269 23.3522 23.412 23.2315C23.1695 22.9953 22.7418 22.9953 22.5057 23.2379Z" fill="black"/>
<path d="M24.2353 28.1528H19.7672C19.4142 28.1528 19.1289 28.4382 19.1289 28.7911C19.1289 29.1441 19.4142 29.4294 19.7672 29.4294H24.2353C24.5883 29.4294 24.8736 29.1441 24.8736 28.7911C24.8736 28.4382 24.5883 28.1528 24.2353 28.1528Z" fill="black"/>
<path d="M11.6689 28.1528H7.2008C6.84782 28.1528 6.5625 28.4382 6.5625 28.7911C6.5625 29.1441 6.84782 29.4294 7.2008 29.4294H11.6689C12.0219 29.4294 12.3072 29.1441 12.3072 28.7911C12.3072 28.4382 12.0219 28.1528 11.6689 28.1528Z" fill="black"/>
<path d="M16.5758 29.4293C16.7418 29.4293 16.9077 29.359 17.029 29.2442C17.1496 29.1229 17.2141 28.9569 17.2141 28.791C17.2141 28.6244 17.1496 28.4584 17.029 28.3378C16.7864 28.1016 16.3652 28.1016 16.1226 28.3378C16.0013 28.4584 15.9375 28.618 15.9375 28.791C15.9375 28.9569 16.0071 29.1229 16.1226 29.2442C16.2432 29.359 16.4098 29.4293 16.5758 29.4293Z" fill="black"/>
</svg>
