<svg width="1745" height="609" viewBox="0 0 1745 609" fill="none" xmlns="http://www.w3.org/2000/svg">
<path fill-rule="evenodd" clip-rule="evenodd" d="M2584.68 1366.65C2355.49 1148.17 2348.76 1121.08 2301.51 891.57C2273.89 745.92 2149.01 634.69 1996.97 628.03C1884.25 622.77 1846.56 590.98 1825.25 481.71C1798.61 329.19 1665.56 213.25 1505.42 213.25C1326.09 213.25 1180.72 358.62 1180.72 537.95C1180.72 712.29 1318.12 854.51 1490.53 862.3L1490.52 862.31C1603.41 867.49 1641.23 899.13 1662.58 1008.1C1670.6 1054.47 1688.45 1097.47 1713.91 1134.88C1844 1331.07 1858.49 1354.46 1851.89 1671.7H1851.9C1851.84 1674.7 1851.8 1677.71 1851.8 1680.73C1851.8 1920.27 2045.99 2114.46 2285.53 2114.46C2525.07 2114.46 2719.26 1920.27 2719.26 1680.73C2719.27 1557.15 2667.6 1445.65 2584.68 1366.65Z" fill="url(#paint0_radial)"/>
<path fill-rule="evenodd" clip-rule="evenodd" d="M744.11 665.41C566.9 696.78 489.11 596.68 503.31 463.12C504.29 454.06 504.82 444.86 504.82 435.54C504.82 296.14 391.81 183.13 252.41 183.13C113.01 183.13 0 296.14 0 435.54C0 574.94 113.01 687.95 252.41 687.95C259.71 687.95 266.93 687.62 274.07 687.01C408.15 675.46 506.83 755.38 471.59 932.09L744.11 665.41Z" fill="url(#paint1_radial)"/>
<path fill-rule="evenodd" clip-rule="evenodd" d="M620.44 713.8C722.54 648.26 741.8 600.88 703.63 474.37L1237.04 688.55C1121.98 753.54 1103.13 801.07 1131.55 919.03L620.44 713.8Z" fill="url(#paint2_radial)"/>
<path d="M1056.02 736.14C1259.3 736.14 1424.09 571.349 1424.09 368.07C1424.09 164.791 1259.3 0 1056.02 0C852.741 0 687.95 164.791 687.95 368.07C687.95 571.349 852.741 736.14 1056.02 736.14Z" fill="url(#paint3_radial)"/>
<defs>
<radialGradient id="paint0_radial" cx="0" cy="0" r="1" gradientUnits="userSpaceOnUse" gradientTransform="translate(2351.36 654.111) scale(1830.6)">
<stop offset="0.2513" stop-color="#060505"/>
<stop offset="0.3543" stop-color="#0D0C0C"/>
<stop offset="0.508" stop-color="#212121"/>
<stop offset="0.6923" stop-color="#424242"/>
<stop offset="0.8476" stop-color="#636363"/>
</radialGradient>
<radialGradient id="paint1_radial" cx="0" cy="0" r="1" gradientUnits="userSpaceOnUse" gradientTransform="translate(566.169 356.805) scale(731.99)">
<stop offset="0.2593" stop-color="#060505"/>
<stop offset="0.3595" stop-color="#0D0C0C"/>
<stop offset="0.509" stop-color="#212121"/>
<stop offset="0.6884" stop-color="#424242"/>
<stop offset="0.8396" stop-color="#636363"/>
</radialGradient>
<radialGradient id="paint2_radial" cx="0" cy="0" r="1" gradientUnits="userSpaceOnUse" gradientTransform="translate(1094.06 812.697) rotate(90) scale(590.049)">
<stop offset="0.2495" stop-color="#060505"/>
<stop offset="0.3506" stop-color="#0D0C0C"/>
<stop offset="0.5014" stop-color="#212121"/>
<stop offset="0.6823" stop-color="#424242"/>
<stop offset="0.8347" stop-color="#636363"/>
</radialGradient>
<radialGradient id="paint3_radial" cx="0" cy="0" r="1" gradientUnits="userSpaceOnUse" gradientTransform="translate(1253.39 560.109) rotate(90) scale(719.868)">
<stop offset="0.2499" stop-color="#060505"/>
<stop offset="0.352" stop-color="#0D0C0C"/>
<stop offset="0.5043" stop-color="#212121"/>
<stop offset="0.687" stop-color="#424242"/>
<stop offset="0.841" stop-color="#636363"/>
</radialGradient>
</defs>
</svg>
