<svg width="26" height="32" viewBox="0 0 26 32" fill="none" xmlns="http://www.w3.org/2000/svg">
<path d="M19.6635 11.7334H6.33021C6.03581 11.7334 5.79688 11.9718 5.79688 12.2667C5.79688 12.5617 6.03581 12.8001 6.33021 12.8001H19.6635C19.9579 12.8001 20.1969 12.5617 20.1969 12.2667C20.1969 11.9718 19.9579 11.7334 19.6635 11.7334Z" fill="#666666"/>
<path d="M6.33021 8.53322H11.6635C11.9579 8.53322 12.1969 8.29482 12.1969 7.99989C12.1969 7.70495 11.9579 7.46655 11.6635 7.46655H6.33021C6.03581 7.46655 5.79688 7.70495 5.79688 7.99989C5.79688 8.29482 6.03581 8.53322 6.33021 8.53322Z" fill="#666666"/>
<path d="M19.6635 16H6.33021C6.03581 16 5.79688 16.2384 5.79688 16.5333C5.79688 16.8283 6.03581 17.0667 6.33021 17.0667H19.6635C19.9579 17.0667 20.1969 16.8283 20.1969 16.5333C20.1969 16.2384 19.9579 16 19.6635 16Z" fill="#666666"/>
<path d="M19.6635 20.2666H6.33021C6.03581 20.2666 5.79688 20.505 5.79688 20.7999C5.79688 21.0949 6.03581 21.3333 6.33021 21.3333H19.6635C19.9579 21.3333 20.1969 21.0949 20.1969 20.7999C20.1969 20.505 19.9579 20.2666 19.6635 20.2666Z" fill="#666666"/>
<path d="M19.6635 24.5334H6.33021C6.03581 24.5334 5.79688 24.7718 5.79688 25.0668C5.79688 25.3617 6.03581 25.6001 6.33021 25.6001H19.6635C19.9579 25.6001 20.1969 25.3617 20.1969 25.0668C20.1969 24.7718 19.9579 24.5334 19.6635 24.5334Z" fill="#666666"/>
<path d="M17.7523 0H0.464844V32H25.5315V7.7792L17.7523 0ZM18.0648 1.8208L23.7107 7.46667H18.0648V1.8208ZM1.53151 30.9333V1.06667H16.9982V8.53333H24.4648V30.9333H1.53151Z" fill="#666666"/>
</svg>
