<svg width="30" height="31" viewBox="0 0 30 31" fill="none" xmlns="http://www.w3.org/2000/svg">
<path d="M29.5 15.9805C29.7765 15.9805 30 15.757 30 15.4805C30 15.204 29.7765 14.9805 29.5 14.9805H27.9875C27.9565 14.166 27.8495 13.3715 27.675 12.602L29.1355 12.2105C29.402 12.139 29.5605 11.865 29.489 11.598C29.418 11.3315 29.144 11.174 28.8765 11.2445L27.419 11.635C27.402 11.58 27.3825 11.5265 27.3645 11.472C27.3635 11.469 27.3645 11.4665 27.3635 11.4635C27.3625 11.4605 27.36 11.4585 27.3585 11.455C27.128 10.7485 26.8385 10.0685 26.4955 9.42047L27.8065 8.66347C28.046 8.52547 28.128 8.21947 27.9895 7.98047C27.851 7.74097 27.544 7.65847 27.3065 7.79747L25.9935 8.55547C25.5645 7.87697 25.076 7.24047 24.5325 6.65447L25.6055 5.58147C25.801 5.38597 25.801 5.06997 25.6055 4.87447C25.41 4.67897 25.094 4.67897 24.8985 4.87447L23.8255 5.94747C23.24 5.40397 22.6035 4.91547 21.925 4.48647L22.683 3.17347C22.8215 2.93397 22.7395 2.62847 22.5 2.49047C22.261 2.35247 21.955 2.43347 21.817 2.67347L21.06 3.98447C20.357 3.61247 19.617 3.30097 18.8455 3.06147L19.236 1.60397C19.3075 1.33747 19.149 1.06297 18.8825 0.991469C18.617 0.920969 18.3415 1.07847 18.27 1.34497L17.8785 2.80547C17.109 2.63097 16.3145 2.52397 15.5 2.49297V0.980469C15.5 0.703969 15.2765 0.480469 15 0.480469C14.7235 0.480469 14.5 0.703969 14.5 0.980469V2.49297C13.6855 2.52397 12.891 2.63047 12.1215 2.80547L11.73 1.34497C11.6585 1.07797 11.385 0.920469 11.1175 0.991469C10.851 1.06297 10.6925 1.33697 10.764 1.60397L11.1545 3.06147C10.383 3.30097 9.643 3.61247 8.94 3.98447L8.183 2.67347C8.0445 2.43297 7.738 2.35197 7.5 2.49047C7.2605 2.62847 7.1785 2.93447 7.317 3.17347L8.075 4.48647C7.3965 4.91547 6.76 5.40397 6.1735 5.94747L5.1005 4.87447C4.905 4.67897 4.589 4.67897 4.3935 4.87447C4.198 5.06997 4.198 5.38597 4.3935 5.58147L5.4665 6.65447C4.9235 7.24047 4.435 7.87697 4.006 8.55547L2.693 7.79747C2.454 7.65847 2.148 7.74097 2.01 7.98047C1.872 8.21997 1.954 8.52547 2.193 8.66347L3.504 9.42047C3.161 10.0685 2.872 10.7485 2.641 11.455C2.64 11.458 2.6375 11.46 2.636 11.4635C2.635 11.4665 2.636 11.469 2.635 11.472C2.6175 11.5265 2.5975 11.5805 2.5805 11.635L1.123 11.2445C0.8575 11.1745 0.582 11.3315 0.5105 11.598C0.439 11.8645 0.5975 12.139 0.864 12.2105L2.3245 12.602C2.1505 13.3715 2.0435 14.166 2.0125 14.9805H0.5C0.2235 14.9805 0 15.204 0 15.4805C0 15.757 0.2235 15.9805 0.5 15.9805H2.0125C2.0435 16.795 2.1505 17.5895 2.325 18.359L0.8645 18.7505C0.598 18.822 0.4395 19.096 0.511 19.363C0.5705 19.5865 0.7725 19.7335 0.9935 19.7335C1.0365 19.7335 1.08 19.728 1.1235 19.7165L2.581 19.326C2.8205 20.0975 3.132 20.8375 3.504 21.5405L2.193 22.2975C1.9535 22.4355 1.8715 22.741 2.01 22.9805C2.103 23.141 2.2705 23.2305 2.4435 23.2305C2.5285 23.2305 2.6145 23.209 2.693 23.1635L4.006 22.4055C4.435 23.084 4.9235 23.7205 5.467 24.3065L4.394 25.3795C4.1985 25.575 4.1985 25.891 4.394 26.0865C4.4915 26.184 4.6195 26.233 4.7475 26.233C4.8755 26.233 5.0035 26.184 5.101 26.0865L6.174 25.0135C6.542 25.3545 6.9295 25.6745 7.3355 25.9715C7.3445 25.979 7.3495 25.99 7.3595 25.9975C7.3735 26.0075 7.3895 26.0115 7.404 26.02C7.623 26.178 7.847 26.3295 8.076 26.4745L7.318 27.7875C7.18 28.027 7.262 28.3325 7.501 28.4705C7.5795 28.516 7.6655 28.5375 7.7505 28.5375C7.9235 28.5375 8.0915 28.448 8.184 28.2875L8.941 26.9765C9.644 27.3485 10.384 27.66 11.1555 27.8995L10.765 29.357C10.6935 29.6235 10.852 29.898 11.1185 29.9695C11.162 29.981 11.2055 29.9865 11.2485 29.9865C11.469 29.9865 11.6715 29.8395 11.731 29.616L12.1225 28.1555C12.892 28.3305 13.687 28.437 14.501 28.468V29.9805C14.501 30.257 14.7245 30.4805 15.001 30.4805C15.2775 30.4805 15.501 30.257 15.501 29.9805V28.468C16.3155 28.437 17.11 28.3305 17.8795 28.1555L18.271 29.616C18.3305 29.8395 18.5325 29.9865 18.7535 29.9865C18.7965 29.9865 18.84 29.981 18.8835 29.9695C19.15 29.898 19.3085 29.624 19.237 29.357L18.8465 27.8995C19.618 27.66 20.358 27.3485 21.061 26.9765L21.818 28.2875C21.911 28.448 22.0785 28.5375 22.2515 28.5375C22.3365 28.5375 22.4225 28.516 22.501 28.4705C22.7405 28.3325 22.8225 28.0265 22.684 27.7875L21.926 26.4745C22.155 26.3295 22.379 26.178 22.598 26.02C22.6125 26.0115 22.6285 26.0075 22.642 25.9975C22.652 25.9905 22.6565 25.9795 22.666 25.9715C23.0715 25.6745 23.459 25.3545 23.8275 25.0135L24.9005 26.0865C24.998 26.184 25.126 26.233 25.254 26.233C25.382 26.233 25.51 26.184 25.6075 26.0865C25.803 25.891 25.803 25.575 25.6075 25.3795L24.5345 24.3065C25.0775 23.7205 25.5665 23.0835 25.9955 22.4055L27.3085 23.1635C27.387 23.209 27.473 23.2305 27.558 23.2305C27.731 23.2305 27.899 23.141 27.9915 22.9805C28.1295 22.741 28.0475 22.4355 27.8085 22.2975L26.4975 21.5405C26.8695 20.8375 27.181 20.0975 27.4205 19.326L28.878 19.7165C28.9215 19.728 28.965 19.7335 29.008 19.7335C29.2285 19.7335 29.431 19.5865 29.4905 19.363C29.562 19.0965 29.4035 18.822 29.137 18.7505L27.6765 18.359C27.851 17.5895 27.958 16.7945 27.989 15.9805H29.5ZM22.4465 24.88L18.619 19.6115C19.769 18.6025 20.5 17.127 20.5 15.4805C20.5 15.0625 20.449 14.6565 20.36 14.265L26.555 12.252C26.843 13.28 27 14.362 27 15.4805C27 19.2855 25.218 22.68 22.4465 24.88ZM15 27.4805C12.5465 27.4805 10.263 26.739 8.3605 25.47L12.1895 20.1995C13.013 20.692 13.9725 20.9805 15 20.9805C16.0275 20.9805 16.987 20.692 17.811 20.1995L21.64 25.47C19.737 26.739 17.4535 27.4805 15 27.4805ZM3 15.4805C3 14.362 3.157 13.28 3.445 12.2515L9.64 14.2645C9.551 14.6565 9.5 15.0625 9.5 15.4805C9.5 17.127 10.231 18.6025 11.3805 19.6115L7.553 24.88C4.782 22.68 3 19.2855 3 15.4805ZM14.5 3.49297V10.0055C12.453 10.191 10.727 11.501 9.9465 13.3125L3.7525 11.3C5.398 6.88697 9.5695 3.69647 14.5 3.49297ZM26.2475 11.3L20.0535 13.313C19.2735 11.501 17.547 10.1915 15.5 10.006V3.49297C20.4305 3.69647 24.602 6.88697 26.2475 11.3ZM15 19.9805C12.5185 19.9805 10.5 17.962 10.5 15.4805C10.5 12.999 12.5185 10.9805 15 10.9805C17.4815 10.9805 19.5 12.999 19.5 15.4805C19.5 17.962 17.4815 19.9805 15 19.9805Z" fill="#666666"/>
</svg>
