<svg width="30" height="31" viewBox="0 0 30 31" fill="none" xmlns="http://www.w3.org/2000/svg">
<path d="M12.1392 0.480469H1.78927C0.802493 0.480469 0 1.28296 0 2.26974V12.6196C0 13.6064 0.802493 14.4089 1.78927 14.4089H12.1392C13.126 14.4089 13.9284 13.6064 13.9284 12.6196V2.26974C13.9284 1.28296 13.126 0.480469 12.1392 0.480469ZM12.857 12.6196C12.857 13.0155 12.5351 13.3375 12.1392 13.3375H1.78927C1.39338 13.3375 1.07142 13.0155 1.07142 12.6196V2.26974C1.07142 1.87385 1.39338 1.55189 1.78927 1.55189H12.1392C12.5351 1.55189 12.857 1.87385 12.857 2.26974V12.6196Z" fill="#666666"/>
<path d="M28.2095 0.480469H17.8596C16.8728 0.480469 16.0703 1.28296 16.0703 2.26974V12.6196C16.0703 13.6064 16.8728 14.4089 17.8596 14.4089H28.2095C29.1963 14.4089 29.9988 13.6064 29.9988 12.6196V2.26974C29.9988 1.28296 29.1963 0.480469 28.2095 0.480469ZM28.9273 12.6196C28.9273 13.0155 28.6054 13.3375 28.2095 13.3375H17.8596C17.4637 13.3375 17.1417 13.0155 17.1417 12.6196V2.26974C17.1417 1.87385 17.4637 1.55189 17.8596 1.55189H28.2095C28.6054 1.55189 28.9273 1.87385 28.9273 2.26974V12.6196Z" fill="#666666"/>
<path d="M12.1392 16.552H1.78927C0.802493 16.552 0 17.3545 0 18.3413V28.6912C0 29.678 0.802493 30.4804 1.78927 30.4804H12.1392C13.126 30.4804 13.9284 29.678 13.9284 28.6912V18.3413C13.9284 17.3545 13.126 16.552 12.1392 16.552ZM12.857 28.6912C12.857 29.0871 12.5351 29.409 12.1392 29.409H1.78927C1.39338 29.409 1.07142 29.0871 1.07142 28.6912V18.3413C1.07142 17.9454 1.39338 17.6234 1.78927 17.6234H12.1392C12.5351 17.6234 12.857 17.9454 12.857 18.3413V28.6912Z" fill="#666666"/>
<path d="M29.4631 22.9805H23.5702V17.0877C23.5702 16.7915 23.3308 16.552 23.0345 16.552C22.7383 16.552 22.4988 16.7915 22.4988 17.0877V22.9805H16.606C16.3098 22.9805 16.0703 23.22 16.0703 23.5162C16.0703 23.8125 16.3098 24.0519 16.606 24.0519H22.4988V29.9447C22.4988 30.241 22.7383 30.4804 23.0345 30.4804C23.3308 30.4804 23.5702 30.241 23.5702 29.9447V24.0519H29.4631C29.7593 24.0519 29.9988 23.8125 29.9988 23.5162C29.9988 23.22 29.7593 22.9805 29.4631 22.9805Z" fill="#666666"/>
</svg>
