<svg width="30" height="34" viewBox="0 0 30 34" fill="none" xmlns="http://www.w3.org/2000/svg">
<path d="M15.0007 5.0249C9.37634 5.0249 4.80078 9.81497 4.80078 15.703C4.80078 20.1702 7.43536 24.1274 11.4007 25.6902V31.4061C11.4007 31.7534 11.6689 32.0342 12.0007 32.0342H12.6007V33.2905C12.6007 33.6378 12.8689 33.9186 13.2007 33.9186H16.8007C17.1325 33.9186 17.4007 33.6378 17.4007 33.2905V32.0342H18.0007C18.3325 32.0342 18.6007 31.7534 18.6007 31.4061V25.6902C22.566 24.1274 25.2006 20.1702 25.2006 15.703C25.2006 9.81497 20.625 5.0249 15.0007 5.0249ZM16.8007 30.778C16.4689 30.778 16.2007 31.0587 16.2007 31.4061V32.6623H13.8007V31.4061C13.8007 31.0587 13.5325 30.778 13.2007 30.778H12.6007V27.6373H17.4007V30.778H16.8007ZM17.8135 24.6487C17.5669 24.7335 17.4007 24.9747 17.4007 25.2455V26.3811H12.6007V25.2455C12.6007 24.9741 12.4345 24.7335 12.1879 24.6487C8.48775 23.3749 6.00077 19.7795 6.00077 15.703C6.00077 10.5078 10.0381 6.28115 15.0007 6.28115C19.9633 6.28115 24.0006 10.5078 24.0006 15.703C24.0006 19.7795 21.5136 23.3749 17.8135 24.6487Z" fill="#666666"/>
<path d="M14.9988 3.76874C15.3308 3.76874 15.5991 3.48797 15.5991 3.14062V0.628124C15.5991 0.280771 15.3308 0 14.9988 0C14.6668 0 14.3984 0.280771 14.3984 0.628124V3.14062C14.3984 3.48797 14.6668 3.76874 14.9988 3.76874Z" fill="#666666"/>
<path d="M29.3984 15.075H26.9984C26.6666 15.075 26.3984 15.3557 26.3984 15.7031C26.3984 16.0504 26.6666 16.3312 26.9984 16.3312H29.3984C29.7302 16.3312 29.9984 16.0504 29.9984 15.7031C29.9984 15.3557 29.7302 15.075 29.3984 15.075Z" fill="#666666"/>
<path d="M2.99987 15.075H0.599974C0.268188 15.075 0 15.3557 0 15.7031C0 16.0504 0.268188 16.3312 0.599974 16.3312H2.99987C3.33165 16.3312 3.59984 16.0504 3.59984 15.7031C3.59984 15.3557 3.33165 15.075 2.99987 15.075Z" fill="#666666"/>
<path d="M24.7595 4.59949L23.0627 6.37582C22.8281 6.62141 22.8281 7.01838 23.0627 7.26398C23.1797 7.38646 23.3333 7.44802 23.4869 7.44802C23.6405 7.44802 23.7941 7.38646 23.9111 7.26398L25.6079 5.48765C25.8425 5.24206 25.8425 4.84508 25.6079 4.59949C25.3733 4.35389 24.9935 4.35452 24.7595 4.59949Z" fill="#666666"/>
<path d="M6.08751 24.1424L4.39079 25.9188C4.1562 26.1644 4.1562 26.5613 4.39079 26.8069C4.50778 26.9294 4.66137 26.991 4.81497 26.991C4.96856 26.991 5.12215 26.9294 5.23915 26.8069L6.93587 25.0306C7.17046 24.785 7.17046 24.388 6.93587 24.1424C6.70128 23.8969 6.32209 23.8969 6.08751 24.1424Z" fill="#666666"/>
<path d="M23.9111 24.1424C23.6765 23.8969 23.2973 23.8969 23.0627 24.1424C22.8281 24.388 22.8281 24.785 23.0627 25.0306L24.7595 26.8069C24.8765 26.9294 25.0301 26.991 25.1837 26.991C25.3373 26.991 25.4909 26.9294 25.6079 26.8069C25.8425 26.5613 25.8425 26.1644 25.6079 25.9188L23.9111 24.1424Z" fill="#666666"/>
<path d="M6.08751 7.26325C6.2045 7.38573 6.35809 7.44729 6.51169 7.44729C6.66528 7.44729 6.81887 7.38573 6.93587 7.26325C7.17046 7.01765 7.17046 6.62068 6.93587 6.37508L5.23915 4.59875C5.00456 4.35315 4.62537 4.35315 4.39079 4.59875C4.1562 4.84434 4.1562 5.24132 4.39079 5.48691L6.08751 7.26325Z" fill="#666666"/>
<path d="M15.0007 8.16528C11.0305 8.16528 7.80078 11.5465 7.80078 15.7028C7.80078 16.0501 8.06898 16.3309 8.40077 16.3309C8.73257 16.3309 9.00077 16.0501 9.00077 15.7028C9.00077 12.2393 11.6923 9.42153 15.0007 9.42153C15.3325 9.42153 15.6007 9.14076 15.6007 8.79341C15.6007 8.44605 15.3325 8.16528 15.0007 8.16528Z" fill="#666666"/>
</svg>
