<svg width="28" height="30" viewBox="0 0 28 30" fill="none" xmlns="http://www.w3.org/2000/svg">
<path d="M0.552398 22.2414C0.837915 22.2414 1.06964 22.0102 1.06964 21.7241C1.06964 20.8686 1.76585 20.1724 2.62136 20.1724C3.47688 20.1724 4.17309 20.8686 4.17309 21.7241C4.17309 22.0102 4.40481 22.2414 4.69033 22.2414C4.97585 22.2414 5.20757 22.0102 5.20757 21.7241C5.20757 20.2981 4.0474 19.1379 2.62136 19.1379C1.19533 19.1379 0.0351562 20.2981 0.0351562 21.7241C0.0351562 22.0102 0.26688 22.2414 0.552398 22.2414Z" fill="#666666"/>
<path d="M0.552398 19.1379C0.837915 19.1379 1.06964 18.9067 1.06964 18.6206C1.06964 17.7651 1.76585 17.0689 2.62136 17.0689C3.47688 17.0689 4.17309 17.7651 4.17309 18.6206C4.17309 18.9067 4.40481 19.1379 4.69033 19.1379C4.97585 19.1379 5.20757 18.9067 5.20757 18.6206C5.20757 17.1946 4.0474 16.0344 2.62136 16.0344C1.19533 16.0344 0.0351562 17.1946 0.0351562 18.6206C0.0351562 18.9067 0.26688 19.1379 0.552398 19.1379Z" fill="#666666"/>
<path d="M0.552398 16.0346C0.837915 16.0346 1.06964 15.8034 1.06964 15.5174C1.06964 14.6618 1.76585 13.9656 2.62136 13.9656C3.47688 13.9656 4.17309 14.6618 4.17309 15.5174C4.17309 15.8034 4.40481 16.0346 4.69033 16.0346C4.97585 16.0346 5.20757 15.8034 5.20757 15.5174C5.20757 14.0913 4.0474 12.9312 2.62136 12.9312C1.19533 12.9312 0.0351562 14.0913 0.0351562 15.5174C0.0351562 15.8034 0.26688 16.0346 0.552398 16.0346Z" fill="#666666"/>
<path d="M0.552398 12.9311C0.837915 12.9311 1.06964 12.6999 1.06964 12.4138C1.06964 11.5583 1.76585 10.8621 2.62136 10.8621C3.47688 10.8621 4.17309 11.5583 4.17309 12.4138C4.17309 12.6999 4.40481 12.9311 4.69033 12.9311C4.97585 12.9311 5.20757 12.6999 5.20757 12.4138C5.20757 10.9878 4.0474 9.82764 2.62136 9.82764C1.19533 9.82764 0.0351562 10.9878 0.0351562 12.4138C0.0351562 12.6999 0.26688 12.9311 0.552398 12.9311Z" fill="#666666"/>
<path d="M1.06964 9.31033C1.06964 8.45481 1.76585 7.7586 2.62136 7.7586C3.47688 7.7586 4.17309 8.45481 4.17309 9.31033C4.17309 9.59636 4.40481 9.82757 4.69033 9.82757C4.97585 9.82757 5.20757 9.59636 5.20757 9.31033C5.20757 7.88429 4.0474 6.72412 2.62136 6.72412C1.19533 6.72412 0.0351562 7.88429 0.0351562 9.31033C0.0351562 9.59636 0.26688 9.82757 0.552398 9.82757C0.837915 9.82757 1.06964 9.59636 1.06964 9.31033Z" fill="#666666"/>
<path d="M25.8988 0.00206897H24.8627H21.2421H8.82826V0H2.10412V3.67293C0.925329 3.91345 0.0351562 4.95776 0.0351562 6.2069C0.0351562 6.49293 0.26688 6.72414 0.552398 6.72414C0.837915 6.72414 1.06964 6.49293 1.06964 6.2069C1.06964 5.35138 1.76585 4.65517 2.62136 4.65517C3.47688 4.65517 4.17309 5.35138 4.17309 6.2069C4.17309 6.49293 4.40481 6.72414 4.69033 6.72414C4.97585 6.72414 5.20757 6.49293 5.20757 6.2069C5.20757 4.95776 4.3174 3.91345 3.1386 3.67293V1.03448H7.79378V28.9655H3.1386V26.8966V25.3448C3.1386 25.0588 2.90688 24.8276 2.62136 24.8276C2.33585 24.8276 2.10412 25.0588 2.10412 25.3448V26.2836C1.5036 26.0695 1.06964 25.501 1.06964 24.8276C1.06964 23.9721 1.76585 23.2759 2.62136 23.2759C3.47688 23.2759 4.17309 23.9721 4.17309 24.8276C4.17309 25.1136 4.40481 25.3448 4.69033 25.3448C4.97585 25.3448 5.20757 25.1136 5.20757 24.8276C5.20757 23.4016 4.0474 22.2414 2.62136 22.2414C1.19533 22.2414 0.0351562 23.4016 0.0351562 24.8276C0.0351562 26.0767 0.925329 27.121 2.10412 27.3615V30H7.79378H8.82826H21.2421H24.8627H25.8988C27.0388 30 27.9662 29.0726 27.9662 27.9331V2.06897C27.9662 0.929483 27.0388 0.00206897 25.8988 0.00206897ZM8.82826 28.9655V1.03655H21.2421V28.9655H8.82826ZM22.2765 28.9655V1.03655H23.8283V28.9655H22.2765ZM26.9317 27.9331C26.9317 28.5021 26.4683 28.9655 25.8988 28.9655H24.8627V1.03655H25.8988C26.4683 1.03655 26.9317 1.49948 26.9317 2.06897V27.9331Z" fill="#666666"/>
</svg>
