<svg width="29" height="30" viewBox="0 0 29 30" fill="none" xmlns="http://www.w3.org/2000/svg">
<path d="M28.4509 11.1622C28.2236 10.9349 27.8563 10.9349 27.6291 11.1622L11.7668 27.0244C10.5975 28.1937 9.0371 28.8371 7.37148 28.8371C5.70529 28.8371 4.14428 28.1937 2.97556 27.0244C1.80684 25.8551 1.16291 24.2947 1.16291 22.6285C1.16291 20.9629 1.80626 19.4019 2.97556 18.2332L18.8373 2.37031C20.5209 0.687255 23.164 0.790121 24.9854 2.61033C26.8062 4.43111 26.9096 7.07483 25.226 8.75846L10.325 23.6601C9.49215 24.4929 8.13571 24.4935 7.30116 23.6601C6.46777 22.8261 6.46777 21.4697 7.30116 20.6363L17.3954 10.5421C17.6226 10.3148 17.6226 9.94752 17.3954 9.72029C17.1682 9.49305 16.8009 9.49305 16.5736 9.72029L6.4794 19.8139C5.1927 21.1006 5.1927 23.194 6.4794 24.4813C7.76726 25.7691 9.86119 25.7668 11.1467 24.4813L26.0483 9.57964C28.2004 7.42701 28.097 4.07718 25.8077 1.78798C23.5191 -0.500645 20.1687 -0.604673 18.0161 1.54796L2.15321 17.4108C0.76423 18.7992 0 20.652 0 22.6285C0 24.6051 0.76423 26.4584 2.15321 27.8468C3.54161 29.2358 5.39436 30 7.37148 30C9.34744 30 11.2008 29.2358 12.5892 27.8468L28.4509 11.9839C28.6781 11.7567 28.6781 11.3888 28.4509 11.1622Z" fill="#666666"/>
</svg>
