<svg width="30" height="30" viewBox="0 0 30 30" fill="none" xmlns="http://www.w3.org/2000/svg">
<path d="M29.4815 7.43992L22.0821 0V4.4427C20.0923 4.45861 18.6412 4.90946 17.6882 5.35208H0.515625V29.9995H25.163V11.782L29.4815 7.43992ZM22.1976 5.46916C22.3224 5.46916 22.4503 5.47121 22.5797 5.47532L23.1086 5.49072V2.48939L28.0329 7.44044L25.1625 10.3257L24.6757 10.8151L23.1086 12.391V9.51441V9.5139L22.7157 9.4189C22.6546 9.40401 21.2046 9.0646 19.2682 9.54214C18.6772 9.68849 17.9999 9.92572 17.2856 10.3011C16.6099 10.6559 15.9007 11.1355 15.1978 11.7845C14.7326 12.2138 14.2694 12.7155 13.8216 13.305C13.8807 12.0033 14.2581 10.0325 15.7529 8.21118C16.0974 7.79115 16.5015 7.37933 16.975 6.98549C16.9755 6.98497 16.996 6.967 17.0304 6.93927C17.0355 6.93516 17.0402 6.93106 17.0463 6.92643C17.0602 6.91565 17.0787 6.90127 17.0967 6.88792C17.1105 6.87714 17.1244 6.86687 17.1408 6.85506C17.1567 6.84325 17.1762 6.82939 17.1947 6.81655C17.2214 6.79755 17.2492 6.77804 17.2805 6.75698C17.2949 6.74723 17.3108 6.73696 17.3267 6.72617C17.3709 6.69691 17.4191 6.66661 17.472 6.63426C17.4792 6.62964 17.4869 6.62553 17.4941 6.62091C18.2361 6.17264 19.7837 5.46916 22.1976 5.46916ZM24.1361 12.8146V28.973H1.5426V6.37957H16.1041C16.0687 6.41038 16.0368 6.4417 16.0024 6.47251C15.9413 6.52745 15.8812 6.58188 15.8227 6.63734C15.7585 6.69742 15.6959 6.75801 15.6342 6.8186C15.5778 6.87406 15.5223 6.93003 15.4684 6.986C15.4088 7.04762 15.3508 7.10924 15.2938 7.17086C15.2424 7.22683 15.1916 7.28279 15.1418 7.33877C15.0869 7.40141 15.0335 7.46406 14.9806 7.52722C14.9333 7.5837 14.8866 7.64018 14.8414 7.69667C14.7911 7.75983 14.7423 7.8235 14.694 7.88666C14.6509 7.94365 14.6083 8.00014 14.5672 8.05765C14.521 8.12132 14.4768 8.18499 14.4332 8.24866C14.3942 8.30566 14.3551 8.36317 14.3177 8.42017C14.2756 8.48436 14.2355 8.54854 14.1954 8.61273C14.1605 8.66921 14.1256 8.7257 14.0917 8.78269C14.0532 8.84791 14.0168 8.9126 13.9803 8.97782C13.949 9.03379 13.9182 9.08976 13.8884 9.14573C13.8535 9.21094 13.8206 9.27615 13.7877 9.34137C13.76 9.39631 13.7323 9.45177 13.7061 9.50671C13.6748 9.57244 13.645 9.63816 13.6157 9.70338C13.5916 9.7578 13.5669 9.81172 13.5438 9.86615C13.5161 9.93137 13.4899 9.99658 13.4637 10.0613C13.4422 10.1147 13.4206 10.1686 13.4006 10.222C13.3759 10.2872 13.3528 10.3519 13.3302 10.4166C13.3117 10.4685 13.2933 10.5203 13.2763 10.5722C13.2547 10.6374 13.2347 10.7016 13.2147 10.7663C13.1988 10.8171 13.1829 10.868 13.1685 10.9183C13.15 10.9825 13.1325 11.0456 13.1156 11.1088C13.1022 11.1581 13.0889 11.2074 13.0766 11.2567C13.0606 11.3209 13.0457 11.3835 13.0314 11.4467C13.0206 11.4934 13.0093 11.5401 12.9995 11.5863C12.9857 11.65 12.9739 11.7121 12.9615 11.7748C12.9528 11.8195 12.9436 11.8641 12.9359 11.9083C12.9246 11.9709 12.9148 12.0326 12.9045 12.0942C12.8979 12.1363 12.8907 12.1784 12.8845 12.22C12.8753 12.2816 12.8676 12.3417 12.8599 12.4018C12.8547 12.4418 12.8491 12.4819 12.8445 12.5214C12.8373 12.5815 12.8316 12.64 12.826 12.6985C12.8224 12.7355 12.8183 12.773 12.8152 12.8095C12.8101 12.868 12.8065 12.9245 12.8024 12.9815C12.7998 13.0164 12.7972 13.0513 12.7952 13.0852C12.7921 13.1417 12.7895 13.1961 12.7875 13.2511C12.7864 13.2829 12.7844 13.3152 12.7834 13.3466C12.7818 13.4015 12.7808 13.4544 12.7803 13.5073C12.7798 13.5355 12.7792 13.5643 12.7787 13.592C12.7782 13.6454 12.7787 13.6968 12.7792 13.7476C12.7792 13.7723 12.7792 13.7979 12.7798 13.8215C12.7808 13.8708 12.7823 13.9176 12.7839 13.9643C12.7844 13.9874 12.7849 14.0121 12.7859 14.0346C12.788 14.0809 12.7905 14.1245 12.7926 14.1676C12.7936 14.1877 12.7947 14.2087 12.7957 14.2277C12.7982 14.2714 12.8013 14.3114 12.8049 14.3515C12.806 14.3679 12.8075 14.3859 12.8085 14.4013C12.8121 14.4424 12.8157 14.4804 12.8193 14.5173C12.8203 14.5291 12.8214 14.5425 12.8229 14.5543C12.827 14.5918 12.8306 14.6257 12.8347 14.6585C12.8357 14.6673 12.8368 14.6775 12.8378 14.6857C12.8424 14.7222 12.8465 14.7546 12.8506 14.7843C12.8511 14.7874 12.8517 14.791 12.8517 14.7941C12.8604 14.8542 12.8676 14.8988 12.8732 14.9297C12.8737 14.9322 12.8742 14.9363 12.8748 14.9389C12.8773 14.9543 12.8794 14.9651 12.8809 14.9712L13.1377 16.2924L13.8263 15.1361C16.1087 11.3019 19.0181 10.4443 20.8148 10.3226C21.3514 10.2867 21.7899 10.3155 22.0816 10.3509V14.8783V14.8788L24.1361 12.8146Z" fill="#666666"/>
</svg>
