<svg width="30" height="28" viewBox="0 0 30 28" fill="none" xmlns="http://www.w3.org/2000/svg">
<path d="M29.993 9.0841C29.9965 9.06359 29.9985 9.04359 29.9995 9.02258C30.0005 8.99808 30 8.97457 29.998 8.95007C29.996 8.92906 29.993 8.90906 29.988 8.88855C29.9825 8.86455 29.9749 8.84154 29.9659 8.81853C29.9614 8.80653 29.9604 8.79403 29.9549 8.78253C29.9509 8.77403 29.9439 8.76752 29.9394 8.75902C29.9349 8.75052 29.9329 8.74152 29.9279 8.73302L24.9268 0.731148C24.9038 0.69464 24.8768 0.661632 24.8463 0.632626C24.8458 0.632125 24.8453 0.632125 24.8448 0.631625C24.8017 0.591116 24.7507 0.562109 24.6962 0.539104C24.6892 0.536103 24.6847 0.530102 24.6772 0.527101C24.6717 0.5251 24.6657 0.526101 24.6602 0.5246C24.6097 0.507596 24.5577 0.496094 24.5032 0.496094H5.49874C5.44473 0.496094 5.39321 0.507596 5.3437 0.5241C5.3382 0.525601 5.3327 0.5246 5.3277 0.526601C5.3202 0.529101 5.3157 0.535103 5.30869 0.538103C5.25668 0.559609 5.20767 0.587615 5.16516 0.625624C5.16266 0.628124 5.15916 0.629625 5.15666 0.631625C5.12565 0.660632 5.09814 0.69414 5.07514 0.730648L0.0739722 8.73252C0.0689711 8.74052 0.0669706 8.75002 0.0624695 8.75852C0.0579685 8.76702 0.0509669 8.77353 0.0469659 8.78203C0.0414646 8.79353 0.0404644 8.80603 0.0354632 8.81804C0.0264611 8.84104 0.0189594 8.86405 0.0134581 8.88805C0.00895706 8.90856 0.00545625 8.92906 0.00345578 8.95007C-4.50383e-05 8.97457 -0.000545155 8.99858 0.000455078 9.02258C0.00145531 9.04359 0.00345578 9.06359 0.0069566 9.0841C0.0109575 9.1081 0.017459 9.13161 0.0254609 9.15511C0.0319624 9.17462 0.0389641 9.19362 0.0479662 9.21263C0.0524672 9.22163 0.0539676 9.23163 0.0589687 9.24063C0.0669706 9.25514 0.0789734 9.26614 0.0879755 9.27964C0.0949771 9.29015 0.0989781 9.30165 0.10748 9.31165L14.6054 27.3088C14.6064 27.3104 14.6074 27.3113 14.6084 27.3124L14.6109 27.3159C14.6124 27.3179 14.6149 27.3184 14.6164 27.3204C14.6574 27.3699 14.7084 27.4074 14.7639 27.4374C14.7789 27.4454 14.7929 27.4524 14.8084 27.4589C14.8689 27.4844 14.9329 27.5024 15 27.5024C15.057 27.5024 15.1145 27.4924 15.1715 27.4719C15.18 27.4689 15.1855 27.4619 15.194 27.4584C15.2195 27.4479 15.2395 27.4309 15.2625 27.4164C15.3005 27.3924 15.336 27.3674 15.3655 27.3349C15.3725 27.3274 15.383 27.3239 15.3895 27.3159L29.8929 9.31165C29.9009 9.30165 29.9049 9.28965 29.9124 9.27964C29.9219 9.26614 29.9334 9.25514 29.9414 9.24063C29.9464 9.23163 29.9479 9.22163 29.9524 9.21263C29.9614 9.19362 29.9684 9.17512 29.9749 9.15511C29.982 9.13161 29.989 9.1086 29.993 9.0841ZM16.0512 1.49683H23.7825L21.3519 8.02085L16.0512 1.49683ZM20.4507 8.49846H9.54968L15 1.7904L20.4507 8.49846ZM8.61297 8.06436L6.21291 1.49683H13.9492L8.61297 8.06436ZM20.8013 9.49869L14.9124 25.3054L9.13659 9.49869H20.8013ZM24.6162 2.12347L28.6006 8.49896H22.2411L24.6162 2.12347ZM5.37921 2.12997L7.70625 8.49846H1.39928L5.37921 2.12997ZM8.07184 9.49869L13.4926 24.3342L1.54181 9.49869H8.07184ZM16.1987 24.7172L21.8686 9.49869H28.4581L16.1987 24.7172Z" fill="#666666"/>
</svg>
