<svg width="32" height="30" viewBox="0 0 32 30" fill="none" xmlns="http://www.w3.org/2000/svg">
<path d="M29.0903 23.394L24.0388 20.7889C23.5624 20.5429 23.2663 20.0487 23.2663 19.4989V17.6547C23.3874 17.502 23.5148 17.328 23.6465 17.136C24.3016 16.1815 24.8267 15.1189 25.2085 13.9729C25.9546 13.62 26.439 12.8591 26.439 12V9.81818C26.439 9.29291 26.2486 8.784 25.9102 8.38636V5.48509C25.9398 5.18509 26.0561 3.39927 24.804 1.926C23.7179 0.648 21.9554 0 19.5648 0C17.1742 0 15.4118 0.648 14.3257 1.92545C13.5669 2.81836 13.3115 3.82418 13.2343 4.54636C12.328 4.06309 11.2598 3.81818 10.0468 3.81818C4.55332 3.81818 4.23341 8.64818 4.23023 8.72727V11.2249C3.88758 11.61 3.70145 12.0545 3.70145 12.4958V14.3798C3.70145 14.9684 3.95685 15.5171 4.39468 15.888C4.83093 17.5844 5.90382 18.8662 6.32155 19.3162V20.8124C6.32155 21.2416 6.09524 21.6355 5.70235 21.8569L2.18439 24.1331C0.837057 24.8913 0 26.346 0 27.9289V30H7.40291H8.46047H31.7267V27.7947C31.7267 25.9195 30.7163 24.2329 29.0903 23.394ZM7.40291 27.6884V28.9091H1.05756V27.9289C1.05756 26.7453 1.68363 25.6576 2.71845 25.0745L6.23589 22.7984C6.94076 22.4018 7.37858 21.6415 7.37858 20.8124V18.8536L7.21043 18.6916C7.19668 18.6785 5.79172 17.3095 5.37663 15.4435L5.32851 15.2275L5.14767 15.1075C4.90443 14.9449 4.75901 14.6727 4.75901 14.3798V12.4958C4.75901 12.2995 4.88856 12.066 5.11382 11.8555L5.28779 11.6935L5.28673 8.75891C5.29625 8.60236 5.57175 4.90909 10.0468 4.90909C11.3122 4.90909 12.3777 5.21073 13.2195 5.80582V8.38636C12.8811 8.784 12.6907 9.29291 12.6907 9.81818V12C12.6907 12.1658 12.7092 12.3289 12.7441 12.4871C12.7584 12.5504 12.7869 12.6082 12.8065 12.6693C12.8356 12.7609 12.8589 12.8553 12.8996 12.942C12.9001 12.9431 12.9006 12.9436 12.9012 12.9447C13.0365 13.2327 13.2338 13.4902 13.4823 13.6958C13.4849 13.7062 13.4881 13.7155 13.4907 13.7253C13.5225 13.8502 13.5558 13.9745 13.5917 14.0962L13.6346 14.2385C13.642 14.2636 13.651 14.2893 13.6589 14.3144C13.6774 14.3733 13.6954 14.4316 13.7144 14.4895C13.7461 14.5849 13.7795 14.6836 13.8181 14.7911C13.8344 14.8358 13.8524 14.8762 13.8693 14.9204C13.9127 15.0344 13.9561 15.1445 14.0015 15.2536C14.0126 15.2798 14.0222 15.3082 14.0333 15.3338L14.0629 15.4025C14.0766 15.4342 14.0909 15.4625 14.1047 15.4936C14.1565 15.6104 14.2072 15.7233 14.2601 15.8324C14.2686 15.8498 14.2765 15.8689 14.285 15.8864C14.3183 15.9545 14.3516 16.0189 14.3849 16.0844C14.442 16.1967 14.4981 16.3025 14.5541 16.4051C14.5816 16.4553 14.6086 16.5044 14.6355 16.5518C14.7117 16.686 14.7841 16.8093 14.8545 16.9238C14.8698 16.9484 14.8846 16.974 14.8994 16.9975C15.0274 17.202 15.1384 17.3678 15.2304 17.4971C15.2547 17.5315 15.2759 17.5609 15.2965 17.5898C15.3082 17.6056 15.324 17.6285 15.3341 17.6427V19.4476C15.3341 19.9756 15.0549 20.46 14.6059 20.7131L13.2068 21.5002L12.963 21.4778L12.8636 21.6933L9.8887 23.3673C8.35524 24.2313 7.40291 25.8862 7.40291 27.6884ZM30.6692 28.9091H8.46047V27.6884C8.46047 26.286 9.20181 24.9971 10.3953 24.3262L15.1125 21.672C15.902 21.2275 16.3922 20.3749 16.3922 19.4482V17.2565V17.256L16.2896 17.1295L16.2695 17.1049C16.2684 17.1033 16.2356 17.0624 16.1822 16.9904C16.1791 16.986 16.1759 16.9816 16.1722 16.9773C16.1442 16.9396 16.1114 16.8944 16.0738 16.8404C16.0733 16.8393 16.0728 16.8387 16.0722 16.8376C15.9935 16.7247 15.8946 16.578 15.7846 16.4013C15.7819 16.3975 15.7798 16.3931 15.7772 16.3893C15.7254 16.3058 15.6704 16.2147 15.6143 16.1182C15.6101 16.1111 15.6059 16.104 15.6016 16.0964C15.4821 15.8896 15.3552 15.6556 15.2288 15.3965C15.2288 15.3965 15.2283 15.396 15.2283 15.3955C15.1612 15.2564 15.094 15.1102 15.0284 14.958C15.0194 14.9367 15.0099 14.916 15.0009 14.8947C14.9719 14.8265 14.9428 14.7551 14.9132 14.6815C14.9026 14.6547 14.892 14.6269 14.8814 14.5996C14.8539 14.5282 14.8259 14.4562 14.7963 14.3738C14.7424 14.2255 14.6916 14.0705 14.643 13.9107L14.6139 13.8136C14.6107 13.8027 14.607 13.7918 14.6038 13.7804C14.5541 13.608 14.5065 13.4318 14.4663 13.2507L14.4182 13.0347L14.2379 12.9147C13.9312 12.7107 13.7483 12.3687 13.7483 12V9.81818C13.7483 9.51218 13.8741 9.22691 14.1025 9.01364L14.277 8.85164V5.45455V5.26145L14.2628 5.25C14.2448 4.85618 14.2675 3.64909 15.121 2.64491C15.9972 1.61345 17.4925 1.09091 19.5648 1.09091C21.6297 1.09091 23.1219 1.60964 23.9992 2.63345C25.0287 3.834 24.8584 5.37 24.8574 5.38309L24.8526 8.85164L25.0271 9.01418C25.2556 9.22691 25.3814 9.51218 25.3814 9.81818V12C25.3814 12.4762 25.0789 12.8929 24.6295 13.0358L24.3661 13.1193L24.2815 13.3893C23.9278 14.5244 23.4239 15.5727 22.783 16.5055C22.6259 16.7351 22.4731 16.9385 22.3404 17.094L22.2087 17.2489V19.4989C22.2087 20.4644 22.7285 21.3322 23.5656 21.7642L28.617 24.3693C29.8829 25.0222 30.6692 26.3345 30.6692 27.7947V28.9091Z" fill="#666666"/>
</svg>
