<svg width="30" height="30" viewBox="0 0 30 30" fill="none" xmlns="http://www.w3.org/2000/svg">
<path d="M25.9682 4.75158L27.0099 3.70989C27.2124 3.50746 27.2124 3.18025 27.0099 2.97781C26.8075 2.77538 26.4803 2.77538 26.2778 2.97781L25.2371 4.01846C20.073 -0.799071 12.1274 -1.34942 6.35802 2.71636C5.34269 1.80876 3.7832 1.83258 2.80877 2.80748C1.83434 3.78186 1.81001 5.34179 2.71764 6.35656C-1.44774 12.266 -0.771027 20.4612 4.37759 25.6096C7.30449 28.5364 11.1499 30 14.9948 30C18.8397 30 22.6851 28.5364 25.612 25.6096C31.3426 19.8783 31.4591 10.6305 25.9682 4.75158ZM3.54088 3.53956C3.83394 3.246 4.22381 3.08498 4.63905 3.08498C5.0543 3.08498 5.44417 3.24652 5.73723 3.53956C5.77865 3.58097 5.81023 3.62757 5.84596 3.67261L5.87599 3.71248C6.0484 3.94235 6.14781 4.20847 6.1768 4.47925C6.1768 4.47925 6.1768 4.48132 6.17732 4.48235C6.18664 4.56933 6.18768 4.65683 6.18198 4.74433C6.18146 4.75261 6.18043 4.76038 6.17991 4.76866C6.17266 4.84891 6.16024 4.92864 6.1416 5.00682C6.13694 5.02546 6.13072 5.04358 6.12503 5.06222C6.10639 5.13056 6.08413 5.19786 6.05617 5.26362C6.04063 5.29882 6.02044 5.33247 6.00232 5.36613C5.97695 5.41428 5.95365 5.46294 5.9231 5.50851C5.86874 5.58875 5.80816 5.66538 5.73723 5.73631C5.66474 5.80879 5.58552 5.87196 5.50164 5.92632C5.49543 5.93046 5.4887 5.93305 5.48301 5.93667C5.14905 6.14636 4.7395 6.2178 4.35377 6.14998C4.34341 6.14791 4.33254 6.14584 4.32219 6.14377C4.25229 6.12979 4.18394 6.10804 4.11612 6.08526C4.0747 6.07025 4.03327 6.05627 3.99341 6.03763C3.96389 6.02469 3.93645 6.00864 3.90798 5.99414C3.84119 5.95842 3.77543 5.92114 3.7133 5.87506L3.70501 5.86885C3.64858 5.82691 3.59111 5.78705 3.54088 5.73631C2.9351 5.13056 2.9351 4.14531 3.54088 3.53956ZM24.8794 24.8775C19.4289 30.3277 10.5602 30.3277 5.10918 24.8775C0.323001 20.0911 -0.315397 12.4746 3.54399 6.97525C3.65376 7.02651 3.76715 7.06689 3.88312 7.1021C3.9028 7.10779 3.92247 7.11452 3.94215 7.1197C4.05399 7.15128 4.16738 7.17561 4.28387 7.19166C4.30458 7.19425 4.32529 7.19529 4.346 7.19788C4.44334 7.20875 4.53964 7.22635 4.63905 7.22635C4.88862 7.22635 5.12937 7.17976 5.36237 7.11142C5.41104 7.09744 5.45919 7.08449 5.50682 7.06793C5.58759 7.03893 5.66629 7.00683 5.74344 6.97007C5.81334 6.93746 5.88064 6.89966 5.94795 6.86083C6.00543 6.82718 6.06341 6.7956 6.1183 6.75728C6.24152 6.67186 6.36061 6.57763 6.46934 6.46839C6.58169 6.35604 6.678 6.23334 6.7655 6.10545C6.79864 6.05731 6.82608 6.00708 6.85559 5.95738C6.90219 5.87869 6.94464 5.79895 6.98244 5.71612C7.01299 5.64933 7.04146 5.58306 7.0658 5.51472C7.08858 5.45104 7.10567 5.3858 7.12327 5.32057C7.2087 5.00734 7.23407 4.68427 7.1999 4.36276C7.19679 4.33428 7.19576 4.30632 7.19162 4.27785C7.1766 4.17016 7.1533 4.06558 7.12482 3.96047C7.11654 3.92941 7.10722 3.89835 7.09738 3.86676C7.06425 3.75959 7.02645 3.65501 6.97882 3.5525C6.97726 3.54939 6.97674 3.54629 6.97571 3.5437C12.335 -0.216619 19.6955 0.304224 24.4972 4.75882L22.6649 6.59161C18.2008 2.51444 11.2581 2.62161 6.9405 6.93901C2.49915 11.3801 2.49915 18.6057 6.9405 23.0468C9.16118 25.2674 12.0782 26.3779 14.9953 26.3779C17.9124 26.3779 20.8294 25.2674 23.0501 23.0468C24.8421 21.2554 25.9734 18.9003 26.282 16.383C26.7071 16.2696 27.1109 16.0579 27.4433 15.725C28.4519 14.7159 28.4519 13.0731 27.4433 12.0641C26.9784 11.5992 26.3788 11.3589 25.7689 11.3222C25.2661 9.84144 24.4584 8.47202 23.4043 7.31644L25.2371 5.48365C30.3236 10.9587 30.2071 19.55 24.8794 24.8775ZM25.612 12.3421C26.0096 12.3421 26.4073 12.4938 26.7102 12.7962C27.3154 13.4019 27.3154 14.3872 26.7102 14.9929C26.4849 15.2176 26.2074 15.3579 25.9164 15.4159L25.7658 15.4309C25.5348 15.4537 25.307 15.4257 25.0968 15.3538C25.0916 15.3522 25.0865 15.3512 25.0813 15.3491C24.9865 15.316 24.897 15.2709 24.811 15.2197C24.7996 15.2124 24.7867 15.2083 24.7753 15.201C24.6816 15.142 24.5936 15.0726 24.5138 14.9929C23.908 14.3872 23.908 13.4019 24.5138 12.7962C24.8271 12.4834 25.1962 12.3856 25.4515 12.3587L25.6027 12.3431C25.6047 12.3431 25.6084 12.3421 25.612 12.3421ZM24.7116 11.4744C24.5682 11.5277 24.4299 11.596 24.2958 11.6758C24.2679 11.6918 24.2379 11.7032 24.2104 11.7203C24.0587 11.8182 23.9137 11.931 23.7807 12.0641C22.7716 13.0731 22.7716 14.7159 23.7807 15.725C23.8935 15.8379 24.0173 15.9352 24.1462 16.0232C24.1964 16.0579 24.2492 16.0858 24.301 16.1164C24.3792 16.162 24.4584 16.2054 24.5407 16.2422C24.6112 16.2743 24.6816 16.3017 24.7541 16.3271C24.8172 16.3489 24.8809 16.367 24.9456 16.3835C25.0352 16.4074 25.1243 16.4296 25.2154 16.4436C25.2231 16.4446 25.2304 16.4477 25.2376 16.4488C24.9249 18.6652 23.8992 20.731 22.3159 22.3142C18.2779 26.352 11.7091 26.352 7.67106 22.3142C3.63356 18.2769 3.63356 11.7079 7.67106 7.67057C9.68981 5.65192 12.3418 4.64285 14.9938 4.64285C17.4831 4.64285 19.9663 5.54423 21.9317 7.32317L19.7354 9.51941C18.4198 8.37728 16.7578 7.74823 14.9938 7.74823C13.0553 7.74823 11.2348 8.50102 9.86844 9.86784C8.50207 11.2347 7.74873 13.0545 7.74873 14.9929C7.74873 16.9313 8.50155 18.7517 9.86844 20.118C11.2353 21.4843 13.0553 22.2376 14.9938 22.2376C16.9322 22.2376 18.7527 21.4848 20.1191 20.118C21.4854 18.7512 22.2388 16.9313 22.2388 14.9929C22.2388 13.229 21.6097 11.5671 20.4675 10.2515L22.6623 8.0568C23.5606 9.05085 24.272 10.2075 24.7266 11.4666C24.7214 11.4687 24.7168 11.4723 24.7116 11.4744ZM14.6282 15.3589C14.7292 15.4599 14.8617 15.5106 14.9943 15.5106C15.1268 15.5106 15.2594 15.4599 15.3603 15.3589L19.7359 10.9836C20.6839 12.1019 21.2038 13.5055 21.2038 14.9929C21.2038 16.6548 20.5586 18.2153 19.3875 19.3859C18.2163 20.5565 16.6563 21.2021 14.9943 21.2021C13.3323 21.2021 11.7717 20.557 10.6011 19.3859C9.43041 18.2148 8.78476 16.6548 8.78476 14.9929C8.78476 13.331 9.42989 11.7705 10.6011 10.5999C11.7722 9.42932 13.3323 8.7837 14.9943 8.7837C16.4818 8.7837 17.8854 9.30351 19.0038 10.2515L14.6282 14.6269C14.4258 14.8293 14.4258 15.1565 14.6282 15.3589Z" fill="#666666"/>
</svg>
