<svg width="32" height="36" viewBox="0 0 32 36" fill="none" xmlns="http://www.w3.org/2000/svg">
<path d="M10.8945 12.3718L16.3645 6.36816L18.6168 12.3881" stroke="#666666" stroke-miterlimit="10" stroke-linecap="round" stroke-linejoin="round"/>
<path d="M18.5419 20.9517L15.3461 24.4443L13.0938 18.4189" stroke="#666666" stroke-miterlimit="10" stroke-linecap="round" stroke-linejoin="round"/>
<path d="M20.8662 18.4189L18.543 20.9517" stroke="#666666" stroke-miterlimit="10"/>
<path d="M18.6075 12.3882H22.534L24.7864 18.419H17.0096L14.7573 12.3882H6.98047L9.23279 18.419H13.0939" stroke="#666666" stroke-miterlimit="10" stroke-linecap="round" stroke-linejoin="round"/>
<path d="M18.6143 12.3882L13.0898 18.419" stroke="#666666" stroke-miterlimit="10"/>
<path d="M16 0C7.17748 0 0 7.17748 0 16C0 24.3609 6.448 31.2409 14.6317 31.9378L12.0255 34.544C11.7938 34.7757 11.7938 35.1502 12.0255 35.3819C12.141 35.4975 12.2927 35.5556 12.4444 35.5556C12.5961 35.5556 12.7479 35.4975 12.8634 35.3819L16.4184 31.827C16.4735 31.7724 16.5167 31.7067 16.547 31.6338C16.6068 31.4892 16.6068 31.3256 16.547 31.181C16.5167 31.1081 16.4735 31.043 16.4184 30.9879L12.8634 27.4329C12.6317 27.2012 12.2572 27.2012 12.0255 27.4329C11.7938 27.6646 11.7938 28.0391 12.0255 28.2708L14.493 30.7384C7.02933 29.981 1.18519 23.6604 1.18519 16C1.18519 7.83111 7.83111 1.18519 16 1.18519C24.1689 1.18519 30.8148 7.83111 30.8148 16C30.8148 19.9307 29.2919 23.6332 26.5256 26.4255C26.2951 26.6584 26.2969 27.0335 26.5298 27.264C26.7621 27.4933 27.1372 27.4921 27.3677 27.2599C30.355 24.2436 32 20.2447 32 16C32 7.17748 24.8225 0 16 0Z" fill="#666666"/>
</svg>
