<svg width="25" height="30" viewBox="0 0 25 30" fill="none" xmlns="http://www.w3.org/2000/svg">
<path d="M7.29681 8.375H11.058C11.2891 8.375 11.4759 8.17944 11.4759 7.9375C11.4759 7.69556 11.2891 7.5 11.058 7.5H7.29681C7.06571 7.5 6.87891 7.69556 6.87891 7.9375C6.87891 8.17944 7.06571 8.375 7.29681 8.375Z" fill="#666666"/>
<path d="M7.29681 11.875H9.38634C9.61744 11.875 9.80424 11.6794 9.80424 11.4375C9.80424 11.1956 9.61744 11 9.38634 11H7.29681C7.06571 11 6.87891 11.1956 6.87891 11.4375C6.87891 11.6794 7.06571 11.875 7.29681 11.875Z" fill="#666666"/>
<path d="M16.4916 11H13.5663C13.3352 11 13.1484 11.1956 13.1484 11.4375C13.1484 11.6794 13.3352 11.875 13.5663 11.875H16.4916C16.7227 11.875 16.9095 11.6794 16.9095 11.4375C16.9095 11.1956 16.7227 11 16.4916 11Z" fill="#666666"/>
<path d="M11.1799 11.127C11.1004 11.2097 11.0586 11.3191 11.0586 11.4376C11.0586 11.5558 11.1042 11.6651 11.1799 11.7483C11.2589 11.827 11.3635 11.8751 11.4768 11.8751C11.5897 11.8751 11.6943 11.8309 11.7738 11.7483C11.849 11.6651 11.895 11.5514 11.895 11.4376C11.895 11.3235 11.849 11.2097 11.7738 11.127C11.6148 10.9651 11.3388 10.9651 11.1799 11.127Z" fill="#666666"/>
<path d="M18.8792 11.127C18.7245 10.9651 18.4443 10.9651 18.2853 11.127C18.2059 11.2097 18.1641 11.3191 18.1641 11.4376C18.1641 11.5558 18.2096 11.6651 18.2853 11.7483C18.3644 11.827 18.4689 11.8751 18.5823 11.8751C18.6952 11.8751 18.7998 11.827 18.8792 11.7483C18.9545 11.6651 19.0005 11.5514 19.0005 11.4376C19.0005 11.3235 18.9545 11.2097 18.8792 11.127Z" fill="#666666"/>
<path d="M12.312 14.5H9.38665C9.15555 14.5 8.96875 14.6956 8.96875 14.9375C8.96875 15.1794 9.15555 15.375 9.38665 15.375H12.312C12.543 15.375 12.7299 15.1794 12.7299 14.9375C12.7299 14.6956 12.543 14.5 12.312 14.5Z" fill="#666666"/>
<path d="M7.2971 15.3752C7.41001 15.3752 7.51456 15.327 7.59402 15.2483C7.6693 15.1651 7.7153 15.0514 7.7153 14.9376C7.7153 14.8235 7.6693 14.7097 7.59402 14.627C7.43929 14.4651 7.15492 14.4651 7.00018 14.627C6.92449 14.7097 6.87891 14.8191 6.87891 14.9376C6.87891 15.0558 6.92449 15.1651 7.00018 15.2483C7.07922 15.327 7.18377 15.3752 7.2971 15.3752Z" fill="#666666"/>
<path d="M8.61266 18.5106C7.69744 19.0094 7.38944 19.9636 7.27703 20.9528C7.10401 20.8009 6.931 20.6496 6.75799 20.4978C6.34844 20.1386 5.75418 20.7541 6.16707 21.1168C6.55781 21.4594 6.94897 21.8024 7.33971 22.1454C7.6147 22.3864 8.04054 22.2342 8.05308 21.8361C8.08359 20.8884 8.12621 19.7614 9.03432 19.2666C9.51157 19.0063 9.08949 18.2508 8.61266 18.5106Z" fill="#666666"/>
<path d="M11.3904 20.2557C10.8116 20.3962 10.153 21.167 9.74556 20.3021C9.50778 19.7972 8.78649 20.24 9.02385 20.7435C9.23991 21.2025 9.6507 21.524 10.1392 21.5888C10.3875 21.6216 10.6119 21.5849 10.8446 21.4899C11.0156 21.4204 11.6541 20.9177 11.792 21.1762C12.0545 21.668 12.7766 21.227 12.5137 20.7348C12.2893 20.3139 11.8351 20.1477 11.3904 20.2557Z" fill="#666666"/>
<rect x="0.5" y="0.5" width="23.375" height="29" stroke="#666666"/>
</svg>
