<svg width="25" height="30" viewBox="0 0 25 30" fill="none" xmlns="http://www.w3.org/2000/svg">
<path d="M21.1111 11.1739V8.05556C21.1111 3.61389 17.1233 0 12.2222 0C7.32111 0 3.33333 3.61389 3.33333 8.05556V11.1739C1.44389 11.4994 0 13.1461 0 15.1278V25.9844C0 28.1983 1.80167 30 4.01611 30H20.4283C22.6428 30 24.4444 28.1983 24.4444 25.9839V15.1272C24.4444 13.1461 23.0006 11.4994 21.1111 11.1739ZM4.44444 8.05556C4.44444 4.22611 7.93333 1.11111 12.2222 1.11111C16.5111 1.11111 20 4.22611 20 8.05556V11.1111H4.44444V8.05556ZM23.3333 25.9839C23.3333 27.5856 22.03 28.8889 20.4283 28.8889H4.01611C2.41444 28.8889 1.11111 27.5856 1.11111 25.9839V15.1272C1.11111 13.5256 2.41444 12.2222 4.01611 12.2222H20.4283C22.03 12.2222 23.3333 13.5256 23.3333 15.1272V25.9839Z" fill="#666666"/>
<path d="M12.2222 15.5557C10.9967 15.5557 10 16.5523 10 17.7779V21.1112C10 22.3368 10.9967 23.3334 12.2222 23.3334C13.4478 23.3334 14.4444 22.3368 14.4444 21.1112V17.7779C14.4444 16.5523 13.4478 15.5557 12.2222 15.5557ZM13.3333 21.1112C13.3333 21.724 12.835 22.2223 12.2222 22.2223C11.6094 22.2223 11.1111 21.724 11.1111 21.1112V17.7779C11.1111 17.1651 11.6094 16.6668 12.2222 16.6668C12.835 16.6668 13.3333 17.1651 13.3333 17.7779V21.1112Z" fill="#666666"/>
</svg>
