<svg width="34" height="14" viewBox="0 0 34 14" fill="none" xmlns="http://www.w3.org/2000/svg">
<path d="M32.8754 5.83333H31.6607C31.1308 2.52817 28.401 0 25.1146 0C21.8705 0 19.1547 2.40275 18.5256 5.58775C17.9845 5.11292 17.3671 4.86092 16.7163 4.86092C16.066 4.86092 15.4492 5.11292 14.9082 5.58717C14.2863 2.40217 11.6039 0 8.39827 0C4.87893 0 1.98645 2.82975 1.70005 6.41667H0.55721C0.249073 6.41667 0 6.678 0 7C0 7.322 0.249073 7.58333 0.55721 7.58333H1.70005C1.98645 11.1702 4.87893 14 8.39827 14C12.0018 14 14.9377 10.9626 15.0352 7.19192C15.5105 6.44233 16.1023 6.02758 16.7163 6.02758C17.3304 6.02758 17.9221 6.44292 18.3974 7.19192C18.4966 10.9626 21.4682 14 25.1146 14C28.7794 14 31.761 10.8599 31.761 7H32.8754C33.1835 7 33.4326 6.73867 33.4326 6.41667C33.4326 6.09467 33.1835 5.83333 32.8754 5.83333ZM8.39827 12.8333C5.30408 12.8333 2.78605 10.2165 2.78605 7C2.78605 3.7835 5.30408 1.16667 8.39827 1.16667C11.5008 1.16667 13.9303 3.72925 13.9303 7C13.9303 10.2708 11.5008 12.8333 8.39827 12.8333ZM25.1146 12.8333C22.0204 12.8333 19.5024 10.2165 19.5024 7C19.5024 3.7835 22.0204 1.16667 25.1146 1.16667C28.2171 1.16667 30.6466 3.72925 30.6466 7C30.6466 10.2708 28.2171 12.8333 25.1146 12.8333Z" fill="#666666"/>
</svg>
