<svg xmlns="http://www.w3.org/2000/svg" width="81" height="81" viewBox="0 0 81 81"><g transform="translate(-20695 -12930.257)"><circle cx="40.5" cy="40.5" r="40.5" transform="translate(20695 12930.257)" fill="none" opacity="0"/><path d="M20.125,0,5.1,13.961l5.527,5.133,9.5-8.821L29.632,19.1l5.524-5.136Z" transform="translate(20715.379 12948.036)" fill="#e1ebff"/><path d="M0,14.631l5.527,5.135,5.527-5.135L5.527,9.5Z" transform="translate(20711.039 12956.125)" fill="#e1ebff"/><path d="M20.129,23.056l-9.5-8.825L5.091,19.36l.009.006,15.029,13.96L35.16,19.36l.006,0-5.529-5.129Z" transform="translate(20715.375 12960.153)" fill="#e1ebff"/><path d="M20.449,14.633,25.977,9.5,31.5,14.633l-5.527,5.135Z" transform="translate(20728.455 12956.125)" fill="#e1ebff"/><path d="M21.4,14.666,15.794,9.455l-4.146,3.85-.478.443-.981.911-.009.007.009.011,5.605,5.2L21.4,14.67l0,0Z" transform="translate(20719.709 12956.09)" fill="#e1ebff"/></g></svg>