<svg xmlns="http://www.w3.org/2000/svg" width="81" height="81" viewBox="0 0 81 81"><g transform="translate(-21045 -12930.257)"><circle cx="40.5" cy="40.5" r="40.5" transform="translate(21045 12930.257)" fill="none" opacity="0"/><path d="M15.311,23.375a3.146,3.146,0,0,1-.535-.139l.216-.892a2.094,2.094,0,0,0,.714.128.844.844,0,0,0,.624-.217,2.011,2.011,0,0,0,.445-.777l.267-.7-2.788-6.418H15.54l2.075,5.17,1.9-5.17h1.222l-2.878,7.207a7.418,7.418,0,0,1-.356.777,2.818,2.818,0,0,1-.394.586,1.314,1.314,0,0,1-.522.356,1.829,1.829,0,0,1-.726.128A3.452,3.452,0,0,1,15.311,23.375Zm39.325-2.343a2.963,2.963,0,0,1-.9-.356,1.985,1.985,0,0,1-.637-.662,2.2,2.2,0,0,1-.28-.993h1.069a1.315,1.315,0,0,0,.573.967,2.584,2.584,0,0,0,1.273.267,1.914,1.914,0,0,0,1.184-.28.942.942,0,0,0,.356-.764,1.193,1.193,0,0,0-.051-.356.6.6,0,0,0-.166-.306,1.049,1.049,0,0,0-.356-.242,2.593,2.593,0,0,0-.6-.166l-.841-.127a6.168,6.168,0,0,1-.98-.229,2.563,2.563,0,0,1-.713-.356,1.528,1.528,0,0,1-.445-.547,2.018,2.018,0,0,1-.14-.789,1.7,1.7,0,0,1,.191-.815,1.842,1.842,0,0,1,.548-.6,2.559,2.559,0,0,1,.827-.382,3.734,3.734,0,0,1,1.044-.14,4.221,4.221,0,0,1,1.184.14,2.265,2.265,0,0,1,.789.382,1.69,1.69,0,0,1,.472.573,3.3,3.3,0,0,1,.255.7l-1.006.166a2.709,2.709,0,0,0-.2-.472.956.956,0,0,0-.306-.331,1.265,1.265,0,0,0-.471-.2,2.526,2.526,0,0,0-.675-.076,2.773,2.773,0,0,0-.764.089,1.417,1.417,0,0,0-.5.217.815.815,0,0,0-.255.319.845.845,0,0,0-.076.356,1.244,1.244,0,0,0,.051.369.661.661,0,0,0,.191.28,1.329,1.329,0,0,0,.382.2,3.545,3.545,0,0,0,.625.152l.955.153a3.147,3.147,0,0,1,1.655.662,1.782,1.782,0,0,1,.509,1.375,1.817,1.817,0,0,1-.166.777,1.777,1.777,0,0,1-.5.611,2.414,2.414,0,0,1-.827.4,3.96,3.96,0,0,1-1.159.152A5.217,5.217,0,0,1,54.635,21.032Zm-20.767-.789a3.741,3.741,0,0,1-.8-2.547,4.611,4.611,0,0,1,.229-1.515,3.134,3.134,0,0,1,.636-1.108,2.754,2.754,0,0,1,.994-.675,3.175,3.175,0,0,1,1.247-.242,3.23,3.23,0,0,1,1.311.242,2.3,2.3,0,0,1,.892.675,2.643,2.643,0,0,1,.522,1.005,4.407,4.407,0,0,1,.178,1.286v.561h-4.89a3.26,3.26,0,0,0,.128.93,2.523,2.523,0,0,0,.382.738,1.846,1.846,0,0,0,.624.484,2.358,2.358,0,0,0,2.063-.128,1.6,1.6,0,0,0,.522-.852h1.07a2.362,2.362,0,0,1-.853,1.5,3.031,3.031,0,0,1-1.948.547A2.919,2.919,0,0,1,33.869,20.243Zm.917-4.7a2.6,2.6,0,0,0-.573,1.553h3.757a3.33,3.33,0,0,0-.1-.853,1.718,1.718,0,0,0-.319-.649,1.42,1.42,0,0,0-.56-.433,2.033,2.033,0,0,0-.828-.153A1.784,1.784,0,0,0,34.786,15.544ZM8.767,20.968a2.023,2.023,0,0,1-.714-.356,1.789,1.789,0,0,1-.458-.624,2.1,2.1,0,0,1-.166-.866,1.944,1.944,0,0,1,.28-1.1,2.073,2.073,0,0,1,.764-.662,3.875,3.875,0,0,1,1.083-.344,9.753,9.753,0,0,1,1.235-.127l1.133-.039V16.6a1.7,1.7,0,0,0-.356-1.21,1.557,1.557,0,0,0-1.158-.369,2,2,0,0,0-1.159.267A1.186,1.186,0,0,0,8.767,16l-1.006-.114a1.865,1.865,0,0,1,.853-1.311,3.451,3.451,0,0,1,1.833-.42,3.489,3.489,0,0,1,1.2.178,1.935,1.935,0,0,1,.8.484,1.783,1.783,0,0,1,.433.789,3.694,3.694,0,0,1,.14,1.057v4.279H11.95v-.9a3.3,3.3,0,0,1-.9.752,2.757,2.757,0,0,1-1.363.306A3.123,3.123,0,0,1,8.767,20.968Zm2.1-3.285a6.252,6.252,0,0,0-1.12.127,2.163,2.163,0,0,0-.713.281.969.969,0,0,0-.37.42,1.573,1.573,0,0,0-.1.586,1.113,1.113,0,0,0,.293.8,1.4,1.4,0,0,0,.993.292,2.233,2.233,0,0,0,1.528-.483,1.676,1.676,0,0,0,.547-1.325v-.738Zm38.846,3.235a1.348,1.348,0,0,1-.547-.472,1.9,1.9,0,0,1-.28-.725,6.164,6.164,0,0,1-.064-.917V15.239H47.8v-.879h1.019V12.565H49.93v1.795h1.744v.879H49.93V19.1a1.279,1.279,0,0,0,.216.777.773.773,0,0,0,.662.292,2.6,2.6,0,0,0,.484-.039,2.418,2.418,0,0,0,.394-.1l.192.853a3.425,3.425,0,0,1-.561.14,3.347,3.347,0,0,1-.7.064A2.109,2.109,0,0,1,49.713,20.918Zm-4.357.025V16.78a1.934,1.934,0,0,0-.33-1.286,1.278,1.278,0,0,0-1.019-.383,2.24,2.24,0,0,0-.739.128,1.82,1.82,0,0,0-.649.407,2.108,2.108,0,0,0-.484.6,1.682,1.682,0,0,0-.166.8v3.9H40.862V14.359h1.1v1.006a2.939,2.939,0,0,1,1.069-.93,2.837,2.837,0,0,1,1.236-.28,2.084,2.084,0,0,1,1.655.611,2.614,2.614,0,0,1,.547,1.8v4.38Zm-15.169,0v-4.3a2.975,2.975,0,0,0-.076-.739,1.048,1.048,0,0,0-.229-.471.686.686,0,0,0-.356-.242,1.475,1.475,0,0,0-.5-.076,2.021,2.021,0,0,0-.612.1,1.889,1.889,0,0,0-.624.357,1.811,1.811,0,0,0-.42.522,1.45,1.45,0,0,0-.166.7v4.151H26.1V16.652a1.783,1.783,0,0,0-.306-1.2,1.058,1.058,0,0,0-.853-.344,1.77,1.77,0,0,0-1.222.535,2.751,2.751,0,0,0-.42.522,1.646,1.646,0,0,0-.191.853v3.922H22V14.359h1.1v1.006a3.043,3.043,0,0,1,.98-.9,2.177,2.177,0,0,1,1.1-.306,1.993,1.993,0,0,1,1.183.319,1.835,1.835,0,0,1,.675.916,3.046,3.046,0,0,1,1.019-.916,2.477,2.477,0,0,1,1.222-.319,1.99,1.99,0,0,1,1.49.535,2.29,2.29,0,0,1,.535,1.694v4.559Zm-30.111,0V11.851H3.119a5.3,5.3,0,0,1,1.655.217,2.553,2.553,0,0,1,1.031.586,1.9,1.9,0,0,1,.522.866,3.408,3.408,0,0,1,.153,1.031,3.879,3.879,0,0,1-.153,1.094,2.176,2.176,0,0,1-.535.917,2.627,2.627,0,0,1-1.031.624,5,5,0,0,1-1.642.229H1.235v3.527Zm1.159-4.521H3.107A3.962,3.962,0,0,0,4.2,16.3a1.552,1.552,0,0,0,.675-.369,1.267,1.267,0,0,0,.331-.573,2.7,2.7,0,0,0,.1-.764,2.614,2.614,0,0,0-.1-.764,1.137,1.137,0,0,0-.356-.547,1.618,1.618,0,0,0-.688-.319,4.157,4.157,0,0,0-1.07-.114H1.235ZM11.7,9.219a3.7,3.7,0,0,1-1.363-.955,4.372,4.372,0,0,1-.866-1.5,6.262,6.262,0,0,1-.293-1.986,6.266,6.266,0,0,1,.293-1.986,4.368,4.368,0,0,1,.866-1.5A3.815,3.815,0,0,1,11.709.331,4.688,4.688,0,0,1,13.517,0a4.721,4.721,0,0,1,1.821.331,3.568,3.568,0,0,1,1.35.955,4.2,4.2,0,0,1,.853,1.5,6.266,6.266,0,0,1,.292,1.986,6.262,6.262,0,0,1-.292,1.986,4.068,4.068,0,0,1-.841,1.5,3.582,3.582,0,0,1-1.349.955,4.782,4.782,0,0,1-1.834.331A4.741,4.741,0,0,1,11.7,9.219Zm.025-6.762a3.934,3.934,0,0,0-.585,2.317,3.956,3.956,0,0,0,.585,2.33A2.05,2.05,0,0,0,13.5,7.92,2.049,2.049,0,0,0,15.287,7.1a3.949,3.949,0,0,0,.586-2.33,3.927,3.927,0,0,0-.586-2.317A2.037,2.037,0,0,0,13.5,1.63,2.038,2.038,0,0,0,11.722,2.457ZM26.448,9.32,24.755,2.6,23.113,9.32h-1.8L18.694.229h2.139L22.3,6.545,23.787.28H25.8l1.553,6.265L28.728.229h2.037L28.3,9.32ZM5.6,9.32,1.846,3.412V9.32H0V.229H1.706L5.45,6.188V.229H7.3V9.32Z" transform="translate(21057.93 12960.004)" fill="#e1ebff"/></g></svg>