<svg xmlns="http://www.w3.org/2000/svg" width="81" height="81" viewBox="0 0 81 81"><g transform="translate(-20869.5 -12930.257)"><circle cx="40.5" cy="40.5" r="40.5" transform="translate(20869.5 12930.257)" fill="none" opacity="0"/><path d="M10.584,8.6h-9.5A1.065,1.065,0,0,1,.314,8.28,1.091,1.091,0,0,1,0,7.506V1.122A1.091,1.091,0,0,1,.314.348,1.065,1.065,0,0,1,1.079.03h27.1A3.223,3.223,0,0,1,30.47.991a3.3,3.3,0,0,1,.949,2.315v4.2a1.1,1.1,0,0,1-.08.419,1.086,1.086,0,0,1-.234.355,1.071,1.071,0,0,1-.351.236,1.06,1.06,0,0,1-.414.081H20.794V35.685a1.1,1.1,0,0,1-.08.419,1.085,1.085,0,0,1-.234.355,1.072,1.072,0,0,1-.351.236,1.06,1.06,0,0,1-.414.081H13.821a3.223,3.223,0,0,1-2.288-.961,3.3,3.3,0,0,1-.949-2.315Z" transform="translate(20894.291 12952.354)" fill="#eaf1ff"/></g></svg>