<svg width="102" height="93" viewBox="0 0 102 93" fill="none" xmlns="http://www.w3.org/2000/svg">
<path d="M32.6836 20.3927L26.9161 26.3282L32.6836 32.2637L38.4511 26.3282L32.6836 20.3927Z" fill="#A8A8A8"/>
<path d="M52.4984 11.7518L62.2863 21.8248L68.159 16.1168L52.4984 0L36.8379 16.1168L42.7106 21.8248L52.4984 11.7518Z" fill="#A8A8A8"/>
<path d="M72.1599 20.3704L66.3925 26.3059L72.1599 32.2414L77.9274 26.3059L72.1599 20.3704Z" fill="#A8A8A8"/>
<path d="M52.4984 40.6277L42.7106 30.5547L36.8379 36.2627L52.4984 52.3794L68.159 36.2627L62.2863 30.5547L52.4984 40.6277Z" fill="#A8A8A8"/>
<path d="M52.2579 20.3237L46.4904 26.2592L52.2579 32.1947L58.0254 26.2592L52.2579 20.3237Z" fill="#A8A8A8"/>
<path d="M7.02242 77.675H0V62.4734H6.78027C9.6861 62.4734 11.6233 63.9686 11.6233 66.4607C11.6233 68.2051 10.6547 69.202 9.6861 69.7004C11.3812 70.448 12.3498 71.4448 12.3498 73.4385C12.5919 76.429 10.4126 77.675 7.02242 77.675ZM8.47533 66.9591C8.47533 65.9623 7.74887 65.4639 6.29596 65.4639H3.14799V68.7036H6.05381C7.74888 68.7036 8.47533 68.2051 8.47533 66.9591ZM9.44395 73.1893C9.44395 72.1925 8.71749 71.4448 7.02242 71.4448H3.39014V74.6845H7.26457C8.47533 74.6845 9.44395 74.1861 9.44395 73.1893Z" fill="#A8A8A8"/>
<path d="M16.2238 77.675V62.4734H19.3718V77.675H16.2238Z" fill="#A8A8A8"/>
<path d="M33.9011 77.675L26.8787 68.2051V77.675H23.7307V62.4734H26.6365L33.4168 71.694V62.4734H36.5648V77.675H33.9011Z" fill="#A8A8A8"/>
<path d="M51.3363 77.675L49.8834 74.1861H43.5874L42.1345 77.675H38.7444L45.0404 62.4734H47.9462L54.2422 77.675H51.3363ZM46.7354 66.4607L44.7982 71.4448H48.6727L46.7354 66.4607Z" fill="#A8A8A8"/>
<path d="M67.3187 77.675L60.2962 68.2051V77.675H57.1483V62.4734H60.0541L66.8344 71.694V62.4734H69.9823V77.675H67.3187Z" fill="#A8A8A8"/>
<path d="M80.6364 77.9242C76.5198 77.9242 73.1296 74.6845 73.1296 70.448V70.1988C73.1296 65.9623 76.2776 62.4734 80.8785 62.4734C83.5422 62.4734 85.2373 63.4702 86.6902 64.7163L84.5108 67.2083C83.3001 66.2115 82.3314 65.4639 80.8785 65.4639C78.457 65.4639 76.5198 67.4575 76.5198 70.1988C76.5198 72.6909 78.2148 74.9337 80.8785 74.9337C82.5736 74.9337 83.5422 74.1861 84.753 73.1893L86.6902 75.4321C85.2373 76.9274 83.5422 77.9242 80.6364 77.9242Z" fill="#A8A8A8"/>
<path d="M89.3542 77.675V62.4734H100.493V65.4639H92.5022V68.4544H99.5246V71.4448H92.5022V74.6845H100.493V77.675H89.3542Z" fill="#A8A8A8"/>
<path d="M0.24231 82.1608H2.17954V91.1322H7.74906V92.8767H0.484459V82.1608H0.24231Z" fill="#A8A8A8"/>
<path d="M20.3406 92.8767H18.4034L17.4348 90.3846H12.5917L11.6231 92.8767H9.44373L14.0446 82.1608H15.7397L20.3406 92.8767ZM14.7711 84.1544L13.076 88.3909H16.7083L14.7711 84.1544Z" fill="#A8A8A8"/>
<path d="M30.7537 88.1417C30.7537 91.3814 29.0586 92.8767 26.3949 92.8767C23.7312 92.8767 22.0361 91.3814 22.0361 88.1417V82.1608H23.9734V88.1417C23.9734 90.1354 24.942 91.1322 26.6371 91.1322C28.3321 91.1322 29.3007 90.1354 29.3007 88.1417V82.1608H31.238V88.1417H30.7537Z" fill="#A8A8A8"/>
<path d="M41.4082 82.1608H43.1033V92.8767H41.6504L35.8388 85.1512V92.8767H34.1437V82.1608H35.8388L41.4082 89.637V82.1608Z" fill="#A8A8A8"/>
<path d="M51.3364 92.8768C48.1884 92.8768 46.009 90.3848 46.009 87.3943C46.009 84.4038 48.1884 81.9117 51.3364 81.9117C52.7893 81.9117 54.2422 82.4102 55.453 83.6562L54.2422 85.1514C53.5157 84.4038 52.5471 83.9054 51.3364 83.9054C49.3992 83.9054 47.9463 85.6498 47.9463 87.6435C47.9463 89.6372 49.3992 91.3816 51.3364 91.3816C52.5471 91.3816 53.5157 90.8832 54.2422 89.8864L55.453 91.1324C54.4843 92.1292 53.2736 92.8768 51.3364 92.8768Z" fill="#A8A8A8"/>
<path d="M59.8116 88.3909V92.8767H57.8744V82.1608H59.8116V86.6465H64.6547V82.1608H66.5919V92.8767H64.6547V88.3909H59.8116Z" fill="#A8A8A8"/>
<path d="M73.8565 89.3878H71.6771V92.8767H69.982V82.1608H74.0986C76.5202 82.1608 77.9731 83.656 77.9731 85.6497C77.9731 88.1417 76.278 89.3878 73.8565 89.3878ZM73.8565 83.9052H71.6771V87.6433H73.8565C75.3094 87.6433 76.0358 86.8957 76.0358 85.6497C76.278 84.4036 75.3094 83.9052 73.8565 83.9052Z" fill="#A8A8A8"/>
<path d="M89.5968 92.8767H87.6596L86.691 90.3846H81.848L80.8793 92.8767H78.9421L83.543 82.1608H85.2381L89.5968 92.8767ZM84.0273 84.1544L82.3323 88.3909H85.9645L84.0273 84.1544Z" fill="#A8A8A8"/>
<path d="M95.6502 92.8767H91.7758V82.1608H95.6502C98.7982 82.1608 101.22 84.4036 101.22 87.3941C101.22 90.3846 99.0404 92.8767 95.6502 92.8767ZM95.6502 83.9052H93.713V91.1322H95.6502C97.8296 91.1322 99.2825 89.637 99.2825 87.3941C99.2825 85.1512 97.8296 83.9052 95.6502 83.9052Z" fill="#A8A8A8"/>
</svg>
