<svg width="161" height="48" viewBox="0 0 161 48" fill="none" xmlns="http://www.w3.org/2000/svg">
<path d="M38.4522 9.55158C38.2643 9.3643 38.157 9.15026 38.157 8.90946C38.157 8.66867 38.2643 8.45463 38.4522 8.26734C38.8547 7.91952 39.445 7.91952 39.8207 8.26734C40.0085 8.45463 40.1158 8.66867 40.1158 8.90946C40.1158 9.15026 40.0085 9.3643 39.8207 9.55158C39.6328 9.71212 39.3645 9.79238 39.123 9.79238C38.8815 9.84589 38.64 9.73887 38.4522 9.55158ZM36.0372 12.0933C35.8762 11.906 35.7957 11.692 35.7957 11.4512C35.7957 11.2104 35.903 10.9964 36.0372 10.8091C36.386 10.4613 36.9763 10.4613 37.3252 10.8091C37.4862 10.9964 37.5667 11.2104 37.5667 11.4512C37.5667 11.692 37.4593 11.906 37.3252 12.0933C37.1373 12.2539 36.9227 12.3341 36.6812 12.3341C36.4397 12.3341 36.225 12.2539 36.0372 12.0933ZM33.4075 14.6083C33.2465 14.4478 33.166 14.207 33.166 13.9662C33.166 13.7254 33.2733 13.5113 33.4075 13.3241C33.7563 12.9762 34.3467 12.9762 34.6955 13.3241C34.8565 13.4846 34.937 13.7254 34.937 13.9662C34.937 14.207 34.8297 14.421 34.6955 14.6083C34.5077 14.7956 34.293 14.8491 34.0515 14.8491C33.81 14.8491 33.5685 14.7688 33.4075 14.6083ZM30.912 17.1233C30.7242 16.9628 30.6168 16.722 30.6168 16.4812C30.6168 16.2404 30.7242 16.0263 30.912 15.839C31.3145 15.4912 31.9048 15.4912 32.2805 15.839C32.4683 15.9996 32.5757 16.2404 32.5757 16.4812C32.5757 16.722 32.4683 16.9628 32.2805 17.1233C32.0927 17.3106 31.8243 17.3641 31.5828 17.3641C31.3413 17.3641 31.0998 17.3106 30.912 17.1233ZM28.497 19.6115C28.3092 19.451 28.2555 19.2102 28.2555 18.9694C28.2555 18.7286 28.3628 18.5146 28.497 18.3273C28.8458 17.9795 29.4362 17.9795 29.785 18.3273C29.9728 18.4878 30.0265 18.7286 30.0265 18.9694C30.0265 19.2102 29.9192 19.451 29.785 19.6115C29.624 19.7988 29.3825 19.8523 29.141 19.8523C28.8727 19.9058 28.6312 19.8256 28.497 19.6115ZM25.5722 21.4844C25.5722 21.2436 25.6795 21.0295 25.8137 20.8423C26.1625 20.4944 26.7528 20.4944 27.1017 20.8423C27.2895 21.0295 27.3432 21.2436 27.3432 21.4844C27.3432 21.7252 27.2358 21.9392 27.1017 22.1265C26.9407 22.287 26.6992 22.3673 26.4577 22.3673C26.2162 22.3673 26.0015 22.2603 25.8137 22.1265C25.6795 21.9927 25.5722 21.7252 25.5722 21.4844ZM20.9032 27.0494C20.7422 26.8889 20.6617 26.6481 20.6617 26.4073C20.6617 26.1665 20.769 25.9525 20.9032 25.7652C21.252 25.4174 21.8423 25.4174 22.1912 25.7652C22.379 25.9525 22.4327 26.1665 22.4327 26.4073C22.4327 26.6481 22.3253 26.8622 22.1912 27.0494C22.0302 27.2367 21.7887 27.2902 21.5472 27.2902C21.2788 27.3438 21.091 27.2367 20.9032 27.0494ZM18.2735 29.5644C18.0857 29.4039 17.9783 29.1631 17.9783 28.9223C17.9783 28.6815 18.0857 28.4675 18.2735 28.2802C18.676 27.9324 19.2663 27.9324 19.642 28.2802C19.8298 28.4675 19.9372 28.6815 19.9372 28.9223C19.9372 29.1631 19.8298 29.3771 19.642 29.5644C19.4542 29.7517 19.1858 29.8052 18.9443 29.8052C18.7297 29.8587 18.4882 29.7517 18.2735 29.5644ZM15.8585 32.1062C15.6975 31.9456 15.617 31.7048 15.617 31.464C15.617 31.2232 15.7243 30.9825 15.8585 30.8219C16.2073 30.4741 16.7977 30.4741 17.1465 30.8219C17.3075 30.9825 17.388 31.2232 17.388 31.464C17.388 31.7048 17.2807 31.9189 17.1465 32.1062C16.9587 32.2935 16.744 32.347 16.5025 32.347C16.261 32.347 16.0732 32.2667 15.8585 32.1062ZM13.363 34.6212C13.1752 34.4606 13.1215 34.2198 13.1215 33.979C13.1215 33.7382 13.2288 33.5242 13.363 33.3369C13.7118 32.9891 14.3022 32.9891 14.651 33.3369C14.812 33.5242 14.8925 33.7382 14.8925 33.979C14.8925 34.2198 14.7852 34.4606 14.651 34.6212C14.4632 34.8084 14.2485 34.8619 14.007 34.8619C13.7387 34.8619 13.4972 34.8084 13.363 34.6212ZM10.7333 37.1361C10.5455 36.9756 10.4382 36.7348 10.4382 36.494C10.4382 36.2532 10.5455 36.0392 10.7333 35.8519C11.1358 35.5041 11.7262 35.5041 12.075 35.8519C12.2628 36.0392 12.3702 36.2532 12.3702 36.494C12.3702 36.7348 12.2628 36.9756 12.075 37.1361C11.8872 37.2967 11.6188 37.3769 11.3773 37.3769C11.1358 37.3769 10.8943 37.3234 10.7333 37.1361ZM8.26467 39.6244C8.07683 39.4371 8.02317 39.223 8.02317 38.9822C8.02317 38.7414 8.1305 38.5274 8.26467 38.3401C8.6135 37.9923 9.20383 37.9923 9.55267 38.3401C9.7405 38.5274 9.79417 38.7414 9.79417 38.9822C9.79417 39.223 9.68683 39.4371 9.55267 39.6244C9.39167 39.7849 9.15017 39.8652 8.90867 39.8652C8.72083 39.9187 8.47933 39.8384 8.26467 39.6244ZM9.55267 9.55158C9.71367 9.3643 9.79417 9.15026 9.79417 8.90946C9.79417 8.66867 9.68683 8.45463 9.55267 8.26734C9.20383 7.91952 8.6135 7.91952 8.26467 8.26734C8.07683 8.45463 8.02317 8.66867 8.02317 8.90946C8.02317 9.15026 8.1305 9.3643 8.26467 9.55158C8.42567 9.71212 8.66717 9.79238 8.90867 9.79238C9.15017 9.84589 9.39167 9.73887 9.55267 9.55158ZM12.075 12.0933C12.2628 11.906 12.3702 11.692 12.3702 11.4512C12.3702 11.2104 12.2628 10.9964 12.075 10.8091C11.6725 10.4613 11.0822 10.4613 10.7065 10.8091C10.5187 10.9964 10.4113 11.2104 10.4113 11.4512C10.4113 11.692 10.5187 11.906 10.7065 12.0933C10.8943 12.2539 11.1627 12.3341 11.4042 12.3341C11.6188 12.3341 11.8603 12.2539 12.075 12.0933ZM14.6242 14.6083C14.7852 14.4478 14.8657 14.207 14.8657 13.9662C14.8657 13.7254 14.7583 13.5113 14.6242 13.3241C14.2753 12.9762 13.685 12.9762 13.3362 13.3241C13.1752 13.4846 13.0947 13.7254 13.0947 13.9662C13.0947 14.207 13.202 14.421 13.3362 14.6083C13.524 14.7956 13.7387 14.8491 13.9802 14.8491C14.1948 14.8491 14.4363 14.7688 14.6242 14.6083ZM17.1465 17.1233C17.3075 16.9628 17.388 16.722 17.388 16.4812C17.388 16.2404 17.2807 16.0263 17.1465 15.839C16.7977 15.4912 16.2073 15.4912 15.8585 15.839C15.6975 15.9996 15.617 16.2404 15.617 16.4812C15.617 16.722 15.7243 16.9628 15.8585 17.1233C16.0463 17.3106 16.261 17.3641 16.5025 17.3641C16.6903 17.3641 16.9587 17.3106 17.1465 17.1233ZM19.6152 19.6115C19.803 19.451 19.9103 19.2102 19.9103 18.9694C19.9103 18.7286 19.803 18.5146 19.6152 18.3273C19.2663 17.9795 18.6223 17.9795 18.2735 18.3273C18.0857 18.4878 17.9783 18.7286 17.9783 18.9694C17.9783 19.2102 18.0857 19.451 18.2735 19.6115C18.4613 19.7988 18.7297 19.8523 18.9712 19.8523C19.2127 19.9058 19.4542 19.8256 19.6152 19.6115ZM22.4327 21.4844C22.4327 21.2436 22.3253 21.0295 22.1912 20.8423C21.8423 20.4944 21.252 20.4944 20.9032 20.8423C20.7153 21.0295 20.6617 21.2436 20.6617 21.4844C20.6617 21.7252 20.769 21.9392 20.9032 22.1265C21.0642 22.287 21.3057 22.3673 21.5472 22.3673C21.7887 22.3673 22.0033 22.2603 22.1912 22.1265C22.379 21.9927 22.4327 21.7252 22.4327 21.4844ZM24.6867 24.695C24.8745 24.5077 24.9282 24.2937 24.9282 24.0529C24.9282 23.8121 24.8208 23.598 24.6867 23.4108C24.3378 23.0629 23.7475 23.0629 23.3987 23.4108C23.2108 23.598 23.1572 23.8121 23.1572 24.0529C23.1572 24.2937 23.2645 24.5077 23.3987 24.695C23.5597 24.8555 23.8012 24.9358 24.0427 24.9358C24.2842 24.9358 24.5525 24.8288 24.6867 24.695ZM27.209 27.0494C27.3968 26.8889 27.5042 26.6481 27.5042 26.4073C27.5042 26.1665 27.3968 25.9525 27.209 25.7652C26.8065 25.4174 26.2162 25.4174 25.8673 25.7652C25.6795 25.9525 25.5722 26.1665 25.5722 26.4073C25.5722 26.6481 25.6795 26.8622 25.8673 27.0494C26.0552 27.2367 26.3235 27.2902 26.565 27.2902C26.7528 27.3438 27.0212 27.2367 27.209 27.0494ZM29.7582 29.5644C29.9192 29.4039 29.9997 29.1631 29.9997 28.9223C29.9997 28.6815 29.8923 28.4675 29.7582 28.2802C29.4093 27.9324 28.819 27.9324 28.4702 28.2802C28.3092 28.4675 28.2287 28.6815 28.2287 28.9223C28.2287 29.1631 28.336 29.3771 28.4702 29.5644C28.658 29.7517 28.8727 29.8052 29.1142 29.8052C29.3288 29.8587 29.5703 29.7517 29.7582 29.5644ZM32.2805 32.1062C32.4415 31.9456 32.522 31.7048 32.522 31.464C32.522 31.2232 32.4147 30.9825 32.2805 30.8219C31.9317 30.4741 31.3413 30.4741 30.9925 30.8219C30.8315 30.9825 30.751 31.2232 30.751 31.464C30.751 31.7048 30.8583 31.9189 30.9925 32.1062C31.1803 32.2935 31.395 32.347 31.6365 32.347C31.878 32.347 32.0927 32.2667 32.2805 32.1062ZM34.6418 34.6212C34.8297 34.4606 34.8833 34.2198 34.8833 33.979C34.8833 33.7382 34.776 33.5242 34.6418 33.3369C34.293 32.9891 33.7027 32.9891 33.3538 33.3369C33.1928 33.5242 33.1123 33.7382 33.1123 33.979C33.1123 34.2198 33.2197 34.4606 33.3538 34.6212C33.5417 34.8084 33.7563 34.8619 33.9978 34.8619C34.2393 34.8619 34.5077 34.8084 34.6418 34.6212ZM37.3252 37.1361C37.513 36.9756 37.5667 36.7348 37.5667 36.494C37.5667 36.2532 37.4593 36.0392 37.3252 35.8519C36.9763 35.5041 36.386 35.5041 36.0372 35.8519C35.8493 36.0392 35.7957 36.2532 35.7957 36.494C35.7957 36.7348 35.903 36.9756 36.0372 37.1361C36.1982 37.2967 36.4397 37.3769 36.6812 37.3769C36.9227 37.3769 37.1642 37.3234 37.3252 37.1361ZM39.8207 39.6244C40.0085 39.4371 40.1158 39.223 40.1158 38.9822C40.1158 38.7414 40.0085 38.5274 39.8207 38.3401C39.4182 37.9923 38.8278 37.9923 38.479 38.3401C38.2912 38.5274 38.1838 38.7414 38.1838 38.9822C38.1838 39.223 38.2912 39.4371 38.479 39.6244C38.6668 39.7849 38.9352 39.8652 39.1767 39.8652C39.3913 39.9187 39.6328 39.8384 39.8207 39.6244ZM15.5097 10.2205C18.0857 8.56164 20.8763 7.75899 23.989 7.70548C27.048 7.70548 29.8655 8.53489 32.4683 10.2205L37.8887 4.81593C33.649 1.63206 29.0605 0 23.989 0C18.9175 0 14.2753 1.63206 10.143 4.81593L15.5097 10.2205ZM10.0893 32.4005C8.372 29.8052 7.51333 26.9959 7.51333 23.9994C7.51333 20.9493 8.34517 18.14 10.0893 15.5982L4.72267 10.2472C1.55633 14.3675 0 18.9426 0 24.0529C0 29.0561 1.58317 33.6847 4.77633 37.8585L10.0893 32.4005ZM32.4952 37.7783C29.9192 39.4906 27.1285 40.3735 24.0695 40.427C20.9568 40.427 18.1125 39.5976 15.5365 37.8318L10.1162 43.1828C14.3022 46.4202 18.9443 48.0522 24.0695 47.9987C29.141 47.9452 33.7295 46.3399 37.8887 43.1828L32.4952 37.7783ZM37.7545 15.5447C39.4718 18.14 40.3573 21.0028 40.3305 24.1064C40.2768 27.103 39.445 29.8587 37.7545 32.3737L43.1748 37.7248C46.368 33.6045 48.0048 29.0293 48.0048 23.9994C48.0585 18.8891 46.4217 14.2605 43.1748 10.0867L37.7545 15.5447ZM43.4163 39.4371C45.4825 39.4371 47.2267 41.0959 47.2267 43.2363C47.2267 45.2965 45.563 47.0355 43.4163 47.0355C41.3502 47.0355 39.606 45.3767 39.606 43.2363C39.6328 41.1227 41.2965 39.4371 43.4163 39.4371ZM4.669 39.4371C6.73517 39.4371 8.42567 41.0959 8.42567 43.2363C8.42567 45.2965 6.762 47.0355 4.669 47.0355C2.576 47.0355 0.912333 45.3767 0.912333 43.2363C0.912333 41.1227 2.60283 39.4371 4.669 39.4371ZM43.47 0.829411C45.5362 0.829411 47.2267 2.48823 47.2267 4.62864C47.2267 6.7423 45.563 8.42787 43.47 8.42787C41.377 8.42787 39.7133 6.76905 39.7133 4.62864C39.7402 2.51498 41.4038 0.829411 43.47 0.829411ZM4.61533 0.829411C6.6815 0.829411 8.42567 2.48823 8.42567 4.57513C8.42567 6.63528 6.762 8.32085 4.61533 8.32085C2.54917 8.32085 0.805 6.66203 0.805 4.57513C0.831833 2.51499 2.4955 0.829411 4.61533 0.829411ZM76.0725 31.1162L74.1942 29.4574C73.0672 30.7952 70.7863 31.5711 68.8812 31.5711C65.688 31.5711 63.112 29.6447 62.8168 26.5679H77.0117C77.6557 19.9326 73.7648 16.7755 68.6397 16.7755C63.6218 16.7755 59.9725 20.3607 59.9725 25.4174C59.9725 30.7149 63.5682 34.1128 68.8007 34.1128C71.4303 34.0861 74.3552 33.0961 76.0725 31.1162ZM74.4357 24.1866H62.8437C63.3267 21.0028 65.849 19.2102 68.7738 19.2102C72.0207 19.2102 74.2478 20.9225 74.4357 24.0796V24.1866ZM83.9078 10.1402H81.144V33.7917H83.9078V10.1402ZM91.7432 17.1233H89.1672V33.7917H91.931V24.5077C91.931 21.4576 94.1582 19.5313 96.8683 19.5045C97.9953 19.5045 98.8808 19.7988 99.7663 20.4409L101.001 18.0865C99.9542 17.3106 98.5857 16.8022 97.1098 16.8557C95.1778 16.8557 93.1117 17.4444 91.9847 19.6115L91.7432 17.1233ZM102.611 25.4709C102.611 30.5276 106.26 34.0861 111.278 34.0861C116.296 34.0861 119.945 30.5544 119.945 25.4709C119.945 20.3071 116.349 16.722 111.278 16.722C106.314 16.722 102.611 20.3071 102.611 25.4709ZM117.208 25.4709C117.154 28.9491 114.686 31.464 111.251 31.464C107.843 31.464 105.375 28.9491 105.375 25.4709C105.375 21.7252 107.897 19.2637 111.305 19.2637C114.632 19.2905 117.208 21.7787 117.208 25.4709ZM123.943 17.0698V33.7917H126.707V24.8288C126.707 21.8322 128.827 19.4242 131.832 19.3707C135.025 19.3707 136.904 21.3774 136.904 24.588V33.7917H139.668V24.588C139.668 19.665 136.555 16.8557 132.315 16.8557C130.088 16.8557 128.022 17.7922 126.6 19.7453L126.439 17.0965L123.943 17.0698ZM160.946 10.1402H158.183V20.1199C157.002 17.8457 154.292 16.7755 151.93 16.7755C147.208 16.7755 143.505 19.8256 143.505 25.4174C143.505 30.9289 147.208 34.0593 151.984 34.0593C154.453 34.0593 156.921 32.9891 158.236 30.6614L158.397 33.7115H161L160.946 10.1402ZM152.172 19.3707C155.472 19.3707 158.102 21.8322 158.102 25.3639C158.102 29.0026 155.499 31.464 152.172 31.464C148.925 31.464 146.295 29.2434 146.295 25.4174C146.295 21.5379 148.871 19.4242 152.065 19.3707H152.172Z" fill="#686868"/>
</svg>
