<svg width="150" height="43" viewBox="0 0 150 43" fill="none" xmlns="http://www.w3.org/2000/svg">
<path opacity="0.95" d="M27.8 41.6928C27.7 41.5928 27.6 41.4928 27.5 41.4928C24.9 40.8928 22.5 39.9928 20.4 38.7928C15.8 36.0928 12.9 32.1928 12.8 27.5928C12.8 25.8928 13.1 24.1928 13.9 22.4928C14.4 21.4928 16.8 17.7928 17.3 17.0928C19 14.3928 18.4 14.5928 16.1 11.2928L12.5 6.29282L10.2 2.89282C8.8 3.79282 7.6 4.79282 6.4 5.89282C2.4 9.89282 0 15.2928 0 21.3928C0 29.6928 4.6 36.8928 11.3 40.5928C3.7 34.9928 0.2 26.5928 3.1 18.0928C3.9 15.7928 5.1 13.6928 6.6 11.7928L9.1 15.4928C9.4 15.8928 9.4 16.4928 9 16.8928C7.8 18.3928 6.8 20.0928 6.2 21.7928C3 31.2928 11.7 40.8928 20.9 42.4928C22.7 42.7928 25.9 43.0928 27.5 42.6928C27.9 42.5928 28 41.9928 27.8 41.6928Z" fill="#ACACAC"/>
<path opacity="0.95" d="M16.1999 1.09279C16.1999 1.19279 16.2999 1.29279 16.4999 1.29279C19.0999 1.89279 21.4999 2.79279 23.5999 3.99279C28.1999 6.69279 31.0999 10.5928 31.1999 15.1928C31.1999 16.8928 30.8999 18.5928 30.0999 20.2928C29.5999 21.2928 27.1999 24.9928 26.6999 25.6928C24.9999 28.3928 25.5999 28.1928 27.8999 31.4928L31.4 36.5928L33.6999 39.9928C35.0999 39.0928 36.2999 38.0928 37.4999 36.9928C41.4999 32.9928 43.9 27.4928 43.9 21.4928C44 13.1928 39.3999 5.99279 32.6999 2.29279C40.2999 7.89279 43.7999 16.2928 40.9 24.7928C40.1 27.0928 38.9 29.1928 37.4 31.0928L34.9 27.2928C34.6 26.8928 34.5999 26.2928 34.9999 25.8928C36.1999 24.3928 37.1999 22.6928 37.7999 20.9928C40.9999 11.6928 32.2999 1.99279 23.1999 0.392792C21.3999 0.0927922 18.1999 -0.207208 16.5999 0.192792C15.9999 0.292792 15.8999 0.792792 16.1999 1.09279Z" fill="#A8A8A8"/>
<path d="M56.9 22.4928H54V9.79285H56.9V22.4928Z" fill="#666666"/>
<path d="M61.1001 22.4928V9.79285H63.7001L70.6001 17.9928V9.79285H73.5001V22.4928H70.9001L64.0001 14.1928V22.4928H61.1001Z" fill="#666666"/>
<path d="M82.8 9.79287V18.4929C82.8 19.4929 82.7 20.8929 81.7 21.8929C80.9 22.6929 79.8 22.8929 79 22.8929C78.3 22.8929 77.6 22.7929 77 22.3929C76.6 22.1929 76.1 21.6929 75.8 21.2929L77.6 19.1929C77.7 19.3929 77.9 19.7929 78.1 19.8929C78.3 20.0929 78.5 20.1929 78.8 20.1929C79 20.1929 79.3 20.0929 79.5 19.8929C79.9 19.4929 79.9 18.8929 79.9 18.3929V9.69287H82.8V9.79287Z" fill="#666666"/>
<path d="M94.0999 12.1928H89.7999V14.6928H93.7999V17.1928H89.7999V19.9928H94.0999V22.4928H86.8999V9.79285H94.0999V12.1928Z" fill="#666666"/>
<path d="M107 22.0928C105.9 22.6928 105 22.7928 104.2 22.7928C101.9 22.7928 100.3 21.9928 99.2 20.8928C98.1 19.7928 97.2 18.0928 97.2 16.0928C97.2 14.0928 98 12.3928 99.2 11.2928C100.3 10.1928 102 9.4928 104 9.4928C104.8 9.4928 105.8 9.6928 107.1 10.1928V13.5928C106.5 12.8928 105.5 12.1928 104.1 12.1928C103 12.1928 102.2 12.4928 101.5 13.1928C100.8 13.8928 100.3 14.8928 100.3 16.0928C100.3 17.3928 100.8 18.3928 101.4 18.8928C101.7 19.1928 102.6 19.9928 104.2 19.9928C105 19.9928 106 19.7928 107.1 18.6928V22.0928H107Z" fill="#666666"/>
<path d="M115.2 12.1929V22.4929H112.3V12.1929H109.5V9.69287H118V12.1929H115.2Z" fill="#666666"/>
<path d="M123.8 22.4928H120.9V9.79285H123.8V22.4928Z" fill="#666666"/>
<path d="M129.9 9.79285L133.1 17.9928L136.3 9.79285H139.5L134.1 22.4928H132.1L126.7 9.79285H129.9Z" fill="#666666"/>
<path d="M149.5 12.1928H145.2V14.6928H149.2V17.1928H145.2V19.9928H149.5V22.4928H142.3V9.79285H149.5V12.1928Z" fill="#666666"/>
<path d="M56.3 30.3929H57.2001C57.5001 30.3929 58.1 30.3929 58.5 29.9929C58.7 29.7929 58.9001 29.3929 58.9001 28.9929C58.9001 28.5929 58.7 28.1929 58.5 27.9929C58.1 27.6929 57.6 27.5929 57.1 27.5929H56.3V30.3929ZM57.5 25.5929C58.4 25.5929 59.4 25.6929 60.3 26.4929C61.2 27.2929 61.3 28.2929 61.3 29.0929C61.3 30.3929 60.8001 31.1929 60.4001 31.5929C59.6001 32.4929 58.5001 32.4929 57.7001 32.4929H56.2001V36.1929H53.8V25.5929H57.5Z" fill="#666666"/>
<path d="M67.7 30.3929H68.3C68.7 30.3929 69.3 30.3929 69.8 29.8929C70 29.6929 70.2 29.3929 70.2 28.8929C70.2 28.2929 69.9 27.9929 69.7 27.7929C69.3 27.4929 68.7 27.4929 68.4 27.4929H67.8V30.3929H67.7ZM69 25.5929C70.3 25.5929 71.2 25.9929 71.7 26.4929C72.1 26.8929 72.6 27.6929 72.6 28.8929C72.6 29.5929 72.5 30.3929 71.8 31.0929C71.4 31.3929 70.9 31.7929 70.3 31.8929L73.5 36.1929H70.5L67.6 31.9929V36.1929H65.2V25.5929H69Z" fill="#666666"/>
<path d="M80.2 28.4929C79.7 28.8929 79.3 29.6929 79.3 30.8929C79.3 31.8929 79.6 32.5929 80.3 33.2929C81 33.8929 81.7 34.1929 82.6 34.1929C83.7 34.1929 84.4 33.7929 84.9 33.2929C85.3 32.8929 85.8 32.1929 85.8 30.8929C85.8 29.7929 85.4 28.9929 84.9 28.4929C84.4 27.9929 83.5 27.5929 82.6 27.5929C81.6 27.5929 80.8 27.8929 80.2 28.4929ZM86.6 26.8929C87.6 27.8929 88.2 29.2929 88.2 30.8929C88.2 32.2929 87.7 33.7929 86.6 34.8929C85.6 35.8929 84.3 36.4929 82.5 36.4929C80.5 36.4929 79.2 35.6929 78.4 34.8929C77.4 33.8929 76.8 32.4929 76.8 30.9929C76.8 29.4929 77.5 27.8929 78.4 26.9929C79.1 26.2929 80.4 25.3929 82.5 25.3929C84.2 25.2929 85.6 25.7929 86.6 26.8929Z" fill="#666666"/>
<path d="M95.9 27.5928V36.0928H93.5V27.5928H91.2V25.4928H98.2V27.5928H95.9Z" fill="#666666"/>
<path d="M104.5 28.4929C104 28.8929 103.6 29.6929 103.6 30.8929C103.6 31.8929 103.9 32.5929 104.6 33.2929C105.3 33.8929 106 34.1929 106.9 34.1929C108 34.1929 108.7 33.7929 109.2 33.2929C109.6 32.8929 110.1 32.1929 110.1 30.8929C110.1 29.7929 109.7 28.9929 109.2 28.4929C108.7 27.9929 107.8 27.5929 106.9 27.5929C105.9 27.5929 105 27.8929 104.5 28.4929ZM110.9 26.8929C111.9 27.8929 112.5 29.2929 112.5 30.8929C112.5 32.2929 112 33.7929 110.9 34.8929C109.9 35.8929 108.6 36.4929 106.8 36.4929C104.8 36.4929 103.5 35.6929 102.7 34.8929C101.7 33.8929 101.1 32.4929 101.1 30.9929C101.1 29.4929 101.8 27.8929 102.7 26.9929C103.4 26.2929 104.7 25.3929 106.8 25.3929C108.4 25.2929 109.8 25.7929 110.9 26.8929Z" fill="#666666"/>
<path d="M124.4 35.7928C123.5 36.2928 122.7 36.3928 122.1 36.3928C120.2 36.3928 118.8 35.6928 117.9 34.8928C116.9 33.9928 116.3 32.5928 116.3 30.8928C116.3 29.1928 117 27.7928 117.9 26.8928C118.8 25.9928 120.2 25.3928 121.8 25.3928C122.5 25.3928 123.3 25.4928 124.3 25.9928V28.7928C123.8 28.1928 123 27.6928 121.8 27.6928C120.9 27.6928 120.2 27.9928 119.6 28.4928C119 29.0928 118.6 29.8928 118.6 30.8928C118.6 31.9928 119 32.7928 119.5 33.1928C119.7 33.3928 120.5 34.0928 121.8 34.0928C122.4 34.0928 123.3 33.8928 124.2 32.9928V35.7928H124.4Z" fill="#666666"/>
<path d="M131.6 28.4929C131.1 28.8929 130.7 29.6929 130.7 30.8929C130.7 31.8929 131 32.5929 131.7 33.2929C132.4 33.8929 133.1 34.1929 134 34.1929C135.1 34.1929 135.8 33.7929 136.3 33.2929C136.7 32.8929 137.2 32.1929 137.2 30.8929C137.2 29.7929 136.8 28.9929 136.3 28.4929C135.8 27.9929 134.9 27.5929 134 27.5929C133 27.5929 132.2 27.8929 131.6 28.4929ZM138.1 26.8929C139.1 27.8929 139.7 29.2929 139.7 30.8929C139.7 32.2929 139.2 33.7929 138.1 34.8929C137.1 35.8929 135.8 36.4929 134 36.4929C132 36.4929 130.7 35.6929 129.9 34.8929C128.9 33.8929 128.3 32.4929 128.3 30.9929C128.3 29.4929 129 27.8929 129.9 26.9929C130.6 26.2929 131.9 25.3929 134 25.3929C135.6 25.2929 137 25.7929 138.1 26.8929Z" fill="#666666"/>
<path d="M146.4 25.5929V34.0929H149.7V36.1929H144V25.5929H146.4Z" fill="#666666"/>
</svg>
