<svg width="203" height="23" viewBox="0 0 203 23" fill="none" xmlns="http://www.w3.org/2000/svg">
<path d="M17.1587 5.87807L22.7345 0V16.996L17.1587 22.1015V5.87807Z" fill="#A8A8A8"/>
<path d="M8.92944 8.83394L11.6166 11.0508L14.5052 8.49805V16.9961L8.92944 22.1016V8.83394Z" fill="#C4C4C4"/>
<path d="M6.3093 5.87807L0.699951 0V22.1687L6.3093 17.3991V5.87807Z" fill="#A8A8A8"/>
<path d="M198.673 19.0449H202.234V3.66114H198.673V19.0449ZM174.489 11.1179V6.68415H178.016C179.763 6.68415 180.804 7.4231 180.804 8.86743V8.90102C180.804 10.211 179.796 11.0843 178.083 11.0843H174.489V11.1179ZM170.929 19.0449H174.489V14.1073H177.277L180.737 19.0449H184.902L180.938 13.5363C182.987 12.7973 184.398 11.2522 184.398 8.76666V8.73307C184.398 7.28875 183.928 6.07955 183.021 5.20623C181.946 4.19857 180.367 3.62756 178.318 3.62756H170.929V19.0449ZM146.778 12.5958L148.928 7.59105L151.078 12.5958H146.778ZM140.397 19.0449H144.024L145.502 15.5852H152.354L153.832 19.0449H157.561L150.641 3.52679H147.349L140.397 19.0449ZM122.191 19.2464C125.685 19.2464 128.137 17.5334 128.137 14.4768V14.4432C128.137 11.7561 126.289 10.6476 122.997 9.80792C120.21 9.13614 119.504 8.80025 119.504 7.79259V7.759C119.504 7.02004 120.21 6.41544 121.587 6.41544C122.964 6.41544 124.375 6.98645 125.785 7.92694L127.633 5.37418C125.987 4.13139 123.972 3.42603 121.62 3.42603C118.329 3.42603 115.944 5.27341 115.944 8.06129V8.09488C115.944 11.1515 118.06 12.0248 121.318 12.7973C124.005 13.4691 124.576 13.9058 124.576 14.7455V14.7791C124.576 15.686 123.703 16.2234 122.259 16.2234C120.411 16.2234 118.9 15.4845 117.422 14.3424L115.306 16.7272C117.287 18.4403 119.739 19.2464 122.191 19.2464ZM96.7309 19.2464C100.224 19.2464 102.676 17.5334 102.676 14.4768V14.4432C102.676 11.7561 100.829 10.6476 97.5371 9.80792C94.7492 9.13614 94.0438 8.80025 94.0438 7.79259V7.759C94.0438 7.02004 94.7492 6.41544 96.1263 6.41544C97.5035 6.41544 98.9142 6.98645 100.325 7.92694L102.172 5.37418C100.526 4.13139 98.5111 3.42603 96.1599 3.42603C92.8682 3.42603 90.4834 5.27341 90.4834 8.06129V8.09488C90.4834 11.1515 92.5995 12.0248 95.8576 12.7973C98.5447 13.4691 99.1157 13.9058 99.1157 14.7455V14.7791C99.1157 15.686 98.2424 16.2234 96.7981 16.2234C94.9507 16.2234 93.4392 15.4845 91.9613 14.3424L89.8452 16.7272C91.827 18.4403 94.2789 19.2464 96.7309 19.2464ZM64.6199 19.0449H76.947V16.0219H68.1803V12.7973H75.805V9.77433H68.1803V6.65056H76.8463V3.62756H64.6535V19.0449H64.6199ZM33.6509 19.0449H37.1441V9.06896L41.645 15.5852H41.7458L46.3139 9.00179V19.0449H49.8408V3.66114H46.0116L41.7458 10.1438L37.48 3.62756H33.6509V19.0449Z" fill="#666666"/>
</svg>
