<svg width="1920" height="846" viewBox="0 0 1920 846" fill="none" xmlns="http://www.w3.org/2000/svg">
<path fill-rule="evenodd" clip-rule="evenodd" d="M121.483 592.892C259.027 642.8 262.234 645.661 370.225 719.907C403.608 743.294 444.286 756.785 488.003 756.186C599.096 754.664 687.694 662.77 685.883 550.939C684.626 473.599 640.468 406.991 576.599 373.752C461.801 311.661 458.402 310.255 348.307 207.739C306.82 169.075 251.104 145.75 190.183 146.577C64.4494 148.299 -35.8178 252.302 -33.768 378.867C-32.1452 478.634 32.5669 562.638 121.483 592.892Z" fill="url(#paint0_linear)"/>
<path fill-rule="evenodd" clip-rule="evenodd" d="M1869.23 498.49C1856.67 492.99 1854.09 492.04 1842.68 471.54C1843 472.12 1843.31 472.67 1843.62 473.22C1823.4 435.54 1783.82 409.94 1738.3 409.94C1672.22 409.94 1618.66 463.89 1618.66 530.44C1618.66 596.99 1672.23 650.94 1738.3 650.94C1754.59 650.94 1770.11 647.66 1784.26 641.72C1783.61 641.97 1782.94 642.24 1782.25 642.51C1804.63 633.61 1806.69 634.85 1821 638.87C1827.32 640.64 1833.96 641.61 1840.84 641.61C1881.64 641.61 1914.71 608.3 1914.71 567.21C1914.72 536.23 1895.94 509.69 1869.23 498.49Z" fill="url(#paint1_linear)"/>
<path d="M1318.45 306.59C1420.67 306.59 1503.53 223.136 1503.53 120.19C1503.53 17.2441 1420.67 -66.21 1318.45 -66.21C1216.23 -66.21 1133.37 17.2441 1133.37 120.19C1133.37 223.136 1216.23 306.59 1318.45 306.59Z" fill="url(#paint2_linear)"/>
<path fill-rule="evenodd" clip-rule="evenodd" d="M1563.66 135.97C1563.66 151.45 1565.1 166.6 1567.84 181.3C1589.84 309.83 1516.15 366.25 1417.99 355.88C1411.29 355.16 1404.5 354.78 1397.61 354.78C1294.59 354.78 1211.08 437.7 1211.08 539.99C1211.08 642.28 1294.59 725.2 1397.61 725.2C1500.63 725.2 1584.14 642.28 1584.14 539.99C1584.14 534.63 1583.9 529.34 1583.45 524.1C1574.97 426.37 1633.21 354.29 1762 378.69C1778.59 382.14 1795.79 383.96 1813.41 383.96C1951.34 383.96 2063.16 272.94 2063.16 135.99C2063.16 -0.959991 1951.35 -112 1813.41 -112C1675.47 -112 1563.66 -0.979996 1563.66 135.97Z" fill="url(#paint3_linear)"/>
<defs>
<linearGradient id="paint0_linear" x1="684.162" y1="446.659" x2="-32.4919" y2="458.268" gradientUnits="userSpaceOnUse">
<stop offset="0.182292" stop-color="#060505"/>
<stop offset="1" stop-color="#636363"/>
</linearGradient>
<linearGradient id="paint1_linear" x1="1618.66" y1="530.429" x2="1914.72" y2="530.429" gradientUnits="userSpaceOnUse">
<stop stop-color="#060505"/>
<stop offset="0.5716" stop-color="#201F1F"/>
<stop offset="1" stop-color="#636363"/>
</linearGradient>
<linearGradient id="paint2_linear" x1="1318.45" y1="-66.4668" x2="1318" y2="459" gradientUnits="userSpaceOnUse">
<stop offset="0.286044" stop-color="#060505"/>
<stop offset="1" stop-color="#636363"/>
</linearGradient>
<linearGradient id="paint3_linear" x1="1637.12" y1="725.191" x2="1637.12" y2="-112" gradientUnits="userSpaceOnUse">
<stop offset="0.2569" stop-color="#060505"/>
<stop offset="0.3853" stop-color="#0D0C0C"/>
<stop offset="0.5716" stop-color="#201F1F"/>
<stop offset="0.7921" stop-color="#3F3F3F"/>
<stop offset="1" stop-color="#636363"/>
</linearGradient>
</defs>
</svg>
