<svg width="49" height="42" viewBox="0 0 49 42" fill="none" xmlns="http://www.w3.org/2000/svg">
<path d="M18.3903 39.2101C16.9288 39.2101 17.1911 38.648 16.6665 37.2615L12.3945 23.1715L38.9257 6.60828L42.036 7.43269L39.4503 14.4777L18.3903 39.2101Z" fill="white" fill-opacity="0.5"/>
<path d="M18.3887 39.2101C19.5129 39.2101 20 38.6855 20.6371 38.0859C21.6114 37.1491 34.1275 24.9702 34.1275 24.9702L26.4454 23.0966L19.3255 27.5934L18.3887 38.8354V39.2101Z" fill="white" fill-opacity="0.5"/>
<path d="M19.139 27.7432L37.2761 41.1213C39.3372 42.2455 40.8361 41.6834 41.3607 39.2101L48.743 4.4348C49.4925 1.39945 47.5813 0.0504146 45.5952 0.949776L2.27598 17.6629C-0.684414 18.8621 -0.646941 20.5109 1.75136 21.2229L12.881 24.7079L38.6252 8.48193C39.8243 7.73246 40.9485 8.14467 40.0492 8.96908L19.139 27.7432Z" fill="url(#paint0_linear)"/>
<defs>
<linearGradient id="paint0_linear" x1="30.0029" y1="20.0069" x2="39.3713" y2="34.9962" gradientUnits="userSpaceOnUse">
<stop stop-color="#EFF7FC"/>
<stop offset="1" stop-color="white"/>
</linearGradient>
</defs>
</svg>
