<svg width="35" height="36" viewBox="0 0 35 36" fill="none" xmlns="http://www.w3.org/2000/svg">
<path d="M34.0265 0.230255H8.19707V5.44667H4.2665V10.6631H0.335938V36H26.1654V30.7836H30.0959V25.5672H34.0265V0.230255ZM25.0423 34.5096H1.45896V12.1535H4.2665V30.7836H25.0423V34.5096ZM28.9729 29.2932H26.1654H22.7963H19.4273H16.0582H12.6891H9.32009H5.95103H5.38952V28.548V24.0767V19.6055V15.1343V10.6631V6.93708H8.19707V8.42749V12.8987V17.3699V21.8411V25.5672H11.0046H14.3737H17.7427H21.1118H24.4808H27.8499H28.9729V29.2932ZM32.9035 24.0767H30.0959H9.32009V5.44667V1.72066H32.9035V24.0767Z" fill="white"/>
<path d="M16.6758 9.59464L21.8506 3.43872L23.9814 9.61132" stroke="white" stroke-miterlimit="10" stroke-linecap="round" stroke-linejoin="round"/>
<path d="M23.9042 18.392L20.8808 21.9733L18.75 15.7951" stroke="white" stroke-miterlimit="10" stroke-linecap="round" stroke-linejoin="round"/>
<path d="M26.1057 15.7951L23.9102 18.392" stroke="white" stroke-miterlimit="10"/>
<path d="M23.9724 9.61107H27.6871L29.8179 15.7948H22.4607L20.3299 9.61107H12.9727L15.1035 15.7948H18.7563" stroke="white" stroke-miterlimit="10" stroke-linecap="round" stroke-linejoin="round"/>
<path d="M23.9686 9.61107L18.7422 15.7948" stroke="white" stroke-miterlimit="10"/>
</svg>
