<svg width="44" height="35" viewBox="0 0 44 35" fill="none" xmlns="http://www.w3.org/2000/svg">
<path d="M0.664062 20.4621V1H22.8366V20.4621H8.7268V26.3597L3.35164 20.4621H0.664062Z" fill="#040405" stroke="white" stroke-width="0.8" stroke-miterlimit="10"/>
<path d="M7.95312 7.92737L12.2969 3.74255L14.0855 7.93871" stroke="white" stroke-width="0.8" stroke-miterlimit="10" stroke-linecap="round" stroke-linejoin="round"/>
<path d="M14.0218 13.9076L11.4839 16.3421L9.69531 12.1422" stroke="white" stroke-width="0.8" stroke-miterlimit="10" stroke-linecap="round" stroke-linejoin="round"/>
<path d="M15.8547 12.1427L14.0117 13.9081" stroke="white" stroke-width="0.8" stroke-miterlimit="10"/>
<path d="M14.0652 7.9389H17.1834L18.972 12.1426H12.7963L11.0077 7.9389H4.83203L6.62064 12.1426H9.68683" stroke="white" stroke-width="0.8" stroke-miterlimit="10" stroke-linecap="round" stroke-linejoin="round"/>
<path d="M14.0707 7.93829L9.68359 12.142" stroke="white" stroke-width="0.8" stroke-miterlimit="10"/>
<path d="M12.7461 21.1576L22.9051 3.19934L43.3643 12.1224L33.2053 30.0807L29.5905 28.506L24.7999 33L25.3777 26.6719L12.7461 21.1576Z" fill="#040405" stroke="white" stroke-width="0.8" stroke-miterlimit="10"/>
<path d="M25.265 13.1315L31.2766 11.0808L30.7509 15.5372" stroke="white" stroke-width="0.8" stroke-miterlimit="10" stroke-linecap="round" stroke-linejoin="round"/>
<path d="M27.6668 20.8591L24.1598 22.0479L24.6875 17.5881" stroke="white" stroke-width="0.8" stroke-miterlimit="10" stroke-linecap="round" stroke-linejoin="round"/>
<path d="M30.2093 19.9982L27.6637 20.8587" stroke="white" stroke-width="0.8" stroke-miterlimit="10"/>
<path d="M30.7451 15.5331L33.5374 16.7512L33.0078 21.2144L27.4774 18.802L28.007 14.3388L22.4766 11.9264L21.947 16.3896L24.6928 17.5873" stroke="white" stroke-width="0.8" stroke-miterlimit="10" stroke-linecap="round" stroke-linejoin="round"/>
<path d="M30.7412 15.5359L24.6812 17.5867" stroke="white" stroke-width="0.8" stroke-miterlimit="10"/>
</svg>
