<svg width="439" height="102" viewBox="0 0 439 102" fill="none" xmlns="http://www.w3.org/2000/svg">
<path fill-rule="evenodd" clip-rule="evenodd" d="M129.501 59.8122H147.817V61.2823C147.817 64.6227 147.425 67.5794 146.64 70.1506C145.873 72.5318 144.581 74.7599 142.764 76.8331C138.649 81.4794 133.414 83.7997 127.059 83.7997C120.859 83.7997 115.549 81.555 111.128 77.0619C106.706 72.5502 104.496 67.1367 104.496 60.8193C104.496 54.3692 106.745 48.8966 111.242 44.4053C115.74 39.8937 121.214 37.6379 127.664 37.6379C131.127 37.6379 134.361 38.3462 137.365 39.759C140.237 41.1738 143.06 43.472 145.835 46.6519L141.07 51.2317C137.433 46.3734 133.002 43.9442 127.778 43.9442C123.089 43.9442 119.156 45.5673 115.979 48.8118C112.802 51.999 111.213 55.9923 111.213 60.7917C111.213 65.7441 112.984 69.8241 116.525 73.0317C119.835 76.0068 123.424 77.4935 127.291 77.4935C130.582 77.4935 133.539 76.3831 136.161 74.1623C138.783 71.9213 140.247 69.2412 140.554 66.1185H129.501V59.8122Z" fill="white"/>
<mask id="mask0" mask-type="alpha" maskUnits="userSpaceOnUse" x="0" y="0" width="439" height="102">
<path d="M0 101.157H438.765V0H0V101.157Z" fill="white"/>
</mask>
<g mask="url(#mask0)">
<path fill-rule="evenodd" clip-rule="evenodd" d="M171.512 82.9649H178.201V38.5018H171.512V82.9649Z" fill="white"/>
<path fill-rule="evenodd" clip-rule="evenodd" d="M216.368 44.8087V82.9655H209.679V44.8087H199.488V38.5024H226.531V44.8087H216.368Z" fill="white"/>
<path fill-rule="evenodd" clip-rule="evenodd" d="M278.956 40.8775V48.8125C275.089 45.5662 271.089 43.9449 266.956 43.9449C262.4 43.9449 258.562 45.5865 255.444 48.8697C252.305 52.1326 250.735 56.1259 250.735 60.8496C250.735 65.5143 252.305 69.4504 255.444 72.6561C258.582 75.8637 262.429 77.4665 266.984 77.4665C269.339 77.4665 271.338 77.081 272.985 76.3137C273.903 75.9301 274.855 75.4118 275.841 74.7588C276.826 74.1059 277.865 73.3183 278.956 72.3961V80.5044C275.127 82.6827 271.108 83.7728 266.899 83.7728C260.563 83.7728 255.157 81.5558 250.678 77.1198C246.219 72.6469 243.988 67.2518 243.988 60.9363C243.988 55.2719 245.855 50.2235 249.587 45.7875C254.18 40.3555 260.123 37.6368 267.416 37.6368C271.396 37.6368 275.243 38.7176 278.956 40.8775Z" fill="white"/>
<path fill-rule="evenodd" clip-rule="evenodd" d="M307.832 53.5193C307.832 58.4294 309.478 62.4669 312.769 65.6339C316.042 68.7972 319.823 70.3798 324.109 70.3798C328.761 70.3798 332.683 68.7677 335.88 65.5454C339.076 62.2862 340.674 58.315 340.674 53.6337C340.674 48.8971 339.094 44.9259 335.937 41.722C332.799 38.4997 328.913 36.8876 324.282 36.8876C319.67 36.8876 315.774 38.4997 312.596 41.722C309.419 44.9075 307.832 48.838 307.832 53.5193ZM301.086 53.4474C301.086 47.1891 303.371 41.8124 307.946 37.3193C312.501 32.8279 317.975 30.5814 324.368 30.5814C330.684 30.5814 336.099 32.8464 340.617 37.3783C345.153 41.9083 347.42 47.3514 347.42 53.7056C347.42 60.0986 345.142 65.5232 340.588 69.9777C336.015 74.4505 330.491 76.6879 324.024 76.6879C318.3 76.6879 313.163 74.6995 308.606 70.7247C303.592 66.3293 301.086 60.5708 301.086 53.4474Z" fill="#0FCE7C"/>
<path fill-rule="evenodd" clip-rule="evenodd" d="M367.125 82.9649H373.814V38.5018H367.125V82.9649Z" fill="white"/>
<path fill-rule="evenodd" clip-rule="evenodd" d="M399.75 82.9655V35.4775L432.077 69.4012V38.5024H438.764V85.6732L406.439 51.8344V82.9655H399.75Z" fill="white"/>
<path fill-rule="evenodd" clip-rule="evenodd" d="M42.6835 21.7364V12.2539C42.6835 10.7507 41.4662 9.5296 39.9658 9.5296C38.4654 9.5296 37.25 10.7507 37.25 12.2539V21.9448C38.6309 21.7917 40.0338 21.705 41.4552 21.705C41.8671 21.705 42.2753 21.7235 42.6835 21.7364Z" fill="white"/>
<path fill-rule="evenodd" clip-rule="evenodd" d="M55.8242 43.8488L56.2618 44.2748C60.4192 48.3253 62.7084 53.7592 62.7084 59.573C62.7084 65.1415 60.581 70.4112 56.7197 74.4118L56.5064 74.6295L58.2624 76.3375L62.6496 79.8199C67.8569 74.3362 70.7272 67.1556 70.7272 59.573C70.7272 51.6251 67.616 44.1974 61.9711 38.6326L59.2167 41.237L55.8242 43.8488Z" fill="#0FCE7C"/>
<path fill-rule="evenodd" clip-rule="evenodd" d="M62.2686 80.2264L62.48 80.0069C62.5389 79.946 62.594 79.8815 62.651 79.8206L58.2656 76.3364L62.2686 80.2264Z" fill="#0FCE7C"/>
<path fill-rule="evenodd" clip-rule="evenodd" d="M65.6153 93.7238H41.4525C22.6808 93.7238 7.40827 78.4036 7.40827 59.5732C7.40827 40.7411 22.6808 25.4226 41.4525 25.4226C49.2469 25.4226 56.6404 28.0307 62.6421 32.8375L46.0548 48.2112C44.6335 47.6302 43.0816 47.3074 41.4525 47.3074C34.7117 47.3074 29.2249 52.8095 29.2249 59.5732C29.2249 66.337 34.7117 71.8391 41.4525 71.8391C42.6532 71.8391 43.8134 71.662 44.9093 71.3374L65.6153 86.9712V93.7238ZM41.4525 64.4058C38.7973 64.4058 36.635 62.2385 36.635 59.5732C36.635 56.908 38.7973 54.7389 41.4525 54.7389C44.1113 54.7389 46.2718 56.908 46.2718 59.5732C46.2718 62.2385 44.1113 64.4058 41.4525 64.4058ZM53.6819 59.5732C53.6819 57.1643 52.9832 54.9178 51.7843 53.0216L61.6767 43.8527L61.7613 43.9413L73.4649 32.8744L70.7674 30.1685C62.9363 22.3147 52.5272 17.9894 41.4525 17.9894C18.5951 17.9894 0 36.6426 0 59.5732C0 82.2751 18.2329 100.775 40.7813 101.139V101.157H73.0254V83.2638L51.2879 66.8497C52.792 64.8134 53.6819 62.2957 53.6819 59.5732Z" fill="white"/>
<path fill-rule="evenodd" clip-rule="evenodd" d="M81.5993 14.2995L78.6297 17.2783L75.6602 14.2995L78.6297 11.3206L81.5993 14.2995Z" fill="#25E899"/>
<path fill-rule="evenodd" clip-rule="evenodd" d="M53.3195 14.6524L51.9 16.0763L50.4805 14.6524L51.9 13.2285L53.3195 14.6524Z" fill="#25E899"/>
<path fill-rule="evenodd" clip-rule="evenodd" d="M68.054 2.14747C68.054 0.961464 67.096 0.000488281 65.9137 0.000488281C64.7314 0.000488281 63.7734 0.961464 63.7734 2.14747C63.7734 3.33347 64.7314 4.29444 65.9137 4.29444C67.096 4.29444 68.054 3.33347 68.054 2.14747Z" fill="#25E899"/>
<path fill-rule="evenodd" clip-rule="evenodd" d="M27.1044 43.9619C25.604 43.9619 24.3867 42.7409 24.3867 41.2358V12.2553C24.3867 10.7483 25.604 9.52911 27.1044 9.52911C28.6048 9.52911 29.8202 10.7483 29.8202 12.2553V41.2358C29.8202 42.7409 28.6048 43.9619 27.1044 43.9619Z" fill="white"/>
</g>
</svg>
