<svg width="40" height="41" viewBox="0 0 40 41" fill="none" xmlns="http://www.w3.org/2000/svg">
<path d="M26.6726 1.00486L3.57812 26.0211L16.2801 39.7801L39.3746 14.7638L26.6726 1.00486Z" fill="#040405" stroke="white" stroke-width="0.75" stroke-miterlimit="10"/>
<path d="M9.7318 21.8459L5.87891 26.0157L16.273 37.2806L20.1205 33.105" fill="#040405"/>
<path d="M9.7318 21.8459L5.87891 26.0157L16.273 37.2806L20.1205 33.105" stroke="white" stroke-miterlimit="10"/>
<path d="M22.8398 7.79228L26.6873 3.6225L37.076 14.8815L33.2285 19.0513" fill="#040405"/>
<path d="M22.8398 7.79228L26.6873 3.6225L37.076 14.8815L33.2285 19.0513" stroke="white" stroke-width="0.75" stroke-miterlimit="10"/>
<path d="M21.4681 25.8458C24.173 25.8458 26.3658 23.4693 26.3658 20.5377C26.3658 17.6062 24.173 15.2297 21.4681 15.2297C18.7631 15.2297 16.5703 17.6062 16.5703 20.5377C16.5703 23.4693 18.7631 25.8458 21.4681 25.8458Z" fill="#040405" stroke="white" stroke-width="0.75" stroke-miterlimit="10"/>
<path d="M22.7555 20.3843L23.1637 20.8266C23.5882 21.2867 23.6208 21.7349 23.2072 22.2303L23.463 22.5075C23.5065 22.5547 23.5065 22.6196 23.463 22.6668L23.4249 22.6963C23.3759 22.7493 23.3215 22.7493 23.278 22.6963L23.0222 22.4191C22.5651 22.8614 22.1569 22.8319 21.727 22.3719L21.2862 21.8941C21.2427 21.847 21.2427 21.7821 21.2862 21.7349L21.3243 21.6936C21.3733 21.6405 21.4277 21.6405 21.4712 21.6936L21.8413 22.0947C22.2222 22.5075 22.5488 22.5665 22.946 22.1419C23.3433 21.7172 23.2889 21.3633 22.9025 20.9446L22.6467 20.6674C22.3855 20.3843 22.2005 20.4138 21.7814 20.5435L20.9924 20.7971C20.5897 20.9269 20.372 20.9033 20.1325 20.6379L19.7679 20.2427C19.3598 19.8004 19.3652 19.3109 19.7298 18.8508L19.4741 18.5737C19.4305 18.5265 19.4305 18.4616 19.4741 18.4144L19.5122 18.3731C19.5611 18.32 19.6155 18.32 19.6591 18.3731L19.9149 18.6503C20.3339 18.2552 20.7856 18.267 21.1883 18.6975L21.5964 19.1398C21.64 19.187 21.64 19.2519 21.5964 19.2991L21.5583 19.3404C21.5093 19.3935 21.4549 19.3935 21.4114 19.3404L21.0794 18.9806C20.6931 18.5619 20.3829 18.5147 19.991 18.9393C19.5992 19.364 19.6428 19.7001 20.0291 20.1189L20.2577 20.3666C20.5189 20.6497 20.6713 20.6084 21.0794 20.4787L21.8848 20.2133C22.1896 20.113 22.5379 20.1484 22.7555 20.3843Z" fill="white" stroke="white" stroke-width="0.5" stroke-miterlimit="10"/>
<path d="M33.9759 20.537H1.32422V40H33.9759V20.537Z" fill="#040405" stroke="white" stroke-width="0.75" stroke-miterlimit="10"/>
<path d="M8.82866 38.0949H3.38672V22.1707H8.82866" fill="#040405"/>
<path d="M8.82866 38.0949H3.38672V22.1707H8.82866" stroke="white" stroke-width="0.75" stroke-miterlimit="10"/>
<path d="M26.3086 22.2773H31.7505V38.2015H26.3086" fill="#040405"/>
<path d="M26.3086 22.2773H31.7505V38.2015H26.3086" stroke="white" stroke-width="0.75" stroke-miterlimit="10"/>
<path d="M17.5579 35.683C20.2629 35.683 22.4557 33.3065 22.4557 30.375C22.4557 27.4434 20.2629 25.0669 17.5579 25.0669C14.853 25.0669 12.6602 27.4434 12.6602 30.375C12.6602 33.3065 14.853 35.683 17.5579 35.683Z" fill="#040405" stroke="white" stroke-width="0.75" stroke-miterlimit="10"/>
<path d="M18.5692 31.2472V31.8724C18.5692 32.5212 18.2974 32.8632 17.6885 32.8986V33.2879C17.6885 33.3586 17.6504 33.3999 17.5852 33.3999H17.5308C17.4656 33.3999 17.4276 33.3586 17.4276 33.2879V32.8986C16.8187 32.8632 16.5469 32.533 16.5469 31.8724V31.1941C16.5469 31.1234 16.5849 31.0821 16.6502 31.0821H16.7045C16.7698 31.0821 16.8078 31.1234 16.8078 31.1941V31.7603C16.8078 32.3501 16.9981 32.6391 17.558 32.6391C18.118 32.6391 18.3082 32.3501 18.3082 31.7603V31.3652C18.3082 30.97 18.156 30.8403 17.7755 30.6161L17.0524 30.1915C16.6828 29.9733 16.5469 29.7904 16.5469 29.4189V28.8586C16.5469 28.2334 16.8676 27.8913 17.4276 27.8442V27.4549C17.4276 27.3841 17.4656 27.3428 17.5308 27.3428H17.5852C17.6504 27.3428 17.6885 27.3841 17.6885 27.4549V27.8442C18.243 27.8854 18.5583 28.2393 18.5583 28.8586V29.4838C18.5583 29.5545 18.5202 29.5958 18.455 29.5958H18.4006C18.3354 29.5958 18.2974 29.5545 18.2974 29.4838V28.9765C18.2974 28.3809 18.1071 28.1155 17.5526 28.1155C16.9981 28.1155 16.8078 28.3868 16.8078 28.9765V29.3245C16.8078 29.7197 16.9383 29.814 17.3134 30.0323L18.0582 30.4628C18.3463 30.6279 18.5692 30.9169 18.5692 31.2472Z" fill="white" stroke="white" stroke-width="0.5" stroke-miterlimit="10"/>
</svg>
