<svg width="39" height="40" viewBox="0 0 39 40" fill="none" xmlns="http://www.w3.org/2000/svg">
<path d="M25.1477 1.00002L2.65234 25.38L15.0248 38.789L37.5202 14.409L25.1477 1.00002Z" fill="#17181A" stroke="white" stroke-width="0.75" stroke-miterlimit="10"/>
<path d="M8.64853 21.312L4.89453 25.3748L15.0218 36.3505L18.7705 32.282" fill="#17181A"/>
<path d="M8.64853 21.312L4.89453 25.3748L15.0218 36.3505L18.7705 32.282" stroke="white" stroke-miterlimit="10"/>
<path d="M21.4219 7.61903L25.1706 3.55627L35.2926 14.5263L31.5439 18.589" fill="#17181A"/>
<path d="M21.4219 7.61903L25.1706 3.55627L35.2926 14.5263L31.5439 18.589" stroke="white" stroke-width="0.75" stroke-miterlimit="10"/>
<path d="M20.0884 25.2092C22.724 25.2092 24.8605 22.8937 24.8605 20.0374C24.8605 17.1811 22.724 14.8656 20.0884 14.8656C17.4529 14.8656 15.3164 17.1811 15.3164 20.0374C15.3164 22.8937 17.4529 25.2092 20.0884 25.2092Z" fill="#17181A" stroke="white" stroke-width="0.75" stroke-miterlimit="10"/>
<path d="M21.3424 19.8878L21.74 20.3188C22.1536 20.767 22.1854 21.2037 21.7824 21.6864L22.0317 21.9565C22.0741 22.0025 22.0741 22.0657 22.0317 22.1117L21.9945 22.1404C21.9468 22.1921 21.8938 22.1921 21.8514 22.1404L21.6022 21.8703C21.1568 22.3013 20.7591 22.2726 20.3402 21.8244L19.9107 21.3589C19.8683 21.3129 19.8683 21.2497 19.9107 21.2037L19.9479 21.1635C19.9956 21.1118 20.0486 21.1118 20.091 21.1635L20.4516 21.5543C20.8227 21.9565 21.1409 22.014 21.5279 21.6003C21.915 21.1865 21.862 20.8417 21.4855 20.4337L21.2363 20.1636C20.9818 19.8878 20.8015 19.9165 20.3933 20.043L19.6244 20.2901C19.2321 20.4165 19.02 20.3935 18.7867 20.1349L18.4314 19.7499C18.0337 19.3189 18.0391 18.8419 18.3943 18.3937L18.1451 18.1236C18.1027 18.0777 18.1027 18.0145 18.1451 17.9685L18.1822 17.9283C18.2299 17.8765 18.283 17.8765 18.3254 17.9283L18.5746 18.1983C18.9829 17.8133 19.4229 17.8248 19.8153 18.2443L20.213 18.6753C20.2554 18.7213 20.2554 18.7845 20.213 18.8304L20.1759 18.8707C20.1281 18.9224 20.0751 18.9224 20.0327 18.8707L19.7093 18.5201C19.3328 18.1121 19.0306 18.0662 18.6488 18.4799C18.267 18.8937 18.3095 19.2212 18.6859 19.6292L18.9086 19.8706C19.1631 20.1464 19.3116 20.1062 19.7093 19.9797L20.494 19.7212C20.7909 19.6235 21.1303 19.6579 21.3424 19.8878Z" fill="white" stroke="white" stroke-width="0.5" stroke-miterlimit="10"/>
<path d="M32.2823 20.0366H0.46875V39H32.2823V20.0366Z" fill="#17181A" stroke="white" stroke-width="0.75" stroke-miterlimit="10"/>
<path d="M7.77883 37.1438H2.47656V21.6284H7.77883" fill="#17181A"/>
<path d="M7.77883 37.1438H2.47656V21.6284H7.77883" stroke="white" stroke-width="0.75" stroke-miterlimit="10"/>
<path d="M24.8125 21.7322H30.1148V37.2477H24.8125" fill="#17181A"/>
<path d="M24.8125 21.7322H30.1148V37.2477H24.8125" stroke="white" stroke-width="0.75" stroke-miterlimit="10"/>
<path d="M16.2798 34.7939C18.9154 34.7939 21.0519 32.4784 21.0519 29.6221C21.0519 26.7658 18.9154 24.4503 16.2798 24.4503C13.6443 24.4503 11.5078 26.7658 11.5078 29.6221C11.5078 32.4784 13.6443 34.7939 16.2798 34.7939Z" fill="#17181A" stroke="white" stroke-width="0.75" stroke-miterlimit="10"/>
<path d="M17.2634 30.4719V31.081C17.2634 31.7131 16.9985 32.0464 16.4053 32.0809V32.4602C16.4053 32.5291 16.3682 32.5694 16.3046 32.5694H16.2517C16.1881 32.5694 16.151 32.5291 16.151 32.4602V32.0809C15.5578 32.0464 15.293 31.7246 15.293 31.081V30.4202C15.293 30.3512 15.33 30.311 15.3936 30.311H15.4466C15.5101 30.311 15.5472 30.3512 15.5472 30.4202V30.9718C15.5472 31.5465 15.7326 31.8281 16.2782 31.8281C16.8237 31.8281 17.0091 31.5465 17.0091 30.9718V30.5868C17.0091 30.2018 16.8608 30.0754 16.49 29.857L15.7856 29.4433C15.4254 29.2307 15.293 29.0525 15.293 28.6905V28.1446C15.293 27.5354 15.6055 27.2021 16.151 27.1562V26.7769C16.151 26.7079 16.1881 26.6677 16.2517 26.6677H16.3046C16.3682 26.6677 16.4053 26.7079 16.4053 26.7769V27.1562C16.9456 27.1964 17.2528 27.5412 17.2528 28.1446V28.7537C17.2528 28.8227 17.2157 28.8629 17.1521 28.8629H17.0992C17.0356 28.8629 16.9985 28.8227 16.9985 28.7537V28.2595C16.9985 27.6791 16.8131 27.4205 16.2729 27.4205C15.7326 27.4205 15.5472 27.6849 15.5472 28.2595V28.5985C15.5472 28.9836 15.6743 29.0755 16.0398 29.2881L16.7655 29.7076C17.0462 29.8685 17.2634 30.1501 17.2634 30.4719Z" fill="white" stroke="white" stroke-width="0.5" stroke-miterlimit="10"/>
</svg>
