<svg width="24" height="30" viewBox="0 0 24 30" fill="none" xmlns="http://www.w3.org/2000/svg">
<path d="M16.207 0H0V30H23.5V7.293L16.207 0ZM16.5 1.707L21.793 7H16.5V1.707ZM1 29V1H15.5V8H22.5V29H1Z" fill="#666666"/>
<path d="M5 8.5H9.5C9.776 8.5 10 8.2765 10 8C10 7.7235 9.776 7.5 9.5 7.5H5C4.724 7.5 4.5 7.7235 4.5 8C4.5 8.2765 4.724 8.5 5 8.5Z" fill="#666666"/>
<path d="M13.5 18.5H5C4.724 18.5 4.5 18.7235 4.5 19C4.5 19.2765 4.724 19.5 5 19.5H13.5C13.776 19.5 14 19.2765 14 19C14 18.7235 13.776 18.5 13.5 18.5Z" fill="#666666"/>
<path d="M18.5 15H15C14.724 15 14.5 15.2235 14.5 15.5C14.5 15.7765 14.724 16 15 16H18.5C18.776 16 19 15.7765 19 15.5C19 15.2235 18.776 15 18.5 15Z" fill="#666666"/>
<path d="M5 12.5H7.5C7.776 12.5 8 12.2765 8 12C8 11.7235 7.776 11.5 7.5 11.5H5C4.724 11.5 4.5 11.7235 4.5 12C4.5 12.2765 4.724 12.5 5 12.5Z" fill="#666666"/>
<path d="M12.5 12.5H16C16.276 12.5 16.5 12.2765 16.5 12C16.5 11.7235 16.276 11.5 16 11.5H12.5C12.224 11.5 12 11.7235 12 12C12 12.2765 12.224 12.5 12.5 12.5Z" fill="#666666"/>
<path d="M9.5 12.0001C9.5 12.1301 9.555 12.2601 9.645 12.3551C9.74 12.4451 9.87 12.5001 10 12.5001C10.13 12.5001 10.26 12.4451 10.355 12.3551C10.445 12.2601 10.5 12.1301 10.5 12.0001C10.5 11.8696 10.445 11.7396 10.355 11.6451C10.17 11.4601 9.835 11.4601 9.645 11.6451C9.555 11.7396 9.5 11.8696 9.5 12.0001Z" fill="#666666"/>
<path d="M7.5 15C7.224 15 7 15.2235 7 15.5C7 15.7765 7.224 16 7.5 16H12.5C12.776 16 13 15.7765 13 15.5C13 15.2235 12.776 15 12.5 15H7.5Z" fill="#666666"/>
<path d="M5 16.0006C5.13 16.0006 5.26 15.9456 5.355 15.8556C5.445 15.7606 5.5 15.6306 5.5 15.5006C5.5 15.3701 5.445 15.2401 5.355 15.1456C5.17 14.9606 4.83 14.9606 4.645 15.1456C4.555 15.2401 4.5 15.3651 4.5 15.5006C4.5 15.6306 4.555 15.7606 4.645 15.8556C4.74 15.9456 4.87 16.0006 5 16.0006Z" fill="#666666"/>
<path d="M18.5 22H15C14.724 22 14.5 22.2235 14.5 22.5C14.5 22.7765 14.724 23 15 23H18.5C18.776 23 19 22.7765 19 22.5C19 22.2235 18.776 22 18.5 22Z" fill="#666666"/>
<path d="M12.5 22H7.5C7.224 22 7 22.2235 7 22.5C7 22.7765 7.224 23 7.5 23H12.5C12.776 23 13 22.7765 13 22.5C13 22.2235 12.776 22 12.5 22Z" fill="#666666"/>
<path d="M4.645 22.145C4.555 22.235 4.5 22.3645 4.5 22.5C4.5 22.635 4.55 22.76 4.645 22.855C4.74 22.945 4.87 23 5 23C5.135 23 5.26 22.945 5.355 22.855C5.445 22.76 5.5 22.63 5.5 22.5C5.5 22.3645 5.445 22.2395 5.355 22.15C5.17 21.96 4.835 21.96 4.645 22.145Z" fill="#666666"/>
<path d="M18.145 11.6451C18.055 11.7396 18 11.8696 18 12.0001C18 12.1301 18.055 12.2601 18.145 12.3551C18.24 12.4451 18.37 12.5001 18.5 12.5001C18.63 12.5001 18.76 12.4451 18.855 12.3551C18.95 12.2601 19 12.1301 19 12.0001C19 11.8696 18.95 11.7396 18.855 11.6451C18.665 11.4601 18.335 11.4601 18.145 11.6451Z" fill="#666666"/>
<path d="M16.355 19.3546C16.445 19.2596 16.5 19.1296 16.5 18.9996C16.5 18.8691 16.445 18.7391 16.355 18.6446C16.165 18.4596 15.83 18.4596 15.645 18.6446C15.555 18.7391 15.5 18.8691 15.5 18.9996C15.5 19.1296 15.555 19.2596 15.645 19.3546C15.74 19.4491 15.865 19.4996 16 19.4996C16.135 19.4996 16.26 19.4446 16.355 19.3546Z" fill="#666666"/>
<path d="M18.145 18.6446C18.055 18.7391 18 18.8691 18 18.9996C18 19.1296 18.055 19.2596 18.145 19.3546C18.24 19.4446 18.365 19.4996 18.5 19.4996C18.635 19.4996 18.76 19.4446 18.855 19.3546C18.945 19.2596 19 19.1296 19 18.9996C19 18.8691 18.945 18.7391 18.855 18.6446C18.67 18.4596 18.33 18.4596 18.145 18.6446Z" fill="#666666"/>
</svg>
