<svg width="32" height="31" viewBox="0 0 32 31" fill="none" xmlns="http://www.w3.org/2000/svg">
<path d="M26.3772 12.6625L32 9.58077L16.0003 0.864502L0 9.58077L5.62284 12.6625L0 15.7253L5.62284 18.807L0 21.8698L16.0003 30.6386L32 21.8698L26.3772 18.807L32 15.7253L26.3772 12.6625ZM16.0003 2.14926L29.6469 9.58356L16.0003 17.0631L2.35314 9.58356L16.0003 2.14926ZM6.79854 13.3066L16.0003 18.3495L25.202 13.3066L29.6469 15.7281L16.0003 23.2076L2.35314 15.7281L6.79854 13.3066ZM29.6469 21.8726L16.0003 29.3521L2.35314 21.8726L6.79854 19.4511L16.0003 24.4941L25.202 19.4511L29.6469 21.8726Z" fill="black"/>
</svg>
