<svg width="32" height="32" viewBox="0 0 32 32" fill="none" xmlns="http://www.w3.org/2000/svg">
<path d="M16.9046 18.2283H16.8996V18.2186V18.2067V18.1949V18.183V18.1712V18.1593V18.1475V18.1356V18.1238V18.1119V18.1001V18.0882V18.0763V18.0645V18.0526V18.0408V18.0289V18.0171V18.0052V17.9934V17.9815V17.9697V17.9578V17.9459V17.9341V17.9222V17.9104V17.8985V17.8867V17.8748V17.863V17.8511V17.8393V17.8274V17.8155V17.8037V17.7918V17.78V17.7681V17.7563V17.7444V17.7326V17.7207V17.7088V17.697V17.6851V17.6733V17.6614V17.6496V17.6377V17.6259V17.614V17.6022V17.5903V17.5784V17.5666V17.5547V17.5429V17.531V17.5192V17.5073V17.4955V17.4836V17.4718V17.4599V17.448V17.4362V17.4243V17.4125V17.4006V17.3888V17.3769V17.3651V17.3532V17.3414V17.3295V17.3176V17.3058V17.2939V17.2821V17.2702V17.2584V17.2465V17.2347V17.2228V17.211V17.1991V17.1872V17.1754V17.1635V17.1517V17.1398V17.128V17.1161V17.1043V17.0924V17.0806V17.0687V17.0568V17.045V17.0331V17.0213V17.0094V16.9976V16.9857V16.9739V16.962V16.9502V16.9383V16.9264V16.9146V16.9027V16.8909V16.879V16.8672V16.8553V16.8435V16.8316V16.8197V16.8079V16.796V16.7842V16.7723V16.7605V16.7486V16.7368V16.7249V16.7131V16.7012V16.6894V16.6775V16.6656V16.6538V16.6419V16.6301V16.6182V16.6064V16.5945V16.5827V16.5708V16.5589V16.5471V16.5352V16.5234V16.5115V16.4997V16.4878V16.476V16.4641V16.4523V16.4404V16.4285V16.4167V16.4048V16.393V16.3811V16.3693V16.3574V16.3456V16.3337V16.3219V16.31V16.2981V16.2863V16.2744V16.2626V16.2507V16.2389V16.227V16.2152V16.2033V16.1915V16.1796V16.1677V16.1559V16.144V16.1322V16.1203V16.1085V16.0966V16.0848V16.0729V16.0611V16.0492V16.0373V16.0255V16.0136V16.0018V15.9899V15.9781V15.9662V15.9544V15.9425V15.9307V15.9188V15.9069V15.8951V15.8832V15.8714V15.8595V15.8477V15.8358V15.824V15.8121V15.8003V15.7884V15.7765V15.7647V15.7528V15.741V15.7291V15.7173V15.7054V15.6936V15.6817V15.6698V15.658V15.6461V15.6343V15.6224V15.6106V15.5987V15.5869V15.575V15.5632V15.5513V15.5394V15.5276V15.5157V15.5039V15.492V15.4802V15.4683V15.4565V15.4446V15.4328V15.4209V15.409V15.3972V15.3853V15.3735V15.3616V15.3498V15.3379V15.3261V15.3142V15.3024V15.2905V15.2786V15.2668V15.2549V15.2431V15.2312V15.2194V15.2075V15.1957V15.1838V15.172V15.1601V15.1482V15.1364V15.1245V15.1127V15.1008V15.089V15.0771V15.0653V15.0534V15.0416V15.0297V15.0178V15.006V14.9941V14.9823V14.9704V14.9586V14.9467V14.9349V14.923V14.9112V14.8993V14.8874V14.8756V14.8637V14.8519V14.84V14.8282V14.8163V14.8045V14.7926V14.7808V14.7689V14.757V14.7452V14.7333V14.7215V14.7096V14.6978V14.6859V14.6741V14.6622V14.6503V14.6385V14.6266V14.6148V14.6029V14.5911V14.5792V14.5674V14.5555V14.5437V14.5318V14.5199V14.5081V14.4962V14.4844V14.4725V14.4607V14.4488V14.437V14.4251V14.4133V14.4014V14.3895V14.3777V14.3658V14.354V14.3421V14.3303V14.3184V14.3066V14.2947V14.2829V14.271V14.2591V14.2473V14.2354V14.2236V14.2117V14.1999V14.188V14.1762V14.1643V14.1525V14.1406V14.1287V14.1169V14.105V14.0932V14.0813V14.0695V14.0576V14.0458V14.0339V14.0221V14.0102V13.9983V13.9865V13.9746V13.9628V13.9509V13.9391V13.9272V13.9154V13.9035V13.8917V13.8798V13.8679V13.8561V13.8442V13.8324V13.8205V13.8087V13.7968V13.785V13.7731V13.7612V13.7494V13.7375V13.7257V13.7138V13.702V13.6901V13.6783V13.6664V13.6546V13.6427V13.6308V13.619V13.6071V13.5953V13.5834V13.5716V13.5597V13.5479V13.536V13.5242V13.5123V13.5004V13.4886V13.4767V13.4649V13.453V13.4412V13.4293V13.4175V13.4056V13.3938V13.3819V13.37V13.3582V13.3463V13.3345V13.3226V13.3108V13.2989V13.2871V13.2752V13.2634V13.2515V13.2396V13.2278V13.2159V13.2041V13.1922V13.1804V13.1685V13.1588H16.906H16.9358H16.9657H16.9955H17.0253H17.0551H17.0849H17.1147H17.1446H17.1744H17.2042H17.234H17.2639H17.2937H17.3235H17.3534H17.3832H17.4131H17.4429H17.4727H17.5026H17.5324H17.5623H17.5921H17.622H17.6519H17.6817H17.7116H17.7414H17.7713H17.8012H17.831H17.8609H17.8908H17.9206H17.9505H17.9804H18.0103H18.0401H18.07H18.0999H18.1298H18.1597H18.1896H18.2194H18.2493H18.2792H18.3091H18.339H18.3689H18.3988H18.4287H18.4586H18.4885H18.5184H18.5483H18.5782H18.6082H18.6381H18.668H18.6979H18.7278H18.7577H18.7876H18.8176H18.8475H18.8774H18.9073H18.9373H18.9672H18.9971H19.0271H19.057H19.0869H19.1169H19.1468H19.1767H19.2067H19.2366H19.2666H19.2965H19.3264H19.3564H19.3863H19.4163H19.4462H19.4762H19.5061H19.5361H19.566H19.596H19.626H19.6559H19.6859H19.7158H19.7458H19.7758H19.8057H19.8357H19.8657H19.8956H19.9256H19.9556H19.9856H20.0155H20.0455H20.0755H20.1055H20.1354H20.1654H20.1954H20.2254H20.2554H20.2854H20.3153H20.3453H20.3753H20.4053H20.4353H20.4653H20.4953H20.5253H20.5553H20.5852H20.6152H20.6452H20.6752H20.7052H20.7352H20.7652H20.7952H20.8252H20.8552H20.8852H20.9153H20.9453H20.9753H21.0053H21.0353H21.0653H21.0953H21.1253H21.1553H21.1853H21.2154H21.2454H21.2754H21.3054H21.3354H21.3654H21.3955H21.4255H21.4555H21.4855H21.5155H21.5456H21.5756H21.6056H21.6356H21.6656H21.6957H21.7257H21.7557H21.7858H21.8158H21.8458H21.8758H21.9059H21.9359H21.9659H21.996H22.026H22.056H22.0861H22.1161H22.1461H22.1762H22.2062H22.2362H22.2663H22.2963H22.3264H22.3564H22.3864H22.4165H22.4465H22.4766H22.5066H22.5366H22.5667H22.5967H22.6268H22.6568H22.6868H22.7169H22.7469H22.777H22.807H22.8371H22.8671H22.8972H22.9272H22.9573H22.9873H23.0174H23.0474H23.0774H23.1075H23.1375H23.1676H23.1976H23.2277H23.2577H23.2878H23.3178H23.3479H23.3779H23.408H23.438H23.4681H23.4981H23.5282H23.5582H23.5883H23.6183H23.6484H23.6785H23.7085H23.7386H23.7686H23.7987H23.8287H23.8588H23.8888H23.9189H23.9489H23.979H24.009H24.0391H24.0691H24.0992H24.1292H24.1593H24.1893H24.2194H24.2495H24.2795H24.3096H24.3396H24.3697H24.3997H24.4298H24.4598H24.4899H24.5199H24.55H24.58H24.6101H24.6401H24.6702H24.7002H24.7303H24.7603H24.7904H24.8204H24.8505H24.8805H24.9106H24.9406H24.9707H25.0007H25.0308H25.0608H25.0909H25.1209H25.151H25.181H25.2111H25.2411H25.2712H25.3012H25.3312H25.3613H25.3913H25.4214H25.4514H25.4815H25.5115H25.5416H25.5716H25.6016H25.6317H25.6617H25.6918H25.7218H25.7518H25.7819H25.8119H25.842H25.872H25.902H25.9321H25.9621H25.9921H26.0222H26.0522H26.0822H26.1123H26.1423H26.1723H26.2024H26.2324H26.2624H26.2925H26.3225H26.3525H26.3825H26.4126H26.4426H26.4726H26.5026H26.5327H26.5627H26.5927H26.6227H26.6528H26.6828H26.7128H26.7428H26.7728H26.8029H26.8329H26.8629H26.8929H26.9229H26.9529H26.9829H27.013H27.043H27.073H27.103H27.133H27.163H27.193H27.223H27.253H27.283H27.313H27.343H27.373H27.403H27.433H27.463H27.493H27.523H27.553H27.583H27.613H27.643H27.673H27.703H27.733H27.763H27.793H27.8229H27.8529H27.8829H27.9129H27.9429H27.9729H28.0028H28.0328H28.0628H28.0928H28.1227H28.1527H28.1827H28.2127H28.2426H28.2726H28.3026H28.3325H28.3625H28.3925H28.4224H28.4524H28.4823H28.5123H28.5423H28.5722H28.6022H28.6321H28.6621H28.692H28.722H28.7519H28.7819H28.8118H28.8418H28.8717H28.9017H28.9316H28.9615H28.9915H29.0214H29.0514H29.0813H29.1112H29.1412H29.1711H29.201H29.2309H29.2609H29.2908H29.3207H29.3506H29.3805H29.4105H29.4404H29.4703H29.5002H29.5301H29.56H29.5899H29.6198H29.6498H29.6797H29.7096H29.7395H29.7694H29.7993H29.8291H29.859H29.8889H29.9188H29.9487H29.9786H30.0085H30.0384H30.0683H30.0981H30.128H30.1579H30.1878H30.2176H30.2475H30.2774H30.3072H30.3371H30.367H30.3968H30.4267H30.4566H30.4864H30.5163H30.5461H30.576H30.6058H30.6357H30.6655H30.6954H30.7252H30.7551H30.7849H30.8147H30.8446H30.8744H30.9042H30.9341H30.9639H30.9937H31.0235H31.0534H31.0832H31.113H31.1428H31.1726H31.2024H31.2322H31.262H31.2918H31.309C31.6925 15.8765 31.4897 18.5124 30.7795 21.0705C30.0348 23.4779 28.7385 25.6886 26.8096 27.3629C24.9599 28.9596 22.736 30.028 20.318 30.5632L20.318 30.5632L20.3133 30.5643C17.6058 31.1912 14.8144 31.1889 12.2177 30.4773L12.2177 30.4772L12.212 30.4757C10.165 29.9402 8.11519 28.9569 6.44208 27.709C4.68193 26.3756 3.19615 24.5946 2.17502 22.6356C0.599438 19.6128 0.134771 16.1432 0.783625 12.8501C1.06073 11.5223 1.52257 10.2796 2.17381 9.02974C4.03007 5.55897 7.28321 2.79224 11.1918 1.45285C14.627 0.295365 18.4447 0.381914 21.8962 1.5452L21.8967 1.54539C23.5864 2.11269 25.2061 3.05372 26.6092 4.23477C26.4102 4.43291 26.2003 4.62256 25.9761 4.82517C25.7801 5.00233 25.573 5.1894 25.3528 5.40069L22.7155 7.93049C21.7469 7.11548 20.5695 6.53676 19.3419 6.11618L19.3327 6.11303L19.3234 6.11025C17.7176 5.62887 15.9054 5.52872 14.2786 5.91694C12.3646 6.30531 10.5573 7.27031 9.1509 8.61941C8.04466 9.68058 7.1356 11.0339 6.62801 12.4946C5.91999 14.5322 5.91999 16.8549 6.62801 18.8925C7.33325 20.922 8.74119 22.7593 10.5613 23.9262C11.6624 24.6928 12.972 25.2758 14.3942 25.4744C15.7246 25.7648 17.1322 25.662 18.4807 25.4772L18.4807 25.4773L18.4859 25.4765C19.8035 25.282 21.1165 24.7967 22.3253 24.0236C24.1571 22.8521 25.4997 20.9845 25.8105 18.7987L25.8915 18.2283H25.3154H25.298H25.2806H25.2632H25.2458H25.2284H25.2109H25.1935H25.1761H25.1587H25.1413H25.1239H25.1065H25.0891H25.0716H25.0542H25.0368H25.0194H25.002H24.9846H24.9672H24.9497H24.9323H24.9149H24.8975H24.8801H24.8627H24.8453H24.8278H24.8104H24.793H24.7756H24.7582H24.7408H24.7234H24.706H24.6885H24.6711H24.6537H24.6363H24.6189H24.6015H24.5841H24.5666H24.5492H24.5318H24.5144H24.497H24.4796H24.4622H24.4447H24.4273H24.4099H24.3925H24.3751H24.3577H24.3403H24.3228H24.3054H24.288H24.2706H24.2532H24.2358H24.2184H24.201H24.1835H24.1661H24.1487H24.1313H24.1139H24.0965H24.0791H24.0616H24.0442H24.0268H24.0094H23.992H23.9746H23.9572H23.9397H23.9223H23.9049H23.8875H23.8701H23.8527H23.8353H23.8179H23.8004H23.783H23.7656H23.7482H23.7308H23.7134H23.696H23.6785H23.6611H23.6437H23.6263H23.6089H23.5915H23.5741H23.5566H23.5392H23.5218H23.5044H23.487H23.4696H23.4522H23.4347H23.4173H23.3999H23.3825H23.3651H23.3477H23.3303H23.3129H23.2954H23.278H23.2606H23.2432H23.2258H23.2084H23.191H23.1735H23.1561H23.1387H23.1213H23.1039H23.0865H23.0691H23.0516H23.0342H23.0168H22.9994H22.982H22.9646H22.9472H22.9298H22.9123H22.8949H22.8775H22.8601H22.8427H22.8253H22.8079H22.7904H22.773H22.7556H22.7382H22.7208H22.7034H22.686H22.6685H22.6511H22.6337H22.6163H22.5989H22.5815H22.5641H22.5466H22.5292H22.5118H22.4944H22.477H22.4596H22.4422H22.4248H22.4073H22.3899H22.3725H22.3551H22.3377H22.3203H22.3029H22.2854H22.268H22.2506H22.2332H22.2158H22.1984H22.181H22.1635H22.1461H22.1287H22.1113H22.0939H22.0765H22.0591H22.0417H22.0242H22.0068H21.9894H21.972H21.9546H21.9372H21.9198H21.9023H21.8849H21.8675H21.8501H21.8327H21.8153H21.7979H21.7804H21.763H21.7456H21.7282H21.7108H21.6934H21.676H21.6586H21.6411H21.6237H21.6063H21.5889H21.5715H21.5541H21.5367H21.5192H21.5018H21.4844H21.467H21.4496H21.4322H21.4148H21.3973H21.3799H21.3625H21.3451H21.3277H21.3103H21.2929H21.2754H21.258H21.2406H21.2232H21.2058H21.1884H21.171H21.1536H21.1361H21.1187H21.1013H21.0839H21.0665H21.0491H21.0317H21.0142H20.9968H20.9794H20.962H20.9446H20.9272H20.9098H20.8923H20.8749H20.8575H20.8401H20.8227H20.8053H20.7879H20.7705H20.753H20.7356H20.7182H20.7008H20.6834H20.666H20.6486H20.6311H20.6137H20.5963H20.5789H20.5615H20.5441H20.5267H20.5092H20.4918H20.4744H20.457H20.4396H20.4222H20.4048H20.3873H20.3699H20.3525H20.3351H20.3177H20.3003H20.2829H20.2655H20.248H20.2306H20.2132H20.1958H20.1784H20.161H20.1436H20.1261H20.1087H20.0913H20.0739H20.0565H20.0391H20.0217H20.0042H19.9868H19.9694H19.952H19.9346H19.9172H19.8998H19.8824H19.8649H19.8475H19.8301H19.8127H19.7953H19.7779H19.7605H19.743H19.7256H19.7082H19.6908H19.6734H19.656H19.6386H19.6211H19.6037H19.5863H19.5689H19.5515H19.5341H19.5167H19.4992H19.4818H19.4644H19.447H19.4296H19.4122H19.3948H19.3774H19.3599H19.3425H19.3251H19.3077H19.2903H19.2729H19.2555H19.238H19.2206H19.2032H19.1858H19.1684H19.151H19.1336H19.1161H19.0987H19.0813H19.0639H19.0465H19.0291H19.0117H18.9943H18.9768H18.9594H18.942H18.9246H18.9072H18.8898H18.8724H18.8549H18.8375H18.8201H18.8027H18.7853H18.7679H18.7505H18.733H18.7156H18.6982H18.6808H18.6634H18.646H18.6286H18.6111H18.5937H18.5763H18.5589H18.5415H18.5241H18.5067H18.4893H18.4718H18.4544H18.437H18.4196H18.4022H18.3848H18.3674H18.3499H18.3325H18.3151H18.2977H18.2803H18.2629H18.2455H18.228H18.2106H18.1932H18.1758H18.1584H18.141H18.1236H18.1062H18.0887H18.0713H18.0539H18.0365H18.0191H18.0017H17.9843H17.9668H17.9494H17.932H17.9146H17.8972H17.8798H17.8624H17.8449H17.8275H17.8101H17.7927H17.7753H17.7579H17.7405H17.723H17.7056H17.6882H17.6708H17.6534H17.636H17.6186H17.6012H17.5837H17.5663H17.5489H17.5315H17.5141H17.4967H17.4793H17.4618H17.4444H17.427H17.4096H17.3922H17.3748H17.3574H17.3399H17.3225H17.3051H17.2877H17.2703H17.2529H17.2355H17.2181H17.2006H17.1832H17.1658H17.1484H17.131H17.1136H17.0962H17.0787H17.0613H17.0439H17.0265H17.0091H16.9917H16.9743H16.9568H16.9394H16.922H16.9046Z" stroke="black"/>
</svg>
