<svg width="32" height="37" viewBox="0 0 32 37" fill="none" xmlns="http://www.w3.org/2000/svg">
<path d="M3.20006 19.7637C3.55352 19.7637 3.84006 19.4706 3.84006 19.1091C3.84006 18.7476 3.55352 18.4546 3.20006 18.4546C2.8466 18.4546 2.56006 18.7476 2.56006 19.1091C2.56006 19.4706 2.8466 19.7637 3.20006 19.7637Z" fill="black"/>
<path d="M3.20006 23.6912C3.55352 23.6912 3.84006 23.3981 3.84006 23.0366C3.84006 22.6751 3.55352 22.3821 3.20006 22.3821C2.8466 22.3821 2.56006 22.6751 2.56006 23.0366C2.56006 23.3981 2.8466 23.6912 3.20006 23.6912Z" fill="black"/>
<path d="M5.11998 21.7275C5.47344 21.7275 5.75998 21.4345 5.75998 21.073C5.75998 20.7115 5.47344 20.4185 5.11998 20.4185C4.76652 20.4185 4.47998 20.7115 4.47998 21.073C4.47998 21.4345 4.76652 21.7275 5.11998 21.7275Z" fill="black"/>
<path d="M8.96007 21.7275C9.31353 21.7275 9.60007 21.4345 9.60007 21.073C9.60007 20.7115 9.31353 20.4185 8.96007 20.4185C8.60661 20.4185 8.32007 20.7115 8.32007 21.073C8.32007 21.4345 8.60661 21.7275 8.96007 21.7275Z" fill="black"/>
<path d="M7.0399 23.6912C7.39336 23.6912 7.6799 23.3981 7.6799 23.0366C7.6799 22.6751 7.39336 22.3821 7.0399 22.3821C6.68644 22.3821 6.3999 22.6751 6.3999 23.0366C6.3999 23.3981 6.68644 23.6912 7.0399 23.6912Z" fill="black"/>
<path d="M10.88 23.6912C11.2335 23.6912 11.52 23.3981 11.52 23.0366C11.52 22.6751 11.2335 22.3821 10.88 22.3821C10.5265 22.3821 10.24 22.6751 10.24 23.0366C10.24 23.3981 10.5265 23.6912 10.88 23.6912Z" fill="black"/>
<path d="M12.8002 21.7275C13.1536 21.7275 13.4402 21.4345 13.4402 21.073C13.4402 20.7115 13.1536 20.4185 12.8002 20.4185C12.4467 20.4185 12.1602 20.7115 12.1602 21.073C12.1602 21.4345 12.4467 21.7275 12.8002 21.7275Z" fill="black"/>
<path d="M16.64 21.7275C16.9935 21.7275 17.28 21.4345 17.28 21.073C17.28 20.7115 16.9935 20.4185 16.64 20.4185C16.2865 20.4185 16 20.7115 16 21.073C16 21.4345 16.2865 21.7275 16.64 21.7275Z" fill="black"/>
<path d="M14.7201 23.6912C15.0735 23.6912 15.3601 23.3981 15.3601 23.0366C15.3601 22.6751 15.0735 22.3821 14.7201 22.3821C14.3666 22.3821 14.0801 22.6751 14.0801 23.0366C14.0801 23.3981 14.3666 23.6912 14.7201 23.6912Z" fill="black"/>
<path d="M18.5599 23.6912C18.9134 23.6912 19.1999 23.3981 19.1999 23.0366C19.1999 22.6751 18.9134 22.3821 18.5599 22.3821C18.2065 22.3821 17.9199 22.6751 17.9199 23.0366C17.9199 23.3981 18.2065 23.6912 18.5599 23.6912Z" fill="black"/>
<path d="M20.4801 21.7275C20.8335 21.7275 21.1201 21.4345 21.1201 21.073C21.1201 20.7115 20.8335 20.4185 20.4801 20.4185C20.1266 20.4185 19.8401 20.7115 19.8401 21.073C19.8401 21.4345 20.1266 21.7275 20.4801 21.7275Z" fill="black"/>
<path d="M24.3199 21.7275C24.6734 21.7275 24.9599 21.4345 24.9599 21.073C24.9599 20.7115 24.6734 20.4185 24.3199 20.4185C23.9665 20.4185 23.6799 20.7115 23.6799 21.073C23.6799 21.4345 23.9665 21.7275 24.3199 21.7275Z" fill="black"/>
<path d="M22.4 23.6912C22.7535 23.6912 23.04 23.3981 23.04 23.0366C23.04 22.6751 22.7535 22.3821 22.4 22.3821C22.0465 22.3821 21.76 22.6751 21.76 23.0366C21.76 23.3981 22.0465 23.6912 22.4 23.6912Z" fill="black"/>
<path d="M26.2401 23.6912C26.5936 23.6912 26.8801 23.3981 26.8801 23.0366C26.8801 22.6751 26.5936 22.3821 26.2401 22.3821C25.8866 22.3821 25.6001 22.6751 25.6001 23.0366C25.6001 23.3981 25.8866 23.6912 26.2401 23.6912Z" fill="black"/>
<path d="M28.16 21.7275C28.5135 21.7275 28.8 21.4345 28.8 21.073C28.8 20.7115 28.5135 20.4185 28.16 20.4185C27.8066 20.4185 27.52 20.7115 27.52 21.073C27.52 21.4345 27.8066 21.7275 28.16 21.7275Z" fill="black"/>
<path d="M30.0799 19.7637C30.4334 19.7637 30.7199 19.4706 30.7199 19.1091C30.7199 18.7476 30.4334 18.4546 30.0799 18.4546C29.7265 18.4546 29.4399 18.7476 29.4399 19.1091C29.4399 19.4706 29.7265 19.7637 30.0799 19.7637Z" fill="black"/>
<path d="M8.96007 25.6545C9.31353 25.6545 9.60007 25.3615 9.60007 25C9.60007 24.6385 9.31353 24.3455 8.96007 24.3455C8.60661 24.3455 8.32007 24.6385 8.32007 25C8.32007 25.3615 8.60661 25.6545 8.96007 25.6545Z" fill="black"/>
<path d="M12.8002 25.6545C13.1536 25.6545 13.4402 25.3615 13.4402 25C13.4402 24.6385 13.1536 24.3455 12.8002 24.3455C12.4467 24.3455 12.1602 24.6385 12.1602 25C12.1602 25.3615 12.4467 25.6545 12.8002 25.6545Z" fill="black"/>
<path d="M16.64 25.6545C16.9935 25.6545 17.28 25.3615 17.28 25C17.28 24.6385 16.9935 24.3455 16.64 24.3455C16.2865 24.3455 16 24.6385 16 25C16 25.3615 16.2865 25.6545 16.64 25.6545Z" fill="black"/>
<path d="M20.4801 25.6545C20.8335 25.6545 21.1201 25.3615 21.1201 25C21.1201 24.6385 20.8335 24.3455 20.4801 24.3455C20.1266 24.3455 19.8401 24.6385 19.8401 25C19.8401 25.3615 20.1266 25.6545 20.4801 25.6545Z" fill="black"/>
<path d="M24.3199 25.6545C24.6734 25.6545 24.9599 25.3615 24.9599 25C24.9599 24.6385 24.6734 24.3455 24.3199 24.3455C23.9665 24.3455 23.6799 24.6385 23.6799 25C23.6799 25.3615 23.9665 25.6545 24.3199 25.6545Z" fill="black"/>
<path d="M31.9552 5.79057C31.9494 5.77421 31.9437 5.7585 31.9366 5.74344C31.9302 5.7297 31.927 5.71464 31.92 5.70155C31.1398 2.50933 24.3885 0.127441 16 0.127441C7.61152 0.127441 0.86016 2.50933 0.08 5.70155C0.07296 5.71464 0.06976 5.7297 0.06336 5.74344C0.05632 5.75915 0.05056 5.77421 0.0448 5.79057C0.01856 5.86191 0 5.93719 0 6.01835V6.34562V21.7274V22.0547V30.2365C0 30.3426 0.0275201 30.4427 0.0748801 30.5317C0.83072 33.7357 7.59296 36.1274 16 36.1274C24.3878 36.1274 31.1392 33.7455 31.92 30.5533C31.9712 30.4597 32 30.3517 32 30.2365V22.0547V21.7274V6.34562V6.01835C32 5.93719 31.9814 5.86191 31.9552 5.79057ZM28.5645 24.5047C28.4538 24.4098 28.3162 24.3456 28.16 24.3456C27.8067 24.3456 27.52 24.6389 27.52 25.0002C27.52 25.0074 27.5238 25.0133 27.5238 25.0205C26.2406 25.5749 24.601 26.0494 22.6957 26.393C22.6061 26.3439 22.5088 26.3093 22.4 26.3093C22.2118 26.3093 22.0474 26.3957 21.9302 26.5272C21.0618 26.6621 20.1414 26.7687 19.1763 26.8427C19.1194 26.5416 18.8717 26.3093 18.56 26.3093C18.2234 26.3093 17.9552 26.5776 17.9296 26.9154C17.3005 26.9442 16.6611 26.9638 16 26.9638C15.7818 26.9638 15.5725 26.9553 15.3574 26.952C15.351 26.5959 15.0694 26.3093 14.72 26.3093C14.3827 26.3093 14.1146 26.5783 14.0896 26.9167C13.1821 26.8754 12.3046 26.8093 11.4714 26.7144C11.3747 26.4768 11.1469 26.3093 10.88 26.3093C10.6739 26.3093 10.4992 26.4153 10.3821 26.5698C8.544 26.3021 6.92608 25.9133 5.584 25.4453C5.69152 25.3281 5.76 25.173 5.76 25.0002C5.76 24.6389 5.47328 24.3456 5.12 24.3456C4.76672 24.3456 4.48 24.6389 4.48 25.0002C4.48 25.0087 4.48448 25.0152 4.48448 25.0237C2.4448 24.1434 1.28 23.0738 1.28 22.0547C1.28 21.9807 1.28832 21.9068 1.29984 21.8335C1.3056 21.7968 1.29408 21.7608 1.29408 21.7242C1.64096 21.7163 1.92 21.429 1.92 21.0729C1.92 20.7116 1.63328 20.4184 1.28 20.4184V17.8002C1.61728 17.8002 1.88544 17.5312 1.9104 17.1928C3.01632 17.9933 4.55424 18.6818 6.42048 19.2146C6.47168 19.5236 6.7232 19.7638 7.04 19.7638C7.2448 19.7638 7.41824 19.6591 7.53536 19.5066C9.98208 20.0865 12.8762 20.4184 16 20.4184C19.6314 20.4184 22.9523 19.97 25.6186 19.2048C25.6659 19.519 25.9194 19.7638 26.24 19.7638C26.5933 19.7638 26.88 19.4706 26.88 19.1093C26.88 19.0071 26.8525 18.9135 26.8122 18.8278C28.489 18.2394 29.8214 17.5089 30.72 16.6815V19.1093V21.5422C30.6931 21.6358 30.6842 21.7346 30.7002 21.8335C30.7123 21.9068 30.72 21.9807 30.72 22.0547C30.72 22.2498 30.6624 22.4468 30.5786 22.6438C30.4621 22.4887 30.2867 22.382 30.08 22.382C29.7267 22.382 29.44 22.6752 29.44 23.0365C29.44 23.3036 29.5974 23.5314 29.8214 23.6328C29.4886 23.9326 29.0688 24.2245 28.5645 24.5047ZM30.72 14.3618C30.7149 14.3821 30.7027 14.3998 30.6995 14.4214C30.3366 16.6855 24.343 19.1093 16 19.1093C7.65696 19.1093 1.66336 16.6855 1.30048 14.4214C1.29728 14.3998 1.28512 14.3828 1.28 14.3618V8.81195C3.47584 10.8823 8.47616 12.5638 16 12.5638C23.5238 12.5638 28.5242 10.8823 30.72 8.81195V14.3618ZM16 1.43653C24.3443 1.43653 30.3373 3.86031 30.6995 6.12373L30.7002 6.12766C30.7117 6.20031 30.72 6.27231 30.72 6.34562C30.72 8.66795 24.6752 11.2547 16 11.2547C7.3248 11.2547 1.28 8.66795 1.28 6.34562C1.28 6.27231 1.28832 6.20031 1.29984 6.12766L1.30048 6.12373C1.66272 3.86031 7.65568 1.43653 16 1.43653ZM30.6995 30.1305C30.3366 32.3946 24.343 34.8183 16 34.8183C7.65696 34.8183 1.66336 32.3946 1.30048 30.1305C1.29536 30.101 1.28832 30.0722 1.28 30.0448V24.521C3.47584 26.5914 8.47616 28.2729 16 28.2729C23.5238 28.2729 28.5242 26.5914 30.72 24.521V30.0421C30.711 30.0709 30.7046 30.1004 30.6995 30.1305Z" fill="black"/>
</svg>
