<svg width="527" height="610" viewBox="0 0 527 610" fill="none" xmlns="http://www.w3.org/2000/svg">
<path d="M309.126 92.152H308.822L308.619 91.7503L308.822 91.3486L269.145 68.652L268.943 69.0537L268.74 68.652L229.064 91.3486L229.266 91.7503H228.861V137.143H229.367L229.165 137.545L268.842 160.242L269.044 159.84L269.246 160.242L308.923 137.545H309.227V92.152H309.126ZM268.437 158.936L229.772 136.842V92.5537L268.437 114.648V158.936ZM269.449 114.748L308.113 92.6541V136.943L269.449 159.037V114.748ZM307.607 91.7503L268.943 113.844L230.278 91.7503L268.943 69.6563L307.607 91.7503Z" fill="#666666"/>
<path d="M230.375 92.152H230.072L229.869 91.7503L230.072 91.3486L190.395 68.652L190.192 69.0537L189.99 68.652L150.313 91.3486L150.516 91.7503H150.01V137.143H150.516L150.313 137.545L189.99 160.242L190.192 159.84L190.395 160.242L230.072 137.545H230.375V92.152ZM189.686 158.936L151.022 136.842V92.5537L189.686 114.648V158.936ZM190.699 114.748L229.363 92.6541V136.943L190.699 159.037V114.748ZM228.857 91.7503L190.192 113.844L151.528 91.7503L190.192 69.6563L228.857 91.7503Z" fill="#666666"/>
<path d="M348.299 23.5605H347.995L347.793 23.1588L347.995 22.7571L308.318 0.0605469L308.116 0.462256L307.812 0.0605469L268.136 22.7571L268.338 23.1588H267.832V68.552H268.338L268.136 68.9537L307.812 91.7507L308.015 91.349L308.217 91.7507L347.894 69.0541H348.198V23.5605H348.299ZM307.61 90.4452L268.945 68.3511V24.0627L307.61 46.1567V90.4452ZM308.622 46.1567L347.287 24.0627V68.3511L308.622 90.4452V46.1567ZM346.781 23.1588L308.116 45.2528L269.451 23.1588L308.116 1.06482L346.781 23.1588Z" fill="#666666"/>
<path d="M388.377 138.349H388.074L387.871 137.947L388.074 137.545L348.397 114.849L348.194 115.25L347.992 114.849L308.315 137.545L308.518 137.947H308.012V183.34H308.518L308.315 183.742L347.992 206.438L348.194 206.037L348.397 206.438L388.074 183.742H388.377V138.349ZM347.79 205.233L309.125 183.139V138.851L347.79 160.945V205.233ZM348.802 160.945L387.466 138.851V183.139L348.802 205.233V160.945ZM386.859 137.947L348.194 160.041L309.53 137.947L348.194 115.853L386.859 137.947Z" fill="#666666"/>
<path d="M347.791 206.037H347.488L347.285 205.636L347.488 205.234L307.811 182.537L307.609 182.939L307.406 182.537L267.729 205.234L267.932 205.636H267.426V251.029H267.932L267.729 251.431L307.406 274.127L307.609 273.725L307.811 274.127L347.488 251.431H347.791V206.037ZM307.102 272.922L268.438 250.828V206.539L307.102 228.634V272.922ZM308.115 228.634L346.779 206.539V250.828L308.115 272.922V228.634ZM346.273 205.636L307.609 227.73L268.944 205.636L307.609 183.542L346.273 205.636Z" fill="#666666"/>
<path d="M428.565 70.2596H428.261L428.059 69.8579L428.261 69.4562L388.585 46.7596L388.382 47.1614L388.18 46.7596L348.503 69.4562L348.706 69.8579H348.301V115.251H348.807L348.604 115.653L388.281 138.349L388.484 137.948L388.686 138.349L428.363 115.653H428.666V70.2596H428.565ZM387.876 137.144L349.212 115.05V70.7618L387.876 92.8558V137.144ZM388.888 92.8558L427.553 70.7618V115.05L388.888 137.144V92.8558ZM427.047 69.8579L388.382 91.9519L349.718 69.8579L388.382 47.7639L427.047 69.8579Z" fill="#666666"/>
<path d="M468.643 184.244H468.339L468.137 183.843L468.339 183.441L428.662 160.745L428.46 161.146L428.258 160.745L388.581 183.441L388.783 183.843H388.277V229.236H388.783L388.581 229.638L428.258 252.334L428.46 251.933L428.662 252.334L468.339 229.638H468.643V184.244ZM428.055 251.029L389.391 228.935V184.646L428.055 206.74V251.029ZM429.067 206.841L467.732 184.747V229.035L429.067 251.129V206.841ZM467.125 183.843L428.46 205.937L389.796 183.843L428.46 161.749L467.125 183.843Z" fill="#666666"/>
<path d="M268.944 160.243H268.64L268.438 159.841L268.64 159.44L229.065 136.643L228.862 137.044L228.66 136.643L188.983 159.339L189.186 159.741H188.68V205.134H189.186L188.983 205.536L228.66 228.232L228.862 227.831L229.065 228.232L268.742 205.536H269.045V160.243H268.944ZM228.356 227.027L189.692 204.933V160.645L228.356 182.739V227.027ZM229.368 182.839L268.033 160.745V204.933L229.368 227.027V182.839ZM267.426 159.841L228.761 181.935L190.097 159.841L228.761 137.747L267.426 159.841Z" fill="#666666"/>
<path d="M159.014 323.33H158.71L158.508 322.928L158.71 322.526L119.034 299.83L118.831 300.232L118.629 299.83L78.9521 322.526L79.1545 322.928H78.6484V368.321H79.1545L78.9521 368.723L118.629 391.419L118.831 391.018L119.034 391.419L158.71 368.723H159.014V323.33ZM118.426 390.214L79.7618 368.12V323.832L118.426 345.926V390.214ZM119.438 345.926L158.103 323.832V368.12L119.438 390.214V345.926ZM157.496 322.928L118.831 345.022L80.1667 322.928L118.831 300.834L157.496 322.928Z" fill="#666666"/>
<path d="M80.2643 323.33H79.9606L79.7582 322.928L79.9606 322.526L40.284 299.83L40.0815 300.232L39.8791 299.83L0.202432 322.526L0.404864 322.928H0V368.321H0.50608L0.202432 368.823L39.8791 391.52L40.0815 391.118L40.284 391.52L80.0618 368.823H80.3655V323.33H80.2643ZM39.6767 390.214L1.01216 368.02V323.732L39.6767 345.826V390.214ZM40.6888 345.926L79.3533 323.832V368.12L40.6888 390.214V345.926ZM78.746 322.928L40.0815 345.022L1.41702 322.928L40.0815 300.834L78.746 322.928Z" fill="#666666"/>
<path d="M198.178 254.839H197.875L197.672 254.437L197.875 254.035L158.299 231.238L158.097 231.64L157.894 231.238L118.218 253.935L118.42 254.337H117.914V299.73H118.42L118.218 300.131L157.894 322.828L158.097 322.426L158.299 322.828L197.976 300.131H198.28V254.839H198.178ZM157.49 321.623L118.825 299.529V255.24L157.49 277.334V321.623ZM158.502 277.435L197.166 255.341V299.529L158.502 321.623V277.435ZM196.66 254.437L157.996 276.531L119.331 254.437L157.996 232.343L196.66 254.437Z" fill="#666666"/>
<path d="M118.924 254.839H118.621L118.418 254.437L118.621 254.035L79.0453 231.238L78.8429 231.64L78.6405 231.238L38.9638 253.935L39.1662 254.337H38.6602V299.73H39.1662L38.9638 300.131L78.6405 322.828L78.8429 322.426L79.0453 322.828L118.722 300.131H119.026V254.839H118.924ZM78.2356 321.623L39.5711 299.529V255.24L78.2356 277.334V321.623ZM79.2478 277.435L117.912 255.341V299.529L79.2478 321.623V277.435ZM117.406 254.437L78.7417 276.531L40.0772 254.437L78.7417 232.343L117.406 254.437Z" fill="#666666"/>
<path d="M118.926 391.42H118.622L118.42 391.018L118.622 390.617L78.9457 367.92L78.7433 368.322L78.5409 367.92L38.8642 390.617L39.0666 391.018H38.5605V436.411H39.0666L38.8642 436.813L78.5409 459.51L78.7433 459.108L78.9457 459.51L118.622 436.813H118.926V391.42ZM78.2372 458.305L39.5727 436.211V391.922L78.2372 414.016V458.305ZM79.2494 414.016L117.914 391.922V436.11L79.2494 458.204V414.016ZM117.408 391.018L78.7433 413.112L40.0788 391.018L78.7433 368.924L117.408 391.018Z" fill="#666666"/>
<path d="M209.695 541.057L248.997 518.326L288.723 541.057V587.157L248.997 609.675L209.695 587.157V541.057Z" fill="white"/>
<path d="M170.824 472.353L210.126 449.622L249.852 472.353V518.452L210.126 540.971L170.824 518.452V472.353Z" fill="white"/>
<path d="M250.406 472.958L289.708 450.227L329.434 472.958V519.057L289.708 541.576L250.406 519.057V472.958Z" fill="white"/>
<path d="M328.654 471.873L367.956 449.142L407.682 471.873V517.973L367.956 540.491L328.654 517.973V471.873Z" fill="white"/>
<path d="M329.268 473.1H328.965L328.762 472.698L328.965 472.297L289.389 449.6L289.187 450.002L288.984 449.6L249.308 472.297L249.51 472.698H249.004V518.092H249.51L249.308 518.493L288.984 541.19L289.187 540.788L289.389 541.19L329.066 518.493H329.369V473.1H329.268ZM288.579 539.985L249.915 517.891V473.602L288.579 495.696V539.985ZM289.592 495.696L328.256 473.602V517.891L289.592 539.985V495.696ZM327.75 472.698L289.085 494.792L250.421 472.698L289.085 450.604L327.75 472.698Z" fill="#666666"/>
<path d="M408.014 473.1H407.71L407.508 472.698L407.71 472.297L368.034 449.6L367.831 450.002L367.629 449.6L327.952 472.297L328.155 472.698H327.648V518.092H328.155L327.952 518.493L367.629 541.19L367.831 540.788L368.034 541.19L407.71 518.493H408.014V473.1ZM367.325 539.985L328.661 517.891V473.602L367.325 495.696V539.985ZM368.337 495.696L407.002 473.602V517.891L368.337 539.985V495.696ZM406.496 472.698L367.831 494.792L329.167 472.698L367.831 450.604L406.496 472.698Z" fill="#666666"/>
<path d="M250.522 473.1H250.218L250.016 472.698L250.218 472.297L210.541 449.6L210.339 450.002L210.137 449.6L170.46 472.297L170.662 472.698H170.156V518.092H170.662L170.46 518.493L210.137 541.19L210.339 540.788L210.541 541.19L250.218 518.493H250.522V473.1ZM209.833 539.985L171.168 517.891V473.602L209.833 495.696V539.985ZM210.845 495.696L249.51 473.602V517.891L210.845 539.985V495.696ZM249.003 472.698L210.339 494.792L171.674 472.698L210.339 450.604L249.003 472.698Z" fill="#666666"/>
<path d="M289.082 404.608H288.779L288.576 404.207L288.779 403.805L249.102 381.108L248.9 381.51L248.697 381.108L209.02 403.805L209.223 404.207H208.717V449.6H209.223L209.02 450.002L248.697 472.698L248.9 472.296L249.102 472.698L288.779 450.002H289.082V404.608ZM248.495 471.393L209.83 449.299V405.01L248.495 427.104V471.393ZM249.507 427.205L288.171 405.111V449.399L249.507 471.493V427.205ZM287.564 404.207L248.9 426.301L210.235 404.207L248.9 382.113L287.564 404.207Z" fill="#666666"/>
<path d="M526.436 359.918H526.132L525.93 359.517L526.132 359.115L486.456 336.418L486.253 336.82L486.051 336.418L446.374 359.115L446.576 359.517H446.07V404.91H446.576L446.374 405.311L486.051 428.008L486.253 427.606L486.456 428.008L526.132 405.311H526.436V359.918ZM485.747 426.803L447.082 404.709V360.42L485.747 382.514V426.803ZM486.759 382.514L525.424 360.42V404.709L486.759 426.803V382.514ZM524.918 359.517L486.253 381.611L447.589 359.517L486.253 337.423L524.918 359.517Z" fill="#666666"/>
<path d="M289.081 541.19H288.777L288.575 540.789L288.777 540.387L249.202 517.69L248.999 518.092L248.797 517.69L209.12 540.387L209.322 540.789H208.816V586.182H209.322L209.12 586.584L248.797 609.28L248.999 608.878L249.202 609.28L288.878 586.584H289.182V541.19H289.081ZM248.493 607.975L209.829 585.881V541.592L248.493 563.686V607.975ZM249.505 563.787L288.17 541.693V585.981L249.505 608.075V563.787ZM287.562 540.789L248.898 562.883L210.233 540.789L248.898 518.695L287.562 540.789Z" fill="#666666"/>
</svg>
