<svg width="56" height="44" viewBox="0 0 56 44" fill="none" xmlns="http://www.w3.org/2000/svg">
<path fill-rule="evenodd" clip-rule="evenodd" d="M44.4464 26.5271C43.1984 26.5271 42.2001 25.5387 42.2001 24.3032C42.2001 23.0677 43.1984 22.0794 44.4464 22.0794C45.6944 22.0794 46.6927 23.0677 46.6927 24.3032C46.6927 25.4769 45.6944 26.5271 44.4464 26.5271ZM33.3754 26.5271C32.1274 26.5271 31.1291 25.5387 31.1291 24.3032C31.1291 23.0677 32.1274 22.0794 33.3754 22.0794C34.6234 22.0794 35.6217 23.0677 35.6217 24.3032C35.6217 25.4769 34.6234 26.5271 33.3754 26.5271ZM49.8038 39.0092C53.3058 36.5138 55.5174 32.8014 55.5174 28.7234C55.5174 21.1765 48.1451 15.0902 38.9911 15.0902C29.8372 15.0902 22.4648 21.1765 22.4648 28.7234C22.4648 36.2704 29.8372 42.3567 38.9911 42.3567C40.8957 42.3567 42.6773 42.1132 44.3975 41.6264C44.5204 41.5655 44.7047 41.5655 44.8889 41.5655C45.1962 41.5655 45.5034 41.6872 45.7491 41.8089L49.3738 43.8783C49.4967 43.9392 49.5582 44 49.6811 44C49.7538 44.0003 49.8258 43.9863 49.893 43.9589C49.9603 43.9314 50.0213 43.8911 50.0727 43.8402C50.1241 43.7892 50.1649 43.7288 50.1925 43.6622C50.2202 43.5956 50.2343 43.5243 50.234 43.4523C50.234 43.3305 50.1725 43.2088 50.1725 43.0261C50.1725 42.9653 49.6811 41.322 49.4352 40.2873C49.3738 40.1656 49.3738 40.044 49.3738 39.9221C49.3123 39.4961 49.4967 39.1919 49.8038 39.0092Z" fill="white"/>
<path fill-rule="evenodd" clip-rule="evenodd" d="M26.7961 13.6606C25.3633 13.6606 24.2289 12.5376 24.2289 11.1191C24.2289 9.70063 25.3633 8.5776 26.7961 8.5776C28.2289 8.5776 29.3633 9.70063 29.3633 11.1191C29.3633 12.4785 28.2289 13.6606 26.7961 13.6606ZM13.6393 13.6606C12.2064 13.6606 11.0721 12.5376 11.0721 11.1191C11.0721 9.70063 12.2064 8.5776 13.6393 8.5776C15.0721 8.5776 16.2064 9.70063 16.2064 11.1191C16.2064 12.4785 15.0721 13.6606 13.6393 13.6606ZM20.3717 -1.52588e-05C9.41077 -1.52588e-05 0.482422 7.29016 0.482422 16.3419C0.482422 21.2629 3.13015 25.6977 7.37901 28.6746C7.68691 28.9177 7.9332 29.2821 7.9332 29.7681C7.9332 29.8895 7.87159 30.0718 7.87159 30.1933C7.56368 31.4083 7.00949 33.4131 6.94788 33.4738C6.88643 33.6562 6.82482 33.7777 6.82482 33.9599C6.82482 34.3244 7.13272 34.6281 7.50207 34.6281C7.6253 34.6281 7.74836 34.5675 7.87159 34.5066L12.2435 32.0159C12.5514 31.8336 12.9209 31.7121 13.2903 31.7121C13.4751 31.7121 13.6598 31.7121 13.8445 31.7729C15.8766 32.3196 18.0932 32.684 20.3101 32.684H21.4185C20.9873 31.4083 20.7411 30.0718 20.7411 28.6745C20.7411 20.4732 28.8691 13.7906 38.8445 13.7906H39.9529C38.5366 5.95348 30.2854 -1.52588e-05 20.3717 -1.52588e-05Z" fill="white"/>
</svg>
