<svg width="58" height="52" viewBox="0 0 58 52" fill="none" xmlns="http://www.w3.org/2000/svg">
<path d="M57.999 26.5609C57.8691 23.0924 54.925 20.384 51.4072 20.5017C49.8486 20.5552 48.3657 21.1869 47.24 22.2467C42.2827 18.9066 36.4594 17.0761 30.4737 16.9476L33.2988 3.51255L42.6182 5.45019C42.878 7.81604 45.0211 9.52888 47.4132 9.27195C49.8053 9.01503 51.5371 6.8954 51.2773 4.52955C51.0176 2.16369 48.8744 0.450861 46.4823 0.707786C45.1077 0.846953 43.8738 1.63914 43.1919 2.81671L32.5195 0.707786C31.7943 0.547208 31.0691 0.996826 30.9067 1.72478C30.9067 1.73549 30.9067 1.73549 30.9067 1.74619L27.692 16.6907C21.6306 16.787 15.7316 18.6283 10.7092 21.9897C8.1548 19.6132 4.1283 19.7309 1.72538 22.2681C-0.677529 24.7945 -0.558465 28.7768 2.00681 31.1534C2.50471 31.6137 3.07837 32.0098 3.71699 32.2882C3.67369 32.9198 3.67369 33.5514 3.71699 34.183C3.71699 43.8284 15.0821 51.6753 29.0991 51.6753C43.1161 51.6753 54.4812 43.8391 54.4812 34.183C54.5245 33.5514 54.5245 32.9198 54.4812 32.2882C56.6677 31.2069 58.0423 28.9802 57.999 26.5609ZM14.4543 30.8751C14.4543 28.4985 16.4135 26.5609 18.8164 26.5609C21.2193 26.5609 23.1784 28.4985 23.1784 30.8751C23.1784 33.2516 21.2193 35.1893 18.8164 35.1893C16.4026 35.1679 14.4543 33.2516 14.4543 30.8751ZM39.7499 42.715C36.6542 45.0167 32.8658 46.1942 28.9909 46.0336C25.1159 46.1942 21.3275 45.0167 18.2319 42.715C17.8206 42.2226 17.8963 41.4839 18.3942 41.0771C18.8272 40.7239 19.4442 40.7239 19.8879 41.0771C22.5073 42.972 25.7004 43.9354 28.9476 43.7856C32.1948 43.9568 35.3986 43.0362 38.0505 41.1628C38.5268 40.7024 39.3061 40.7132 39.7715 41.1842C40.2369 41.6552 40.2261 42.426 39.7499 42.8863V42.715ZM38.9705 35.3391C36.5676 35.3391 34.6085 33.4015 34.6085 31.0249C34.6085 28.6484 36.5676 26.7107 38.9705 26.7107C41.3734 26.7107 43.3326 28.6484 43.3326 31.0249C43.43 33.4015 41.5575 35.4034 39.1545 35.4997C39.0788 35.4997 39.0138 35.4997 38.9381 35.4997L38.9705 35.3391Z" fill="white"/>
</svg>
