<svg width="46" height="51" viewBox="0 0 46 51" fill="none" xmlns="http://www.w3.org/2000/svg">
<path d="M39.897 0.376343H6.14271C3.29612 0.376343 0.978516 2.69621 0.978516 5.57097V39.6637C0.978516 42.5384 3.29595 44.8583 6.14254 44.8583H34.708L33.3728 40.1932L36.5972 43.194L39.645 46.0182L45.061 50.8093V5.57097C45.061 2.69621 42.7436 0.376343 39.897 0.376343ZM30.1737 33.3093C30.1737 33.3093 29.2669 32.2248 28.5111 31.2666C31.8111 30.3335 33.0706 28.2658 33.0706 28.2658C32.0377 28.9467 31.0553 29.4259 30.1737 29.7535C28.9142 30.2832 27.7051 30.636 26.5212 30.8379C24.1029 31.2918 21.8862 31.1657 19.997 30.8127C18.5611 30.5352 17.3267 30.1318 16.2941 29.7285C15.7146 29.5014 15.0849 29.2241 14.455 28.871C14.3796 28.8205 14.304 28.7954 14.2284 28.7449C14.1781 28.7197 14.1528 28.6945 14.1277 28.6694C13.6743 28.4172 13.4223 28.2407 13.4223 28.2407C13.4223 28.2407 14.6315 30.258 17.8306 31.2161C17.075 32.1745 16.1429 33.3091 16.1429 33.3091C10.5758 33.1326 8.45997 29.4763 8.45997 29.4763C8.45997 21.3565 12.0873 14.775 12.0873 14.775C15.7146 12.0515 19.1656 12.1272 19.1656 12.1272L19.4176 12.4299C14.8834 13.7409 12.7926 15.7332 12.7926 15.7332C12.7926 15.7332 13.3467 15.4307 14.2787 15.002C16.9741 13.8167 19.1154 13.489 19.997 13.4133C20.148 13.388 20.2741 13.3628 20.4253 13.3628C22.1133 13.1427 23.8216 13.1258 25.5137 13.3125C27.9065 13.5899 30.4761 14.2959 33.0957 15.7332C33.0957 15.7332 31.1058 13.842 26.8234 12.5308L27.1761 12.1274C27.1761 12.1274 30.6271 12.0515 34.2544 14.7751C34.2544 14.7751 37.8819 21.3565 37.8819 29.4763C37.8819 29.4763 35.7406 33.1326 30.1737 33.3091V33.3093ZM18.4603 21.5331C17.0245 21.5331 15.8911 22.7938 15.8911 24.332C15.8911 25.8703 17.0497 27.1311 18.4603 27.1311C19.8963 27.1311 21.0297 25.8703 21.0297 24.332C21.055 22.7938 19.8963 21.5331 18.4605 21.5331H18.4603ZM27.6548 21.5331C26.2188 21.5331 25.0853 22.7938 25.0853 24.332C25.0853 25.8703 26.2441 27.1311 27.6548 27.1311C29.0906 27.1311 30.224 25.8703 30.224 24.332C30.224 22.7938 29.0906 21.5331 27.6548 21.5331Z" fill="white"/>
</svg>
