<svg width="51" height="42" viewBox="0 0 51 42" fill="none" xmlns="http://www.w3.org/2000/svg">
<path d="M50.4499 5.52594C48.5942 6.34937 46.6011 6.90602 44.5056 7.15623C46.6443 5.87554 48.2827 3.84609 49.0563 1.43072C47.0247 2.63738 44.8013 3.48686 42.4827 3.94228C40.5958 1.931 37.9051 0.675293 34.9282 0.675293C29.2144 0.675293 24.5804 5.30739 24.5804 11.0246C24.5804 11.8347 24.6716 12.625 24.847 13.3837C16.2455 12.9515 8.61978 8.83126 3.51545 2.57061C2.62417 4.09964 2.114 5.87741 2.114 7.7742C2.114 11.3643 3.94132 14.5319 6.71791 16.3874C5.07422 16.3365 3.4666 15.8928 2.02944 15.0935V15.2243C2.02944 20.2391 5.59632 24.4206 10.3312 25.3716C9.46137 25.61 8.54858 25.7345 7.60426 25.7345C6.93659 25.7345 6.28883 25.6713 5.65604 25.5522C6.97306 29.6626 10.7952 32.6545 15.3227 32.739C11.7807 35.5156 7.31758 37.1708 2.47014 37.1708C1.63523 37.1708 0.810067 37.1209 0 37.0233C4.5808 39.9606 10.0198 41.6753 15.8646 41.6753C34.9001 41.6753 45.3107 25.9052 45.3107 12.2292C45.3107 11.7802 45.3008 11.3345 45.2792 10.8905C47.3075 9.4234 49.0584 7.60686 50.4499 5.52594Z" fill="white"/>
</svg>
