<svg width="96" height="97" viewBox="0 0 96 97" fill="none" xmlns="http://www.w3.org/2000/svg">
<path d="M48 0.675293C21.4795 0.675293 0 22.4824 0 49.4073C0 72.3093 15.4785 91.3168 36.3615 96.6753C36.1205 96.0656 36.002 95.2113 36.002 94.361V86.0745H30.001C26.7615 86.0745 23.759 84.6146 22.4395 81.9313C20.879 79.0073 20.638 74.4991 16.6795 71.6955C15.4785 70.7208 16.4385 69.7462 17.758 69.8665C20.2785 70.5964 22.3169 72.3051 24.2369 74.8599C26.1569 77.4189 26.9985 78.0286 30.5974 78.0286C32.2764 78.0286 34.9154 77.9083 37.3174 77.5392C38.6369 74.1259 40.9164 71.0817 43.678 69.6218C27.599 67.6725 19.919 59.6307 19.919 48.6649C19.919 43.912 21.9574 39.4038 25.3195 35.5052C24.241 31.7269 22.799 23.9298 25.8015 20.8856C33.0036 20.8856 37.3215 25.6385 38.4 26.8537C41.999 25.6344 45.9615 24.9044 50.0385 24.9044C54.238 24.9044 58.078 25.6344 61.6769 26.8537C62.7554 25.6344 67.0774 20.8856 74.2754 20.8856C77.1554 23.8095 75.8359 31.7269 74.6349 35.5052C77.9969 39.2835 79.9169 43.912 79.9169 48.6649C79.9169 59.6307 72.3554 67.6725 56.399 69.3771C60.8395 71.6913 63.9605 78.2691 63.9605 83.1423V94.2408C63.9605 94.6057 63.842 94.9707 63.842 95.3357C82.56 88.7579 96 70.7291 96 49.4073C96 22.4824 74.5205 0.675293 48 0.675293Z" fill="black"/>
</svg>
