<svg width="48" height="39" viewBox="0 0 48 39" fill="none" xmlns="http://www.w3.org/2000/svg">
<path d="M5.69185 8.4491C5.72126 8.15855 5.68182 7.86516 5.57672 7.5927C5.47162 7.32024 5.30382 7.07637 5.0869 6.88085L0.604581 1.4814V0.675293H14.5209L25.2769 24.2653L34.734 0.675293H48V1.48177L44.1681 5.15578C44.006 5.27934 43.8807 5.44478 43.8056 5.63428C43.7306 5.82379 43.7087 6.03017 43.7423 6.2312V33.2263C43.7087 33.4273 43.7306 33.6337 43.8056 33.8232C43.8807 34.0127 44.006 34.1781 44.1681 34.3017L47.9102 37.9757V38.7822H29.0869V37.9757L32.9635 34.2119C33.3446 33.8308 33.3446 33.7191 33.3446 33.1369V11.3166L22.5659 38.6924H21.109L8.56012 11.3166V29.6644C8.50852 30.0451 8.54425 30.4325 8.66462 30.7974C8.78499 31.1622 8.98682 31.4949 9.25484 31.7701L14.2967 37.8859V38.6924H0V37.8863L5.04183 31.7701C5.30769 31.4947 5.50505 31.1606 5.61796 30.7948C5.73088 30.429 5.75619 30.0417 5.69185 29.6644V8.4491Z" fill="white"/>
</svg>
