<svg width="48" height="47" viewBox="0 0 48 47" fill="none" xmlns="http://www.w3.org/2000/svg">
<path d="M10.8962 46.3885V15.5441H0.606507V46.3885H10.8972H10.8962ZM5.75349 11.3335C9.34096 11.3335 11.5744 8.96501 11.5744 6.00507C11.5072 2.97768 9.34096 0.675293 5.82171 0.675293C2.30005 0.675293 0 2.97768 0 6.0048C0 8.96474 2.23263 11.3332 5.68607 11.3332H5.75268L5.75349 11.3335ZM16.5916 46.3885H26.8805V29.1654C26.8805 28.2448 26.9477 27.3218 27.2195 26.6642C27.963 24.8216 29.656 22.9142 32.4992 22.9142C36.2215 22.9142 37.7114 25.7425 37.7114 29.8894V46.3885H48V28.7032C48 19.2295 42.9245 14.8209 36.1549 14.8209C30.6047 14.8209 28.1671 17.9118 26.8128 20.0169H26.8813V15.5451H16.5922C16.7265 18.4387 16.5914 46.3896 16.5914 46.3896L16.5916 46.3885Z" fill="white"/>
</svg>
