<svg width="770" height="400" viewBox="0 0 770 400" fill="none" xmlns="http://www.w3.org/2000/svg">
<path d="M32.4309 327.2H43.3309L73.8309 398H59.4309L52.8309 381.8H22.1309L15.7309 398H1.63086L32.4309 327.2ZM48.4309 371L37.5309 342.2L26.4309 371H48.4309ZM87.3465 327.2H101.846L121.146 380.7L141.046 327.2H154.646L126.046 398H115.146L87.3465 327.2ZM199.677 327.2H210.577L241.077 398H226.677L220.077 381.8H189.377L182.977 398H168.877L199.677 327.2ZM215.677 371L204.777 342.2L193.677 371H215.677ZM268.945 327.2H281.545V386.6H311.645V398H268.945V327.2ZM363.7 327.2H374.6L405.1 398H390.7L384.1 381.8H353.4L347 398H332.9L363.7 327.2ZM379.7 371L368.8 342.2L357.7 371H379.7ZM432.968 327.2H449.668L483.968 379.8H484.168V327.2H496.768V398H480.768L445.768 343.7H445.568V398H432.968V327.2ZM581.158 343.8C578.558 341 576.025 339.133 573.558 338.2C571.158 337.267 568.725 336.8 566.258 336.8C562.592 336.8 559.258 337.467 556.258 338.8C553.325 340.067 550.792 341.867 548.658 344.2C546.525 346.467 544.858 349.133 543.658 352.2C542.525 355.267 541.958 358.567 541.958 362.1C541.958 365.9 542.525 369.4 543.658 372.6C544.858 375.8 546.525 378.567 548.658 380.9C550.792 383.233 553.325 385.067 556.258 386.4C559.258 387.733 562.592 388.4 566.258 388.4C569.125 388.4 571.892 387.733 574.558 386.4C577.292 385 579.825 382.8 582.158 379.8L592.558 387.2C589.358 391.6 585.458 394.8 580.858 396.8C576.258 398.8 571.358 399.8 566.158 399.8C560.692 399.8 555.658 398.933 551.058 397.2C546.525 395.4 542.592 392.9 539.258 389.7C535.992 386.433 533.425 382.533 531.558 378C529.692 373.467 528.758 368.433 528.758 362.9C528.758 357.233 529.692 352.1 531.558 347.5C533.425 342.833 535.992 338.867 539.258 335.6C542.592 332.333 546.525 329.833 551.058 328.1C555.658 326.3 560.692 325.4 566.158 325.4C570.958 325.4 575.392 326.267 579.458 328C583.592 329.667 587.425 332.533 590.958 336.6L581.158 343.8ZM621.015 327.2H633.615V355.4H666.715V327.2H679.315V398H666.715V366.8H633.615V398H621.015V327.2ZM715.136 327.2H762.036V338.6H727.736V356H760.236V367.4H727.736V386.6H763.836V398H715.136V327.2Z" fill="black"/>
<path d="M92.4185 271.259H40.0253C27.6027 271.259 21.3914 271.259 17.6715 268.851C13.6513 266.249 11.1154 261.883 10.8464 257.102C10.5975 252.677 13.6747 247.282 19.829 236.491L134.542 35.3523C140.785 24.4045 143.907 18.9306 147.879 16.893C152.17 14.6914 157.259 14.6876 161.553 16.883C165.528 18.9147 168.658 24.3841 174.917 35.3228L201.374 81.5556C205.926 89.5099 208.202 93.487 209.203 97.6833C210.292 102.251 210.294 107.01 209.209 111.578C208.212 115.775 205.939 119.755 201.394 127.713L132.797 247.82C128.186 255.895 125.88 259.932 122.721 262.95C119.282 266.235 115.112 268.656 110.554 270.013C106.366 271.259 101.717 271.259 92.4185 271.259Z" fill="black"/>
<path d="M279.33 271.26H218.586C206.051 271.26 199.783 271.26 196.052 268.831C192.02 266.207 189.491 261.808 189.253 257.004C189.032 252.558 192.186 247.141 198.495 236.309L228.817 184.242C235.046 173.547 238.161 168.199 242.104 166.196C246.366 164.031 251.405 164.028 255.67 166.186C259.617 168.184 262.739 173.527 268.983 184.214L268.983 184.214L299.405 236.28C305.738 247.119 308.904 252.539 308.688 256.988C308.454 261.797 305.927 266.2 301.893 268.828C298.161 271.26 291.884 271.26 279.33 271.26Z" fill="black"/>
<path d="M542.418 271.259H490.025C477.603 271.259 471.391 271.259 467.671 268.851C463.651 266.249 461.115 261.883 460.846 257.102C460.598 252.677 463.675 247.282 469.829 236.491L584.542 35.3523C590.785 24.4045 593.907 18.9306 597.879 16.893C602.17 14.6914 607.259 14.6876 611.553 16.883C615.528 18.9147 618.658 24.3841 624.917 35.3228L651.374 81.5556C655.926 89.5099 658.202 93.487 659.203 97.6833C660.292 102.251 660.294 107.01 659.209 111.578C658.212 115.775 655.939 119.755 651.394 127.713L582.797 247.82C578.186 255.895 575.88 259.932 572.721 262.95C569.282 266.235 565.112 268.656 560.554 270.013C556.366 271.259 551.717 271.259 542.418 271.259Z" fill="black"/>
<path d="M729.33 271.26H668.586C656.05 271.26 649.782 271.26 646.052 268.831C642.02 266.207 639.491 261.808 639.253 257.004C639.032 252.558 642.186 247.141 648.495 236.309L678.817 184.242C685.046 173.547 688.16 168.199 692.104 166.196C696.366 164.031 701.405 164.028 705.67 166.186C709.616 168.184 712.738 173.527 718.983 184.214L718.983 184.214L749.405 236.28C755.738 247.119 758.904 252.539 758.688 256.988C758.454 261.797 755.927 266.2 751.893 268.828C748.16 271.26 741.884 271.26 729.33 271.26Z" fill="black"/>
<path d="M319.732 6.99955L265.983 6.99955C253.572 6.99954 247.366 6.99954 243.647 9.40555C239.628 12.0057 237.092 16.368 236.82 21.147C236.568 25.5691 239.637 30.9624 245.776 41.7491L360.057 242.562L360.057 242.562C366.429 253.758 369.615 259.357 373.64 261.396C377.988 263.599 383.136 263.552 387.444 261.269C391.431 259.156 394.513 253.501 400.678 242.189L428.053 191.964C432.374 184.037 434.534 180.073 435.451 175.916C436.449 171.391 436.385 166.696 435.265 162.2C434.235 158.069 431.968 154.165 427.434 146.358L359.943 30.1467C355.31 22.1696 352.994 18.1811 349.841 15.2001C346.409 11.9556 342.26 9.56712 337.731 8.22898C333.57 6.99955 328.957 6.99955 319.732 6.99955Z" fill="black"/>
<path d="M505.372 6.99983L444.541 6.99983C432.017 6.99983 425.755 6.99983 422.026 9.42613C417.995 12.0481 415.466 16.4433 415.224 21.2455C415 25.6894 418.146 31.1035 424.439 41.9317L454.804 94.1844C461.035 104.906 464.15 110.267 468.097 112.273C472.362 114.442 477.406 114.445 481.674 112.283C485.623 110.282 488.746 104.926 494.992 94.2131L525.457 41.9604C531.774 31.1257 534.933 25.7083 534.713 21.261C534.476 16.4551 531.948 12.0547 527.916 9.42934C524.184 6.99984 517.914 6.99983 505.372 6.99983Z" fill="black"/>
</svg>
