<svg width="108" height="73" viewBox="0 0 108 73" fill="none" xmlns="http://www.w3.org/2000/svg">
<path d="M12.6778 53.3561C13.6362 53.9361 14.4473 54.7335 14.9629 55.8209C15.5526 56.9083 15.8474 58.2132 15.8474 59.663C15.8474 61.1129 15.5526 62.3453 14.8895 63.4327C14.2999 64.5201 13.4148 65.3175 12.3095 65.825C11.2037 66.4049 9.87696 66.6949 8.47656 66.6949C7.66575 66.6949 6.9287 66.5499 6.19159 66.26C5.45448 66.0425 4.79113 65.6075 4.27513 65.1001V72.6393H0V52.7762H3.68549L4.05402 54.371C5.67559 53.0661 7.44463 52.4137 9.28732 52.4137C10.5406 52.4137 11.7199 52.7037 12.6778 53.3561ZM10.3192 62.3453C11.0562 61.6929 11.4251 60.8229 11.4251 59.7355C11.4251 58.6481 11.0562 57.7782 10.3932 57.0533C9.72955 56.3283 8.84509 56.0384 7.88692 56.0384C7.0761 56.0384 6.33899 56.1834 5.7493 56.5458C5.15965 56.8358 4.71737 57.3432 4.34884 57.9957V61.2579C4.56996 61.9103 5.01224 62.4178 5.52818 62.7803C6.11788 63.1427 6.78123 63.3602 7.59204 63.3602C8.69768 63.3602 9.58214 62.9977 10.3192 62.3453Z" fill="#A8A8A8"/>
<path d="M18.3534 55.8916C19.017 54.8766 19.9015 54.0067 21.0808 53.4268C22.2601 52.8468 23.5867 52.4844 25.0614 52.4844C26.5355 52.4844 27.8622 52.7743 29.0415 53.4268C30.1474 54.0067 31.0318 54.8766 31.6949 55.964C32.3585 57.0514 32.6534 58.2113 32.6534 59.5887C32.6534 60.966 32.3585 62.1259 31.6949 63.2133C31.0318 64.3007 30.2208 65.1707 29.0415 65.7506C27.9356 66.3306 26.5355 66.693 25.0614 66.693C23.5867 66.693 22.2601 66.4031 21.0808 65.8231C19.9015 65.2432 19.017 64.4457 18.3534 63.3583C17.7637 62.2709 17.3955 61.0385 17.3955 59.5887C17.3955 58.2113 17.7637 56.979 18.3534 55.8916ZM22.7023 62.1984C23.2919 62.9234 24.103 63.2133 25.0614 63.2133C26.0193 63.2133 26.8303 62.8509 27.42 62.1984C28.0096 61.546 28.3045 60.6036 28.3045 59.5887C28.3045 58.5013 28.0096 57.6314 27.42 56.979C26.7564 56.254 26.0193 55.8916 24.9874 55.8916C24.029 55.8916 23.2919 56.254 22.6289 56.9065C22.0392 57.6314 21.7444 58.5013 21.7444 59.5887C21.7444 60.6036 22.0392 61.4735 22.7023 62.1984Z" fill="#A8A8A8"/>
<path d="M39.5815 42.481V66.3312H35.3066V42.481H39.5815Z" fill="#A8A8A8"/>
<path d="M57.1246 53.1377L48.4268 72.7109H44.2993L47.5423 65.6791L41.3505 53.1377H46.2157L49.7535 60.967L53.2919 53.1377H57.1246Z" fill="#A8A8A8"/>
<path d="M73.4884 53.1368V66.3306C73.4884 67.563 73.1196 68.7229 72.3825 69.7378C71.6455 70.7527 70.6876 71.5501 69.4343 72.13C68.181 72.71 66.8543 73 65.3802 73C64.2744 73 63.3165 72.855 62.5055 72.6375C61.695 72.3475 61.0313 72.0576 60.5157 71.7676C59.9261 71.4051 59.3358 70.9702 58.6728 70.3902L61.1788 67.4905C61.7684 68.0704 62.432 68.5054 63.0217 68.7953C63.6113 69.0853 64.4218 69.3028 65.3068 69.3028C66.4121 69.3028 67.2966 69.0128 68.0336 68.5054C68.7707 67.9979 69.1395 67.2005 69.1395 66.2581V64.3732C68.6973 65.0257 68.1076 65.6056 67.2232 66.0406C66.3387 66.4756 65.3068 66.693 64.127 66.693C62.9477 66.693 61.7684 66.4031 60.7365 65.7506C59.7047 65.1707 58.8936 64.3007 58.2305 63.2133C57.6409 62.1259 57.2721 60.966 57.2721 59.6612C57.2721 58.3563 57.5669 57.1239 58.2305 56.0365C58.8936 54.9491 59.7046 54.0792 60.8105 53.4268C61.8424 52.7743 62.9477 52.4844 64.127 52.4844C65.2328 52.4844 66.1913 52.6293 67.0758 52.9193C67.9602 53.2093 68.6233 53.6443 69.0655 54.1517L69.5077 53.1368H73.4884ZM69.1395 61.256V57.9939C68.8447 57.3414 68.4024 56.834 67.7388 56.4715C67.0757 56.109 66.3387 55.8916 65.4542 55.8916C64.4218 55.8916 63.5373 56.254 62.8003 56.9065C62.0632 57.5589 61.695 58.4288 61.695 59.5162C61.695 60.5311 62.0632 61.4735 62.8003 62.1984C63.5373 62.9234 64.4218 63.2858 65.4542 63.2858C67.1492 63.2133 68.4024 62.5609 69.1395 61.256Z" fill="#A8A8A8"/>
<path d="M77.0263 55.8934C77.69 54.806 78.5744 54.0085 79.7537 53.3561C80.933 52.7762 82.2597 52.4137 83.7338 52.4137C85.2079 52.4137 86.5346 52.7037 87.7139 53.3561C88.8197 53.9361 89.7042 54.806 90.3678 55.8934C90.9575 56.9808 91.3257 58.1407 91.3257 59.5181C91.3257 60.8954 91.0309 62.0553 90.3678 63.1427C89.7782 64.2301 88.8937 65.1001 87.7139 65.68C86.6086 66.26 85.2079 66.6224 83.7338 66.6224C82.2597 66.6224 80.933 66.3324 79.7537 65.7525C78.5744 65.1726 77.69 64.3751 77.0263 63.2877C76.3627 62.2003 76.0679 60.9679 76.0679 59.4456C76.0679 58.2132 76.3627 56.9808 77.0263 55.8934ZM81.3012 62.2003C81.8909 62.9253 82.7019 63.2152 83.6604 63.2152C84.6183 63.2152 85.4293 62.8528 86.0189 62.2003C86.6086 61.5479 86.9034 60.6055 86.9034 59.5905C86.9034 58.5031 86.6086 57.6332 86.0189 56.9808C85.4293 56.3283 84.6183 55.9659 83.6604 55.9659C82.7019 55.9659 81.9649 56.3283 81.3012 56.9808C80.6382 57.6332 80.3433 58.5756 80.3433 59.5905C80.4168 60.6055 80.7116 61.4754 81.3012 62.2003Z" fill="#A8A8A8"/>
<path d="M106.437 53.5718C107.321 54.2967 107.689 55.2391 107.763 56.399V66.3306H103.414V57.9939C103.34 56.689 102.677 56.0365 101.424 56.0365C100.466 56.0365 99.6551 56.4715 99.0655 57.4139C98.4758 58.3563 98.181 59.5162 98.181 60.8936V66.3306H93.9055V53.1368H97.8122L98.107 55.2391C98.6232 54.3692 99.2863 53.7167 100.171 53.2093C101.056 52.7018 102.088 52.4844 103.267 52.4844C104.52 52.4844 105.626 52.8468 106.437 53.5718Z" fill="#A8A8A8"/>
<path d="M64.7908 12.6164C63.9019 12.0925 62.7462 12.0925 61.7685 12.6164L54.8346 16.6327L50.1232 19.252L43.1895 23.2683C42.3005 23.7921 41.1449 23.7921 40.167 23.2683L34.6556 20.125C33.7667 19.6012 33.1444 18.6408 33.1444 17.5931V11.394C33.1444 10.3463 33.6778 9.38585 34.6556 8.862L40.0781 5.80615C40.9671 5.28229 42.1227 5.28229 43.1006 5.80615L48.5231 8.862C49.4121 9.38585 50.0343 10.3463 50.0343 11.394V15.4103L54.7458 12.7037V8.68736C54.7458 7.63967 54.2124 6.67925 53.2346 6.15539L43.1895 0.392897C42.3005 -0.130966 41.1449 -0.130966 40.167 0.392897L29.9442 6.15539C28.9664 6.67925 28.433 7.63967 28.433 8.68736V20.2997C28.433 21.3474 28.9664 22.3078 29.9442 22.8317L40.167 28.5942C41.056 29.118 42.2116 29.118 43.1895 28.5942L50.1232 24.6652L54.8346 21.9586L61.7685 18.0296C62.6573 17.5057 63.813 17.5057 64.7908 18.0296L70.2134 21.0855C71.1023 21.6093 71.7246 22.5698 71.7246 23.6175V29.8165C71.7246 30.8643 71.1912 31.8247 70.2134 32.3485L64.7908 35.4917C63.9019 36.0156 62.7462 36.0156 61.7685 35.4917L56.3458 32.4358C55.4569 31.912 54.8346 30.9515 54.8346 29.9039V25.8876L50.1232 28.5942V32.6105C50.1232 33.6582 50.6566 34.6186 51.6345 35.1425L61.8573 40.905C62.7462 41.4288 63.9019 41.4288 64.8797 40.905L75.1026 35.1425C75.9916 34.6186 76.6138 33.6582 76.6138 32.6105V20.9982C76.6138 19.9505 76.0804 18.99 75.1026 18.4662L64.7908 12.6164Z" fill="#626262"/>
</svg>
