<svg width="206" height="170" viewBox="0 0 206 170" fill="none" xmlns="http://www.w3.org/2000/svg">
<g opacity="0.2" filter="url(#filter0_d)">
<rect x="13" y="121.129" width="36" height="36" stroke="black" stroke-opacity="0.3"/>
<rect x="49.0002" y="121.129" width="36" height="36" stroke="black" stroke-opacity="0.3"/>
<rect x="13" y="85.1278" width="36" height="36" stroke="black" stroke-opacity="0.3"/>
<rect x="49.0002" y="85.1278" width="36" height="36" stroke="black" stroke-opacity="0.3"/>
<rect x="85.0002" y="85.1278" width="36" height="36" stroke="black" stroke-opacity="0.3"/>
<rect x="13" y="49.1276" width="36" height="36" stroke="black" stroke-opacity="0.3"/>
<rect x="49.0002" y="49.1276" width="36" height="36" stroke="black" stroke-opacity="0.3"/>
<rect x="85.0002" y="49.1276" width="36" height="36" stroke="black" stroke-opacity="0.3"/>
<rect x="13" y="13.1284" width="36" height="36" stroke="black" stroke-opacity="0.3"/>
<rect x="85.0002" y="13.1284" width="36" height="36" stroke="black" stroke-opacity="0.3"/>
<rect x="121" y="121.129" width="36" height="36" stroke="black" stroke-opacity="0.3"/>
<rect x="121" y="85.1278" width="36" height="36" stroke="black" stroke-opacity="0.3"/>
<rect x="121" y="49.1276" width="36" height="36" stroke="black" stroke-opacity="0.3"/>
<rect x="121" y="13.1284" width="36" height="36" stroke="black" stroke-opacity="0.3"/>
<rect x="157" y="121.129" width="36" height="36" stroke="black" stroke-opacity="0.3"/>
<rect x="157" y="85.1278" width="36" height="36" stroke="black" stroke-opacity="0.3"/>
<rect x="157" y="49.1276" width="36" height="36" stroke="black" stroke-opacity="0.3"/>
</g>
<rect x="122.459" y="101.79" width="60.2514" height="7.82649" transform="rotate(-49.6071 122.459 101.79)" fill="white" stroke="#666666"/>
<rect x="0.666453" y="-0.236306" width="60.7854" height="6.36094" transform="matrix(0.902759 0.430146 0.430146 -0.902759 58.9204 81.1675)" fill="white" stroke="#666666"/>
<rect x="23.9251" y="107.466" width="51.9589" height="4.11905" transform="rotate(-45 23.9251 107.466)" fill="white" stroke="#666666"/>
<circle cx="166.828" cy="55.4964" r="16.0497" fill="white" stroke="#666666"/>
<circle cx="123.831" cy="108.355" r="12.7397" fill="white" stroke="#666666"/>
<circle cx="59.0871" cy="75.896" r="10.5331" fill="white" stroke="#666666"/>
<circle cx="25.4245" cy="109.379" r="8.32649" fill="white" stroke="#666666"/>
<defs>
<filter id="filter0_d" x="0.5" y="0.628418" width="205" height="169.001" filterUnits="userSpaceOnUse" color-interpolation-filters="sRGB">
<feFlood flood-opacity="0" result="BackgroundImageFix"/>
<feColorMatrix in="SourceAlpha" type="matrix" values="0 0 0 0 0 0 0 0 0 0 0 0 0 0 0 0 0 0 127 0"/>
<feOffset/>
<feGaussianBlur stdDeviation="6"/>
<feColorMatrix type="matrix" values="0 0 0 0 0 0 0 0 0 0.93956 0 0 0 0 1 0 0 0 0.5 0"/>
<feBlend mode="normal" in2="BackgroundImageFix" result="effect1_dropShadow"/>
<feBlend mode="normal" in="SourceGraphic" in2="effect1_dropShadow" result="shape"/>
</filter>
</defs>
</svg>
