<svg width="206" height="170" viewBox="0 0 206 170" fill="none" xmlns="http://www.w3.org/2000/svg">
<g opacity="0.2" filter="url(#filter0_d)">
<rect x="13" y="121.13" width="36" height="36" stroke="black" stroke-opacity="0.3"/>
<rect x="48.9999" y="121.13" width="36" height="36" stroke="black" stroke-opacity="0.3"/>
<rect x="13" y="85.13" width="36" height="36" stroke="black" stroke-opacity="0.3"/>
<rect x="48.9999" y="85.13" width="36" height="36" stroke="black" stroke-opacity="0.3"/>
<rect x="85" y="85.13" width="36" height="36" stroke="black" stroke-opacity="0.3"/>
<rect x="13" y="49.13" width="36" height="36" stroke="black" stroke-opacity="0.3"/>
<rect x="48.9999" y="49.13" width="36" height="36" stroke="black" stroke-opacity="0.3"/>
<rect x="85" y="49.13" width="36" height="36" stroke="black" stroke-opacity="0.3"/>
<rect x="13" y="13.1319" width="36" height="36" stroke="black" stroke-opacity="0.3"/>
<rect x="85" y="13.1304" width="36" height="36" stroke="black" stroke-opacity="0.3"/>
<rect x="121" y="121.13" width="36" height="36" stroke="black" stroke-opacity="0.3"/>
<rect x="121" y="85.13" width="36" height="36" stroke="black" stroke-opacity="0.3"/>
<rect x="121" y="49.13" width="36" height="36" stroke="black" stroke-opacity="0.3"/>
<rect x="121" y="13.1304" width="36" height="36" stroke="black" stroke-opacity="0.3"/>
<rect x="157" y="121.13" width="36" height="36" stroke="black" stroke-opacity="0.3"/>
<rect x="157" y="49.13" width="36" height="36" stroke="black" stroke-opacity="0.3"/>
<rect x="157" y="13.1304" width="36" height="36" stroke="black" stroke-opacity="0.3"/>
</g>
<path d="M95.0638 42.5123C95.0638 39.7508 97.3023 37.5123 100.064 37.5123H105.069C107.831 37.5123 110.069 39.7508 110.069 42.5123V49.5167H95.0638V42.5123Z" fill="white" stroke="#666666"/>
<rect x="49.8152" y="49.4254" width="106.39" height="71.4067" rx="2.5" fill="white" stroke="#666666"/>
<mask id="path-20-inside-1" fill="white">
<path fill-rule="evenodd" clip-rule="evenodd" d="M130.527 70.8572C130.527 70.3049 130.079 69.8572 129.527 69.8572H121.298C120.746 69.8572 120.298 70.3049 120.298 70.8572V79.0866C120.298 79.6389 119.85 80.0866 119.298 80.0866H111.069C110.517 80.0866 110.069 80.5343 110.069 81.0866V89.3155C110.069 89.8677 110.517 90.3155 111.069 90.3155H119.298C119.85 90.3155 120.298 90.7632 120.298 91.3155V99.5437C120.298 100.096 120.746 100.544 121.298 100.544H129.527C130.079 100.544 130.527 100.096 130.527 99.5437V91.3155C130.527 90.7632 130.975 90.3155 131.527 90.3155H139.756C140.308 90.3155 140.756 89.8677 140.756 89.3155V81.0866C140.756 80.5343 140.308 80.0866 139.756 80.0866H131.527C130.975 80.0866 130.527 79.6389 130.527 79.0866V70.8572Z"/>
</mask>
<path fill-rule="evenodd" clip-rule="evenodd" d="M130.527 70.8572C130.527 70.3049 130.079 69.8572 129.527 69.8572H121.298C120.746 69.8572 120.298 70.3049 120.298 70.8572V79.0866C120.298 79.6389 119.85 80.0866 119.298 80.0866H111.069C110.517 80.0866 110.069 80.5343 110.069 81.0866V89.3155C110.069 89.8677 110.517 90.3155 111.069 90.3155H119.298C119.85 90.3155 120.298 90.7632 120.298 91.3155V99.5437C120.298 100.096 120.746 100.544 121.298 100.544H129.527C130.079 100.544 130.527 100.096 130.527 99.5437V91.3155C130.527 90.7632 130.975 90.3155 131.527 90.3155H139.756C140.308 90.3155 140.756 89.8677 140.756 89.3155V81.0866C140.756 80.5343 140.308 80.0866 139.756 80.0866H131.527C130.975 80.0866 130.527 79.6389 130.527 79.0866V70.8572Z" fill="white"/>
<path d="M121.298 70.8572H129.527V68.8572H121.298V70.8572ZM121.298 79.0866V70.8572H119.298V79.0866H121.298ZM111.069 81.0866H119.298V79.0866H111.069V81.0866ZM111.069 89.3155V81.0866H109.069V89.3155H111.069ZM119.298 89.3155H111.069V91.3155H119.298V89.3155ZM121.298 99.5437V91.3155H119.298V99.5437H121.298ZM129.527 99.5437H121.298V101.544H129.527V99.5437ZM129.527 91.3155V99.5437H131.527V91.3155H129.527ZM139.756 89.3155H131.527V91.3155H139.756V89.3155ZM139.756 81.0866V89.3155H141.756V81.0866H139.756ZM131.527 81.0866H139.756V79.0866H131.527V81.0866ZM129.527 70.8572V79.0866H131.527V70.8572H129.527ZM131.527 79.0866V79.0866H129.527C129.527 80.1912 130.422 81.0866 131.527 81.0866V79.0866ZM141.756 81.0866C141.756 79.982 140.86 79.0866 139.756 79.0866V81.0866H139.756H141.756ZM139.756 91.3155C140.86 91.3155 141.756 90.42 141.756 89.3155H139.756V91.3155ZM131.527 91.3155H131.527V89.3155C130.422 89.3155 129.527 90.2109 129.527 91.3155H131.527ZM129.527 101.544C130.631 101.544 131.527 100.648 131.527 99.5437H129.527V99.5437V101.544ZM119.298 99.5437C119.298 100.648 120.193 101.544 121.298 101.544V99.5437H121.298H119.298ZM119.298 91.3155H121.298C121.298 90.2109 120.403 89.3155 119.298 89.3155V91.3155ZM109.069 89.3155C109.069 90.42 109.965 91.3155 111.069 91.3155V89.3155H111.069H109.069ZM111.069 79.0866C109.965 79.0866 109.069 79.982 109.069 81.0866H111.069V81.0866V79.0866ZM119.298 79.0866H119.298V81.0866C120.403 81.0866 121.298 80.1912 121.298 79.0866H119.298ZM129.527 70.8572H131.527C131.527 69.7526 130.631 68.8572 129.527 68.8572V70.8572ZM121.298 68.8572C120.193 68.8572 119.298 69.7526 119.298 70.8572H121.298V70.8572V68.8572Z" fill="#666666" mask="url(#path-20-inside-1)"/>
<circle cx="70.623" cy="76.3057" r="6.42528" fill="white" stroke="#666666"/>
<circle cx="84.4734" cy="93.6187" r="6.42528" fill="white" stroke="#666666"/>
<path d="M102.567 37.5126V23.7546C102.567 19.3364 98.9848 15.7546 94.5666 15.7546H92.7922C88.3739 15.7546 84.7922 19.3364 84.7922 23.7546V25.011C84.7922 29.4293 81.2105 33.011 76.7922 33.011H75.0178C70.5996 33.011 67.0178 29.4292 67.0178 25.011V13.558" stroke="#666666" stroke-linecap="round"/>
<defs>
<filter id="filter0_d" x="0.5" y="0.630371" width="205" height="169" filterUnits="userSpaceOnUse" color-interpolation-filters="sRGB">
<feFlood flood-opacity="0" result="BackgroundImageFix"/>
<feColorMatrix in="SourceAlpha" type="matrix" values="0 0 0 0 0 0 0 0 0 0 0 0 0 0 0 0 0 0 127 0"/>
<feOffset/>
<feGaussianBlur stdDeviation="6"/>
<feColorMatrix type="matrix" values="0 0 0 0 0 0 0 0 0 0.93956 0 0 0 0 1 0 0 0 0.5 0"/>
<feBlend mode="normal" in2="BackgroundImageFix" result="effect1_dropShadow"/>
<feBlend mode="normal" in="SourceGraphic" in2="effect1_dropShadow" result="shape"/>
</filter>
</defs>
</svg>
