<svg width="206" height="170" viewBox="0 0 206 170" fill="none" xmlns="http://www.w3.org/2000/svg">
<g opacity="0.2" filter="url(#filter0_d)">
<rect x="49.0001" y="121.129" width="36" height="36" stroke="black" stroke-opacity="0.3"/>
<rect x="85.0002" y="121.129" width="36" height="36" stroke="black" stroke-opacity="0.3"/>
<rect x="13" y="85.1283" width="36" height="36" stroke="black" stroke-opacity="0.3"/>
<rect x="49.0001" y="85.1283" width="36" height="36" stroke="black" stroke-opacity="0.3"/>
<rect x="85.0002" y="85.1283" width="36" height="36" stroke="black" stroke-opacity="0.3"/>
<rect x="13" y="49.1281" width="36" height="36" stroke="black" stroke-opacity="0.3"/>
<rect x="49.0001" y="49.1281" width="36" height="36" stroke="black" stroke-opacity="0.3"/>
<rect x="85.0002" y="49.1281" width="36" height="36" stroke="black" stroke-opacity="0.3"/>
<rect x="13" y="13.1284" width="36" height="36" stroke="black" stroke-opacity="0.3"/>
<rect x="49.0001" y="13.1288" width="36" height="36" stroke="black" stroke-opacity="0.3"/>
<rect x="85.0002" y="13.1288" width="36" height="36" stroke="black" stroke-opacity="0.3"/>
<rect x="121" y="121.129" width="36" height="36" stroke="black" stroke-opacity="0.3"/>
<rect x="121" y="85.1283" width="36" height="36" stroke="black" stroke-opacity="0.3"/>
<rect x="121" y="49.1281" width="36" height="36" stroke="black" stroke-opacity="0.3"/>
<rect x="157" y="121.129" width="36" height="36" stroke="black" stroke-opacity="0.3"/>
<rect x="157" y="85.1283" width="36" height="36" stroke="black" stroke-opacity="0.3"/>
<rect x="157" y="49.1281" width="36" height="36" stroke="black" stroke-opacity="0.3"/>
<rect x="157" y="13.1288" width="36" height="36" stroke="black" stroke-opacity="0.3"/>
</g>
<rect x="48.7549" y="49.2896" width="36.0037" height="36.0037" fill="white" stroke="#666666"/>
<line x1="55.3096" y1="49.869" x2="55.3096" y2="43.3933" stroke="#666666"/>
<line x1="61.4766" y1="49.869" x2="61.4766" y2="43.3933" stroke="#666666"/>
<line x1="67.644" y1="49.869" x2="67.644" y2="43.3933" stroke="#666666"/>
<line x1="73.8115" y1="49.869" x2="73.8115" y2="43.3933" stroke="#666666"/>
<line x1="79.9788" y1="49.869" x2="79.9788" y2="43.3933" stroke="#666666"/>
<line x1="55.3099" y1="91.9611" x2="55.3099" y2="85.4855" stroke="#666666"/>
<path d="M61.2742 85.4855L61.2741 111.901L76.2943 111.901" stroke="#666666"/>
<line x1="67.6445" y1="91.9611" x2="67.6445" y2="85.4855" stroke="#666666"/>
<line x1="73.8118" y1="91.9611" x2="73.8118" y2="85.4855" stroke="#666666"/>
<line x1="79.9793" y1="91.9611" x2="79.9793" y2="85.4855" stroke="#666666"/>
<line x1="49.3341" y1="79.8953" x2="42.8585" y2="79.8953" stroke="#666666"/>
<line x1="49.3341" y1="73.7263" x2="42.8585" y2="73.7263" stroke="#666666"/>
<line x1="49.3341" y1="67.5597" x2="42.8585" y2="67.5597" stroke="#666666"/>
<line x1="49.3341" y1="61.3906" x2="42.8585" y2="61.3906" stroke="#666666"/>
<line x1="49.3341" y1="55.226" x2="42.8585" y2="55.226" stroke="#666666"/>
<line x1="91.7344" y1="79.8953" x2="85.2587" y2="79.8953" stroke="#666666"/>
<line x1="91.7344" y1="73.7263" x2="85.2587" y2="73.7263" stroke="#666666"/>
<line x1="91.7344" y1="67.5597" x2="85.2587" y2="67.5597" stroke="#666666"/>
<line x1="91.7344" y1="61.3906" x2="85.2587" y2="61.3906" stroke="#666666"/>
<line x1="91.7344" y1="55.226" x2="85.2587" y2="55.226" stroke="#666666"/>
<rect x="120.458" y="85.2917" width="36.0037" height="36.0037" fill="white" stroke="#666666"/>
<line x1="127.013" y1="85.8713" x2="127.013" y2="79.3957" stroke="#666666"/>
<line x1="133.181" y1="85.8713" x2="133.181" y2="79.3957" stroke="#666666"/>
<line x1="139.348" y1="85.8713" x2="139.348" y2="79.3957" stroke="#666666"/>
<line x1="145.515" y1="85.8713" x2="145.515" y2="79.3957" stroke="#666666"/>
<line x1="151.683" y1="85.8713" x2="151.683" y2="79.3957" stroke="#666666"/>
<line x1="127.013" y1="127.963" x2="127.013" y2="121.487" stroke="#666666"/>
<line x1="133.181" y1="127.963" x2="133.181" y2="121.487" stroke="#666666"/>
<line x1="139.348" y1="127.963" x2="139.348" y2="121.487" stroke="#666666"/>
<line x1="145.515" y1="127.963" x2="145.515" y2="121.487" stroke="#666666"/>
<line x1="151.683" y1="127.963" x2="151.683" y2="121.487" stroke="#666666"/>
<line x1="121.038" y1="115.898" x2="114.562" y2="115.898" stroke="#666666"/>
<path d="M120.089 103.613L106.198 103.613L106.198 112.488L93.8506 112.488" stroke="#666666"/>
<line x1="121.038" y1="109.187" x2="114.562" y2="109.187" stroke="#666666"/>
<line x1="121.038" y1="97.3934" x2="114.562" y2="97.3934" stroke="#666666"/>
<line x1="121.038" y1="91.2288" x2="114.562" y2="91.2288" stroke="#666666"/>
<line x1="163.438" y1="115.898" x2="156.962" y2="115.898" stroke="#666666"/>
<line x1="163.438" y1="109.729" x2="156.962" y2="109.729" stroke="#666666"/>
<line x1="163.438" y1="103.562" x2="156.962" y2="103.562" stroke="#666666"/>
<line x1="163.438" y1="97.3934" x2="156.962" y2="97.3934" stroke="#666666"/>
<line x1="163.438" y1="91.2288" x2="156.962" y2="91.2288" stroke="#666666"/>
<circle cx="85.1948" cy="111.991" r="15.4727" fill="white" stroke="#666666"/>
<path d="M80.2661 105.12H89.7091V111.485L87.6488 114.982H82.3264L80.2661 111.485V105.12Z" fill="#FBFBFB" stroke="#666666"/>
<path d="M89.3653 120.809L80.609 120.809L80.609 119.431L82.5195 118.209L87.4548 118.209L89.3653 119.431L89.3653 120.809Z" fill="#FBFBFB" stroke="#666666"/>
<path d="M89.8184 106.331H92.9088V106.961C92.9088 108.668 91.5252 110.051 89.8184 110.051V110.051V106.331Z" stroke="#666666"/>
<path d="M80.1566 106.331H77.0662V106.961C77.0662 108.668 78.4498 110.051 80.1566 110.051V110.051V106.331Z" stroke="#666666"/>
<path d="M84.9879 114.746V118.377" stroke="#666666"/>
<defs>
<filter id="filter0_d" x="0.5" y="0.628418" width="205" height="169.001" filterUnits="userSpaceOnUse" color-interpolation-filters="sRGB">
<feFlood flood-opacity="0" result="BackgroundImageFix"/>
<feColorMatrix in="SourceAlpha" type="matrix" values="0 0 0 0 0 0 0 0 0 0 0 0 0 0 0 0 0 0 127 0"/>
<feOffset/>
<feGaussianBlur stdDeviation="6"/>
<feColorMatrix type="matrix" values="0 0 0 0 0 0 0 0 0 0.93956 0 0 0 0 1 0 0 0 0.5 0"/>
<feBlend mode="normal" in2="BackgroundImageFix" result="effect1_dropShadow"/>
<feBlend mode="normal" in="SourceGraphic" in2="effect1_dropShadow" result="shape"/>
</filter>
</defs>
</svg>
