<svg xmlns="http://www.w3.org/2000/svg" width="81" height="81" viewBox="0 0 81 81"><g transform="translate(-20683 -12452)"><circle cx="40.5" cy="40.5" r="40.5" transform="translate(20683 12452)" fill="none"/><path d="M85.349,309.657ZM66.328,286.2c4.468,0,7.085,2.649,7.085,6.351a5.236,5.236,0,0,1-3.511,5.074,5.645,5.645,0,0,1,4.245,5.649c0,3.7-2.936,6.383-7.245,6.383H58.7V286.2Zm-.351,10.245c2.617,0,4.181-1.564,4.181-3.734,0-2.2-1.628-3.67-4.308-3.67H61.955v7.4Zm.479,10.372c2.617,0,4.4-1.468,4.4-3.734s-1.436-3.83-4.277-3.83H61.955v7.564Z" transform="translate(20658.072 12195.363)" fill="#e1ebff"/><path d="M55.989,300.05H22.862a2.264,2.264,0,0,1-1.66-.7,2.374,2.374,0,0,1-.7-1.66V264.562a2.264,2.264,0,0,1,.7-1.66,2.374,2.374,0,0,1,1.66-.7H55.989a2.264,2.264,0,0,1,1.66.7,2.374,2.374,0,0,1,.7,1.66v1.5h-.83v-1.5a1.526,1.526,0,0,0-1.532-1.532H22.862a1.526,1.526,0,0,0-1.532,1.532v33.127a1.526,1.526,0,0,0,1.532,1.532H55.989a1.526,1.526,0,0,0,1.532-1.532v-.83h.83v.83a2.264,2.264,0,0,1-.7,1.66A2.374,2.374,0,0,1,55.989,300.05Z" transform="translate(20684.08 12211.704)" fill="#e1ebff" opacity="0.7"/></g></svg>