<svg xmlns="http://www.w3.org/2000/svg" width="81" height="81" viewBox="0 0 81 81"><g transform="translate(-21033.693 -12301.846)"><circle cx="40.5" cy="40.5" r="40.5" transform="translate(21033.693 12301.846)" fill="none"/><path d="M65.014,90.344a2.383,2.383,0,0,1-2.594.173c-1.038-.519-1.556-1.9-1.556-3.632V81.352c0-2.594-1.038-4.5-2.767-5.015-2.94-.865-5.188,2.767-6.053,4.15l-5.188,8.474V78.585c0-2.421-.865-3.8-2.248-4.15-1.038-.346-2.421-.173-3.8,1.9L29.217,95.013A20.611,20.611,0,0,1,26.8,85.329a20.261,20.261,0,0,1,20.06-20.406c11.068,0,20.06,9.338,20.06,20.579h0c.173,2.248-.519,3.977-1.9,4.842Zm6.4-4.842h0a24.774,24.774,0,1,0-7.782,18.158,2.4,2.4,0,0,0,.173-3.286,2.2,2.2,0,0,0-3.113-.173h0a20.14,20.14,0,0,1-13.662,5.534,20.413,20.413,0,0,1-15.045-6.744L42.533,82.044v7.782c0,3.8,1.383,5.015,2.594,5.361s3.113.173,5.015-3.113l5.707-9.338c.173-.346.346-.519.519-.865V86.54c0,3.459,1.383,6.226,3.8,7.609a6.894,6.894,0,0,0,7.263-.346C70.2,92.592,71.586,89.307,71.413,85.5Z" transform="translate(21027.33 12257.943)" fill="#e1ebff" fill-rule="evenodd"/></g></svg>