<svg xmlns="http://www.w3.org/2000/svg" width="81" height="81" viewBox="0 0 81 81"><g transform="translate(-21209.035 -12301.846)"><circle cx="40.5" cy="40.5" r="40.5" transform="translate(21209.035 12301.846)" fill="none"/><path d="M26,52h0A26.009,26.009,0,0,1,15.775,2.088,25.841,25.841,0,0,1,25.887,0H26A26.009,26.009,0,0,1,36.228,49.916,25.839,25.839,0,0,1,26.116,52ZM26,1.967h-.108a24.055,24.055,0,0,0-9.223,46.218A23.89,23.89,0,0,0,26,50.063h.12a24.054,24.054,0,0,0,9.212-46.22A23.9,23.9,0,0,0,26,1.967Z" transform="translate(21223.533 12316.343)" fill="#e1ebff"/><path d="M19.2,37.481h0A23.527,23.527,0,0,1,5.745,32.992,20.662,20.662,0,0,1,0,27.284c2.27-4.178,2.395-8.422,2.5-12.167.095-3.2.184-6.219,1.554-8.756C5.581,3.54,8.519,1.612,13.3.293A10.782,10.782,0,0,1,15.848,0,16.318,16.318,0,0,1,19.6.482a10.819,10.819,0,0,1,2.443-.3,4.468,4.468,0,0,1,2.945.855,3.726,3.726,0,0,1,1.336,1.732l.05.02.012,0c1.85.731,3.6,1.421,5.324,1.921a14.256,14.256,0,0,1,5.254,2.414,4.606,4.606,0,0,1,1.828,3.087c.174,1.658-.69,3.551-2.5,5.473A25.1,25.1,0,0,1,29.6,20.515a12.528,12.528,0,0,0-5.321,4.829,11.725,11.725,0,0,0-1.511,5.413,16.177,16.177,0,0,0,1.01,6.235A22,22,0,0,1,19.2,37.481ZM19.862,17l-.051.059a6.564,6.564,0,0,0,4.361,1.916c.283.026.573.039.861.039a15.816,15.816,0,0,0,3.9-.589A25.477,25.477,0,0,0,33.4,16.8a17.083,17.083,0,0,0,3.98-2.553l-.051-.059a16.823,16.823,0,0,1-4.085,2.262A25.006,25.006,0,0,1,28.8,17.824a20.433,20.433,0,0,1-3.954.387c-.207,0-.417,0-.624-.01A8.222,8.222,0,0,1,19.862,17ZM32.75,11.019h0a1.008,1.008,0,0,0,.005,2.016h.006a1.006,1.006,0,0,0,1-1.013,1.013,1.013,0,0,0-1.01-1ZM16.1,4.154a3.271,3.271,0,1,0,3.271,3.272A3.275,3.275,0,0,0,16.1,4.154Z" transform="translate(21230.025 12329.041)" fill="#e1ebff"/><path d="M138.48,68.268a24.868,24.868,0,0,1,6.723,2.284C144.261,67.82,141.09,67.456,138.48,68.268Z" transform="translate(21111.145 12261.248)" fill="#e1ebff"/><path d="M4.652,9.3h0A4.653,4.653,0,1,1,7.938,7.936,4.656,4.656,0,0,1,4.65,9.3Zm0-7.882A3.271,3.271,0,1,0,7.92,4.69,3.275,3.275,0,0,0,4.649,1.418Z" transform="translate(21241.479 12331.777)" fill="#fff"/><path d="M19.476,25.488h0A23.5,23.5,0,0,1,8.11,22.407,22.526,22.526,0,0,1,0,14.958C2.063,10.335,2.406,6.192,2.84.946Q2.879.479,2.919,0A9.293,9.293,0,0,0,6.532,5.884a8.991,8.991,0,0,0,4.73,1.634c.1,0,.2.007.3.007a13.663,13.663,0,0,0,6.81-2.353,1.611,1.611,0,0,1,.984-.406A1.471,1.471,0,0,1,20.109,5l-.023.026a6.565,6.565,0,0,0,4.361,1.916c.283.026.573.039.861.039a15.816,15.816,0,0,0,3.9-.589A25.475,25.475,0,0,0,33.677,4.77a17.107,17.107,0,0,0,3.98-2.552l-.039-.044.185-.13a30.985,30.985,0,0,1-3.98,4.317c-.43.412-.836.8-1.163,1.132A42.211,42.211,0,0,0,26.683,14.9c-2.185,3.6-3.072,6.979-2.637,10.044A19.155,19.155,0,0,1,19.476,25.488ZM35.956,3.262v0c.449-.274.912-.572,1.376-.888A12.669,12.669,0,0,1,35.956,3.262Z" transform="translate(21229.75 12341.07)" fill="#e1ebff"/></g></svg>