<svg xmlns="http://www.w3.org/2000/svg" width="81" height="81" viewBox="0 0 81 81"><g transform="translate(-20857.5 -12301.846)"><circle cx="40.5" cy="40.5" r="40.5" transform="translate(20857.5 12301.846)" fill="none"/><path d="M181.26,72.42l20.93,35.137a1.607,1.607,0,0,1-.546,2.184,1.625,1.625,0,0,1-.8.23H158.98a1.588,1.588,0,0,1-1.58-1.595,1.5,1.5,0,0,1,.23-.819L178.56,72.42a1.573,1.573,0,0,1,2.155-.546A1.423,1.423,0,0,1,181.26,72.42Zm-1.35,3.907-18.143,30.454h36.3l-8.721-14.628Z" transform="translate(20718.094 12248.145)" fill="#e1ebff"/></g></svg>