<svg width="58" height="51" viewBox="0 0 58 51" fill="none" xmlns="http://www.w3.org/2000/svg">
<path d="M29.0647 44.9006C39.9456 44.9006 48.7664 36.0798 48.7664 25.1988C48.7664 14.3178 39.9456 5.49707 29.0647 5.49707C18.1837 5.49707 9.36292 14.3178 9.36292 25.1988C9.36292 36.0798 18.1837 44.9006 29.0647 44.9006Z" stroke="black" stroke-miterlimit="10"/>
<path d="M29.8298 13.7913C33.362 13.7913 36.2255 10.9278 36.2255 7.39563C36.2255 3.86342 33.362 1 29.8298 1C26.2976 1 23.4342 3.86342 23.4342 7.39563C23.4342 10.9278 26.2976 13.7913 29.8298 13.7913Z" stroke="black" stroke-miterlimit="10"/>
<path d="M29.8298 49.8264C33.362 49.8264 36.2255 46.963 36.2255 43.4308C36.2255 39.8986 33.362 37.0352 29.8298 37.0352C26.2976 37.0352 23.4342 39.8986 23.4342 43.4308C23.4342 46.963 26.2976 49.8264 29.8298 49.8264Z" stroke="black" stroke-miterlimit="10"/>
<path d="M7.39563 31.7307C10.9278 31.7307 13.7913 28.8673 13.7913 25.3351C13.7913 21.8029 10.9278 18.9395 7.39563 18.9395C3.86342 18.9395 1 21.8029 1 25.3351C1 28.8673 3.86342 31.7307 7.39563 31.7307Z" stroke="black" stroke-miterlimit="10"/>
<path d="M50.6044 31.7307C54.1366 31.7307 57 28.8673 57 25.3351C57 21.8029 54.1366 18.9395 50.6044 18.9395C47.0722 18.9395 44.2087 21.8029 44.2087 25.3351C44.2087 28.8673 47.0722 31.7307 50.6044 31.7307Z" stroke="black" stroke-miterlimit="10"/>
</svg>
