<svg width="55" height="55" viewBox="0 0 55 55" fill="none" xmlns="http://www.w3.org/2000/svg">
<path d="M46.0289 14.9926V22.528V41.6768L26.88 49.6074L7.7312 41.6768V22.528V14.9926L26.88 7.06201L46.0289 14.9926Z" stroke="black" stroke-miterlimit="10"/>
<path d="M37.4902 20.942V25.1162V35.7266L26.8798 40.1212L16.272 35.7266V25.1162V20.942L26.8798 16.5474L37.4902 20.942Z" stroke="black" stroke-miterlimit="10"/>
<path d="M31.0416 25.4358V27.072V31.2336L26.88 32.956L22.7209 31.2336V27.072V25.4358L26.88 23.7134L31.0416 25.4358Z" stroke="black" stroke-miterlimit="10"/>
<path d="M37.4902 28.3357V0" stroke="black" stroke-miterlimit="10"/>
<path d="M54.0682 27.9453L27.8879 17.1069" stroke="black" stroke-miterlimit="10"/>
<path d="M27.0498 40.1211L0.869629 29.2827" stroke="black" stroke-miterlimit="10"/>
<path d="M16.272 54.9998V26.6641" stroke="black" stroke-miterlimit="10"/>
<path d="M52.8373 15.3569H0.859375" stroke="black" stroke-miterlimit="10"/>
<path d="M52.8373 41.6763H0.859375" stroke="black" stroke-miterlimit="10"/>
</svg>
