<svg width="47" height="47" viewBox="0 0 47 47" fill="none" xmlns="http://www.w3.org/2000/svg">
<path d="M32.3141 29.6842C32.3141 26.2297 29.883 23.8818 25.0856 22.7105L21.0779 21.7309C15.3976 20.347 15.3976 17.0118 15.3976 15.9156C15.3976 11.9324 19.3898 9.46534 23.0869 9.46534C27.1128 9.46534 30.116 11.707 30.6804 15.0811H31.1982C30.6934 11.5696 27.7911 9.16214 23.685 8.90558L23.3199 8.88226V4.40674H22.7607V8.92631L22.3982 8.94964C17.4895 9.27098 14.8384 12.7799 14.8384 15.9156C14.8384 20.3134 18.3517 21.6454 20.995 22.2648L25.0002 23.2003C29.4196 24.2213 31.7549 26.4941 31.7549 29.7723C31.7549 33.1801 28.7335 36.8005 23.1309 36.8005C18.7322 36.8005 15.8843 33.8254 15.2397 30.7856H14.6882C15.3225 33.8824 18.0876 37.0233 22.4008 37.3162L22.7633 37.3421V41.8617H23.3225V37.3784L23.6953 37.3628C27.8714 37.184 32.3141 34.4318 32.3141 29.6842Z" fill="black"/>
<circle cx="23.1339" cy="23.1339" r="22.6339" stroke="black"/>
</svg>
