<svg width="39" height="46" viewBox="0 0 39 46" fill="none" xmlns="http://www.w3.org/2000/svg">
<path d="M19.9458 42.9753C20.7467 42.9753 21.396 42.3412 21.396 41.5589C21.396 40.7767 20.7467 40.1426 19.9458 40.1426C19.1449 40.1426 18.4956 40.7767 18.4956 41.5589C18.4956 42.3412 19.1449 42.9753 19.9458 42.9753Z" stroke="black" stroke-miterlimit="10"/>
<path d="M25.595 42.9753C26.3959 42.9753 27.0452 42.3412 27.0452 41.5589C27.0452 40.7767 26.3959 40.1426 25.595 40.1426C24.7941 40.1426 24.1448 40.7767 24.1448 41.5589C24.1448 42.3412 24.7941 42.9753 25.595 42.9753Z" stroke="black" stroke-miterlimit="10"/>
<path d="M14.2964 42.9753C15.0973 42.9753 15.7466 42.3412 15.7466 41.5589C15.7466 40.7767 15.0973 40.1426 14.2964 40.1426C13.4955 40.1426 12.8462 40.7767 12.8462 41.5589C12.8462 42.3412 13.4955 42.9753 14.2964 42.9753Z" stroke="black" stroke-miterlimit="10"/>
<path d="M33.5802 44.9998H5.65045C3.08245 44.9998 1 43.2562 1 41.106V4.89383C1 2.74364 3.08245 1 5.65045 1H33.5802C36.1482 1 38.2306 2.74364 38.2306 4.89383V41.106C38.2306 43.2562 36.1482 44.9998 33.5802 44.9998Z" stroke="black" stroke-miterlimit="10"/>
<path d="M29.8487 37.3694H9.58636C7.18115 37.3694 5.23071 35.4645 5.23071 33.1154V9.39756C5.23071 7.04848 7.18115 5.14355 9.58636 5.14355H29.8512C32.2564 5.14355 34.2069 7.04848 34.2069 9.39756V33.1129C34.2069 35.4645 32.2564 37.3694 29.8487 37.3694Z" stroke="black" stroke-miterlimit="10"/>
<path d="M13.2102 13.3999H28.7379" stroke="black" stroke-miterlimit="10"/>
<path d="M13.2102 17.2983H28.7379" stroke="black" stroke-miterlimit="10"/>
<path d="M11.3906 21.1997H30.5565" stroke="black" stroke-miterlimit="10"/>
<path d="M13.2102 25.0986H28.7379" stroke="black" stroke-miterlimit="10"/>
<path d="M13.2102 29H28.7379" stroke="black" stroke-miterlimit="10"/>
<path d="M18.8489 9.61963H23.0984" stroke="black" stroke-miterlimit="10"/>
</svg>
