<svg width="69" height="38" viewBox="0 0 69 38" fill="none" xmlns="http://www.w3.org/2000/svg">
<path d="M52.0658 16.8081H41.2507" stroke="black" stroke-miterlimit="10"/>
<path d="M46.657 11.4019V22.2169" stroke="black" stroke-miterlimit="10"/>
<path d="M42.043 37.2695H23.3381V27.7248C23.3381 22.4544 27.5242 18.1802 32.6919 18.1802C37.8569 18.1802 42.0456 22.4517 42.0456 27.7248V37.2695H42.043Z" stroke="black" stroke-miterlimit="10"/>
<path d="M32.501 15.8897C36.718 15.8897 40.1367 12.5565 40.1367 8.44483C40.1367 4.33316 36.718 1 32.501 1C28.2839 1 24.8652 4.33316 24.8652 8.44483C24.8652 12.5565 28.2839 15.8897 32.501 15.8897Z" stroke="black" stroke-miterlimit="10"/>
<path d="M14.2635 29.3559H1V22.5878C1 18.8506 3.96832 15.8198 7.63266 15.8198C11.2951 15.8198 14.2653 18.8487 14.2653 22.5878V29.3559H14.2635Z" stroke="black" stroke-miterlimit="10"/>
<path d="M7.49755 14.1958C10.4878 14.1958 12.912 11.8323 12.912 8.91675C12.912 6.00121 10.4878 3.6377 7.49755 3.6377C4.50725 3.6377 2.08313 6.00121 2.08313 8.91675C2.08313 11.8323 4.50725 14.1958 7.49755 14.1958Z" stroke="black" stroke-miterlimit="10"/>
<path d="M68.2552 29.3564H54.9917V22.5883C54.9917 18.8511 57.96 15.8203 61.6244 15.8203C65.2868 15.8203 68.257 18.8492 68.257 22.5883V29.3564H68.2552Z" stroke="black" stroke-miterlimit="10"/>
<path d="M61.4891 14.1958C64.4794 14.1958 66.9035 11.8323 66.9035 8.91675C66.9035 6.00121 64.4794 3.6377 61.4891 3.6377C58.4988 3.6377 56.0747 6.00121 56.0747 8.91675C56.0747 11.8323 58.4988 14.1958 61.4891 14.1958Z" stroke="black" stroke-miterlimit="10"/>
</svg>
