<svg width="61" height="45" viewBox="0 0 61 45" fill="none" xmlns="http://www.w3.org/2000/svg">
<path d="M56.8357 1H3.95392C2.05972 1 0.526855 2.53286 0.526855 4.42707V40.5729C0.526855 42.4671 2.05972 44 3.95392 44H56.8357C58.7299 44 60.2628 42.4671 60.2628 40.5729V4.42707C60.2628 2.53286 58.7261 1 56.8357 1Z" stroke="black" stroke-miterlimit="10"/>
<path d="M0.526855 10.2119H60.2628" stroke="black" stroke-miterlimit="10"/>
<path d="M26.8062 19.6494H52.2448" stroke="black" stroke-miterlimit="10"/>
<path d="M26.8062 26.9297H52.2448" stroke="black" stroke-miterlimit="10"/>
<path d="M26.8062 34.2129H52.2448" stroke="black" stroke-miterlimit="10"/>
<path d="M6.30851 7.77009C7.22231 7.77009 7.96309 7.02931 7.96309 6.11551C7.96309 5.20172 7.22231 4.46094 6.30851 4.46094C5.39471 4.46094 4.65393 5.20172 4.65393 6.11551C4.65393 7.02931 5.39471 7.77009 6.30851 7.77009Z" stroke="black" stroke-miterlimit="10"/>
<path d="M12.8506 7.77009C13.7644 7.77009 14.5052 7.02931 14.5052 6.11551C14.5052 5.20172 13.7644 4.46094 12.8506 4.46094C11.9368 4.46094 11.196 5.20172 11.196 6.11551C11.196 7.02931 11.9368 7.77009 12.8506 7.77009Z" stroke="black" stroke-miterlimit="10"/>
<path d="M19.3929 7.77009C20.3067 7.77009 21.0474 7.02931 21.0474 6.11551C21.0474 5.20172 20.3067 4.46094 19.3929 4.46094C18.4791 4.46094 17.7383 5.20172 17.7383 6.11551C17.7383 7.02931 18.4791 7.77009 19.3929 7.77009Z" stroke="black" stroke-miterlimit="10"/>
<path d="M21.0209 18.6069H4.65393V34.9739H21.0209V18.6069Z" stroke="black" stroke-miterlimit="10"/>
</svg>
