<svg width="57" height="53" viewBox="0 0 57 53" fill="none" xmlns="http://www.w3.org/2000/svg">
<path d="M48.5082 10.79H7.25287C5.77554 10.79 4.57983 11.9332 4.57983 13.3437V40.2865C4.57983 41.697 5.77792 42.8402 7.25287 42.8402H48.5106C49.988 42.8402 51.1837 41.697 51.1837 40.2865V13.3437C51.1813 11.9332 49.9856 10.79 48.5082 10.79Z" stroke="black" stroke-miterlimit="10"/>
<path d="M0 6.97998H56.58" stroke="black" stroke-miterlimit="10"/>
<path d="M34.5226 24.8213H31.3604V37.6041H34.5226V24.8213Z" stroke="black" stroke-miterlimit="10"/>
<path d="M39.9714 15.0615H36.8091V37.6033H39.9714V15.0615Z" stroke="black" stroke-miterlimit="10"/>
<path d="M45.4201 18.978H42.2578V37.6033H45.4201V18.978Z" stroke="black" stroke-miterlimit="10"/>
<path d="M18.4968 52L27.3918 43.4058L36.1365 52" stroke="black" stroke-miterlimit="10"/>
<path d="M27.3154 52V43.4058" stroke="black" stroke-miterlimit="10"/>
<path d="M27.3145 0V6.82862" stroke="black"/>
</svg>
