<svg width="57" height="48" viewBox="0 0 57 48" fill="none" xmlns="http://www.w3.org/2000/svg">
<path d="M37.1968 41.5615H0.999836V43.9244C0.999836 45.6472 2.76765 47.0428 4.94985 47.0428H40.8577" stroke="black" stroke-miterlimit="10"/>
<path d="M49.7911 1H13.6734C10.0905 1 7.18449 3.28311 7.18449 6.09799V41.5382H37.1141V44.1616C37.1141 45.7522 38.7567 47.0427 40.7813 47.0427C42.9833 47.0427 44.7673 45.6411 44.7673 43.9111V8.37165" stroke="black" stroke-miterlimit="10"/>
<path d="M44.9808 8.12565H55.9761V6.12663C55.9761 3.29602 53.1528 1 49.6722 1H49.5149C47.0119 1 44.9808 2.65176 44.9808 4.68734V8.12565Z" stroke="black" stroke-miterlimit="10"/>
<path d="M38.7959 8.125H13.3694" stroke="black" stroke-miterlimit="10"/>
<path d="M38.7959 14.7031H13.3694" stroke="black" stroke-miterlimit="10"/>
<path d="M38.7959 20.7324H13.3694" stroke="black" stroke-miterlimit="10"/>
<path d="M38.7959 27.3101H13.3694" stroke="black" stroke-miterlimit="10"/>
<path d="M38.7959 33.3394H13.3694" stroke="black" stroke-miterlimit="10"/>
</svg>
