<svg width="52" height="47" viewBox="0 0 52 47" fill="none" xmlns="http://www.w3.org/2000/svg">
<path d="M31.9729 11.8013H7.22156" stroke="black" stroke-miterlimit="10"/>
<path d="M31.973 18.1192L38.291 11.8012L31.973 5.47998V18.1192Z" stroke="black" stroke-miterlimit="10"/>
<path d="M20.8145 24.8423H45.5626" stroke="black" stroke-miterlimit="10"/>
<path d="M20.8146 18.5244L14.4966 24.8424L20.8146 31.1604V18.5244Z" stroke="black" stroke-miterlimit="10"/>
<path d="M48.4862 1H3.8901C2.29269 1 1 2.30703 1 3.92216V34.7427C1 36.3578 2.29269 37.6649 3.8901 37.6649H31.0911C32.5666 40.0324 36.2843 46 36.2843 46L41.4775 37.6649H48.483C50.0804 37.6649 51.3731 36.3578 51.3731 34.7427V3.92216C51.3763 2.30703 50.0804 1 48.4862 1Z" stroke="black" stroke-miterlimit="10"/>
</svg>
