<svg width="86" height="34" viewBox="0 0 86 34" fill="none" xmlns="http://www.w3.org/2000/svg">
<path d="M33.72 14.296L31.32 15.04C31.08 14.88 30.84 14.656 30.6 14.368C30.36 14.08 30.24 13.68 30.24 13.168C30.24 12.208 30.824 11.536 31.992 11.152L34.68 10.24H35.568C36.256 10.24 36.8 10.44 37.2 10.84C37.6 11.24 37.8 11.784 37.8 12.472V24.976C37.624 25.008 37.36 25.048 37.008 25.096C36.672 25.16 36.328 25.192 35.976 25.192C35.624 25.192 35.304 25.168 35.016 25.12C34.744 25.072 34.512 24.976 34.32 24.832C34.128 24.688 33.976 24.496 33.864 24.256C33.768 24 33.72 23.672 33.72 23.272V14.296ZM40.5739 10.096C40.5739 9.488 40.7739 8.976 41.1739 8.56C41.5899 8.144 42.1339 7.936 42.8059 7.936C43.4779 7.936 44.0139 8.144 44.4139 8.56C44.8299 8.976 45.0379 9.488 45.0379 10.096C45.0379 10.704 44.8299 11.216 44.4139 11.632C44.0139 12.048 43.4779 12.256 42.8059 12.256C42.1339 12.256 41.5899 12.048 41.1739 11.632C40.7739 11.216 40.5739 10.704 40.5739 10.096ZM44.8459 24.976C44.6699 25.008 44.4059 25.048 44.0539 25.096C43.7179 25.16 43.3739 25.192 43.0219 25.192C42.6699 25.192 42.3499 25.168 42.0619 25.12C41.7899 25.072 41.5579 24.976 41.3659 24.832C41.1739 24.688 41.0219 24.496 40.9099 24.256C40.8139 24 40.7659 23.672 40.7659 23.272V13.504C40.9419 13.472 41.1979 13.432 41.5339 13.384C41.8859 13.32 42.2379 13.288 42.5899 13.288C42.9419 13.288 43.2539 13.312 43.5259 13.36C43.8139 13.408 44.0539 13.504 44.2459 13.648C44.4379 13.792 44.5819 13.992 44.6779 14.248C44.7899 14.488 44.8459 14.808 44.8459 15.208V24.976ZM54.8353 17.608C54.8353 17.112 54.6913 16.752 54.4033 16.528C54.1313 16.288 53.7553 16.168 53.2753 16.168C52.9553 16.168 52.6353 16.208 52.3153 16.288C52.0113 16.368 51.7473 16.488 51.5233 16.648V24.976C51.3633 25.024 51.1073 25.072 50.7553 25.12C50.4193 25.168 50.0673 25.192 49.6993 25.192C49.3473 25.192 49.0273 25.168 48.7393 25.12C48.4673 25.072 48.2353 24.976 48.0433 24.832C47.8513 24.688 47.6993 24.496 47.5873 24.256C47.4913 24 47.4433 23.672 47.4433 23.272V16.072C47.4433 15.64 47.5313 15.288 47.7073 15.016C47.8993 14.744 48.1553 14.496 48.4753 14.272C49.0193 13.888 49.6993 13.576 50.5153 13.336C51.3473 13.096 52.2673 12.976 53.2753 12.976C55.0833 12.976 56.4753 13.376 57.4513 14.176C58.4273 14.96 58.9153 16.056 58.9153 17.464V24.976C58.7553 25.024 58.4993 25.072 58.1473 25.12C57.8113 25.168 57.4593 25.192 57.0913 25.192C56.7393 25.192 56.4193 25.168 56.1313 25.12C55.8593 25.072 55.6273 24.976 55.4353 24.832C55.2433 24.688 55.0913 24.496 54.9793 24.256C54.8833 24 54.8353 23.672 54.8353 23.272V17.608ZM68.0115 16.192C67.6115 16.192 67.2275 16.256 66.8595 16.384C66.5075 16.512 66.1955 16.704 65.9235 16.96C65.6675 17.2 65.4595 17.504 65.2995 17.872C65.1395 18.24 65.0595 18.672 65.0595 19.168C65.0595 20.16 65.3395 20.904 65.8995 21.4C66.4755 21.896 67.1715 22.144 67.9875 22.144C68.4675 22.144 68.8835 22.088 69.2355 21.976C69.5875 21.864 69.8995 21.744 70.1715 21.616C70.4915 21.84 70.7315 22.088 70.8915 22.36C71.0515 22.616 71.1315 22.928 71.1315 23.296C71.1315 23.952 70.8195 24.464 70.1955 24.832C69.5715 25.184 68.7075 25.36 67.6035 25.36C66.5955 25.36 65.6835 25.216 64.8675 24.928C64.0515 24.624 63.3475 24.208 62.7555 23.68C62.1795 23.136 61.7315 22.488 61.4115 21.736C61.0915 20.984 60.9315 20.152 60.9315 19.24C60.9315 18.184 61.0995 17.264 61.4355 16.48C61.7875 15.68 62.2595 15.024 62.8515 14.512C63.4435 14 64.1235 13.616 64.8915 13.36C65.6755 13.104 66.4995 12.976 67.3635 12.976C68.5155 12.976 69.4035 13.184 70.0275 13.6C70.6515 14.016 70.9635 14.552 70.9635 15.208C70.9635 15.512 70.8915 15.8 70.7475 16.072C70.6035 16.328 70.4355 16.552 70.2435 16.744C69.9715 16.616 69.6435 16.496 69.2595 16.384C68.8755 16.256 68.4595 16.192 68.0115 16.192ZM84.6977 24.976C84.5377 25.024 84.2817 25.072 83.9297 25.12C83.5937 25.168 83.2417 25.192 82.8737 25.192C82.5217 25.192 82.2017 25.168 81.9137 25.12C81.6417 25.072 81.4097 24.976 81.2177 24.832C81.0257 24.688 80.8737 24.496 80.7617 24.256C80.6657 24 80.6177 23.672 80.6177 23.272V17.944C80.6177 17.288 80.4497 16.832 80.1137 16.576C79.7937 16.304 79.3937 16.168 78.9137 16.168C78.5937 16.168 78.2897 16.208 78.0017 16.288C77.7137 16.368 77.4817 16.464 77.3057 16.576V24.976C77.1457 25.024 76.8897 25.072 76.5377 25.12C76.2017 25.168 75.8497 25.192 75.4817 25.192C75.1297 25.192 74.8097 25.168 74.5217 25.12C74.2497 25.072 74.0177 24.976 73.8257 24.832C73.6337 24.688 73.4817 24.496 73.3697 24.256C73.2737 24 73.2257 23.672 73.2257 23.272V9.352C73.4017 9.32 73.6577 9.28 73.9937 9.232C74.3457 9.168 74.6977 9.136 75.0497 9.136C75.4017 9.136 75.7137 9.16 75.9857 9.208C76.2737 9.256 76.5137 9.352 76.7057 9.496C76.8977 9.64 77.0417 9.84 77.1377 10.096C77.2497 10.336 77.3057 10.656 77.3057 11.056V13.408C77.5137 13.328 77.8257 13.24 78.2417 13.144C78.6737 13.032 79.1457 12.976 79.6577 12.976C81.2417 12.976 82.4737 13.376 83.3537 14.176C84.2497 14.96 84.6977 16.136 84.6977 17.704V24.976Z" fill="white"/>
<g clip-path="url(#clip0)">
<path d="M6.804 32.5407C5.39269 32.5407 4.1502 32.1856 3.111 31.4755C1.70203 30.5198 0.796591 28.9901 0.492832 27.0569C0.207182 25.2407 0.461288 23.0962 1.22594 20.8552C1.9906 18.6142 3.25295 16.3283 4.87747 14.2275C7.28067 11.1214 10.2669 8.67565 13.2852 7.34064C14.9038 6.62639 16.4437 6.2666 17.8643 6.2666C19.2756 6.2666 20.5181 6.62166 21.5573 7.33177C22.5837 8.02827 23.3501 9.04195 23.8046 10.2947C23.8912 10.1311 23.9631 9.96002 24.0195 9.78342L24.4869 8.25787L24.7573 9.83136C25.3152 13.0819 24.439 16.0371 23.4634 18.1314C23.7185 17.9769 23.9577 17.7969 24.1773 17.594L25.3257 16.5011L24.7947 18.0041C23.9337 20.4404 22.485 22.6506 20.4831 24.5869C20.9305 24.5454 21.3897 24.4644 21.7519 24.3123L23.2081 23.7016L22.1859 24.9171C19.7149 27.8569 16.2982 29.3712 13.8477 30.1245C13.0615 30.6349 12.2376 31.0828 11.3832 31.4643C9.76448 32.1756 8.22408 32.5407 6.804 32.5407ZM17.8597 8.80584C16.7942 8.80584 15.5937 9.09757 14.2917 9.67336C11.6472 10.8427 9.00684 13.018 6.85599 15.7975C3.99015 19.5013 2.50231 23.6643 2.97314 26.6568C3.16708 27.8918 3.68405 28.8019 4.50887 29.3618C5.12983 29.7825 5.90324 29.9961 6.80868 29.9961C7.87417 29.9961 9.0746 29.7044 10.3767 29.1286C13.0211 27.9593 15.6615 25.784 17.8123 23.0045C20.6782 19.3001 22.166 15.1394 21.6952 12.1451C21.5013 10.9101 20.9843 10 20.1595 9.4402C19.5385 9.01946 18.7651 8.80584 17.8597 8.80584Z" fill="#56A4CB"/>
<path d="M22.3359 14.9951C23.1362 13.908 23.4359 12.4712 23.6012 11.5209C22.9686 12.3109 22.482 12.6576 22.482 12.6576C22.555 13.3749 22.5988 14.0779 22.3359 14.9951Z" fill="#277DAD"/>
<path d="M11.7852 9.02422C18.4503 4.74758 22.6778 9.33371 22.7438 10.4681C22.4734 8.67804 21.225 7.42055 19.7448 6.7134C18.4591 6.03939 14.5949 6.97674 14.5949 6.97674L11.7852 9.02422Z" fill="#DDEDF5"/>
<path d="M9.52051 31.2116C8.32767 32.0158 5.33507 31.6951 4.73047 31.4756C4.73047 30.7063 4.9764 29.8861 4.9764 29.8861H6.44495C6.44495 29.8861 6.42626 30.4915 7.97426 30.1068C8.81077 30.5412 9.52051 31.2116 9.52051 31.2116Z" fill="#277DAD"/>
<path d="M0.603516 24.6999C1.95115 20.0026 6.56186 10.9711 15.3457 7.00636C13.9514 6.40809 7.99771 9.68229 4.87834 14.2258C1.04163 19.8179 1.04163 21.2086 0.603516 24.6999Z" fill="#DDEDF5"/>
<path d="M19.7441 20.2126C19.7441 20.2126 21.2267 19.7067 22.1392 19.009C22.8401 17.8213 24.0283 14.972 24.0283 12.4801C22.3144 16.5325 21.1076 17.0029 21.1076 17.0029C20.4714 18.9498 20.2313 19.2398 19.7441 20.2126Z" fill="#277DAD"/>
<path d="M20.6798 25.4592C17.9343 27.6232 16.0609 28.4902 13.6379 29.3056L12.084 30.1737L11.7207 28.6547C11.7207 28.6547 17.5768 25.5112 19.5238 20.5872C20.4666 21.0411 22.9989 19.828 23.6012 18.9498C22.4329 21.0802 18.4606 25.4201 18.4606 25.4201L20.6798 25.4592Z" fill="#277DAD"/>
<path d="M17.865 6.64831C19.1851 6.64831 20.3663 6.98088 21.3465 7.64602C22.5189 8.44134 23.3186 9.66747 23.6831 11.2125C23.9752 10.7983 24.2474 10.3308 24.3841 9.89174C24.9741 13.3293 23.9355 16.4407 22.7695 18.6723C22.7269 18.7794 22.683 18.8871 22.6381 18.9942C23.2806 18.6983 23.9647 18.319 24.4378 17.8698C23.3589 20.9233 21.4587 23.2608 19.4585 25.0047H19.5923C20.2728 25.0047 21.2233 24.9455 21.8979 24.6626C19.5345 27.4735 16.2901 28.9736 13.6883 29.7683C12.9055 30.2795 12.0841 30.7275 11.2319 31.1081C9.65472 31.8052 8.15812 32.1537 6.80581 32.1537C5.48563 32.1537 4.30447 31.8211 3.32427 31.156C2.00525 30.2613 1.15648 28.8227 0.87083 26.9965C0.595111 25.2426 0.843375 23.1625 1.58875 20.9813C2.33647 18.7853 3.57896 16.5325 5.17836 14.4654C7.54301 11.4084 10.4772 9.00411 13.4388 7.69395C15.0161 6.99686 16.5127 6.64831 17.865 6.64831ZM6.80931 30.3808C7.91336 30.3808 9.17396 30.0802 10.5292 29.4807C13.2303 28.2866 15.9227 26.071 18.1121 23.2418C21.0404 19.4546 22.5575 15.1815 22.0709 12.0848C21.8594 10.7397 21.2875 9.74262 20.3716 9.12068C19.6828 8.65378 18.8323 8.42122 17.8597 8.42122C16.7551 8.42122 15.4951 8.72184 14.1398 9.3207C11.4387 10.5155 8.74578 12.731 6.55696 15.5602C3.62861 19.3475 2.11157 23.6205 2.59817 26.7172C2.80963 28.0623 3.38151 29.0594 4.29746 29.6813C4.98559 30.1482 5.8367 30.3808 6.80931 30.3808V30.3808ZM17.865 5.88199C16.3917 5.88199 14.8005 6.25539 13.1333 6.99213C10.0584 8.35317 7.02019 10.8386 4.57902 13.9938C2.92996 16.1241 1.64658 18.4569 0.869078 20.7298C0.0828097 23.03 -0.175385 25.239 0.11669 27.1172C0.437974 29.1606 1.40182 30.7784 2.89842 31.7921C4.0013 32.5407 5.31505 32.92 6.80289 32.92C8.27553 32.92 9.86735 32.5466 11.5345 31.8099C12.3912 31.428 13.2179 30.9803 14.0072 30.4707C15.4856 30.0187 16.9106 29.4036 18.2563 28.6363C21.2203 26.9273 22.3127 25.7189 24.394 23.0246L21.6386 23.9342C24.4116 20.8801 25.1114 19.0285 25.9999 15.5312L24.4075 16.8414C26.1698 12.6772 25.0015 8.1354 24.6277 7.21344C24.3835 7.94308 23.9851 8.96801 23.7754 9.27809C23.3037 8.36372 22.6142 7.58307 21.7694 7.00692C20.6666 6.25835 19.3528 5.87903 17.865 5.87903V5.88199ZM6.80931 29.6115C5.9804 29.6115 5.27767 29.4198 4.72097 29.0422C3.98728 28.544 3.5258 27.7214 3.3488 26.5965C2.89433 23.704 4.35296 19.6575 7.15513 16.0348C9.26801 13.3044 11.8564 11.1705 14.4442 10.0261C15.6978 9.47159 16.8474 9.19051 17.8603 9.19051C18.6892 9.19051 19.3914 9.38224 19.9486 9.75978C20.6823 10.258 21.1438 11.0806 21.3208 12.2055C21.7753 15.098 20.3167 19.1445 17.5145 22.7672C15.4016 25.4988 12.8132 27.6291 10.2254 28.7759C8.97126 29.3304 7.82223 29.6115 6.80931 29.6115V29.6115Z" fill="#083751"/>
<path d="M6.81004 29.6114C5.98113 29.6114 5.2784 29.4197 4.7217 29.0421C3.98801 28.5439 3.52653 27.7213 3.34953 26.5964C2.89506 23.7039 4.35369 19.6575 7.15586 16.0347C9.26874 13.3043 11.8571 11.1705 14.4449 10.026C15.6985 9.47151 16.8481 9.19043 17.861 9.19043C18.6899 9.19043 19.3921 9.38216 19.9494 9.7597C20.6831 10.258 21.1445 11.0805 21.3215 12.2054C21.776 15.098 20.3174 19.1444 17.5152 22.7671C15.4023 25.4987 12.814 27.629 10.2262 28.7759C8.97199 29.3303 7.82296 29.6114 6.81004 29.6114V29.6114Z" fill="#083751"/>
<path d="M2.96497 2.29353C2.93051 2.73439 2.9603 4.84519 3.74657 5.20439C3.20155 3.90252 3.78045 1.47631 6.51311 1.46448C6.01307 1.84202 5.62987 2.46159 5.46163 2.87523C5.28082 3.07496 5.12088 3.2931 4.98438 3.52616C5.18124 3.40781 5.8203 2.30833 8.21824 2.30063C8.85497 2.30063 9.54661 2.37105 10.1109 2.69652C9.1412 2.45331 8.10842 2.9924 7.30346 3.54096C7.87067 3.35633 8.69608 2.80304 9.85737 3.03323C10.6378 3.18768 10.9585 3.91613 11.6028 4.2919C12.1286 4.59902 12.8751 4.57594 13.2192 4.00312C13.305 3.86088 13.3478 3.69632 13.3424 3.52971C13.4899 3.6877 13.6189 3.86245 13.7268 4.05046C13.9661 4.47016 14.066 4.95659 14.0119 5.43814C13.4435 5.3831 12.8839 5.58193 12.3137 5.51506C11.7616 5.44068 11.2399 5.21568 10.8043 4.86413C11.1143 5.33457 11.5824 5.675 12.1215 5.82219C12.8073 6.00859 13.475 5.74822 14.1602 5.8713C14.9424 6.01096 15.9279 6.52756 16.8205 5.92634C16.9785 5.81726 17.1112 5.67471 17.2095 5.50856C17.3519 5.90587 17.363 6.33931 17.241 6.74355C17.178 6.97086 17.0604 7.17882 16.8987 7.34892C16.7521 7.49627 16.5728 7.54657 16.4045 7.64835C15.8391 7.41165 15.2064 7.33176 14.5937 7.2933C15.1445 7.47083 15.7088 7.64835 16.2293 7.90103C16.7498 8.15372 17.1014 8.55197 17.4659 8.99579C17.7691 9.36504 18.1225 9.70116 18.5974 9.81537C18.9236 9.89406 19.2652 9.87723 19.5823 9.76685C19.667 10.2491 19.226 11.0356 18.6109 11.1397C18.9085 11.3321 19.2291 11.4854 19.5648 11.596C19.3311 11.809 18.7733 11.9682 18.4146 11.9871C19.2768 12.4451 19.7108 13.6654 19.691 14.656C19.5525 14.3536 19.3936 14.005 19.0326 13.7411C19.1343 14.1642 19.1156 14.6808 19.0385 15.1613C18.8679 14.9968 18.2207 14.237 17.945 13.8695C18.0787 13.4464 18.0554 13.1547 17.9631 12.7239C17.8462 13.434 17.3444 14.2488 17.0868 14.5755C17.2037 14.1334 17.1581 13.6577 17.0868 13.2144C16.9996 12.7149 16.8557 12.2272 16.6581 11.7611C16.2322 10.7083 16.2322 10.7083 15.8642 9.7917C15.651 10.6669 15.4681 11.0752 15.1848 11.4297C15.1994 11.1493 15.1806 10.8682 15.1288 10.5924C15.1089 10.4776 14.9319 9.57985 14.103 8.37444C14.1748 8.93306 14.3951 9.59642 14.1339 10.2213C14.117 9.75265 13.8115 8.39574 12.8856 7.85429C13.145 8.30639 13.3728 9.72247 13.0609 10.0858C13.0907 9.30469 12.5538 8.58452 11.9685 8.1117C11.5351 7.76138 9.13186 6.4027 9.13536 6.40862C9.13887 6.41454 9.58107 8.36734 8.6143 8.52179C8.90988 7.84659 8.16684 6.42578 7.32917 6.16422C7.4273 5.68786 7.40102 5.11504 7.23862 4.68483C6.82271 5.14226 5.7689 5.16178 5.19818 5.6636C4.95284 5.87781 4.69172 6.20446 4.58599 6.58378L4.26938 7.02642C4.26279 6.98835 4.24889 6.95196 4.22849 6.91931L2.65187 5.40086C2.29261 4.7085 2.19447 3.03737 2.96497 2.29353Z" fill="#E61C3F"/>
<path d="M1.17578 4.50195L2.0707 5.41681C2.02222 5.50498 1.95738 5.60322 1.86158 5.6257C1.91752 5.63887 1.97603 5.63543 2.03011 5.61581C2.08418 5.59618 2.13153 5.5612 2.1665 5.51504L2.58943 5.94762C2.50356 6.14349 2.36219 6.38375 2.14255 6.42103C2.42353 6.50269 2.6385 6.32161 2.73839 6.10029L3.27698 6.65063C3.20571 6.91041 3.04974 7.24239 2.60053 7.30156C3.08829 7.41991 3.3646 7.1341 3.45514 6.83171L3.83484 7.2199C3.95926 7.63413 3.25828 8.11582 2.84178 8.00516L1.17578 4.50195Z" fill="white"/>
<path d="M4.63562 30.211C4.56785 31.1247 4.31375 32.8366 3.3645 33.2674C3.07242 33.1491 2.81657 32.755 2.61328 32.2904C2.71843 31.6093 3.02219 31.4028 3.60634 30.9572C3.94456 30.6998 4.17706 30.2471 4.32017 29.8861C4.45453 30.0293 4.56961 30.1453 4.63562 30.211Z" fill="#9EA7AC"/>
<path d="M10.943 28.2209C11.0464 28.4706 11.1854 28.8127 11.325 29.1718C11.4126 29.3979 11.5002 29.6311 11.5791 29.8547C11.7876 30.4424 11.9389 30.959 11.8712 31.0779C11.8034 31.1968 11.4167 31.2389 10.9027 31.1963C10.5942 30.7507 10.6036 30.4193 10.669 29.8743C10.6778 29.7985 10.6883 29.718 10.6988 29.6328C10.7192 29.4238 10.7038 29.2128 10.6532 29.0091C10.574 28.6933 10.4563 28.3888 10.3027 28.1025C10.5199 28.117 10.7347 28.1568 10.943 28.2209V28.2209Z" fill="#9EA7AC"/>
<path d="M20.232 18.2539C19.5062 19.8412 18.5988 21.3366 17.5285 22.7093C17.1289 23.2277 16.7136 23.7236 16.2825 24.197C16.4239 23.1141 16.1154 21.9767 15.4314 21.4406C16.0658 22.8146 15.8987 23.9721 15.3654 24.8473C14.5692 26.1439 13.0808 26.7019 12.1847 26.6824C11.5055 26.6615 10.8425 26.4676 10.257 26.1184C10.257 26.1184 7.76967 25.4988 7.60669 26.0699C7.44372 26.6409 8.30417 28.1026 8.30417 28.1026C8.30417 28.1026 8.89825 28.0742 8.95141 28.5073C9.18907 28.3078 9.4754 28.1768 9.78032 28.128C10.0164 28.2872 10.1929 28.522 10.2815 28.7949C10.4427 29.3056 10.2704 29.8719 10.1787 30.2797C10.1601 30.3551 10.1456 30.4316 10.1355 30.5087C10.1233 30.6011 10.1271 30.695 10.1466 30.7862C10.1729 30.9028 10.2228 31.0127 10.2932 31.1087C10.0919 31.0694 9.89295 31.0184 9.69737 30.956C9.48513 30.8891 9.27831 30.8056 9.07876 30.7063C8.76706 30.5593 8.49047 30.3457 8.26795 30.0802C7.35376 30.1436 7.04123 30.3418 6.76143 29.8252C6.67755 29.6586 6.60873 29.4847 6.5558 29.3056C6.19246 28.1659 5.37465 27.0072 5.04052 26.5362C4.70638 26.0652 5.12931 25.0746 5.92901 24.7183C6.72871 24.3621 9.9801 23.5182 10.4609 22.8679C10.9416 22.2175 10.7226 20.8322 13.0586 19.9499C12.3909 19.7304 10.4597 20.7038 9.9801 22.4258C9.07408 23.0271 6.75792 23.7088 6.12762 23.8981C5.08608 24.2106 4.50134 24.974 4.33252 25.4568C3.81789 25.6415 2.97846 25.9356 2.97087 26.3445C2.9621 26.8019 3.28339 27.4635 3.26294 28.4115C3.26294 28.5606 3.41132 28.8103 3.61752 29.079C3.7472 29.2488 3.89908 29.4263 4.04687 29.5909C4.01222 29.9098 3.86467 30.2051 3.63154 30.4223C3.4647 30.5809 3.2807 30.7198 3.08302 30.8365C2.88733 30.9584 2.70333 31.0584 2.57715 31.1543C2.46792 31.238 2.38165 31.3486 2.32655 31.4756C2.23254 31.1559 2.16916 30.8277 2.13728 30.4957C1.63433 29.7992 1.4509 29.608 1.35802 29.3121C1.3507 29.2856 1.34582 29.2585 1.34342 29.2311C1.34342 29.2311 1.34342 29.2311 1.34342 29.2311C1.30603 28.8831 1.39483 27.8422 1.4509 27.2404C1.52042 27.2321 1.66704 27.3327 1.9486 27.4937L2.00702 27.5292L1.93166 27.4108C1.52276 26.7753 1.05952 26.0746 1.26339 25.4385C1.37321 25.0965 1.5876 24.9059 1.92699 24.7006C1.9289 24.6988 1.93107 24.6974 1.93341 24.6964C2.06368 24.6165 2.21322 24.5343 2.38263 24.4396C2.99365 24.097 5.45526 23.291 5.77538 22.6306C5.95751 22.2638 6.16076 21.9081 6.38406 21.5654C6.43649 22.0474 6.53949 22.5223 6.69133 22.9821C6.65511 19.6682 7.84328 17.5924 8.31118 16.903C8.36517 17.5646 8.36615 18.2295 8.3141 18.8913C8.96718 18.2705 9.00866 15.5348 8.17624 13.3163C8.10692 13.1313 8.03118 12.9504 7.94901 12.7737C7.86138 12.5849 7.76675 12.402 7.66511 12.2269C7.83026 11.8639 7.90238 11.4646 7.87482 11.0659C7.86221 10.8775 7.8297 10.691 7.77785 10.5096C7.68976 10.182 7.53273 9.87757 7.31754 9.61723C7.40983 10.0368 7.49278 10.3989 7.50271 10.7581C7.51098 11.0097 7.47701 11.2608 7.40224 11.5008C7.38121 11.5677 7.35668 11.6351 7.32864 11.7044C7.33331 11.6564 7.33682 11.6091 7.33798 11.5617C7.34488 11.3612 7.32523 11.1606 7.27957 10.9653C7.25295 10.8509 7.2178 10.7387 7.17442 10.6297C7.168 10.6143 7.14463 10.6256 7.14813 10.641C7.17815 10.7717 7.19594 10.9051 7.20129 11.0392C7.21069 11.2844 7.18471 11.5296 7.12418 11.7671C7.09826 11.8728 7.06687 11.9771 7.03014 12.0795C6.97594 12.2306 6.91413 12.3787 6.84496 12.5234C6.38523 13.095 5.65271 13.2743 5.27593 13.953C5.24088 13.9383 5.20116 13.9217 5.1591 13.9045C5.01721 13.8482 4.87135 13.8027 4.72274 13.7684C4.45812 13.7092 4.16254 13.6879 3.91894 13.7874C3.793 13.8272 3.67338 13.8852 3.56378 13.9596C3.4638 14.025 3.38021 14.1132 3.31961 14.217C3.46272 14.0542 3.90376 13.9211 4.25425 13.9264C4.35125 13.9364 4.44394 13.9721 4.52296 14.03C4.6381 14.115 4.72687 14.2317 4.77882 14.3661C4.77882 14.3756 4.77414 14.3815 4.77356 14.385C4.77618 14.3807 4.77852 14.3761 4.78057 14.3714V14.3762C4.8606 14.5732 4.90616 14.8573 4.8717 15.2667C4.77297 15.6757 4.67893 16.0414 4.54223 16.2082C4.2817 16.5302 3.42709 17.0462 2.96795 17.1367C2.93332 17.1451 2.8982 17.1512 2.8628 17.1551C2.74084 17.1621 2.61866 17.1462 2.50238 17.1083C2.46207 17.0971 2.42118 17.0829 2.38029 17.0669C2.4593 17.0036 2.54137 16.9443 2.62622 16.8894C2.71601 16.8306 2.80926 16.7774 2.90544 16.7302C3.01799 16.6753 3.12411 16.6225 3.2238 16.5716C3.94874 16.2071 4.33369 15.9644 4.45403 15.7396C4.56443 15.533 4.48148 15.246 4.30916 14.9969C4.23107 14.8817 4.13748 14.7781 4.0311 14.6892C3.98005 14.6464 3.92553 14.608 3.86812 14.5744C3.95098 14.5517 4.0378 14.548 4.12223 14.5637C4.19803 14.5767 4.2731 14.5937 4.34713 14.6146C4.30332 14.5649 4.08075 14.5105 4.0165 14.4726C3.8062 14.3472 3.61927 14.401 3.47616 14.5643C3.28923 14.7774 3.03279 15.5324 2.59584 16.0496C2.29792 16.4047 1.73422 16.5343 1.40592 16.5822C0.938604 16.2473 0.646528 15.7881 0.608558 15.4236C0.565915 14.9898 0.666973 14.4046 1.101 14.1347C1.42929 13.337 2.01111 11.1528 2.04791 10.8132C2.08471 10.4735 1.6758 9.56338 1.7126 9.13791C1.73948 8.83611 2.17233 8.11535 2.28799 7.92717L2.43111 8.26151C2.43462 8.26506 2.44922 8.28222 2.47434 8.3053C2.26112 8.83788 2.24068 9.51427 2.37211 10.0516C2.40307 9.71132 2.43053 9.3752 2.52457 9.04559C2.58299 8.8367 2.65835 8.63491 2.73136 8.43253C2.93874 8.4781 3.26469 8.44673 3.74487 8.14139C3.95291 8.01989 4.11894 7.83641 4.22037 7.6159L4.57086 7.20937C4.59527 7.30863 4.63177 7.40444 4.67951 7.49459C4.67951 7.23304 4.85476 6.79691 5.05862 6.47026C5.43832 5.85246 6.16676 5.66724 6.62941 5.43823C6.44482 5.61221 6.25205 5.77672 6.07271 5.95602C5.6936 6.33356 5.46403 6.78448 5.52478 7.32772C5.73449 6.74779 6.06453 6.32173 6.53419 5.93353C6.65102 5.8353 6.82627 5.70452 6.97523 5.55363C6.91097 5.98324 6.8584 6.41286 6.58092 6.7833C6.25263 7.22534 5.68776 7.65614 6.19538 8.22837C6.05519 7.84669 6.56457 7.48217 6.77953 7.24369C6.96845 7.03316 7.11826 6.78979 7.22174 6.52529C8.15638 7.09161 8.77266 8.52129 7.84386 8.78344C8.24108 9.01305 9.90942 9.14442 9.66291 7.23126C10.1302 7.52714 10.6285 7.77331 11.1233 8.0544L11.1624 8.07629C11.31 8.16005 11.4533 8.2513 11.5918 8.34968C12.0457 8.67278 12.3272 9.00062 12.4943 9.31129C12.5874 9.48 12.6524 9.66315 12.6865 9.85334C12.7741 10.3486 12.6012 10.7203 12.5153 10.8002C12.9721 10.7883 13.5084 10.4516 13.5329 9.40952C13.5329 9.36928 13.5329 9.32786 13.5329 9.28585L13.5364 9.29472C13.5475 9.32786 13.558 9.35982 13.5691 9.39177C13.9114 10.451 13.9149 11.0522 13.9149 11.0522C14.207 10.7877 14.5353 10.4445 14.5785 9.79594C14.599 9.90423 14.9022 10.9753 14.8309 12.0576C15.0394 11.986 15.5792 11.8641 15.8894 11.0221C15.9869 11.3179 16.2924 11.9476 16.4875 12.6441C16.6172 13.1062 16.7142 13.6004 16.6938 14.0832C16.6605 14.8768 16.2848 15.2667 16.2551 15.3567C16.2819 15.3608 17.1552 15.4324 17.6909 14.5146C18.2096 15.462 19.0128 16.9036 20.232 18.2539Z" fill="#E5ECEF"/>
<path d="M3.88672 11.0545C4.08767 10.6888 4.42063 10.1752 4.85524 9.79883C4.97207 9.90239 5.041 10.1344 5.06437 10.2811C5.15667 10.8421 4.66306 10.6421 3.88672 11.0545Z" fill="#FFCE55"/>
<path d="M0.506477 15.991C0.506477 15.991 0.609288 15.0495 1.45339 14.8365C1.34298 14.3915 1.66952 13.5672 2.25367 13.7376C2.38102 12.5837 2.69237 11.1338 2.69237 11.1338C2.69237 11.1338 3.31625 11.3262 3.39335 10.9859C3.47046 10.6456 3.74385 9.56569 4.72405 9.26981C3.88813 9.26981 3.4138 10.0823 3.0931 10.6445C2.61585 10.6297 2.23206 10.1563 2.38277 9.41657C2.53348 8.67687 2.61643 8.18867 2.61643 8.18867L2.25601 7.75964C2.25601 7.75964 1.36168 8.66444 1.5118 9.26981C1.66193 9.87518 2.06383 10.6243 1.86229 11.0534C1.66076 11.4824 0.91071 13.908 0.91071 13.908C0.279827 14.685 0.223748 15.2347 0.506477 15.991Z" fill="white"/>
<path d="M13.7086 20.2126C13.003 20.2126 11.0367 21.6228 11.0367 23.0921C9.95311 23.5655 7.26367 24.5621 7.26367 24.5621L11.3907 23.8715C11.3907 23.8715 12.583 24.3745 13.3821 23.8715C14.1812 23.3685 13.9826 22.3874 13.9826 22.3874C13 23.2501 11.4164 21.5145 13.7086 20.2126Z" fill="white"/>
<path d="M9.99219 10.5706C11.3322 11.876 14.118 15.0247 13.0029 17.806C12.6559 15.8189 11.4163 12.9536 9.99219 10.5706Z" fill="white"/>
<path d="M0.837891 16.2479C0.837891 16.2479 1.16794 16.5041 1.46001 16.2479C1.89521 15.8662 1.5342 14.8821 1.8105 14.63C2.08681 14.3779 2.65402 14.4329 2.71185 14.5318C2.56172 14.1175 2.43379 13.6636 2.53135 13.4861C2.6289 13.3086 2.97705 12.2434 3.69965 11.77C3.39122 12.3109 2.85497 13.6293 3.09096 14.2158C3.31002 13.908 4.32236 13.6199 4.7704 14.066C5.21844 14.5122 5.24824 15.7591 4.7704 16.3585C4.29256 16.958 3.04306 17.5888 2.71185 17.5C1.72989 17.1035 1.29703 16.7775 0.837891 16.2479Z" fill="#9EA7AC"/>
<path d="M3.0918 14.2157C3.7589 13.1753 4.48149 13.6192 5.07791 12.2433C5.15494 12.4431 5.15494 12.6649 5.07791 12.8647C6.08148 12.4214 7.42854 10.4929 6.97407 8.67798C7.38297 9.24962 7.74807 11.045 7.51441 11.8883C7.28075 12.7315 6.22927 13.3233 6.02482 13.6635C5.82037 14.0038 5.12056 14.5364 5.12056 14.5364C4.7724 13.9091 3.78752 14.0559 3.0918 14.2157Z" fill="#9EA7AC"/>
<path d="M3.4668 11.4149C3.4668 11.4149 4.55799 11.5398 5.11819 11.2522C5.67839 10.9646 5.97865 10.0243 5.97865 9.69885C5.81567 10.1427 5.26306 10.4462 5.26306 10.4462C5.06305 10.6538 4.81804 10.8112 4.54748 10.906C4.1082 11.0546 3.64204 11.193 3.64204 11.193L3.4668 11.4149Z" fill="#9EA7AC"/>
<path d="M3.09214 7.19857C3.09214 7.19857 3.36201 6.92459 3.30009 6.55119C3.20196 6.85831 2.99283 6.91749 2.89937 6.91749C2.8059 6.91749 2.43905 6.32573 2.43905 6.32573C2.43905 6.32573 2.83569 5.94582 2.71302 5.69255C2.58977 5.95115 2.25446 6.18075 2.25446 6.18075L1.86133 5.62923C1.86133 5.62923 2.32865 5.41146 2.25446 5.20435C2.10901 5.20435 3.77326 6.71037 3.77326 6.71037L4.10798 7.26071C4.10798 7.26071 4.10798 7.58618 3.60677 7.90336C3.21773 7.45658 3.09214 7.19857 3.09214 7.19857Z" fill="#9EA7AC"/>
<path d="M7.64443 11.0894C8.16082 10.8101 6.97266 9.10582 6.97266 8.67798C8.87115 10.4266 10.5068 13.2345 9.77659 15.6672C9.60134 15.1642 9.10481 14.137 9.10481 14.137C9.10481 14.137 9.953 16.4744 8.56505 18.0721C8.6959 16.001 7.84596 12.8812 7.43998 12.48C7.80507 11.838 7.64443 11.0894 7.64443 11.0894Z" fill="#9EA7AC"/>
<path d="M12.4813 19.9688C11.5467 19.8872 9.89294 20.5576 9.45483 21.8891C9.4817 21.3967 9.40167 20.834 10.0109 20.2126C9.19313 20.2126 8.14165 21.3961 8.14165 22.3873C6.76831 23.0383 2.59221 25.055 2.25574 25.3509C1.91927 25.6467 1.9736 25.9598 2.5338 27.3131C2.18272 28.3097 1.66341 28.8996 2.97951 30.0553C3.5216 30.5287 3.77512 30.5879 3.77512 30.5879L4.33591 29.421C4.33591 29.421 3.01047 26.9267 3.3925 26.2977C4.29385 25.6763 4.63616 25.5876 4.63616 25.5876C4.63616 25.5876 4.95686 24.6112 6.59248 24.1378C8.22811 23.6644 10.3054 22.688 10.3054 22.688C10.74 20.4984 12.0835 20.2221 12.4813 19.9688Z" fill="#9EA7AC"/>
<path d="M15.9671 24.4632C15.9671 24.4632 16.2008 21.8003 14.946 20.7056C15.2661 21.3861 15.4134 22.7471 14.946 23.4277C14.9524 22.8225 14.7452 22.2349 14.3619 21.7707C14.3619 21.7707 14.9951 24.1674 13.2234 24.7443C11.8267 25.055 11.2659 24.4041 11.2659 24.4041C9.77629 24.9366 7.64413 25.1438 7.03077 25.2917C6.62187 26.2385 6.62187 28.1499 8.03902 29.5103C7.93479 29.175 7.85167 28.8332 7.79017 28.4872C7.79017 28.4872 8.24172 29.2269 8.73065 29.1085C9.21959 28.9902 9.91531 28.3162 10.7068 29.3784C10.3926 28.2801 10.0234 27.8658 10.0234 27.8658L9.01572 27.925L8.31474 27.5404L7.81821 26.2089L10.0234 26.416C10.0234 26.416 12.1976 27.6629 13.5721 26.8303C14.9466 25.9977 15.9671 24.4632 15.9671 24.4632Z" fill="#9EA7AC"/>
<path d="M3.68866 14.8027C3.72968 14.8019 3.7706 14.807 3.81016 14.8181C3.79731 15.1808 3.3627 15.6418 3.3627 15.6418C3.70443 15.4459 3.93634 15.2797 4.07186 14.9856C4.14347 15.0627 4.19596 15.156 4.22501 15.2578C4.25406 15.3595 4.25883 15.4668 4.23893 15.5708C4.17584 15.8483 3.05485 16.3164 2.5332 16.5324C3.28267 16.0407 3.32064 14.8128 3.68866 14.8027Z" fill="white"/>
<path d="M18.2454 14.6394L17.7781 13.908C17.7781 13.908 17.1589 14.8471 16.7558 15.0247C17.1203 13.4269 16.4345 11.5599 15.8504 10.5705C15.7995 10.8268 15.6917 11.068 15.5351 11.2758C15.3785 11.4836 15.1773 11.6526 14.9467 11.77C14.9467 11.77 14.9631 10.732 14.7306 9.90357C14.6716 9.67172 14.5764 9.45096 14.4484 9.24968C14.4257 9.53858 14.3697 9.82378 14.2814 10.0994C14.2322 10.2664 14.1607 10.4257 14.0687 10.5728C14.0687 10.5728 14.0348 10.4397 13.9805 10.2438C13.9221 10.0385 13.8438 9.76332 13.7568 9.4994C13.6365 9.13132 13.5021 8.78574 13.3969 8.6804C13.3823 8.89166 13.4437 9.28163 13.38 9.68639C13.3428 9.96779 13.2257 10.2322 13.043 10.4474L13.0032 10.3918C12.9813 10.2383 12.9511 10.0862 12.9127 9.93612C12.804 9.50354 12.5809 8.87095 12.1591 8.52773C12.1147 8.49163 12.0645 8.45317 12.0096 8.41411C11.8121 8.2715 11.5545 8.11113 11.2806 7.95017C10.492 7.48919 9.56491 7.02999 9.52344 7.00928C10.0358 7.33774 10.511 7.72212 10.9406 8.15551C11.1209 8.34034 11.2878 8.53811 11.44 8.74727C11.8939 9.37572 12.0703 9.94914 12.106 10.4148C12.1214 10.6096 12.1114 10.8056 12.0762 10.9977C11.5405 10.5332 10.8857 10.0343 10.3927 9.87812C10.6573 10.1302 11.2689 10.8652 11.8349 11.5688L11.8262 11.5777C11.8513 11.6001 11.8752 11.625 11.8998 11.6487C12.1784 11.9943 12.4436 12.328 12.6486 12.5872C13.7223 14.2861 14.2597 16.8786 13.6312 18.3699C14.2884 18.2663 15.008 17.0893 14.9309 16.0916C14.8725 15.3223 14.5688 14.3666 14.3859 13.8429C18.201 17.6426 18.5229 20.3268 18.6257 20.589C18.1081 19.8611 16.2815 18.129 16.2242 18.0752C16.257 18.1343 17.6963 20.6961 18.1782 21.8683C19.1473 20.4836 19.9202 19.0581 20.4658 17.6745L18.2454 14.6394Z" fill="#9EA7AC"/>
<path d="M6.12383 7.82007C6.56545 7.70645 7.1607 7.4946 7.30674 7.16914C7.65723 7.31707 8.44584 8.08518 8.22678 8.67812C8.67541 8.12956 8.26417 6.77266 7.194 6.32588C7.194 6.08918 7.08769 5.20154 7.08769 5.20154C7.08769 5.20154 4.92632 6.73183 5.65651 8.02186C5.77334 7.45318 6.18225 6.87326 6.18225 6.87326L6.12383 7.82007Z" fill="#9EA7AC"/>
<path d="M2.46278 5.46949C2.46278 5.46949 2.37924 3.95873 2.77121 3.46579C2.77121 3.91908 3.01363 4.77239 3.74791 5.20379C3.26774 4.1759 3.16376 1.86035 3.16376 1.86035C1.96917 2.94919 1.87571 4.01021 2.46278 5.46949Z" fill="#F0ABAB"/>
<path d="M3.44796 4.74751C3.44796 4.74751 3.12084 2.30177 4.97902 1.65084C6.83721 0.999906 6.97332 1.25614 6.97332 1.25614C6.97332 1.25614 5.20042 3.04147 4.72433 3.97823C4.72433 3.48529 4.90659 2.54617 5.50827 2.0846C4.48308 2.20295 3.54727 3.68649 3.44796 4.74751Z" fill="#F0ABAB"/>
<path d="M5.63281 2.8493C6.44595 2.64811 7.97935 2.46466 9.11319 2.87416C7.82805 3.11086 7.03945 3.61386 6.78184 4.04762C8.08158 3.45586 9.65295 3.25762 10.4153 3.88015C11.1776 4.50268 12.0608 5.7146 13.381 4.50268C13.381 4.94531 13.5013 5.28025 13.381 5.65542C14.0919 5.86313 14.3513 5.65542 14.3513 5.65542C14.3513 5.65542 14.4284 3.74168 13.2805 3.26827C13.2688 3.91151 12.5597 4.33343 11.9755 4.17544C11.3914 4.01744 10.3931 2.89369 10.3931 2.89369C10.3931 2.89369 10.3183 1.81432 7.82747 2.02558C6.44595 1.99836 5.63281 2.8493 5.63281 2.8493Z" fill="#F0ABAB"/>
<path d="M10.8066 4.86719C11.0403 5.43646 11.5076 6.25841 12.3365 6.40576C13.1654 6.55311 13.9266 6.16255 14.3542 6.40576C14.7818 6.64897 16.0862 7.09338 16.6908 6.55252C16.9052 6.80046 16.3596 7.70763 15.9121 7.6094C14.6854 7.28866 14.9833 7.30701 13.7508 7.2934C15.0873 7.74609 16.1224 8.3775 16.4729 8.92961C16.8234 9.48172 17.3544 10.5706 18.5759 10.4463C18.4397 10.7836 18.2061 10.954 17.6219 10.9061C17.7972 11.1978 18.2838 11.6073 18.7511 11.6073C18.4795 11.77 17.758 11.77 17.758 11.77C17.758 11.77 18.9316 12.9536 19.0817 13.8311C19.4375 14.7933 19.8084 14.9721 19.8084 14.9721C19.8084 14.9721 20.2506 13.2347 19.16 12.1446C20.017 11.77 20.1338 11.6221 20.1338 11.6221L19.063 11.0546C19.063 11.0546 20.3826 10.3167 19.8224 9.46219C18.8294 9.6989 18.5274 9.70245 17.8597 9.19057C17.192 8.6787 16.668 7.90054 16.668 7.90054C16.668 7.90054 18.1669 7.15433 17.1943 5.20153C16.4542 5.87909 15.9886 6.02585 14.936 5.74772C13.8834 5.4696 12.5795 5.87969 12.2676 5.74772C11.9557 5.61576 10.8066 4.86719 10.8066 4.86719Z" fill="#F0ABAB"/>
<path d="M7.16583 22.2636C6.97131 20.9618 7.38431 18.964 7.97489 18.0722C7.97489 18.7527 8.40658 19.7783 8.40658 19.7783C8.40658 19.7783 9.97619 17.9 9.77525 16.5325C10.3045 17.8059 9.32545 19.8576 8.45506 20.7056C7.58467 21.5535 7.16583 22.2636 7.16583 22.2636Z" fill="white"/>
<path d="M6.38775 24.8774C5.81586 24.9365 5.07808 25.7946 5.33627 26.3863C5.59447 26.9781 6.38775 28.2208 6.38775 28.2208L5.84624 26.5491C5.84624 26.5491 6.38775 26.194 6.38775 25.7354C6.38775 25.2768 6.95905 24.8182 6.38775 24.8774Z" fill="white"/>
<path d="M11.8262 11.5759C13.1697 13.3766 13.6411 14.788 13.7568 15.7218C13.8152 16.2047 13.8292 16.897 13.8707 17.1805C14.1106 16.7829 14.2162 16.317 14.1715 15.8532C13.9478 13.3133 11.9167 11.6398 11.8262 11.5759Z" fill="#083751"/>
<path d="M1.85509 14.3951C1.58931 14.5199 1.65999 15.046 1.69796 15.4259L1.74878 15.3667C1.81012 14.8277 1.90124 14.5306 2.1828 14.498C2.1828 14.4957 2.12147 14.2702 1.85509 14.3951Z" fill="#083751"/>
<path d="M5.1996 11.1641C4.88767 11.3226 4.4034 11.3753 4.11133 11.444C4.47642 11.5889 5.01151 11.5102 5.29891 11.3587C5.67569 11.1641 5.83224 10.7173 5.84918 10.2936C5.64356 10.6457 5.54191 10.9889 5.1996 11.1641Z" fill="#082E44"/>
<path d="M19.3166 15.7384C19.3633 15.5721 19.4801 15.3242 19.4235 14.8715C19.5583 15.1302 19.6422 15.4129 19.6706 15.7041C20.7588 14.3655 19.6881 12.4494 19.5356 12.3151C19.9521 12.1967 20.2366 11.8541 20.5287 11.3683C20.1198 11.3813 19.8791 11.357 19.5146 11.2256C20.2529 10.8363 20.0906 9.77228 19.9521 9.17875C19.5157 9.48528 18.7943 9.40539 18.3323 9.11958C17.7756 8.77399 17.6862 8.34023 17.0074 7.90884C17.2096 7.83022 17.3837 7.69163 17.5069 7.51117C17.6417 7.30948 17.7295 7.07943 17.7639 6.83835C17.8737 6.16611 17.678 5.34771 17.2533 4.81157C16.4268 5.94538 14.759 5.51162 14.6416 5.48263C14.7432 4.74589 14.2157 2.93807 12.9756 2.91558C13.0983 3.91743 12.3459 4.22396 11.6472 3.69966C11.3779 3.10198 10.9988 2.54159 10.445 2.20724C9.80832 1.82201 8.97298 1.74567 8.24688 1.76934C7.65339 1.7865 7.08209 1.95042 6.62002 2.11375C6.76255 1.70484 7.30056 1.29594 7.39694 1.2557C5.99498 0.534343 3.64494 1.40955 3.33943 3.01677C3.28101 2.2321 3.29503 1.56519 3.31664 1.48116C1.89774 2.08357 1.86211 3.97956 1.87905 4.65653L0.177999 3.01559L1.91176 7.07209C1.86678 7.20169 1.80603 7.35613 1.73652 7.51946C1.61968 7.79285 1.48825 8.09228 1.37551 8.35325C1.28083 8.55372 1.19983 8.76053 1.13309 8.97223C1.06649 9.28053 1.53381 10.4084 1.48358 10.8031C1.4315 11.1924 1.3564 11.5781 1.25868 11.9582C1.12549 12.4985 0.960178 13.0388 0.815308 13.4536C0.75222 13.6347 0.692052 13.7921 0.640063 13.9146C0.0570794 14.3981 0.0442281 15.191 0.0372183 15.562C0.0255353 16.1798 0.956673 16.8834 1.31885 17.1071C1.37726 17.1426 1.44502 17.1829 1.51921 17.2255C1.77367 17.3721 2.03865 17.4991 2.3119 17.6054C2.4872 17.6771 2.67246 17.7206 2.86101 17.7344C3.43055 17.7456 4.83018 16.8959 5.01769 16.6527C5.20521 16.4094 5.37695 15.0786 5.57381 14.6064C5.91145 13.7939 6.15796 14.133 7.23513 12.8849C7.44952 13.3039 7.92677 14.359 8.18263 15.8769C6.8531 17.171 6.37994 18.8641 6.33262 20.3677C6.19679 20.5028 6.06958 20.6465 5.95175 20.7979C5.66827 21.1537 5.4271 21.542 5.23325 21.9548C4.97797 22.504 4.33657 22.8626 3.63326 23.1614C3.41537 23.2537 3.19105 23.3389 2.97083 23.4259C2.64604 23.552 2.32826 23.6739 2.05079 23.8041C1.12257 24.2402 0.739953 24.7852 0.583984 25.4065C0.461896 25.8947 0.725349 26.6084 0.843932 26.8924C0.776754 27.4428 0.599756 29.0311 0.749299 29.4275C0.931554 29.9104 0.975366 30.0152 1.61151 30.7981C1.83991 32.0082 2.42289 33.6243 3.57951 34.0001C4.5936 33.8379 5.22624 31.1389 5.24376 30.0844L5.16081 29.9021C5.16081 29.9021 3.97966 28.5949 3.9265 28.1559C3.87334 27.7168 3.93935 27.4014 3.60872 26.4226C3.84479 26.3136 4.09018 26.2267 4.34183 26.1628C4.37513 26.4492 4.50014 26.9256 4.91547 27.5239C5.61236 28.5257 6.04522 30.4105 6.50728 30.7063C6.96934 31.0022 7.85083 30.7318 7.85083 30.7318C7.85083 30.7318 10.2727 32.8805 12.5538 31.6875C12.642 31.133 12.4481 30.2601 12.1993 29.4843C12.1216 29.2411 12.0374 29.008 11.9557 28.7961C11.7565 28.2825 11.5666 27.9008 11.4883 27.8316C11.4883 27.8316 10.8142 27.4079 9.31296 27.7191C9.21365 27.6144 8.77788 27.5132 8.61198 27.4895C8.47412 27.2191 8.21242 26.4699 8.34035 26.3918C8.47704 26.3084 9.2376 26.451 9.74231 26.5634C10.3031 26.6877 10.9462 27.4102 12.1455 27.4327C13.4306 27.4576 15.3286 26.5256 15.9296 25.3616C16.6055 24.0556 16.3759 22.1761 15.4337 21.4364C16.0675 22.8105 15.901 23.968 15.3677 24.8432C14.5709 26.1421 13.0825 26.6995 12.1864 26.6824C11.5073 26.6619 10.8442 26.4681 10.2587 26.119C10.2587 26.119 7.76788 25.4989 7.60432 26.0699C7.5313 26.3291 7.6674 26.7688 7.83798 27.1735C7.9754 27.4923 8.13145 27.8026 8.3053 28.1026C8.3053 28.1026 8.89938 28.073 8.95254 28.5068C9.09876 28.3829 9.26494 28.2854 9.44381 28.2186C9.55311 28.1776 9.66596 28.1471 9.78087 28.1274C10.0037 28.2791 10.1734 28.4982 10.2657 28.7535C10.3674 29.0417 10.3574 29.3512 10.3124 29.6412C10.2605 29.9779 10.16 30.2874 10.1331 30.5081C10.1054 30.7214 10.1621 30.9371 10.2908 31.1081C9.53435 30.9578 8.70135 30.6347 8.26558 30.0808C7.12765 30.159 6.91911 30.446 6.55401 29.3056C6.18892 28.1653 5.37286 27.0072 5.03872 26.5362C4.94139 26.3841 4.90291 26.201 4.93066 26.022C4.96521 25.7647 5.06326 25.5205 5.21572 25.3119C5.39555 25.0521 5.6414 24.8464 5.92722 24.7166C6.72751 24.3615 9.97831 23.5159 10.4585 22.8661C10.9387 22.2164 10.7202 20.8305 13.0562 19.9476C12.3885 19.728 10.4579 20.7015 9.97831 22.4241C9.07171 23.0247 6.75613 23.707 6.12583 23.8958C5.58284 24.0544 5.09624 24.3676 4.72387 24.7982C4.55916 24.9876 4.42848 25.2047 4.33774 25.4397C4.33774 25.4462 4.33248 25.4527 4.33073 25.4592C3.81551 25.6432 2.97608 25.9385 2.96849 26.3468C2.95973 26.8043 3.28101 27.4659 3.26057 28.4139C3.25589 28.6577 3.66363 29.1689 4.0445 29.5938C3.96038 30.5028 2.97784 30.8537 2.57828 31.1573C2.46823 31.2398 2.38077 31.3493 2.32417 31.4756C2.23003 31.1559 2.16684 30.8277 2.13549 30.4957C1.63254 29.7992 1.44853 29.608 1.35565 29.3121C1.28672 29.092 1.38719 27.9002 1.44853 27.241C1.5233 27.2321 1.68628 27.3481 2.00815 27.5292C1.58522 26.8652 1.05014 26.1155 1.26394 25.4397C1.41698 24.9663 1.77098 24.7834 2.38317 24.4408C2.56251 24.3402 2.9019 24.1994 3.2997 24.0348C3.50941 23.9479 3.7349 23.8538 3.96213 23.7549C4.77118 23.4046 5.59776 22.9957 5.77651 22.6306C6.04755 22.072 6.24383 21.8021 6.38461 21.5654C6.43742 22.0472 6.54062 22.5219 6.69246 22.9815C6.65565 19.6677 7.84382 17.5912 8.31289 16.9024C8.36588 17.5639 8.36588 18.2286 8.31289 18.8901C9.07988 18.1628 9.00511 14.5259 7.6639 12.2263C8.16043 11.1316 7.69136 10.0368 7.31341 9.61665C7.48398 10.3942 7.62359 10.9777 7.32392 11.7038C7.35976 11.3384 7.30702 10.9698 7.17029 10.6297C7.16445 10.6132 7.1405 10.6244 7.14401 10.6404C7.25558 11.1239 7.19191 11.6144 7.02718 12.079C6.97285 12.2293 6.91035 12.3784 6.84142 12.5228C6.38169 13.0944 5.64975 13.2743 5.27297 13.9525C4.98966 13.8294 4.36403 13.6033 3.91423 13.7868C3.78927 13.827 3.67065 13.8852 3.56199 13.9596C3.46171 14.0249 3.37789 14.113 3.31723 14.217C3.46093 14.0542 3.90138 13.9211 4.25187 13.9264C4.31029 13.9306 4.61229 13.9726 4.77761 14.3667C4.77761 14.375 4.77352 14.3821 4.77293 14.385L4.77994 14.3708C4.86056 14.5685 4.90671 14.8543 4.87224 15.2662C4.77586 15.6727 4.68239 16.0402 4.54512 16.2088C4.28458 16.5308 3.43055 17.0474 2.97141 17.1367C2.77239 17.1697 2.56819 17.144 2.38317 17.0627C2.54548 16.9303 2.72181 16.8166 2.90891 16.7237C3.84355 16.2674 4.32255 15.9887 4.45808 15.7331C4.64267 15.3863 4.28283 14.8123 3.87393 14.5726C4.03749 14.5217 4.21974 14.5791 4.35293 14.6129C4.16659 14.4004 3.63209 14.2821 3.42997 14.4803C2.93695 14.9638 2.9422 16.0396 2.0946 16.397C1.87518 16.4867 1.64559 16.5483 1.41114 16.5805L1.40647 16.5769C0.933307 16.2449 0.641231 15.7875 0.60735 15.4242C0.56938 15.0395 0.645904 14.5365 0.964851 14.2407C1.0063 14.2017 1.05151 14.167 1.09979 14.1371C1.20435 13.8826 1.33345 13.4862 1.46605 13.0536C1.74352 12.1316 2.02158 11.0469 2.0467 10.8161C2.0835 10.4771 1.67401 9.56635 1.71198 9.14029C1.73126 8.91423 1.97894 8.45385 2.15126 8.15738C2.20968 8.05855 2.25758 7.97985 2.28679 7.93014L2.36097 8.10116L2.4299 8.26152C2.44338 8.27685 2.45782 8.29128 2.47313 8.30472C2.25933 8.83731 2.23947 9.51428 2.3709 10.0516C2.40186 9.71133 2.42932 9.37581 2.52278 9.04561C2.5812 8.83671 2.65597 8.63552 2.73016 8.43254C2.93753 8.47811 3.26349 8.44675 3.74366 8.14199C3.9462 8.02196 4.10889 7.84356 4.21098 7.62953C4.21268 7.62489 4.21463 7.62034 4.21682 7.61592L4.56731 7.20938C4.59116 7.30874 4.62748 7.4046 4.67538 7.49461C4.67538 7.29222 4.78111 6.98569 4.92306 6.70638C4.96454 6.62413 5.00952 6.54424 5.05508 6.46968C5.43653 5.85248 6.16438 5.66666 6.62703 5.43825C6.44361 5.61163 6.24967 5.77614 6.07092 5.95485C5.90259 6.1173 5.76309 6.30786 5.65851 6.5182C5.54236 6.75927 5.49424 7.02816 5.51948 7.29518V7.32714C5.52415 7.3153 5.52883 7.30288 5.53292 7.29104C5.64975 6.97428 5.81948 6.68023 6.0347 6.42175C6.18399 6.24353 6.34945 6.07988 6.52889 5.93296C6.64572 5.83472 6.82097 5.70394 6.96993 5.55364C6.94272 5.77629 6.90116 5.99689 6.8455 6.21404C6.79151 6.41895 6.70018 6.61182 6.57621 6.78272C6.50027 6.8845 6.41265 6.9851 6.32795 7.08748C6.04463 7.4301 5.79929 7.78693 6.19009 8.22839C6.05047 7.8467 6.55985 7.48159 6.77424 7.24252C6.86784 7.13977 6.95156 7.02821 7.02425 6.90936C7.09927 6.78707 7.16358 6.65836 7.21644 6.52471C7.33533 6.59735 7.4472 6.68115 7.55057 6.77503C8.28018 7.43188 8.65053 8.55385 7.83856 8.78286C8.23637 9.01188 9.90471 9.14324 9.65761 7.23068C10.139 7.53189 10.6507 7.78575 11.1583 8.07571C13.2279 9.25923 12.6859 10.6327 12.5112 10.8031C12.9855 10.7913 13.5451 10.428 13.5288 9.28763C13.5288 9.29059 13.5317 9.29414 13.5329 9.29769C13.9073 10.4161 13.9108 11.054 13.9108 11.054C14.2064 10.7901 14.5318 10.4463 14.5744 9.79832C14.5954 9.90661 14.898 10.9771 14.8274 12.06C15.0353 11.989 15.5751 11.8665 15.8852 11.0244C15.9828 11.3203 16.2889 11.95 16.484 12.6465C16.6137 13.1086 16.7101 13.6027 16.6902 14.0856C16.6563 14.8792 16.2813 15.2691 16.2515 15.3591C16.2784 15.3632 17.1523 15.4348 17.6868 14.5176C18.2125 15.4798 19.035 16.9556 20.2898 18.3262C20.3306 18.3711 20.3931 18.4362 20.465 18.5084C20.5532 18.2185 20.6449 17.9297 20.7425 17.6427C20.2898 17.2231 19.7786 16.6089 19.3166 15.7384ZM10.3037 28.1026C10.5201 28.1173 10.7341 28.157 10.9416 28.2209C11.045 28.4707 11.184 28.8127 11.3236 29.1719C11.4112 29.398 11.4989 29.6311 11.5777 29.8548C11.7863 30.4424 11.9376 30.959 11.8698 31.078C11.802 31.1969 11.4153 31.2389 10.9013 31.1963C10.5928 30.7507 10.6022 30.4193 10.6676 29.8743C10.6764 29.7986 10.6869 29.7181 10.6974 29.6329C10.7178 29.4239 10.7024 29.2129 10.6518 29.0092C10.5734 28.6935 10.4564 28.389 10.3037 28.1026V28.1026ZM3.60346 30.9572C3.94169 30.6998 4.17418 30.2471 4.3173 29.8862C4.4534 30.0294 4.56848 30.1453 4.63449 30.211C4.56673 31.1247 4.31262 32.8367 3.36338 33.2675C3.0713 33.1491 2.81544 32.755 2.61216 32.2905C2.71731 31.6094 3.0199 31.4028 3.60346 30.9572ZM3.68641 14.8022C3.72743 14.8014 3.76836 14.8066 3.80792 14.8176C3.79507 15.1804 3.36046 15.6413 3.36046 15.6413C3.70218 15.4455 3.93409 15.2792 4.06962 14.9851C4.14123 15.0623 4.19372 15.1556 4.22277 15.2573C4.25181 15.3591 4.25658 15.4664 4.23668 15.5703C4.1736 15.8479 3.05261 16.3159 2.53096 16.5319C3.28043 16.0408 3.3184 14.8129 3.68641 14.8028V14.8022ZM3.55556 7.79581C3.34235 7.96209 3.05436 8.0621 2.84115 8.00529L2.83005 7.98103L2.51519 7.32004L1.17164 4.50208L2.0689 5.41694C2.02041 5.50511 1.95616 5.60335 1.85977 5.62642C1.91587 5.63942 1.97446 5.63585 2.02861 5.61613C2.08276 5.59641 2.13019 5.56137 2.16528 5.51517L2.58821 5.94834C2.50175 6.14362 2.3598 6.38388 2.14075 6.42175C2.42172 6.50341 2.63669 6.32233 2.73658 6.10101L3.27517 6.65194C3.21676 6.86497 3.09992 7.12535 2.81369 7.2437C2.74486 7.27276 2.6726 7.29265 2.59872 7.30288C2.91884 7.3798 3.14841 7.28335 3.29386 7.12535C3.36744 7.04208 3.42172 6.94322 3.45275 6.83598L3.64727 7.03422L3.83245 7.22417C3.89379 7.42123 3.75826 7.63899 3.55556 7.7964V7.79581ZM19.0356 15.1638C18.865 14.9999 18.2178 14.2389 17.942 13.872C18.0758 13.4489 18.0519 13.1566 17.9602 12.7258C17.8433 13.4359 17.3421 14.2513 17.0839 14.5785C17.2008 14.1359 17.1552 13.6601 17.0839 13.2145C16.997 12.715 16.8533 12.2273 16.6557 11.7612C16.2299 10.7079 16.2299 10.7079 15.8619 9.79181C15.6487 10.667 15.4664 11.0753 15.1825 11.4292C15.1977 11.1491 15.1795 10.8681 15.1282 10.5925C15.1077 10.4771 14.9319 9.57996 14.1018 8.37396C14.1749 8.93317 14.3939 9.59594 14.1334 10.2214C14.1159 9.75276 13.8109 8.39585 12.8856 7.8544C13.1444 8.3065 13.3722 9.72317 13.0609 10.0859C13.0913 9.30479 12.5544 8.58522 11.9691 8.11122C11.5368 7.76149 9.14414 6.40932 9.13596 6.40932C9.14005 6.41524 9.58167 8.36745 8.6149 8.5219C8.82227 8.04849 8.51735 7.20464 8.02724 6.6549C7.82045 6.42234 7.58037 6.24067 7.33152 6.16433C7.33678 6.13889 7.34145 6.11344 7.34554 6.0874C7.42615 5.62702 7.39461 5.09207 7.24098 4.68671C6.82214 5.14237 5.76891 5.16189 5.19761 5.6637C4.94876 5.87851 4.68823 6.20753 4.5825 6.58389L4.40025 6.83894L4.26589 7.02652C4.2593 6.98846 4.24541 6.95207 4.225 6.91942L4.19579 6.89101L2.6513 5.40096C2.29204 4.70861 2.19391 3.03748 2.9644 2.29364C2.92994 2.7345 2.95973 4.84649 3.746 5.20154C3.20098 3.89967 3.77988 1.47642 6.51312 1.46163C6.0125 1.83976 5.6293 2.45874 5.46165 2.87297C5.281 3.07298 5.1209 3.29108 4.98381 3.52391C5.18126 3.40555 5.82032 2.30548 8.21826 2.29837C8.85499 2.29837 9.54662 2.36879 10.1109 2.69426C9.14122 2.45105 8.10786 2.99014 7.3029 3.5387C7.87069 3.35407 8.69551 2.80078 9.85739 3.03097C10.6378 3.18542 10.9585 3.91388 11.6028 4.29023C12.1286 4.59676 12.8751 4.57428 13.2192 4.00146C13.3045 3.85902 13.3473 3.6946 13.3424 3.52805C13.4899 3.68662 13.6186 3.86197 13.7262 4.05057C13.9654 4.47032 14.0655 4.95665 14.0119 5.43825C13.7375 5.42074 13.4621 5.43384 13.1906 5.4773C12.8985 5.5134 12.6064 5.5489 12.3143 5.51517C11.9048 5.46338 11.5103 5.32595 11.156 5.11159C11.034 5.03812 10.9169 4.95668 10.8055 4.86779C10.8722 4.96541 10.9454 5.05833 11.0245 5.14592C11.3176 5.47595 11.6995 5.71207 12.1233 5.82526C12.8085 6.01225 13.4768 5.75188 14.1614 5.87437C14.6036 5.95308 15.1101 6.1525 15.6282 6.2028C16.0278 6.24126 16.4338 6.19096 16.8222 5.9294C16.9797 5.81982 17.1121 5.67737 17.2107 5.51162C17.3461 5.88893 17.3631 6.29942 17.2592 6.68686L17.2416 6.74603C17.18 6.96456 17.0683 7.16528 16.9157 7.33187L16.8988 7.34963C16.751 7.49697 16.5722 7.54727 16.404 7.64905C15.8385 7.41235 15.2059 7.33187 14.5931 7.294C15.1434 7.47153 15.7077 7.64905 16.2287 7.90114C16.7498 8.15323 17.1003 8.55208 17.4648 8.9959C17.768 9.36634 18.1214 9.70187 18.5963 9.81607C18.9225 9.89447 19.264 9.87765 19.5812 9.76755C19.6665 10.2498 19.2248 11.0363 18.6097 11.1404C18.9074 11.3326 19.228 11.4859 19.5637 11.5967C19.33 11.8103 18.7721 11.9689 18.4129 11.9878C19.2757 12.4458 19.7091 13.6661 19.6898 14.6573C19.552 14.3543 19.3925 14.0063 19.0309 13.7418C19.1337 14.1696 19.115 14.6868 19.0379 15.1644L19.0356 15.1638Z" fill="#083751"/>
<path d="M5.34955 10.2315C5.31099 10.0172 5.23272 9.78054 5.08434 9.62076C5.30196 9.46428 5.5522 9.36061 5.8157 9.31778C5.16379 9.15919 4.72567 9.40891 4.22914 9.89771C3.91896 10.2031 3.54978 10.9706 3.47442 11.1954C3.38504 11.4617 2.77344 11.244 2.77344 11.244C2.90078 11.4073 3.1654 11.6156 3.44696 11.6209C3.65784 11.6251 3.6631 11.5103 3.76007 11.3067C4.33429 11.0398 4.95524 11.0363 5.19007 10.8416C5.36941 10.693 5.38869 10.4682 5.34955 10.2315ZM3.88917 11.054C4.09012 10.6883 4.42308 10.1747 4.85769 9.79829C4.97452 9.90185 5.04345 10.1338 5.06682 10.2806C5.15678 10.8422 4.66317 10.6421 3.88683 11.0546L3.88917 11.054Z" fill="#083751"/>
<path d="M1.81784 13.6737C1.25589 14.0908 1.26173 15.1406 1.49364 15.5081C1.4323 15.0122 1.56257 13.9772 2.03047 13.9695C2.33657 13.963 2.49137 14.0577 2.56263 14.124L2.61404 14.1861C2.62056 14.1382 2.61818 14.0894 2.60703 14.0423C2.60119 13.4352 2.94876 12.889 3.16314 12.3162C2.81499 12.7053 2.52205 13.1417 2.29276 13.6127C2.16132 13.5411 1.99659 13.5411 1.81784 13.6737Z" fill="#083751"/>
</g>
<defs>
<clipPath id="clip0">
<rect width="26" height="33" fill="white" transform="translate(0 1)"/>
</clipPath>
</defs>
</svg>
