<svg width="126" height="24" viewBox="0 0 126 24" fill="none" xmlns="http://www.w3.org/2000/svg">
<path d="M7.70706 9.83941L12.6005 5.29567L17.4959 9.8431L20.3416 7.19783L12.6005 0.00512695L4.85938 7.19598L7.70706 9.83941Z" fill="white"/>
<path d="M0 11.7076L2.84665 9.06333L5.6933 11.7076L2.84665 14.3519L0 11.7076Z" fill="white"/>
<path d="M7.70714 13.5752L12.6005 18.1208L17.4959 13.5734L20.3436 16.2149L20.3416 16.2168L12.6005 23.4095L4.85945 16.2205L4.85547 16.2168L7.70714 13.5752Z" fill="white"/>
<path d="M19.502 11.7084L22.3486 9.06407L25.1953 11.7084L22.3486 14.3527L19.502 11.7084Z" fill="white"/>
<path d="M15.4879 11.7064L12.6005 9.02234L10.4652 11.0058L10.2184 11.2332L9.71296 11.7027L9.70898 11.7064L9.71296 11.712L12.6005 14.3924L15.4879 11.7083L15.4899 11.7064H15.4879Z" fill="white"/>
<path d="M29.6367 5.67639H35.8296C37.3659 5.67639 38.528 6.0461 39.3161 6.78552C39.613 7.05866 39.847 7.38498 40.004 7.74469C40.1611 8.1044 40.2378 8.49 40.2295 8.87808V8.9132C40.2348 9.23112 40.1872 9.54789 40.0882 9.85226C40 10.1143 39.872 10.3633 39.7081 10.5917C39.5553 10.8071 39.3704 11.0012 39.1589 11.1684C38.9522 11.3336 38.7259 11.4763 38.4843 11.5936C39.1811 11.8191 39.8077 12.1999 40.3091 12.7027C40.7522 13.171 40.9737 13.818 40.9737 14.6437V14.6788C40.9863 15.1945 40.8656 15.7054 40.6215 16.1688C40.3851 16.5956 40.0384 16.9615 39.6126 17.2335C39.1312 17.5333 38.5951 17.7494 38.0305 17.8713C37.3598 18.019 36.6722 18.0904 35.9828 18.0839H29.6367V5.67639ZM35.2087 10.6934C35.7445 10.7174 36.2777 10.6103 36.7549 10.3828C36.9411 10.2818 37.093 10.1344 37.1936 9.95737C37.2942 9.78029 37.3394 9.58059 37.3241 9.38088V9.34576C37.3339 9.16175 37.2937 8.9784 37.2071 8.81265C37.1205 8.6469 36.9903 8.50411 36.8286 8.39746C36.4982 8.17933 36.0213 8.07026 35.3978 8.07026H32.5003V10.6934H35.2087ZM35.9908 15.6937C36.5246 15.7215 37.0559 15.608 37.5231 15.3665C37.7051 15.2579 37.8524 15.1059 37.9497 14.9265C38.047 14.747 38.0907 14.5466 38.0763 14.3461V14.311C38.0835 14.1204 38.0402 13.9311 37.9504 13.7597C37.8605 13.5882 37.7268 13.4398 37.5609 13.3275C37.2186 13.0811 36.6654 12.9578 35.9012 12.9578H32.5003V15.6937H35.9908Z" fill="white"/>
<path d="M44.6621 5.67639H47.6013V18.0875H44.6621V5.67639Z" fill="white"/>
<path d="M52.0508 5.67639H54.7612L61.0257 13.3146V5.67639H63.9271V18.0875H61.4257L54.9562 10.1979V18.0875H52.0508V5.67639Z" fill="white"/>
<path d="M72.8249 5.58765H75.5313L81.2565 18.0875H78.1879L76.9661 15.3036H71.3165L70.0946 18.0875H67.0977L72.8249 5.58765ZM75.9173 12.8931L74.1383 8.86697L72.3672 12.8931H75.9173Z" fill="white"/>
<path d="M84.4355 5.67639H87.1459L93.4065 13.3146V5.67639H96.3079V18.0875H93.8064L87.337 10.1979V18.0875H84.4355V5.67639Z" fill="white"/>
<path d="M106.887 18.3057C105.95 18.3132 105.022 18.1447 104.157 17.8103C103.343 17.498 102.604 17.0375 101.984 16.4559C101.365 15.8743 100.877 15.1833 100.549 14.4238C100.203 13.6293 100.028 12.7796 100.033 11.9227V11.8876C100.018 10.1984 100.718 8.57125 101.982 7.35677C102.604 6.76352 103.348 6.29319 104.171 5.97405C105.065 5.62978 106.026 5.45809 106.994 5.4694C107.567 5.46543 108.139 5.5131 108.702 5.61174C109.183 5.69633 109.654 5.82705 110.107 6.00178C110.518 6.16235 110.908 6.36444 111.271 6.60441C111.625 6.83844 111.958 7.09936 112.266 7.38449L110.397 9.38832C109.92 8.97912 109.384 8.63268 108.805 8.35868C108.237 8.1061 107.613 7.97954 106.983 7.98897C106.458 7.98377 105.938 8.08229 105.458 8.27798C104.978 8.47367 104.548 8.76205 104.197 9.12398C103.848 9.48498 103.576 9.90312 103.393 10.357C103.201 10.8366 103.104 11.3445 103.108 11.8561V11.8913C103.106 12.4021 103.203 12.9092 103.393 13.3886C103.573 13.8441 103.843 14.2646 104.189 14.629C104.537 14.9954 104.966 15.288 105.447 15.487C105.927 15.686 106.448 15.7868 106.975 15.7825C107.645 15.8021 108.31 15.6681 108.911 15.3924C109.483 15.1027 110.012 14.7447 110.485 14.3276L112.356 16.0838C112.025 16.4168 111.668 16.7258 111.287 17.008C110.912 17.283 110.506 17.518 110.075 17.7086C109.616 17.9094 109.132 18.0578 108.634 18.1504C108.059 18.2576 107.474 18.3096 106.887 18.3057Z" fill="white"/>
<path d="M115.822 5.67639H125.878V8.10538H118.714V10.6231H125.022V13.0521H118.724V15.6586H125.977V18.0875H115.828L115.822 5.67639Z" fill="white"/>
</svg>
