<svg width="126" height="24" viewBox="0 0 126 24" fill="none" xmlns="http://www.w3.org/2000/svg">
<path d="M40.4142 6.9725C38.974 6.97129 37.5683 7.50599 36.3886 8.50386V0H33.3535V23.9802H36.3688V22.4536C37.2749 23.2162 38.3169 23.7105 39.4104 23.8968C40.504 24.0831 41.6185 23.9561 42.6639 23.5261C43.7093 23.096 44.6563 22.375 45.4284 21.4213C46.2004 20.4675 46.7759 19.3078 47.1083 18.0358C47.4407 16.7638 47.5207 15.4152 47.3418 14.099C47.1629 12.7827 46.7302 11.5358 46.0786 10.4588C45.427 9.3819 44.5747 8.50521 43.5907 7.89958C42.6068 7.29395 41.5186 6.97637 40.4142 6.9725V6.9725ZM40.4142 20.3384C39.6182 20.3432 38.8388 20.0625 38.175 19.5318C37.5111 19.0012 36.9925 18.2445 36.685 17.3577C36.3774 16.4708 36.2947 15.4937 36.4473 14.55C36.6 13.6064 36.981 12.7387 37.5423 12.0568C38.1035 11.3749 38.8197 10.9095 39.6001 10.7196C40.3805 10.5297 41.19 10.6238 41.9261 10.99C42.6622 11.3562 43.2918 11.978 43.735 12.7766C44.1783 13.5753 44.4153 14.5149 44.4161 15.4764C44.4161 16.7609 43.9953 17.9933 43.2455 18.9043C42.4956 19.8153 41.4778 20.3309 40.4142 20.3384V20.3384Z" fill="white"/>
<path d="M50.123 6.97287H53.1423V23.9806H50.123V6.97287ZM50.123 1.50781H53.1423V5.15438H50.123V1.50781Z" fill="white"/>
<path d="M64.6807 20.3388H62.3429C61.5069 20.3388 61.0076 19.5205 61.0076 18.5155V10.6194H65.1997L64.1378 6.97762H61.0195V2.08203L57.9844 3.35019V6.95847H55.4922V10.6003H57.9924V19.6927C57.9918 20.251 58.0825 20.8038 58.2591 21.3197C58.4358 21.8356 58.6949 22.3043 59.0217 22.699C59.3486 23.0938 59.7366 23.4067 60.1638 23.6201C60.5909 23.8334 61.0487 23.9429 61.5109 23.9423H64.6807V20.3388Z" fill="white"/>
<path d="M77.3192 6.97656L73.2698 19.4907L69.2204 6.97656H66.2051L71.7166 23.9795H74.8547L80.3543 6.97656H77.3192Z" fill="white"/>
<path d="M88.0561 20.3386C87.261 20.3377 86.484 20.0521 85.8232 19.518C85.1625 18.9839 84.6476 18.2253 84.3437 17.3379C84.0398 16.4505 83.9605 15.4743 84.1158 14.5325C84.2711 13.5907 84.6541 12.7257 85.2163 12.0467C85.7785 11.3677 86.4947 10.9051 87.2745 10.7176C88.0542 10.53 88.8625 10.6258 89.5972 10.9928C90.3319 11.3599 90.9601 11.9817 91.4023 12.7798C91.8445 13.5778 92.0809 14.5162 92.0817 15.4765C92.0822 16.1152 91.9785 16.7477 91.7763 17.3379C91.5742 17.9281 91.2777 18.4643 90.9038 18.9159C90.5299 19.3675 90.0859 19.7257 89.5972 19.9698C89.1086 20.2139 88.5849 20.3392 88.0561 20.3386V20.3386ZM92.0817 8.50402C91.0679 7.64967 89.8858 7.13273 88.6541 7.00518C87.4225 6.87763 86.1847 7.14398 85.0654 7.77742C83.946 8.41087 82.9844 9.3891 82.2773 10.6138C81.5702 11.8384 81.1425 13.2663 81.0373 14.7539C80.932 16.2415 81.1529 17.7364 81.6777 19.0881C82.2025 20.4399 83.0127 21.601 84.0269 22.4547C85.0411 23.3083 86.2235 23.8245 87.4552 23.9511C88.6869 24.0778 89.9245 23.8106 91.0436 23.1764C91.4058 22.9711 91.7531 22.7294 92.0817 22.4538V23.9804H95.093V6.97266H92.0817V8.50402Z" fill="white"/>
<path d="M111.241 6.97266H108.225L104.176 19.4868L100.131 6.97266H97.1113L102.623 23.9804H105.753L111.241 6.97266Z" fill="white"/>
<path d="M118.963 20.3386C118.168 20.3386 117.39 20.0539 116.729 19.5203C116.068 18.9868 115.552 18.2285 115.248 17.3412C114.943 16.4539 114.863 15.4775 115.018 14.5355C115.173 13.5934 115.556 12.7279 116.118 12.0484C116.68 11.3689 117.396 10.9059 118.176 10.7179C118.956 10.53 119.764 10.6255 120.499 10.9924C121.234 11.3593 121.862 11.9811 122.305 12.7793C122.747 13.5774 122.984 14.516 122.985 15.4765C122.985 16.1148 122.881 16.7469 122.68 17.3368C122.478 17.9267 122.182 18.4627 121.808 18.9142C121.435 19.3658 120.991 19.724 120.503 19.9684C120.015 20.2128 119.491 20.3386 118.963 20.3386V20.3386ZM118.963 6.97266C117.57 6.97171 116.208 7.46965 115.05 8.40349C113.892 9.33733 112.989 10.6651 112.455 12.2189C111.922 13.7727 111.782 15.4827 112.053 17.1326C112.324 18.7825 112.994 20.2982 113.979 21.488C114.963 22.6777 116.218 23.4881 117.584 23.8166C118.95 24.1451 120.366 23.977 121.652 23.3335C122.939 22.69 124.039 21.6001 124.813 20.2015C125.587 18.803 126 17.1586 126 15.4765C126 13.2212 125.258 11.0582 123.938 9.46338C122.617 7.8686 120.826 6.97266 118.959 6.97266H118.963Z" fill="white"/>
<path fill-rule="evenodd" clip-rule="evenodd" d="M11.0705 1.57031H18.575L7.50451 24H0L11.0705 1.57031Z" fill="white"/>
<path fill-rule="evenodd" clip-rule="evenodd" d="M17.9571 12.709H25.4617L19.9145 23.998H12.4219L17.9571 12.709Z" fill="white"/>
</svg>
