<svg width="116" height="27" viewBox="0 0 116 27" fill="none" xmlns="http://www.w3.org/2000/svg">
<path d="M32.9238 13.4138C32.9238 10.6465 35.0762 8.28277 37.9588 8.28277C39.8229 8.28277 40.9759 9.07068 41.8792 10.0316L40.9567 11.0116C40.188 10.1853 39.2656 9.57033 37.9396 9.57033C35.941 9.57033 34.4228 11.2615 34.4228 13.4138C34.4228 15.547 35.9794 17.2381 38.0164 17.2381C39.2656 17.2381 40.188 16.5847 40.9759 15.7583L41.9368 16.6424C40.9567 17.7377 39.7845 18.5449 37.9396 18.5449C35.0954 18.5449 32.9238 16.2004 32.9238 13.4138ZM43.5895 5.16954L45.05 4.4585V10.2237C45.7034 9.16677 46.7219 8.30198 48.4131 8.30198C50.7768 8.30198 52.1605 9.89703 52.1605 12.2416V18.3335H50.7V12.5683C50.7 10.7426 49.7199 9.60877 47.9903 9.60877C46.2992 9.60877 45.05 10.8387 45.05 12.6836V18.3143H43.5895V5.16954ZM61.0774 14.7014V13.7982C60.1549 13.5291 59.1748 13.3754 58.214 13.3754C56.3883 13.3754 55.3506 14.1825 55.3506 15.3932C55.3506 16.6231 56.4844 17.3534 57.8104 17.3534C59.6168 17.3342 61.0774 16.258 61.0774 14.7014ZM53.8708 15.4317C53.8708 13.3177 55.5812 12.2223 58.0602 12.2223C59.3094 12.2223 60.1934 12.3953 61.0582 12.6451V12.3376C61.0582 10.5889 60.0012 9.68564 58.1563 9.68564C57.0033 9.68564 56.0808 9.9739 55.1776 10.3967L54.7356 9.2052C55.8118 8.70555 56.8688 8.35964 58.3101 8.35964C59.6937 8.35964 60.7699 8.74398 61.4809 9.43581C62.1728 10.1276 62.4995 11.0693 62.4995 12.3184V18.3143H61.0582V16.8537C60.3663 17.7185 59.2517 18.5257 57.5221 18.5257C55.6965 18.5257 53.8708 17.4687 53.8708 15.4317ZM64.9785 8.49416H66.439V10.2045C67.0924 9.14755 68.111 8.28277 69.8021 8.28277C72.1658 8.28277 73.5495 9.87781 73.5495 12.2223V18.3143H72.089V12.5683C72.089 10.7426 71.1089 9.60877 69.3793 9.60877C67.6882 9.60877 66.439 10.8387 66.439 12.6836V18.3143H64.9785V8.49416ZM83.8693 12.895C83.8693 10.8771 82.1205 9.57033 80.2564 9.57033C78.3923 9.57033 76.8549 10.8579 76.8549 12.9142C76.8549 14.8936 78.4307 16.258 80.2564 16.258C82.1205 16.258 83.8693 14.9128 83.8693 12.895ZM75.8171 20.0246L76.4898 18.8908C77.6044 19.7171 78.8535 20.1399 80.2564 20.1399C82.4087 20.1399 83.8308 18.9484 83.8308 16.6424V15.4893C82.9853 16.6231 81.7746 17.5648 79.9873 17.5648C77.6428 17.5648 75.3751 15.7968 75.3751 12.9334C75.3751 10.07 77.6428 8.30198 79.9873 8.30198C81.8322 8.30198 83.0237 9.2052 83.8116 10.2814V8.51338H85.2721V16.6039C85.2721 18.1221 84.8109 19.2751 84.023 20.0823C83.1582 20.9663 81.8514 21.3891 80.2948 21.3891C78.6421 21.3891 77.1432 20.9278 75.8171 20.0246ZM95.073 12.8181C94.9001 11.0309 93.8815 9.51268 91.9406 9.51268C90.2494 9.51268 88.9619 10.9156 88.7505 12.8181H95.073ZM92.2096 17.2573C93.5548 17.2573 94.4965 16.7 95.3036 15.8737L96.2068 16.7C95.2268 17.7954 94.0161 18.5449 92.1712 18.5449C89.4807 18.5449 87.2707 16.4694 87.2707 13.4138C87.2707 10.5696 89.2694 8.28277 91.979 8.28277C94.8808 8.28277 96.5528 10.6081 96.5528 13.4907C96.5528 13.6252 96.5528 13.779 96.5335 14.0096H88.7505C88.9619 16.0658 90.4801 17.2573 92.2096 17.2573ZM98.5898 5.7845L100.05 5.05424V18.2951H98.5898V5.7845ZM102.722 5.16954L104.182 4.4585V18.3335H102.722V5.16954ZM106.123 20.9086L106.623 19.7556C107.103 20.0054 107.526 20.1207 108.16 20.1207C109.025 20.1207 109.582 19.6595 110.178 18.2758L105.719 8.49416H107.334L110.889 16.6808L114.041 8.49416H115.597L111.485 18.641C110.658 20.678 109.697 21.4083 108.218 21.4083C107.391 21.4083 106.776 21.2353 106.123 20.9086Z" fill="white"/>
<path d="M14.0334 22.5036C13.822 22.715 13.5914 22.9072 13.3416 23.0801C12.8612 23.4453 12.3615 23.7528 11.8234 24.041C10.7665 24.5791 9.65186 24.9827 8.4796 25.2133C8.19134 25.2709 7.90307 25.3286 7.61481 25.367L7.17281 25.4247L6.96142 25.4439L6.75003 25.4631L6.30803 25.5015L5.86603 25.5208C5.57776 25.54 5.27029 25.54 4.98202 25.5592C4.11724 25.5592 3.25245 25.5208 2.38767 25.4439C2.48376 25.3094 2.57984 25.1556 2.67593 25.0019C2.94498 24.5791 3.1948 24.1179 3.42541 23.6567C3.84819 22.7342 4.17489 21.7734 4.44394 20.8125C4.69376 19.8708 5.00124 18.9676 5.34716 18.0452C5.69307 17.1227 6.09663 16.2387 6.55785 15.374C6.23116 15.7391 5.9429 16.1426 5.67385 16.5654C5.40481 16.969 5.13576 17.411 4.90515 17.8338C4.42472 18.6986 4.00193 19.621 3.67524 20.5434C3.32932 21.4467 2.96419 22.3499 2.52219 23.1762C2.08019 24.0026 1.5421 24.7713 0.927144 25.5015L0.292969 26.2702L1.29228 26.4048C2.52219 26.5777 3.77133 26.6738 5.02046 26.6354C5.32794 26.6162 5.65463 26.6162 5.96211 26.5777L6.42333 26.5393L6.88455 26.4816C7.19203 26.4432 7.49951 26.3663 7.80699 26.3279C8.11447 26.251 8.42195 26.1934 8.72942 26.0973C9.0369 26.0204 9.32516 25.9051 9.63264 25.809C9.92091 25.6937 10.2284 25.5784 10.5166 25.4439C11.0932 25.1941 11.6505 24.8674 12.1693 24.5215C12.6882 24.1755 13.1687 23.772 13.6107 23.3108C14.0334 22.8495 14.4178 22.3691 14.6868 21.8118C14.4754 22.0808 14.264 22.3114 14.0334 22.5036ZM20.9133 5.91897C21.2592 5.57306 21.7204 5.38088 22.2201 5.38088C22.7005 5.38088 23.1617 5.55384 23.5269 5.91897C24.2379 6.64923 24.2379 7.80228 23.5269 8.53254C22.8158 9.24359 21.6435 9.24359 20.9133 8.53254C20.5674 8.18663 20.3752 7.72541 20.3752 7.22576C20.3752 6.7261 20.5674 6.26488 20.9133 5.91897ZM22.2201 10.1852C22.9888 10.1852 23.7382 9.89698 24.3148 9.32046C25.4678 8.14819 25.4678 6.2841 24.3148 5.11184C23.1617 3.95879 21.2784 3.95879 20.1254 5.11184C19.5681 5.66914 19.2606 6.41862 19.2606 7.20654C19.2606 7.99445 19.5681 8.74393 20.1254 9.30124C20.6827 9.87776 21.4322 10.1852 22.2201 10.1852ZM23.0849 14.4515C18.8378 18.1989 17.0698 18.5448 15.3018 17.7377L17.2235 15.3163C17.5118 14.9704 17.704 14.5476 17.8193 14.1056L18.588 10.8579L15.3594 11.6266C14.9174 11.7419 14.4947 11.934 14.1487 12.2223L11.7273 14.144C10.901 12.376 11.2661 10.608 14.9943 6.36097C18.5303 2.34453 25.9867 1.42209 28.1967 1.22992C28.0237 3.43992 27.1013 10.9155 23.0849 14.4515ZM20.2599 20.2552C20.2215 20.4281 20.1254 20.6011 19.9716 20.6972C19.5296 21.0047 18.8378 21.4274 18.2228 21.8118L18.2613 21.6965C18.5495 20.5242 18.5495 19.621 18.2613 19.006C19.0684 18.7562 19.9332 18.3142 20.9133 17.6416C20.6635 18.5448 20.3944 19.621 20.2599 20.2552ZM13.553 18.1605C13.3032 18.4872 12.8996 18.6601 12.496 18.6409H12.4768H11.516L14.8598 14.6053L10.8241 17.9491V17.0074V16.969C10.8049 16.5654 10.9779 16.1619 11.3046 15.912L14.8406 13.1063C15.0712 12.9333 15.3402 12.7988 15.6093 12.7219L17.0506 12.376L16.7047 13.8173C16.6278 14.1056 16.5125 14.3746 16.3203 14.6053L13.553 18.1605ZM7.78777 11.2038L7.67247 11.2422C8.0376 10.6272 8.46038 9.93542 8.76786 9.49341C8.86395 9.33968 9.0369 9.24359 9.20986 9.20515C9.84404 9.07063 10.9202 8.80159 11.8234 8.57098C11.1508 9.55107 10.7088 10.4351 10.459 11.2422C9.86325 10.8963 8.96003 10.8963 7.78777 11.2038ZM28.7924 0.0576523C28.3889 0.0768698 18.6264 0.518871 14.1487 5.61149C13.726 6.09193 13.3224 6.59158 12.9188 7.09124C12.2654 7.26419 9.99778 7.87915 8.99847 8.09054C8.53725 8.18663 8.11447 8.45567 7.84542 8.85924C7.15359 9.85855 5.96211 11.9148 5.92368 11.9917L5.05889 13.4714L6.63472 12.7796C7.67247 12.3376 9.40203 11.8764 10.017 12.2415C10.1131 12.2992 10.2284 12.4145 10.2476 12.7027C10.2668 13.433 10.459 14.144 10.8241 14.8551L10.6127 15.028C10.017 15.5085 9.67108 16.2387 9.70951 17.0074V19.7555H12.4576C13.2263 19.794 13.9566 19.448 14.437 18.8523L14.61 18.6409C15.321 19.006 16.0321 19.2174 16.7623 19.2174C17.0506 19.2367 17.1467 19.3327 17.2235 19.448C17.6079 20.063 17.1467 21.8118 16.6854 22.8495L15.9936 24.4254L17.4734 23.5606C17.5694 23.5029 19.6065 22.3114 20.6058 21.6196C20.9902 21.3506 21.2592 20.947 21.3553 20.4666C21.5667 19.4673 22.1816 17.1804 22.3546 16.527C22.8158 16.1619 23.2962 15.7391 23.8151 15.2779C28.8885 10.8002 29.3497 1.01852 29.369 0.614958L29.3882 0L28.7924 0.0576523Z" fill="white"/>
</svg>
