<?xml version="1.0" encoding="utf-8"?>
<!-- Generator: Adobe Illustrator 24.0.0, SVG Export Plug-In . SVG Version: 6.00 Build 0)  -->
<!DOCTYPE svg PUBLIC "-//W3C//DTD SVG 1.1//EN" "http://www.w3.org/Graphics/SVG/1.1/DTD/svg11.dtd" [
	<!ENTITY ns_extend "http://ns.adobe.com/Extensibility/1.0/">
	<!ENTITY ns_ai "http://ns.adobe.com/AdobeIllustrator/10.0/">
	<!ENTITY ns_graphs "http://ns.adobe.com/Graphs/1.0/">
	<!ENTITY ns_vars "http://ns.adobe.com/Variables/1.0/">
	<!ENTITY ns_imrep "http://ns.adobe.com/ImageReplacement/1.0/">
	<!ENTITY ns_sfw "http://ns.adobe.com/SaveForWeb/1.0/">
	<!ENTITY ns_custom "http://ns.adobe.com/GenericCustomNamespace/1.0/">
	<!ENTITY ns_adobe_xpath "http://ns.adobe.com/XPath/1.0/">
]>
<svg version="1.1" id="layer" xmlns:x="&ns_extend;" xmlns:i="&ns_ai;" xmlns:graph="&ns_graphs;"
	 xmlns="http://www.w3.org/2000/svg" xmlns:xlink="http://www.w3.org/1999/xlink" x="0px" y="0px" viewBox="0 0 652 121"
	 style="enable-background:new 0 0 652 121;" xml:space="preserve">
<style type="text/css">
	.st0{fill:#FFFFFF;}
	.st1{fill:#002E73;}
</style>
<metadata>
	<sfw  xmlns="&ns_sfw;">
		<slices></slices>
		<sliceSourceBounds  bottomLeftOrigin="true" height="115.2" width="600" x="20.2" y="272.5"></sliceSourceBounds>
	</sfw>
</metadata>
<path class="st0" d="M70.1,3.3L20.2,32.1v57.6l49.9,28.8L120,89.7V32.1L70.1,3.3z M70.1,3.3L20.2,32.1v57.6l49.9,28.8L120,89.7V32.1
	L70.1,3.3z"/>
<path class="st0" d="M70.1,3.3L20.2,32.1v57.6l49.9,28.8L120,89.7V32.1L70.1,3.3z"/>
<path class="st0" d="M176,87.6c-13.2,0-22.9-10.3-22.9-23s9.8-23.3,23-23.3c8.4,0,13.6,3.1,17.7,7.6l-6.3,6.8
	c-3.1-3.3-6.4-5.5-11.5-5.5c-7.4,0-12.8,6.4-12.8,14.2c0,8,5.5,14.4,13.3,14.4c4.8,0,8.3-2.3,11.5-5.5l6.1,6.1
	C189.7,84.1,184.6,87.6,176,87.6"/>
<path class="st0" d="M213.4,87.6h-10.2V41.4h10.2v10.8c2.8-6.6,7.9-11.2,15.7-10.8v10.8h-0.6c-8.9,0-15.1,5.8-15.1,17.6L213.4,87.6
	L213.4,87.6z"/>
<polygon class="st0" points="282.4,41.2 259.9,100 249.6,100 254.5,87.6 235.2,41.2 246.1,41.2 259.2,75.5 271.8,41.2 "/>
<path class="st0" d="M312.4,50.1c-6.9,0-12.9,5.6-12.9,14.3c0,8.7,6.1,14.3,12.9,14.3c7,0,12.7-5.5,12.7-14.3S319.3,50.1,312.4,50.1
	 M314.7,87.5c-7.3,0-11.9-3.7-15-7.8V100h-10.2V41.2h10.2v8.3c3.3-4.6,7.9-8.3,15-8.3c10.5,0,20.7,8.3,20.7,23.1
	C335.4,79.1,325.3,87.5,314.7,87.5"/>
<path class="st0" d="M357.7,50.9v21.8c0,3.9,2,5.5,5.5,5.5h4v9.1h-7c-7.4,0-12.7-3.3-12.7-13V50.9h-5.6v-8.7h5.6V30h10.2v12.2h9.5
	v8.7L357.7,50.9L357.7,50.9z"/>
<path class="st0" d="M399.3,50.1c-8.2,0-13.4,6.4-13.4,14.2c0,7.9,5.6,14.4,13.5,14.4c8.2,0,13.4-6.4,13.4-14.2
	C413,56.6,407.3,50.1,399.3,50.1 M399.3,87.6c-13.5,0-23.5-10.3-23.5-23c0-12.8,10.1-23.3,23.7-23.3s23.6,10.3,23.6,23.1
	C423.1,77,413.1,87.6,399.3,87.6"/>
<path class="st0" d="M520.4,50.1c-8.2,0-13.4,6.4-13.4,14.2c0,7.9,5.6,14.4,13.5,14.4c8.2,0,13.4-6.4,13.4-14.2
	C534,56.6,528.4,50.1,520.4,50.1 M520.4,87.6c-13.5,0-23.5-10.3-23.5-23c0-12.8,10.1-23.3,23.7-23.3c13.6,0,23.6,10.3,23.6,23.1
	C544.2,77,534.1,87.6,520.4,87.6"/>
<path class="st0" d="M604.6,41.2c9.7,0,15.6,6.1,15.6,17v29.3H610V61.3c0-7.1-3.3-10.8-9-10.8c-5.5,0-9.5,3.9-9.5,11v26.1h-10.2
	V61.3c0-6.9-3.4-10.8-9-10.8s-9.5,4.2-9.5,11.1v26h-10.2V41.3h10.2v7.6c2.9-3.9,6.7-7.6,13.5-7.6c6.4,0,10.8,3.1,13.2,7.8
	C593.2,44.3,597.9,41.2,604.6,41.2"/>
<polygon class="st0" points="441.8,78.2 441.8,83.4 441.5,83.9 437,86.4 436.4,86.4 432,83.9 431.7,83.4 431.7,78.2 432,77.7 
	436.4,75.2 437,75.2 441.5,77.7 "/>
<path class="st0" d="M472.7,87.5C459.5,87.2,450,76.7,450.2,64s10.2-23.1,23.5-22.8c8.4,0.2,13.6,3.4,17.6,8l-6.4,6.7
	c-3-3.3-6.3-5.7-11.4-5.8c-7.4-0.1-12.9,6.1-13,14c-0.2,8,5.2,14.5,13,14.6c4.8,0.1,8.4-2.1,11.6-5.3l6,6.2
	C486.6,84.3,481.4,87.7,472.7,87.5"/>
<polygon class="st1" points="89.8,96 82.7,96 74.2,88.2 74.2,84.2 83,75.8 83,62.5 94.5,55 107.6,64.9 "/>
<polygon class="st1" points="60.4,75 61.7,62.5 57.4,51.3 82.8,51.3 78.6,62.5 79.8,75 70,75 "/>
<polygon class="st1" points="66.2,88.2 57.7,96.1 50.5,96.1 32.6,64.9 45.8,55.1 57.4,62.5 57.4,75.8 66.2,84.2 "/>
<polygon class="st1" points="50.4,28.2 89.7,28.2 94.4,48.2 45.8,48.2 "/>
</svg>
