<svg width="96" height="26" viewBox="0 0 96 26" fill="none" xmlns="http://www.w3.org/2000/svg">
<path d="M76.4875 16.985C76.0959 16.985 75.7581 17.1252 75.4749 17.4074C75.1954 17.6897 75.0526 18.023 75.0526 18.409C75.0526 18.9973 75.3511 19.4551 75.9439 19.7821C76.594 19.9596 77.1166 19.844 77.51 19.4416C77.795 19.1575 77.9342 18.8169 77.9342 18.42C77.9342 18.0194 77.795 17.6844 77.51 17.4075C77.2278 17.128 76.889 16.9888 76.4865 16.9888V16.9851H76.4875V16.985ZM53.409 6.06812H52.3387C51.8762 6.06812 51.4995 6.4405 51.4995 6.90397V7.50123C50.3621 6.31668 49.0717 5.72389 47.6305 5.72389C45.9679 5.72389 44.5798 6.34298 43.4722 7.57769C42.3623 8.81231 41.8106 10.3566 41.8106 12.2085C41.8106 14.0923 42.3633 15.6684 43.47 16.9285C44.589 18.1639 45.9998 18.7803 47.7088 18.7803C49.0604 18.7803 50.3247 18.2286 51.5007 17.1278V18.3087C51.5007 18.8822 51.9668 19.3484 52.539 19.3484H54.3664V7.02517C54.3662 6.49793 53.9374 6.06812 53.4089 6.06812H53.409ZM50.7033 15.1376C50.0507 15.8653 49.1983 16.2285 48.1394 16.2285C47.1492 16.2285 46.328 15.8543 45.678 15.1004C45.0438 14.3582 44.727 13.3914 44.727 12.2068C44.727 11.0996 45.0533 10.1673 45.7031 9.41535C46.3623 8.6704 47.183 8.30082 48.1645 8.30082C49.2052 8.30082 50.0497 8.66872 50.7007 9.40808C51.3531 10.1601 51.6795 11.1143 51.6795 12.2725C51.6795 13.4314 51.3532 14.3866 50.7007 15.1395H50.7035V15.1376H50.7033ZM41.8087 8.15416V6.93315C41.8087 6.4542 41.4227 6.06998 40.9455 6.06998H39.817C39.3417 6.06998 38.9548 6.45243 38.9548 6.93129V7.46301C37.9227 6.30484 36.6286 5.72399 35.0725 5.72399C33.2963 5.72399 31.8652 6.395 30.7835 7.72891C29.7765 8.98721 29.2734 10.5187 29.2734 12.3215C29.2734 14.1726 29.8156 15.7186 30.8992 16.9523C31.9734 18.1733 33.3515 18.7788 35.0351 18.7788C36.5136 18.7788 37.8211 18.2016 38.9547 17.0424V18.7678C38.9547 21.3318 37.9104 22.6138 35.822 22.6138C34.6881 22.6138 33.8268 22.2278 33.2349 21.4575C33.0839 21.2626 32.9586 21.0204 32.8589 20.7282C32.719 20.3194 32.3302 20.0481 31.9004 20.0481H30.8189C30.2735 20.0481 29.8679 20.567 30.0057 21.0951C30.3016 22.2204 30.873 23.1346 31.7234 23.8411C32.7892 24.7297 34.1477 25.1741 35.7957 25.1741C37.7492 25.1741 39.2847 24.5313 40.4019 23.2475C40.9937 22.5792 41.3898 21.7798 41.5932 20.8492C41.6611 20.5141 41.7144 20.1199 41.7517 19.6747C41.789 19.2322 41.8077 18.7186 41.8077 18.1341V16.3384C41.0086 15.1876 40.6068 13.8118 40.6068 12.2085C40.6068 10.6324 41.0077 9.28575 41.8077 8.15406H41.8086L41.8087 8.15416ZM38.193 15.0402C37.559 15.8333 36.6976 16.2284 35.605 16.2284C34.5138 16.2284 33.6598 15.8368 33.0411 15.0475C32.4757 14.33 32.1924 13.4067 32.1924 12.2833C32.1924 11.1396 32.4756 10.2092 33.0411 9.4918C33.6685 8.68952 34.5216 8.28814 35.605 8.28814C36.6194 8.28814 37.4529 8.65586 38.1034 9.39064C38.7466 10.1091 39.0694 11.0689 39.0694 12.2716C39.0694 13.396 38.7766 14.3174 38.193 15.0385V15.0404L38.193 15.0402ZM65.5386 6.07725V6.06812H59.6185V2.44249C59.6185 1.97631 59.2416 1.59936 58.7745 1.59936H57.6186C57.1479 1.59936 56.7655 1.98181 56.7655 2.4534V6.06812H55.5459V8.72951H56.7638V19.3468H58.3917C59.0704 19.3468 59.6168 18.8005 59.6168 18.1213V8.73138H62.544C62.7752 8.28982 63.0552 7.88275 63.388 7.51037C63.9945 6.84747 64.712 6.37039 65.5369 6.07735H65.5388L65.5386 6.07725ZM80.1047 1.59936C79.5984 1.59936 79.1632 1.78238 78.799 2.14759C78.4366 2.51074 78.2527 2.94325 78.2527 3.44131C78.2527 3.96679 78.4349 4.40742 78.799 4.77439C79.1632 5.13763 79.6039 5.31888 80.1193 5.31888C80.6355 5.31888 81.0707 5.13773 81.423 4.77253C81.7872 4.40565 81.9713 3.97042 81.9713 3.45325C81.9713 2.93803 81.7891 2.50095 81.424 2.14768C81.0579 1.7807 80.6181 1.59778 80.1028 1.59778L80.1047 1.59946V1.59936ZM80.6829 7.46851H79.6476C79.1168 7.46851 78.6843 7.89646 78.6843 8.43181V17.4931C78.9028 17.7499 79.0075 18.0531 79.0075 18.4027C79.0075 18.7524 78.9046 19.0584 78.6843 19.3161V19.8261H80.5217C81.0844 19.8261 81.5397 19.3689 81.5397 18.8061V8.32086C81.5397 7.84909 81.1556 7.46683 80.6819 7.46683L80.6829 7.4687L80.6829 7.46851ZM94.099 9.21666C92.8133 7.95836 91.2482 7.32828 89.4044 7.32828C87.5688 7.32828 86.0119 7.95296 84.7354 9.20762C83.459 10.4568 82.8197 11.9756 82.8197 13.7601C82.8197 15.6531 83.4444 17.2291 84.6972 18.4811C85.9501 19.7494 87.5034 20.3831 89.3533 20.3831C91.2218 20.3831 92.7987 19.7621 94.0853 18.5184C95.3591 17.2637 96.0001 15.715 96.0001 13.8622C96.0001 12.0257 95.3664 10.4778 94.099 9.21676V9.21666ZM92.0795 16.7538C91.4131 17.474 90.5206 17.83 89.4028 17.83C88.2936 17.83 87.4032 17.4685 86.7258 16.7391C86.0666 16.0218 85.7352 15.0421 85.7352 13.8092C85.7352 12.6602 86.0757 11.7206 86.7512 10.994C87.4287 10.2656 88.3118 9.90222 89.4044 9.90222C90.5107 9.90222 91.4039 10.2656 92.0793 10.994C92.7478 11.7114 93.0828 12.6711 93.0828 13.8712C93.0828 15.0749 92.746 16.0335 92.0794 16.7519V16.7556V16.7538H92.0795Z" fill="white"/>
<path d="M66.6018 16.2548C66.0135 15.6593 65.685 14.8472 65.6094 13.8311H73.7911C74.1644 13.8311 74.4722 13.5325 74.4776 13.1601C74.4776 11.1179 73.9531 9.52811 72.9052 8.37712C71.8463 7.21821 70.4058 6.63904 68.5903 6.63904C66.7912 6.63904 65.3435 7.23537 64.2528 8.42822C63.1698 9.63906 62.6289 11.2187 62.6289 13.1736C62.6289 15.143 63.1885 16.7255 64.302 17.9174C65.0815 18.7467 66.0366 19.283 67.1701 19.5325C67.6454 19.6444 68.1379 19.7037 68.636 19.6964C70.6683 19.7384 72.4365 19.7801 74.4688 19.8221L74.4724 19.5235C74.2238 19.2531 74.0991 18.9263 74.0991 18.5475C74.0991 18.1778 74.2292 17.8601 74.4832 17.5851L74.485 17.2236C72.8826 17.1835 68.9967 17.1453 68.8419 17.1453C67.9314 17.1453 67.183 16.8513 66.6021 16.2568V16.2549L66.6018 16.2548ZM66.2048 10.5479C66.3842 10.2673 66.5964 10.0306 66.8468 9.83215C67.099 9.63002 67.3721 9.48065 67.678 9.37511C67.9822 9.26948 68.3081 9.21661 68.6578 9.21661C70.1766 9.21661 71.138 9.97611 71.5385 11.4984H65.7997C65.8935 11.1432 66.0282 10.8265 66.2049 10.5461V10.5479H66.2048Z" fill="white"/>
<path d="M10.1866 12.7951L9.96139 12.5685C9.7909 12.3982 9.49803 12.5188 9.49803 12.7602V15.997C9.49803 16.1465 9.6207 16.2682 9.77057 16.2682H13.0085C13.2499 16.2682 13.3714 15.9758 13.1998 15.8058C13.0939 15.6999 13.0939 15.5285 13.1998 15.4229L16.6436 11.9688C16.7497 11.8635 16.7497 11.6922 16.6436 11.5858L16.3299 11.2733C16.1594 11.103 16.2809 10.8106 16.5216 10.8106H19.7576C19.9072 10.8106 20.0296 10.9321 20.0296 11.0817V14.3182C20.0296 14.5596 19.7362 14.6805 19.5653 14.51L19.3472 14.292C19.2407 14.1831 19.0693 14.1831 18.965 14.292L13.1587 20.095C13.0533 20.2006 12.8822 20.2006 12.7754 20.095L5.67179 12.9919C5.565 12.8852 5.565 12.7135 5.67179 12.6075L15.5056 2.77489C15.6112 2.66905 15.6112 2.49635 15.5056 2.39096L13.1933 0.0790373C13.0874 -0.0263458 12.916 -0.0263458 12.8097 0.0790373L0.0790441 12.809C-0.026348 12.9149 -0.026348 13.0876 0.0790441 13.193L12.8084 25.9211C12.9142 26.0263 13.087 26.0263 13.1924 25.9211L25.9211 13.193C26.0263 13.0871 26.0263 12.9153 25.9211 12.8099L18.4323 5.32164C18.3276 5.21625 18.1553 5.21625 18.0492 5.32164L10.5719 12.7952C10.4651 12.902 10.2933 12.902 10.1866 12.7952V12.7951Z" fill="white"/>
</svg>
