<svg width="126" height="24" viewBox="0 0 126 24" fill="none" xmlns="http://www.w3.org/2000/svg">
<g clip-path="url(#clip0)">
<path d="M99.0481 11.9767C99.0481 11.3693 99.0301 10.7916 99.0122 10.2582C99.0005 9.75634 98.9403 9.25599 98.8324 8.76193C98.7384 8.31031 98.5691 7.87156 98.3291 7.45823C98.0735 7.03416 97.7333 6.64853 97.3226 6.31749C96.7456 5.82465 96.0552 5.43177 95.2915 5.16193C94.4639 4.88619 93.5776 4.75016 92.6852 4.76193C91.7868 4.75019 90.8948 4.88617 90.0609 5.16193C89.2943 5.43515 88.5985 5.82748 88.0119 6.31749C87.6065 6.64894 87.2722 7.03466 87.0233 7.45823C86.7833 7.87156 86.614 8.31031 86.52 8.76193C86.4121 9.25599 86.3519 9.75634 86.3402 10.2582C86.3223 10.7916 86.3223 11.3693 86.3223 11.9767C86.3223 12.5842 86.3223 13.1619 86.3402 13.6953C86.3519 14.1972 86.4121 14.6975 86.52 15.1915C86.614 15.6432 86.7833 16.0819 87.0233 16.4952C87.2722 16.9189 87.6065 17.3045 88.0119 17.636C88.5985 18.126 89.2943 18.5183 90.0609 18.7915C90.8948 19.0674 91.7868 19.2034 92.6852 19.1915C93.5776 19.2034 94.4639 19.0674 95.2915 18.7915C96.0552 18.5217 96.7456 18.1288 97.3226 17.636C97.7333 17.305 98.0735 16.9194 98.3291 16.4952C98.5691 16.0819 98.7384 15.6432 98.8324 15.1915C98.9403 14.6975 99.0005 14.1972 99.0122 13.6953C99.0301 13.1619 99.0481 12.5842 99.0481 11.9767ZM95.6869 11.9767C95.6869 12.6582 95.6689 13.2212 95.633 13.6656C95.6175 14.0377 95.5755 14.4087 95.5072 14.7768C95.4525 15.0171 95.3619 15.2511 95.2375 15.473C95.127 15.6506 94.9879 15.8151 94.8241 15.9619C94.5809 16.2002 94.273 16.388 93.9254 16.51C93.5341 16.6497 93.1115 16.7204 92.6852 16.7174C92.2529 16.7204 91.8246 16.6497 91.427 16.51C91.0714 16.3921 90.7567 16.2038 90.5103 15.9619C90.3465 15.8151 90.2074 15.6506 90.0969 15.473C89.9793 15.2502 89.8949 15.0164 89.8452 14.7768C89.7769 14.4087 89.7349 14.0377 89.7194 13.6656C89.7014 13.2212 89.6835 12.6582 89.6835 11.9767C89.6835 11.2953 89.7014 10.7323 89.7194 10.2879C89.7349 9.91579 89.7769 9.54478 89.8452 9.17675C89.8949 8.93717 89.9793 8.70337 90.0969 8.48045C90.2074 8.30294 90.3465 8.1385 90.5103 7.99157C90.7567 7.74967 91.0714 7.56142 91.427 7.44342C91.8246 7.30377 92.2529 7.23316 92.6852 7.23601C93.1115 7.23306 93.5341 7.30371 93.9254 7.44342C94.273 7.56551 94.5809 7.75328 94.8241 7.99157C94.9879 8.1385 95.127 8.30294 95.2375 8.48045C95.3619 8.7025 95.4525 8.93638 95.5072 9.17675C95.5755 9.54478 95.6175 9.91579 95.633 10.2879C95.6689 10.7323 95.6869 11.2953 95.6869 11.9767Z" fill="white"/>
<path d="M125.829 5.13246C125.832 5.10011 125.826 5.06769 125.813 5.0372C125.8 5.00671 125.779 4.9788 125.752 4.95519C125.725 4.93159 125.692 4.91279 125.656 4.89996C125.62 4.88713 125.581 4.88055 125.542 4.88061H122.756C122.678 4.8844 122.605 4.9126 122.551 4.95941C122.498 5.00624 122.468 5.06815 122.468 5.13246V13.5769L115.71 4.95468C115.689 4.92778 115.66 4.90643 115.625 4.89328C115.589 4.88011 115.55 4.87571 115.512 4.88061H112.942C112.904 4.88061 112.867 4.88674 112.832 4.89865C112.797 4.91057 112.765 4.92803 112.739 4.95003C112.712 4.97205 112.691 4.99818 112.676 5.02694C112.662 5.05569 112.654 5.08652 112.654 5.11765V18.8362C112.654 18.899 112.685 18.9593 112.739 19.0038C112.793 19.0482 112.866 19.0732 112.942 19.0732H115.71C115.788 19.0734 115.863 19.0488 115.92 19.0048C115.977 18.9606 116.011 18.9003 116.015 18.8362V10.3621L122.774 18.9992C122.794 19.026 122.824 19.0475 122.859 19.0605C122.894 19.0737 122.933 19.0781 122.972 19.0732H125.542C125.618 19.0732 125.691 19.0482 125.745 19.0038C125.799 18.9593 125.829 18.899 125.829 18.8362V5.13246Z" fill="white"/>
<path d="M107.244 5.13233C107.244 5.06554 107.212 5.00149 107.154 4.95426C107.097 4.90703 107.02 4.88049 106.938 4.88049H104.17C104.093 4.88427 104.019 4.91246 103.966 4.95929C103.912 5.00612 103.883 5.06803 103.883 5.13233V18.8212C103.883 18.8855 103.912 18.9474 103.966 18.9942C104.019 19.0412 104.093 19.0693 104.17 19.073H106.938C107.02 19.073 107.097 19.0465 107.154 18.9992C107.212 18.9521 107.244 18.888 107.244 18.8212V5.13233Z" fill="white"/>
<path d="M74.0643 11.9769C74.0643 11.2954 74.0643 10.7324 74.1003 10.2732C74.1146 9.90595 74.1567 9.53983 74.2261 9.17688C74.4777 7.94725 75.6101 7.23614 77.066 7.23614C78.0007 7.23614 78.8635 7.53244 79.4027 8.18429C79.664 8.48616 79.8476 8.82903 79.9419 9.1917C79.9599 9.22133 79.9779 9.25096 80.0318 9.25096H83.3031C83.357 9.25096 83.375 9.22133 83.357 9.17688C82.9976 7.51762 81.9191 6.02133 80.0318 5.28059C79.0892 4.92865 78.0645 4.75162 77.0301 4.76207C76.1691 4.74679 75.3137 4.87693 74.516 5.14445C73.7185 5.41198 72.9959 5.81122 72.3927 6.31762C71.6743 6.89545 71.1854 7.63931 70.9907 8.45096C70.811 9.25096 70.7031 10.4213 70.7031 11.9769C70.7031 13.5324 70.811 14.7028 70.9907 15.5028C71.1854 16.3144 71.6743 17.0584 72.3927 17.6362C72.9959 18.1425 73.7185 18.5418 74.516 18.8093C75.3137 19.0769 76.1691 19.207 77.0301 19.1917C78.0645 19.2021 79.0892 19.025 80.0318 18.6732C81.9191 17.9325 82.9976 16.4362 83.357 14.7769C83.375 14.7324 83.357 14.7028 83.3031 14.7028H80.0318C79.9779 14.7028 79.9599 14.7324 79.9419 14.7621C79.8476 15.1247 79.664 15.4676 79.4027 15.7695C78.8635 16.4213 78.0007 16.7176 77.066 16.7176C75.6101 16.7176 74.4777 16.0065 74.2261 14.7769C74.1567 14.4139 74.1146 14.0478 74.1003 13.6806C74.0643 13.2213 74.0643 12.6584 74.0643 11.9769Z" fill="white"/>
<path d="M39.6073 5.1176C39.6073 5.08647 39.5999 5.05564 39.5855 5.02689C39.571 4.99813 39.5498 4.972 39.5232 4.94998C39.4964 4.92798 39.4648 4.91052 39.4299 4.8986C39.395 4.88669 39.3576 4.88056 39.3197 4.88056H36.5517C36.4736 4.88046 36.3985 4.90494 36.3417 4.94902C36.2849 4.99308 36.2508 5.0534 36.2461 5.1176V18.8361C36.2508 18.9003 36.2849 18.9606 36.3417 19.0047C36.3985 19.0487 36.4736 19.0733 36.5517 19.0732H39.3197C39.3576 19.0732 39.395 19.067 39.4299 19.0551C39.4648 19.0432 39.4964 19.0258 39.5232 19.0037C39.5498 18.9818 39.571 18.9555 39.5855 18.9268C39.5999 18.8981 39.6073 18.8672 39.6073 18.8361V14.8065L41.8361 12.6139L46.4016 18.9991C46.4192 19.0213 46.4431 19.0397 46.4713 19.0527C46.4995 19.0656 46.5312 19.0726 46.5633 19.0732H49.9425C50.0863 19.0732 50.1223 18.9843 50.0324 18.8806L44.0649 10.525L49.5471 5.10278C49.6549 4.98426 49.619 4.88056 49.4392 4.88056H45.7545C45.7335 4.87994 45.7126 4.88367 45.6937 4.89143C45.6749 4.89921 45.6587 4.91075 45.6467 4.925L39.6073 10.8954V5.1176Z" fill="white"/>
<path d="M59.7918 16.7175C58.246 16.7175 56.826 15.5323 56.826 14.1101V5.11753C56.826 5.05466 56.7958 4.99436 56.7419 4.94992C56.6878 4.90546 56.6148 4.88049 56.5384 4.88049H53.7524C53.6762 4.88049 53.6031 4.90546 53.5491 4.94992C53.4952 4.99436 53.4648 5.05466 53.4648 5.11753V14.0805C53.4648 17.2064 56.3048 19.1915 59.7918 19.1915C63.2788 19.1915 66.1367 17.2064 66.1367 14.0805V5.11753C66.1323 5.05334 66.0979 4.99301 66.0411 4.94894C65.9843 4.90486 65.9092 4.88038 65.8312 4.88049H63.0631C62.9869 4.88049 62.9138 4.90546 62.8598 4.94992C62.8059 4.99436 62.7755 5.05466 62.7755 5.11753V14.1101C62.7755 15.5323 61.3556 16.7175 59.7918 16.7175Z" fill="white"/>
<path fill-rule="evenodd" clip-rule="evenodd" d="M8.38502 11.9769L16.9947 19.0732L22.423 14.5991C22.8829 14.22 23.507 14.0069 24.1575 14.0069C24.808 14.0069 25.432 14.22 25.892 14.5991C26.352 14.9782 26.6104 15.4926 26.6104 16.0287C26.6104 16.565 26.352 17.0793 25.892 17.4584L18.7382 23.3695C18.2716 23.7441 17.6461 23.9538 16.9947 23.9538C16.3434 23.9538 15.7178 23.7441 15.2512 23.3695L4.91598 14.8361V19.9028C4.9451 20.183 4.90329 20.465 4.79321 20.7311C4.68314 20.9972 4.50719 21.2415 4.2765 21.4486C4.04584 21.6557 3.76549 21.821 3.45323 21.9342C3.14094 22.0473 2.80358 22.1058 2.46248 22.1058C2.12138 22.1058 1.78401 22.0473 1.47174 21.9342C1.15947 21.821 0.879117 21.6557 0.648451 21.4486C0.417783 21.2415 0.241837 20.9972 0.13176 20.7311C0.0216813 20.465 -0.020128 20.183 0.00898709 19.9028V4.05098C-0.020128 3.77086 0.0216813 3.48883 0.13176 3.22273C0.241837 2.95664 0.417783 2.71228 0.648451 2.50519C0.879117 2.29807 1.15947 2.13273 1.47174 2.01961C1.78401 1.9065 2.12138 1.8481 2.46248 1.8481C2.80358 1.8481 3.14094 1.9065 3.45323 2.01961C3.76549 2.13273 4.04584 2.29807 4.2765 2.50519C4.50719 2.71228 4.68314 2.95664 4.79321 3.22273C4.90329 3.48883 4.9451 3.77086 4.91598 4.05098V9.11764L15.2512 0.58431C15.7178 0.209662 16.3434 0 16.9947 0C17.6461 0 18.2716 0.209662 18.7382 0.58431L25.892 6.49542C26.352 6.87458 26.6104 7.38883 26.6104 7.92505C26.6104 8.46126 26.352 8.97551 25.892 9.35468C25.432 9.73384 24.808 9.94684 24.1575 9.94684C23.507 9.94684 22.8829 9.73384 22.423 9.35468L16.9947 4.88061L8.38502 11.9769ZM16.9947 9.94727C16.5077 9.94727 16.0316 10.0663 15.6266 10.2893C15.2217 10.5123 14.9061 10.8293 14.7197 11.2002C14.5333 11.5711 14.4845 11.9792 14.5795 12.3729C14.6746 12.7666 14.9091 13.1282 15.2535 13.4121C15.5979 13.6959 16.0366 13.8892 16.5143 13.9675C16.992 14.0459 17.4871 14.0056 17.9371 13.852C18.387 13.6984 18.7717 13.4383 19.0422 13.1045C19.3129 12.7707 19.4572 12.3783 19.4572 11.9769C19.4572 11.4386 19.1978 10.9224 18.7359 10.5417C18.2741 10.1611 17.6478 9.94727 16.9947 9.94727Z" fill="white"/>
</g>
<defs>
<clipPath id="clip0">
<rect width="126" height="24" fill="white"/>
</clipPath>
</defs>
</svg>
