<svg width="82" height="20" viewBox="0 0 82 20" fill="none" xmlns="http://www.w3.org/2000/svg">
<path d="M54.9677 6.28762H48.6329L50.4613 0.664185H44.835L38.7441 19.4129H50.4525C51.7723 19.4129 53.0582 18.9951 54.126 18.2194C55.1938 17.4437 55.9885 16.3498 56.3964 15.0946L57.9279 10.3913C58.0819 9.92246 58.1227 9.42385 58.0471 8.93621C57.9716 8.44857 57.7817 7.98573 57.493 7.58553C57.2043 7.18532 56.825 6.8591 56.3861 6.63352C55.9472 6.40794 55.4612 6.28941 54.9677 6.28762ZM52.3515 10.2296L51.0845 14.1275C50.8809 14.7554 50.4836 15.3026 49.9497 15.6908C49.4158 16.0789 48.7727 16.288 48.1126 16.2881H45.3847L47.6188 9.4124H51.7577C51.8563 9.41215 51.9536 9.4353 52.0415 9.47996C52.1294 9.52461 52.2055 9.58949 52.2634 9.66926C52.3214 9.74903 52.3596 9.84142 52.3749 9.93883C52.3902 10.0362 52.3822 10.1359 52.3515 10.2296ZM64.8359 0.664185L63.616 4.4151H69.2424L70.4594 0.664185H64.8359ZM58.7422 19.4129H64.3685L68.6309 6.28762H63.0075L58.7422 19.4129ZM77.0676 9.4124H80.8508L81.865 6.28762H78.0817L79.9101 0.664185H74.2838L69.5216 15.321C69.3696 15.7903 69.3306 16.2889 69.4081 16.7761C69.4855 17.2633 69.6771 17.7253 69.9672 18.1244C70.2573 18.5234 70.6377 18.8481 71.0773 19.0721C71.5168 19.296 72.0032 19.4128 72.4965 19.4129H78.7402L79.7573 16.2881H75.6889C75.5909 16.2879 75.4944 16.2645 75.4072 16.2198C75.32 16.1751 75.2446 16.1104 75.1872 16.0309C75.1299 15.9515 75.0921 15.8596 75.0772 15.7627C75.0622 15.6659 75.0703 15.5669 75.101 15.4738L77.0676 9.4124Z" fill="white"/>
<path d="M16.0587 7.20771L22.2113 0.664185H15.6207L10.5441 16.2881H6.32282C6.22493 16.2868 6.12871 16.2626 6.04189 16.2173C5.95507 16.1721 5.88006 16.1071 5.82289 16.0277C5.76571 15.9482 5.72797 15.8564 5.71269 15.7597C5.69741 15.663 5.70502 15.5641 5.7349 15.4709L10.5411 0.664185H4.91476L0.152626 15.3269C0.000487986 15.7954 -0.038623 16.2932 0.0384902 16.7797C0.115603 17.2663 0.306752 17.7276 0.596311 18.1261C0.88587 18.5246 1.26562 18.849 1.70452 19.0726C2.14342 19.2962 2.62902 19.4128 3.12161 19.4129H15.1533L19.4157 6.28762L16.0587 7.20771ZM36.871 0.664185H23.9368L25.8652 7.20771L23.1049 6.29056L18.8249 19.4129H24.4513L26.4825 13.1633H32.5645C33.8838 13.1627 35.1691 12.7447 36.2363 11.969C37.3034 11.1933 38.0977 10.0998 38.5054 8.84506L39.8371 4.75021C39.9885 4.28195 40.0271 3.78455 39.9499 3.29852C39.8726 2.8125 39.6817 2.35158 39.3926 1.95332C39.1035 1.55506 38.7244 1.23071 38.2862 1.0067C37.848 0.782677 37.3632 0.66532 36.871 0.664185V0.664185ZM34.2607 4.60323L33.1965 7.88087C32.9924 8.5082 32.5949 9.0548 32.061 9.44239C31.5272 9.82997 30.8843 10.0387 30.2246 10.0385H27.4967L29.5279 3.78897H33.6698C33.7681 3.78869 33.8649 3.81176 33.9525 3.85626C34.0401 3.90076 34.1159 3.96543 34.1736 4.04494C34.2313 4.12445 34.2692 4.21653 34.2844 4.31359C34.2995 4.41065 34.2914 4.50993 34.2607 4.60323Z" fill="white"/>
</svg>
