<svg width="106" height="24" viewBox="0 0 106 24" fill="none" xmlns="http://www.w3.org/2000/svg">
<path d="M39.358 15.0721C39.912 13.078 40.3945 11.1954 40.9344 9.34076C41.4453 7.5698 41.0334 7.89054 42.865 7.86261C44.5688 7.84867 44.5546 7.86261 45.0092 9.49418C45.506 11.307 46.0173 13.1059 46.5709 15.1279C46.9967 13.3987 47.366 11.8648 47.7496 10.3448C47.9054 9.68938 48.0474 9.03401 48.2463 8.39253C48.3031 8.19729 48.5446 7.91842 48.7147 7.90448C49.8649 7.86261 51.0151 7.87655 52.2927 7.87655C52.2217 8.19729 52.1933 8.43435 52.1223 8.67141C51.0151 12.2134 49.8791 15.7554 48.7999 19.2973C48.6015 19.9527 48.3174 20.2735 47.5791 20.1898C46.9687 20.1201 46.3436 20.134 45.7332 20.1898C45.1228 20.2456 44.924 19.9806 44.7819 19.4507C44.1999 17.1917 43.5753 14.9326 42.9076 12.4784C42.5529 13.845 42.2404 15.0302 41.9279 16.2155C41.63 17.3451 41.3317 18.4607 41.0618 19.5902C40.9628 20.0085 40.7639 20.1759 40.3377 20.1619C39.5142 20.148 38.6765 20.1898 37.8531 20.134C37.6262 20.1201 37.2711 19.883 37.2142 19.6878C36.0356 15.9506 34.8716 12.1994 33.7214 8.44829C33.6788 8.29491 33.6788 8.14153 33.6504 7.87655C34.9 7.87655 36.0924 7.84867 37.2853 7.90448C37.4415 7.90448 37.64 8.29491 37.6968 8.53197C38.2082 10.5121 38.6766 12.4923 39.1595 14.4724C39.2022 14.6258 39.259 14.7792 39.358 15.0721Z" fill="white"/>
<path d="M13.6578 0.095459C14.3677 1.09948 14.9496 1.93618 15.5321 2.77285C16.8097 4.64144 18.0736 6.51007 19.3654 8.36471C19.7205 8.86671 19.7632 9.15957 19.1807 9.59187C15.0349 12.6737 10.9317 15.7973 6.7858 18.8791C6.40225 19.1579 5.86287 19.2974 5.38032 19.3392C4.40057 19.4089 3.40661 19.3532 2.24219 19.3532C6.06175 12.8968 9.80984 6.57976 13.6578 0.095459Z" fill="white"/>
<path d="M62.2735 19.2556C60.6265 21.0963 57.432 20.8174 55.7566 19.8831C53.2435 18.4747 52.0085 15.8531 52.4342 12.841C52.7752 10.3589 54.7484 8.26715 57.3894 7.59779C59.15 7.13762 60.6691 7.50017 62.3019 8.7552C62.3303 8.46234 62.3445 8.19741 62.3871 7.83485C63.5231 7.83485 64.6591 7.82091 65.7805 7.86273C65.8942 7.86273 66.093 8.22529 66.093 8.42053C66.1214 9.64768 66.1072 10.8748 66.1072 12.1159C66.1072 14.5144 66.093 16.8989 66.1214 19.2974C66.1357 19.9389 65.9368 20.1481 65.2695 20.0923C64.5455 20.0226 63.8072 20.0505 63.069 20.0923C62.5292 20.1062 62.0324 20.1481 62.2735 19.2556ZM62.2735 13.9984C62.3161 12.4227 60.9816 11.0282 59.3915 10.9724C57.7587 10.9166 56.2396 12.2832 56.197 13.8729C56.1544 15.4905 57.5314 16.9129 59.1926 16.9687C60.8254 17.0384 62.2313 15.6858 62.2735 13.9984Z" fill="white"/>
<path d="M26.4102 19.3393C20.5605 19.3393 14.8383 19.3393 9.13069 19.3393C9.10228 19.2835 9.05966 19.2277 9.03125 19.1859C15.165 14.5562 21.2988 9.92656 27.4325 5.29688C27.5031 5.3248 27.5742 5.35268 27.6452 5.38056C27.2337 10.0102 26.8359 14.6399 26.4102 19.3393Z" fill="white"/>
<path d="M98.3379 10.9306C98.9057 10.0242 99.4455 9.21544 99.9281 8.37876C100.155 7.98829 100.425 7.82097 100.894 7.83491C102.171 7.86279 103.435 7.84885 104.926 7.84885C104.273 8.72738 103.748 9.46643 103.194 10.2055C102.455 11.1956 101.731 12.1996 100.965 13.1758C100.695 13.5244 100.737 13.7614 100.993 14.0822C102.271 15.7555 103.535 17.4289 104.798 19.1162C104.983 19.3672 105.167 19.6461 105.423 20.0227C105.082 20.0784 104.869 20.1482 104.656 20.1621C103.563 20.176 102.484 20.1482 101.39 20.176C100.936 20.19 100.652 20.0366 100.411 19.6461C99.7718 18.6281 99.0762 17.6242 98.3521 16.5225C97.6423 17.5962 96.9893 18.5724 96.3642 19.5764C96.109 19.9947 95.7964 20.19 95.2713 20.176C94.2063 20.1342 93.1413 20.1621 92.0763 20.1621C91.8779 20.1621 91.6648 20.1202 91.2812 20.0924C91.6364 19.5625 91.9063 19.1441 92.19 18.7537C93.326 17.2058 94.4478 15.658 95.626 14.1519C95.9669 13.7196 95.8959 13.4686 95.6118 13.0781C94.4762 11.5721 93.3544 10.0382 92.2468 8.5182C92.1331 8.36483 92.0479 8.2114 91.9063 7.98829C92.1047 7.93253 92.2468 7.87673 92.403 7.86279C93.5675 7.84885 94.7172 7.83491 95.8817 7.87673C96.1658 7.89071 96.5347 8.11383 96.7052 8.35089C97.2446 9.13176 97.7559 9.99635 98.3379 10.9306Z" fill="white"/>
<path d="M72.2848 17.2615C73.9034 17.2615 75.3515 17.2615 76.9132 17.2615C76.9132 18.14 76.9274 18.9627 76.8848 19.7855C76.8848 19.911 76.5869 20.1202 76.4165 20.1202C73.6761 20.1341 70.9357 20.1341 68.1816 20.1341C67.7696 20.1341 67.6134 19.9947 67.585 19.5624C67.4997 18.2655 67.727 17.1639 68.6357 16.1041C70.0696 14.4446 71.3051 12.6318 72.7248 10.7493C70.9641 10.7493 69.3314 10.7493 67.6134 10.7493C67.6134 9.82891 67.5992 8.9922 67.6418 8.16946C67.6418 8.04397 67.9401 7.83479 68.1106 7.82085C70.8789 7.79297 73.6477 7.80691 76.4165 7.79297C76.7716 7.79297 76.9274 7.90453 76.9274 8.28102C76.9132 9.02012 76.9416 9.77311 76.9132 10.5122C76.899 10.7493 76.7716 11.0003 76.6296 11.1955C75.3799 12.9386 74.1023 14.6677 72.8384 16.3969C72.6821 16.6618 72.5401 16.8989 72.2848 17.2615Z" fill="white"/>
<path d="M26.3511 20.9847C26.3511 21.8214 26.3511 22.6023 26.3511 23.4529C17.9883 23.4529 9.62517 23.4529 1.23403 23.4529C1.21982 23.3135 1.19141 23.1741 1.19141 23.0346C1.19141 22.3653 1.19141 21.6959 1.19141 20.9847C9.58299 20.9847 17.9173 20.9847 26.3511 20.9847Z" fill="white"/>
<path d="M88.3705 8.86666C89.1798 8.01605 89.9606 7.58375 90.9262 7.48613C91.3235 7.44431 91.5082 7.55587 91.5082 7.96025C91.5082 8.89459 91.494 9.81494 91.5082 10.7492C91.5082 11.0839 91.3945 11.2373 91.0256 11.2652C90.6279 11.2931 90.2306 11.3767 89.8612 11.5162C89.1087 11.7951 88.6826 12.3389 88.6968 13.1617C88.6968 15.2116 88.6684 17.2475 88.6968 19.2974C88.711 19.9109 88.5552 20.2038 87.8733 20.148C87.0782 20.0922 86.2689 20.1201 85.4596 20.148C84.9629 20.1619 84.8066 19.9667 84.8066 19.4926C84.8208 15.8251 84.8208 12.1437 84.8066 8.47623C84.8066 8.00211 84.9487 7.80687 85.4454 7.82081C86.1269 7.84869 86.8229 7.86267 87.5044 7.82081C88.1432 7.79293 88.5978 7.87661 88.3705 8.86666Z" fill="white"/>
<path d="M82.3203 7.83475C82.3203 8.60173 82.3203 9.24316 82.3203 9.88463C82.3203 13.0641 82.3061 16.2435 82.3345 19.4228C82.3345 19.9667 82.1782 20.1619 81.6104 20.148C80.7585 20.1201 79.9066 20.1341 79.0547 20.148C78.5859 20.1619 78.4297 19.9667 78.4297 19.5344C78.4439 15.8251 78.4297 12.1158 78.4581 8.39255C78.4581 8.21125 78.728 7.86263 78.8843 7.86263C79.9919 7.82081 81.099 7.83475 82.3203 7.83475Z" fill="white"/>
<path d="M0 4.9342C0.68143 5.39438 1.17819 5.72901 1.67539 6.07768C3.08087 7.05379 4.4868 8.02994 5.90648 8.99211C6.21901 9.20129 6.36062 9.41047 6.13377 9.78697C4.57158 12.3807 3.03825 14.9883 1.49071 17.5821C1.4481 17.6518 1.36287 17.6936 1.14979 17.8749C0.752471 13.5381 0.38311 9.35467 0 4.9342Z" fill="white"/>
<path d="M82.0374 5.24095C82.0516 6.16131 81.2849 6.90036 80.3478 6.9143C79.4817 6.92824 78.7008 6.13338 78.715 5.24095C78.715 4.3206 79.4249 3.65125 80.3904 3.65125C81.3702 3.65125 82.0232 4.27874 82.0374 5.24095Z" fill="white"/>
</svg>
