<svg width="31" height="32" viewBox="0 0 31 32" fill="none" xmlns="http://www.w3.org/2000/svg">
<g clip-path="url(#clip0)">
<path d="M30.4658 7.81536L22.8198 0.127441V4.71823C20.7637 4.73468 19.2642 5.20055 18.2794 5.65793H0.534424V31.1269H26.0034V12.3021L30.4658 7.81536ZM22.9392 5.7789C23.0681 5.7789 23.2002 5.78103 23.3339 5.78527L23.8805 5.80119V2.69981L28.969 7.81589L26.0029 10.7974L25.4999 11.303L23.8805 12.9314V9.959V9.95847L23.4746 9.86031C23.4114 9.84492 21.913 9.49419 19.9121 9.98765C19.3014 10.1389 18.6015 10.384 17.8634 10.7719C17.1651 11.1385 16.4324 11.6341 15.706 12.3048C15.2253 12.7484 14.7466 13.2668 14.284 13.8759C14.345 12.5308 14.735 10.4944 16.2796 8.61233C16.6356 8.17829 17.0532 7.75275 17.5424 7.34578C17.5429 7.34525 17.5642 7.32667 17.5997 7.29802C17.605 7.29378 17.6098 7.28953 17.6162 7.28476C17.6305 7.27361 17.6496 7.25876 17.6682 7.24496C17.6825 7.23382 17.6968 7.22321 17.7138 7.211C17.7302 7.1988 17.7504 7.18447 17.7695 7.17121C17.7971 7.15158 17.8257 7.13141 17.8581 7.10966C17.873 7.09958 17.8894 7.08896 17.9059 7.07782C17.9515 7.04758 18.0014 7.01627 18.056 6.98284C18.0635 6.97807 18.0714 6.97382 18.0788 6.96905C18.8456 6.50583 20.4448 5.7789 22.9392 5.7789ZM24.9422 13.3692V30.0662H1.59563V6.71966H16.6425C16.6059 6.7515 16.573 6.78387 16.5374 6.8157C16.4743 6.87248 16.4122 6.92872 16.3517 6.98603C16.2854 7.04811 16.2207 7.11072 16.157 7.17333C16.0986 7.23064 16.0413 7.28847 15.9856 7.34631C15.9241 7.40998 15.8641 7.47365 15.8052 7.53732C15.7521 7.59516 15.6996 7.653 15.6481 7.71083C15.5914 7.77557 15.5362 7.8403 15.4815 7.90556C15.4327 7.96393 15.3844 8.0223 15.3377 8.08066C15.2857 8.14593 15.2353 8.21172 15.1855 8.27699C15.1409 8.33588 15.0968 8.39425 15.0544 8.45368C15.0066 8.51947 14.961 8.58527 14.9159 8.65106C14.8756 8.70996 14.8353 8.76939 14.7965 8.82828C14.753 8.89461 14.7116 8.96094 14.6702 9.02726C14.6342 9.08563 14.5981 9.14399 14.5631 9.20289C14.5233 9.27028 14.4856 9.33713 14.4479 9.40452C14.4156 9.46236 14.3837 9.52019 14.3529 9.57803C14.3169 9.64541 14.2829 9.7128 14.2489 9.78019C14.2203 9.83696 14.1916 9.89427 14.1646 9.95104C14.1322 10.019 14.1014 10.0869 14.0712 10.1543C14.0463 10.2105 14.0208 10.2662 13.9969 10.3225C13.9683 10.3899 13.9412 10.4572 13.9141 10.5241C13.8918 10.5793 13.8696 10.635 13.8489 10.6902C13.8234 10.7576 13.7995 10.8244 13.7762 10.8913C13.7571 10.9449 13.738 10.9985 13.7205 11.052C13.6982 11.1194 13.6775 11.1858 13.6568 11.2526C13.6403 11.3051 13.6239 11.3577 13.609 11.4097C13.5899 11.476 13.5719 11.5413 13.5544 11.6065C13.5406 11.6575 13.5268 11.7084 13.5141 11.7593C13.4976 11.8257 13.4822 11.8904 13.4674 11.9557C13.4562 12.0039 13.4445 12.0522 13.4345 12.1C13.4201 12.1658 13.4079 12.23 13.3952 12.2947C13.3862 12.3409 13.3766 12.387 13.3687 12.4327C13.357 12.4974 13.3469 12.5611 13.3363 12.6248C13.3294 12.6683 13.322 12.7118 13.3156 12.7548C13.3061 12.8184 13.2981 12.8805 13.2901 12.9426C13.2848 12.984 13.279 13.0254 13.2742 13.0662C13.2668 13.1283 13.261 13.1888 13.2551 13.2493C13.2514 13.2875 13.2472 13.3262 13.244 13.3639C13.2387 13.4244 13.235 13.4827 13.2307 13.5416C13.2281 13.5777 13.2254 13.6138 13.2233 13.6488C13.2201 13.7072 13.2174 13.7634 13.2153 13.8202C13.2143 13.8531 13.2121 13.8865 13.2111 13.9189C13.2095 13.9757 13.2084 14.0303 13.2079 14.085C13.2074 14.1142 13.2068 14.1439 13.2063 14.1725C13.2058 14.2277 13.2063 14.2808 13.2068 14.3333C13.2068 14.3588 13.2068 14.3853 13.2074 14.4097C13.2084 14.4606 13.21 14.5089 13.2116 14.5572C13.2121 14.5811 13.2127 14.6066 13.2137 14.6299C13.2159 14.6777 13.2185 14.7228 13.2206 14.7673C13.2217 14.788 13.2228 14.8098 13.2238 14.8294C13.2265 14.8745 13.2297 14.9159 13.2334 14.9573C13.2344 14.9743 13.236 14.9928 13.2371 15.0088C13.2408 15.0512 13.2445 15.0905 13.2482 15.1287C13.2493 15.1409 13.2503 15.1547 13.2519 15.1669C13.2562 15.2056 13.2599 15.2406 13.2641 15.2746C13.2652 15.2836 13.2663 15.2942 13.2673 15.3027C13.2721 15.3404 13.2763 15.3738 13.2806 15.4046C13.2811 15.4078 13.2817 15.4115 13.2817 15.4147C13.2907 15.4768 13.2981 15.5229 13.3039 15.5547C13.3045 15.5574 13.305 15.5616 13.3055 15.5643C13.3082 15.5802 13.3103 15.5914 13.3119 15.5977L13.5772 16.963L14.2887 15.7681C16.6473 11.806 19.6537 10.9199 21.5103 10.7942C22.0647 10.757 22.5179 10.7867 22.8193 10.8234V15.5017V15.5022L24.9422 13.3692Z" fill="black"/>
</g>
<defs>
<clipPath id="clip0">
<rect width="31" height="31" fill="white" transform="translate(0 0.127441)"/>
</clipPath>
</defs>
</svg>
