<svg width="32" height="33" viewBox="0 0 32 33" fill="none" xmlns="http://www.w3.org/2000/svg">
<path d="M6.40008 28.3942C8.45875 28.3942 10.1334 26.719 10.1334 24.6608C10.1334 22.784 8.73982 21.2304 6.93341 20.9702V4.39417C6.93341 4.09924 6.69448 3.86084 6.40008 3.86084C6.10568 3.86084 5.86675 4.09924 5.86675 4.39417V20.9702C4.06035 21.2304 2.66675 22.784 2.66675 24.6608C2.66675 26.719 4.34141 28.3942 6.40008 28.3942ZM6.40008 21.9942C7.87048 21.9942 9.06675 23.1904 9.06675 24.6608C9.06675 26.1312 7.87048 27.3275 6.40008 27.3275C4.92968 27.3275 3.73341 26.1312 3.73341 24.6608C3.73341 23.1904 4.92968 21.9942 6.40008 21.9942Z" fill="black"/>
<path d="M25.0667 11.2848V27.8608C25.0667 28.1558 25.3056 28.3942 25.6 28.3942C25.8944 28.3942 26.1334 28.1558 26.1334 27.8608V11.2848C27.9398 11.0246 29.3334 9.47097 29.3334 7.59417C29.3334 5.53604 27.6587 3.86084 25.6 3.86084C23.5414 3.86084 21.8667 5.53604 21.8667 7.59417C21.8667 9.47097 23.2603 11.0246 25.0667 11.2848ZM25.6 4.92751C27.0704 4.92751 28.2667 6.12377 28.2667 7.59417C28.2667 9.06457 27.0704 10.2608 25.6 10.2608C24.1296 10.2608 22.9334 9.06457 22.9334 7.59417C22.9334 6.12377 24.1296 4.92751 25.6 4.92751Z" fill="black"/>
<path d="M15.4666 19.2848V27.8608C15.4666 28.1558 15.7055 28.3942 15.9999 28.3942C16.2943 28.3942 16.5333 28.1558 16.5333 27.8608V19.2848C18.3397 19.0246 19.7333 17.471 19.7333 15.5942C19.7333 13.7174 18.3397 12.1638 16.5333 11.9035V4.39417C16.5333 4.09924 16.2943 3.86084 15.9999 3.86084C15.7055 3.86084 15.4666 4.09924 15.4666 4.39417V11.9035C13.6602 12.1638 12.2666 13.7174 12.2666 15.5942C12.2666 17.471 13.6602 19.0246 15.4666 19.2848ZM15.9999 12.9275C17.4703 12.9275 18.6666 14.1238 18.6666 15.5942C18.6666 17.0646 17.4703 18.2608 15.9999 18.2608C14.5295 18.2608 13.3333 17.0646 13.3333 15.5942C13.3333 14.1238 14.5295 12.9275 15.9999 12.9275Z" fill="black"/>
<path d="M31.4667 0.127441H0.533333C0.238933 0.127441 0 0.365841 0 0.660775V31.5941C0 31.889 0.238933 32.1274 0.533333 32.1274H31.4667C31.7611 32.1274 32 31.889 32 31.5941V0.660775C32 0.365841 31.7611 0.127441 31.4667 0.127441ZM30.9333 31.0608H1.06667V1.19411H30.9333V31.0608Z" fill="black"/>
</svg>
