<svg width="1391" height="522" viewBox="0 0 1391 522" fill="none" xmlns="http://www.w3.org/2000/svg">
<path d="M266.188 57.3166C266.188 88.1893 240.362 113.243 208.471 113.243C176.579 113.243 150.753 88.1893 150.753 57.3166C150.753 26.4439 176.579 1.39014 208.471 1.39014C240.362 1.39014 266.188 26.4439 266.188 57.3166Z" stroke="white"/>
<path d="M223.697 42.0903L239.819 58.2122L223.697 74.334" stroke="white"/>
<path d="M192.349 74.3341L176.227 58.2123L192.349 42.0904" stroke="white"/>
<path d="M198.171 83.7385L219.666 32.2382" stroke="white"/>
<path d="M747.834 57.3166C747.834 88.1893 722.008 113.243 690.117 113.243C658.225 113.243 632.399 88.1893 632.399 57.3166C632.399 26.4439 658.225 1.39014 690.117 1.39014C722.008 1.39014 747.834 26.4439 747.834 57.3166Z" stroke="white"/>
<rect x="657.061" y="27.8562" width="17.4265" height="17.4265" rx="1.5" transform="rotate(-11.701 657.061 27.8562)" stroke="white"/>
<rect x="683.086" y="39.2801" width="17.4265" height="17.4265" rx="1.5" transform="rotate(6.18547 683.086 39.2801)" stroke="white"/>
<rect x="704.894" y="46.8025" width="17.4265" height="17.4265" rx="1.5" transform="rotate(-14.3459 704.894 46.8025)" stroke="white"/>
<rect x="661.198" y="69.913" width="16.8755" height="17.8686" rx="1.5" stroke="white"/>
<rect x="682.053" y="69.913" width="17.8686" height="17.8686" rx="1.5" stroke="white"/>
<rect x="702.908" y="69.913" width="17.8686" height="17.8686" rx="1.5" stroke="white"/>
<circle cx="1144.95" cy="59.1079" r="57.7178" stroke="white"/>
<rect x="1117.49" y="19.3032" width="25.8697" height="33.035" rx="1.5" stroke="white"/>
<path d="M1122.36 24.625H1138.49" stroke="white" stroke-linecap="round" stroke-linejoin="round"/>
<path d="M1122.36 29.1033H1138.49" stroke="white" stroke-linecap="round" stroke-linejoin="round"/>
<path d="M1122.36 33.5815H1138.49" stroke="white" stroke-linecap="round" stroke-linejoin="round"/>
<path d="M1122.36 38.0598H1138.49" stroke="white" stroke-linecap="round" stroke-linejoin="round"/>
<path d="M1122.36 42.5382H1138.49" stroke="white" stroke-linecap="round" stroke-linejoin="round"/>
<path d="M1122.36 47.0164H1138.49" stroke="white" stroke-linecap="round" stroke-linejoin="round"/>
<rect x="1117.49" y="64.0862" width="25.8697" height="33.035" rx="1.5" stroke="white"/>
<path d="M1122.36 69.408H1138.49" stroke="white" stroke-linecap="round" stroke-linejoin="round"/>
<path d="M1122.36 73.8864H1138.49" stroke="white" stroke-linecap="round" stroke-linejoin="round"/>
<path d="M1122.36 78.3645H1138.49" stroke="white" stroke-linecap="round" stroke-linejoin="round"/>
<path d="M1122.36 82.8429H1138.49" stroke="white" stroke-linecap="round" stroke-linejoin="round"/>
<path d="M1122.36 87.321H1138.49" stroke="white" stroke-linecap="round" stroke-linejoin="round"/>
<path d="M1122.36 91.7994H1138.49" stroke="white" stroke-linecap="round" stroke-linejoin="round"/>
<rect x="1156.9" y="47.0687" width="21.3915" height="21.3915" stroke="white"/>
<line x1="1160.12" y1="46.8873" x2="1160.12" y2="42.986" stroke="white"/>
<path d="M1163.89 46.8873L1163.89 42.986L1163.89 34.9251L1143.41 34.9251" stroke="white"/>
<line x1="1167.55" y1="46.8873" x2="1167.55" y2="42.986" stroke="white"/>
<line x1="1171.27" y1="46.8873" x2="1171.27" y2="42.986" stroke="white"/>
<line x1="1174.98" y1="46.8873" x2="1174.98" y2="42.986" stroke="white"/>
<line x1="1160.12" y1="72.4371" x2="1160.12" y2="68.5358" stroke="white"/>
<line x1="1167.55" y1="72.4371" x2="1167.55" y2="68.5358" stroke="white"/>
<line x1="1163.96" y1="72.4371" x2="1163.96" y2="68.5358" stroke="white"/>
<path d="M1171.32 68.5359L1171.32 72.4372L1171.32 80.1558L1143.41 80.1558" stroke="white"/>
<line x1="1174.98" y1="72.4371" x2="1174.98" y2="68.5358" stroke="white"/>
<line x1="1156.72" y1="65.3668" x2="1152.82" y2="65.3668" stroke="white"/>
<line x1="1156.72" y1="61.6503" x2="1152.82" y2="61.6503" stroke="white"/>
<line x1="1156.72" y1="57.9352" x2="1152.82" y2="57.9352" stroke="white"/>
<line x1="1156.72" y1="54.2186" x2="1152.82" y2="54.2186" stroke="white"/>
<line x1="1156.72" y1="50.5046" x2="1152.82" y2="50.5046" stroke="white"/>
<line x1="1182.26" y1="65.3668" x2="1178.36" y2="65.3668" stroke="white"/>
<line x1="1182.26" y1="61.6503" x2="1178.36" y2="61.6503" stroke="white"/>
<line x1="1182.26" y1="57.9352" x2="1178.36" y2="57.9352" stroke="white"/>
<line x1="1182.26" y1="54.2186" x2="1178.36" y2="54.2186" stroke="white"/>
<line x1="1182.26" y1="50.5046" x2="1178.36" y2="50.5046" stroke="white"/>
<path d="M264.457 59.4821H629.913" stroke="white" stroke-linecap="round" stroke-dasharray="1 3"/>
<path d="M266.444 462.55H632.76" stroke="white" stroke-linecap="round" stroke-dasharray="1 3"/>
<path d="M750.076 462.55H1085.24" stroke="white" stroke-linecap="round" stroke-dasharray="1 3"/>
<path d="M748.09 59.4821H1086.73" stroke="white" stroke-linecap="round" stroke-dasharray="1 3"/>
<path d="M443.213 49.5513L453.065 59.4035L443.213 69.2557" stroke="white"/>
<path d="M443.213 452.619L453.065 462.471L443.213 472.323" stroke="white"/>
<path d="M931 452.619L940.852 462.471L931 472.323" stroke="white"/>
<path d="M928 49.5513L937.852 59.4035L928 69.2557" stroke="white"/>
<path d="M938 342.553L928.148 352.405L938 362.257" stroke="white"/>
<path d="M453.144 342.553L443.291 352.405L453.144 362.257" stroke="white"/>
<path d="M245.589 352.483H1243C1324.19 352.483 1390 286.671 1390 205.486V205.486C1390 124.302 1324.19 58.489 1243 58.489H1204.88" stroke="white" stroke-linecap="round" stroke-dasharray="1 3"/>
<path d="M246 352.127L55.5 352.127C25.4005 352.127 1.00001 376.528 1 406.627V406.627C1 436.727 25.4005 461.127 55.5 461.127L153.362 461.127" stroke="white" stroke-linecap="round" stroke-dasharray="1 3"/>
<circle cx="208.471" cy="462.176" r="57.7178" stroke="white"/>
<rect x="220.044" y="449.241" width="21.3915" height="21.3915" stroke="white"/>
<rect x="185.114" y="430.432" width="21.3915" height="21.3915" stroke="white"/>
<rect x="184.666" y="475.215" width="21.3915" height="21.3915" stroke="white"/>
<line x1="223.264" y1="449.06" x2="223.264" y2="445.158" stroke="white"/>
<path d="M227.032 449.06L227.032 445.158L227.032 437.097L206.557 437.097" stroke="white"/>
<line x1="230.695" y1="449.06" x2="230.695" y2="445.158" stroke="white"/>
<line x1="234.411" y1="449.06" x2="234.411" y2="445.158" stroke="white"/>
<line x1="238.127" y1="449.06" x2="238.127" y2="445.158" stroke="white"/>
<line x1="188.334" y1="430.251" x2="188.334" y2="426.349" stroke="white"/>
<line x1="195.765" y1="430.251" x2="195.765" y2="426.349" stroke="white"/>
<line x1="191.727" y1="430.251" x2="191.727" y2="426.349" stroke="white"/>
<line x1="199.48" y1="430.251" x2="199.48" y2="426.349" stroke="white"/>
<line x1="203.196" y1="430.251" x2="203.196" y2="426.349" stroke="white"/>
<line x1="187.886" y1="475.034" x2="187.886" y2="471.132" stroke="white"/>
<line x1="195.317" y1="475.034" x2="195.317" y2="471.132" stroke="white"/>
<line x1="191.279" y1="475.034" x2="191.279" y2="471.132" stroke="white"/>
<line x1="199.033" y1="475.034" x2="199.033" y2="471.132" stroke="white"/>
<line x1="202.748" y1="475.034" x2="202.748" y2="471.132" stroke="white"/>
<line x1="188.334" y1="456.225" x2="188.334" y2="452.323" stroke="white"/>
<line x1="195.765" y1="456.225" x2="195.765" y2="452.323" stroke="white"/>
<line x1="191.727" y1="456.225" x2="191.727" y2="452.323" stroke="white"/>
<line x1="199.48" y1="456.225" x2="199.48" y2="452.323" stroke="white"/>
<line x1="203.196" y1="456.225" x2="203.196" y2="452.323" stroke="white"/>
<line x1="187.886" y1="501.008" x2="187.886" y2="497.106" stroke="white"/>
<line x1="195.317" y1="501.008" x2="195.317" y2="497.106" stroke="white"/>
<line x1="191.279" y1="501.008" x2="191.279" y2="497.106" stroke="white"/>
<line x1="199.033" y1="501.008" x2="199.033" y2="497.106" stroke="white"/>
<line x1="202.748" y1="501.008" x2="202.748" y2="497.106" stroke="white"/>
<line x1="223.265" y1="474.609" x2="223.265" y2="470.708" stroke="white"/>
<line x1="230.696" y1="474.609" x2="230.696" y2="470.708" stroke="white"/>
<line x1="227.105" y1="474.609" x2="227.105" y2="470.708" stroke="white"/>
<path d="M234.463 470.708L234.463 474.609L234.463 482.328L206.557 482.328" stroke="white"/>
<line x1="238.127" y1="474.609" x2="238.127" y2="470.708" stroke="white"/>
<line x1="219.863" y1="467.539" x2="215.962" y2="467.539" stroke="white"/>
<line x1="219.863" y1="463.822" x2="215.962" y2="463.822" stroke="white"/>
<line x1="219.863" y1="460.107" x2="215.962" y2="460.107" stroke="white"/>
<line x1="219.863" y1="456.391" x2="215.962" y2="456.391" stroke="white"/>
<line x1="219.863" y1="452.677" x2="215.962" y2="452.677" stroke="white"/>
<line x1="184.932" y1="448.73" x2="181.031" y2="448.73" stroke="white"/>
<line x1="184.932" y1="441.298" x2="181.031" y2="441.298" stroke="white"/>
<line x1="184.932" y1="437.582" x2="181.031" y2="437.582" stroke="white"/>
<line x1="184.932" y1="433.868" x2="181.031" y2="433.868" stroke="white"/>
<line x1="184.485" y1="493.513" x2="180.583" y2="493.513" stroke="white"/>
<line x1="184.485" y1="489.796" x2="180.583" y2="489.796" stroke="white"/>
<path d="M184.485 486.029L175.209 486.029L175.209 445.158L184.485 445.158" stroke="white"/>
<line x1="184.485" y1="482.365" x2="180.583" y2="482.365" stroke="white"/>
<line x1="184.485" y1="478.651" x2="180.583" y2="478.651" stroke="white"/>
<line x1="245.408" y1="467.539" x2="241.506" y2="467.539" stroke="white"/>
<line x1="245.408" y1="463.822" x2="241.506" y2="463.822" stroke="white"/>
<line x1="245.408" y1="460.107" x2="241.506" y2="460.107" stroke="white"/>
<line x1="245.408" y1="456.391" x2="241.506" y2="456.391" stroke="white"/>
<line x1="245.408" y1="452.677" x2="241.506" y2="452.677" stroke="white"/>
<line x1="210.477" y1="448.73" x2="206.576" y2="448.73" stroke="white"/>
<line x1="210.477" y1="445.013" x2="206.576" y2="445.013" stroke="white"/>
<line x1="210.477" y1="441.298" x2="206.576" y2="441.298" stroke="white"/>
<line x1="210.477" y1="433.868" x2="206.576" y2="433.868" stroke="white"/>
<line x1="210.029" y1="493.513" x2="206.128" y2="493.513" stroke="white"/>
<line x1="210.029" y1="489.796" x2="206.128" y2="489.796" stroke="white"/>
<line x1="210.029" y1="486.081" x2="206.128" y2="486.081" stroke="white"/>
<line x1="210.029" y1="478.651" x2="206.128" y2="478.651" stroke="white"/>
<circle cx="1144.95" cy="463.169" r="57.7178" stroke="white"/>
<path d="M1145.45 478.489L1137.47 484.35L1145.45 490.207L1153.43 484.35L1145.45 478.489Z" stroke="white" stroke-miterlimit="10" stroke-linejoin="round"/>
<path d="M1153.43 492.755V484.35L1145.45 490.207V498.612L1153.43 492.755Z" stroke="white" stroke-miterlimit="10" stroke-linejoin="round"/>
<path d="M1137.47 492.755V484.35L1145.45 490.207V498.612L1137.47 492.755Z" stroke="white" stroke-miterlimit="10" stroke-linejoin="round"/>
<path d="M1172.11 451.826L1164.13 457.688L1172.11 463.545L1180.09 457.688L1172.11 451.826Z" stroke="white" stroke-miterlimit="10" stroke-linejoin="round"/>
<path d="M1180.09 466.093V457.688L1172.11 463.545V471.95L1180.09 466.093Z" stroke="white" stroke-miterlimit="10" stroke-linejoin="round"/>
<path d="M1164.13 466.093V457.688L1172.11 463.545V471.95L1164.13 466.093Z" stroke="white" stroke-miterlimit="10" stroke-linejoin="round"/>
<path d="M1145.45 451.826L1137.47 457.688L1145.45 463.545L1153.43 457.688L1145.45 451.826Z" stroke="white" stroke-miterlimit="10" stroke-linejoin="round"/>
<path d="M1153.43 466.093V457.688L1145.45 463.545V471.95L1153.43 466.093Z" stroke="white" stroke-miterlimit="10" stroke-linejoin="round"/>
<path d="M1137.47 466.093V457.688L1145.45 463.545V471.95L1137.47 466.093Z" stroke="white" stroke-miterlimit="10" stroke-linejoin="round"/>
<path d="M1118.35 451.826L1110.37 457.688L1118.35 463.545L1126.33 457.688L1118.35 451.826Z" stroke="white" stroke-miterlimit="10" stroke-linejoin="round"/>
<path d="M1126.33 466.093V457.688L1118.35 463.545V471.95L1126.33 466.093Z" stroke="white" stroke-miterlimit="10" stroke-linejoin="round"/>
<path d="M1110.37 466.093V457.688L1118.35 463.545V471.95L1110.37 466.093Z" stroke="white" stroke-miterlimit="10" stroke-linejoin="round"/>
<path d="M1145.45 425.164L1137.47 431.025L1145.45 436.882L1153.43 431.025L1145.45 425.164Z" stroke="white" stroke-miterlimit="10" stroke-linejoin="round"/>
<path d="M1153.43 439.43V431.025L1145.45 436.882V445.287L1153.43 439.43Z" stroke="white" stroke-miterlimit="10" stroke-linejoin="round"/>
<path d="M1137.47 439.43V431.025L1145.45 436.882V445.287L1137.47 439.43Z" stroke="white" stroke-miterlimit="10" stroke-linejoin="round"/>
<path d="M1126.45 462.55H1137.38" stroke="white"/>
<path d="M1140.36 441.695L1122.48 454.605" stroke="white"/>
<path d="M1149.5 481.013C1149.28 481.175 1149.23 481.487 1149.39 481.711C1149.55 481.935 1149.86 481.986 1150.08 481.824L1149.5 481.013ZM1150.08 481.824L1167.96 468.914L1167.37 468.103L1149.5 481.013L1150.08 481.824Z" fill="white"/>
<path d="M1145.32 444.674L1145.32 452.619" stroke="white"/>
<path d="M1145.32 471.488L1145.32 479.432" stroke="white"/>
<path d="M1150.29 441.695L1168.16 454.605" stroke="white"/>
<path d="M1141.35 481.419L1122.48 468.508" stroke="white"/>
<path d="M1153.27 462.55H1164.19" stroke="white"/>
<circle cx="690.117" cy="463.169" r="57.7178" stroke="white"/>
<path d="M693.778 439.323H723.216C724.321 439.323 725.216 440.219 725.216 441.323V479.699C725.216 480.803 724.321 481.699 723.216 481.699H662.339C661.235 481.699 660.339 480.803 660.339 479.699V462.511" stroke="white" stroke-linecap="round"/>
<path d="M682.5 481.627H703.5V487.627H682.5V481.627Z" stroke="white"/>
<path d="M685.035 487.721H678.49C677.53 487.721 676.752 488.499 676.752 489.459V489.459C676.752 490.419 677.53 491.197 678.49 491.197H707.786C708.746 491.197 709.524 490.419 709.524 489.459V489.459C709.524 488.499 708.746 487.721 707.786 487.721H700.521" stroke="white"/>
<path d="M724.216 473.816H661.339" stroke="white"/>
<path d="M663.951 459.604L663.913 459.249L663.565 459.169L663.488 459.152L663.488 459.152L663.484 459.151C662.29 458.889 661.161 458.422 660.126 457.764L660.125 457.763L660.059 457.722L659.757 457.53L659.478 457.755L656.73 459.973L654.698 457.942L656.914 455.198L657.139 454.919L656.947 454.616L656.906 454.55L656.905 454.549C656.247 453.518 655.78 452.391 655.516 451.201L655.515 451.198L655.497 451.121L655.418 450.773L655.063 450.736L651.558 450.362V447.482L655.063 447.108L655.418 447.071L655.497 446.723L655.515 446.646L655.515 446.646L655.516 446.642C655.78 445.449 656.249 444.32 656.911 443.287L656.912 443.285L656.954 443.219L657.146 442.916L656.92 442.637L654.7 439.889L656.734 437.855L659.486 440.078L659.765 440.303L660.068 440.111L660.134 440.07L660.134 440.069C661.167 439.414 662.292 438.951 663.482 438.689L663.482 438.689L663.486 438.688L663.563 438.67L663.911 438.591L663.949 438.236L664.327 434.711H667.204L667.582 438.249L667.62 438.604L667.968 438.684L668.045 438.701L668.046 438.701C669.226 438.968 670.345 439.433 671.368 440.084L671.369 440.085L671.435 440.127L671.737 440.319L672.016 440.093L674.777 437.864L676.809 439.896L674.576 442.659L674.35 442.938L674.542 443.241L674.584 443.307L674.584 443.307C675.236 444.335 675.701 445.453 675.963 446.636L675.964 446.639L675.981 446.716L676.061 447.064L676.415 447.102L679.973 447.482V450.36L676.415 450.74L676.061 450.778L675.981 451.126L675.964 451.203L675.963 451.206C675.701 452.385 675.24 453.499 674.591 454.521L674.591 454.522L674.549 454.588L674.357 454.891L674.582 455.169L676.829 457.95L674.795 459.984L672.018 457.744L671.739 457.519L671.437 457.711L671.371 457.752L671.37 457.753C670.344 458.407 669.226 458.874 668.045 459.138L668.043 459.139L667.966 459.156L667.618 459.236L667.58 459.591L667.204 463.131H664.327L663.951 459.604Z" stroke="white"/>
<mask id="path-151-inside-1" fill="white">
<path d="M667.555 434.321L667.961 438.13L667.978 438.286L668.132 438.321C669.357 438.596 670.516 439.079 671.577 439.755L671.711 439.841L671.834 439.742L674.806 437.342L677.333 439.869L674.931 442.844L674.833 442.967L674.918 443.101C675.595 444.166 676.078 445.327 676.35 446.554L676.385 446.708L676.541 446.725L680.365 447.132V450.71L676.536 451.119L676.38 451.136L676.345 451.29C676.073 452.513 675.595 453.67 674.923 454.73L674.839 454.864L674.938 454.987L677.355 457.982L674.826 460.511L671.836 458.098L671.713 457.999L671.579 458.085C670.516 458.763 669.357 459.246 668.13 459.523L667.976 459.558L667.959 459.714L667.555 463.521H663.976L663.572 459.725L663.555 459.567L663.401 459.534C662.163 459.262 660.99 458.779 659.917 458.096L659.783 458.01L659.66 458.109L656.7 460.498L654.173 457.971L656.56 455.016L656.659 454.893L656.573 454.759C655.89 453.69 655.405 452.519 655.131 451.285L655.095 451.132L654.94 451.114L651.166 450.71V447.132L654.942 446.73L655.098 446.712L655.133 446.559C655.407 445.32 655.895 444.15 656.58 443.077L656.665 442.943L656.566 442.82L654.178 439.862L656.707 437.333L659.673 439.726L659.796 439.825L659.93 439.742C661.001 439.063 662.169 438.58 663.403 438.31L663.557 438.277L663.574 438.119L663.976 434.321H667.555ZM667.752 434.102H663.779L663.353 438.095C662.075 438.376 660.881 438.877 659.809 439.555L656.692 437.037L653.881 439.847L656.393 442.96C655.708 444.034 655.201 445.23 654.918 446.513L650.946 446.934V450.908L654.918 451.332C655.201 452.612 655.706 453.806 656.389 454.877L653.879 457.986L656.685 460.792L659.798 458.28C660.872 458.963 662.07 459.466 663.353 459.749L663.779 463.74H667.752L668.178 459.736C669.447 459.45 670.635 458.948 671.698 458.269L674.839 460.805L677.649 457.995L675.107 454.849C675.781 453.786 676.277 452.603 676.558 451.338L680.585 450.908V446.934L676.561 446.506C676.277 445.235 675.777 444.047 675.101 442.982L677.628 439.854L674.822 437.048L671.693 439.57C670.631 438.892 669.447 438.392 668.178 438.108L667.752 434.102Z"/>
</mask>
<path d="M667.555 434.321L668.549 434.215L668.454 433.321H667.555V434.321ZM667.961 438.13L666.967 438.236L666.967 438.242L667.961 438.13ZM667.978 438.286L666.985 438.398L667.064 439.103L667.756 439.261L667.978 438.286ZM668.132 438.321L667.909 439.296L667.914 439.297L668.132 438.321ZM671.577 439.755L672.115 438.912L672.114 438.912L671.577 439.755ZM671.711 439.841L671.172 440.683L671.777 441.07L672.337 440.62L671.711 439.841ZM671.834 439.742L672.46 440.521L672.462 440.52L671.834 439.742ZM674.806 437.342L675.513 436.635L674.878 435.999L674.178 436.564L674.806 437.342ZM677.333 439.869L678.111 440.497L678.676 439.798L678.04 439.162L677.333 439.869ZM674.931 442.844L674.153 442.216L674.152 442.218L674.931 442.844ZM674.833 442.967L674.053 442.34L673.603 442.9L673.99 443.506L674.833 442.967ZM674.918 443.101L675.762 442.565L675.761 442.562L674.918 443.101ZM676.35 446.554L675.373 446.771L675.375 446.777L676.35 446.554ZM676.385 446.708L675.41 446.931L675.568 447.622L676.273 447.702L676.385 446.708ZM676.541 446.725L676.429 447.719L676.435 447.72L676.541 446.725ZM680.365 447.132H681.365V446.232L680.471 446.137L680.365 447.132ZM680.365 450.71L680.471 451.705L681.365 451.609V450.71H680.365ZM676.536 451.119L676.43 450.124L676.424 450.125L676.536 451.119ZM676.38 451.136L676.269 450.142L675.564 450.222L675.406 450.913L676.38 451.136ZM676.345 451.29L675.37 451.067L675.369 451.073L676.345 451.29ZM674.923 454.73L674.078 454.195L674.074 454.201L674.923 454.73ZM674.839 454.864L673.99 454.335L673.615 454.937L674.06 455.49L674.839 454.864ZM674.938 454.987L674.159 455.613L674.16 455.615L674.938 454.987ZM677.355 457.982L678.062 458.689L678.698 458.053L678.133 457.354L677.355 457.982ZM674.826 460.511L674.198 461.289L674.898 461.853L675.533 461.218L674.826 460.511ZM671.836 458.098L672.464 457.32L672.462 457.318L671.836 458.098ZM671.713 457.999L672.339 457.22L671.779 456.77L671.174 457.157L671.713 457.999ZM671.579 458.085L672.117 458.928L672.118 458.927L671.579 458.085ZM668.13 459.523L667.91 458.547L667.907 458.548L668.13 459.523ZM667.976 459.558L667.753 458.583L667.062 458.741L666.983 459.446L667.976 459.558ZM667.959 459.714L666.965 459.602L666.964 459.608L667.959 459.714ZM667.555 463.521V464.521H668.454L668.549 463.626L667.555 463.521ZM663.976 463.521L662.982 463.627L663.077 464.521H663.976V463.521ZM663.572 459.725L664.567 459.619L664.566 459.614L663.572 459.725ZM663.555 459.567L664.548 459.456L664.469 458.74L663.764 458.589L663.555 459.567ZM663.401 459.534L663.186 460.511L663.191 460.512L663.401 459.534ZM659.917 458.096L659.378 458.938L659.38 458.94L659.917 458.096ZM659.783 458.01L660.321 457.168L659.716 456.781L659.156 457.231L659.783 458.01ZM659.66 458.109L659.033 457.329L659.032 457.331L659.66 458.109ZM656.7 460.498L655.993 461.205L656.629 461.84L657.328 461.276L656.7 460.498ZM654.173 457.971L653.395 457.342L652.83 458.042L653.466 458.678L654.173 457.971ZM656.56 455.016L657.338 455.644L657.339 455.642L656.56 455.016ZM656.659 454.893L657.438 455.519L657.888 454.959L657.501 454.354L656.659 454.893ZM656.573 454.759L655.73 455.297L655.73 455.297L656.573 454.759ZM655.131 451.285L656.107 451.068L656.105 451.063L655.131 451.285ZM655.095 451.132L656.07 450.909L655.912 450.217L655.207 450.138L655.095 451.132ZM654.94 451.114L655.052 450.12L655.046 450.12L654.94 451.114ZM651.166 450.71H650.166V451.609L651.059 451.705L651.166 450.71ZM651.166 447.132L651.06 446.137L650.166 446.232V447.132H651.166ZM654.942 446.73L655.048 447.724L655.054 447.724L654.942 446.73ZM655.098 446.712L655.21 447.706L655.914 447.627L656.073 446.935L655.098 446.712ZM655.133 446.559L656.108 446.781L656.109 446.775L655.133 446.559ZM656.58 443.077L655.737 442.538L655.737 442.539L656.58 443.077ZM656.665 442.943L657.508 443.481L657.895 442.876L657.445 442.316L656.665 442.943ZM656.566 442.82L657.346 442.193L657.344 442.191L656.566 442.82ZM654.178 439.862L653.471 439.155L652.835 439.791L653.4 440.491L654.178 439.862ZM656.707 437.333L657.335 436.555L656.635 435.991L656 436.626L656.707 437.333ZM659.673 439.726L659.045 440.505L659.047 440.506L659.673 439.726ZM659.796 439.825L659.17 440.605L659.723 441.049L660.325 440.674L659.796 439.825ZM659.93 439.742L660.459 440.591L660.465 440.587L659.93 439.742ZM663.403 438.31L663.194 437.332L663.189 437.333L663.403 438.31ZM663.557 438.277L663.766 439.255L664.471 439.104L664.551 438.388L663.557 438.277ZM663.574 438.119L664.568 438.23L664.569 438.224L663.574 438.119ZM663.976 434.321V433.321H663.076L662.982 434.216L663.976 434.321ZM667.752 434.102L668.747 433.996L668.652 433.102H667.752V434.102ZM663.779 434.102V433.102H662.88L662.784 433.996L663.779 434.102ZM663.353 438.095L663.567 439.072L664.271 438.917L664.347 438.201L663.353 438.095ZM659.809 439.555L659.181 440.333L659.738 440.783L660.344 440.4L659.809 439.555ZM656.692 437.037L657.32 436.259L656.62 435.694L655.984 436.33L656.692 437.037ZM653.881 439.847L653.174 439.14L652.539 439.776L653.103 440.475L653.881 439.847ZM656.393 442.96L657.236 443.498L657.623 442.892L657.171 442.332L656.393 442.96ZM654.918 446.513L655.023 447.507L655.739 447.431L655.894 446.728L654.918 446.513ZM650.946 446.934L650.84 445.94L649.946 446.035V446.934H650.946ZM650.946 450.908H649.946V451.807L650.84 451.902L650.946 450.908ZM654.918 451.332L655.894 451.116L655.739 450.413L655.024 450.337L654.918 451.332ZM656.389 454.877L657.167 455.505L657.618 454.946L657.232 454.34L656.389 454.877ZM653.879 457.986L653.101 457.358L652.536 458.057L653.172 458.693L653.879 457.986ZM656.685 460.792L655.978 461.499L656.613 462.134L657.313 461.57L656.685 460.792ZM659.798 458.28L660.335 457.436L659.729 457.051L659.17 457.502L659.798 458.28ZM663.353 459.749L664.347 459.643L664.271 458.928L663.568 458.773L663.353 459.749ZM663.779 463.74L662.784 463.846L662.88 464.74H663.779V463.74ZM667.752 463.74V464.74H668.652L668.747 463.846L667.752 463.74ZM668.178 459.736L667.959 458.76L667.26 458.917L667.184 459.63L668.178 459.736ZM671.698 458.269L672.326 457.491L671.766 457.039L671.159 457.426L671.698 458.269ZM674.839 460.805L674.211 461.583L674.911 462.148L675.546 461.512L674.839 460.805ZM677.649 457.995L678.357 458.702L678.993 458.066L678.427 457.366L677.649 457.995ZM675.107 454.849L674.263 454.313L673.878 454.919L674.329 455.477L675.107 454.849ZM676.558 451.338L676.452 450.344L675.738 450.42L675.582 451.121L676.558 451.338ZM680.585 450.908L680.691 451.902L681.585 451.807V450.908H680.585ZM680.585 446.934H681.585V446.035L680.691 445.94L680.585 446.934ZM676.561 446.506L675.584 446.723L675.741 447.424L676.455 447.5L676.561 446.506ZM675.101 442.982L674.323 442.354L673.872 442.912L674.256 443.518L675.101 442.982ZM677.628 439.854L678.405 440.482L678.971 439.782L678.335 439.147L677.628 439.854ZM674.822 437.048L675.529 436.341L674.893 435.705L674.194 436.269L674.822 437.048ZM671.693 439.57L671.155 440.413L671.761 440.8L672.321 440.349L671.693 439.57ZM668.178 438.108L667.184 438.214L667.26 438.928L667.96 439.084L668.178 438.108ZM666.56 434.427L666.967 438.236L668.955 438.024L668.549 434.215L666.56 434.427ZM666.967 438.242L666.985 438.398L668.972 438.174L668.955 438.018L666.967 438.242ZM667.756 439.261L667.909 439.296L668.355 437.346L668.201 437.311L667.756 439.261ZM667.914 439.297C669.025 439.546 670.076 439.984 671.039 440.598L672.114 438.912C670.957 438.173 669.69 437.645 668.351 437.345L667.914 439.297ZM671.038 440.597L671.172 440.683L672.249 438.998L672.115 438.912L671.038 440.597ZM672.337 440.62L672.46 440.521L671.207 438.962L671.084 439.061L672.337 440.62ZM672.462 440.52L675.434 438.12L674.178 436.564L671.206 438.964L672.462 440.52ZM674.099 438.049L676.626 440.576L678.04 439.162L675.513 436.635L674.099 438.049ZM676.555 439.241L674.153 442.216L675.71 443.472L678.111 440.497L676.555 439.241ZM674.152 442.218L674.053 442.34L675.612 443.593L675.711 443.47L674.152 442.218ZM673.99 443.506L674.076 443.639L675.761 442.562L675.675 442.428L673.99 443.506ZM674.074 443.637C674.689 444.605 675.127 445.658 675.373 446.771L677.326 446.338C677.028 444.995 676.5 443.726 675.762 442.565L674.074 443.637ZM675.375 446.777L675.41 446.931L677.36 446.485L677.325 446.331L675.375 446.777ZM676.273 447.702L676.429 447.719L676.653 445.732L676.497 445.714L676.273 447.702ZM676.435 447.72L680.26 448.126L680.471 446.137L676.646 445.731L676.435 447.72ZM679.365 447.132V450.71H681.365V447.132H679.365ZM680.259 449.716L676.43 450.124L676.642 452.113L680.471 451.705L680.259 449.716ZM676.424 450.125L676.269 450.142L676.492 452.13L676.648 452.112L676.424 450.125ZM675.406 450.913L675.371 451.067L677.32 451.513L677.355 451.359L675.406 450.913ZM675.369 451.073C675.122 452.182 674.688 453.232 674.078 454.195L675.767 455.265C676.501 454.108 677.024 452.843 677.321 451.507L675.369 451.073ZM674.074 454.201L673.99 454.335L675.688 455.393L675.771 455.259L674.074 454.201ZM674.06 455.49L674.159 455.613L675.718 454.361L675.619 454.238L674.06 455.49ZM674.16 455.615L676.577 458.61L678.133 457.354L675.716 454.359L674.16 455.615ZM676.648 457.275L674.119 459.804L675.533 461.218L678.062 458.689L676.648 457.275ZM675.454 459.733L672.464 457.32L671.208 458.876L674.198 461.289L675.454 459.733ZM672.462 457.318L672.339 457.22L671.087 458.779L671.209 458.878L672.462 457.318ZM671.174 457.157L671.04 457.242L672.118 458.927L672.252 458.842L671.174 457.157ZM671.041 457.242C670.076 457.858 669.024 458.296 667.91 458.547L668.35 460.498C669.69 460.196 670.957 459.668 672.117 458.928L671.041 457.242ZM667.907 458.548L667.753 458.583L668.199 460.533L668.353 460.498L667.907 458.548ZM666.983 459.446L666.965 459.602L668.952 459.826L668.97 459.67L666.983 459.446ZM666.964 459.608L666.56 463.415L668.549 463.626L668.953 459.819L666.964 459.608ZM667.555 462.521H663.976V464.521H667.555V462.521ZM664.97 463.415L664.567 459.619L662.578 459.831L662.982 463.627L664.97 463.415ZM664.566 459.614L664.548 459.456L662.561 459.677L662.578 459.835L664.566 459.614ZM663.764 458.589L663.61 458.556L663.191 460.512L663.345 460.545L663.764 458.589ZM663.616 458.557C662.491 458.31 661.428 457.872 660.453 457.252L659.38 458.94C660.553 459.685 661.834 460.213 663.186 460.511L663.616 458.557ZM660.455 457.253L660.321 457.168L659.244 458.853L659.378 458.938L660.455 457.253ZM659.156 457.231L659.033 457.329L660.286 458.888L660.409 458.79L659.156 457.231ZM659.032 457.331L656.072 459.719L657.328 461.276L660.288 458.887L659.032 457.331ZM657.407 459.791L654.88 457.264L653.466 458.678L655.993 461.205L657.407 459.791ZM654.951 458.599L657.338 455.644L655.782 454.387L653.395 457.342L654.951 458.599ZM657.339 455.642L657.438 455.519L655.879 454.266L655.78 454.389L657.339 455.642ZM657.501 454.354L657.416 454.22L655.73 455.297L655.816 455.431L657.501 454.354ZM657.416 454.22C656.796 453.25 656.356 452.188 656.107 451.068L654.154 451.503C654.454 452.85 654.984 454.129 655.73 455.297L657.416 454.22ZM656.105 451.063L656.07 450.909L654.121 451.355L654.156 451.508L656.105 451.063ZM655.207 450.138L655.052 450.121L654.828 452.108L654.983 452.125L655.207 450.138ZM655.046 450.12L651.272 449.716L651.059 451.705L654.833 452.109L655.046 450.12ZM652.166 450.71V447.132H650.166V450.71H652.166ZM651.271 448.126L655.048 447.724L654.836 445.735L651.06 446.137L651.271 448.126ZM655.054 447.724L655.21 447.706L654.986 445.719L654.83 445.736L655.054 447.724ZM656.073 446.935L656.108 446.781L654.158 446.336L654.123 446.489L656.073 446.935ZM656.109 446.775C656.358 445.652 656.8 444.591 657.423 443.615L655.737 442.539C654.989 443.71 654.456 444.989 654.156 446.342L656.109 446.775ZM657.422 443.615L657.508 443.481L655.823 442.404L655.737 442.538L657.422 443.615ZM657.445 442.316L657.346 442.193L655.787 443.446L655.886 443.569L657.445 442.316ZM657.344 442.191L654.956 439.234L653.4 440.491L655.788 443.448L657.344 442.191ZM654.885 440.57L657.414 438.04L656 436.626L653.471 439.155L654.885 440.57ZM656.079 438.112L659.045 440.505L660.301 438.948L657.335 436.555L656.079 438.112ZM659.047 440.506L659.17 440.605L660.422 439.046L660.299 438.947L659.047 440.506ZM660.325 440.674L660.459 440.59L659.401 438.893L659.267 438.976L660.325 440.674ZM660.465 440.587C661.439 439.97 662.499 439.532 663.617 439.287L663.189 437.333C661.84 437.629 660.563 438.157 659.395 438.897L660.465 440.587ZM663.613 439.288L663.766 439.255L663.347 437.3L663.194 437.332L663.613 439.288ZM664.551 438.388L664.568 438.23L662.58 438.009L662.563 438.167L664.551 438.388ZM664.569 438.224L664.971 434.426L662.982 434.216L662.58 438.014L664.569 438.224ZM663.976 435.321H667.555V433.321H663.976V435.321ZM667.752 433.102H663.779V435.102H667.752V433.102ZM662.784 433.996L662.358 437.989L664.347 438.201L664.773 434.208L662.784 433.996ZM663.138 437.118C661.744 437.425 660.442 437.971 659.274 438.71L660.344 440.4C661.319 439.782 662.406 439.327 663.567 439.072L663.138 437.118ZM660.437 438.777L657.32 436.259L656.063 437.815L659.181 440.333L660.437 438.777ZM655.984 436.33L653.174 439.14L654.588 440.554L657.399 437.744L655.984 436.33ZM653.103 440.475L655.615 443.588L657.171 442.332L654.66 439.219L653.103 440.475ZM655.55 442.422C654.804 443.591 654.25 444.897 653.941 446.297L655.894 446.728C656.151 445.564 656.612 444.476 657.236 443.498L655.55 442.422ZM654.812 445.518L650.84 445.94L651.052 447.928L655.023 447.507L654.812 445.518ZM649.946 446.934V450.908H651.946V446.934H649.946ZM650.84 451.902L654.812 452.326L655.024 450.337L651.052 449.913L650.84 451.902ZM653.941 451.548C654.25 452.945 654.801 454.247 655.545 455.415L657.232 454.34C656.61 453.364 656.151 452.278 655.894 451.116L653.941 451.548ZM655.61 454.249L653.101 457.358L654.657 458.614L657.167 455.505L655.61 454.249ZM653.172 458.693L655.978 461.499L657.392 460.085L654.586 457.279L653.172 458.693ZM657.313 461.57L660.426 459.059L659.17 457.502L656.057 460.014L657.313 461.57ZM659.261 459.124C660.432 459.868 661.739 460.417 663.137 460.725L663.568 458.773C662.402 458.515 661.311 458.058 660.335 457.436L659.261 459.124ZM662.358 459.855L662.784 463.846L664.773 463.634L664.347 459.643L662.358 459.855ZM663.779 464.74H667.752V462.74H663.779V464.74ZM668.747 463.846L669.173 459.842L667.184 459.63L666.758 463.635L668.747 463.846ZM668.398 460.711C669.782 460.4 671.077 459.852 672.236 459.112L671.159 457.426C670.193 458.043 669.113 458.501 667.959 458.76L668.398 460.711ZM671.069 459.047L674.211 461.583L675.467 460.027L672.326 457.491L671.069 459.047ZM675.546 461.512L678.357 458.702L676.942 457.288L674.132 460.098L675.546 461.512ZM678.427 457.366L675.885 454.22L674.329 455.477L676.872 458.623L678.427 457.366ZM675.952 455.384C676.687 454.225 677.228 452.934 677.535 451.555L675.582 451.121C675.327 452.271 674.876 453.347 674.263 454.313L675.952 455.384ZM676.665 452.332L680.691 451.902L680.479 449.914L676.452 450.344L676.665 452.332ZM681.585 450.908V446.934H679.585V450.908H681.585ZM680.691 445.94L676.666 445.512L676.455 447.5L680.479 447.928L680.691 445.94ZM677.537 446.288C677.228 444.902 676.682 443.607 675.945 442.446L674.256 443.518C674.872 444.487 675.327 445.568 675.584 446.723L677.537 446.288ZM675.878 443.611L678.405 440.482L676.85 439.225L674.323 442.354L675.878 443.611ZM678.335 439.147L675.529 436.341L674.115 437.755L676.92 440.561L678.335 439.147ZM674.194 436.269L671.065 438.792L672.321 440.349L675.449 437.826L674.194 436.269ZM672.231 438.728C671.073 437.988 669.781 437.441 668.396 437.132L667.96 439.084C669.113 439.342 670.189 439.796 671.155 440.413L672.231 438.728ZM669.173 438.003L668.747 433.996L666.758 434.207L667.184 438.214L669.173 438.003Z" fill="white" mask="url(#path-151-inside-1)"/>
<path d="M672.923 448.921C672.923 452.889 669.707 456.105 665.739 456.105C661.771 456.105 658.555 452.889 658.555 448.921C658.555 444.953 661.771 441.737 665.739 441.737C669.707 441.737 672.923 444.953 672.923 448.921Z" stroke="white"/>
<mask id="path-154-inside-2" fill="white">
<path d="M665.739 441.347C669.914 441.347 673.313 444.745 673.313 448.921C673.313 453.097 669.917 456.495 665.739 456.495C661.561 456.495 658.164 453.097 658.164 448.921C658.164 444.745 661.563 441.347 665.739 441.347ZM665.739 441.127C661.433 441.127 657.945 444.616 657.945 448.921C657.945 453.226 661.433 456.715 665.739 456.715C670.044 456.715 673.533 453.226 673.533 448.921C673.533 444.616 670.044 441.127 665.739 441.127Z"/>
</mask>
<path d="M665.739 442.347C669.362 442.347 672.313 445.297 672.313 448.921H674.313C674.313 444.193 670.467 440.347 665.739 440.347V442.347ZM672.313 448.921C672.313 452.545 669.364 455.495 665.739 455.495V457.495C670.469 457.495 674.313 453.649 674.313 448.921H672.313ZM665.739 455.495C662.113 455.495 659.164 452.545 659.164 448.921H657.164C657.164 453.649 661.008 457.495 665.739 457.495V455.495ZM659.164 448.921C659.164 445.297 662.115 442.347 665.739 442.347V440.347C661.011 440.347 657.164 444.193 657.164 448.921H659.164ZM665.739 440.127C660.881 440.127 656.945 444.063 656.945 448.921H658.945C658.945 445.168 661.986 442.127 665.739 442.127V440.127ZM656.945 448.921C656.945 453.779 660.881 457.715 665.739 457.715V455.715C661.986 455.715 658.945 452.674 658.945 448.921H656.945ZM665.739 457.715C670.596 457.715 674.533 453.779 674.533 448.921H672.533C672.533 452.674 669.492 455.715 665.739 455.715V457.715ZM674.533 448.921C674.533 444.063 670.596 440.127 665.739 440.127V442.127C669.492 442.127 672.533 445.168 672.533 448.921H674.533Z" fill="white" mask="url(#path-154-inside-2)"/>
<path d="M681.131 437.161L681.226 436.817L680.931 436.616L680.885 436.585L680.885 436.585L680.881 436.582C680.179 436.112 679.57 435.526 679.07 434.841L679.069 434.84L679.037 434.796L678.825 434.507L678.483 434.614L676.232 435.323L675.527 433.707L677.575 432.542L677.887 432.365L677.819 432.013L677.808 431.959L677.808 431.957C677.645 431.127 677.629 430.284 677.76 429.451L677.76 429.451L677.76 429.448L677.769 429.393L677.822 429.04L677.505 428.875L675.416 427.787L676.062 426.142L678.333 426.765L678.677 426.859L678.879 426.564L678.91 426.518L678.91 426.518L678.912 426.515C679.383 425.814 679.97 425.206 680.657 424.708L680.66 424.706L680.704 424.674L680.993 424.462L680.885 424.12L680.175 421.869L681.793 421.163L682.963 423.218L683.14 423.529L683.492 423.461L683.546 423.451L683.546 423.451C684.377 423.289 685.218 423.276 686.05 423.408L686.05 423.408L686.054 423.408L686.109 423.417L686.462 423.47L686.627 423.153L687.723 421.053L689.367 421.698L688.738 423.992L688.644 424.336L688.939 424.537L688.985 424.568L688.986 424.569C689.678 425.039 690.281 425.621 690.775 426.299L690.775 426.3L690.808 426.344L691.02 426.633L691.362 426.526L693.624 425.813L694.329 427.429L692.264 428.603L691.953 428.78L692.021 429.132L692.031 429.186L692.031 429.186C692.191 430.013 692.208 430.85 692.078 431.678L692.077 431.681L692.069 431.736L692.016 432.089L692.332 432.254L694.454 433.36L693.809 435.004L691.501 434.371L691.157 434.277L690.956 434.572L690.925 434.618L690.923 434.62C690.456 435.313 689.879 435.914 689.202 436.408L689.202 436.408L689.157 436.441L688.868 436.653L688.976 436.995L689.695 439.274L688.077 439.98L686.896 437.908L686.719 437.596L686.367 437.664L686.313 437.675L686.311 437.675C685.486 437.837 684.648 437.855 683.822 437.727L683.819 437.726L683.764 437.718L683.411 437.665L683.246 437.982L682.148 440.092L680.504 439.447L681.131 437.161Z" stroke="white"/>
<mask id="path-157-inside-3" fill="white">
<path d="M689.875 421.443L689.159 424.05L689.131 424.157L689.223 424.22C689.957 424.716 690.594 425.332 691.116 426.05L691.182 426.14L691.288 426.107L693.859 425.297L694.868 427.609L692.523 428.944L692.427 428.999L692.448 429.109C692.618 429.983 692.636 430.87 692.498 431.747L692.482 431.857L692.58 431.908L694.987 433.161L694.065 435.512L691.444 434.793L691.337 434.764L691.275 434.856C690.781 435.589 690.168 436.226 689.453 436.75L689.364 436.816L689.397 436.922L690.213 439.513L687.899 440.522L686.557 438.166L686.502 438.069L686.392 438.091C685.519 438.263 684.633 438.281 683.755 438.147L683.645 438.13L683.594 438.228L682.347 440.625L679.996 439.702L680.709 437.104L680.738 436.996L680.646 436.935C679.903 436.437 679.257 435.817 678.728 435.092L678.662 435.001L678.556 435.034L675.996 435.84L674.987 433.529L677.317 432.203L677.414 432.148L677.392 432.038C677.219 431.159 677.202 430.265 677.34 429.384L677.356 429.274L677.258 429.222L674.883 427.984L675.806 425.633L678.39 426.343L678.497 426.372L678.56 426.28C679.059 425.537 679.681 424.894 680.408 424.365L680.499 424.299L680.465 424.193L679.659 421.635L681.972 420.625L683.304 422.962L683.359 423.059L683.468 423.038C684.347 422.869 685.239 422.853 686.119 422.993L686.228 423.011L686.281 422.912L687.524 420.521L689.875 421.443ZM690.061 421.35L687.451 420.325L686.141 422.839C685.23 422.694 684.316 422.715 683.437 422.885L682.038 420.427L679.468 421.548L680.315 424.241C679.589 424.769 678.947 425.425 678.43 426.194L675.713 425.447L674.688 428.057L677.188 429.36C677.044 430.273 677.068 431.188 677.24 432.068L674.79 433.463L675.91 436.03L678.603 435.182C679.132 435.908 679.79 436.547 680.559 437.064L679.81 439.795L682.42 440.82L683.732 438.299C684.639 438.439 685.549 438.415 686.422 438.243L687.832 440.719L690.403 439.597L689.544 436.875C690.26 436.351 690.891 435.701 691.402 434.943L694.158 435.698L695.182 433.088L692.649 431.769C692.791 430.861 692.768 429.952 692.599 429.078L695.065 427.674L693.945 425.108L691.24 425.958C690.717 425.239 690.068 424.605 689.308 424.092L690.061 421.35Z"/>
</mask>
<path d="M689.875 421.443L690.839 421.708L691.077 420.841L690.24 420.512L689.875 421.443ZM689.159 424.05L688.195 423.786L688.194 423.791L689.159 424.05ZM689.131 424.157L688.165 423.898L687.981 424.583L688.567 424.983L689.131 424.157ZM689.223 424.22L688.659 425.046L688.663 425.048L689.223 424.22ZM691.116 426.05L691.925 425.462L691.924 425.461L691.116 426.05ZM691.182 426.14L690.373 426.728L690.795 427.309L691.48 427.095L691.182 426.14ZM691.288 426.107L691.586 427.062L691.589 427.061L691.288 426.107ZM693.859 425.297L694.776 424.897L694.417 424.073L693.559 424.343L693.859 425.297ZM694.868 427.609L695.363 428.478L696.144 428.033L695.785 427.209L694.868 427.609ZM692.523 428.944L692.028 428.075L692.026 428.076L692.523 428.944ZM692.427 428.999L691.93 428.131L691.307 428.488L691.446 429.193L692.427 428.999ZM692.448 429.109L693.43 428.918L693.429 428.915L692.448 429.109ZM692.498 431.747L691.51 431.592L691.509 431.598L692.498 431.747ZM692.482 431.857L691.493 431.708L691.387 432.409L692.015 432.741L692.482 431.857ZM692.58 431.908L692.112 432.793L692.118 432.795L692.58 431.908ZM694.987 433.161L695.918 433.526L696.247 432.689L695.449 432.274L694.987 433.161ZM694.065 435.512L693.8 436.476L694.667 436.714L694.996 435.877L694.065 435.512ZM691.444 434.793L691.709 433.829L691.703 433.827L691.444 434.793ZM691.337 434.764L691.596 433.799L690.911 433.615L690.511 434.201L691.337 434.764ZM691.275 434.856L690.449 434.293L690.445 434.297L691.275 434.856ZM689.453 436.75L688.862 435.943L688.856 435.947L689.453 436.75ZM689.364 436.816L688.767 436.014L688.198 436.437L688.409 437.114L689.364 436.816ZM689.397 436.922L688.443 437.221L688.443 437.223L689.397 436.922ZM690.213 439.513L690.613 440.429L691.437 440.07L691.167 439.212L690.213 439.513ZM687.899 440.522L687.03 441.017L687.475 441.798L688.299 441.438L687.899 440.522ZM686.557 438.166L687.426 437.671L687.425 437.669L686.557 438.166ZM686.502 438.069L687.37 437.573L687.013 436.949L686.308 437.088L686.502 438.069ZM686.392 438.091L686.585 439.072L686.585 439.072L686.392 438.091ZM683.755 438.147L683.907 437.158L683.904 437.158L683.755 438.147ZM683.645 438.13L683.794 437.141L683.093 437.036L682.761 437.663L683.645 438.13ZM683.594 438.228L682.709 437.761L682.706 437.766L683.594 438.228ZM682.347 440.625L681.981 441.555L682.819 441.884L683.234 441.086L682.347 440.625ZM679.996 439.702L679.032 439.437L678.794 440.304L679.631 440.633L679.996 439.702ZM680.709 437.104L681.674 437.369L681.675 437.365L680.709 437.104ZM680.738 436.996L681.704 437.256L681.892 436.56L681.291 436.162L680.738 436.996ZM680.646 436.935L680.089 437.765L680.094 437.768L680.646 436.935ZM678.728 435.092L677.919 435.679L677.92 435.681L678.728 435.092ZM678.662 435.001L679.471 434.413L679.049 433.832L678.364 434.047L678.662 435.001ZM678.556 435.034L678.258 434.08L678.255 434.08L678.556 435.034ZM675.996 435.84L675.079 436.24L675.439 437.064L676.296 436.794L675.996 435.84ZM674.987 433.529L674.493 432.66L673.711 433.105L674.071 433.929L674.987 433.529ZM677.317 432.203L677.812 433.072L677.814 433.071L677.317 432.203ZM677.414 432.148L677.91 433.015L678.534 432.659L678.395 431.954L677.414 432.148ZM677.392 432.038L676.411 432.231L676.411 432.231L677.392 432.038ZM677.34 429.384L678.328 429.539L678.329 429.533L677.34 429.384ZM677.356 429.274L678.345 429.423L678.451 428.721L677.824 428.39L677.356 429.274ZM677.258 429.222L677.726 428.338L677.721 428.336L677.258 429.222ZM674.883 427.984L673.952 427.619L673.624 428.455L674.421 428.871L674.883 427.984ZM675.806 425.633L676.071 424.669L675.204 424.431L674.875 425.268L675.806 425.633ZM678.39 426.343L678.125 427.307L678.131 427.309L678.39 426.343ZM678.497 426.372L678.238 427.337L678.923 427.521L679.323 426.935L678.497 426.372ZM678.56 426.28L679.386 426.843L679.39 426.838L678.56 426.28ZM680.408 424.365L679.82 423.556L679.82 423.557L680.408 424.365ZM680.499 424.299L681.086 425.109L681.667 424.687L681.453 424.001L680.499 424.299ZM680.465 424.193L681.42 423.895L681.419 423.892L680.465 424.193ZM679.659 421.635L679.259 420.718L678.435 421.078L678.705 421.935L679.659 421.635ZM681.972 420.625L682.841 420.13L682.396 419.349L681.572 419.709L681.972 420.625ZM683.304 422.962L682.435 423.457L682.436 423.459L683.304 422.962ZM683.359 423.059L682.491 423.555L682.844 424.171L683.541 424.042L683.359 423.059ZM683.468 423.038L683.651 424.022L683.658 424.02L683.468 423.038ZM686.119 422.993L686.281 422.007L686.277 422.006L686.119 422.993ZM686.228 423.011L686.066 423.998L686.778 424.115L687.113 423.477L686.228 423.011ZM686.281 422.912L687.166 423.378L687.168 423.373L686.281 422.912ZM687.524 420.521L687.889 419.59L687.052 419.261L686.637 420.059L687.524 420.521ZM690.061 421.35L691.025 421.615L691.264 420.748L690.426 420.419L690.061 421.35ZM687.451 420.325L687.816 419.395L686.979 419.066L686.564 419.863L687.451 420.325ZM686.141 422.839L685.984 423.827L686.696 423.94L687.028 423.301L686.141 422.839ZM683.437 422.885L682.568 423.379L682.923 424.002L683.627 423.866L683.437 422.885ZM682.038 420.427L682.908 419.932L682.463 419.15L681.639 419.51L682.038 420.427ZM679.468 421.548L679.068 420.632L678.244 420.991L678.514 421.848L679.468 421.548ZM680.315 424.241L680.904 425.049L681.485 424.626L681.269 423.941L680.315 424.241ZM678.43 426.194L678.165 427.158L678.859 427.349L679.26 426.751L678.43 426.194ZM675.713 425.447L675.978 424.483L675.11 424.244L674.782 425.082L675.713 425.447ZM674.688 428.057L673.757 427.692L673.429 428.529L674.226 428.944L674.688 428.057ZM677.188 429.36L678.176 429.515L678.288 428.805L677.65 428.473L677.188 429.36ZM677.24 432.068L677.735 432.937L678.36 432.581L678.221 431.876L677.24 432.068ZM674.79 433.463L674.295 432.594L673.514 433.039L673.874 433.863L674.79 433.463ZM675.91 436.03L674.993 436.43L675.353 437.253L676.21 436.984L675.91 436.03ZM678.603 435.182L679.41 434.593L678.987 434.013L678.302 434.228L678.603 435.182ZM680.559 437.064L681.523 437.328L681.713 436.634L681.116 436.233L680.559 437.064ZM679.81 439.795L678.845 439.531L678.607 440.398L679.444 440.726L679.81 439.795ZM682.42 440.82L682.055 441.751L682.892 442.079L683.307 441.281L682.42 440.82ZM683.732 438.299L683.884 437.311L683.176 437.202L682.845 437.837L683.732 438.299ZM686.422 438.243L687.291 437.748L686.935 437.123L686.229 437.262L686.422 438.243ZM687.832 440.719L686.963 441.214L687.408 441.995L688.232 441.635L687.832 440.719ZM690.403 439.597L690.803 440.514L691.627 440.154L691.356 439.296L690.403 439.597ZM689.544 436.875L688.953 436.068L688.374 436.492L688.59 437.176L689.544 436.875ZM691.402 434.943L691.666 433.979L690.974 433.789L690.573 434.384L691.402 434.943ZM694.158 435.698L693.894 436.663L694.761 436.9L695.089 436.064L694.158 435.698ZM695.182 433.088L696.113 433.453L696.442 432.616L695.644 432.201L695.182 433.088ZM692.649 431.769L691.661 431.615L691.551 432.325L692.188 432.656L692.649 431.769ZM692.599 429.078L692.104 428.209L691.48 428.564L691.617 429.269L692.599 429.078ZM695.065 427.674L695.56 428.544L696.341 428.099L695.982 427.275L695.065 427.674ZM693.945 425.108L694.862 424.708L694.503 423.885L693.646 424.154L693.945 425.108ZM691.24 425.958L690.431 426.546L690.854 427.128L691.54 426.912L691.24 425.958ZM689.308 424.092L688.344 423.827L688.153 424.519L688.749 424.921L689.308 424.092ZM688.91 421.179L688.195 423.786L690.124 424.315L690.839 421.708L688.91 421.179ZM688.194 423.791L688.165 423.898L690.097 424.416L690.125 424.309L688.194 423.791ZM688.567 424.983L688.659 425.046L689.786 423.394L689.694 423.331L688.567 424.983ZM688.663 425.048C689.3 425.479 689.853 426.014 690.307 426.638L691.924 425.461C691.334 424.65 690.613 423.953 689.783 423.391L688.663 425.048ZM690.307 426.637L690.373 426.728L691.991 425.553L691.925 425.462L690.307 426.637ZM691.48 427.095L691.586 427.062L690.99 425.153L690.884 425.186L691.48 427.095ZM691.589 427.061L694.16 426.251L693.559 424.343L690.988 425.153L691.589 427.061ZM692.943 425.697L693.951 428.009L695.785 427.209L694.776 424.897L692.943 425.697ZM694.373 426.74L692.028 428.075L693.018 429.813L695.363 428.478L694.373 426.74ZM692.026 428.076L691.93 428.131L692.923 429.867L693.02 429.812L692.026 428.076ZM691.446 429.193L691.467 429.303L693.429 428.915L693.408 428.805L691.446 429.193ZM691.467 429.3C691.615 430.061 691.63 430.832 691.51 431.592L693.486 431.902C693.642 430.909 693.622 429.905 693.43 428.918L691.467 429.3ZM691.509 431.598L691.493 431.708L693.471 432.005L693.487 431.895L691.509 431.598ZM692.015 432.741L692.112 432.792L693.047 431.024L692.949 430.973L692.015 432.741ZM692.118 432.795L694.526 434.048L695.449 432.274L693.041 431.021L692.118 432.795ZM694.056 432.796L693.134 435.147L694.996 435.877L695.918 433.526L694.056 432.796ZM694.329 434.548L691.709 433.829L691.18 435.757L693.8 436.476L694.329 434.548ZM691.703 433.827L691.596 433.799L691.078 435.73L691.185 435.759L691.703 433.827ZM690.511 434.201L690.449 434.293L692.101 435.42L692.163 435.328L690.511 434.201ZM690.445 434.297C690.016 434.935 689.484 435.487 688.862 435.943L690.044 437.556C690.852 436.965 691.545 436.244 692.104 435.415L690.445 434.297ZM688.856 435.947L688.767 436.014L689.961 437.618L690.05 437.552L688.856 435.947ZM688.409 437.114L688.443 437.221L690.351 436.624L690.318 436.518L688.409 437.114ZM688.443 437.223L689.259 439.813L691.167 439.212L690.351 436.622L688.443 437.223ZM689.813 438.596L687.499 439.605L688.299 441.438L690.613 440.429L689.813 438.596ZM688.768 440.027L687.426 437.671L685.688 438.661L687.03 441.017L688.768 440.027ZM687.425 437.669L687.37 437.573L685.634 438.566L685.689 438.663L687.425 437.669ZM686.308 437.088L686.198 437.11L686.585 439.072L686.695 439.051L686.308 437.088ZM686.199 437.11C685.439 437.259 684.67 437.275 683.907 437.158L683.604 439.135C684.596 439.287 685.598 439.266 686.585 439.072L686.199 437.11ZM683.904 437.158L683.794 437.141L683.497 439.119L683.607 439.135L683.904 437.158ZM682.761 437.663L682.709 437.761L684.478 438.695L684.529 438.597L682.761 437.663ZM682.706 437.766L681.46 440.163L683.234 441.086L684.481 438.689L682.706 437.766ZM682.712 439.694L680.361 438.771L679.631 440.633L681.981 441.555L682.712 439.694ZM680.96 439.967L681.674 437.369L679.745 436.839L679.032 439.437L680.96 439.967ZM681.675 437.365L681.704 437.256L679.773 436.736L679.744 436.844L681.675 437.365ZM681.291 436.162L681.198 436.101L680.094 437.768L680.186 437.83L681.291 436.162ZM681.203 436.104C680.556 435.671 679.996 435.133 679.536 434.502L677.92 435.681C678.518 436.501 679.249 437.202 680.089 437.765L681.203 436.104ZM679.537 434.504L679.471 434.413L677.853 435.588L677.919 435.679L679.537 434.504ZM678.364 434.047L678.258 434.08L678.854 435.989L678.96 435.955L678.364 434.047ZM678.255 434.08L675.696 434.886L676.296 436.794L678.856 435.988L678.255 434.08ZM676.912 435.44L675.904 433.129L674.071 433.929L675.079 436.24L676.912 435.44ZM675.482 434.398L677.812 433.072L676.822 431.334L674.493 432.66L675.482 434.398ZM677.814 433.071L677.91 433.015L676.917 431.28L676.82 431.335L677.814 433.071ZM678.395 431.954L678.373 431.844L676.411 432.231L676.432 432.341L678.395 431.954ZM678.373 431.844C678.223 431.081 678.208 430.305 678.328 429.539L676.352 429.23C676.196 430.226 676.215 431.238 676.411 432.231L678.373 431.844ZM678.329 429.533L678.345 429.423L676.367 429.125L676.351 429.235L678.329 429.533ZM677.824 428.39L677.726 428.338L676.791 430.107L676.889 430.158L677.824 428.39ZM677.721 428.336L675.346 427.097L674.421 428.871L676.796 430.109L677.721 428.336ZM675.814 428.349L676.737 425.999L674.875 425.268L673.952 427.619L675.814 428.349ZM675.541 426.598L678.125 427.307L678.655 425.379L676.071 424.669L675.541 426.598ZM678.131 427.309L678.238 427.337L678.756 425.406L678.649 425.377L678.131 427.309ZM679.323 426.935L679.386 426.843L677.734 425.716L677.671 425.808L679.323 426.935ZM679.39 426.838C679.823 426.193 680.363 425.635 680.996 425.174L679.82 423.557C678.999 424.153 678.295 424.881 677.73 425.722L679.39 426.838ZM680.995 425.175L681.086 425.109L679.911 423.49L679.82 423.556L680.995 425.175ZM681.453 424.001L681.42 423.895L679.511 424.491L679.544 424.598L681.453 424.001ZM681.419 423.892L680.612 421.334L678.705 421.935L679.512 424.494L681.419 423.892ZM680.059 422.551L682.372 421.542L681.572 419.709L679.259 420.718L680.059 422.551ZM681.103 421.12L682.435 423.457L684.173 422.467L682.841 420.13L681.103 421.12ZM682.436 423.459L682.491 423.555L684.227 422.562L684.172 422.465L682.436 423.459ZM683.541 424.042L683.651 424.022L683.286 422.055L683.177 422.075L683.541 424.042ZM683.658 424.02C684.424 423.873 685.198 423.859 685.961 423.981L686.277 422.006C685.28 421.847 684.271 421.865 683.279 422.056L683.658 424.02ZM685.957 423.98L686.066 423.998L686.391 422.025L686.281 422.007L685.957 423.98ZM687.113 423.477L687.166 423.378L685.396 422.446L685.344 422.545L687.113 423.477ZM687.168 423.373L688.411 420.982L686.637 420.059L685.393 422.451L687.168 423.373ZM687.159 421.452L689.509 422.374L690.24 420.512L687.889 419.59L687.159 421.452ZM690.426 420.419L687.816 419.395L687.085 421.256L689.696 422.281L690.426 420.419ZM686.564 419.863L685.254 422.377L687.028 423.301L688.338 420.787L686.564 419.863ZM686.298 421.851C685.269 421.688 684.238 421.712 683.248 421.903L683.627 423.866C684.394 423.719 685.19 423.7 685.984 423.827L686.298 421.851ZM684.306 422.39L682.908 419.932L681.169 420.921L682.568 423.379L684.306 422.39ZM681.639 419.51L679.068 420.632L679.868 422.465L682.438 421.343L681.639 419.51ZM678.514 421.848L679.361 424.541L681.269 423.941L680.422 421.248L678.514 421.848ZM679.727 423.432C678.909 424.027 678.184 424.767 677.6 425.636L679.26 426.751C679.71 426.083 680.268 425.511 680.904 425.049L679.727 423.432ZM678.695 425.23L675.978 424.483L675.448 426.411L678.165 427.158L678.695 425.23ZM674.782 425.082L673.757 427.692L675.619 428.423L676.644 425.812L674.782 425.082ZM674.226 428.944L676.726 430.246L677.65 428.473L675.15 427.17L674.226 428.944ZM676.2 429.204C676.037 430.236 676.065 431.269 676.259 432.26L678.221 431.876C678.071 431.107 678.05 430.31 678.176 429.515L676.2 429.204ZM676.745 431.199L674.295 432.594L675.285 434.332L677.735 432.937L676.745 431.199ZM673.874 433.863L674.993 436.43L676.827 435.63L675.707 433.063L673.874 433.863ZM676.21 436.984L678.903 436.136L678.302 434.228L675.61 435.076L676.21 436.984ZM677.795 435.772C678.392 436.59 679.134 437.311 680.001 437.894L681.116 436.233C680.445 435.783 679.872 435.225 679.41 434.593L677.795 435.772ZM679.594 436.799L678.845 439.531L680.774 440.06L681.523 437.328L679.594 436.799ZM679.444 440.726L682.055 441.751L682.785 439.889L680.175 438.864L679.444 440.726ZM683.307 441.281L684.619 438.761L682.845 437.837L681.533 440.358L683.307 441.281ZM683.58 439.287C684.604 439.445 685.63 439.418 686.615 439.224L686.229 437.262C685.468 437.411 684.675 437.432 683.884 437.311L683.58 439.287ZM685.553 438.738L686.963 441.214L688.701 440.224L687.291 437.748L685.553 438.738ZM688.232 441.635L690.803 440.514L690.003 438.68L687.432 439.802L688.232 441.635ZM691.356 439.296L690.497 436.574L688.59 437.176L689.449 439.898L691.356 439.296ZM690.134 437.682C690.943 437.09 691.655 436.357 692.232 435.502L690.573 434.384C690.128 435.045 689.578 435.611 688.953 436.068L690.134 437.682ZM691.138 435.907L693.894 436.663L694.422 434.734L691.666 433.979L691.138 435.907ZM695.089 436.064L696.113 433.453L694.252 432.723L693.227 435.333L695.089 436.064ZM695.644 432.201L693.111 430.882L692.188 432.656L694.721 433.975L695.644 432.201ZM693.637 431.923C693.797 430.898 693.772 429.873 693.58 428.887L691.617 429.269C691.765 430.031 691.785 430.824 691.661 431.615L693.637 431.923ZM693.093 429.947L695.56 428.544L694.571 426.805L692.104 428.209L693.093 429.947ZM695.982 427.275L694.862 424.708L693.029 425.508L694.149 428.074L695.982 427.275ZM693.646 424.154L690.94 425.005L691.54 426.912L694.245 426.062L693.646 424.154ZM692.049 425.37C691.459 424.559 690.726 423.843 689.867 423.263L688.749 424.921C689.411 425.367 689.975 425.919 690.431 426.546L692.049 425.37ZM690.272 424.357L691.025 421.615L689.097 421.085L688.344 423.827L690.272 424.357Z" fill="white" mask="url(#path-157-inside-3)"/>
<path d="M689.5 432.364C688.507 434.895 685.65 436.141 683.12 435.148C680.589 434.155 679.342 431.298 680.336 428.767C681.329 426.237 684.186 424.99 686.716 425.983C689.247 426.977 690.493 429.833 689.5 432.364Z" stroke="white"/>
<mask id="path-160-inside-4" fill="white">
<path d="M686.87 425.59C689.614 426.667 690.97 429.775 689.893 432.518C688.817 435.261 685.71 436.618 682.965 435.541C680.22 434.464 678.866 431.356 679.942 428.613C681.019 425.87 684.127 424.514 686.87 425.59ZM686.927 425.446C684.099 424.336 680.908 425.728 679.798 428.556C678.688 431.385 680.08 434.576 682.908 435.686C685.737 436.795 688.928 435.403 690.038 432.575C691.148 429.747 689.755 426.556 686.927 425.446Z"/>
</mask>
<path d="M686.505 426.521C688.734 427.396 689.837 429.924 688.962 432.153L690.824 432.884C692.103 429.627 690.493 425.938 687.236 424.659L686.505 426.521ZM688.962 432.153C688.088 434.382 685.561 435.486 683.33 434.61L682.6 436.472C685.858 437.751 689.546 436.141 690.824 432.884L688.962 432.153ZM683.33 434.61C681.1 433.735 679.998 431.207 680.873 428.978L679.011 428.248C677.733 431.505 679.341 435.193 682.6 436.472L683.33 434.61ZM680.873 428.978C681.748 426.749 684.276 425.646 686.505 426.521L687.236 424.659C683.979 423.381 680.29 424.99 679.011 428.248L680.873 428.978ZM687.292 424.515C683.95 423.203 680.179 424.849 678.867 428.191L680.729 428.922C681.637 426.608 684.248 425.469 686.562 426.377L687.292 424.515ZM678.867 428.191C677.555 431.533 679.201 435.305 682.543 436.616L683.274 434.755C680.96 433.846 679.821 431.236 680.729 428.922L678.867 428.191ZM682.543 436.616C685.885 437.928 689.657 436.283 690.968 432.94L689.107 432.21C688.199 434.524 685.588 435.663 683.274 434.755L682.543 436.616ZM690.968 432.94C692.28 429.598 690.635 425.827 687.292 424.515L686.562 426.377C688.876 427.285 690.015 429.896 689.107 432.21L690.968 432.94Z" fill="white" mask="url(#path-160-inside-4)"/>
</svg>
