<svg width="117" height="117" viewBox="0 0 117 117" fill="none" xmlns="http://www.w3.org/2000/svg">
<circle cx="58.2178" cy="58.2178" r="57.7178" stroke="white"/>
<path d="M61.8792 34.3723H91.3177C92.4222 34.3723 93.3177 35.2677 93.3177 36.3723V74.7479C93.3177 75.8524 92.4222 76.7479 91.3177 76.7479H30.4407C29.3361 76.7479 28.4407 75.8524 28.4407 74.7479V57.5601" stroke="white" stroke-linecap="round"/>
<path d="M50.6013 76.6765H71.6013V82.6765H50.6013V76.6765Z" stroke="white"/>
<path d="M53.1367 82.7702H46.5917C45.6318 82.7702 44.8538 83.5483 44.8538 84.5081V84.5081C44.8538 85.4679 45.6318 86.246 46.5917 86.246H75.8876C76.8475 86.246 77.6255 85.4679 77.6255 84.5081V84.5081C77.6255 83.5483 76.8475 82.7702 75.8876 82.7702H68.6223" stroke="white"/>
<path d="M92.3177 68.8653H29.4407" stroke="white"/>
<path d="M32.0522 54.6528L32.0144 54.2979L31.6664 54.2184L31.5896 54.2008L31.5896 54.2008L31.5853 54.1998C30.3915 53.938 29.2627 53.4711 28.2271 52.8129L28.2264 52.8124L28.1605 52.7707L27.8578 52.579L27.5789 52.8041L24.8309 55.0223L22.7992 52.9906L25.0151 50.247L25.2403 49.9681L25.0485 49.6653L25.0068 49.5995L25.0059 49.598C24.3479 48.5671 23.8809 47.4403 23.617 46.2503L23.6163 46.2472L23.5987 46.1704L23.5192 45.8225L23.1643 45.7846L19.6594 45.4108V42.5314L23.1643 42.1575L23.5192 42.1197L23.5987 41.7717L23.6163 41.6949L23.6163 41.6949L23.617 41.6914C23.8809 40.4976 24.3499 39.3691 25.012 38.3362L25.0134 38.3339L25.0551 38.268L25.247 37.9651L25.0216 37.6863L22.8014 34.9383L24.8352 32.9045L27.5876 35.127L27.8665 35.3522L28.1693 35.1604L28.2352 35.1187L28.2356 35.1184C29.2686 34.4626 30.3933 33.9997 31.5834 33.7378L31.5835 33.7378L31.5874 33.7369L31.6642 33.7194L32.0119 33.6399L32.05 33.2853L32.428 29.7603H35.3055L35.6837 33.2983L35.7216 33.653L36.0695 33.7325L36.1463 33.7501L36.1477 33.7504C37.3275 34.0166 38.4462 34.4816 39.4688 35.1333L39.47 35.1341L39.5359 35.1758L39.8386 35.3676L40.1175 35.1424L42.8787 32.9132L44.9103 34.9448L42.677 37.7082L42.4516 37.987L42.6434 38.29L42.6851 38.3558L42.6854 38.3562C43.3375 39.3837 43.8023 40.5021 44.064 41.6849L44.0647 41.6883L44.0823 41.7652L44.1618 42.113L44.5166 42.1509L48.0743 42.5313V45.4087L44.5166 45.789L44.1618 45.8269L44.0823 46.1748L44.0647 46.2516L44.0641 46.2546C43.8022 47.434 43.3416 48.5479 42.6921 49.5703L42.6917 49.5709L42.65 49.6368L42.4582 49.9396L42.6835 50.2185L44.9301 52.9994L42.8961 55.0334L40.1196 52.793L39.8407 52.568L39.538 52.7597L39.4722 52.8014L39.4708 52.8023C38.4456 53.4564 37.3273 53.9233 36.1465 54.1871L36.1441 54.1876L36.0673 54.2052L35.7192 54.2847L35.6815 54.6398L35.3053 58.1796H32.4283L32.0522 54.6528Z" stroke="white"/>
<mask id="path-7-inside-1" fill="white">
<path d="M35.6561 29.3701L36.0622 33.1793L36.0798 33.3351L36.2335 33.3703C37.4585 33.6447 38.6177 34.1277 39.6781 34.8039L39.8121 34.8895L39.935 34.7907L42.9077 32.3911L45.4347 34.9181L43.0328 37.8929L42.934 38.0159L43.0196 38.1498C43.6958 39.2146 44.1789 40.376 44.4511 41.6033L44.4862 41.7569L44.6421 41.7745L48.4666 42.1807V45.7593L44.6377 46.1676L44.4818 46.1852L44.4467 46.3389C44.1745 47.5617 43.6958 48.7188 43.024 49.7792L42.9406 49.9131L43.0394 50.036L45.4566 53.0306L42.9274 55.5598L39.9372 53.147L39.8143 53.0482L39.6803 53.1338C38.6177 53.8122 37.4585 54.2952 36.2313 54.5719L36.0776 54.607L36.06 54.7629L35.6561 58.5698H32.0774L31.6735 54.7738L31.6559 54.6158L31.5022 54.5828C30.264 54.3106 29.0916 53.8276 28.018 53.1448L27.8841 53.0592L27.7612 53.158L24.8017 55.5466L22.2747 53.0197L24.6612 50.0646L24.76 49.9416L24.6743 49.8077C23.9916 48.7385 23.5064 47.5683 23.2319 46.3345L23.1968 46.1808L23.0409 46.1632L19.2669 45.7593V42.1807L23.0431 41.7789L23.199 41.7613L23.2341 41.6076C23.5085 40.3694 23.9959 39.1992 24.6809 38.1256L24.7665 37.9917L24.6678 37.8688L22.2791 34.9115L24.8083 32.3823L27.7743 34.7754L27.8973 34.8742L28.0312 34.7907C29.1026 34.1123 30.2706 33.6293 31.5044 33.3593L31.6581 33.3263L31.6757 33.1683L32.0774 29.3701H35.6561ZM35.8536 29.1506H31.8799L31.4539 33.1441C30.1762 33.4251 28.9818 33.9257 27.9105 34.6041L24.7929 32.0859L21.9827 34.8961L24.4943 38.0093C23.8093 39.0829 23.3022 40.2794 23.019 41.5615L19.0474 41.9831V45.9569L23.019 46.3806C23.3022 47.6605 23.8071 48.8549 24.4899 49.9263L21.9805 53.035L24.7863 55.8408L27.8995 53.3292C28.9731 54.012 30.1718 54.5148 31.4539 54.798L31.8799 58.7894H35.8536L36.2796 54.7848C37.5485 54.4994 38.7363 53.9967 39.7989 53.3183L42.9406 55.854L45.7508 53.0438L43.2085 49.8977C43.8825 48.8351 44.3786 47.6518 44.6597 46.3872L48.6861 45.9569V41.9831L44.6619 41.555C44.3786 40.2838 43.8781 39.096 43.2019 38.0312L45.7288 34.9027L42.923 32.0969L39.7945 34.6195C38.7319 33.9411 37.5485 33.4405 36.2796 33.1573L35.8536 29.1506Z"/>
</mask>
<path d="M35.6561 29.3701L36.6504 29.2641L36.5551 28.3701H35.6561V29.3701ZM36.0622 33.1793L35.0678 33.2853L35.0685 33.2912L36.0622 33.1793ZM36.0798 33.3351L35.0861 33.4471L35.1655 34.1519L35.857 34.31L36.0798 33.3351ZM36.2335 33.3703L36.0106 34.3451L36.0149 34.3461L36.2335 33.3703ZM39.6781 34.8039L40.2168 33.9614L40.2158 33.9607L39.6781 34.8039ZM39.8121 34.8895L39.2734 35.732L39.8786 36.1189L40.4385 35.669L39.8121 34.8895ZM39.935 34.7907L40.5614 35.5702L40.5631 35.5688L39.935 34.7907ZM42.9077 32.3911L43.6148 31.684L42.9791 31.0483L42.2796 31.613L42.9077 32.3911ZM45.4347 34.9181L46.2127 35.5463L46.7775 34.8467L46.1418 34.211L45.4347 34.9181ZM43.0328 37.8929L42.2548 37.2647L42.2533 37.2665L43.0328 37.8929ZM42.934 38.0159L42.1545 37.3895L41.7046 37.9494L42.0915 38.5545L42.934 38.0159ZM43.0196 38.1498L43.8638 37.6137L43.8622 37.6111L43.0196 38.1498ZM44.4511 41.6033L43.4748 41.8198L43.4762 41.8261L44.4511 41.6033ZM44.4862 41.7569L43.5114 41.9798L43.6694 42.6712L44.3742 42.7506L44.4862 41.7569ZM44.6421 41.7745L44.5301 42.7682L44.5365 42.7689L44.6421 41.7745ZM48.4666 42.1807H49.4666V41.2812L48.5722 41.1862L48.4666 42.1807ZM48.4666 45.7593L48.5726 46.7536L49.4666 46.6583V45.7593H48.4666ZM44.6377 46.1676L44.5317 45.1732L44.5257 45.1739L44.6377 46.1676ZM44.4818 46.1852L44.3699 45.1915L43.665 45.2709L43.507 45.9624L44.4818 46.1852ZM44.4467 46.3389L43.4718 46.116L43.4706 46.1216L44.4467 46.3389ZM43.024 49.7792L42.1793 49.244L42.1753 49.2504L43.024 49.7792ZM42.9406 49.9131L42.0918 49.3843L41.7167 49.9865L42.1611 50.5395L42.9406 49.9131ZM43.0394 50.036L42.2599 50.6624L42.2613 50.6641L43.0394 50.036ZM45.4566 53.0306L46.1637 53.7378L46.7994 53.1021L46.2347 52.4025L45.4566 53.0306ZM42.9274 55.5598L42.2995 56.3381L42.999 56.9025L43.6345 56.2669L42.9274 55.5598ZM39.9372 53.147L40.5652 52.3688L40.5636 52.3675L39.9372 53.147ZM39.8143 53.0482L40.4407 52.2687L39.8808 51.8188L39.2756 52.2057L39.8143 53.0482ZM39.6803 53.1338L40.2185 53.9767L40.219 53.9764L39.6803 53.1338ZM36.2313 54.5719L36.0114 53.5963L36.0084 53.597L36.2313 54.5719ZM36.0776 54.607L35.8548 53.6321L35.1633 53.7902L35.0839 54.495L36.0776 54.607ZM36.06 54.7629L35.0663 54.6509L35.0656 54.6573L36.06 54.7629ZM35.6561 58.5698V59.5698H36.5556L36.6505 58.6753L35.6561 58.5698ZM32.0774 58.5698L31.0831 58.6756L31.1782 59.5698H32.0774V58.5698ZM31.6735 54.7738L32.6679 54.668L32.6674 54.6634L31.6735 54.7738ZM31.6559 54.6158L32.6498 54.5053L32.5702 53.789L31.8654 53.638L31.6559 54.6158ZM31.5022 54.5828L31.2875 55.5595L31.2927 55.5606L31.5022 54.5828ZM28.018 53.1448L27.4794 53.9873L27.4814 53.9886L28.018 53.1448ZM27.8841 53.0592L28.4228 52.2167L27.8176 51.8298L27.2577 52.2797L27.8841 53.0592ZM27.7612 53.158L27.1348 52.3785L27.1331 52.3798L27.7612 53.158ZM24.8017 55.5466L24.0946 56.2538L24.7302 56.8894L25.4297 56.3248L24.8017 55.5466ZM22.2747 53.0197L21.4967 52.3914L20.9318 53.0909L21.5676 53.7268L22.2747 53.0197ZM24.6612 50.0646L25.4392 50.6929L25.4407 50.691L24.6612 50.0646ZM24.76 49.9416L25.5395 50.568L25.9894 50.0081L25.6025 49.403L24.76 49.9416ZM24.6743 49.8077L23.8315 50.3459L23.8318 50.3464L24.6743 49.8077ZM23.2319 46.3345L24.2081 46.1174L24.2068 46.1117L23.2319 46.3345ZM23.1968 46.1808L24.1717 45.958L24.0136 45.2665L23.3088 45.1871L23.1968 46.1808ZM23.0409 46.1632L23.1529 45.1695L23.1473 45.1689L23.0409 46.1632ZM19.2669 45.7593H18.2669V46.6579L19.1605 46.7536L19.2669 45.7593ZM19.2669 42.1807L19.1611 41.1863L18.2669 41.2814V42.1807H19.2669ZM23.0431 41.7789L23.1489 42.7733L23.1551 42.7726L23.0431 41.7789ZM23.199 41.7613L23.311 42.755L24.0158 42.6756L24.1738 41.9841L23.199 41.7613ZM23.2341 41.6076L24.209 41.8305L24.2104 41.824L23.2341 41.6076ZM24.6809 38.1256L23.8384 37.587L23.8379 37.5878L24.6809 38.1256ZM24.7665 37.9917L25.6091 38.5304L25.996 37.9252L25.5461 37.3653L24.7665 37.9917ZM24.6678 37.8688L25.4473 37.2424L25.4457 37.2404L24.6678 37.8688ZM22.2791 34.9115L21.572 34.2044L20.9361 34.8403L21.5012 35.5398L22.2791 34.9115ZM24.8083 32.3823L25.4362 31.604L24.7367 31.0397L24.1012 31.6752L24.8083 32.3823ZM27.7743 34.7754L27.1464 35.5536L27.1479 35.5549L27.7743 34.7754ZM27.8973 34.8742L27.2709 35.6537L27.8239 36.098L28.426 35.7229L27.8973 34.8742ZM28.0312 34.7907L28.56 35.6395L28.5662 35.6356L28.0312 34.7907ZM31.5044 33.3593L31.2949 32.3815L31.2906 32.3824L31.5044 33.3593ZM31.6581 33.3263L31.8676 34.3042L32.5724 34.1531L32.652 33.4368L31.6581 33.3263ZM31.6757 33.1683L32.6696 33.2787L32.6701 33.2735L31.6757 33.1683ZM32.0774 29.3701V28.3701H31.1776L31.083 29.2649L32.0774 29.3701ZM35.8536 29.1506L36.848 29.0449L36.753 28.1506H35.8536V29.1506ZM31.8799 29.1506V28.1506H30.9808L30.8855 29.0445L31.8799 29.1506ZM31.4539 33.1441L31.6687 34.1208L32.3719 33.9661L32.4483 33.2502L31.4539 33.1441ZM27.9105 34.6041L27.2821 35.382L27.8398 35.8325L28.4454 35.449L27.9105 34.6041ZM24.7929 32.0859L25.4213 31.308L24.7217 30.7429L24.0858 31.3788L24.7929 32.0859ZM21.9827 34.8961L21.2756 34.189L20.6401 34.8245L21.2044 35.524L21.9827 34.8961ZM24.4943 38.0093L25.3373 38.5472L25.7241 37.941L25.2726 37.3814L24.4943 38.0093ZM23.019 41.5615L23.1245 42.556L23.8402 42.48L23.9954 41.7772L23.019 41.5615ZM19.0474 41.9831L18.9418 40.9887L18.0474 41.0836V41.9831H19.0474ZM19.0474 45.9569H18.0474V46.8558L18.9413 46.9512L19.0474 45.9569ZM23.019 46.3806L23.9953 46.1645L23.84 45.4625L23.125 45.3862L23.019 46.3806ZM24.4899 49.9263L25.268 50.5544L25.7196 49.995L25.3332 49.3888L24.4899 49.9263ZM21.9805 53.035L21.2024 52.4069L20.6377 53.1065L21.2734 53.7421L21.9805 53.035ZM24.7863 55.8408L24.0792 56.5479L24.7147 57.1835L25.4142 56.6191L24.7863 55.8408ZM27.8995 53.3292L28.4361 52.4854L27.8303 52.1001L27.2716 52.5509L27.8995 53.3292ZM31.4539 54.798L32.4483 54.6919L32.372 53.9767L31.6696 53.8215L31.4539 54.798ZM31.8799 58.7894L30.8855 58.8955L30.9809 59.7894H31.8799V58.7894ZM35.8536 58.7894V59.7894H36.7529L36.848 58.8951L35.8536 58.7894ZM36.2796 54.7848L36.0601 53.8092L35.361 53.9664L35.2852 54.6791L36.2796 54.7848ZM39.7989 53.3183L40.427 52.5401L39.8672 52.0883L39.2608 52.4754L39.7989 53.3183ZM42.9406 55.854L42.3125 56.6322L43.0121 57.1968L43.6477 56.5611L42.9406 55.854ZM45.7508 53.0438L46.4579 53.7509L47.0939 53.1149L46.5286 52.4153L45.7508 53.0438ZM43.2085 49.8977L42.364 49.3621L41.9796 49.9681L42.4307 50.5262L43.2085 49.8977ZM44.6597 46.3872L44.5534 45.3928L43.8393 45.4692L43.6835 46.1702L44.6597 46.3872ZM48.6861 45.9569L48.7924 46.9512L49.6861 46.8557V45.9569H48.6861ZM48.6861 41.9831H49.6861V41.0838L48.7919 40.9887L48.6861 41.9831ZM44.6619 41.555L43.6858 41.7724L43.842 42.4734L44.5561 42.5493L44.6619 41.555ZM43.2019 38.0312L42.4239 37.4029L41.9729 37.9613L42.3577 38.5673L43.2019 38.0312ZM45.7288 34.9027L46.5068 35.531L47.0718 34.8315L46.436 34.1956L45.7288 34.9027ZM42.923 32.0969L43.6302 31.3898L42.9948 30.7544L42.2954 31.3184L42.923 32.0969ZM39.7945 34.6195L39.2564 35.4623L39.8624 35.8493L40.4222 35.3979L39.7945 34.6195ZM36.2796 33.1573L35.2852 33.263L35.3611 33.9769L36.0617 34.1333L36.2796 33.1573ZM34.6617 29.4761L35.0679 33.2853L37.0566 33.0732L36.6504 29.2641L34.6617 29.4761ZM35.0685 33.2912L35.0861 33.4471L37.0735 33.2232L37.0559 33.0673L35.0685 33.2912ZM35.857 34.31L36.0106 34.3451L36.4563 32.3954L36.3026 32.3603L35.857 34.31ZM36.0149 34.3461C37.1261 34.595 38.1774 35.0329 39.1405 35.6471L40.2158 33.9607C39.0581 33.2225 37.791 32.6944 36.4521 32.3944L36.0149 34.3461ZM39.1395 35.6464L39.2734 35.732L40.3507 34.047L40.2168 33.9614L39.1395 35.6464ZM40.4385 35.669L40.5614 35.5702L39.3086 34.0112L39.1857 34.11L40.4385 35.669ZM40.5631 35.5688L43.5358 33.1692L42.2796 31.613L39.3069 34.0126L40.5631 35.5688ZM42.2006 33.0982L44.7276 35.6252L46.1418 34.211L43.6148 31.684L42.2006 33.0982ZM44.6566 34.2899L42.2548 37.2647L43.8109 38.5211L46.2127 35.5463L44.6566 34.2899ZM42.2533 37.2665L42.1545 37.3895L43.7135 38.6422L43.8123 38.5193L42.2533 37.2665ZM42.0915 38.5545L42.1771 38.6884L43.8622 37.6111L43.7765 37.4772L42.0915 38.5545ZM42.1755 38.6859C42.7903 39.654 43.2281 40.7075 43.4748 41.8198L45.4274 41.3867C45.1296 40.0445 44.6014 38.7752 43.8638 37.6137L42.1755 38.6859ZM43.4762 41.8261L43.5114 41.9798L45.4611 41.5341L45.4259 41.3804L43.4762 41.8261ZM44.3742 42.7506L44.5301 42.7682L44.7541 40.7808L44.5982 40.7632L44.3742 42.7506ZM44.5365 42.7689L48.361 43.1751L48.5722 41.1862L44.7477 40.7801L44.5365 42.7689ZM47.4666 42.1807V45.7593H49.4666V42.1807H47.4666ZM48.3605 44.7649L44.5317 45.1733L44.7438 47.162L48.5726 46.7536L48.3605 44.7649ZM44.5257 45.1739L44.3699 45.1915L44.5938 47.1789L44.7497 47.1613L44.5257 45.1739ZM43.507 45.9624L43.4718 46.1161L45.4216 46.5617L45.4567 46.408L43.507 45.9624ZM43.4706 46.1216C43.2235 47.2313 42.7895 48.2809 42.1793 49.244L43.8688 50.3143C44.6022 49.1567 45.1254 47.8921 45.4228 46.5562L43.4706 46.1216ZM42.1753 49.2504L42.0918 49.3843L43.7894 50.4418L43.8728 50.3079L42.1753 49.2504ZM42.1611 50.5395L42.2599 50.6624L43.8189 49.4096L43.7201 49.2867L42.1611 50.5395ZM42.2613 50.6641L44.6785 53.6587L46.2347 52.4025L43.8175 49.4079L42.2613 50.6641ZM44.7495 52.3235L42.2203 54.8527L43.6345 56.2669L46.1637 53.7378L44.7495 52.3235ZM43.5554 54.7816L40.5652 52.3688L39.3092 53.9252L42.2995 56.3381L43.5554 54.7816ZM40.5636 52.3675L40.4407 52.2687L39.1879 53.8277L39.3108 53.9265L40.5636 52.3675ZM39.2756 52.2057L39.1417 52.2913L40.219 53.9764L40.3529 53.8907L39.2756 52.2057ZM39.1422 52.291C38.1772 52.9071 37.1257 53.3452 36.0114 53.5963L36.4512 55.5474C37.7914 55.2453 39.0583 54.7174 40.2185 53.9767L39.1422 52.291ZM36.0084 53.597L35.8548 53.6321L36.3004 55.5818L36.4541 55.5467L36.0084 53.597ZM35.0839 54.495L35.0663 54.6509L37.0537 54.8748L37.0713 54.719L35.0839 54.495ZM35.0656 54.6573L34.6616 58.4643L36.6505 58.6753L37.0544 54.8684L35.0656 54.6573ZM35.6561 57.5698H32.0774V59.5698H35.6561V57.5698ZM33.0718 58.464L32.6679 54.668L30.6791 54.8797L31.0831 58.6756L33.0718 58.464ZM32.6674 54.6634L32.6498 54.5053L30.662 54.7262L30.6796 54.8843L32.6674 54.6634ZM31.8654 53.638L31.7118 53.605L31.2927 55.5606L31.4464 55.5936L31.8654 53.638ZM31.717 53.6062C30.5928 53.359 29.5294 52.9209 28.5547 52.301L27.4814 53.9886C28.6539 54.7343 29.9352 55.2622 31.2875 55.5595L31.717 53.6062ZM28.5567 52.3023L28.4228 52.2167L27.3454 53.9017L27.4794 53.9873L28.5567 52.3023ZM27.2577 52.2797L27.1348 52.3785L28.3876 53.9375L28.5105 53.8387L27.2577 52.2797ZM27.1331 52.3798L24.1736 54.7685L25.4297 56.3248L28.3892 53.9361L27.1331 52.3798ZM25.5088 54.8395L22.9818 52.3126L21.5676 53.7268L24.0946 56.2538L25.5088 54.8395ZM23.0527 53.648L25.4392 50.6929L23.8832 49.4363L21.4967 52.3914L23.0527 53.648ZM25.4407 50.691L25.5395 50.568L23.9805 49.3152L23.8817 49.4382L25.4407 50.691ZM25.6025 49.403L25.5169 49.269L23.8318 50.3464L23.9174 50.4803L25.6025 49.403ZM25.5171 49.2695C24.8973 48.2988 24.4572 47.2374 24.2081 46.1174L22.2558 46.5516C22.5555 47.8993 23.0858 49.1782 23.8315 50.3459L25.5171 49.2695ZM24.2068 46.1117L24.1717 45.958L22.2219 46.4036L22.2571 46.5573L24.2068 46.1117ZM23.3088 45.1871L23.1529 45.1695L22.9289 47.1569L23.0848 47.1745L23.3088 45.1871ZM23.1473 45.1689L19.3733 44.7649L19.1605 46.7536L22.9345 47.1576L23.1473 45.1689ZM20.2669 45.7593V42.1807H18.2669V45.7593H20.2669ZM19.3727 43.175L23.1489 42.7733L22.9373 40.7845L19.1611 41.1863L19.3727 43.175ZM23.1551 42.7726L23.311 42.755L23.087 40.7676L22.9311 40.7852L23.1551 42.7726ZM24.1738 41.9841L24.209 41.8305L22.2593 41.3848L22.2241 41.5385L24.1738 41.9841ZM24.2104 41.824C24.4593 40.7012 24.9011 39.6397 25.5239 38.6635L23.8379 37.5878C23.0908 38.7587 22.5578 40.0376 22.2578 41.3913L24.2104 41.824ZM25.5234 38.6643L25.6091 38.5304L23.924 37.4531L23.8384 37.587L25.5234 38.6643ZM25.5461 37.3653L25.4473 37.2424L23.8882 38.4952L23.987 38.6181L25.5461 37.3653ZM25.4457 37.2404L23.057 34.2831L21.5012 35.5398L23.8898 38.4971L25.4457 37.2404ZM22.9862 35.6186L25.5154 33.0894L24.1012 31.6752L21.572 34.2044L22.9862 35.6186ZM24.1803 33.1606L27.1464 35.5536L28.4023 33.9971L25.4362 31.604L24.1803 33.1606ZM27.1479 35.5549L27.2709 35.6537L28.5237 34.0946L28.4007 33.9958L27.1479 35.5549ZM28.426 35.7229L28.56 35.6395L27.5025 33.9419L27.3685 34.0254L28.426 35.7229ZM28.5662 35.6356C29.5405 35.0187 30.6 34.5809 31.7182 34.3362L31.2906 32.3824C29.9412 32.6777 28.6647 33.206 27.4962 33.9459L28.5662 35.6356ZM31.714 34.3371L31.8676 34.3042L31.4486 32.3485L31.2949 32.3815L31.714 34.3371ZM32.652 33.4368L32.6696 33.2787L30.6818 33.0578L30.6642 33.2159L32.652 33.4368ZM32.6701 33.2735L33.0719 29.4753L31.083 29.2649L30.6812 33.0631L32.6701 33.2735ZM32.0774 30.3701H35.6561V28.3701H32.0774V30.3701ZM35.8536 28.1506H31.8799V30.1506H35.8536V28.1506ZM30.8855 29.0445L30.4596 33.0381L32.4483 33.2502L32.8742 29.2566L30.8855 29.0445ZM31.2391 32.1675C29.8453 32.474 28.543 33.02 27.3755 33.7592L28.4454 35.449C29.4207 34.8314 30.507 34.3763 31.6687 34.1208L31.2391 32.1675ZM28.5388 33.8262L25.4213 31.308L24.1645 32.8638L27.2821 35.382L28.5388 33.8262ZM24.0858 31.3788L21.2756 34.189L22.6898 35.6032L25.5 32.793L24.0858 31.3788ZM21.2044 35.524L23.716 38.6372L25.2726 37.3814L22.761 34.2682L21.2044 35.524ZM23.6513 37.4714C22.9054 38.6405 22.3518 39.9456 22.0425 41.3458L23.9954 41.7772C24.2526 40.6132 24.7133 39.5252 25.3373 38.5472L23.6513 37.4714ZM22.9134 40.5671L18.9418 40.9887L19.1529 42.9775L23.1245 42.556L22.9134 40.5671ZM18.0474 41.9831V45.9569H20.0474V41.9831H18.0474ZM18.9413 46.9512L22.9129 47.3749L23.125 45.3862L19.1535 44.9625L18.9413 46.9512ZM22.0426 46.5966C22.3517 47.9938 22.9028 49.2965 23.6466 50.4637L25.3332 49.3888C24.7115 48.4132 24.2526 47.3273 23.9953 46.1645L22.0426 46.5966ZM23.7118 49.2982L21.2024 52.4069L22.7586 53.6631L25.268 50.5544L23.7118 49.2982ZM21.2734 53.7421L24.0792 56.5479L25.4934 55.1337L22.6876 52.3279L21.2734 53.7421ZM25.4142 56.6191L28.5274 54.1075L27.2716 52.5509L24.1584 55.0625L25.4142 56.6191ZM27.3628 54.173C28.5334 54.9175 29.8405 55.4657 31.2382 55.7745L31.6696 53.8215C30.503 53.5638 29.4127 53.1065 28.4361 52.4854L27.3628 54.173ZM30.4596 54.9041L30.8855 58.8955L32.8742 58.6832L32.4483 54.6919L30.4596 54.9041ZM31.8799 59.7894H35.8536V57.7894H31.8799V59.7894ZM36.848 58.8951L37.274 54.8906L35.2852 54.6791L34.8593 58.6836L36.848 58.8951ZM36.499 55.7605C37.8831 55.4491 39.1784 54.9008 40.337 54.1611L39.2608 52.4754C38.2941 53.0925 37.214 53.5497 36.0601 53.8092L36.499 55.7605ZM39.1708 54.0964L42.3125 56.6322L43.5687 55.0759L40.427 52.5401L39.1708 54.0964ZM43.6477 56.5611L46.4579 53.7509L45.0437 52.3367L42.2335 55.1469L43.6477 56.5611ZM46.5286 52.4153L43.9862 49.2692L42.4307 50.5262L44.973 53.6723L46.5286 52.4153ZM44.0529 50.4334C44.788 49.2744 45.3293 47.9835 45.6358 46.6041L43.6835 46.1702C43.428 47.3201 42.9769 48.3958 42.364 49.3621L44.0529 50.4334ZM44.7659 47.3815L48.7924 46.9512L48.5799 44.9625L44.5534 45.3928L44.7659 47.3815ZM49.6861 45.9569V41.9831H47.6861V45.9569H49.6861ZM48.7919 40.9887L44.7676 40.5606L44.5561 42.5493L48.5804 42.9775L48.7919 40.9887ZM45.6379 41.3375C45.329 39.9509 44.783 38.6556 44.046 37.4951L42.3577 38.5673C42.9732 39.5364 43.4283 40.6167 43.6858 41.7724L45.6379 41.3375ZM43.9798 38.6596L46.5068 35.531L44.9509 34.2743L42.4239 37.4029L43.9798 38.6596ZM46.436 34.1956L43.6302 31.3898L42.2159 32.804L45.0217 35.6098L46.436 34.1956ZM42.2954 31.3184L39.1668 33.841L40.4222 35.3979L43.5507 32.8754L42.2954 31.3184ZM40.3326 33.7766C39.1739 33.0369 37.8825 32.4904 36.4974 32.1813L36.0617 34.1333C37.2146 34.3906 38.2899 34.8453 39.2564 35.4623L40.3326 33.7766ZM37.274 33.0516L36.848 29.0449L34.8593 29.2563L35.2852 33.263L37.274 33.0516Z" fill="white" mask="url(#path-7-inside-1)"/>
<path d="M41.0245 43.9699C41.0245 47.9375 37.8081 51.154 33.8404 51.154C29.8727 51.154 26.6562 47.9375 26.6562 43.9699C26.6562 40.0022 29.8727 36.7857 33.8404 36.7857C37.8081 36.7857 41.0245 40.0022 41.0245 43.9699Z" stroke="white"/>
<mask id="path-10-inside-2" fill="white">
<path d="M33.84 36.3956C38.0158 36.3956 41.4144 39.7942 41.4144 43.9699C41.4144 48.1457 38.018 51.5443 33.84 51.5443C29.6621 51.5443 26.2657 48.1457 26.2657 43.9699C26.2657 39.7942 29.6643 36.3956 33.84 36.3956ZM33.84 36.176C29.5347 36.176 26.0461 39.6646 26.0461 43.9699C26.0461 48.2752 29.5347 51.7638 33.84 51.7638C38.1453 51.7638 41.6339 48.2752 41.6339 43.9699C41.6339 39.6646 38.1453 36.176 33.84 36.176Z"/>
</mask>
<path d="M33.84 37.3956C37.4635 37.3956 40.4144 40.3464 40.4144 43.9699H42.4144C42.4144 39.2419 38.5681 35.3956 33.84 35.3956V37.3956ZM40.4144 43.9699C40.4144 47.5936 37.4655 50.5443 33.84 50.5443V52.5443C38.5705 52.5443 42.4144 48.6978 42.4144 43.9699H40.4144ZM33.84 50.5443C30.2145 50.5443 27.2657 47.5936 27.2657 43.9699H25.2657C25.2657 48.6978 29.1096 52.5443 33.84 52.5443V50.5443ZM27.2657 43.9699C27.2657 40.3464 30.2166 37.3956 33.84 37.3956V35.3956C29.112 35.3956 25.2657 39.2419 25.2657 43.9699H27.2657ZM33.84 35.176C28.9825 35.176 25.0461 39.1123 25.0461 43.9699H27.0461C27.0461 40.2169 30.087 37.176 33.84 37.176V35.176ZM25.0461 43.9699C25.0461 48.8275 28.9825 52.7638 33.84 52.7638V50.7638C30.087 50.7638 27.0461 47.7229 27.0461 43.9699H25.0461ZM33.84 52.7638C38.6976 52.7638 42.6339 48.8275 42.6339 43.9699H40.6339C40.6339 47.7229 37.5931 50.7638 33.84 50.7638V52.7638ZM42.6339 43.9699C42.6339 39.1123 38.6976 35.176 33.84 35.176V37.176C37.5931 37.176 40.6339 40.2169 40.6339 43.9699H42.6339Z" fill="white" mask="url(#path-10-inside-2)"/>
<path d="M49.2326 32.2103L49.327 31.8661L49.0322 31.665L48.9862 31.6336L48.9862 31.6336L48.9826 31.6312C48.2803 31.1611 47.6716 30.5754 47.1711 29.8898L47.1706 29.8891L47.1381 29.8448L46.9263 29.5557L46.5846 29.6633L44.3337 30.3723L43.6286 28.7564L45.6766 27.5909L45.9881 27.4136L45.9202 27.0616L45.9098 27.0076L45.9095 27.0059C45.7464 26.1759 45.7304 25.3327 45.8611 24.4999L45.8611 24.4999L45.8616 24.4968L45.8699 24.4418L45.923 24.0888L45.6064 23.924L43.5178 22.8359L44.1635 21.1907L46.4346 21.8137L46.7788 21.9081L46.9799 21.6133L47.0113 21.5674L47.0113 21.5674L47.0133 21.5644C47.4847 20.8627 48.0716 20.2548 48.7588 19.7571L48.761 19.7555L48.8053 19.723L49.0946 19.5111L48.9867 19.1692L48.2765 16.9179L49.8943 16.212L51.0639 18.2667L51.2412 18.5781L51.5931 18.5102L51.6471 18.4998L51.6477 18.4997C52.4785 18.3385 53.3193 18.3247 54.1517 18.4568L54.1517 18.4568L54.1557 18.4574L54.2107 18.4657L54.5634 18.5187L54.7284 18.2025L55.8243 16.1016L57.4684 16.7469L56.8396 19.0409L56.7453 19.385L57.0401 19.5861L57.086 19.6174L57.0872 19.6182C57.7796 20.0877 58.3823 20.6697 58.876 21.3477L58.8768 21.3488L58.9093 21.3932L59.1211 21.6823L59.4629 21.5746L61.7253 20.8618L62.4302 22.4776L60.3658 23.6516L60.0541 23.8289L60.122 24.181L60.1325 24.235L60.1326 24.2355C60.2928 25.062 60.3094 25.8993 60.1791 26.7266L60.1786 26.73L60.1703 26.785L60.1172 27.1379L60.4336 27.3028L62.5553 28.4087L61.9101 30.0526L59.6026 29.4202L59.2585 29.3259L59.0574 29.6207L59.0261 29.6666L59.0243 29.6692C58.5578 30.3622 57.98 30.9628 57.3035 31.4569L57.303 31.4573L57.2586 31.4898L56.9694 31.7017L57.0772 32.0436L57.7963 34.3234L56.1783 35.0293L54.9975 32.9567L54.8201 32.6454L54.4683 32.7132L54.4143 32.7237L54.4126 32.724C53.5872 32.8861 52.7494 32.9041 51.9229 32.7756L51.9205 32.7752L51.8654 32.7669L51.5124 32.7138L51.3475 33.0305L50.2489 35.1415L48.6054 34.4964L49.2326 32.2103Z" stroke="white"/>
<mask id="path-13-inside-3" fill="white">
<path d="M57.976 16.4922L57.2608 19.0992L57.2321 19.2061L57.324 19.2688C58.058 19.7649 58.695 20.381 59.2173 21.0986L59.2832 21.1894L59.3894 21.1562L61.9608 20.3462L62.9693 22.6577L60.6246 23.9927L60.528 24.048L60.5497 24.158C60.7194 25.0318 60.7373 25.9193 60.5997 26.7956L60.5832 26.9057L60.681 26.9574L63.0886 28.2102L62.166 30.561L59.5456 29.8421L59.4386 29.8135L59.3759 29.9054C58.8818 30.6385 58.2691 31.2751 57.5544 31.7985L57.4651 31.865L57.4983 31.9712L58.3142 34.5616L56.0007 35.571L54.6584 33.2151L54.6032 33.1185L54.4931 33.1402C53.6202 33.3119 52.7342 33.3303 51.8567 33.1956L51.7466 33.1791L51.6949 33.277L50.4481 35.6736L48.0973 34.751L48.8106 32.1533L48.8398 32.0449L48.7473 31.9837C48.0041 31.4856 47.3585 30.8661 46.8293 30.1408L46.7634 30.05L46.6571 30.0832L44.0972 30.8893L43.0887 28.5779L45.4182 27.2519L45.5148 27.1966L45.4931 27.0866C45.3202 26.2082 45.3032 25.3144 45.441 24.4331L45.4576 24.3231L45.3597 24.2714L42.9847 23.0331L43.9073 20.6823L46.4915 21.3919L46.5984 21.4205L46.6611 21.3286C47.1606 20.586 47.7824 19.9429 48.5092 19.4143L48.5999 19.3484L48.5667 19.2422L47.76 16.6837L50.0735 15.6743L51.405 18.011L51.4603 18.1076L51.5698 18.0873C52.4484 17.9179 53.3402 17.9017 54.2204 18.0424L54.3298 18.0604L54.3821 17.9611L55.6252 15.5696L57.976 16.4922ZM58.1624 16.399L55.552 15.3745L54.2427 17.8881C53.3308 17.7432 52.4172 17.7642 51.5385 17.9336L50.1398 15.4756L47.5693 16.5972L48.4166 19.2897C47.6898 19.8184 47.0482 20.4736 46.5316 21.2429L43.814 20.4959L42.7895 23.1063L45.2892 24.4085C45.1453 25.3223 45.1691 26.2371 45.3414 27.1169L42.8915 28.5121L44.0113 31.0786L46.7038 30.2313C47.2331 30.9566 47.8909 31.596 48.6601 32.1125L47.9109 34.8443L50.5213 35.8688L51.8335 33.348C52.7407 33.4876 53.6505 33.4636 54.5234 33.2919L55.9335 35.7676L58.504 34.6461L57.645 31.9239C58.3617 31.3997 58.9928 30.7503 59.5034 29.992L62.2593 30.7474L63.2838 28.137L60.7506 26.8183C60.8923 25.9102 60.8697 25.0009 60.7 24.1271L63.1665 22.7234L62.0467 20.1569L59.3412 21.0075C58.8181 20.2879 58.1698 19.654 57.4092 19.1408L58.1624 16.399Z"/>
</mask>
<path d="M57.976 16.4922L58.9404 16.7568L59.1782 15.8898L58.3413 15.5614L57.976 16.4922ZM57.2608 19.0992L56.2964 18.8346L56.2949 18.8404L57.2608 19.0992ZM57.2321 19.2061L56.2662 18.9473L56.0826 19.6324L56.6686 20.0322L57.2321 19.2061ZM57.324 19.2688L56.7605 20.0949L56.7641 20.0973L57.324 19.2688ZM59.2173 21.0986L60.0265 20.5111L60.0258 20.5102L59.2173 21.0986ZM59.2832 21.1894L58.4739 21.7769L58.8959 22.3581L59.5815 22.1439L59.2832 21.1894ZM59.3894 21.1562L59.6877 22.1107L59.6898 22.11L59.3894 21.1562ZM61.9608 20.3462L62.8774 19.9463L62.5178 19.1223L61.6604 19.3924L61.9608 20.3462ZM62.9693 22.6577L63.4641 23.5267L64.2454 23.0819L63.8859 22.2578L62.9693 22.6577ZM60.6246 23.9927L60.1298 23.1237L60.1278 23.1248L60.6246 23.9927ZM60.528 24.048L60.0312 23.1801L59.4078 23.5369L59.5469 24.2416L60.528 24.048ZM60.5497 24.158L61.5314 23.9674L61.5308 23.9644L60.5497 24.158ZM60.5997 26.7956L59.6118 26.6406L59.6108 26.6469L60.5997 26.7956ZM60.5832 26.9057L59.5943 26.7569L59.4888 27.4583L60.1159 27.7898L60.5832 26.9057ZM60.681 26.9574L60.2137 27.8415L60.2194 27.8445L60.681 26.9574ZM63.0886 28.2102L64.0195 28.5755L64.3481 27.7383L63.5502 27.3231L63.0886 28.2102ZM62.166 30.561L61.9015 31.5253L62.7685 31.7632L63.0969 30.9263L62.166 30.561ZM59.5456 29.8421L59.8101 28.8777L59.8044 28.8762L59.5456 29.8421ZM59.4386 29.8135L59.6974 28.8475L59.0123 28.664L58.6126 29.2499L59.4386 29.8135ZM59.3759 29.9054L58.5498 29.3418L58.5467 29.3465L59.3759 29.9054ZM57.5544 31.7985L56.9636 30.9917L56.9575 30.9962L57.5544 31.7985ZM57.4651 31.865L56.8682 31.0627L56.299 31.4862L56.5106 32.1633L57.4651 31.865ZM57.4983 31.9712L56.5438 32.2695L56.5445 32.2716L57.4983 31.9712ZM58.3142 34.5616L58.7141 35.4781L59.538 35.1186L59.268 34.2612L58.3142 34.5616ZM56.0007 35.571L55.1318 36.066L55.5768 36.847L56.4006 36.4875L56.0007 35.571ZM54.6584 33.2151L55.5273 32.72L55.5263 32.7183L54.6584 33.2151ZM54.6032 33.1185L55.471 32.6217L55.1142 31.9983L54.4095 32.1374L54.6032 33.1185ZM54.4931 33.1402L54.6861 34.1214L54.6867 34.1213L54.4931 33.1402ZM51.8567 33.1956L52.0084 32.2072L52.0054 32.2068L51.8567 33.1956ZM51.7466 33.1791L51.8954 32.1902L51.194 32.0847L50.8625 32.7118L51.7466 33.1791ZM51.6949 33.277L50.8108 32.8097L50.8078 32.8154L51.6949 33.277ZM50.4481 35.6736L50.0828 36.6045L50.9201 36.9331L51.3352 36.1351L50.4481 35.6736ZM48.0973 34.751L47.133 34.4862L46.8949 35.3534L47.732 35.6819L48.0973 34.751ZM48.8106 32.1533L49.7749 32.4181L49.7761 32.4136L48.8106 32.1533ZM48.8398 32.0449L49.8053 32.3052L49.9929 31.6093L49.392 31.2112L48.8398 32.0449ZM48.7473 31.9837L48.1906 32.8144L48.195 32.8173L48.7473 31.9837ZM46.8293 30.1408L46.02 30.7283L46.0214 30.7302L46.8293 30.1408ZM46.7634 30.05L47.5726 29.4625L47.1506 28.8813L46.4651 29.0955L46.7634 30.05ZM46.6571 30.0832L46.3588 29.1287L46.3568 29.1294L46.6571 30.0832ZM44.0972 30.8893L43.1807 31.2892L43.5402 32.1132L44.3976 31.8432L44.0972 30.8893ZM43.0887 28.5779L42.594 27.7088L41.8126 28.1536L42.1722 28.9778L43.0887 28.5779ZM45.4182 27.2519L45.9129 28.121L45.915 28.1198L45.4182 27.2519ZM45.5148 27.1966L46.0116 28.0645L46.635 27.7077L46.4959 27.003L45.5148 27.1966ZM45.4931 27.0866L44.5119 27.2797L44.512 27.2802L45.4931 27.0866ZM45.441 24.4331L46.429 24.5876L46.4299 24.5819L45.441 24.4331ZM45.4576 24.3231L46.4464 24.4718L46.5519 23.7704L45.9248 23.439L45.4576 24.3231ZM45.3597 24.2714L45.827 23.3873L45.822 23.3847L45.3597 24.2714ZM42.9847 23.0331L42.0538 22.6677L41.7255 23.5043L42.5223 23.9198L42.9847 23.0331ZM43.9073 20.6823L44.1721 19.718L43.3049 19.4798L42.9764 20.3169L43.9073 20.6823ZM46.4915 21.3919L46.2266 22.3562L46.2326 22.3578L46.4915 21.3919ZM46.5984 21.4205L46.3396 22.3865L47.0247 22.57L47.4244 21.9841L46.5984 21.4205ZM46.6611 21.3286L47.4872 21.8922L47.4908 21.8867L46.6611 21.3286ZM48.5092 19.4143L47.9217 18.6051L47.9209 18.6056L48.5092 19.4143ZM48.5999 19.3484L49.1874 20.1576L49.7687 19.7356L49.5544 19.0501L48.5999 19.3484ZM48.5667 19.2422L49.5212 18.9438L49.5205 18.9414L48.5667 19.2422ZM47.76 16.6837L47.3601 15.7671L46.5359 16.1267L46.8063 16.9844L47.76 16.6837ZM50.0735 15.6743L50.9423 15.1792L50.4974 14.3983L49.6736 14.7577L50.0735 15.6743ZM51.405 18.011L50.5361 18.5061L50.5371 18.5078L51.405 18.011ZM51.4603 18.1076L50.5924 18.6044L50.9448 19.2201L51.6424 19.0909L51.4603 18.1076ZM51.5698 18.0873L51.7519 19.0706L51.7591 19.0692L51.5698 18.0873ZM54.2204 18.0424L54.3825 17.0556L54.3782 17.0549L54.2204 18.0424ZM54.3298 18.0604L54.1676 19.0472L54.8788 19.164L55.2146 18.5263L54.3298 18.0604ZM54.3821 17.9611L55.2669 18.427L55.2694 18.4223L54.3821 17.9611ZM55.6252 15.5696L55.9905 14.6388L55.1529 14.31L54.7379 15.1084L55.6252 15.5696ZM58.1624 16.399L59.1267 16.6638L59.3649 15.7966L58.5277 15.4681L58.1624 16.399ZM55.552 15.3745L55.9173 14.4436L55.0805 14.1152L54.6651 14.9125L55.552 15.3745ZM54.2427 17.8881L54.0858 18.8757L54.7969 18.9886L55.1295 18.35L54.2427 17.8881ZM51.5385 17.9336L50.6694 18.4282L51.024 19.0512L51.7279 18.9155L51.5385 17.9336ZM50.1398 15.4756L51.0089 14.9811L50.5642 14.1995L49.7399 14.5591L50.1398 15.4756ZM47.5693 16.5972L47.1694 15.6806L46.3456 16.04L46.6154 16.8973L47.5693 16.5972ZM48.4166 19.2897L49.0048 20.0984L49.5863 19.6754L49.3705 18.9896L48.4166 19.2897ZM46.5316 21.2429L46.2666 22.2071L46.9605 22.3979L47.3618 21.8004L46.5316 21.2429ZM43.814 20.4959L44.079 19.5316L43.2117 19.2932L42.8831 20.1305L43.814 20.4959ZM42.7895 23.1063L41.8586 22.7409L41.5302 23.5778L42.3275 23.9931L42.7895 23.1063ZM45.2892 24.4085L46.2771 24.5641L46.3889 23.8539L45.7513 23.5216L45.2892 24.4085ZM45.3414 27.1169L45.8363 27.9859L46.4609 27.6301L46.3228 26.9247L45.3414 27.1169ZM42.8915 28.5121L42.3966 27.6432L41.6154 28.088L41.9749 28.912L42.8915 28.5121ZM44.0113 31.0786L43.0947 31.4785L43.4541 32.3023L44.3114 32.0325L44.0113 31.0786ZM46.7038 30.2313L47.5117 29.6419L47.0885 29.062L46.4037 29.2775L46.7038 30.2313ZM48.6601 32.1125L49.6245 32.377L49.8147 31.6834L49.2176 31.2824L48.6601 32.1125ZM47.9109 34.8443L46.9465 34.5798L46.7087 35.4467L47.5456 35.7752L47.9109 34.8443ZM50.5213 35.8688L50.156 36.7996L50.9931 37.1282L51.4083 36.3305L50.5213 35.8688ZM51.8335 33.348L51.9856 32.3596L51.2774 32.2506L50.9465 32.8862L51.8335 33.348ZM54.5234 33.2919L55.3924 32.797L55.0363 32.1719L54.3304 32.3107L54.5234 33.2919ZM55.9335 35.7676L55.0646 36.2625L55.5095 37.0437L56.3334 36.6842L55.9335 35.7676ZM58.504 34.6461L58.9039 35.5626L59.7283 35.2029L59.4577 34.3451L58.504 34.6461ZM57.645 31.9239L57.0546 31.1168L56.4754 31.5405L56.6914 32.2249L57.645 31.9239ZM59.5034 29.992L59.7677 29.0276L59.0751 28.8377L58.6739 29.4334L59.5034 29.992ZM62.2593 30.7474L61.995 31.7118L62.8618 31.9494L63.1902 31.1127L62.2593 30.7474ZM63.2838 28.137L64.2147 28.5023L64.5432 27.6652L63.7456 27.25L63.2838 28.137ZM60.7506 26.8183L59.7626 26.6641L59.6519 27.3737L60.2888 27.7053L60.7506 26.8183ZM60.7 24.1271L60.2054 23.258L59.5815 23.6131L59.7183 24.3177L60.7 24.1271ZM63.1665 22.7234L63.6611 23.5926L64.4427 23.1478L64.0831 22.3235L63.1665 22.7234ZM62.0467 20.1569L62.9633 19.757L62.604 18.9335L61.7468 19.203L62.0467 20.1569ZM59.3412 21.0075L58.5324 21.5955L58.9552 22.1771L59.6412 21.9615L59.3412 21.0075ZM57.4092 19.1408L56.445 18.8759L56.2548 19.5682L56.8499 19.9697L57.4092 19.1408ZM57.0116 16.2277L56.2964 18.8346L58.2252 19.3638L58.9404 16.7568L57.0116 16.2277ZM56.2949 18.8404L56.2662 18.9473L58.1981 19.4649L58.2267 19.358L56.2949 18.8404ZM56.6686 20.0322L56.7605 20.0949L57.8876 18.4427L57.7957 18.38L56.6686 20.0322ZM56.7641 20.0973C57.4014 20.5281 57.9544 21.0628 58.4087 21.6871L60.0258 20.5102C59.4356 19.6993 58.7147 19.0017 57.884 18.4403L56.7641 20.0973ZM58.408 21.6861L58.4739 21.7769L60.0924 20.6019L60.0265 20.5111L58.408 21.6861ZM59.5815 22.1439L59.6877 22.1107L59.0911 20.2017L58.9849 20.2349L59.5815 22.1439ZM59.6898 22.11L62.2612 21.3L61.6604 19.3924L59.089 20.2024L59.6898 22.11ZM61.0442 20.7461L62.0527 23.0576L63.8859 22.2578L62.8774 19.9463L61.0442 20.7461ZM62.4745 21.7887L60.1298 23.1237L61.1194 24.8617L63.4641 23.5267L62.4745 21.7887ZM60.1278 23.1248L60.0312 23.1801L61.0248 24.9158L61.1214 24.8605L60.1278 23.1248ZM59.5469 24.2416L59.5686 24.3516L61.5308 23.9644L61.5091 23.8543L59.5469 24.2416ZM59.568 24.3487C59.7159 25.11 59.7311 25.8805 59.6118 26.6406L61.5876 26.9507C61.7434 25.958 61.7229 24.9536 61.5314 23.9674L59.568 24.3487ZM59.6108 26.6469L59.5943 26.7569L61.572 27.0544L61.5886 26.9444L59.6108 26.6469ZM60.1159 27.7898L60.2138 27.8415L61.1483 26.0733L61.0504 26.0215L60.1159 27.7898ZM60.2194 27.8445L62.627 29.0973L63.5502 27.3231L61.1426 26.0703L60.2194 27.8445ZM62.1578 27.8448L61.2352 30.1956L63.0969 30.9263L64.0195 28.5755L62.1578 27.8448ZM62.4306 29.5966L59.8101 28.8777L59.281 30.8065L61.9015 31.5253L62.4306 29.5966ZM59.8044 28.8762L59.6974 28.8475L59.1798 30.7794L59.2867 30.808L59.8044 28.8762ZM58.6126 29.2499L58.5499 29.3418L60.202 30.4689L60.2647 30.377L58.6126 29.2499ZM58.5467 29.3465C58.1173 29.9835 57.5854 30.5364 56.9636 30.9917L58.1453 32.6053C58.9529 32.0139 59.6463 31.2934 60.2052 30.4642L58.5467 29.3465ZM56.9575 30.9962L56.8682 31.0627L58.0621 32.6673L58.1514 32.6008L56.9575 30.9962ZM56.5106 32.1633L56.5439 32.2695L58.4528 31.6729L58.4196 31.5667L56.5106 32.1633ZM56.5445 32.2716L57.3603 34.862L59.268 34.2612L58.4521 31.6708L56.5445 32.2716ZM57.9143 33.645L55.6008 34.6544L56.4006 36.4875L58.7141 35.4781L57.9143 33.645ZM56.8696 35.0759L55.5273 32.72L53.7896 33.7101L55.1318 36.066L56.8696 35.0759ZM55.5263 32.7183L55.471 32.6217L53.7353 33.6153L53.7906 33.7118L55.5263 32.7183ZM54.4095 32.1374L54.2995 32.1591L54.6867 34.1213L54.7968 34.0995L54.4095 32.1374ZM54.3001 32.159C53.5408 32.3083 52.7714 32.3243 52.0084 32.2072L51.705 34.1841C52.6969 34.3363 53.6996 34.3154 54.6861 34.1214L54.3001 32.159ZM52.0054 32.2068L51.8954 32.1902L51.5979 34.168L51.7079 34.1845L52.0054 32.2068ZM50.8625 32.7118L50.8108 32.8097L52.579 33.7442L52.6308 33.6464L50.8625 32.7118ZM50.8078 32.8154L49.561 35.2121L51.3352 36.1351L52.5821 33.7385L50.8078 32.8154ZM50.8134 34.7427L48.4626 33.8201L47.732 35.6819L50.0828 36.6045L50.8134 34.7427ZM49.0616 35.0158L49.7749 32.4181L47.8463 31.8885L47.133 34.4862L49.0616 35.0158ZM49.7761 32.4136L49.8053 32.3052L47.8743 31.7846L47.845 31.893L49.7761 32.4136ZM49.392 31.2112L49.2996 31.15L48.195 32.8173L48.2875 32.8786L49.392 31.2112ZM49.304 31.1529C48.6578 30.7199 48.0972 30.182 47.6371 29.5513L46.0214 30.7302C46.6197 31.5502 47.3504 32.2513 48.1906 32.8144L49.304 31.1529ZM47.6385 29.5533L47.5726 29.4625L45.9541 30.6375L46.02 30.7283L47.6385 29.5533ZM46.4651 29.0955L46.3588 29.1287L46.9554 31.0377L47.0617 31.0045L46.4651 29.0955ZM46.3568 29.1294L43.7969 29.9355L44.3976 31.8432L46.9575 31.037L46.3568 29.1294ZM45.0138 30.4894L44.0053 28.178L42.1722 28.9778L43.1807 31.2892L45.0138 30.4894ZM43.5834 29.447L45.9129 28.121L44.9236 26.3828L42.594 27.7088L43.5834 29.447ZM45.915 28.1198L46.0116 28.0645L45.018 26.3288L44.9215 26.384L45.915 28.1198ZM46.4959 27.003L46.4742 26.8929L44.512 27.2802L44.5338 27.3903L46.4959 27.003ZM46.4743 26.8935C46.324 26.1298 46.3092 25.3537 46.429 24.5876L44.453 24.2786C44.2972 25.2751 44.3165 26.2866 44.5119 27.2797L46.4743 26.8935ZM46.4299 24.5819L46.4464 24.4718L44.4687 24.1744L44.4521 24.2844L46.4299 24.5819ZM45.9248 23.439L45.827 23.3873L44.8924 25.1555L44.9903 25.2072L45.9248 23.439ZM45.822 23.3847L43.447 22.1464L42.5223 23.9198L44.8974 25.1581L45.822 23.3847ZM43.9156 23.3984L44.8382 21.0476L42.9764 20.3169L42.0538 22.6677L43.9156 23.3984ZM43.6425 21.6466L46.2267 22.3562L46.7562 20.4276L44.1721 19.718L43.6425 21.6466ZM46.2326 22.3578L46.3396 22.3865L46.8572 20.4546L46.7503 20.4259L46.2326 22.3578ZM47.4244 21.9841L47.4871 21.8922L45.835 20.7651L45.7723 20.857L47.4244 21.9841ZM47.4908 21.8867C47.9243 21.2422 48.4641 20.6836 49.0974 20.223L47.9209 18.6056C47.1008 19.2022 46.3968 19.9297 45.8313 20.7705L47.4908 21.8867ZM49.0967 20.2235L49.1874 20.1576L48.0125 18.5392L47.9217 18.6051L49.0967 20.2235ZM49.5544 19.0501L49.5212 18.9438L47.6123 19.5405L47.6455 19.6467L49.5544 19.0501ZM49.5205 18.9414L48.7138 16.383L46.8063 16.9844L47.613 19.5429L49.5205 18.9414ZM48.1599 17.6002L50.4734 16.5909L49.6736 14.7577L47.3601 15.7671L48.1599 17.6002ZM49.2047 16.1694L50.5361 18.5061L52.2738 17.5159L50.9423 15.1792L49.2047 16.1694ZM50.5371 18.5078L50.5924 18.6044L52.3281 17.6108L52.2728 17.5142L50.5371 18.5078ZM51.6424 19.0909L51.7519 19.0706L51.3876 17.104L51.2782 17.1243L51.6424 19.0909ZM51.7591 19.0692C52.5249 18.9215 53.2992 18.9078 54.0625 19.0299L54.3782 17.0549C53.3812 16.8956 52.372 16.9142 51.3804 17.1054L51.7591 19.0692ZM54.0582 19.0292L54.1676 19.0472L54.492 17.0736L54.3825 17.0556L54.0582 19.0292ZM55.2146 18.5263L55.2669 18.427L53.4973 17.4952L53.445 17.5945L55.2146 18.5263ZM55.2694 18.4223L56.5125 16.0309L54.7379 15.1084L53.4948 17.4999L55.2694 18.4223ZM55.2599 16.5005L57.6107 17.4231L58.3413 15.5614L55.9905 14.6388L55.2599 16.5005ZM58.5277 15.4681L55.9173 14.4436L55.1867 16.3054L57.7971 17.3298L58.5277 15.4681ZM54.6651 14.9125L53.3558 17.4261L55.1295 18.35L56.4389 15.8365L54.6651 14.9125ZM54.3995 16.9004C53.3704 16.737 52.3396 16.7607 51.3492 16.9517L51.7279 18.9155C52.4949 18.7676 53.2913 18.7495 54.0858 18.8757L54.3995 16.9004ZM52.4077 17.439L51.0089 14.9811L49.2707 15.9702L50.6694 18.4282L52.4077 17.439ZM49.7399 14.5591L47.1694 15.6806L47.9692 17.5137L50.5397 16.3922L49.7399 14.5591ZM46.6154 16.8973L47.4627 19.5899L49.3705 18.9896L48.5232 16.297L46.6154 16.8973ZM47.8283 18.4811C47.01 19.0763 46.2855 19.8157 45.7015 20.6854L47.3618 21.8004C47.811 21.1315 48.3697 20.5604 49.0048 20.0984L47.8283 18.4811ZM46.7967 20.2786L44.079 19.5316L43.549 21.4601L46.2666 22.2071L46.7967 20.2786ZM42.8831 20.1305L41.8586 22.7409L43.7204 23.4716L44.7449 20.8612L42.8831 20.1305ZM42.3275 23.9931L44.8272 25.2954L45.7513 23.5216L43.2515 22.2194L42.3275 23.9931ZM44.3014 24.2529C44.1388 25.2853 44.1659 26.3178 44.3601 27.3091L46.3228 26.9247C46.1723 26.1564 46.1518 25.3594 46.2771 24.5641L44.3014 24.2529ZM44.8465 26.2479L42.3966 27.6432L43.3864 29.3811L45.8363 27.9859L44.8465 26.2479ZM41.9749 28.912L43.0947 31.4785L44.9278 30.6787L43.8081 28.1122L41.9749 28.912ZM44.3114 32.0325L47.004 31.1852L46.4037 29.2775L43.7111 30.1247L44.3114 32.0325ZM45.896 30.8208C46.493 31.6389 47.2351 32.3601 48.1026 32.9427L49.2176 31.2824C48.5466 30.8318 47.9731 30.2744 47.5117 29.6419L45.896 30.8208ZM47.6957 31.848L46.9465 34.5798L48.8753 35.1088L49.6245 32.377L47.6957 31.848ZM47.5456 35.7752L50.156 36.7996L50.8866 34.9379L48.2762 33.9134L47.5456 35.7752ZM51.4083 36.3305L52.7205 33.8097L50.9465 32.8862L49.6343 35.407L51.4083 36.3305ZM51.6813 34.3363C52.7051 34.494 53.7318 34.4668 54.7164 34.2731L54.3304 32.3107C53.5692 32.4604 52.7762 32.4813 51.9856 32.3596L51.6813 34.3363ZM53.6545 33.7868L55.0646 36.2625L56.8024 35.2727L55.3924 32.797L53.6545 33.7868ZM56.3334 36.6842L58.9039 35.5626L58.1041 33.7295L55.5336 34.851L56.3334 36.6842ZM59.4577 34.3451L58.5987 31.623L56.6914 32.2249L57.5504 34.947L59.4577 34.3451ZM58.2354 32.7311C59.0442 32.1395 59.7565 31.4063 60.3328 30.5506L58.6739 29.4334C58.229 30.0942 57.6793 30.6599 57.0546 31.1168L58.2354 32.7311ZM59.239 30.9564L61.995 31.7118L62.5237 29.7829L59.7677 29.0276L59.239 30.9564ZM63.1902 31.1127L64.2147 28.5023L62.3529 27.7716L61.3284 30.382L63.1902 31.1127ZM63.7456 27.25L61.2124 25.9312L60.2888 27.7053L62.822 29.024L63.7456 27.25ZM61.7386 26.9724C61.8986 25.9475 61.8729 24.9215 61.6816 23.9365L59.7183 24.3177C59.8664 25.0803 59.886 25.8729 59.7626 26.6641L61.7386 26.9724ZM61.1946 24.9962L63.6611 23.5926L62.6719 21.8543L60.2054 23.258L61.1946 24.9962ZM64.0831 22.3235L62.9633 19.757L61.1302 20.5568L62.25 23.1233L64.0831 22.3235ZM61.7468 19.203L59.0413 20.0535L59.6412 21.9615L62.3466 21.1109L61.7468 19.203ZM60.1501 20.4195C59.5599 19.6077 58.8278 18.8916 57.9686 18.3118L56.8499 19.9697C57.5119 20.4164 58.0763 20.9681 58.5324 21.5955L60.1501 20.4195ZM58.3735 19.4057L59.1267 16.6638L57.1981 16.1341L56.445 18.8759L58.3735 19.4057Z" fill="white" mask="url(#path-13-inside-3)"/>
<path d="M57.6014 27.4131C56.6082 29.9438 53.7515 31.1903 51.2207 30.197C48.69 29.2038 47.4436 26.3471 48.4368 23.8164C49.43 21.2857 52.2867 20.0393 54.8175 21.0325C57.3482 22.0257 58.5946 24.8824 57.6014 27.4131Z" stroke="white"/>
<mask id="path-16-inside-4" fill="white">
<path d="M54.9717 20.6391C57.7148 21.7156 59.0711 24.8244 57.9946 27.5674C56.918 30.3105 53.8107 31.6674 51.0662 30.5903C48.3217 29.5132 46.9668 26.4051 48.0433 23.662C49.1199 20.9189 52.2286 19.5625 54.9717 20.6391ZM55.0283 20.4949C52.2001 19.3849 49.0091 20.7772 47.8991 23.6054C46.7892 26.4335 48.1815 29.6246 51.0096 30.7345C53.8378 31.8445 57.0288 30.4522 58.1388 27.624C59.2487 24.7959 57.8565 21.6048 55.0283 20.4949Z"/>
</mask>
<path d="M54.6064 21.57C56.8353 22.4447 57.9385 24.9731 57.0637 27.2021L58.9254 27.9328C60.2038 24.6756 58.5942 20.9865 55.337 19.7082L54.6064 21.57ZM57.0637 27.2021C56.1888 29.4312 53.6618 30.5347 51.4316 29.6594L50.7009 31.5212C53.9597 32.8001 57.6472 31.1898 58.9254 27.9328L57.0637 27.2021ZM51.4316 29.6594C49.2013 28.7842 48.0994 26.2564 48.9742 24.0273L47.1125 23.2966C45.8342 26.5537 47.4421 30.2422 50.7009 31.5212L51.4316 29.6594ZM48.9742 24.0273C49.849 21.7983 52.3774 20.6952 54.6064 21.57L55.337 19.7082C52.0798 18.4299 48.3908 20.0395 47.1125 23.2966L48.9742 24.0273ZM55.3936 19.564C52.0513 18.2523 48.2799 19.8978 46.9682 23.24L48.83 23.9707C49.7382 21.6566 52.3489 20.5176 54.663 21.4257L55.3936 19.564ZM46.9682 23.24C45.6565 26.5823 47.302 30.3537 50.6443 31.6654L51.375 29.8037C49.0609 28.8955 47.9218 26.2848 48.83 23.9707L46.9682 23.24ZM50.6443 31.6654C53.9866 32.9771 57.758 31.3316 59.0697 27.9894L57.2079 27.2587C56.2997 29.5728 53.689 30.7118 51.375 29.8037L50.6443 31.6654ZM59.0697 27.9894C60.3814 24.6471 58.7359 20.8757 55.3936 19.564L54.663 21.4257C56.977 22.3339 58.1161 24.9446 57.2079 27.2587L59.0697 27.9894Z" fill="white" mask="url(#path-16-inside-4)"/>
</svg>
