<svg width="117" height="117" viewBox="0 0 117 117" fill="none" xmlns="http://www.w3.org/2000/svg">
<circle cx="58.2178" cy="58.2178" r="57.7178" stroke="white"/>
<rect x="69.7915" y="45.2829" width="21.3915" height="21.3915" stroke="white"/>
<rect x="34.8608" y="26.4741" width="21.3915" height="21.3915" stroke="white"/>
<rect x="34.4131" y="71.257" width="21.3915" height="21.3915" stroke="white"/>
<line x1="73.0115" y1="45.1016" x2="73.0115" y2="41.2003" stroke="white"/>
<path d="M76.779 45.1016L76.779 41.2003L76.779 33.1394L56.3044 33.1394" stroke="white"/>
<line x1="80.4424" y1="45.1016" x2="80.4424" y2="41.2003" stroke="white"/>
<line x1="84.158" y1="45.1016" x2="84.158" y2="41.2003" stroke="white"/>
<line x1="87.8735" y1="45.1016" x2="87.8735" y2="41.2003" stroke="white"/>
<line x1="38.0811" y1="26.2927" x2="38.0811" y2="22.3914" stroke="white"/>
<line x1="45.512" y1="26.2928" x2="45.512" y2="22.3915" stroke="white"/>
<line x1="41.4741" y1="26.2928" x2="41.4741" y2="22.3915" stroke="white"/>
<line x1="49.2275" y1="26.2927" x2="49.2275" y2="22.3914" stroke="white"/>
<line x1="52.9434" y1="26.2927" x2="52.9434" y2="22.3914" stroke="white"/>
<line x1="37.6331" y1="71.0757" x2="37.6331" y2="67.1744" stroke="white"/>
<line x1="45.064" y1="71.0757" x2="45.064" y2="67.1744" stroke="white"/>
<line x1="41.0261" y1="71.0757" x2="41.0261" y2="67.1744" stroke="white"/>
<line x1="48.7795" y1="71.0757" x2="48.7795" y2="67.1744" stroke="white"/>
<line x1="52.4954" y1="71.0757" x2="52.4954" y2="67.1744" stroke="white"/>
<line x1="38.0811" y1="52.2668" x2="38.0811" y2="48.3656" stroke="white"/>
<line x1="45.512" y1="52.2669" x2="45.512" y2="48.3656" stroke="white"/>
<line x1="41.4741" y1="52.2669" x2="41.4741" y2="48.3656" stroke="white"/>
<line x1="49.2275" y1="52.2668" x2="49.2275" y2="48.3656" stroke="white"/>
<line x1="52.9434" y1="52.2668" x2="52.9434" y2="48.3656" stroke="white"/>
<line x1="37.6331" y1="97.0497" x2="37.6331" y2="93.1484" stroke="white"/>
<line x1="45.064" y1="97.0497" x2="45.064" y2="93.1484" stroke="white"/>
<line x1="41.0261" y1="97.0497" x2="41.0261" y2="93.1484" stroke="white"/>
<line x1="48.7795" y1="97.0497" x2="48.7795" y2="93.1484" stroke="white"/>
<line x1="52.4954" y1="97.0497" x2="52.4954" y2="93.1484" stroke="white"/>
<line x1="73.0117" y1="70.6514" x2="73.0117" y2="66.7501" stroke="white"/>
<line x1="80.4426" y1="70.6514" x2="80.4426" y2="66.7501" stroke="white"/>
<line x1="76.8523" y1="70.6514" x2="76.8523" y2="66.7501" stroke="white"/>
<path d="M84.2103 66.7501L84.2103 70.6514L84.2103 78.37L56.3044 78.37" stroke="white"/>
<line x1="87.8738" y1="70.6514" x2="87.8738" y2="66.7501" stroke="white"/>
<line x1="69.6104" y1="63.581" x2="65.7091" y2="63.581" stroke="white"/>
<line x1="69.6104" y1="59.8644" x2="65.7091" y2="59.8644" stroke="white"/>
<line x1="69.6104" y1="56.1494" x2="65.7091" y2="56.1494" stroke="white"/>
<line x1="69.6104" y1="52.4327" x2="65.7091" y2="52.4327" stroke="white"/>
<line x1="69.6104" y1="48.7188" x2="65.7091" y2="48.7188" stroke="white"/>
<line x1="34.6797" y1="44.7722" x2="30.7784" y2="44.7722" stroke="white"/>
<line x1="34.6797" y1="37.3405" x2="30.7784" y2="37.3405" stroke="white"/>
<line x1="34.6797" y1="33.624" x2="30.7784" y2="33.624" stroke="white"/>
<line x1="34.6797" y1="29.91" x2="30.7784" y2="29.91" stroke="white"/>
<line x1="34.2317" y1="89.5551" x2="30.3304" y2="89.5551" stroke="white"/>
<line x1="34.2317" y1="85.8386" x2="30.3304" y2="85.8386" stroke="white"/>
<path d="M34.2317 82.0713L24.9564 82.0713L24.9564 41.2002L34.2317 41.2002" stroke="white"/>
<line x1="34.2317" y1="78.4069" x2="30.3304" y2="78.4069" stroke="white"/>
<line x1="34.2317" y1="74.6929" x2="30.3304" y2="74.6929" stroke="white"/>
<line x1="95.1548" y1="63.581" x2="91.2535" y2="63.581" stroke="white"/>
<line x1="95.1548" y1="59.8644" x2="91.2535" y2="59.8644" stroke="white"/>
<line x1="95.1548" y1="56.1494" x2="91.2535" y2="56.1494" stroke="white"/>
<line x1="95.1548" y1="52.4327" x2="91.2535" y2="52.4327" stroke="white"/>
<line x1="95.1548" y1="48.7188" x2="91.2535" y2="48.7188" stroke="white"/>
<line x1="60.2241" y1="44.7722" x2="56.3228" y2="44.7722" stroke="white"/>
<line x1="60.2241" y1="41.0556" x2="56.3228" y2="41.0556" stroke="white"/>
<line x1="60.2241" y1="37.3405" x2="56.3228" y2="37.3405" stroke="white"/>
<line x1="60.2241" y1="29.91" x2="56.3228" y2="29.91" stroke="white"/>
<line x1="59.7761" y1="89.5551" x2="55.8748" y2="89.5551" stroke="white"/>
<line x1="59.7761" y1="85.8386" x2="55.8748" y2="85.8386" stroke="white"/>
<line x1="59.7761" y1="82.1235" x2="55.8748" y2="82.1235" stroke="white"/>
<line x1="59.7761" y1="74.6929" x2="55.8748" y2="74.6929" stroke="white"/>
</svg>
