<svg width="117" height="117" viewBox="0 0 117 117" fill="none" xmlns="http://www.w3.org/2000/svg">
<circle cx="58.2178" cy="58.2178" r="57.7178" stroke="white"/>
<rect x="30.7598" y="18.4131" width="25.8697" height="33.035" rx="1.5" stroke="white"/>
<path d="M35.6335 23.7349H51.7554" stroke="white" stroke-linecap="round" stroke-linejoin="round"/>
<path d="M35.6335 28.2132H51.7554" stroke="white" stroke-linecap="round" stroke-linejoin="round"/>
<path d="M35.6335 32.6914H51.7554" stroke="white" stroke-linecap="round" stroke-linejoin="round"/>
<path d="M35.6335 37.1697H51.7554" stroke="white" stroke-linecap="round" stroke-linejoin="round"/>
<path d="M35.6335 41.6481H51.7554" stroke="white" stroke-linecap="round" stroke-linejoin="round"/>
<path d="M35.6335 46.1263H51.7554" stroke="white" stroke-linecap="round" stroke-linejoin="round"/>
<rect x="30.7598" y="63.196" width="25.8697" height="33.035" rx="1.5" stroke="white"/>
<path d="M35.6335 68.5178H51.7554" stroke="white" stroke-linecap="round" stroke-linejoin="round"/>
<path d="M35.6335 72.9962H51.7554" stroke="white" stroke-linecap="round" stroke-linejoin="round"/>
<path d="M35.6335 77.4744H51.7554" stroke="white" stroke-linecap="round" stroke-linejoin="round"/>
<path d="M35.6335 81.9527H51.7554" stroke="white" stroke-linecap="round" stroke-linejoin="round"/>
<path d="M35.6335 86.4309H51.7554" stroke="white" stroke-linecap="round" stroke-linejoin="round"/>
<path d="M35.6335 90.9092H51.7554" stroke="white" stroke-linecap="round" stroke-linejoin="round"/>
<rect x="70.1687" y="46.1786" width="21.3915" height="21.3915" stroke="white"/>
<line x1="73.3887" y1="45.9972" x2="73.3887" y2="42.0959" stroke="white"/>
<path d="M77.1562 45.9972L77.1562 42.0959L77.1562 34.0349L56.6816 34.0349" stroke="white"/>
<line x1="80.8196" y1="45.9972" x2="80.8196" y2="42.0959" stroke="white"/>
<line x1="84.5352" y1="45.9972" x2="84.5352" y2="42.0959" stroke="white"/>
<line x1="88.2507" y1="45.9972" x2="88.2507" y2="42.0959" stroke="white"/>
<line x1="73.3887" y1="71.547" x2="73.3887" y2="67.6457" stroke="white"/>
<line x1="80.8198" y1="71.547" x2="80.8198" y2="67.6457" stroke="white"/>
<line x1="77.2295" y1="71.547" x2="77.2295" y2="67.6457" stroke="white"/>
<path d="M84.5875 67.6457L84.5875 71.547L84.5875 79.2656L56.6816 79.2656" stroke="white"/>
<line x1="88.251" y1="71.547" x2="88.251" y2="67.6457" stroke="white"/>
<line x1="69.9875" y1="64.4767" x2="66.0863" y2="64.4767" stroke="white"/>
<line x1="69.9875" y1="60.7601" x2="66.0863" y2="60.7601" stroke="white"/>
<line x1="69.9875" y1="57.045" x2="66.0863" y2="57.045" stroke="white"/>
<line x1="69.9875" y1="53.3285" x2="66.0863" y2="53.3285" stroke="white"/>
<line x1="69.9875" y1="49.6145" x2="66.0863" y2="49.6145" stroke="white"/>
<line x1="95.5317" y1="64.4767" x2="91.6304" y2="64.4767" stroke="white"/>
<line x1="95.5317" y1="60.7601" x2="91.6304" y2="60.7601" stroke="white"/>
<line x1="95.5317" y1="57.045" x2="91.6304" y2="57.045" stroke="white"/>
<line x1="95.5317" y1="53.3285" x2="91.6304" y2="53.3285" stroke="white"/>
<line x1="95.5317" y1="49.6145" x2="91.6304" y2="49.6145" stroke="white"/>
</svg>
