<svg width="47" height="38" viewBox="0 0 47 38" fill="none" xmlns="http://www.w3.org/2000/svg">
<path d="M11.082 8.70644V0" stroke="black" stroke-width="0.4"/>
<path d="M39.4928 7.94489L46.3828 6.56802" stroke="black" stroke-width="0.4"/>
<path d="M24.8287 13.1382L31.7188 11.7613" stroke="black" stroke-width="0.4"/>
<path d="M19.9404 6.87356L19.9404 1.98573" stroke="black" stroke-width="0.4"/>
<path d="M23.7475 18.1438L10.4534 18.1991L12.0643 15.656L16.8633 14.6403L16.7745 13.3192L13.9363 13.8309L12.6949 12.2034L11.0582 12.4081L9.07828 8.91587L19.9015 6.81601L20.3357 7.10543L24.3712 6.33365L25.7462 7.25018L28.4613 6.70826L28.8961 6.05734L30.2235 5.7924L30.8748 6.22655L35.6415 5.27517L36.5099 5.85403L43.2068 4.54115L42.6755 6.25318L41.4687 6.49403L39.4408 7.96439L36.3032 8.59062L35.3854 9.96477L27.1192 11.6146L26.7328 12.1932L24.983 12.5425L25.1153 13.2055L21.3212 13.9292L23.7475 18.1438Z" fill="white" stroke="black" stroke-width="0.4" stroke-linecap="round"/>
<path d="M26.3533 9.6729L27.3732 8.14132L17.8274 10.027L16.0475 8.82684L11.988 9.62876L15.2936 11.8577L26.3533 9.6729Z" fill="black"/>
<path d="M10.9337 27.6421L10.0919 27.6422L6.2337 32.0798L5.02988 32.0758L1.00016 36.7106L3.23584 36.7181L10.9337 27.6421Z" stroke="black" stroke-width="0.4" stroke-linecap="round"/>
<path d="M17.6438 27.3804L16.9557 27.4284V31.9228L15.9688 32.5599V36.8375L17.8017 36.8505L17.6438 27.3804Z" stroke="black" stroke-width="0.4" stroke-linecap="round"/>
<path d="M23.1083 27.6421L23.9501 27.6422L27.8083 32.0798L29.0121 32.0758L33.0418 36.7106L30.8062 36.7181L23.1083 27.6421Z" stroke="black" stroke-width="0.4" stroke-linecap="round"/>
<path d="M43.0382 5.09519L42.7993 5.69232L38.5842 6.49042L38.0027 7.36151L33.2573 8.30736L34.2654 6.79746L43.0382 5.09519Z" fill="black"/>
<path d="M30.4004 8.99358L31.4084 7.48368L32.9609 7.1254L32.0055 8.55851L30.4004 8.99358Z" fill="black"/>
<path d="M27.7734 9.47137L28.7815 7.96147L30.334 7.6032L29.3786 9.0363L27.7734 9.47137Z" fill="black"/>
<path d="M24.2265 22.2982H9.82123C8.39028 22.2982 7.7449 20.5071 8.84699 19.5944C9.12096 19.3675 9.46552 19.2433 9.82123 19.2433H24.2265C24.6348 19.2433 25.0261 19.4068 25.3131 19.6973C26.2663 20.6622 25.5828 22.2982 24.2265 22.2982Z" stroke="black" stroke-width="0.4"/>
<path d="M24.2265 23.3699L9.82123 23.3699C8.39028 23.3699 7.7449 25.1611 8.84699 26.0738C9.12096 26.3006 9.46552 26.4248 9.82123 26.4248L24.2265 26.4248C24.6348 26.4248 25.0261 26.2613 25.3131 25.9709C26.2663 25.006 25.5828 23.3699 24.2265 23.3699Z" stroke="black" stroke-width="0.4"/>
<path d="M7.41406 24.8974H26.2016" stroke="black" stroke-width="0.4"/>
<circle cx="9.70628" cy="20.7731" r="0.458234" fill="black"/>
<circle cx="12.1506" cy="20.7731" r="0.458234" fill="black"/>
<circle cx="14.594" cy="20.7731" r="0.458234" fill="black"/>
<circle cx="17.0373" cy="20.7731" r="0.458234" fill="black"/>
<circle cx="19.4836" cy="20.7731" r="0.458234" fill="black"/>
<circle cx="21.927" cy="20.7731" r="0.458234" fill="black"/>
<circle cx="24.3694" cy="20.7731" r="0.458234" fill="black"/>
<path d="M9.55371 23.3699L9.55371 24.8974" stroke="black" stroke-width="0.4"/>
<path d="M11.9971 23.3699L11.9971 24.8974" stroke="black" stroke-width="0.4"/>
<path d="M14.4424 23.3699L14.4424 24.8974" stroke="black" stroke-width="0.4"/>
<path d="M16.8857 23.3699L16.8857 24.8974" stroke="black" stroke-width="0.4"/>
<path d="M19.6357 23.3699L19.6357 24.8974" stroke="black" stroke-width="0.4"/>
<path d="M22.0781 23.3699L22.0781 24.8974" stroke="black" stroke-width="0.4"/>
<path d="M24.5225 23.3699L24.5225 24.8974" stroke="black" stroke-width="0.4"/>
<rect x="14.5869" y="27.321" width="0.96727" height="0.96727" transform="rotate(-10.1051 14.5869 27.321)" fill="black"/>
<rect x="16.0645" y="27.0744" width="0.96727" height="0.96727" transform="rotate(-10.1051 16.0645 27.0744)" fill="black"/>
<rect x="17.543" y="26.828" width="0.96727" height="0.96727" transform="rotate(-10.1051 17.543 26.828)" fill="black"/>
</svg>
