<svg width="79" height="110" viewBox="0 0 79 110" fill="none" xmlns="http://www.w3.org/2000/svg">
<rect x="1.46777" y="40.1775" width="76.3548" height="69.3226" rx="4.5" stroke="#217DDA"/>
<path d="M66.0163 23.5618V23.5618C66.0163 11.1013 55.9151 1 43.4545 1H39.6454C25.0811 1 13.2744 12.8067 13.2744 27.371V39.6774" stroke="#217DDA"/>
<path fill-rule="evenodd" clip-rule="evenodd" d="M44.0403 79.8158C46.6676 78.2959 48.4351 75.4552 48.4351 72.2017C48.4351 67.3469 44.4996 63.4114 39.6448 63.4114C34.7901 63.4114 30.8545 67.3469 30.8545 72.2017C30.8545 75.4555 32.6224 78.2964 35.25 79.8162V85.3872C35.25 87.8146 37.2178 89.7824 39.6452 89.7824C42.0725 89.7824 44.0403 87.8146 44.0403 85.3872V79.8158Z" fill="#217DDA"/>
</svg>
