<svg width="115" height="111" viewBox="0 0 115 111" fill="none" xmlns="http://www.w3.org/2000/svg">
<path d="M114.968 54.4091C114.968 85.7539 92.3294 108.818 58.6159 108.818C27.4934 108.818 2.26367 84.4584 2.26367 54.4091C2.26367 24.3598 27.4934 0 58.6159 0C92.3294 0 114.968 24.3598 114.968 54.4091Z" fill="#217DDA"/>
<circle cx="55.9889" cy="55.0927" r="54.5211" fill="white" stroke="#217DDA"/>
<circle cx="55.9887" cy="55.0925" r="48.3091" stroke="#217DDA"/>
<path fill-rule="evenodd" clip-rule="evenodd" d="M57.2392 27.3394C57.5813 27.4053 57.8644 27.6446 57.9865 27.9709L64.4221 45.1717H75.3403C75.7576 45.1717 76.1311 45.4308 76.2771 45.8218L82.9557 63.7043C83.0704 64.0113 83.0273 64.3551 82.8405 64.6243C82.6536 64.8936 82.3466 65.0542 82.0189 65.0542H70.832L64.2404 72.2402L64.2401 72.24L54.7646 82.5957C54.5296 82.8525 54.178 82.9686 53.8363 82.9023C53.4946 82.836 53.212 82.5968 53.0901 82.2708L46.6544 65.0542H35.8993C35.482 65.0542 35.1085 64.795 34.9625 64.404L28.2839 46.5215C28.1692 46.2145 28.2123 45.8708 28.3992 45.6015C28.586 45.3323 28.893 45.1717 29.2207 45.1717H40.3448L56.3107 27.6478C56.5454 27.3903 56.8971 27.2734 57.2392 27.3394ZM64.1543 47.1717L56.743 55.2622L59.6531 63.0542H80.578L74.6463 47.1717H64.1543ZM55.9575 53.1589L62.573 45.937L56.6869 30.2046L43.0504 45.1717H52.2805C52.6978 45.1717 53.0713 45.4308 53.2173 45.8218L55.9575 53.1589ZM54.4409 54.8145L46.8929 63.0542H36.5933L30.6616 47.1717H51.5865L54.4409 54.8145ZM48.495 64.2661L55.2264 56.9178L58.0223 64.404C58.1683 64.795 58.5418 65.0542 58.9591 65.0542H68.118L62.7838 70.8694C62.7775 70.8759 62.7714 70.8825 62.7652 70.8891L54.3916 80.0406L48.495 64.2661Z" fill="#217DDA"/>
</svg>
