<svg width="30" height="33" viewBox="0 0 30 33" fill="none" xmlns="http://www.w3.org/2000/svg">
<path d="M20.6887 23.3031C20.4029 23.5928 20.1569 23.9111 19.9442 24.2478L10.5189 18.4501C10.7682 17.8178 10.9094 17.1302 10.9094 16.4089C10.9094 15.6875 10.7682 14.9999 10.5194 14.3676L19.9469 8.61416C20.9151 10.1552 22.6125 11.1822 24.5456 11.1822C27.5531 11.1822 30 8.7026 30 5.65481C30 2.60702 27.5531 0.127441 24.5456 0.127441C21.538 0.127441 19.0911 2.60702 19.0911 5.65481C19.0911 6.34905 19.2236 7.01122 19.4549 7.62366L10.0149 13.3848C9.03965 11.8792 7.36077 10.8815 5.45445 10.8815C2.44686 10.8815 0 13.3611 0 16.4089C0 19.4566 2.44686 21.9362 5.45445 21.9362C7.36077 21.9362 9.03911 20.9385 10.0144 19.4329L19.4527 25.2383C19.2182 25.8606 19.0906 26.5256 19.0906 27.2115C19.0906 28.6879 19.6578 30.0764 20.6882 31.1199C21.7512 32.1972 23.1481 32.7361 24.545 32.7361C25.9419 32.7361 27.3388 32.1972 28.4018 31.1199C29.4322 30.0758 29.9995 28.6879 29.9995 27.2115C29.9995 25.7352 29.4322 24.3467 28.4018 23.3031C26.2752 21.1475 22.8154 21.1475 20.6887 23.3031ZM24.5456 1.23291C26.9515 1.23291 28.9091 3.21669 28.9091 5.65481C28.9091 8.09293 26.9515 10.0767 24.5456 10.0767C22.1396 10.0767 20.182 8.09293 20.182 5.65481C20.182 3.21669 22.1391 1.23291 24.5456 1.23291ZM5.45499 20.8307C3.04904 20.8307 1.09143 18.847 1.09143 16.4089C1.09143 13.9707 3.04904 11.987 5.45499 11.987C7.86095 11.987 9.81855 13.9707 9.81855 16.4089C9.81855 18.847 7.86095 20.8307 5.45499 20.8307ZM27.6306 30.3384C25.9293 32.0624 23.1612 32.0624 21.46 30.3384C20.6358 29.5032 20.182 28.3922 20.182 27.2115C20.182 26.0309 20.6358 24.9199 21.46 24.0847C22.3109 23.2224 23.4279 22.7919 24.5456 22.7919C25.6632 22.7919 26.7802 23.2224 27.6311 24.0847C28.4553 24.9199 28.9091 26.0309 28.9091 27.2115C28.9091 28.3922 28.4553 29.5032 27.6306 30.3384Z" fill="black"/>
</svg>
