<svg width="32" height="33" viewBox="0 0 32 33" fill="none" xmlns="http://www.w3.org/2000/svg">
<path d="M18.6266 10.7941L14.0863 14.096C13.8479 14.2688 13.7951 14.6027 13.9685 14.8405C14.0725 14.9845 14.2351 15.0603 14.4005 15.0603C14.5093 15.0603 14.6186 15.0267 14.7135 14.9584L21.1733 10.2608L14.7135 5.56266C14.4746 5.38932 14.1413 5.44159 13.969 5.68052C13.7957 5.91839 13.8479 6.25226 14.0869 6.42506L18.6266 9.72746H12.2666C8.44365 9.72746 5.33325 12.8379 5.33325 16.6608C5.33325 16.9557 5.57165 17.1941 5.86659 17.1941C6.16152 17.1941 6.39992 16.9557 6.39992 16.6608C6.39992 13.4261 9.03192 10.7941 12.2666 10.7941H18.6266Z" fill="black"/>
<path d="M16 0.127441C7.1776 0.127441 0 7.30504 0 16.1274C0 24.9498 7.1776 32.1274 16 32.1274C24.8224 32.1274 32 24.9498 32 16.1274C32 7.30504 24.8224 0.127441 16 0.127441ZM16 31.0608C7.76587 31.0608 1.06667 24.3616 1.06667 16.1274C1.06667 7.89331 7.76587 1.19411 16 1.19411C24.2341 1.19411 30.9333 7.89331 30.9333 16.1274C30.9333 24.3616 24.2341 31.0608 16 31.0608Z" fill="black"/>
<path d="M25.5999 15.0608C25.3049 15.0608 25.0665 15.2992 25.0665 15.5941C25.0665 18.8288 22.4345 21.4608 19.1999 21.4608H12.8399L17.3801 18.1589C17.6185 17.9861 17.6713 17.6523 17.498 17.4144C17.3252 17.176 16.9919 17.1232 16.7535 17.2965L10.2932 21.9941L16.7529 26.6923C16.8479 26.7611 16.9572 26.7941 17.066 26.7941C17.2313 26.7941 17.3935 26.7179 17.498 26.5744C17.6713 26.3365 17.6191 26.0027 17.3801 25.8299L12.8399 22.5275H19.1999C23.0228 22.5275 26.1332 19.4171 26.1332 15.5941C26.1332 15.2992 25.8948 15.0608 25.5999 15.0608Z" fill="black"/>
</svg>
