<svg xmlns="http://www.w3.org/2000/svg" width="81" height="81" viewBox="0 0 81 81"><g transform="translate(-21152.5 -10446.544)"><circle cx="40.5" cy="40.5" r="40.5" transform="translate(21152.5 10446.544)" fill="none"/><path d="M0,41.746,12.853,6.511C14.484,2.4,17.524.069,21.566,0h.181c4.042.067,7.083,2.4,8.714,6.51L43.313,41.746l-7.959-2.77L24.375,8.877c-.668-1.665-1.44-2.264-2.719-2.291-1.279.026-2.05.626-2.719,2.291L7.959,38.977ZM27.249,28.329a5.517,5.517,0,1,1-5.517-5.573A5.545,5.545,0,0,1,27.249,28.329Z" transform="translate(21171.344 10466.171)" fill="#e1ebff" fill-rule="evenodd"/></g></svg>