<svg xmlns="http://www.w3.org/2000/svg" width="81" height="81" viewBox="0 0 81 81"><g transform="translate(-21152 -10750.833)"><circle cx="40.5" cy="40.5" r="40.5" transform="translate(21152 10750.833)" fill="none"/><path d="M19.743,45.58h0L0,34.186V11.395L19.743,0,39.487,11.395V34.186L19.743,45.58ZM10.129,20.495h0L4.906,24.373l7.082,12.345h2.848L18.2,33.592V32.009l-3.481-3.324V23.423l-4.589-2.929Zm19.267-.04h0l-4.549,2.968v5.262l-3.481,3.324v1.582l3.362,3.085h2.809l7.044-12.3L29.4,20.455ZM14.718,18.993l1.7,4.431-.513,4.946h7.675l-.475-4.946,1.661-4.431Zm-2.769-9.14-1.82,7.913H29.356L27.5,9.852H11.948Z" transform="translate(21172.346 10769.041)" fill="#e1ebff" stroke="rgba(0,0,0,0)" stroke-miterlimit="10" stroke-width="1"/></g></svg>