<svg xmlns="http://www.w3.org/2000/svg" width="81" height="81" viewBox="0 0 81 81"><g transform="translate(-21504 -10598.544)"><circle cx="40.5" cy="40.5" r="40.5" transform="translate(21504 10598.544)" fill="none"/><g transform="translate(23191.223 5569.328)"><path d="M41.1,4.947a.34.34,0,0,1,.246.3v.018c.063.946,2.273,34.037-20.528,41.8a.265.265,0,0,1-.2,0C-2.4,39.226.059,5.582.09,5.244a.317.317,0,0,1,.246-.287l20.3-4.95a.387.387,0,0,1,.154,0ZM20.719,42.885a.253.253,0,0,0,.082-.01C39.72,36.439,37.692,8.78,37.662,8.5a.272.272,0,0,0-.205-.236L20.771,4.2a.249.249,0,0,0-.123,0L3.962,8.267a.262.262,0,0,0-.2.236c-.02.277-2.038,27.935,16.87,34.371A.282.282,0,0,0,20.719,42.885ZM31.463,13.194a.173.173,0,0,1,.132.154c.015.179,1.313,17.926-10.821,22.06a.165.165,0,0,1-.056.01.169.169,0,0,1-.057-.01C8.528,31.274,9.826,13.527,9.841,13.348a.174.174,0,0,1,.131-.154l10.7-2.608a.153.153,0,0,1,.082,0Z" transform="translate(-1667.441 5048.173)" fill="#e1ebff" fill-rule="evenodd"/></g></g></svg>