<svg xmlns="http://www.w3.org/2000/svg" width="81" height="81" viewBox="0 0 81 81"><g transform="translate(-21327.5 -10446.544)"><circle cx="40.5" cy="40.5" r="40.5" transform="translate(21327.5 10446.544)" fill="none"/><path d="M46.776,0H28.259V24.979h25V6.463A6.494,6.494,0,0,0,46.8,0h-.02Z" transform="translate(21335.08 10467.036)" fill="#e1ebff"/><path d="M9.655,0H6.464A6.5,6.5,0,0,0,0,6.463V9.654H9.655Z" transform="translate(21347.912 10467.036)" fill="#e1ebff"/><path d="M0,28.259H9.655v9.654H0Z" transform="translate(21347.912 10454.203)" fill="#e1ebff"/><path d="M56.519,66.092H59.71a6.494,6.494,0,0,0,6.464-6.463v-3.11H56.519Z" transform="translate(21322.248 10441.371)" fill="#e1ebff"/><path d="M28.259,56.519h9.655v9.654H28.259Z" transform="translate(21335.08 10441.371)" fill="#e1ebff"/><path d="M0,56.519V59.71a6.5,6.5,0,0,0,6.464,6.463H9.655V56.519Z" transform="translate(21347.912 10441.371)" fill="#e1ebff"/></g></svg>