<svg xmlns="http://www.w3.org/2000/svg" width="81" height="81" viewBox="0 0 81 81"><g transform="translate(-21504 -10446.544)"><circle cx="40.5" cy="40.5" r="40.5" transform="translate(21504 10446.544)" fill="none"/><g transform="translate(21482.254 10414.992)"><path d="M65.807,80.366a4.9,4.9,0,0,1-6.993,0L54.356,75.86a3.051,3.051,0,0,0-4.352,0,5.049,5.049,0,0,0,0,7.079l8.824,8.906a4.9,4.9,0,0,0,6.993,0l8.8-8.918a5.049,5.049,0,0,0,0-7.079,3.051,3.051,0,0,0-4.352,0l-4.463,4.517ZM49.082,64.682a4.728,4.728,0,0,1,6.743-.071l4.252,4.3a2.94,2.94,0,0,0,4.193-.043,4.867,4.867,0,0,0,.063-6.831l-8.4-8.5a4.728,4.728,0,0,0-6.743.071l-8.565,8.679a4.867,4.867,0,0,0-.063,6.831,2.94,2.94,0,0,0,4.193-.043Z" transform="translate(0 -0.486)" fill="#e1ebff"/><path d="M117.928,64a4.728,4.728,0,0,1,6.743-.071l4.252,4.3a2.94,2.94,0,0,0,4.193-.043,4.867,4.867,0,0,0,.063-6.831l-8.408-8.5a4.728,4.728,0,0,0-6.743.071l-8.565,8.679a4.867,4.867,0,0,0-.063,6.831,2.94,2.94,0,0,0,4.193-.043L117.928,64Z" transform="translate(-49.246)" fill="#e1ebff"/></g></g></svg>