<svg xmlns="http://www.w3.org/2000/svg" width="81.346" height="81.346" viewBox="0 0 81.346 81.346"><g transform="translate(-21327.154 -10598.198)"><path d="M40.672,0A40.673,40.673,0,1,0,81.346,40.673,40.673,40.673,0,0,0,40.672,0" transform="translate(21327.154 10598.198)" fill="none"/><path d="M40.672,66.285c-13.727,0-25.548-11.122-25.548-24.912a28.334,28.334,0,0,1,1.716-9.787l10.995,4.7a21.517,21.517,0,0,0-.7,4.512c.445,8.008,6.482,13.409,13.537,13.409a15.861,15.861,0,0,0,2.987-.318L49.887,64.5a25.288,25.288,0,0,1-9.215,1.783" transform="translate(21327.154 10598.198)" fill="#e1ebff"/><path d="M64.25,50.842,36.414,39.021l17.858-.127c-.636-6.482-7.308-11.757-13.6-11.757a13.5,13.5,0,0,0-4.194.7L30.313,17.35a25.3,25.3,0,0,1,10.359-2.224c13.727,0,25.484,11.376,25.484,25.167a24.9,24.9,0,0,1-1.907,10.55Z" transform="translate(21327.154 10598.198)" fill="#e1ebff"/><rect width="81.346" height="81.346" transform="translate(21327.154 10598.198)" fill="none"/></g></svg>