<svg xmlns="http://www.w3.org/2000/svg" width="81" height="81" viewBox="0 0 81 81"><g transform="translate(-21677.5 -10446.544)"><circle cx="40.5" cy="40.5" r="40.5" transform="translate(21677.5 10446.544)" fill="none"/><path d="M16.394,0A11.8,11.8,0,0,0,4.589,11.805V16.23C2.3,16.644,0,17.2,0,17.915v23.09a1.088,1.088,0,0,0,.718.942C3.318,43,13.55,46.621,15.9,47.451a1.175,1.175,0,0,0,.467.112,1.081,1.081,0,0,0,.467-.112c2.35-.83,12.608-4.451,15.209-5.5a1.1,1.1,0,0,0,.691-.915V17.915c0-.718-2.265-1.3-4.563-1.686V11.805A11.772,11.772,0,0,0,16.394,0Zm0,5.643c3.845,0,6.169,2.324,6.169,6.169v3.845a83.8,83.8,0,0,0-12.332,0V11.812C10.232,7.96,12.556,5.643,16.394,5.643Zm-.026,15.677c5.366,0,9.869.415,9.869,1.159V36.884c0,.224-.026.25-.224.329s-9.152,3.318-9.152,3.318a3.064,3.064,0,0,1-.467.112,2.433,2.433,0,0,1-.467-.138s-8.961-3.233-9.152-3.318-.224-.112-.224-.329V22.452C6.5,21.708,11,21.319,16.368,21.319Z" transform="translate(21701.732 10463.263)" fill="#e1ebff"/></g></svg>