<svg width="32" height="33" viewBox="0 0 32 33" fill="none" xmlns="http://www.w3.org/2000/svg">
<path d="M26.276 0.127441H24.6667H6H0V32.7941H4.66667H26.6667H32V5.85144L26.276 0.127441ZM23.3333 1.46077V10.7941H7.33333V1.46077H23.3333ZM6 31.4608V18.7941H25.3333V31.4608H6ZM30.6667 31.4608H26.6667V17.4608H4.66667V31.4608H1.33333V1.46077H6V12.1274H24.6667V1.46077H25.724L30.6667 6.40344V31.4608Z" fill="black"/>
<path d="M8.66667 22.1275H13.3333C13.702 22.1275 14 21.8295 14 21.4609C14 21.0922 13.702 20.7942 13.3333 20.7942H8.66667C8.298 20.7942 8 21.0922 8 21.4609C8 21.8295 8.298 22.1275 8.66667 22.1275Z" fill="black"/>
<path d="M15.3333 23.4607H8.66667C8.298 23.4607 8 23.7587 8 24.1274C8 24.496 8.298 24.794 8.66667 24.794H15.3333C15.702 24.794 16 24.496 16 24.1274C16 23.7587 15.702 23.4607 15.3333 23.4607Z" fill="black"/>
<path d="M16.8601 23.654C16.7394 23.78 16.6667 23.954 16.6667 24.1273C16.6667 24.3007 16.7394 24.474 16.8601 24.6007C16.9861 24.7207 17.1527 24.794 17.3334 24.794C17.5067 24.794 17.6801 24.7207 17.8067 24.6007C17.9267 24.474 18.0001 24.3007 18.0001 24.1273C18.0001 23.954 17.9267 23.78 17.8067 23.654C17.5601 23.4073 17.1067 23.4073 16.8601 23.654Z" fill="black"/>
<path d="M22 2.79419H18V9.46086H22V2.79419ZM20.6667 8.12752H19.3333V4.12752H20.6667V8.12752Z" fill="black"/>
</svg>
