<svg width="32" height="33" viewBox="0 0 32 33" fill="none" xmlns="http://www.w3.org/2000/svg">
<path d="M30.6613 14.5274H28.8V11.1845C28.8 10.3813 28.1461 9.72744 27.3429 9.72744H25.6V8.43998L25.336 8.17597C25.3355 8.17597 25.3355 8.17544 25.3355 8.17491L21.4443 4.28371L17.2875 0.127441H4.26667V5.99411H1.45707C0.653867 5.99411 0 6.64798 0 7.45118V30.7509H0.0032C0.000533333 31.0512 0.0938667 31.345 0.2816 31.5909C0.542933 31.9322 0.938667 32.1274 1.368 32.1274H25.2395C25.856 32.1274 26.3989 31.712 26.5461 31.1605L32 16.2069V16.1125C32 15.1941 31.4368 14.5274 30.6613 14.5274ZM27.3429 10.7941C27.5579 10.7941 27.7333 10.969 27.7333 11.1845V14.5274H25.6V10.7941H27.3429ZM17.6 1.94877L23.7792 8.12744H17.6V1.94877ZM5.33333 1.19411H16.5333V9.19411H24.5333V9.72744V14.5274H6.78987C6.7136 14.5274 6.6384 14.5338 6.5648 14.5461C6.04533 14.6325 5.61227 15.0112 5.4832 15.4944L5.33333 15.9061V5.99411V1.19411ZM1.06667 7.45118C1.06667 7.23571 1.24213 7.06078 1.45707 7.06078H4.26667V18.8128L1.06667 27.5402V7.45118ZM25.5301 30.8384C25.4949 30.969 25.3755 31.0608 25.2395 31.0608H1.368C1.2384 31.0608 1.16267 30.9866 1.12907 30.9424C1.09547 30.8986 1.04373 30.8058 1.06347 30.7248L4.26667 21.9397V21.9424L6.48533 15.8602L6.4992 15.8165C6.5344 15.6858 6.6544 15.5941 6.78987 15.5941H24.5333H25.6H28.8H30.6613C30.864 15.5941 30.9157 15.8853 30.9291 16.0309L25.5301 30.8384Z" fill="black"/>
<path d="M8.53333 9.19411H13.8667C14.1611 9.19411 14.4 8.95571 14.4 8.66077C14.4 8.36584 14.1611 8.12744 13.8667 8.12744H8.53333C8.23893 8.12744 8 8.36584 8 8.66077C8 8.95571 8.23893 9.19411 8.53333 9.19411Z" fill="black"/>
<path d="M8.53333 5.46071H13.8667C14.1611 5.46071 14.4 5.22231 14.4 4.92738C14.4 4.63244 14.1611 4.39404 13.8667 4.39404H8.53333C8.23893 4.39404 8 4.63244 8 4.92738C8 5.22231 8.23893 5.46071 8.53333 5.46071Z" fill="black"/>
<path d="M8.53333 12.9275H21.3333C21.6277 12.9275 21.8667 12.6891 21.8667 12.3942C21.8667 12.0992 21.6277 11.8608 21.3333 11.8608H8.53333C8.23893 11.8608 8 12.0992 8 12.3942C8 12.6891 8.23893 12.9275 8.53333 12.9275Z" fill="black"/>
</svg>
