<svg width="32" height="40" viewBox="0 0 32 40" fill="none" xmlns="http://www.w3.org/2000/svg">
<path d="M32 4.0459H7.46667V8.61733H3.73333V13.1888H0V35.3928H24.5333V30.8214H28.2667V26.25H32V4.0459ZM23.4667 34.0867H1.06667V14.4949H3.73333V30.8214H23.4667V34.0867ZM27.2 29.5153H24.5333H21.3333H18.1333H14.9333H11.7333H8.53333H5.33333H4.8V28.8622V24.9439V21.0255V17.1071V13.1888V9.92345H7.46667V11.2296V15.1479V19.0663V22.9847V26.25H10.1333H13.3333H16.5333H19.7333H22.9333H26.1333H27.2V29.5153ZM30.9333 24.9439H28.2667H8.53333V8.61733V5.35202H30.9333V24.9439Z" fill="black"/>
<path d="M18.1334 29.5154C18.428 29.5154 18.6668 29.223 18.6668 28.8623C18.6668 28.5016 18.428 28.2092 18.1334 28.2092C17.8389 28.2092 17.6001 28.5016 17.6001 28.8623C17.6001 29.223 17.8389 29.5154 18.1334 29.5154Z" fill="black"/>
<path d="M19.7333 27.5561C20.0278 27.5561 20.2666 27.2637 20.2666 26.9031C20.2666 26.5424 20.0278 26.25 19.7333 26.25C19.4387 26.25 19.2 26.5424 19.2 26.9031C19.2 27.2637 19.4387 27.5561 19.7333 27.5561Z" fill="black"/>
<path d="M21.3334 29.5154C21.6279 29.5154 21.8667 29.223 21.8667 28.8623C21.8667 28.5016 21.6279 28.2092 21.3334 28.2092C21.0388 28.2092 20.8 28.5016 20.8 28.8623C20.8 29.223 21.0388 29.5154 21.3334 29.5154Z" fill="black"/>
<path d="M24.5333 29.5154C24.8279 29.5154 25.0667 29.223 25.0667 28.8623C25.0667 28.5016 24.8279 28.2092 24.5333 28.2092C24.2388 28.2092 24 28.5016 24 28.8623C24 29.223 24.2388 29.5154 24.5333 29.5154Z" fill="black"/>
<path d="M22.9332 27.5561C23.2278 27.5561 23.4666 27.2637 23.4666 26.9031C23.4666 26.5424 23.2278 26.25 22.9332 26.25C22.6387 26.25 22.3999 26.5424 22.3999 26.9031C22.3999 27.2637 22.6387 27.5561 22.9332 27.5561Z" fill="black"/>
<path d="M26.1334 27.5561C26.428 27.5561 26.6668 27.2637 26.6668 26.9031C26.6668 26.5424 26.428 26.25 26.1334 26.25C25.8389 26.25 25.6001 26.5424 25.6001 26.9031C25.6001 27.2637 25.8389 27.5561 26.1334 27.5561Z" fill="black"/>
<path d="M14.9332 29.5154C15.2278 29.5154 15.4666 29.223 15.4666 28.8623C15.4666 28.5016 15.2278 28.2092 14.9332 28.2092C14.6387 28.2092 14.3999 28.5016 14.3999 28.8623C14.3999 29.223 14.6387 29.5154 14.9332 29.5154Z" fill="black"/>
<path d="M16.5333 27.5561C16.8279 27.5561 17.0667 27.2637 17.0667 26.9031C17.0667 26.5424 16.8279 26.25 16.5333 26.25C16.2388 26.25 16 26.5424 16 26.9031C16 27.2637 16.2388 27.5561 16.5333 27.5561Z" fill="black"/>
<path d="M5.33338 29.5154C5.62793 29.5154 5.86672 29.223 5.86672 28.8623C5.86672 28.5016 5.62793 28.2092 5.33338 28.2092C5.03883 28.2092 4.80005 28.5016 4.80005 28.8623C4.80005 29.223 5.03883 29.5154 5.33338 29.5154Z" fill="black"/>
<path d="M5.33338 25.5969C5.62793 25.5969 5.86672 25.3045 5.86672 24.9438C5.86672 24.5832 5.62793 24.2908 5.33338 24.2908C5.03883 24.2908 4.80005 24.5832 4.80005 24.9438C4.80005 25.3045 5.03883 25.5969 5.33338 25.5969Z" fill="black"/>
<path d="M6.93324 27.5561C7.22779 27.5561 7.46657 27.2637 7.46657 26.9031C7.46657 26.5424 7.22779 26.25 6.93324 26.25C6.63868 26.25 6.3999 26.5424 6.3999 26.9031C6.3999 27.2637 6.63868 27.5561 6.93324 27.5561Z" fill="black"/>
<path d="M6.93324 23.6377C7.22779 23.6377 7.46657 23.3453 7.46657 22.9846C7.46657 22.6239 7.22779 22.3315 6.93324 22.3315C6.63868 22.3315 6.3999 22.6239 6.3999 22.9846C6.3999 23.3453 6.63868 23.6377 6.93324 23.6377Z" fill="black"/>
<path d="M8.53333 29.5154C8.82789 29.5154 9.06667 29.223 9.06667 28.8623C9.06667 28.5016 8.82789 28.2092 8.53333 28.2092C8.23878 28.2092 8 28.5016 8 28.8623C8 29.223 8.23878 29.5154 8.53333 29.5154Z" fill="black"/>
<path d="M11.7333 29.5154C12.0278 29.5154 12.2666 29.223 12.2666 28.8623C12.2666 28.5016 12.0278 28.2092 11.7333 28.2092C11.4387 28.2092 11.2 28.5016 11.2 28.8623C11.2 29.223 11.4387 29.5154 11.7333 29.5154Z" fill="black"/>
<path d="M10.1334 27.5561C10.428 27.5561 10.6668 27.2637 10.6668 26.9031C10.6668 26.5424 10.428 26.25 10.1334 26.25C9.83888 26.25 9.6001 26.5424 9.6001 26.9031C9.6001 27.2637 9.83888 27.5561 10.1334 27.5561Z" fill="black"/>
<path d="M13.3334 27.5561C13.6279 27.5561 13.8667 27.2637 13.8667 26.9031C13.8667 26.5424 13.6279 26.25 13.3334 26.25C13.0388 26.25 12.8 26.5424 12.8 26.9031C12.8 27.2637 13.0388 27.5561 13.3334 27.5561Z" fill="black"/>
<path d="M5.33338 21.6784C5.62793 21.6784 5.86672 21.3861 5.86672 21.0254C5.86672 20.6647 5.62793 20.3723 5.33338 20.3723C5.03883 20.3723 4.80005 20.6647 4.80005 21.0254C4.80005 21.3861 5.03883 21.6784 5.33338 21.6784Z" fill="black"/>
<path d="M5.33338 17.7602C5.62793 17.7602 5.86672 17.4678 5.86672 17.1072C5.86672 16.7465 5.62793 16.4541 5.33338 16.4541C5.03883 16.4541 4.80005 16.7465 4.80005 17.1072C4.80005 17.4678 5.03883 17.7602 5.33338 17.7602Z" fill="black"/>
<path d="M6.93324 19.7195C7.22779 19.7195 7.46657 19.4271 7.46657 19.0664C7.46657 18.7057 7.22779 18.4133 6.93324 18.4133C6.63868 18.4133 6.3999 18.7057 6.3999 19.0664C6.3999 19.4271 6.63868 19.7195 6.93324 19.7195Z" fill="black"/>
<path d="M6.93324 15.801C7.22779 15.801 7.46657 15.5086 7.46657 15.1479C7.46657 14.7873 7.22779 14.4949 6.93324 14.4949C6.63868 14.4949 6.3999 14.7873 6.3999 15.1479C6.3999 15.5086 6.63868 15.801 6.93324 15.801Z" fill="black"/>
<path d="M5.33338 13.8418C5.62793 13.8418 5.86672 13.5494 5.86672 13.1887C5.86672 12.828 5.62793 12.5356 5.33338 12.5356C5.03883 12.5356 4.80005 12.828 4.80005 13.1887C4.80005 13.5494 5.03883 13.8418 5.33338 13.8418Z" fill="black"/>
<path d="M6.93324 11.8825C7.22779 11.8825 7.46657 11.5902 7.46657 11.2295C7.46657 10.8688 7.22779 10.5764 6.93324 10.5764C6.63868 10.5764 6.3999 10.8688 6.3999 11.2295C6.3999 11.5902 6.63868 11.8825 6.93324 11.8825Z" fill="black"/>
</svg>
