<svg width="32" height="32" viewBox="0 0 32 32" fill="none" xmlns="http://www.w3.org/2000/svg">
<path d="M5.59995 3.32739C4.27675 3.32739 3.19995 4.40419 3.19995 5.72739C3.19995 7.05059 4.27675 8.12739 5.59995 8.12739C6.92315 8.12739 7.99995 7.05059 7.99995 5.72739C7.99995 4.40419 6.92315 3.32739 5.59995 3.32739ZM5.59995 7.06073C4.86502 7.06073 4.26662 6.46286 4.26662 5.72739C4.26662 4.99193 4.86502 4.39406 5.59995 4.39406C6.33488 4.39406 6.93328 4.99193 6.93328 5.72739C6.93328 6.46286 6.33488 7.06073 5.59995 7.06073Z" fill="black"/>
<path d="M26.6666 5.46071C26.9612 5.46071 27.2 5.22193 27.2 4.92738C27.2 4.63282 26.9612 4.39404 26.6666 4.39404C26.3721 4.39404 26.1333 4.63282 26.1333 4.92738C26.1333 5.22193 26.3721 5.46071 26.6666 5.46071Z" fill="black"/>
<path d="M24.5333 5.46071C24.8279 5.46071 25.0667 5.22193 25.0667 4.92738C25.0667 4.63282 24.8279 4.39404 24.5333 4.39404C24.2388 4.39404 24 4.63282 24 4.92738C24 5.22193 24.2388 5.46071 24.5333 5.46071Z" fill="black"/>
<path d="M27.7333 7.06081C28.0278 7.06081 28.2666 6.82203 28.2666 6.52747C28.2666 6.23292 28.0278 5.99414 27.7333 5.99414C27.4387 5.99414 27.2 6.23292 27.2 6.52747C27.2 6.82203 27.4387 7.06081 27.7333 7.06081Z" fill="black"/>
<path d="M25.6 7.06081C25.8945 7.06081 26.1333 6.82203 26.1333 6.52747C26.1333 6.23292 25.8945 5.99414 25.6 5.99414C25.3054 5.99414 25.0667 6.23292 25.0667 6.52747C25.0667 6.82203 25.3054 7.06081 25.6 7.06081Z" fill="black"/>
<path d="M22.4 5.46071C22.6946 5.46071 22.9334 5.22193 22.9334 4.92738C22.9334 4.63282 22.6946 4.39404 22.4 4.39404C22.1055 4.39404 21.8667 4.63282 21.8667 4.92738C21.8667 5.22193 22.1055 5.46071 22.4 5.46071Z" fill="black"/>
<path d="M23.4667 7.06081C23.7612 7.06081 24 6.82203 24 6.52747C24 6.23292 23.7612 5.99414 23.4667 5.99414C23.1721 5.99414 22.9333 6.23292 22.9333 6.52747C22.9333 6.82203 23.1721 7.06081 23.4667 7.06081Z" fill="black"/>
<path d="M20.2667 5.46071C20.5613 5.46071 20.8001 5.22193 20.8001 4.92738C20.8001 4.63282 20.5613 4.39404 20.2667 4.39404C19.9722 4.39404 19.7334 4.63282 19.7334 4.92738C19.7334 5.22193 19.9722 5.46071 20.2667 5.46071Z" fill="black"/>
<path d="M21.3334 7.06081C21.6279 7.06081 21.8667 6.82203 21.8667 6.52747C21.8667 6.23292 21.6279 5.99414 21.3334 5.99414C21.0388 5.99414 20.8 6.23292 20.8 6.52747C20.8 6.82203 21.0388 7.06081 21.3334 7.06081Z" fill="black"/>
<path d="M18.1334 5.46071C18.428 5.46071 18.6668 5.22193 18.6668 4.92738C18.6668 4.63282 18.428 4.39404 18.1334 4.39404C17.8389 4.39404 17.6001 4.63282 17.6001 4.92738C17.6001 5.22193 17.8389 5.46071 18.1334 5.46071Z" fill="black"/>
<path d="M19.2001 7.06081C19.4946 7.06081 19.7334 6.82203 19.7334 6.52747C19.7334 6.23292 19.4946 5.99414 19.2001 5.99414C18.9055 5.99414 18.6667 6.23292 18.6667 6.52747C18.6667 6.82203 18.9055 7.06081 19.2001 7.06081Z" fill="black"/>
<path d="M5.59995 13.4607C4.27675 13.4607 3.19995 14.5375 3.19995 15.8607C3.19995 17.1839 4.27675 18.2607 5.59995 18.2607C6.92315 18.2607 7.99995 17.1839 7.99995 15.8607C7.99995 14.5375 6.92315 13.4607 5.59995 13.4607ZM5.59995 17.194C4.86502 17.194 4.26662 16.5962 4.26662 15.8607C4.26662 15.1252 4.86502 14.5274 5.59995 14.5274C6.33488 14.5274 6.93328 15.1252 6.93328 15.8607C6.93328 16.5962 6.33488 17.194 5.59995 17.194Z" fill="black"/>
<path d="M5.59995 23.594C4.27675 23.594 3.19995 24.6708 3.19995 25.994C3.19995 27.3172 4.27675 28.394 5.59995 28.394C6.92315 28.394 7.99995 27.3172 7.99995 25.994C7.99995 24.6708 6.92315 23.594 5.59995 23.594ZM5.59995 27.3273C4.86502 27.3273 4.26662 26.7295 4.26662 25.994C4.26662 25.2585 4.86502 24.6607 5.59995 24.6607C6.33488 24.6607 6.93328 25.2585 6.93328 25.994C6.93328 26.7295 6.33488 27.3273 5.59995 27.3273Z" fill="black"/>
<path d="M32 8.86984V2.58504C32 1.22984 30.8976 0.127441 29.5424 0.127441H2.4576C1.1024 0.127441 0 1.22984 0 2.58504V8.86931C0 9.65277 0.374933 10.3434 0.947733 10.7936C0.374933 11.2442 0 11.9354 0 12.7184V19.0026C0 19.7861 0.374933 20.4768 0.947733 20.9269C0.374933 21.3776 0 22.0688 0 22.8517V29.136C0 30.4912 1.1024 31.5936 2.4576 31.5936H17.3243C18.7547 31.857 20.3227 31.9936 21.8667 31.9936C26.4917 31.9936 31.3685 30.7941 31.944 28.4986C31.9797 28.4277 32 28.3466 32 28.2608V23.4608V23.2608V23.0608V18.6608V18.4608V18.2608V13.6608V13.4608C32 13.3808 31.9803 13.3066 31.9488 13.2389C31.7637 12.4581 31.0699 11.8005 30.0491 11.2736C31.1616 11.0394 32 10.0512 32 8.86984ZM1.06667 19.0032V12.7184C1.06667 11.9514 1.69067 11.3274 2.4576 11.3274H13.5829C12.6181 11.8453 11.9632 12.4842 11.7845 13.2389C11.7531 13.3072 11.7333 13.3808 11.7333 13.4608V13.6608V18.2608V18.4608V18.6608V20.3941H2.4576C1.69067 20.3941 1.06667 19.7701 1.06667 19.0032ZM13.1339 15.7301C13.1579 15.7456 13.1835 15.761 13.208 15.7765C13.3019 15.8352 13.3995 15.8928 13.5013 15.9493C13.5307 15.9653 13.5589 15.9818 13.5883 15.9973C13.7125 16.064 13.8416 16.129 13.976 16.1914C13.9973 16.2016 14.0203 16.2112 14.0416 16.2208C14.1595 16.2746 14.2805 16.3264 14.4053 16.377C14.4421 16.392 14.4784 16.4069 14.5152 16.4213C14.6624 16.4789 14.8123 16.5354 14.9675 16.5888C14.976 16.5914 14.9845 16.5941 14.9931 16.5973C15.1413 16.648 15.2939 16.6965 15.4491 16.7434C15.4907 16.7562 15.5328 16.7685 15.5749 16.7808C15.7285 16.8256 15.8843 16.8693 16.0437 16.9109C16.0565 16.9141 16.0688 16.9178 16.0816 16.921C16.2533 16.9653 16.4288 17.0064 16.6069 17.0464C16.6517 17.0565 16.6971 17.0661 16.7419 17.0757C16.8944 17.1088 17.0485 17.1402 17.2043 17.1701C17.2352 17.176 17.2661 17.1824 17.2971 17.1882C17.48 17.2224 17.6651 17.2538 17.8523 17.2837C17.8965 17.2906 17.9419 17.2976 17.9861 17.3045C18.1413 17.3285 18.2976 17.3509 18.4555 17.3717C18.4987 17.3776 18.5413 17.3834 18.5851 17.3888C18.776 17.4128 18.968 17.4352 19.1616 17.4554C19.2005 17.4597 19.24 17.4629 19.2789 17.4666C19.4416 17.4826 19.6053 17.497 19.7691 17.5104C19.8187 17.5141 19.8677 17.5184 19.9173 17.5221C20.1131 17.5365 20.3099 17.5493 20.5067 17.5594C20.5344 17.561 20.5627 17.5616 20.5909 17.5632C20.7643 17.5717 20.9381 17.5781 21.112 17.5829C21.1643 17.5845 21.2165 17.5861 21.2693 17.5872C21.4683 17.5914 21.6672 17.5946 21.8656 17.5946C22.064 17.5946 22.2629 17.5914 22.4619 17.5872C22.5141 17.5861 22.5664 17.5845 22.6192 17.5829C22.7931 17.5781 22.9664 17.5717 23.1403 17.5632C23.1685 17.5616 23.1963 17.561 23.2245 17.5594C23.4213 17.5493 23.6181 17.5365 23.8139 17.5221C23.8635 17.5184 23.9125 17.5146 23.9621 17.5104C24.1264 17.4976 24.2896 17.4826 24.4523 17.4666C24.4912 17.4629 24.5307 17.4592 24.5696 17.4554C24.7632 17.4352 24.9552 17.4133 25.1461 17.3888C25.1893 17.3834 25.2325 17.3776 25.2757 17.3717C25.4331 17.3509 25.5899 17.3285 25.7451 17.3045C25.7899 17.2976 25.8347 17.2912 25.8789 17.2837C26.0661 17.2538 26.2512 17.2224 26.4341 17.1882C26.4656 17.1824 26.496 17.176 26.5269 17.1701C26.6832 17.1402 26.8373 17.1088 26.9893 17.0757C27.0347 17.0656 27.0795 17.056 27.1243 17.0464C27.3019 17.0064 27.4779 16.9653 27.6496 16.921C27.6624 16.9178 27.6747 16.9141 27.6875 16.9109C27.8469 16.8698 28.0027 16.8261 28.1563 16.7808C28.1984 16.7685 28.2405 16.7562 28.2821 16.7434C28.4373 16.6965 28.5899 16.648 28.7381 16.5973C28.7467 16.5946 28.7552 16.592 28.7637 16.5888C28.9189 16.5349 29.0693 16.4789 29.216 16.4213C29.2533 16.4069 29.2896 16.392 29.3259 16.377C29.4507 16.3264 29.5717 16.2746 29.6896 16.2208C29.7115 16.2106 29.7339 16.2016 29.7552 16.1914C29.8896 16.129 30.0181 16.064 30.1429 15.9973C30.1728 15.9813 30.2011 15.9653 30.2299 15.9493C30.3312 15.8933 30.4288 15.8357 30.5232 15.7765C30.5477 15.761 30.5733 15.7461 30.5973 15.7301C30.7077 15.6586 30.8123 15.585 30.9115 15.5093C30.9179 15.5045 30.9253 15.5002 30.9317 15.4954V18.1557C30.9189 18.2176 30.9104 18.2805 30.9205 18.344C30.928 18.3829 30.9333 18.4213 30.9333 18.4608C30.9333 18.5194 30.9168 18.5792 30.9024 18.6384C30.8912 18.6842 30.8768 18.7306 30.8576 18.7765C30.8405 18.8165 30.8192 18.857 30.7957 18.897C30.7728 18.937 30.7477 18.9776 30.7189 19.0176C30.6779 19.073 30.6315 19.1285 30.5787 19.184C30.5589 19.2053 30.5392 19.2266 30.5179 19.248C29.3888 20.3402 26.0571 21.3269 21.8672 21.3269C17.68 21.3269 14.3499 20.3413 13.2187 19.2496C13.1952 19.2261 13.1739 19.2032 13.1525 19.1797C13.1024 19.1264 13.0571 19.073 13.0176 19.0197C12.9872 18.9776 12.9605 18.9354 12.9365 18.8928C12.9147 18.8549 12.8944 18.817 12.8779 18.7786C12.8571 18.7301 12.8427 18.6821 12.8309 18.6341C12.8165 18.5765 12.8 18.5184 12.8 18.4608C12.8 18.4229 12.8048 18.385 12.8112 18.3477C12.8224 18.2784 12.8155 18.209 12.8 18.1424V15.4949C12.8064 15.4997 12.8139 15.504 12.8203 15.5088C12.9189 15.5845 13.0235 15.6581 13.1339 15.7301ZM30.8571 23.5765C30.84 23.6165 30.8187 23.657 30.7952 23.697C30.7723 23.737 30.7472 23.7776 30.7184 23.8176C30.6773 23.873 30.6309 23.9285 30.5781 23.984C30.5584 24.0053 30.5387 24.0266 30.5173 24.048C29.3883 25.1402 26.0565 26.1269 21.8667 26.1269C17.6795 26.1269 14.3493 25.1413 13.2181 24.0496C13.1947 24.0261 13.1733 24.0032 13.152 23.9797C13.1019 23.9264 13.0565 23.873 13.0171 23.8197C12.9867 23.7776 12.96 23.7354 12.936 23.6928C12.9141 23.6549 12.8939 23.617 12.8773 23.5786C12.8565 23.5301 12.8421 23.4821 12.8304 23.4341C12.8181 23.384 12.8053 23.3333 12.8037 23.2832V23.2192C12.8059 23.1952 12.8069 23.1712 12.8107 23.1472C12.8181 23.1013 12.808 23.0565 12.8032 23.0112L12.8 20.3941V20.2949C12.8213 20.3114 12.8464 20.3269 12.8688 20.3429C12.936 20.393 13.0064 20.4421 13.0784 20.4906C13.1371 20.5296 13.1979 20.568 13.2597 20.6064C13.3552 20.665 13.4512 20.7232 13.5536 20.7792C13.5547 20.7797 13.5557 20.7802 13.5563 20.7808C14.6688 21.3872 16.1984 21.825 17.8896 22.0901C17.9024 22.0922 17.9152 22.0938 17.928 22.096C18.4736 22.1808 19.0336 22.2469 19.6032 22.2954C19.7243 22.3056 19.8448 22.3162 19.9669 22.3248C20.0859 22.3333 20.2048 22.3408 20.3243 22.3472C20.4853 22.3562 20.6464 22.3642 20.8075 22.3706C20.9013 22.3744 20.9952 22.3786 21.0896 22.3813C21.3493 22.3888 21.6085 22.3941 21.8672 22.3941C22.1253 22.3941 22.3845 22.3893 22.6432 22.3818C22.7381 22.3792 22.8325 22.3749 22.9275 22.3712C23.0875 22.3648 23.2469 22.3573 23.4064 22.3482C23.5269 22.3413 23.6469 22.3338 23.7669 22.3253C23.8869 22.3168 24.0053 22.3066 24.1248 22.2965C24.6997 22.248 25.2651 22.1808 25.8155 22.0954C25.8235 22.0944 25.832 22.0928 25.84 22.0917C27.688 21.8026 29.3408 21.3061 30.4699 20.6096C30.5312 20.5717 30.592 20.5338 30.6501 20.4949C30.7221 20.4469 30.7925 20.3978 30.8592 20.3477C30.8832 20.3301 30.9104 20.3136 30.9339 20.2954V22.9557C30.9211 23.0176 30.9125 23.0805 30.9227 23.144C30.928 23.1829 30.9333 23.2213 30.9333 23.2608C30.9333 23.3194 30.9168 23.3792 30.9024 23.4384C30.8907 23.4842 30.8768 23.5306 30.8571 23.5765ZM2.4576 30.5274C1.69067 30.5274 1.06667 29.9034 1.06667 29.1365V22.8517C1.06667 22.0848 1.69067 21.4608 2.4576 21.4608H11.7333V23.0608V23.2608V23.4608V28.2608V28.7941H11.8912C11.8997 28.8138 11.912 28.833 11.9216 28.8528C11.9403 28.8928 11.9611 28.9317 11.9824 28.9712C12.0261 29.0501 12.0757 29.128 12.1307 29.2048C12.1851 29.2821 12.2464 29.3568 12.3115 29.4309C12.3445 29.4682 12.3776 29.505 12.4133 29.5418C12.6176 29.7525 12.8629 29.9498 13.1461 30.1344C13.1557 30.1408 13.1659 30.1472 13.176 30.1536C13.3808 30.2853 13.6021 30.4101 13.8416 30.528H2.4576V30.5274ZM30.9333 28.1242C30.9291 28.1408 30.9253 28.1578 30.9227 28.1744C30.7045 29.504 27.0133 30.9274 21.8667 30.9274C20.2245 30.9274 18.7333 30.7818 17.4528 30.5413L17.4533 30.537C14.8011 30.0352 13.3333 29.1877 12.9227 28.473C12.9221 28.4725 12.9216 28.472 12.9216 28.4709C12.9029 28.4378 12.8896 28.4053 12.8752 28.3733C12.8475 28.3066 12.8213 28.2405 12.8107 28.1744L12.8064 25.0997C12.8256 25.1146 12.8485 25.1285 12.8683 25.1434C12.9355 25.1936 13.0059 25.2426 13.0779 25.2912C13.1365 25.3301 13.1973 25.3685 13.2592 25.4069C13.3547 25.4656 13.4507 25.5237 13.5531 25.5797C13.5541 25.5802 13.5552 25.5808 13.5557 25.5813C14.6683 26.1877 16.1979 26.6256 17.8891 26.8906C17.9019 26.8928 17.9147 26.8944 17.9275 26.8965C18.4731 26.9813 19.0331 27.0474 19.6027 27.096C19.7237 27.1061 19.8443 27.1168 19.9664 27.1253C20.0853 27.1338 20.2043 27.1413 20.3237 27.1477C20.4848 27.1568 20.6459 27.1648 20.8069 27.1712C20.9008 27.1749 20.9947 27.1792 21.0891 27.1818C21.3488 27.1893 21.608 27.1946 21.8667 27.1946C22.1248 27.1946 22.384 27.1898 22.6427 27.1824C22.7376 27.1797 22.832 27.1754 22.9269 27.1717C23.0869 27.1653 23.2464 27.1578 23.4059 27.1488C23.5264 27.1418 23.6464 27.1344 23.7664 27.1258C23.8864 27.1173 24.0048 27.1072 24.1243 27.097C24.6992 27.0485 25.2645 26.9813 25.8149 26.896C25.8229 26.8949 25.8315 26.8933 25.8395 26.8922C27.6875 26.6032 29.3403 26.1066 30.4693 25.4101C30.5307 25.3722 30.5915 25.3344 30.6496 25.2954C30.7216 25.2474 30.792 25.1984 30.8587 25.1482C30.8827 25.1306 30.9099 25.1141 30.9333 25.096V28.1242ZM30.9333 13.6608C30.9333 15.0138 27.0555 16.5274 21.8667 16.5274C16.6773 16.5274 12.8 15.0138 12.8 13.6608C12.8 13.5925 12.8165 13.5232 12.8363 13.4538C12.8576 13.385 12.8864 13.3146 12.9291 13.2421C12.9307 13.2389 12.9323 13.2357 12.9339 13.2325C13.1115 12.936 13.4693 12.617 14.0203 12.3093C14.0437 12.2965 14.0677 12.2837 14.0917 12.2709C14.1861 12.2197 14.2859 12.169 14.3909 12.1189C14.5131 12.0618 14.6384 12.0048 14.7728 11.9498C14.7989 11.9386 14.8261 11.928 14.8533 11.9173C15.4731 11.6704 16.2197 11.4512 17.0603 11.272C17.3232 11.2165 17.5909 11.1642 17.8661 11.1184C17.9392 11.1061 18.0107 11.0933 18.0848 11.0816C20.4725 10.7136 23.2581 10.7136 25.6459 11.0816C25.7211 11.0933 25.7936 11.1066 25.8677 11.1189C26.1413 11.1642 26.4075 11.216 26.6683 11.2714C29.2683 11.825 30.9333 12.776 30.9333 13.6608ZM30.9333 8.86984C30.9333 9.63677 30.3093 10.2608 29.5424 10.2608H27.0731C27.0421 10.2538 27.008 10.2496 26.9771 10.2426C26.6272 10.1669 26.2672 10.0992 25.8992 10.0405C25.8635 10.0352 25.8277 10.0293 25.792 10.024C24.5328 9.82824 23.1888 9.72744 21.8667 9.72744C20.5445 9.72744 19.2016 9.82824 17.9424 10.024C17.9056 10.0293 17.8693 10.0352 17.8325 10.0405C17.4656 10.0992 17.1067 10.1669 16.7579 10.2421C16.7264 10.249 16.6912 10.2533 16.6597 10.2602H2.4576C1.69067 10.2608 1.06667 9.63677 1.06667 8.86984V2.58504C1.06667 1.81811 1.69067 1.19411 2.4576 1.19411H29.5419C30.3093 1.19411 30.9333 1.81811 30.9333 2.58504V8.86984Z" fill="black"/>
</svg>
