<svg width="118" height="1130" viewBox="0 0 118 1130" fill="none" xmlns="http://www.w3.org/2000/svg">
<circle cx="58.2178" cy="448.218" r="57.7178" stroke="white"/>
<rect x="30.7598" y="408.413" width="25.8697" height="33.035" rx="1.5" stroke="white"/>
<path d="M35.6335 413.735H51.7554" stroke="white" stroke-linecap="round" stroke-linejoin="round"/>
<path d="M35.6335 418.213H51.7554" stroke="white" stroke-linecap="round" stroke-linejoin="round"/>
<path d="M35.6335 422.691H51.7554" stroke="white" stroke-linecap="round" stroke-linejoin="round"/>
<path d="M35.6335 427.17H51.7554" stroke="white" stroke-linecap="round" stroke-linejoin="round"/>
<path d="M35.6335 431.648H51.7554" stroke="white" stroke-linecap="round" stroke-linejoin="round"/>
<path d="M35.6335 436.126H51.7554" stroke="white" stroke-linecap="round" stroke-linejoin="round"/>
<rect x="30.7598" y="453.196" width="25.8697" height="33.035" rx="1.5" stroke="white"/>
<path d="M35.6335 458.518H51.7554" stroke="white" stroke-linecap="round" stroke-linejoin="round"/>
<path d="M35.6335 462.996H51.7554" stroke="white" stroke-linecap="round" stroke-linejoin="round"/>
<path d="M35.6335 467.474H51.7554" stroke="white" stroke-linecap="round" stroke-linejoin="round"/>
<path d="M35.6335 471.953H51.7554" stroke="white" stroke-linecap="round" stroke-linejoin="round"/>
<path d="M35.6335 476.431H51.7554" stroke="white" stroke-linecap="round" stroke-linejoin="round"/>
<path d="M35.6335 480.909H51.7554" stroke="white" stroke-linecap="round" stroke-linejoin="round"/>
<rect x="70.1687" y="436.179" width="21.3915" height="21.3915" stroke="white"/>
<line x1="73.3887" y1="435.997" x2="73.3887" y2="432.096" stroke="white"/>
<path d="M77.1562 435.997L77.1562 432.096L77.1562 424.035L56.6816 424.035" stroke="white"/>
<line x1="80.8196" y1="435.997" x2="80.8196" y2="432.096" stroke="white"/>
<line x1="84.5352" y1="435.997" x2="84.5352" y2="432.096" stroke="white"/>
<line x1="88.2507" y1="435.997" x2="88.2507" y2="432.096" stroke="white"/>
<line x1="73.3887" y1="461.547" x2="73.3887" y2="457.646" stroke="white"/>
<line x1="80.8198" y1="461.547" x2="80.8198" y2="457.646" stroke="white"/>
<line x1="77.2295" y1="461.547" x2="77.2295" y2="457.646" stroke="white"/>
<path d="M84.5875 457.646L84.5875 461.547L84.5875 469.266L56.6816 469.266" stroke="white"/>
<line x1="88.251" y1="461.547" x2="88.251" y2="457.646" stroke="white"/>
<line x1="69.9875" y1="454.477" x2="66.0863" y2="454.477" stroke="white"/>
<line x1="69.9875" y1="450.76" x2="66.0863" y2="450.76" stroke="white"/>
<line x1="69.9875" y1="447.045" x2="66.0863" y2="447.045" stroke="white"/>
<line x1="69.9875" y1="443.328" x2="66.0863" y2="443.328" stroke="white"/>
<line x1="69.9875" y1="439.615" x2="66.0863" y2="439.615" stroke="white"/>
<line x1="95.5317" y1="454.477" x2="91.6304" y2="454.477" stroke="white"/>
<line x1="95.5317" y1="450.76" x2="91.6304" y2="450.76" stroke="white"/>
<line x1="95.5317" y1="447.045" x2="91.6304" y2="447.045" stroke="white"/>
<line x1="95.5317" y1="443.328" x2="91.6304" y2="443.328" stroke="white"/>
<line x1="95.5317" y1="439.615" x2="91.6304" y2="439.615" stroke="white"/>
<circle cx="58.2178" cy="645.218" r="57.7178" stroke="white"/>
<rect x="69.7915" y="632.283" width="21.3915" height="21.3915" stroke="white"/>
<rect x="34.8608" y="613.474" width="21.3915" height="21.3915" stroke="white"/>
<rect x="34.4131" y="658.257" width="21.3915" height="21.3915" stroke="white"/>
<line x1="73.0115" y1="632.102" x2="73.0115" y2="628.2" stroke="white"/>
<path d="M76.779 632.102L76.779 628.2L76.779 620.139L56.3044 620.139" stroke="white"/>
<line x1="80.4424" y1="632.102" x2="80.4424" y2="628.2" stroke="white"/>
<line x1="84.158" y1="632.102" x2="84.158" y2="628.2" stroke="white"/>
<line x1="87.8735" y1="632.102" x2="87.8735" y2="628.2" stroke="white"/>
<line x1="38.0811" y1="613.293" x2="38.0811" y2="609.391" stroke="white"/>
<line x1="45.512" y1="613.293" x2="45.512" y2="609.391" stroke="white"/>
<line x1="41.4741" y1="613.293" x2="41.4741" y2="609.391" stroke="white"/>
<line x1="49.2275" y1="613.293" x2="49.2275" y2="609.391" stroke="white"/>
<line x1="52.9434" y1="613.293" x2="52.9434" y2="609.391" stroke="white"/>
<line x1="37.6331" y1="658.076" x2="37.6331" y2="654.174" stroke="white"/>
<line x1="45.064" y1="658.076" x2="45.064" y2="654.174" stroke="white"/>
<line x1="41.0261" y1="658.076" x2="41.0261" y2="654.174" stroke="white"/>
<line x1="48.7795" y1="658.076" x2="48.7795" y2="654.174" stroke="white"/>
<line x1="52.4954" y1="658.076" x2="52.4954" y2="654.174" stroke="white"/>
<line x1="38.0811" y1="639.267" x2="38.0811" y2="635.366" stroke="white"/>
<line x1="45.512" y1="639.267" x2="45.512" y2="635.366" stroke="white"/>
<line x1="41.4741" y1="639.267" x2="41.4741" y2="635.366" stroke="white"/>
<line x1="49.2275" y1="639.267" x2="49.2275" y2="635.366" stroke="white"/>
<line x1="52.9434" y1="639.267" x2="52.9434" y2="635.366" stroke="white"/>
<line x1="37.6331" y1="684.05" x2="37.6331" y2="680.148" stroke="white"/>
<line x1="45.064" y1="684.05" x2="45.064" y2="680.148" stroke="white"/>
<line x1="41.0261" y1="684.05" x2="41.0261" y2="680.148" stroke="white"/>
<line x1="48.7795" y1="684.05" x2="48.7795" y2="680.148" stroke="white"/>
<line x1="52.4954" y1="684.05" x2="52.4954" y2="680.148" stroke="white"/>
<line x1="73.0117" y1="657.651" x2="73.0117" y2="653.75" stroke="white"/>
<line x1="80.4426" y1="657.651" x2="80.4426" y2="653.75" stroke="white"/>
<line x1="76.8523" y1="657.651" x2="76.8523" y2="653.75" stroke="white"/>
<path d="M84.2103 653.75L84.2103 657.651L84.2103 665.37L56.3044 665.37" stroke="white"/>
<line x1="87.8738" y1="657.651" x2="87.8738" y2="653.75" stroke="white"/>
<line x1="69.6104" y1="650.581" x2="65.7091" y2="650.581" stroke="white"/>
<line x1="69.6104" y1="646.864" x2="65.7091" y2="646.864" stroke="white"/>
<line x1="69.6104" y1="643.149" x2="65.7091" y2="643.149" stroke="white"/>
<line x1="69.6104" y1="639.433" x2="65.7091" y2="639.433" stroke="white"/>
<line x1="69.6104" y1="635.719" x2="65.7091" y2="635.719" stroke="white"/>
<line x1="34.6797" y1="631.772" x2="30.7784" y2="631.772" stroke="white"/>
<line x1="34.6797" y1="624.341" x2="30.7784" y2="624.341" stroke="white"/>
<line x1="34.6797" y1="620.624" x2="30.7784" y2="620.624" stroke="white"/>
<line x1="34.6797" y1="616.91" x2="30.7784" y2="616.91" stroke="white"/>
<line x1="34.2317" y1="676.555" x2="30.3304" y2="676.555" stroke="white"/>
<line x1="34.2317" y1="672.839" x2="30.3304" y2="672.839" stroke="white"/>
<path d="M34.2317 669.071L24.9564 669.071L24.9564 628.2L34.2317 628.2" stroke="white"/>
<line x1="34.2317" y1="665.407" x2="30.3304" y2="665.407" stroke="white"/>
<line x1="34.2317" y1="661.693" x2="30.3304" y2="661.693" stroke="white"/>
<line x1="95.1548" y1="650.581" x2="91.2535" y2="650.581" stroke="white"/>
<line x1="95.1548" y1="646.864" x2="91.2535" y2="646.864" stroke="white"/>
<line x1="95.1548" y1="643.149" x2="91.2535" y2="643.149" stroke="white"/>
<line x1="95.1548" y1="639.433" x2="91.2535" y2="639.433" stroke="white"/>
<line x1="95.1548" y1="635.719" x2="91.2535" y2="635.719" stroke="white"/>
<line x1="60.2241" y1="631.772" x2="56.3228" y2="631.772" stroke="white"/>
<line x1="60.2241" y1="628.056" x2="56.3228" y2="628.056" stroke="white"/>
<line x1="60.2241" y1="624.341" x2="56.3228" y2="624.341" stroke="white"/>
<line x1="60.2241" y1="616.91" x2="56.3228" y2="616.91" stroke="white"/>
<line x1="59.7761" y1="676.555" x2="55.8748" y2="676.555" stroke="white"/>
<line x1="59.7761" y1="672.839" x2="55.8748" y2="672.839" stroke="white"/>
<line x1="59.7761" y1="669.123" x2="55.8748" y2="669.123" stroke="white"/>
<line x1="59.7761" y1="661.693" x2="55.8748" y2="661.693" stroke="white"/>
<path d="M115.936 57.3167C115.936 88.1894 90.1093 113.243 58.2178 113.243C26.3263 113.243 0.5 88.1894 0.5 57.3167C0.5 26.444 26.3263 1.39026 58.2178 1.39026C90.1093 1.39026 115.936 26.444 115.936 57.3167Z" stroke="white"/>
<path d="M73.4438 42.0905L89.5657 58.2123L73.4438 74.3341" stroke="white"/>
<path d="M42.0959 74.3342L25.9741 58.2124L42.096 42.0905" stroke="white"/>
<path d="M47.9177 83.7386L69.4135 32.2383" stroke="white"/>
<circle cx="59.2178" cy="1071.22" r="57.7178" stroke="white"/>
<path d="M59.7163 1086.54L51.7351 1092.4L59.7163 1098.26L67.6976 1092.4L59.7163 1086.54Z" stroke="white" stroke-miterlimit="10" stroke-linejoin="round"/>
<path d="M67.698 1100.8V1092.4L59.7168 1098.26V1106.66L67.698 1100.8Z" stroke="white" stroke-miterlimit="10" stroke-linejoin="round"/>
<path d="M51.7351 1100.8V1092.4L59.7163 1098.26V1106.66L51.7351 1100.8Z" stroke="white" stroke-miterlimit="10" stroke-linejoin="round"/>
<path d="M86.3789 1059.88L78.3977 1065.74L86.3789 1071.59L94.3602 1065.74L86.3789 1059.88Z" stroke="white" stroke-miterlimit="10" stroke-linejoin="round"/>
<path d="M94.3606 1074.14V1065.74L86.3794 1071.59V1080L94.3606 1074.14Z" stroke="white" stroke-miterlimit="10" stroke-linejoin="round"/>
<path d="M78.3979 1074.14V1065.74L86.3792 1071.59V1080L78.3979 1074.14Z" stroke="white" stroke-miterlimit="10" stroke-linejoin="round"/>
<path d="M59.7163 1059.88L51.7351 1065.74L59.7163 1071.59L67.6976 1065.74L59.7163 1059.88Z" stroke="white" stroke-miterlimit="10" stroke-linejoin="round"/>
<path d="M67.698 1074.14V1065.74L59.7168 1071.59V1080L67.698 1074.14Z" stroke="white" stroke-miterlimit="10" stroke-linejoin="round"/>
<path d="M51.7351 1074.14V1065.74L59.7163 1071.59V1080L51.7351 1074.14Z" stroke="white" stroke-miterlimit="10" stroke-linejoin="round"/>
<path d="M32.6175 1059.88L24.6362 1065.74L32.6175 1071.59L40.5987 1065.74L32.6175 1059.88Z" stroke="white" stroke-miterlimit="10" stroke-linejoin="round"/>
<path d="M40.5989 1074.14V1065.74L32.6177 1071.59V1080L40.5989 1074.14Z" stroke="white" stroke-miterlimit="10" stroke-linejoin="round"/>
<path d="M24.636 1074.14V1065.74L32.6172 1071.59V1080L24.636 1074.14Z" stroke="white" stroke-miterlimit="10" stroke-linejoin="round"/>
<path d="M59.7163 1033.21L51.7351 1039.07L59.7163 1044.93L67.6976 1039.07L59.7163 1033.21Z" stroke="white" stroke-miterlimit="10" stroke-linejoin="round"/>
<path d="M67.698 1047.48V1039.07L59.7168 1044.93V1053.34L67.698 1047.48Z" stroke="white" stroke-miterlimit="10" stroke-linejoin="round"/>
<path d="M51.7351 1047.48V1039.07L59.7163 1044.93V1053.34L51.7351 1047.48Z" stroke="white" stroke-miterlimit="10" stroke-linejoin="round"/>
<path d="M40.7234 1070.6H51.6473" stroke="white"/>
<path d="M54.6265 1049.74L36.7509 1062.65" stroke="white"/>
<path d="M63.768 1089.06C63.5442 1089.22 63.4938 1089.54 63.6555 1089.76C63.8171 1089.98 64.1297 1090.03 64.3535 1089.87L63.768 1089.06ZM64.3535 1089.87L82.229 1076.96L81.6436 1076.15L63.768 1089.06L64.3535 1089.87Z" fill="white"/>
<path d="M59.592 1052.72L59.592 1060.67" stroke="white"/>
<path d="M59.592 1079.54L59.592 1087.48" stroke="white"/>
<path d="M64.5573 1049.74L82.4329 1062.65" stroke="white"/>
<path d="M55.6196 1089.47L36.751 1076.56" stroke="white"/>
<path d="M67.5366 1070.6H78.4605" stroke="white"/>
<circle cx="59.2178" cy="842.218" r="57.7178" stroke="white"/>
<path d="M62.8792 818.372H92.3177C93.4222 818.372 94.3177 819.268 94.3177 820.372V858.748C94.3177 859.852 93.4222 860.748 92.3177 860.748H31.4407C30.3361 860.748 29.4407 859.852 29.4407 858.748V841.56" stroke="white" stroke-linecap="round"/>
<path d="M51.6013 860.676H72.6013V866.676H51.6013V860.676Z" stroke="white"/>
<path d="M54.1367 866.77H47.5917C46.6318 866.77 45.8538 867.548 45.8538 868.508V868.508C45.8538 869.468 46.6318 870.246 47.5917 870.246H76.8876C77.8475 870.246 78.6255 869.468 78.6255 868.508V868.508C78.6255 867.548 77.8475 866.77 76.8876 866.77H69.6223" stroke="white"/>
<path d="M93.3177 852.865H30.4407" stroke="white"/>
<path d="M33.0522 838.653L33.0144 838.298L32.6664 838.218L32.5896 838.201L32.5896 838.201L32.5853 838.2C31.3915 837.938 30.2627 837.471 29.2271 836.813L29.2264 836.812L29.1605 836.771L28.8578 836.579L28.5789 836.804L25.8309 839.022L23.7992 836.991L26.0151 834.247L26.2403 833.968L26.0485 833.665L26.0068 833.599L26.0059 833.598C25.3479 832.567 24.8809 831.44 24.617 830.25L24.6163 830.247L24.5987 830.17L24.5192 829.822L24.1643 829.785L20.6594 829.411V826.531L24.1643 826.158L24.5192 826.12L24.5987 825.772L24.6163 825.695L24.6163 825.695L24.617 825.691C24.8809 824.498 25.3499 823.369 26.012 822.336L26.0134 822.334L26.0551 822.268L26.247 821.965L26.0216 821.686L23.8014 818.938L25.8352 816.904L28.5876 819.127L28.8665 819.352L29.1693 819.16L29.2352 819.119L29.2356 819.118C30.2686 818.463 31.3933 818 32.5834 817.738L32.5835 817.738L32.5874 817.737L32.6642 817.719L33.0119 817.64L33.05 817.285L33.428 813.76H36.3055L36.6837 817.298L36.7216 817.653L37.0695 817.733L37.1463 817.75L37.1477 817.75C38.3275 818.017 39.4462 818.482 40.4688 819.133L40.47 819.134L40.5359 819.176L40.8386 819.368L41.1175 819.142L43.8787 816.913L45.9103 818.945L43.677 821.708L43.4516 821.987L43.6434 822.29L43.6851 822.356L43.6854 822.356C44.3375 823.384 44.8023 824.502 45.064 825.685L45.0647 825.688L45.0823 825.765L45.1618 826.113L45.5166 826.151L49.0743 826.531V829.409L45.5166 829.789L45.1618 829.827L45.0823 830.175L45.0647 830.252L45.0641 830.255C44.8022 831.434 44.3416 832.548 43.6921 833.57L43.6917 833.571L43.65 833.637L43.4582 833.94L43.6835 834.219L45.9301 836.999L43.8961 839.033L41.1196 836.793L40.8407 836.568L40.538 836.76L40.4722 836.801L40.4708 836.802C39.4456 837.456 38.3273 837.923 37.1465 838.187L37.1441 838.188L37.0673 838.205L36.7192 838.285L36.6815 838.64L36.3053 842.18H33.4283L33.0522 838.653Z" stroke="white"/>
<mask id="path-132-inside-1" fill="white">
<path d="M36.6561 813.37L37.0622 817.179L37.0798 817.335L37.2335 817.37C38.4585 817.645 39.6177 818.128 40.6781 818.804L40.8121 818.89L40.935 818.791L43.9077 816.391L46.4347 818.918L44.0328 821.893L43.934 822.016L44.0196 822.15C44.6958 823.215 45.1789 824.376 45.4511 825.603L45.4862 825.757L45.6421 825.774L49.4666 826.181V829.759L45.6377 830.168L45.4818 830.185L45.4467 830.339C45.1745 831.562 44.6958 832.719 44.024 833.779L43.9406 833.913L44.0394 834.036L46.4566 837.031L43.9274 839.56L40.9372 837.147L40.8143 837.048L40.6803 837.134C39.6177 837.812 38.4585 838.295 37.2313 838.572L37.0776 838.607L37.06 838.763L36.6561 842.57H33.0774L32.6735 838.774L32.6559 838.616L32.5022 838.583C31.264 838.311 30.0916 837.828 29.018 837.145L28.8841 837.059L28.7612 837.158L25.8017 839.547L23.2747 837.02L25.6612 834.065L25.76 833.942L25.6743 833.808C24.9916 832.739 24.5064 831.568 24.2319 830.334L24.1968 830.181L24.0409 830.163L20.2669 829.759V826.181L24.0431 825.779L24.199 825.761L24.2341 825.608C24.5085 824.369 24.9959 823.199 25.6809 822.126L25.7665 821.992L25.6678 821.869L23.2791 818.911L25.8083 816.382L28.7743 818.775L28.8973 818.874L29.0312 818.791C30.1026 818.112 31.2706 817.629 32.5044 817.359L32.6581 817.326L32.6757 817.168L33.0774 813.37H36.6561ZM36.8536 813.151H32.8799L32.4539 817.144C31.1762 817.425 29.9818 817.926 28.9105 818.604L25.7929 816.086L22.9827 818.896L25.4943 822.009C24.8093 823.083 24.3022 824.279 24.019 825.562L20.0474 825.983V829.957L24.019 830.381C24.3022 831.661 24.8071 832.855 25.4899 833.926L22.9805 837.035L25.7863 839.841L28.8995 837.329C29.9731 838.012 31.1718 838.515 32.4539 838.798L32.8799 842.789H36.8536L37.2796 838.785C38.5485 838.499 39.7363 837.997 40.7989 837.318L43.9406 839.854L46.7508 837.044L44.2085 833.898C44.8825 832.835 45.3786 831.652 45.6597 830.387L49.6861 829.957V825.983L45.6619 825.555C45.3786 824.284 44.8781 823.096 44.2019 822.031L46.7288 818.903L43.923 816.097L40.7945 818.619C39.7319 817.941 38.5485 817.441 37.2796 817.157L36.8536 813.151Z"/>
</mask>
<path d="M36.6561 813.37L37.6504 813.264L37.5551 812.37H36.6561V813.37ZM37.0622 817.179L36.0678 817.285L36.0685 817.291L37.0622 817.179ZM37.0798 817.335L36.0861 817.447L36.1655 818.152L36.857 818.31L37.0798 817.335ZM37.2335 817.37L37.0106 818.345L37.0149 818.346L37.2335 817.37ZM40.6781 818.804L41.2168 817.961L41.2158 817.961L40.6781 818.804ZM40.8121 818.89L40.2734 819.732L40.8786 820.119L41.4385 819.669L40.8121 818.89ZM40.935 818.791L41.5614 819.57L41.5631 819.569L40.935 818.791ZM43.9077 816.391L44.6148 815.684L43.9791 815.048L43.2796 815.613L43.9077 816.391ZM46.4347 818.918L47.2127 819.546L47.7775 818.847L47.1418 818.211L46.4347 818.918ZM44.0328 821.893L43.2548 821.265L43.2533 821.267L44.0328 821.893ZM43.934 822.016L43.1545 821.389L42.7046 821.949L43.0915 822.555L43.934 822.016ZM44.0196 822.15L44.8638 821.614L44.8622 821.611L44.0196 822.15ZM45.4511 825.603L44.4748 825.82L44.4762 825.826L45.4511 825.603ZM45.4862 825.757L44.5114 825.98L44.6694 826.671L45.3742 826.751L45.4862 825.757ZM45.6421 825.774L45.5301 826.768L45.5365 826.769L45.6421 825.774ZM49.4666 826.181H50.4666V825.281L49.5722 825.186L49.4666 826.181ZM49.4666 829.759L49.5726 830.754L50.4666 830.658V829.759H49.4666ZM45.6377 830.168L45.5317 829.173L45.5257 829.174L45.6377 830.168ZM45.4818 830.185L45.3699 829.191L44.665 829.271L44.507 829.962L45.4818 830.185ZM45.4467 830.339L44.4718 830.116L44.4706 830.122L45.4467 830.339ZM44.024 833.779L43.1793 833.244L43.1753 833.25L44.024 833.779ZM43.9406 833.913L43.0918 833.384L42.7167 833.986L43.1611 834.539L43.9406 833.913ZM44.0394 834.036L43.2599 834.662L43.2613 834.664L44.0394 834.036ZM46.4566 837.031L47.1637 837.738L47.7994 837.102L47.2347 836.403L46.4566 837.031ZM43.9274 839.56L43.2995 840.338L43.999 840.902L44.6345 840.267L43.9274 839.56ZM40.9372 837.147L41.5652 836.369L41.5636 836.367L40.9372 837.147ZM40.8143 837.048L41.4407 836.269L40.8808 835.819L40.2756 836.206L40.8143 837.048ZM40.6803 837.134L41.2185 837.977L41.219 837.976L40.6803 837.134ZM37.2313 838.572L37.0114 837.596L37.0084 837.597L37.2313 838.572ZM37.0776 838.607L36.8548 837.632L36.1633 837.79L36.0839 838.495L37.0776 838.607ZM37.06 838.763L36.0663 838.651L36.0656 838.657L37.06 838.763ZM36.6561 842.57V843.57H37.5556L37.6505 842.675L36.6561 842.57ZM33.0774 842.57L32.0831 842.676L32.1782 843.57H33.0774V842.57ZM32.6735 838.774L33.6679 838.668L33.6674 838.663L32.6735 838.774ZM32.6559 838.616L33.6498 838.505L33.5702 837.789L32.8654 837.638L32.6559 838.616ZM32.5022 838.583L32.2875 839.56L32.2927 839.561L32.5022 838.583ZM29.018 837.145L28.4794 837.987L28.4814 837.989L29.018 837.145ZM28.8841 837.059L29.4228 836.217L28.8176 835.83L28.2577 836.28L28.8841 837.059ZM28.7612 837.158L28.1348 836.378L28.1331 836.38L28.7612 837.158ZM25.8017 839.547L25.0946 840.254L25.7302 840.889L26.4297 840.325L25.8017 839.547ZM23.2747 837.02L22.4967 836.391L21.9318 837.091L22.5676 837.727L23.2747 837.02ZM25.6612 834.065L26.4392 834.693L26.4407 834.691L25.6612 834.065ZM25.76 833.942L26.5395 834.568L26.9894 834.008L26.6025 833.403L25.76 833.942ZM25.6743 833.808L24.8315 834.346L24.8318 834.346L25.6743 833.808ZM24.2319 830.334L25.2081 830.117L25.2068 830.112L24.2319 830.334ZM24.1968 830.181L25.1717 829.958L25.0136 829.267L24.3088 829.187L24.1968 830.181ZM24.0409 830.163L24.1529 829.17L24.1473 829.169L24.0409 830.163ZM20.2669 829.759H19.2669V830.658L20.1605 830.754L20.2669 829.759ZM20.2669 826.181L20.1611 825.186L19.2669 825.281V826.181H20.2669ZM24.0431 825.779L24.1489 826.773L24.1551 826.773L24.0431 825.779ZM24.199 825.761L24.311 826.755L25.0158 826.676L25.1738 825.984L24.199 825.761ZM24.2341 825.608L25.209 825.83L25.2104 825.824L24.2341 825.608ZM25.6809 822.126L24.8384 821.587L24.8379 821.588L25.6809 822.126ZM25.7665 821.992L26.6091 822.53L26.996 821.925L26.5461 821.365L25.7665 821.992ZM25.6678 821.869L26.4473 821.242L26.4457 821.24L25.6678 821.869ZM23.2791 818.911L22.572 818.204L21.9361 818.84L22.5012 819.54L23.2791 818.911ZM25.8083 816.382L26.4362 815.604L25.7367 815.04L25.1012 815.675L25.8083 816.382ZM28.7743 818.775L28.1464 819.554L28.1479 819.555L28.7743 818.775ZM28.8973 818.874L28.2709 819.654L28.8239 820.098L29.426 819.723L28.8973 818.874ZM29.0312 818.791L29.56 819.64L29.5662 819.636L29.0312 818.791ZM32.5044 817.359L32.2949 816.381L32.2906 816.382L32.5044 817.359ZM32.6581 817.326L32.8676 818.304L33.5724 818.153L33.652 817.437L32.6581 817.326ZM32.6757 817.168L33.6696 817.279L33.6701 817.273L32.6757 817.168ZM33.0774 813.37V812.37H32.1776L32.083 813.265L33.0774 813.37ZM36.8536 813.151L37.848 813.045L37.753 812.151H36.8536V813.151ZM32.8799 813.151V812.151H31.9808L31.8855 813.045L32.8799 813.151ZM32.4539 817.144L32.6687 818.121L33.3719 817.966L33.4483 817.25L32.4539 817.144ZM28.9105 818.604L28.2821 819.382L28.8398 819.832L29.4454 819.449L28.9105 818.604ZM25.7929 816.086L26.4213 815.308L25.7217 814.743L25.0858 815.379L25.7929 816.086ZM22.9827 818.896L22.2756 818.189L21.6401 818.825L22.2044 819.524L22.9827 818.896ZM25.4943 822.009L26.3373 822.547L26.7241 821.941L26.2726 821.381L25.4943 822.009ZM24.019 825.562L24.1245 826.556L24.8402 826.48L24.9954 825.777L24.019 825.562ZM20.0474 825.983L19.9418 824.989L19.0474 825.084V825.983H20.0474ZM20.0474 829.957H19.0474V830.856L19.9413 830.951L20.0474 829.957ZM24.019 830.381L24.9953 830.165L24.84 829.463L24.125 829.386L24.019 830.381ZM25.4899 833.926L26.268 834.554L26.7196 833.995L26.3332 833.389L25.4899 833.926ZM22.9805 837.035L22.2024 836.407L21.6377 837.106L22.2734 837.742L22.9805 837.035ZM25.7863 839.841L25.0792 840.548L25.7147 841.183L26.4142 840.619L25.7863 839.841ZM28.8995 837.329L29.4361 836.485L28.8303 836.1L28.2716 836.551L28.8995 837.329ZM32.4539 838.798L33.4483 838.692L33.372 837.977L32.6696 837.822L32.4539 838.798ZM32.8799 842.789L31.8855 842.895L31.9809 843.789H32.8799V842.789ZM36.8536 842.789V843.789H37.7529L37.848 842.895L36.8536 842.789ZM37.2796 838.785L37.0601 837.809L36.361 837.966L36.2852 838.679L37.2796 838.785ZM40.7989 837.318L41.427 836.54L40.8672 836.088L40.2608 836.475L40.7989 837.318ZM43.9406 839.854L43.3125 840.632L44.0121 841.197L44.6477 840.561L43.9406 839.854ZM46.7508 837.044L47.4579 837.751L48.0939 837.115L47.5286 836.415L46.7508 837.044ZM44.2085 833.898L43.364 833.362L42.9796 833.968L43.4307 834.526L44.2085 833.898ZM45.6597 830.387L45.5534 829.393L44.8393 829.469L44.6835 830.17L45.6597 830.387ZM49.6861 829.957L49.7924 830.951L50.6861 830.856V829.957H49.6861ZM49.6861 825.983H50.6861V825.084L49.7919 824.989L49.6861 825.983ZM45.6619 825.555L44.6858 825.772L44.842 826.473L45.5561 826.549L45.6619 825.555ZM44.2019 822.031L43.4239 821.403L42.9729 821.961L43.3577 822.567L44.2019 822.031ZM46.7288 818.903L47.5068 819.531L48.0718 818.831L47.436 818.196L46.7288 818.903ZM43.923 816.097L44.6302 815.39L43.9948 814.754L43.2954 815.318L43.923 816.097ZM40.7945 818.619L40.2564 819.462L40.8624 819.849L41.4222 819.398L40.7945 818.619ZM37.2796 817.157L36.2852 817.263L36.3611 817.977L37.0617 818.133L37.2796 817.157ZM35.6617 813.476L36.0679 817.285L38.0566 817.073L37.6504 813.264L35.6617 813.476ZM36.0685 817.291L36.0861 817.447L38.0735 817.223L38.0559 817.067L36.0685 817.291ZM36.857 818.31L37.0106 818.345L37.4563 816.395L37.3026 816.36L36.857 818.31ZM37.0149 818.346C38.1261 818.595 39.1774 819.033 40.1405 819.647L41.2158 817.961C40.0581 817.222 38.791 816.694 37.4521 816.394L37.0149 818.346ZM40.1395 819.646L40.2734 819.732L41.3507 818.047L41.2168 817.961L40.1395 819.646ZM41.4385 819.669L41.5614 819.57L40.3086 818.011L40.1857 818.11L41.4385 819.669ZM41.5631 819.569L44.5358 817.169L43.2796 815.613L40.3069 818.013L41.5631 819.569ZM43.2006 817.098L45.7276 819.625L47.1418 818.211L44.6148 815.684L43.2006 817.098ZM45.6566 818.29L43.2548 821.265L44.8109 822.521L47.2127 819.546L45.6566 818.29ZM43.2533 821.267L43.1545 821.389L44.7135 822.642L44.8123 822.519L43.2533 821.267ZM43.0915 822.555L43.1771 822.688L44.8622 821.611L44.7765 821.477L43.0915 822.555ZM43.1755 822.686C43.7903 823.654 44.2281 824.707 44.4748 825.82L46.4274 825.387C46.1296 824.044 45.6014 822.775 44.8638 821.614L43.1755 822.686ZM44.4762 825.826L44.5114 825.98L46.4611 825.534L46.4259 825.38L44.4762 825.826ZM45.3742 826.751L45.5301 826.768L45.7541 824.781L45.5982 824.763L45.3742 826.751ZM45.5365 826.769L49.361 827.175L49.5722 825.186L45.7477 824.78L45.5365 826.769ZM48.4666 826.181V829.759H50.4666V826.181H48.4666ZM49.3605 828.765L45.5317 829.173L45.7438 831.162L49.5726 830.754L49.3605 828.765ZM45.5257 829.174L45.3699 829.191L45.5938 831.179L45.7497 831.161L45.5257 829.174ZM44.507 829.962L44.4718 830.116L46.4216 830.562L46.4567 830.408L44.507 829.962ZM44.4706 830.122C44.2235 831.231 43.7895 832.281 43.1793 833.244L44.8688 834.314C45.6022 833.157 46.1254 831.892 46.4228 830.556L44.4706 830.122ZM43.1753 833.25L43.0918 833.384L44.7894 834.442L44.8728 834.308L43.1753 833.25ZM43.1611 834.539L43.2599 834.662L44.8189 833.41L44.7201 833.287L43.1611 834.539ZM43.2613 834.664L45.6785 837.659L47.2347 836.403L44.8175 833.408L43.2613 834.664ZM45.7495 836.324L43.2203 838.853L44.6345 840.267L47.1637 837.738L45.7495 836.324ZM44.5554 838.782L41.5652 836.369L40.3092 837.925L43.2995 840.338L44.5554 838.782ZM41.5636 836.367L41.4407 836.269L40.1879 837.828L40.3108 837.927L41.5636 836.367ZM40.2756 836.206L40.1417 836.291L41.219 837.976L41.3529 837.891L40.2756 836.206ZM40.1422 836.291C39.1772 836.907 38.1257 837.345 37.0114 837.596L37.4512 839.547C38.7914 839.245 40.0583 838.717 41.2185 837.977L40.1422 836.291ZM37.0084 837.597L36.8548 837.632L37.3004 839.582L37.4541 839.547L37.0084 837.597ZM36.0839 838.495L36.0663 838.651L38.0537 838.875L38.0713 838.719L36.0839 838.495ZM36.0656 838.657L35.6616 842.464L37.6505 842.675L38.0544 838.868L36.0656 838.657ZM36.6561 841.57H33.0774V843.57H36.6561V841.57ZM34.0718 842.464L33.6679 838.668L31.6791 838.88L32.0831 842.676L34.0718 842.464ZM33.6674 838.663L33.6498 838.505L31.662 838.726L31.6796 838.884L33.6674 838.663ZM32.8654 837.638L32.7118 837.605L32.2927 839.561L32.4464 839.594L32.8654 837.638ZM32.717 837.606C31.5928 837.359 30.5294 836.921 29.5547 836.301L28.4814 837.989C29.6539 838.734 30.9352 839.262 32.2875 839.56L32.717 837.606ZM29.5567 836.302L29.4228 836.217L28.3454 837.902L28.4794 837.987L29.5567 836.302ZM28.2577 836.28L28.1348 836.378L29.3876 837.937L29.5105 837.839L28.2577 836.28ZM28.1331 836.38L25.1736 838.768L26.4297 840.325L29.3892 837.936L28.1331 836.38ZM26.5088 838.84L23.9818 836.313L22.5676 837.727L25.0946 840.254L26.5088 838.84ZM24.0527 837.648L26.4392 834.693L24.8832 833.436L22.4967 836.391L24.0527 837.648ZM26.4407 834.691L26.5395 834.568L24.9805 833.315L24.8817 833.438L26.4407 834.691ZM26.6025 833.403L26.5169 833.269L24.8318 834.346L24.9174 834.48L26.6025 833.403ZM26.5171 833.269C25.8973 832.299 25.4572 831.237 25.2081 830.117L23.2558 830.552C23.5555 831.899 24.0858 833.178 24.8315 834.346L26.5171 833.269ZM25.2068 830.112L25.1717 829.958L23.2219 830.404L23.2571 830.557L25.2068 830.112ZM24.3088 829.187L24.1529 829.17L23.9289 831.157L24.0848 831.175L24.3088 829.187ZM24.1473 829.169L20.3733 828.765L20.1605 830.754L23.9345 831.158L24.1473 829.169ZM21.2669 829.759V826.181H19.2669V829.759H21.2669ZM20.3727 827.175L24.1489 826.773L23.9373 824.785L20.1611 825.186L20.3727 827.175ZM24.1551 826.773L24.311 826.755L24.087 824.768L23.9311 824.785L24.1551 826.773ZM25.1738 825.984L25.209 825.83L23.2593 825.385L23.2241 825.538L25.1738 825.984ZM25.2104 825.824C25.4593 824.701 25.9011 823.64 26.5239 822.664L24.8379 821.588C24.0908 822.759 23.5578 824.038 23.2578 825.391L25.2104 825.824ZM26.5234 822.664L26.6091 822.53L24.924 821.453L24.8384 821.587L26.5234 822.664ZM26.5461 821.365L26.4473 821.242L24.8882 822.495L24.987 822.618L26.5461 821.365ZM26.4457 821.24L24.057 818.283L22.5012 819.54L24.8898 822.497L26.4457 821.24ZM23.9862 819.619L26.5154 817.089L25.1012 815.675L22.572 818.204L23.9862 819.619ZM25.1803 817.161L28.1464 819.554L29.4023 817.997L26.4362 815.604L25.1803 817.161ZM28.1479 819.555L28.2709 819.654L29.5237 818.095L29.4007 817.996L28.1479 819.555ZM29.426 819.723L29.56 819.64L28.5025 817.942L28.3685 818.025L29.426 819.723ZM29.5662 819.636C30.5405 819.019 31.6 818.581 32.7182 818.336L32.2906 816.382C30.9412 816.678 29.6647 817.206 28.4962 817.946L29.5662 819.636ZM32.714 818.337L32.8676 818.304L32.4486 816.349L32.2949 816.381L32.714 818.337ZM33.652 817.437L33.6696 817.279L31.6818 817.058L31.6642 817.216L33.652 817.437ZM33.6701 817.273L34.0719 813.475L32.083 813.265L31.6812 817.063L33.6701 817.273ZM33.0774 814.37H36.6561V812.37H33.0774V814.37ZM36.8536 812.151H32.8799V814.151H36.8536V812.151ZM31.8855 813.045L31.4596 817.038L33.4483 817.25L33.8742 813.257L31.8855 813.045ZM32.2391 816.167C30.8453 816.474 29.543 817.02 28.3755 817.759L29.4454 819.449C30.4207 818.831 31.507 818.376 32.6687 818.121L32.2391 816.167ZM29.5388 817.826L26.4213 815.308L25.1645 816.864L28.2821 819.382L29.5388 817.826ZM25.0858 815.379L22.2756 818.189L23.6898 819.603L26.5 816.793L25.0858 815.379ZM22.2044 819.524L24.716 822.637L26.2726 821.381L23.761 818.268L22.2044 819.524ZM24.6513 821.471C23.9054 822.64 23.3518 823.946 23.0425 825.346L24.9954 825.777C25.2526 824.613 25.7133 823.525 26.3373 822.547L24.6513 821.471ZM23.9134 824.567L19.9418 824.989L20.1529 826.977L24.1245 826.556L23.9134 824.567ZM19.0474 825.983V829.957H21.0474V825.983H19.0474ZM19.9413 830.951L23.9129 831.375L24.125 829.386L20.1535 828.963L19.9413 830.951ZM23.0426 830.597C23.3517 831.994 23.9028 833.297 24.6466 834.464L26.3332 833.389C25.7115 832.413 25.2526 831.327 24.9953 830.165L23.0426 830.597ZM24.7118 833.298L22.2024 836.407L23.7586 837.663L26.268 834.554L24.7118 833.298ZM22.2734 837.742L25.0792 840.548L26.4934 839.134L23.6876 836.328L22.2734 837.742ZM26.4142 840.619L29.5274 838.108L28.2716 836.551L25.1584 839.063L26.4142 840.619ZM28.3628 838.173C29.5334 838.918 30.8405 839.466 32.2382 839.774L32.6696 837.822C31.503 837.564 30.4127 837.107 29.4361 836.485L28.3628 838.173ZM31.4596 838.904L31.8855 842.895L33.8742 842.683L33.4483 838.692L31.4596 838.904ZM32.8799 843.789H36.8536V841.789H32.8799V843.789ZM37.848 842.895L38.274 838.891L36.2852 838.679L35.8593 842.684L37.848 842.895ZM37.499 839.76C38.8831 839.449 40.1784 838.901 41.337 838.161L40.2608 836.475C39.2941 837.093 38.214 837.55 37.0601 837.809L37.499 839.76ZM40.1708 838.096L43.3125 840.632L44.5687 839.076L41.427 836.54L40.1708 838.096ZM44.6477 840.561L47.4579 837.751L46.0437 836.337L43.2335 839.147L44.6477 840.561ZM47.5286 836.415L44.9862 833.269L43.4307 834.526L45.973 837.672L47.5286 836.415ZM45.0529 834.433C45.788 833.274 46.3293 831.983 46.6358 830.604L44.6835 830.17C44.428 831.32 43.9769 832.396 43.364 833.362L45.0529 834.433ZM45.7659 831.382L49.7924 830.951L49.5799 828.963L45.5534 829.393L45.7659 831.382ZM50.6861 829.957V825.983H48.6861V829.957H50.6861ZM49.7919 824.989L45.7676 824.561L45.5561 826.549L49.5804 826.977L49.7919 824.989ZM46.6379 825.337C46.329 823.951 45.783 822.656 45.046 821.495L43.3577 822.567C43.9732 823.536 44.4283 824.617 44.6858 825.772L46.6379 825.337ZM44.9798 822.66L47.5068 819.531L45.9509 818.274L43.4239 821.403L44.9798 822.66ZM47.436 818.196L44.6302 815.39L43.2159 816.804L46.0217 819.61L47.436 818.196ZM43.2954 815.318L40.1668 817.841L41.4222 819.398L44.5507 816.875L43.2954 815.318ZM41.3326 817.777C40.1739 817.037 38.8825 816.49 37.4974 816.181L37.0617 818.133C38.2146 818.391 39.2899 818.845 40.2564 819.462L41.3326 817.777ZM38.274 817.052L37.848 813.045L35.8593 813.256L36.2852 817.263L38.274 817.052Z" fill="white" mask="url(#path-132-inside-1)"/>
<path d="M42.0245 827.97C42.0245 831.938 38.8081 835.154 34.8404 835.154C30.8727 835.154 27.6562 831.938 27.6562 827.97C27.6562 824.002 30.8727 820.786 34.8404 820.786C38.8081 820.786 42.0245 824.002 42.0245 827.97Z" stroke="white"/>
<mask id="path-135-inside-2" fill="white">
<path d="M34.84 820.396C39.0158 820.396 42.4144 823.794 42.4144 827.97C42.4144 832.146 39.018 835.544 34.84 835.544C30.6621 835.544 27.2657 832.146 27.2657 827.97C27.2657 823.794 30.6643 820.396 34.84 820.396ZM34.84 820.176C30.5347 820.176 27.0461 823.665 27.0461 827.97C27.0461 832.275 30.5347 835.764 34.84 835.764C39.1453 835.764 42.6339 832.275 42.6339 827.97C42.6339 823.665 39.1453 820.176 34.84 820.176Z"/>
</mask>
<path d="M34.84 821.396C38.4635 821.396 41.4144 824.346 41.4144 827.97H43.4144C43.4144 823.242 39.5681 819.396 34.84 819.396V821.396ZM41.4144 827.97C41.4144 831.594 38.4655 834.544 34.84 834.544V836.544C39.5705 836.544 43.4144 832.698 43.4144 827.97H41.4144ZM34.84 834.544C31.2145 834.544 28.2657 831.594 28.2657 827.97H26.2657C26.2657 832.698 30.1096 836.544 34.84 836.544V834.544ZM28.2657 827.97C28.2657 824.346 31.2166 821.396 34.84 821.396V819.396C30.112 819.396 26.2657 823.242 26.2657 827.97H28.2657ZM34.84 819.176C29.9825 819.176 26.0461 823.112 26.0461 827.97H28.0461C28.0461 824.217 31.087 821.176 34.84 821.176V819.176ZM26.0461 827.97C26.0461 832.828 29.9825 836.764 34.84 836.764V834.764C31.087 834.764 28.0461 831.723 28.0461 827.97H26.0461ZM34.84 836.764C39.6976 836.764 43.6339 832.828 43.6339 827.97H41.6339C41.6339 831.723 38.5931 834.764 34.84 834.764V836.764ZM43.6339 827.97C43.6339 823.112 39.6976 819.176 34.84 819.176V821.176C38.5931 821.176 41.6339 824.217 41.6339 827.97H43.6339Z" fill="white" mask="url(#path-135-inside-2)"/>
<path d="M50.2326 816.21L50.327 815.866L50.0322 815.665L49.9862 815.634L49.9862 815.634L49.9826 815.631C49.2803 815.161 48.6716 814.575 48.1711 813.89L48.1706 813.889L48.1381 813.845L47.9263 813.556L47.5846 813.663L45.3337 814.372L44.6286 812.756L46.6766 811.591L46.9881 811.414L46.9202 811.062L46.9098 811.008L46.9095 811.006C46.7464 810.176 46.7304 809.333 46.8611 808.5L46.8611 808.5L46.8616 808.497L46.8699 808.442L46.923 808.089L46.6064 807.924L44.5178 806.836L45.1635 805.191L47.4346 805.814L47.7788 805.908L47.9799 805.613L48.0113 805.567L48.0113 805.567L48.0133 805.564C48.4847 804.863 49.0716 804.255 49.7588 803.757L49.761 803.755L49.8053 803.723L50.0946 803.511L49.9867 803.169L49.2765 800.918L50.8943 800.212L52.0639 802.267L52.2412 802.578L52.5931 802.51L52.6471 802.5L52.6477 802.5C53.4785 802.338 54.3193 802.325 55.1517 802.457L55.1517 802.457L55.1557 802.457L55.2107 802.466L55.5634 802.519L55.7284 802.202L56.8243 800.102L58.4684 800.747L57.8396 803.041L57.7453 803.385L58.0401 803.586L58.086 803.617L58.0872 803.618C58.7796 804.088 59.3823 804.67 59.876 805.348L59.8768 805.349L59.9093 805.393L60.1211 805.682L60.4629 805.575L62.7253 804.862L63.4302 806.478L61.3658 807.652L61.0541 807.829L61.122 808.181L61.1325 808.235L61.1326 808.235C61.2928 809.062 61.3094 809.899 61.1791 810.727L61.1786 810.73L61.1703 810.785L61.1172 811.138L61.4336 811.303L63.5553 812.409L62.9101 814.053L60.6026 813.42L60.2585 813.326L60.0574 813.621L60.0261 813.667L60.0243 813.669C59.5578 814.362 58.98 814.963 58.3035 815.457L58.303 815.457L58.2586 815.49L57.9694 815.702L58.0772 816.044L58.7963 818.323L57.1783 819.029L55.9975 816.957L55.8201 816.645L55.4683 816.713L55.4143 816.724L55.4126 816.724C54.5872 816.886 53.7494 816.904 52.9229 816.776L52.9205 816.775L52.8654 816.767L52.5124 816.714L52.3475 817.031L51.2489 819.141L49.6054 818.496L50.2326 816.21Z" stroke="white"/>
<mask id="path-138-inside-3" fill="white">
<path d="M58.976 800.492L58.2608 803.099L58.2321 803.206L58.324 803.269C59.058 803.765 59.695 804.381 60.2173 805.099L60.2832 805.189L60.3894 805.156L62.9608 804.346L63.9693 806.658L61.6246 807.993L61.528 808.048L61.5497 808.158C61.7194 809.032 61.7373 809.919 61.5997 810.796L61.5832 810.906L61.681 810.957L64.0886 812.21L63.166 814.561L60.5456 813.842L60.4386 813.813L60.3759 813.905C59.8818 814.638 59.2691 815.275 58.5544 815.799L58.4651 815.865L58.4983 815.971L59.3142 818.562L57.0007 819.571L55.6584 817.215L55.6032 817.118L55.4931 817.14C54.6202 817.312 53.7342 817.33 52.8567 817.196L52.7466 817.179L52.6949 817.277L51.4481 819.674L49.0973 818.751L49.8106 816.153L49.8398 816.045L49.7473 815.984C49.0041 815.486 48.3585 814.866 47.8293 814.141L47.7634 814.05L47.6571 814.083L45.0972 814.889L44.0887 812.578L46.4182 811.252L46.5148 811.197L46.4931 811.087C46.3202 810.208 46.3032 809.314 46.441 808.433L46.4576 808.323L46.3597 808.271L43.9847 807.033L44.9073 804.682L47.4915 805.392L47.5984 805.421L47.6611 805.329C48.1606 804.586 48.7824 803.943 49.5092 803.414L49.5999 803.348L49.5667 803.242L48.76 800.684L51.0735 799.674L52.405 802.011L52.4603 802.108L52.5698 802.087C53.4484 801.918 54.3402 801.902 55.2204 802.042L55.3298 802.06L55.3821 801.961L56.6252 799.57L58.976 800.492ZM59.1624 800.399L56.552 799.374L55.2427 801.888C54.3308 801.743 53.4172 801.764 52.5385 801.934L51.1398 799.476L48.5693 800.597L49.4166 803.29C48.6898 803.818 48.0482 804.474 47.5316 805.243L44.814 804.496L43.7895 807.106L46.2892 808.409C46.1453 809.322 46.1691 810.237 46.3414 811.117L43.8915 812.512L45.0113 815.079L47.7038 814.231C48.2331 814.957 48.8909 815.596 49.6601 816.113L48.9109 818.844L51.5213 819.869L52.8335 817.348C53.7407 817.488 54.6505 817.464 55.5234 817.292L56.9335 819.768L59.504 818.646L58.645 815.924C59.3617 815.4 59.9928 814.75 60.5034 813.992L63.2593 814.747L64.2838 812.137L61.7506 810.818C61.8923 809.91 61.8697 809.001 61.7 808.127L64.1665 806.723L63.0467 804.157L60.3412 805.007C59.8181 804.288 59.1698 803.654 58.4092 803.141L59.1624 800.399Z"/>
</mask>
<path d="M58.976 800.492L59.9404 800.757L60.1782 799.89L59.3413 799.561L58.976 800.492ZM58.2608 803.099L57.2964 802.835L57.2949 802.84L58.2608 803.099ZM58.2321 803.206L57.2662 802.947L57.0826 803.632L57.6686 804.032L58.2321 803.206ZM58.324 803.269L57.7605 804.095L57.7641 804.097L58.324 803.269ZM60.2173 805.099L61.0265 804.511L61.0258 804.51L60.2173 805.099ZM60.2832 805.189L59.4739 805.777L59.8959 806.358L60.5815 806.144L60.2832 805.189ZM60.3894 805.156L60.6877 806.111L60.6898 806.11L60.3894 805.156ZM62.9608 804.346L63.8774 803.946L63.5178 803.122L62.6604 803.392L62.9608 804.346ZM63.9693 806.658L64.4641 807.527L65.2454 807.082L64.8859 806.258L63.9693 806.658ZM61.6246 807.993L61.1298 807.124L61.1278 807.125L61.6246 807.993ZM61.528 808.048L61.0312 807.18L60.4078 807.537L60.5469 808.242L61.528 808.048ZM61.5497 808.158L62.5314 807.967L62.5308 807.964L61.5497 808.158ZM61.5997 810.796L60.6118 810.641L60.6108 810.647L61.5997 810.796ZM61.5832 810.906L60.5943 810.757L60.4888 811.458L61.1159 811.79L61.5832 810.906ZM61.681 810.957L61.2137 811.842L61.2194 811.844L61.681 810.957ZM64.0886 812.21L65.0195 812.576L65.3481 811.738L64.5502 811.323L64.0886 812.21ZM63.166 814.561L62.9015 815.525L63.7685 815.763L64.0969 814.926L63.166 814.561ZM60.5456 813.842L60.8101 812.878L60.8044 812.876L60.5456 813.842ZM60.4386 813.813L60.6974 812.848L60.0123 812.664L59.6126 813.25L60.4386 813.813ZM60.3759 813.905L59.5498 813.342L59.5467 813.346L60.3759 813.905ZM58.5544 815.799L57.9636 814.992L57.9575 814.996L58.5544 815.799ZM58.4651 815.865L57.8682 815.063L57.299 815.486L57.5106 816.163L58.4651 815.865ZM58.4983 815.971L57.5438 816.27L57.5445 816.272L58.4983 815.971ZM59.3142 818.562L59.7141 819.478L60.538 819.119L60.268 818.261L59.3142 818.562ZM57.0007 819.571L56.1318 820.066L56.5768 820.847L57.4006 820.488L57.0007 819.571ZM55.6584 817.215L56.5273 816.72L56.5263 816.718L55.6584 817.215ZM55.6032 817.118L56.471 816.622L56.1142 815.998L55.4095 816.137L55.6032 817.118ZM55.4931 817.14L55.6861 818.121L55.6867 818.121L55.4931 817.14ZM52.8567 817.196L53.0084 816.207L53.0054 816.207L52.8567 817.196ZM52.7466 817.179L52.8954 816.19L52.194 816.085L51.8625 816.712L52.7466 817.179ZM52.6949 817.277L51.8108 816.81L51.8078 816.815L52.6949 817.277ZM51.4481 819.674L51.0828 820.604L51.9201 820.933L52.3352 820.135L51.4481 819.674ZM49.0973 818.751L48.133 818.486L47.8949 819.353L48.732 819.682L49.0973 818.751ZM49.8106 816.153L50.7749 816.418L50.7761 816.414L49.8106 816.153ZM49.8398 816.045L50.8053 816.305L50.9929 815.609L50.392 815.211L49.8398 816.045ZM49.7473 815.984L49.1906 816.814L49.195 816.817L49.7473 815.984ZM47.8293 814.141L47.02 814.728L47.0214 814.73L47.8293 814.141ZM47.7634 814.05L48.5726 813.462L48.1506 812.881L47.4651 813.096L47.7634 814.05ZM47.6571 814.083L47.3588 813.129L47.3568 813.129L47.6571 814.083ZM45.0972 814.889L44.1807 815.289L44.5402 816.113L45.3976 815.843L45.0972 814.889ZM44.0887 812.578L43.594 811.709L42.8126 812.154L43.1722 812.978L44.0887 812.578ZM46.4182 811.252L46.9129 812.121L46.915 812.12L46.4182 811.252ZM46.5148 811.197L47.0116 812.064L47.635 811.708L47.4959 811.003L46.5148 811.197ZM46.4931 811.087L45.5119 811.28L45.512 811.28L46.4931 811.087ZM46.441 808.433L47.429 808.588L47.4299 808.582L46.441 808.433ZM46.4576 808.323L47.4464 808.472L47.5519 807.77L46.9248 807.439L46.4576 808.323ZM46.3597 808.271L46.827 807.387L46.822 807.385L46.3597 808.271ZM43.9847 807.033L43.0538 806.668L42.7255 807.504L43.5223 807.92L43.9847 807.033ZM44.9073 804.682L45.1721 803.718L44.3049 803.48L43.9764 804.317L44.9073 804.682ZM47.4915 805.392L47.2266 806.356L47.2326 806.358L47.4915 805.392ZM47.5984 805.421L47.3396 806.386L48.0247 806.57L48.4244 805.984L47.5984 805.421ZM47.6611 805.329L48.4872 805.892L48.4908 805.887L47.6611 805.329ZM49.5092 803.414L48.9217 802.605L48.9209 802.606L49.5092 803.414ZM49.5999 803.348L50.1874 804.158L50.7687 803.736L50.5544 803.05L49.5999 803.348ZM49.5667 803.242L50.5212 802.944L50.5205 802.941L49.5667 803.242ZM48.76 800.684L48.3601 799.767L47.5359 800.127L47.8063 800.984L48.76 800.684ZM51.0735 799.674L51.9423 799.179L51.4974 798.398L50.6736 798.758L51.0735 799.674ZM52.405 802.011L51.5361 802.506L51.5371 802.508L52.405 802.011ZM52.4603 802.108L51.5924 802.604L51.9448 803.22L52.6424 803.091L52.4603 802.108ZM52.5698 802.087L52.7519 803.071L52.7591 803.069L52.5698 802.087ZM55.2204 802.042L55.3825 801.056L55.3782 801.055L55.2204 802.042ZM55.3298 802.06L55.1676 803.047L55.8788 803.164L56.2146 802.526L55.3298 802.06ZM55.3821 801.961L56.2669 802.427L56.2694 802.422L55.3821 801.961ZM56.6252 799.57L56.9905 798.639L56.1529 798.31L55.7379 799.108L56.6252 799.57ZM59.1624 800.399L60.1267 800.664L60.3649 799.797L59.5277 799.468L59.1624 800.399ZM56.552 799.374L56.9173 798.444L56.0805 798.115L55.6651 798.912L56.552 799.374ZM55.2427 801.888L55.0858 802.876L55.7969 802.989L56.1295 802.35L55.2427 801.888ZM52.5385 801.934L51.6694 802.428L52.024 803.051L52.7279 802.915L52.5385 801.934ZM51.1398 799.476L52.0089 798.981L51.5642 798.199L50.7399 798.559L51.1398 799.476ZM48.5693 800.597L48.1694 799.681L47.3456 800.04L47.6154 800.897L48.5693 800.597ZM49.4166 803.29L50.0048 804.098L50.5863 803.675L50.3705 802.99L49.4166 803.29ZM47.5316 805.243L47.2666 806.207L47.9605 806.398L48.3618 805.8L47.5316 805.243ZM44.814 804.496L45.079 803.532L44.2117 803.293L43.8831 804.131L44.814 804.496ZM43.7895 807.106L42.8586 806.741L42.5302 807.578L43.3275 807.993L43.7895 807.106ZM46.2892 808.409L47.2771 808.564L47.3889 807.854L46.7513 807.522L46.2892 808.409ZM46.3414 811.117L46.8363 811.986L47.4609 811.63L47.3228 810.925L46.3414 811.117ZM43.8915 812.512L43.3966 811.643L42.6154 812.088L42.9749 812.912L43.8915 812.512ZM45.0113 815.079L44.0947 815.479L44.4541 816.302L45.3114 816.033L45.0113 815.079ZM47.7038 814.231L48.5117 813.642L48.0885 813.062L47.4037 813.277L47.7038 814.231ZM49.6601 816.113L50.6245 816.377L50.8147 815.683L50.2176 815.282L49.6601 816.113ZM48.9109 818.844L47.9465 818.58L47.7087 819.447L48.5456 819.775L48.9109 818.844ZM51.5213 819.869L51.156 820.8L51.9931 821.128L52.4083 820.33L51.5213 819.869ZM52.8335 817.348L52.9856 816.36L52.2774 816.251L51.9465 816.886L52.8335 817.348ZM55.5234 817.292L56.3924 816.797L56.0363 816.172L55.3304 816.311L55.5234 817.292ZM56.9335 819.768L56.0646 820.263L56.5095 821.044L57.3334 820.684L56.9335 819.768ZM59.504 818.646L59.9039 819.563L60.7283 819.203L60.4577 818.345L59.504 818.646ZM58.645 815.924L58.0546 815.117L57.4754 815.541L57.6914 816.225L58.645 815.924ZM60.5034 813.992L60.7677 813.028L60.0751 812.838L59.6739 813.433L60.5034 813.992ZM63.2593 814.747L62.995 815.712L63.8618 815.949L64.1902 815.113L63.2593 814.747ZM64.2838 812.137L65.2147 812.502L65.5432 811.665L64.7456 811.25L64.2838 812.137ZM61.7506 810.818L60.7626 810.664L60.6519 811.374L61.2888 811.705L61.7506 810.818ZM61.7 808.127L61.2054 807.258L60.5815 807.613L60.7183 808.318L61.7 808.127ZM64.1665 806.723L64.6611 807.593L65.4427 807.148L65.0831 806.324L64.1665 806.723ZM63.0467 804.157L63.9633 803.757L63.604 802.934L62.7468 803.203L63.0467 804.157ZM60.3412 805.007L59.5324 805.596L59.9552 806.177L60.6412 805.961L60.3412 805.007ZM58.4092 803.141L57.445 802.876L57.2548 803.568L57.8499 803.97L58.4092 803.141ZM58.0116 800.228L57.2964 802.835L59.2252 803.364L59.9404 800.757L58.0116 800.228ZM57.2949 802.84L57.2662 802.947L59.1981 803.465L59.2267 803.358L57.2949 802.84ZM57.6686 804.032L57.7605 804.095L58.8876 802.443L58.7957 802.38L57.6686 804.032ZM57.7641 804.097C58.4014 804.528 58.9544 805.063 59.4087 805.687L61.0258 804.51C60.4356 803.699 59.7147 803.002 58.884 802.44L57.7641 804.097ZM59.408 805.686L59.4739 805.777L61.0924 804.602L61.0265 804.511L59.408 805.686ZM60.5815 806.144L60.6877 806.111L60.0911 804.202L59.9849 804.235L60.5815 806.144ZM60.6898 806.11L63.2612 805.3L62.6604 803.392L60.089 804.202L60.6898 806.11ZM62.0442 804.746L63.0527 807.058L64.8859 806.258L63.8774 803.946L62.0442 804.746ZM63.4745 805.789L61.1298 807.124L62.1194 808.862L64.4641 807.527L63.4745 805.789ZM61.1278 807.125L61.0312 807.18L62.0248 808.916L62.1214 808.861L61.1278 807.125ZM60.5469 808.242L60.5686 808.352L62.5308 807.964L62.5091 807.854L60.5469 808.242ZM60.568 808.349C60.7159 809.11 60.7311 809.881 60.6118 810.641L62.5876 810.951C62.7434 809.958 62.7229 808.954 62.5314 807.967L60.568 808.349ZM60.6108 810.647L60.5943 810.757L62.572 811.054L62.5886 810.944L60.6108 810.647ZM61.1159 811.79L61.2138 811.842L62.1483 810.073L62.0504 810.022L61.1159 811.79ZM61.2194 811.844L63.627 813.097L64.5502 811.323L62.1426 810.07L61.2194 811.844ZM63.1578 811.845L62.2352 814.196L64.0969 814.926L65.0195 812.576L63.1578 811.845ZM63.4306 813.597L60.8101 812.878L60.281 814.806L62.9015 815.525L63.4306 813.597ZM60.8044 812.876L60.6974 812.848L60.1798 814.779L60.2867 814.808L60.8044 812.876ZM59.6126 813.25L59.5499 813.342L61.202 814.469L61.2647 814.377L59.6126 813.25ZM59.5467 813.346C59.1173 813.984 58.5854 814.536 57.9636 814.992L59.1453 816.605C59.9529 816.014 60.6463 815.293 61.2052 814.464L59.5467 813.346ZM57.9575 814.996L57.8682 815.063L59.0621 816.667L59.1514 816.601L57.9575 814.996ZM57.5106 816.163L57.5439 816.27L59.4528 815.673L59.4196 815.567L57.5106 816.163ZM57.5445 816.272L58.3603 818.862L60.268 818.261L59.4521 815.671L57.5445 816.272ZM58.9143 817.645L56.6008 818.654L57.4006 820.488L59.7141 819.478L58.9143 817.645ZM57.8696 819.076L56.5273 816.72L54.7896 817.71L56.1318 820.066L57.8696 819.076ZM56.5263 816.718L56.471 816.622L54.7353 817.615L54.7906 817.712L56.5263 816.718ZM55.4095 816.137L55.2995 816.159L55.6867 818.121L55.7968 818.1L55.4095 816.137ZM55.3001 816.159C54.5408 816.308 53.7714 816.324 53.0084 816.207L52.705 818.184C53.6969 818.336 54.6996 818.315 55.6861 818.121L55.3001 816.159ZM53.0054 816.207L52.8954 816.19L52.5979 818.168L52.7079 818.185L53.0054 816.207ZM51.8625 816.712L51.8108 816.81L53.579 817.744L53.6308 817.646L51.8625 816.712ZM51.8078 816.815L50.561 819.212L52.3352 820.135L53.5821 817.738L51.8078 816.815ZM51.8134 818.743L49.4626 817.82L48.732 819.682L51.0828 820.604L51.8134 818.743ZM50.0616 819.016L50.7749 816.418L48.8463 815.889L48.133 818.486L50.0616 819.016ZM50.7761 816.414L50.8053 816.305L48.8743 815.785L48.845 815.893L50.7761 816.414ZM50.392 815.211L50.2996 815.15L49.195 816.817L49.2875 816.879L50.392 815.211ZM50.304 815.153C49.6578 814.72 49.0972 814.182 48.6371 813.551L47.0214 814.73C47.6197 815.55 48.3504 816.251 49.1906 816.814L50.304 815.153ZM48.6385 813.553L48.5726 813.462L46.9541 814.637L47.02 814.728L48.6385 813.553ZM47.4651 813.096L47.3588 813.129L47.9554 815.038L48.0617 815.004L47.4651 813.096ZM47.3568 813.129L44.7969 813.936L45.3976 815.843L47.9575 815.037L47.3568 813.129ZM46.0138 814.489L45.0053 812.178L43.1722 812.978L44.1807 815.289L46.0138 814.489ZM44.5834 813.447L46.9129 812.121L45.9236 810.383L43.594 811.709L44.5834 813.447ZM46.915 812.12L47.0116 812.064L46.018 810.329L45.9215 810.384L46.915 812.12ZM47.4959 811.003L47.4742 810.893L45.512 811.28L45.5338 811.39L47.4959 811.003ZM47.4743 810.893C47.324 810.13 47.3092 809.354 47.429 808.588L45.453 808.279C45.2972 809.275 45.3165 810.287 45.5119 811.28L47.4743 810.893ZM47.4299 808.582L47.4464 808.472L45.4687 808.174L45.4521 808.284L47.4299 808.582ZM46.9248 807.439L46.827 807.387L45.8924 809.156L45.9903 809.207L46.9248 807.439ZM46.822 807.385L44.447 806.146L43.5223 807.92L45.8974 809.158L46.822 807.385ZM44.9156 807.398L45.8382 805.048L43.9764 804.317L43.0538 806.668L44.9156 807.398ZM44.6425 805.647L47.2267 806.356L47.7562 804.428L45.1721 803.718L44.6425 805.647ZM47.2326 806.358L47.3396 806.386L47.8572 804.455L47.7503 804.426L47.2326 806.358ZM48.4244 805.984L48.4871 805.892L46.835 804.765L46.7723 804.857L48.4244 805.984ZM48.4908 805.887C48.9243 805.242 49.4641 804.684 50.0974 804.223L48.9209 802.606C48.1008 803.202 47.3968 803.93 46.8313 804.771L48.4908 805.887ZM50.0967 804.224L50.1874 804.158L49.0125 802.539L48.9217 802.605L50.0967 804.224ZM50.5544 803.05L50.5212 802.944L48.6123 803.54L48.6455 803.647L50.5544 803.05ZM50.5205 802.941L49.7138 800.383L47.8063 800.984L48.613 803.543L50.5205 802.941ZM49.1599 801.6L51.4734 800.591L50.6736 798.758L48.3601 799.767L49.1599 801.6ZM50.2047 800.169L51.5361 802.506L53.2738 801.516L51.9423 799.179L50.2047 800.169ZM51.5371 802.508L51.5924 802.604L53.3281 801.611L53.2728 801.514L51.5371 802.508ZM52.6424 803.091L52.7519 803.071L52.3876 801.104L52.2782 801.124L52.6424 803.091ZM52.7591 803.069C53.5249 802.922 54.2992 802.908 55.0625 803.03L55.3782 801.055C54.3812 800.896 53.372 800.914 52.3804 801.105L52.7591 803.069ZM55.0582 803.029L55.1676 803.047L55.492 801.074L55.3825 801.056L55.0582 803.029ZM56.2146 802.526L56.2669 802.427L54.4973 801.495L54.445 801.594L56.2146 802.526ZM56.2694 802.422L57.5125 800.031L55.7379 799.108L54.4948 801.5L56.2694 802.422ZM56.2599 800.501L58.6107 801.423L59.3413 799.561L56.9905 798.639L56.2599 800.501ZM59.5277 799.468L56.9173 798.444L56.1867 800.305L58.7971 801.33L59.5277 799.468ZM55.6651 798.912L54.3558 801.426L56.1295 802.35L57.4389 799.836L55.6651 798.912ZM55.3995 800.9C54.3704 800.737 53.3396 800.761 52.3492 800.952L52.7279 802.915C53.4949 802.768 54.2913 802.749 55.0858 802.876L55.3995 800.9ZM53.4077 801.439L52.0089 798.981L50.2707 799.97L51.6694 802.428L53.4077 801.439ZM50.7399 798.559L48.1694 799.681L48.9692 801.514L51.5397 800.392L50.7399 798.559ZM47.6154 800.897L48.4627 803.59L50.3705 802.99L49.5232 800.297L47.6154 800.897ZM48.8283 802.481C48.01 803.076 47.2855 803.816 46.7015 804.685L48.3618 805.8C48.811 805.132 49.3697 804.56 50.0048 804.098L48.8283 802.481ZM47.7967 804.279L45.079 803.532L44.549 805.46L47.2666 806.207L47.7967 804.279ZM43.8831 804.131L42.8586 806.741L44.7204 807.472L45.7449 804.861L43.8831 804.131ZM43.3275 807.993L45.8272 809.295L46.7513 807.522L44.2515 806.219L43.3275 807.993ZM45.3014 808.253C45.1388 809.285 45.1659 810.318 45.3601 811.309L47.3228 810.925C47.1723 810.156 47.1518 809.359 47.2771 808.564L45.3014 808.253ZM45.8465 810.248L43.3966 811.643L44.3864 813.381L46.8363 811.986L45.8465 810.248ZM42.9749 812.912L44.0947 815.479L45.9278 814.679L44.8081 812.112L42.9749 812.912ZM45.3114 816.033L48.004 815.185L47.4037 813.277L44.7111 814.125L45.3114 816.033ZM46.896 814.821C47.493 815.639 48.2351 816.36 49.1026 816.943L50.2176 815.282C49.5466 814.832 48.9731 814.274 48.5117 813.642L46.896 814.821ZM48.6957 815.848L47.9465 818.58L49.8753 819.109L50.6245 816.377L48.6957 815.848ZM48.5456 819.775L51.156 820.8L51.8866 818.938L49.2762 817.913L48.5456 819.775ZM52.4083 820.33L53.7205 817.81L51.9465 816.886L50.6343 819.407L52.4083 820.33ZM52.6813 818.336C53.7051 818.494 54.7318 818.467 55.7164 818.273L55.3304 816.311C54.5692 816.46 53.7762 816.481 52.9856 816.36L52.6813 818.336ZM54.6545 817.787L56.0646 820.263L57.8024 819.273L56.3924 816.797L54.6545 817.787ZM57.3334 820.684L59.9039 819.563L59.1041 817.73L56.5336 818.851L57.3334 820.684ZM60.4577 818.345L59.5987 815.623L57.6914 816.225L58.5504 818.947L60.4577 818.345ZM59.2354 816.731C60.0442 816.139 60.7565 815.406 61.3328 814.551L59.6739 813.433C59.229 814.094 58.6793 814.66 58.0546 815.117L59.2354 816.731ZM60.239 814.956L62.995 815.712L63.5237 813.783L60.7677 813.028L60.239 814.956ZM64.1902 815.113L65.2147 812.502L63.3529 811.772L62.3284 814.382L64.1902 815.113ZM64.7456 811.25L62.2124 809.931L61.2888 811.705L63.822 813.024L64.7456 811.25ZM62.7386 810.972C62.8986 809.948 62.8729 808.922 62.6816 807.936L60.7183 808.318C60.8664 809.08 60.886 809.873 60.7626 810.664L62.7386 810.972ZM62.1946 808.996L64.6611 807.593L63.6719 805.854L61.2054 807.258L62.1946 808.996ZM65.0831 806.324L63.9633 803.757L62.1302 804.557L63.25 807.123L65.0831 806.324ZM62.7468 803.203L60.0413 804.054L60.6412 805.961L63.3466 805.111L62.7468 803.203ZM61.1501 804.419C60.5599 803.608 59.8278 802.892 58.9686 802.312L57.8499 803.97C58.5119 804.416 59.0763 804.968 59.5324 805.596L61.1501 804.419ZM59.3735 803.406L60.1267 800.664L58.1981 800.134L57.445 802.876L59.3735 803.406Z" fill="white" mask="url(#path-138-inside-3)"/>
<path d="M58.6014 811.413C57.6082 813.944 54.7515 815.19 52.2207 814.197C49.69 813.204 48.4436 810.347 49.4368 807.816C50.43 805.286 53.2867 804.039 55.8175 805.032C58.3482 806.026 59.5946 808.882 58.6014 811.413Z" stroke="white"/>
<mask id="path-141-inside-4" fill="white">
<path d="M55.9717 804.639C58.7148 805.716 60.0711 808.824 58.9946 811.567C57.918 814.311 54.8107 815.667 52.0662 814.59C49.3217 813.513 47.9668 810.405 49.0433 807.662C50.1199 804.919 53.2286 803.563 55.9717 804.639ZM56.0283 804.495C53.2001 803.385 50.0091 804.777 48.8991 807.605C47.7892 810.434 49.1815 813.625 52.0096 814.735C54.8378 815.844 58.0288 814.452 59.1388 811.624C60.2487 808.796 58.8565 805.605 56.0283 804.495Z"/>
</mask>
<path d="M55.6064 805.57C57.8353 806.445 58.9385 808.973 58.0637 811.202L59.9254 811.933C61.2038 808.676 59.5942 804.987 56.337 803.708L55.6064 805.57ZM58.0637 811.202C57.1888 813.431 54.6618 814.535 52.4316 813.659L51.7009 815.521C54.9597 816.8 58.6472 815.19 59.9254 811.933L58.0637 811.202ZM52.4316 813.659C50.2013 812.784 49.0994 810.256 49.9742 808.027L48.1125 807.297C46.8342 810.554 48.4421 814.242 51.7009 815.521L52.4316 813.659ZM49.9742 808.027C50.849 805.798 53.3774 804.695 55.6064 805.57L56.337 803.708C53.0798 802.43 49.3908 804.039 48.1125 807.297L49.9742 808.027ZM56.3936 803.564C53.0513 802.252 49.2799 803.898 47.9682 807.24L49.83 807.971C50.7382 805.657 53.3489 804.518 55.663 805.426L56.3936 803.564ZM47.9682 807.24C46.6565 810.582 48.302 814.354 51.6443 815.665L52.375 813.804C50.0609 812.895 48.9218 810.285 49.83 807.971L47.9682 807.24ZM51.6443 815.665C54.9866 816.977 58.758 815.332 60.0697 811.989L58.2079 811.259C57.2997 813.573 54.689 814.712 52.375 813.804L51.6443 815.665ZM60.0697 811.989C61.3814 808.647 59.7359 804.876 56.3936 803.564L55.663 805.426C57.977 806.334 59.1161 808.945 58.2079 811.259L60.0697 811.989Z" fill="white" mask="url(#path-141-inside-4)"/>
<path d="M115.936 249.426C115.936 280.299 90.1093 305.353 58.2178 305.353C26.3263 305.353 0.5 280.299 0.5 249.426C0.5 218.554 26.3263 193.5 58.2178 193.5C90.1093 193.5 115.936 218.554 115.936 249.426Z" stroke="white"/>
<rect x="25.1621" y="219.966" width="17.4265" height="17.4265" rx="1.5" transform="rotate(-11.701 25.1621 219.966)" stroke="white"/>
<rect x="51.1871" y="231.39" width="17.4265" height="17.4265" rx="1.5" transform="rotate(6.18547 51.1871 231.39)" stroke="white"/>
<rect x="72.995" y="238.912" width="17.4265" height="17.4265" rx="1.5" transform="rotate(-14.3459 72.995 238.912)" stroke="white"/>
<rect x="29.2993" y="262.023" width="16.8755" height="17.8686" rx="1.5" stroke="white"/>
<rect x="50.1543" y="262.023" width="17.8686" height="17.8686" rx="1.5" stroke="white"/>
<rect x="71.009" y="262.023" width="17.8686" height="17.8686" rx="1.5" stroke="white"/>
<path d="M59 113L59 194" stroke="white" stroke-linecap="round" stroke-dasharray="1 3"/>
<path d="M59 309L59 390" stroke="white" stroke-linecap="round" stroke-dasharray="1 3"/>
<path d="M59 506L59 587" stroke="white" stroke-linecap="round" stroke-dasharray="1 3"/>
<path d="M59 703L59 784" stroke="white" stroke-linecap="round" stroke-dasharray="1 3"/>
<path d="M59 901L59 1013" stroke="white" stroke-linecap="round" stroke-dasharray="1 3"/>
<path d="M69 148L59.1478 157.852L49.2955 148" stroke="white"/>
<path d="M69 344L59.1478 353.852L49.2955 344" stroke="white"/>
<path d="M69 541L59.1478 550.852L49.2955 541" stroke="white"/>
<path d="M69 738L59.1478 747.852L49.2955 738" stroke="white"/>
<path d="M69 947L59.1478 956.852L49.2955 947" stroke="white"/>
</svg>
