<svg width="117" height="117" viewBox="0 0 117 117" fill="none" xmlns="http://www.w3.org/2000/svg">
<circle cx="58.2178" cy="58.2178" r="57.7178" stroke="white"/>
<path d="M58.7163 73.5376L50.7351 79.399L58.7163 85.2559L66.6976 79.399L58.7163 73.5376Z" stroke="white" stroke-miterlimit="10" stroke-linejoin="round"/>
<path d="M66.698 87.8042V79.399L58.7168 85.256V93.6612L66.698 87.8042Z" stroke="white" stroke-miterlimit="10" stroke-linejoin="round"/>
<path d="M50.7351 87.8042V79.399L58.7163 85.256V93.6612L50.7351 87.8042Z" stroke="white" stroke-miterlimit="10" stroke-linejoin="round"/>
<path d="M85.3789 46.8751L77.3977 52.7365L85.3789 58.5935L93.3602 52.7365L85.3789 46.8751Z" stroke="white" stroke-miterlimit="10" stroke-linejoin="round"/>
<path d="M93.3606 61.1417V52.7365L85.3794 58.5935V66.9987L93.3606 61.1417Z" stroke="white" stroke-miterlimit="10" stroke-linejoin="round"/>
<path d="M77.3979 61.1417V52.7365L85.3792 58.5935V66.9987L77.3979 61.1417Z" stroke="white" stroke-miterlimit="10" stroke-linejoin="round"/>
<path d="M58.7163 46.8751L50.7351 52.7365L58.7163 58.5935L66.6976 52.7365L58.7163 46.8751Z" stroke="white" stroke-miterlimit="10" stroke-linejoin="round"/>
<path d="M66.698 61.1417V52.7365L58.7168 58.5935V66.9987L66.698 61.1417Z" stroke="white" stroke-miterlimit="10" stroke-linejoin="round"/>
<path d="M50.7351 61.1417V52.7365L58.7163 58.5935V66.9987L50.7351 61.1417Z" stroke="white" stroke-miterlimit="10" stroke-linejoin="round"/>
<path d="M31.6175 46.8751L23.6362 52.7365L31.6175 58.5935L39.5987 52.7365L31.6175 46.8751Z" stroke="white" stroke-miterlimit="10" stroke-linejoin="round"/>
<path d="M39.5989 61.1417V52.7365L31.6177 58.5935V66.9987L39.5989 61.1417Z" stroke="white" stroke-miterlimit="10" stroke-linejoin="round"/>
<path d="M23.636 61.1417V52.7365L31.6172 58.5935V66.9987L23.636 61.1417Z" stroke="white" stroke-miterlimit="10" stroke-linejoin="round"/>
<path d="M58.7163 20.2128L50.7351 26.0741L58.7163 31.9311L66.6976 26.0741L58.7163 20.2128Z" stroke="white" stroke-miterlimit="10" stroke-linejoin="round"/>
<path d="M66.698 34.4793V26.0741L58.7168 31.9311V40.3363L66.698 34.4793Z" stroke="white" stroke-miterlimit="10" stroke-linejoin="round"/>
<path d="M50.7351 34.4793V26.0741L58.7163 31.9311V40.3363L50.7351 34.4793Z" stroke="white" stroke-miterlimit="10" stroke-linejoin="round"/>
<path d="M39.7234 57.5989H50.6473" stroke="white"/>
<path d="M53.6265 36.7442L35.7509 49.6543" stroke="white"/>
<path d="M62.768 76.0622C62.5442 76.2239 62.4938 76.5364 62.6555 76.7603C62.8171 76.9841 63.1297 77.0345 63.3535 76.8729L62.768 76.0622ZM63.3535 76.8729L81.229 63.9628L80.6436 63.1521L62.768 76.0622L63.3535 76.8729Z" fill="white"/>
<path d="M58.592 39.7234L58.592 47.6681" stroke="white"/>
<path d="M58.592 66.5367L58.592 74.4814" stroke="white"/>
<path d="M63.5573 36.7442L81.4329 49.6543" stroke="white"/>
<path d="M54.6196 76.4675L35.751 63.5574" stroke="white"/>
<path d="M66.5366 57.5989H77.4605" stroke="white"/>
</svg>
