<svg width="117" height="113" viewBox="0 0 117 113" fill="none" xmlns="http://www.w3.org/2000/svg">
<path d="M115.936 56.4265C115.936 87.2992 90.1093 112.353 58.2178 112.353C26.3263 112.353 0.5 87.2992 0.5 56.4265C0.5 25.5537 26.3263 0.5 58.2178 0.5C90.1093 0.5 115.936 25.5537 115.936 56.4265Z" stroke="white"/>
<rect x="25.1621" y="26.9661" width="17.4265" height="17.4265" rx="1.5" transform="rotate(-11.701 25.1621 26.9661)" stroke="white"/>
<rect x="51.1871" y="38.39" width="17.4265" height="17.4265" rx="1.5" transform="rotate(6.18547 51.1871 38.39)" stroke="white"/>
<rect x="72.995" y="45.9124" width="17.4265" height="17.4265" rx="1.5" transform="rotate(-14.3459 72.995 45.9124)" stroke="white"/>
<rect x="29.2993" y="69.0228" width="16.8755" height="17.8686" rx="1.5" stroke="white"/>
<rect x="50.1543" y="69.0228" width="17.8686" height="17.8686" rx="1.5" stroke="white"/>
<rect x="71.009" y="69.0228" width="17.8686" height="17.8686" rx="1.5" stroke="white"/>
</svg>
