<svg width="268" height="167" viewBox="0 0 268 167" fill="none" xmlns="http://www.w3.org/2000/svg">
<circle cx="174.291" cy="155.291" r="10.7915" fill="black" stroke="white"/>
<circle cx="48.5" cy="55.5" r="7" fill="black" stroke="white"/>
<circle cx="78.182" cy="18.182" r="3.68202" fill="black" stroke="white"/>
<circle cx="202.946" cy="129.946" r="7.44585" fill="black" stroke="white"/>
<path d="M23.5371 121.447L45.3032 118.73L47.1695 119.756L37.629 123.704L35.6088 122.743L23.4523 127.774L26.7557 135.756L38.9122 130.724L39.6618 128.616L49.2024 124.668L48.6066 126.712L31.2873 140.172L29.3165 143.685L30.9047 147.522L32.1357 147.013L32.7074 148.394L27.7833 150.432L26.5156 150.417L26.1344 149.496L27.2115 149.051L18.3149 144.103L15.0834 145.441L13.5588 141.757L14.7898 141.247L11.1053 132.345L9.87424 132.854L8.34961 129.171L11.5811 127.833L14.3792 118.045L13.3021 118.491L12.9209 117.57L13.8075 116.664L18.7316 114.626L19.3034 116.007L18.0723 116.517L19.6605 120.354L23.5371 121.447Z" fill="black" stroke="black"/>
<path d="M32.603 147.642L38.0059 145.406" stroke="black"/>
<path d="M49.2079 124.687L54.8359 122.357" stroke="black"/>
<path d="M47.1572 119.736L52.7852 117.406" stroke="black"/>
<path d="M19.1909 115.228L24.5938 112.992" stroke="black"/>
<path d="M9.55035 145.454L14.883 144.96L13.6727 142.035L9.55035 145.454Z" stroke="black"/>
<path d="M4.42535 133.073L9.75804 132.579L8.5477 129.654L4.42535 133.073Z" stroke="black"/>
<path d="M45.793 118.98L36.3379 122.894" stroke="black"/>
<path d="M48.7734 126.188L39.3184 130.101" stroke="black"/>
<path d="M21.3534 126.198L36.8867 119.77" stroke="black"/>
<path d="M26.3866 138.353L41.9199 131.924" stroke="black"/>
<path d="M31.045 130.486L26.2495 134.189L24.1997 129.237L30.2099 128.468L30.5895 129.385L30.6654 129.569L31.045 130.486Z" fill="black"/>
<path d="M30.5895 129.385L31.045 130.486L26.2495 134.189L24.1997 129.237L30.2099 128.468L30.6654 129.569" stroke="black"/>
<path d="M30.9948 130.379L34.1465 129.074" stroke="black"/>
<path d="M30.2487 128.58L33.4004 127.275" stroke="black"/>
<path d="M31.9102 139.734L19.6309 144.816" stroke="black"/>
<path d="M24.2852 121.316L12.0059 126.399" stroke="black"/>
<path d="M16.6737 124.442L17.6055 126.693" stroke="black"/>
<path d="M23.3847 140.653L24.3164 142.904" stroke="black"/>
<path d="M195.562 21.4094C199.606 20.0262 211.554 17.6747 227.004 19.3346C232.962 21.3562 245.613 25.9739 248.55 28.2722C240.357 27.7934 221.577 27.6338 212.001 30.8258" stroke="black" stroke-linecap="round" stroke-linejoin="round"/>
<path d="M95.4936 110.945C96.4512 111.158 98.4941 111.839 99.0048 112.861C98.8984 116.265 98.3664 123.713 97.0896 126.267C95.7064 125.894 92.5251 124.735 90.8652 123.075" stroke="black" stroke-linecap="round" stroke-linejoin="round"/>
<path d="M127.73 90.3577C130.603 93.1773 137.466 104.243 138.104 123.235H143.69C143.69 114.617 141.584 96.9652 134.434 87.6445" stroke="black" stroke-linecap="round" stroke-linejoin="round"/>
<path d="M208.65 64.3391C205.968 65.6159 204.66 67.2119 204.66 70.7231L203.383 69.4463C203.383 64.3391 207 62.3175 208.65 61.7855L221.896 56.8379V59.3915L208.65 64.3391Z" fill="black" stroke="black" stroke-linecap="round" stroke-linejoin="round"/>
<path d="M144.172 65.4589C144.118 64.5545 144.619 62.3946 147.044 60.9901L161.568 52.5313C163.004 51.5737 165.973 49.1159 166.356 46.9453" stroke="black" stroke-linecap="round" stroke-linejoin="round"/>
<path d="M144.172 65.2975L170.985 54.2852C174.017 55.6152 180.529 58.9774 182.316 61.7863" stroke="black" stroke-linecap="round" stroke-linejoin="round"/>
<path d="M221.578 94.1877V82.3773L240.091 73.4397C238.282 70.6733 233.356 64.4064 228.121 61.4698C227.004 61.4698 227.323 63.0657 226.206 62.2678C225.312 61.6294 223.706 59.8738 223.014 59.0758V56.203C219.556 53.3302 211.587 47.1696 207.373 45.5098C206.863 45.5098 197.052 48.5954 192.211 50.1382V51.2554C191.573 51.2554 189.498 53.011 188.381 55.5646" stroke="black" stroke-linecap="round" stroke-linejoin="round"/>
<path d="M167.792 45.9894L187.582 37.2114L194.604 33.5406C195.668 33.0086 197.286 31.402 195.243 29.2314C194.338 28.2738 191.54 26.3586 187.582 26.3586C185.028 26.3054 178.708 26.6459 173.856 28.4334M82.2461 70.4082L117.198 93.8694L119.114 92.5926L83.6825 68.9718L82.2461 70.4082Z" stroke="black" stroke-linecap="round" stroke-linejoin="round"/>
<path d="M123.584 52.3733C126.776 49.5537 135.139 43.4676 143.055 41.6801L148.801 35.4557L170.985 26.6777" stroke="black" stroke-linecap="round" stroke-linejoin="round"/>
<path d="M124.543 53.328C129.757 51.0936 141.237 46.529 145.451 46.146L147.685 44.0712L148.643 40.0812L150.079 38.166L164.283 46.146" stroke="black" stroke-linecap="round" stroke-linejoin="round"/>
<path d="M134.914 32.9013L137.786 33.6993V30.0285C138.169 29.3901 139.01 28.8049 139.382 28.5921C140.659 27.6984 146.937 25.4533 149.916 24.4425L148.48 22.5273C145.926 22.9104 139.116 25.6661 136.031 26.9961C135.009 27.6345 134.86 29.4965 134.914 30.3477V32.9013Z" fill="black" stroke="black" stroke-linecap="round" stroke-linejoin="round"/>
<path d="M173.697 21.5704C167.186 19.9105 157.897 20.5596 154.066 21.0916V23.6452L171.144 26.518C179.698 23.5813 188.966 23.3792 192.53 23.6452C199.552 24.922 206.309 29.71 208.809 31.9444C213.278 35.1364 210.671 40.1904 208.809 42.3184C226.557 48.5747 241.102 66.3115 246.156 74.3979L249.507 75.1959V72.0039C239.803 58.4699 222.056 45.6168 214.395 40.882C214.906 36.1578 213.225 32.636 212.32 31.4656C206.096 24.4432 196.041 21.5704 195.403 21.5704C190.04 20.4212 178.698 21.0916 173.697 21.5704Z" fill="black" stroke="black" stroke-linecap="round" stroke-linejoin="round"/>
<path d="M94.0571 112.54C93.9507 111.689 94.8232 109.22 99.1643 106.156C106.985 100.677 123.104 89.6216 125.02 89.2386L127.573 89.877C128.637 89.345 130.957 88.2491 131.723 88.1214C132.68 87.9618 173.857 62.9046 191.892 59.0742C198.435 64.2878 211.97 76.6621 213.757 84.4506C208.49 87.3234 194.318 94.3777 179.762 99.6126C178.964 100.038 177.656 103.603 178.805 114.455" stroke="black" stroke-linecap="round" stroke-linejoin="round"/>
<path d="M92.9391 110.783L94.2159 106.953C94.3223 106.527 94.3755 105.42 93.7371 104.399L70.4355 86.0449L71.8719 98.0149" stroke="black" stroke-linecap="round" stroke-linejoin="round"/>
<path d="M72.9883 88.123V100.093" stroke="black" stroke-linecap="round" stroke-linejoin="round"/>
<path d="M76.1797 90.6738L76.4989 99.771" stroke="black" stroke-linecap="round" stroke-linejoin="round"/>
<path d="M80.9707 94.3477V103.604" stroke="black" stroke-linecap="round" stroke-linejoin="round"/>
<path d="M85.5985 98.0176L85.2793 107.434" stroke="black" stroke-linecap="round" stroke-linejoin="round"/>
<path d="M89.748 101.211V110.787" stroke="black" stroke-linecap="round" stroke-linejoin="round"/>
<path d="M53.6758 94.3452L55.4314 101.208L70.9126 98.1756L67.4014 94.3452L65.6458 83.4924L83.0422 69.6073C88.0217 62.3295 118.633 43.1669 133.316 34.4953V31.4629C129.996 32.229 102.141 47.8485 88.6281 55.5625L81.7654 60.8293C69.2527 67.4686 59.7406 76.1508 56.5486 79.662L53.6758 90.6744V94.3452Z" fill="black" stroke="black" stroke-linecap="round" stroke-linejoin="round"/>
<path d="M228.759 18.8549C193.009 9.53426 163.962 16.4609 153.907 21.0893C153.907 22.7491 151.779 23.6961 150.715 23.9621C149.949 23.5791 149.332 22.2065 149.119 21.5681L140.501 21.8873L132.84 24.4409C129.52 25.4623 127.733 27.3137 127.254 28.1117C126.488 28.1117 124.381 28.4309 123.423 28.5905C116.401 29.4843 91.5567 45.7741 80.0123 53.8073L78.7355 56.6801C64.9461 62.4257 55.5403 72.4805 52.5611 76.7897L49.3691 86.0465L49.6883 90.3557L53.0399 99.772L55.4339 101.368L71.8727 98.0164L72.9899 100.091C74.0007 99.9316 76.1181 99.6124 76.5011 99.6124C76.8842 99.6124 77.2459 101.262 77.2991 102.006L80.0123 100.73L80.9699 103.762L84.6407 103.283L85.1195 107.592L88.3115 106.794L89.5883 110.784H92.7803L93.7379 113.019C92.0781 114.551 90.7055 120.573 90.2267 123.393L93.7379 131.692C95.1424 132.969 97.6215 133.075 98.6855 132.969C117.454 132.841 129.701 130.256 133.478 128.979L138.426 124.989C144.427 126.393 148.374 125.042 149.598 124.191C168.75 122.02 197.265 110.944 209.129 105.677C210.15 105.167 209.98 104.188 209.767 103.762L207.054 101.528L207.852 96.58L212.64 94.3456C215.959 95.7501 220.194 94.9308 221.897 94.3456L237.537 87.0041C239.197 86.1103 239.825 84.6101 239.931 83.9717L240.889 78.5453C243.443 80.4605 249.72 76.1513 252.54 73.7573C274.724 52.2113 273.447 30.5057 228.759 18.8549Z" stroke="black" stroke-linecap="round" stroke-linejoin="round"/>
<path d="M243.444 64.3407C249.509 61.2551 259.468 51.4131 250.786 36.7299C249.775 35.0807 246.796 31.0801 242.965 28.2711C242.699 28.0583 242.135 28.0477 242.008 29.7075H233.549C237.911 34.4423 244.019 46.0187 233.549 54.4455" stroke="black" stroke-linecap="round" stroke-linejoin="round"/>
<path d="M209.127 74.5579C209.553 73.2279 210.531 70.4402 211.042 69.9295C211.202 69.6103 212.064 68.7484 214.234 67.8547L226.523 62.5879" stroke="black" stroke-linecap="round" stroke-linejoin="round"/>
<path d="M193.013 65.9087L169.806 76.4024L143.842 90.2163" stroke="black" stroke-width="2" stroke-miterlimit="3.8637" stroke-dasharray="2 0 2 2 0 2"/>
<path d="M170.361 62.3384L147.153 72.8321L121.19 86.646" stroke="black" stroke-width="2" stroke-miterlimit="3.8637" stroke-dasharray="2 0 2 2 0 2"/>
<path d="M152.127 48.2291L128.367 61.7849L104.064 76.4039" stroke="black" stroke-width="2" stroke-miterlimit="3.8637" stroke-dasharray="2 0 2 2 0 2"/>
<path d="M202.406 81.1269L178.093 90.2148L152.68 102.922" stroke="black" stroke-width="2" stroke-miterlimit="3.8637" stroke-dasharray="2 0 2 2 0 2"/>
<path d="M156.548 27.7866L119.536 47.674L90.2558 68.9641" stroke="black" stroke-width="2" stroke-miterlimit="3.8637" stroke-dasharray="2 0 2 2 0 2"/>
<circle cx="32" cy="19" r="18.5" fill="black" stroke="white"/>
</svg>
