<svg width="232" height="232" viewBox="0 0 232 232" fill="none" xmlns="http://www.w3.org/2000/svg">
<path d="M67.1624 87.6621L70.4517 84.9338L68.6816 82.7996L67.2654 81.0923L54.1081 92.0059L52.292 95.6737L54.4163 98.2346L57.2944 95.8473L57.2949 95.8587L67.1682 87.6691L67.1624 87.6621Z" fill="black"/>
<path d="M141.967 171.152L138.678 173.881L138.672 173.874L128.799 182.063L128.81 182.066L125.932 184.453L128.056 187.014L131.996 185.907L145.153 174.994L143.737 173.286L141.967 171.152Z" fill="black"/>
<path d="M69.3654 125.462L64.911 133.479L73.6139 130.583L86.7712 119.67C88.1337 118.54 88.2871 116.477 87.114 115.063C85.9408 113.648 83.8852 113.418 82.5228 114.548L75.5329 120.346L69.3654 125.462Z" fill="black"/>
<path d="M97.6884 159.607L93.2339 167.625L101.937 164.729L108.104 159.614L115.094 153.816C116.457 152.686 116.61 150.623 115.437 149.209C114.264 147.794 112.208 147.564 110.846 148.694L97.6884 159.607Z" fill="black"/>
<path fill-rule="evenodd" clip-rule="evenodd" d="M98.9002 122.578L110.229 136.236L121.675 119.912L121.491 119.69L117.243 114.568L117.059 114.347L98.9002 122.578ZM116.388 119.6L116.899 120.216L109.706 130.34L107.152 127.261L104.598 124.182L115.878 118.984L116.388 119.6Z" fill="black"/>
<path d="M135.083 92.5657L160.575 71.4207L155.111 70.1888L129.29 91.6067L135.083 92.5657Z" fill="black"/>
<path d="M171.904 85.0791L146.412 106.224L146.284 112.094L172.105 90.6764L171.904 85.0791Z" fill="black"/>
<path d="M53.7524 133.369L50.0294 136.457L49.7252 138.6L56.3634 146.603L58.5262 146.701L62.2493 143.612L53.7524 133.369Z" fill="black"/>
<path d="M87.5572 181.7L91.2803 178.612L82.7834 168.368L79.0604 171.456L78.7562 173.6L85.3944 181.603L87.5572 181.7Z" fill="black"/>
<path d="M172.155 92.0757L172.568 92.3579L172.661 92.2221L172.655 92.0578L172.155 92.0757ZM132.328 150.328L131.916 150.046L131.857 150.131L131.838 150.232L132.328 150.328ZM129.827 163.21L129.336 163.115L129.291 163.347L129.442 163.529L129.827 163.21ZM138.678 173.881L138.293 174.2L138.612 174.585L138.997 174.265L138.678 173.881ZM141.967 171.152L142.352 170.833L142.033 170.448L141.648 170.767L141.967 171.152ZM145.153 174.994L145.473 175.378L145.857 175.059L145.538 174.674L145.153 174.994ZM131.996 185.907L132.131 186.389L132.234 186.36L132.315 186.292L131.996 185.907ZM128.056 187.014L127.671 187.333L127.878 187.583L128.191 187.495L128.056 187.014ZM125.932 184.453L125.612 184.068L125.228 184.388L125.547 184.772L125.932 184.453ZM128.81 182.066L129.129 182.451L129.906 181.806L128.922 181.579L128.81 182.066ZM96.1917 174.538L96.3042 174.051L96.063 173.995L95.8725 174.153L96.1917 174.538ZM87.5572 181.7L87.5348 182.2L87.7278 182.208L87.8764 182.085L87.5572 181.7ZM79.0604 171.456L78.7411 171.071L78.5925 171.195L78.5653 171.386L79.0604 171.456ZM146.412 106.224L146.093 105.839L145.917 105.985L145.912 106.213L146.412 106.224ZM146.252 113.562L146.571 113.947L146.747 113.801L146.752 113.573L146.252 113.562ZM113.77 140.505L113.385 140.824L113.704 141.209L114.089 140.889L113.77 140.505ZM153.745 69.8809L153.855 69.3931L153.695 69.3569L153.544 69.4231L153.745 69.8809ZM89.136 98.2552L89.139 98.7552L89.2424 98.7546L89.3371 98.713L89.136 98.2552ZM76.0133 98.3327L75.6285 98.652L75.7796 98.8341L76.0163 98.8327L76.0133 98.3327ZM67.1624 87.6621L66.8432 87.2773L66.4584 87.5965L66.7776 87.9814L67.1624 87.6621ZM70.4517 84.9338L70.771 85.3186L71.1558 84.9994L70.8366 84.6145L70.4517 84.9338ZM67.2654 81.0923L67.6503 80.7731L67.331 80.3883L66.9462 80.7075L67.2654 81.0923ZM54.1081 92.0059L53.7889 91.621L53.7071 91.6888L53.66 91.784L54.1081 92.0059ZM52.292 95.6737L51.844 95.4518L51.6998 95.7429L51.9072 95.9929L52.292 95.6737ZM54.4163 98.2346L54.0314 98.5539L54.3506 98.9387L54.7355 98.6195L54.4163 98.2346ZM57.2944 95.8473L57.794 95.8269L57.7528 94.8175L56.9752 95.4625L57.2944 95.8473ZM58.6639 129.295L58.9831 129.68L59.1736 129.522L59.1635 129.274L58.6639 129.295ZM50.0294 136.457L49.7102 136.072L49.5615 136.195L49.5343 136.386L50.0294 136.457ZM58.5262 146.701L58.5038 147.2L58.6968 147.209L58.8455 147.085L58.5262 146.701ZM135.083 92.5657L135.001 93.059L135.226 93.0963L135.402 92.9506L135.083 92.5657ZM127.842 91.3669L127.924 90.8736L127.698 90.8363L127.523 90.9821L127.842 91.3669ZM95.3598 118.31L95.0406 117.925L94.6558 118.244L94.975 118.629L95.3598 118.31ZM100.453 132.818L100.952 132.784L100.928 132.424L100.578 132.334L100.453 132.818ZM101.184 143.739L101.503 144.124L101.7 143.961L101.683 143.706L101.184 143.739ZM86.3817 156.017L86.2567 156.501L86.5042 156.565L86.7009 156.402L86.3817 156.017ZM75.7831 153.281L75.2842 153.314L75.3083 153.674L75.6581 153.765L75.7831 153.281ZM89.8545 130.081L89.9795 129.597L89.732 129.533L89.5353 129.696L89.8545 130.081ZM75.0525 142.359L74.7333 141.974L74.5366 142.137L74.5537 142.392L75.0525 142.359ZM83.8028 70.9067C84.0153 70.7304 84.0447 70.4152 83.8684 70.2027C83.6921 69.9901 83.3769 69.9607 83.1643 70.137L83.8028 70.9067ZM175.696 59.5278C175.909 59.3515 175.938 59.0363 175.762 58.8237C175.586 58.6112 175.27 58.5818 175.058 58.7581L175.696 59.5278ZM187.025 73.1862C187.238 73.0099 187.267 72.6947 187.091 72.4821C186.915 72.2696 186.6 72.2402 186.387 72.4165L187.025 73.1862ZM158.858 161.393C159.071 161.217 159.1 160.902 158.924 160.689C158.748 160.477 158.433 160.447 158.22 160.624L158.858 161.393ZM39.3124 153.342L38.904 153.054L37.9363 154.424L39.4962 153.807L39.3124 153.342ZM68.3434 188.342L67.935 188.053L66.9673 189.423L68.5272 188.807L68.3434 188.342ZM172.589 90.9248C172.801 90.7485 172.831 90.4333 172.654 90.2208C172.478 90.0082 172.163 89.9788 171.95 90.1551L172.589 90.9248ZM145.636 111.982C145.423 112.159 145.394 112.474 145.57 112.686C145.746 112.899 146.062 112.928 146.274 112.752L145.636 111.982ZM155.595 70.4372C155.808 70.261 155.837 69.9457 155.661 69.7332C155.484 69.5207 155.169 69.4913 154.957 69.6676L155.595 70.4372ZM128.642 91.4947C128.429 91.671 128.4 91.9862 128.576 92.1987C128.753 92.4113 129.068 92.4407 129.28 92.2644L128.642 91.4947ZM73.6139 130.583L73.7717 131.058L73.8608 131.028L73.9331 130.968L73.6139 130.583ZM69.3654 125.462L69.0462 125.077L68.974 125.137L68.9284 125.219L69.3654 125.462ZM64.911 133.479L64.4739 133.236C64.3738 133.417 64.3946 133.64 64.5262 133.798C64.6578 133.957 64.8733 134.019 65.0689 133.954L64.911 133.479ZM101.937 164.729L102.095 165.204L102.184 165.174L102.256 165.114L101.937 164.729ZM97.6884 159.607L97.3691 159.223L97.2969 159.283L97.2513 159.365L97.6884 159.607ZM93.2339 167.625L92.7968 167.382C92.6967 167.563 92.7175 167.786 92.8491 167.944C92.9807 168.103 93.1962 168.165 93.3918 168.1L93.2339 167.625ZM156.05 116.171C156.263 115.994 156.292 115.679 156.116 115.467C155.94 115.254 155.624 115.225 155.412 115.401L156.05 116.171ZM127.727 82.0247C127.94 81.8484 127.969 81.5332 127.793 81.3206C127.617 81.1081 127.302 81.0787 127.089 81.255L127.727 82.0247ZM98.9002 122.578L98.6938 122.123L98.0971 122.393L98.5153 122.897L98.9002 122.578ZM117.059 114.347L117.444 114.028L117.2 113.734L116.853 113.892L117.059 114.347ZM110.229 136.236L109.845 136.556L110.263 137.06L110.639 136.523L110.229 136.236ZM121.675 119.912L122.084 120.199L122.303 119.886L122.059 119.592L121.675 119.912ZM125.785 108.132C125.998 107.956 126.027 107.641 125.851 107.428C125.674 107.216 125.359 107.186 125.147 107.363L125.785 108.132ZM130.033 113.254C130.246 113.078 130.275 112.763 130.099 112.55C129.923 112.338 129.608 112.308 129.395 112.485L130.033 113.254ZM91.4539 97.7027C91.6665 97.5264 91.6959 97.2111 91.5196 96.9986C91.3433 96.7861 91.0281 96.7567 90.8155 96.933L91.4539 97.7027ZM57.9222 124.217C57.7097 124.393 57.6803 124.708 57.8566 124.921C58.0329 125.133 58.3481 125.163 58.5607 124.987L57.9222 124.217ZM133.938 148.922C134.151 148.745 134.18 148.43 134.004 148.218C133.828 148.005 133.512 147.976 133.3 148.152L133.938 148.922ZM100.407 175.436C100.194 175.612 100.165 175.927 100.341 176.14C100.517 176.352 100.832 176.382 101.045 176.205L100.407 175.436ZM86.8162 139.806L87.2011 139.487L86.8819 139.102L86.497 139.421L86.8162 139.806ZM91.0647 144.928L91.3839 145.313L91.7687 144.994L91.4495 144.609L91.0647 144.928ZM86.1307 149.021L85.7458 149.34L86.065 149.725L86.4499 149.405L86.1307 149.021ZM81.8822 143.899L81.563 143.514L81.1782 143.833L81.4974 144.218L81.8822 143.899ZM91.2803 178.612L91.5995 178.997L91.9844 178.678L91.6651 178.293L91.2803 178.612ZM53.7524 133.369L54.1373 133.049L53.8181 132.665L53.4332 132.984L53.7524 133.369ZM56.8419 95.5849C56.6293 95.7612 56.6 96.0764 56.7762 96.2889C56.9525 96.5015 57.2678 96.5309 57.4803 96.3546L56.8419 95.5849ZM67.871 87.7358C68.0836 87.5595 68.1129 87.2443 67.9367 87.0317C67.7604 86.8192 67.4451 86.7898 67.2326 86.9661L67.871 87.7358ZM128.346 181.789C128.133 181.966 128.104 182.281 128.28 182.493C128.456 182.706 128.772 182.735 128.984 182.559L128.346 181.789ZM139.375 173.94C139.587 173.764 139.617 173.449 139.44 173.236C139.264 173.024 138.949 172.994 138.736 173.171L139.375 173.94ZM116.899 120.216L117.307 120.505L117.529 120.192L117.284 119.896L116.899 120.216ZM109.706 130.34L109.321 130.659L109.736 131.16L110.113 130.629L109.706 130.34ZM115.878 118.984L116.262 118.665L116.017 118.369L115.668 118.53L115.878 118.984ZM104.598 124.182L104.389 123.728L103.798 124.001L104.214 124.502L104.598 124.182ZM131.838 150.232L129.336 163.115L130.318 163.305L132.819 150.423L131.838 150.232ZM138.997 174.265L142.286 171.537L141.648 170.767L138.359 173.496L138.997 174.265ZM141.582 171.471L144.769 175.313L145.538 174.674L142.352 170.833L141.582 171.471ZM144.834 174.609L131.677 185.522L132.315 186.292L145.473 175.378L144.834 174.609ZM131.861 185.426L127.921 186.533L128.191 187.495L132.131 186.389L131.861 185.426ZM128.441 186.695L126.316 184.134L125.547 184.772L127.671 187.333L128.441 186.695ZM126.251 184.838L129.129 182.451L128.491 181.681L125.612 184.068L126.251 184.838ZM95.8725 174.153L87.238 181.315L87.8764 182.085L96.5109 174.923L95.8725 174.153ZM79.3796 171.841L83.1026 168.753L82.4642 167.983L78.7411 171.071L79.3796 171.841ZM171.585 84.6942L146.093 105.839L146.731 106.609L172.223 85.4639L171.585 84.6942ZM145.933 113.177L113.45 140.12L114.089 140.889L146.571 113.947L145.933 113.177ZM89.1331 97.7552L76.0104 97.8328L76.0163 98.8327L89.139 98.7552L89.1331 97.7552ZM67.4816 88.047L70.771 85.3186L70.1325 84.5489L66.8432 87.2773L67.4816 88.047ZM70.8366 84.6145L67.6503 80.7731L66.8806 81.4115L70.0669 85.253L70.8366 84.6145ZM66.9462 80.7075L53.7889 91.621L54.4273 92.3907L67.5846 81.4772L66.9462 80.7075ZM53.66 91.784L51.844 95.4518L52.7401 95.8956L54.5562 92.2277L53.66 91.784ZM51.9072 95.9929L54.0314 98.5539L54.8011 97.9154L52.6769 95.3545L51.9072 95.9929ZM54.7355 98.6195L57.6136 96.2321L56.9752 95.4625L54.097 97.8498L54.7355 98.6195ZM58.3447 128.91L49.7102 136.072L50.3486 136.842L58.9831 129.68L58.3447 128.91ZM58.8455 147.085L62.5685 143.997L61.9301 143.228L58.207 146.316L58.8455 147.085ZM160.256 71.0359L134.764 92.1809L135.402 92.9506L160.894 71.8056L160.256 71.0359ZM127.523 90.9821L95.0406 117.925L95.679 118.695L128.161 91.7518L127.523 90.9821ZM99.9542 132.851L100.685 143.773L101.683 143.706L100.952 132.784L99.9542 132.851ZM86.5067 155.533L75.9081 152.796L75.6581 153.765L86.2567 156.501L86.5067 155.533ZM100.578 132.334L89.9795 129.597L89.7295 130.565L100.328 133.302L100.578 132.334ZM89.5353 129.696L74.7333 141.974L75.3718 142.744L90.1737 130.466L89.5353 129.696ZM74.5537 142.392L75.2842 153.314L76.282 153.247L75.5514 142.325L74.5537 142.392ZM83.1683 168.049L62.6342 143.293L61.8645 143.932L82.3986 168.687L83.1683 168.049ZM114.155 140.185L95.7447 117.991L94.975 118.629L113.385 140.824L114.155 140.185ZM69.0008 83.1845L83.8028 70.9067L83.1643 70.137L68.3623 82.4148L69.0008 83.1845ZM160.894 71.8056L175.696 59.5278L175.058 58.7581L160.256 71.0359L160.894 71.8056ZM172.223 85.4639L187.025 73.1862L186.387 72.4165L171.585 84.6942L172.223 85.4639ZM144.057 173.671L158.858 161.393L158.22 160.624L143.418 172.902L144.057 173.671ZM68.9284 125.219L64.4739 133.236L65.3481 133.722L69.8025 125.704L68.9284 125.219ZM65.0689 133.954L73.7717 131.058L73.456 130.109L64.7531 133.005L65.0689 133.954ZM86.7291 115.382C87.7374 116.597 87.5885 118.342 86.452 119.285L87.0904 120.055C88.6789 118.737 88.8369 116.357 87.4988 114.743L86.7291 115.382ZM87.4988 114.743C86.1607 113.13 83.792 112.846 82.2035 114.163L82.842 114.933C83.9785 113.99 85.7209 114.166 86.7291 115.382L87.4988 114.743ZM97.2513 159.365L92.7968 167.382L93.671 167.868L98.1254 159.85L97.2513 159.365ZM93.3918 168.1L102.095 165.204L101.779 164.255L93.0761 167.151L93.3918 168.1ZM115.052 149.528C116.06 150.743 115.911 152.488 114.775 153.431L115.413 154.201C117.002 152.883 117.16 150.503 115.822 148.889L115.052 149.528ZM115.822 148.889C114.484 147.276 112.115 146.991 110.526 148.309L111.165 149.079C112.301 148.136 114.044 148.312 115.052 149.528L115.822 148.889ZM115.756 149.593L156.05 116.171L155.412 115.401L115.118 148.824L115.756 149.593ZM87.4332 115.447L127.727 82.0247L127.089 81.255L86.7948 114.678L87.4332 115.447ZM99.1066 123.033L117.265 114.803L116.853 113.892L98.6938 122.123L99.1066 123.033ZM110.639 136.523L122.084 120.199L121.265 119.625L109.82 135.949L110.639 136.523ZM110.614 135.917L99.285 122.259L98.5153 122.897L109.845 136.556L110.614 135.917ZM117.562 114.953L125.785 108.132L125.147 107.363L116.923 114.184L117.562 114.953ZM121.81 120.075L130.033 113.254L129.395 112.485L121.172 119.306L121.81 120.075ZM90.7455 144.543L85.8115 148.636L86.4499 149.405L91.3839 145.313L90.7455 144.543ZM82.2014 144.284L87.1354 140.191L86.497 139.421L81.563 143.514L82.2014 144.284ZM113.446 165.27L108.489 159.294L107.719 159.933L112.676 165.908L113.446 165.27ZM75.9178 120.027L70.9613 114.051L70.1916 114.689L75.1481 120.665L75.9178 120.027ZM100.864 143.355L86.0625 155.632L86.7009 156.402L101.503 144.124L100.864 143.355ZM86.452 119.285L73.2947 130.199L73.9331 130.968L87.0904 120.055L86.452 119.285ZM69.6847 125.846L82.842 114.933L82.2035 114.163L69.0462 125.077L69.6847 125.846ZM114.775 153.431L101.618 164.344L102.256 165.114L115.413 154.201L114.775 153.431ZM98.0076 159.992L111.165 149.079L110.526 148.309L97.3691 159.223L98.0076 159.992ZM116.674 114.666L121.29 120.231L122.059 119.592L117.444 114.028L116.674 114.666ZM90.781 96.9867L88.935 97.7974L89.3371 98.713L91.1831 97.9023L90.781 96.9867ZM70.8366 84.6145L69.0664 82.4804L68.2967 83.1188L70.0669 85.253L70.8366 84.6145ZM69.0664 82.4804L67.6503 80.7731L66.8806 81.4115L68.2967 83.1188L69.0664 82.4804ZM58.7834 124.802L70.8956 114.755L70.2572 113.985L58.1449 124.032L58.7834 124.802ZM70.8956 114.755L91.3012 97.8293L90.6628 97.0596L70.2572 113.985L70.8956 114.755ZM57.9646 124.437L58.1643 129.315L59.1635 129.274L58.9637 124.397L57.9646 124.437ZM90.8155 96.933L90.6628 97.0596L91.3012 97.8293L91.4539 97.7027L90.8155 96.933ZM90.6628 97.0596L58.1449 124.032L58.7834 124.802L91.3012 97.8293L90.6628 97.0596ZM58.1449 124.032L57.9222 124.217L58.5607 124.987L58.7834 124.802L58.1449 124.032ZM153.544 69.4231L90.781 96.9867L91.1831 97.9023L153.946 70.3387L153.544 69.4231ZM132.741 150.61L133.879 148.946L133.054 148.381L131.916 150.046L132.741 150.61ZM133.147 148.279L112.742 165.204L113.38 165.974L133.786 149.048L133.147 148.279ZM112.742 165.204L100.629 175.251L101.268 176.021L113.38 165.974L112.742 165.204ZM145.538 174.674L144.122 172.967L143.352 173.606L144.769 175.313L145.538 174.674ZM144.122 172.967L142.352 170.833L141.582 171.471L143.352 173.606L144.122 172.967ZM101.061 175.149L96.3042 174.051L96.0793 175.025L100.836 176.123L101.061 175.149ZM133.3 148.152L133.147 148.279L133.786 149.048L133.938 148.922L133.3 148.152ZM133.147 148.279L100.629 175.251L101.268 176.021L133.786 149.048L133.147 148.279ZM100.629 175.251L100.407 175.436L101.045 176.205L101.268 176.021L100.629 175.251ZM171.743 91.7935L133.054 148.381L133.879 148.946L172.568 92.3579L171.743 91.7935ZM82.2035 114.163L75.2137 119.961L75.8521 120.731L82.842 114.933L82.2035 114.163ZM75.2137 119.961L69.0462 125.077L69.6847 125.846L75.8521 120.731L75.2137 119.961ZM102.256 165.114L108.424 159.998L107.785 159.229L101.618 164.344L102.256 165.114ZM108.424 159.998L115.413 154.201L114.775 153.431L107.785 159.229L108.424 159.998ZM172.605 90.6585L172.404 85.0612L171.405 85.097L171.605 90.6943L172.605 90.6585ZM145.912 106.213L145.784 112.083L146.784 112.105L146.912 106.235L145.912 106.213ZM146.603 112.479L172.424 91.0612L171.786 90.2915L145.965 111.709L146.603 112.479ZM145.784 112.083L145.752 113.551L146.752 113.573L146.784 112.105L145.784 112.083ZM171.95 90.1551L171.786 90.2915L172.424 91.0612L172.589 90.9248L171.95 90.1551ZM145.965 111.709L145.636 111.982L146.274 112.752L146.603 112.479L145.965 111.709ZM172.655 92.0578L172.605 90.6585L171.605 90.6943L171.656 92.0936L172.655 92.0578ZM160.685 70.933L155.221 69.7011L155.001 70.6766L160.465 71.9085L160.685 70.933ZM154.792 69.804L128.971 91.2218L129.609 91.9915L155.431 70.5737L154.792 69.804ZM129.208 92.1L135.001 93.059L135.164 92.0724L129.372 91.1134L129.208 92.1ZM129.372 91.1134L127.924 90.8736L127.76 91.8602L129.208 92.1L129.372 91.1134ZM154.957 69.6676L154.792 69.804L155.431 70.5737L155.595 70.4372L154.957 69.6676ZM128.971 91.2218L128.642 91.4947L129.28 92.2644L129.609 91.9915L128.971 91.2218ZM153.635 70.3686L155.001 70.6766L155.221 69.7011L153.855 69.3931L153.635 70.3686ZM88.6212 141.982L83.6872 146.075L84.3257 146.844L89.2597 142.752L88.6212 141.982ZM83.6216 146.779L85.7458 149.34L86.5155 148.701L84.3913 146.14L83.6216 146.779ZM91.4495 144.609L89.3253 142.048L88.5556 142.686L90.6798 145.247L91.4495 144.609ZM84.3913 146.14L82.2671 143.579L81.4974 144.218L83.6216 146.779L84.3913 146.14ZM86.4314 140.125L88.5556 142.686L89.3253 142.048L87.2011 139.487L86.4314 140.125ZM100.134 132.433L88.6212 141.982L89.2597 142.752L100.772 133.203L100.134 132.433ZM83.6872 146.075L75.4639 152.896L76.1023 153.665L84.3257 146.844L83.6872 146.075ZM56.7483 146.284L50.11 138.281L49.3404 138.919L55.9786 146.922L56.7483 146.284ZM49.3168 138.312L38.904 153.054L39.7208 153.631L50.1336 138.889L49.3168 138.312ZM39.4962 153.807L56.5472 147.068L56.1796 146.138L39.1286 152.877L39.4962 153.807ZM49.5343 136.386L49.2302 138.53L50.2202 138.671L50.5244 136.527L49.5343 136.386ZM56.341 147.103L58.5038 147.2L58.5487 146.201L56.3859 146.104L56.341 147.103ZM85.7793 181.284L79.141 173.281L78.3713 173.919L85.0096 181.922L85.7793 181.284ZM78.3478 173.311L67.935 188.053L68.7518 188.63L79.1646 173.888L78.3478 173.311ZM68.5272 188.807L85.5782 182.068L85.2106 181.138L68.1596 187.877L68.5272 188.807ZM87.5797 181.201L85.4169 181.103L85.372 182.102L87.5348 182.2L87.5797 181.201ZM79.2512 173.67L79.5554 171.527L78.5653 171.386L78.2611 173.53L79.2512 173.67ZM91.6651 178.293L54.1373 133.049L53.3676 133.688L90.8955 178.931L91.6651 178.293ZM53.4332 132.984L49.7102 136.072L50.3486 136.842L54.0717 133.753L53.4332 132.984ZM62.6342 143.293L54.1373 133.049L53.3676 133.688L61.8645 143.932L62.6342 143.293ZM87.8764 182.085L91.5995 178.997L90.9611 178.227L87.238 181.315L87.8764 182.085ZM91.6651 178.293L83.1683 168.049L82.3986 168.687L90.8955 178.931L91.6651 178.293ZM67.5531 87.3499L67.5473 87.3429L66.7776 87.9814L66.7834 87.9884L67.5531 87.3499ZM56.7948 95.8677L56.7953 95.8791L57.7945 95.8384L57.794 95.8269L56.7948 95.8677ZM57.6141 96.2436L67.4874 88.054L66.849 87.2843L56.9757 95.4739L57.6141 96.2436ZM57.4803 96.3546L57.6141 96.2436L56.9757 95.4739L56.8419 95.5849L57.4803 96.3546ZM67.4874 88.054L67.871 87.7358L67.2326 86.9661L66.849 87.2843L67.4874 88.054ZM56.7953 95.8792L57.9646 124.437L58.9637 124.397L57.7945 95.8383L56.7953 95.8792ZM76.3982 98.0135L67.5531 87.3499L66.7834 87.9884L75.6285 98.652L76.3982 98.0135ZM139.063 173.561L139.057 173.554L138.287 174.193L138.293 174.2L139.063 173.561ZM138.353 173.489L128.479 181.678L129.118 182.448L138.991 174.258L138.353 173.489ZM128.686 182.55L128.697 182.553L128.922 181.579L128.911 181.576L128.686 182.55ZM100.836 176.123L128.686 182.55L128.911 181.576L101.061 175.149L100.836 176.123ZM128.984 182.559L129.118 182.448L128.479 181.678L128.346 181.789L128.984 182.559ZM138.991 174.258L139.375 173.94L138.736 173.171L138.353 173.489L138.991 174.258ZM129.442 163.529L138.287 174.193L139.057 173.554L130.212 162.891L129.442 163.529ZM116.003 119.919L116.514 120.535L117.284 119.896L116.773 119.281L116.003 119.919ZM116.491 119.926L109.298 130.05L110.113 130.629L117.307 120.505L116.491 119.926ZM110.091 130.021L107.537 126.942L106.767 127.58L109.321 130.659L110.091 130.021ZM107.471 127.646L116.708 119.985L116.069 119.215L106.833 126.876L107.471 127.646ZM116.773 119.281L116.262 118.665L115.493 119.303L116.003 119.919L116.773 119.281ZM115.668 118.53L104.389 123.728L104.808 124.636L116.087 119.438L115.668 118.53ZM104.214 124.502L106.767 127.58L107.537 126.942L104.983 123.863L104.214 124.502ZM122.059 119.592L121.876 119.371L121.106 120.01L121.29 120.231L122.059 119.592ZM121.876 119.371L117.627 114.249L116.858 114.888L121.106 120.01L121.876 119.371ZM117.627 114.249L117.444 114.028L116.674 114.666L116.858 114.888L117.627 114.249Z" fill="black"/>
<path d="M113.781 139.951L81.4546 166.765" stroke="black" stroke-width="2" stroke-miterlimit="3.8637" stroke-dasharray="2 0 2 2 0 2"/>
<path d="M95.9043 118.4L63.5776 145.214" stroke="black" stroke-width="2" stroke-miterlimit="3.8637" stroke-dasharray="2 0 2 2 0 2"/>
<circle cx="104.236" cy="47.0113" r="12.5" transform="rotate(-9.67458 104.236 47.0113)" fill="black" stroke="white"/>
<circle cx="190.657" cy="145.747" r="6.01653" transform="rotate(52.1033 190.657 145.747)" fill="black" stroke="white"/>
<circle cx="170.613" cy="129.613" r="3.5" transform="rotate(52.1033 170.613 129.613)" fill="black" stroke="white"/>
<circle cx="194.147" cy="122.147" r="2.45534" transform="rotate(52.1033 194.147 122.147)" fill="black" stroke="white"/>
<circle cx="32.6403" cy="118.461" r="3.5" transform="rotate(52.1033 32.6403 118.461)" fill="black" stroke="white"/>
<circle cx="144.43" cy="50.6832" r="1.48192" transform="rotate(52.1033 144.43 50.6832)" fill="black"/>
</svg>
