<svg width="180" height="175" viewBox="0 0 180 175" fill="none" xmlns="http://www.w3.org/2000/svg">
<path d="M59.0537 42.252H112.106L116.527 52.4997H59.2116C60.001 50.9231 60.3168 49.3465 60.3168 47.4547C60.1589 45.5628 59.8431 43.8285 59.0537 42.252Z" stroke="#262626" stroke-miterlimit="10"/>
<path d="M36.7895 82.1389C36.7895 88.6029 42 93.8056 48.4737 93.8056C54.9474 93.8056 60.1579 88.6029 60.1579 82.1389C60.1579 78.1975 58.1053 74.5714 54.9474 72.3641V69.211C55.8947 69.684 56.8421 70.3146 57.7895 71.1029C61.8947 74.729 63.4737 80.0894 62.3684 85.1344L69.1579 91.1254C70.5789 88.4452 71.5263 85.2921 71.5263 81.9813C71.8421 71.8912 64.7368 63.0623 54.9474 60.8551C54.6316 60.8551 54.3158 60.6975 53.8421 60.6975C53.6842 59.9092 53.6842 59.2786 53.5263 58.4903V73.3101C56.6842 75.0443 58.7368 78.5128 58.7368 82.2966C58.7368 87.9722 54.1579 92.702 48.3158 92.702C42.6316 92.702 37.8947 88.1299 37.8947 82.2966C37.8947 78.5128 39.9474 75.0443 43.1053 73.3101V56.4407C39.9474 54.7065 37.8947 51.238 37.8947 47.4542C37.8947 41.7786 42.4737 37.0488 48.3158 37.0488C54 37.0488 58.7368 41.6209 58.7368 47.4542C58.7368 50.765 57.1579 53.6029 54.7895 55.4948C55.421 55.6524 55.8947 55.6524 56.5263 55.8101C68.3684 58.6479 77.0526 69.5263 76.5789 82.1389C76.421 86.711 75.1579 90.9677 72.9474 94.5939L79.8947 100.743C84.7895 99.1659 90.3158 100.112 94.2632 103.738C97.2632 106.418 98.8421 109.887 99.1579 113.513H128.947C134.47 113.513 138.947 117.99 138.947 123.513V150.562H180V165.067H138.947C138.947 170.291 134.712 174.526 129.488 174.526H47.3542C42.1299 174.526 37.8947 170.291 37.8947 165.067H0.947357V150.562H37.8947V123.828C37.8947 118.305 42.3719 113.828 47.8947 113.828H70.1053C70.1053 113.197 70.2631 112.567 70.421 111.779L52.7368 96.0128C47.8421 97.5894 42.3158 96.6434 38.3684 93.0173C32.3684 87.6569 31.7368 78.3551 37.2632 72.3641C38.6842 70.7876 40.2632 69.684 42.1579 68.738V72.3641C38.6842 74.5714 36.7895 78.1975 36.7895 82.1389ZM43.7368 82.1389C43.7368 84.6614 45.7895 86.8686 48.4737 86.8686C51 86.8686 53.2105 84.8191 53.2105 82.1389C53.2105 79.6164 51.1579 77.4092 48.4737 77.4092C45.9474 77.5668 43.7368 79.6164 43.7368 82.1389ZM53.2105 46.9813C53.2105 44.4587 51.1579 42.2515 48.4737 42.2515C45.9474 42.2515 43.7368 44.3011 43.7368 46.9813C43.7368 49.5038 45.7895 51.711 48.4737 51.711C51 51.5533 53.2105 49.5038 53.2105 46.9813ZM42.1579 160.9C42.1579 166.423 46.635 170.9 52.1579 170.9H124.842C130.365 170.9 134.842 166.423 134.842 160.9V127.77C134.842 122.247 130.365 117.77 124.842 117.77H52.1579C46.635 117.77 42.1579 122.247 42.1579 127.77V160.9ZM91.5789 113.828C91.2632 112.567 90.6316 111.463 89.5263 110.517C86.8421 108.152 82.5789 108.31 80.2105 110.99C79.421 111.779 78.9474 112.724 78.7895 113.828H91.5789Z" fill="#262626"/>
<path d="M167.684 137.004L137.368 74.2563L143.841 71.5762L167.684 137.004Z" stroke="#262626" stroke-miterlimit="10"/>
<path d="M146.37 57.5449C147.475 61.8017 148.422 66.0584 148.106 67.3197L131.843 74.2566C130.58 73.626 127.896 69.6846 125.527 65.7431L146.37 57.5449Z" stroke="#262626" stroke-miterlimit="10"/>
<path d="M107.209 25.2244C106.894 24.4361 106.894 23.6478 107.209 22.8595C107.525 22.0712 107.999 21.5983 108.788 21.283L125.525 14.1884C125.841 14.0307 126.315 13.873 126.63 13.873C127.894 13.873 128.999 14.6613 129.473 15.7649L142.42 46.0352L119.999 54.864L107.209 25.2244Z" stroke="#262626" stroke-miterlimit="10"/>
<path d="M117.475 15.1348H116.843V15.4501L116.211 16.5537C115.896 16.3961 115.58 16.2384 115.264 16.0807C109.422 13.4006 102.001 12.1393 97.5798 15.9231C93.0008 19.8645 92.8429 28.6934 96.9482 41.1483L93.9482 42.0943C88.264 24.5943 91.7377 16.869 95.5271 13.4006C98.0535 11.1934 101.369 10.2474 105.317 10.2474C100.58 8.8285 95.0535 8.19787 90.0008 8.98615C86.0535 13.7159 82.4219 23.0177 87.0008 41.1483L83.8429 41.9366C79.7377 25.8555 81.9482 16.0807 85.264 10.0898C84.3166 10.4051 83.685 10.7204 83.0535 11.0357C74.5271 15.4501 72.3166 25.8555 76.7377 41.1483L73.5798 42.0943C67.4219 20.6528 74.5271 11.824 81.4745 8.19787C83.5271 7.09426 85.7377 6.46363 87.9482 5.99066C88.5798 5.36003 89.2114 4.7294 89.8429 4.25642C95.5271 -0.315649 103.264 -1.41925 109.738 1.57624C115.106 4.09877 118.264 8.8285 118.422 14.5042C118.422 14.6618 118.422 14.8195 118.422 14.9771H117.475V15.1348ZM108.475 4.57174C103.738 2.36453 98.2114 2.67985 93.7903 5.51768C97.264 5.51768 100.422 5.99066 102.632 6.46363C107.211 7.40958 111.475 9.14381 114.632 11.0357C113.527 8.35552 111.475 5.99066 108.475 4.57174Z" fill="#262626"/>
<path d="M121.684 120.924C127.206 120.924 131.684 125.401 131.684 130.924V157.748C131.684 163.271 127.206 167.748 121.684 167.748H55.4731C49.9502 167.748 45.4731 163.271 45.4731 157.748V130.924C45.4731 125.401 49.9502 120.924 55.4731 120.924H121.684ZM-nan -nanL111.947 162.23H119.999C124.447 162.23 128.052 158.625 128.052 154.177V133.706C128.052 129.259 124.447 125.654 119.999 125.654V125.654C115.552 125.654 111.947 129.259 111.947 133.706V162.23L-nan -nanL-nan -nanZ" stroke="#262626" stroke-miterlimit="10"/>
<path d="M149.842 45.5625H150C150.789 45.5625 152.053 46.6661 152.842 48.4003C153.316 49.3463 153.474 50.4499 153.316 51.3958C153.158 52.0265 153 52.4994 152.684 52.6571L116.684 66.8463H116.526C115.737 66.8463 114.474 65.7427 113.684 64.0084C112.895 61.8012 113.211 60.067 114 59.9093L149.842 45.5625Z" stroke="#262626" stroke-miterlimit="10"/>
<path d="M0.789292 58.6493V39.0547C0.789292 36.2933 3.02787 34.0547 5.78929 34.0547H29.1377C31.4451 34.0547 33.3156 35.9252 33.3156 38.2326V40.6623C33.3156 41.6278 34.0983 42.4105 35.0639 42.4105V42.4105C36.364 42.4105 37.2221 43.7975 36.9258 45.0634C36.7349 45.8789 36.6314 46.7288 36.6314 47.6132C36.6314 48.4333 36.7373 49.2533 36.9157 50.0567C37.1993 51.3334 36.3134 52.6583 35.0056 52.6583V52.6583C33.985 52.6583 33.1577 53.4856 33.1577 54.5062V55.7326C33.1577 57.4305 31.7813 58.8069 30.0834 58.8069H0.946945C0.859875 58.8069 0.789292 58.7364 0.789292 58.6493V58.6493Z" stroke="#262626" stroke-miterlimit="10"/>
<path d="M131.527 16.7111C131.685 16.5534 132.001 16.3957 132.159 16.2381C136.422 13.4003 141.474 11.666 147.001 11.666C161.527 11.666 173.369 23.4903 173.369 37.9949C173.369 51.3958 163.264 62.4318 150.317 64.0084C150.001 62.2741 149.685 60.5399 149.369 58.9633C159.948 57.7021 168.159 48.8732 168.159 37.9949C168.159 26.3282 158.685 16.8687 147.001 16.8687C142.264 16.8687 137.843 18.4453 134.211 21.1255C134.053 21.2831 133.895 21.2831 133.738 21.4408C133.106 19.8642 132.317 18.2876 131.527 16.7111Z" fill="#262626"/>
<path d="M38.3696 16.8686C27.4748 17.6568 18.4748 25.0668 18.4748 33.265H15.7906C15.7906 23.6478 25.5801 15.1343 38.0538 14.1884C50.2116 13.2424 64.2643 19.7064 67.5801 40.8325L64.8959 41.3055C61.8959 22.0713 49.2643 16.0803 38.3696 16.8686Z" fill="#262626"/>
</svg>
