<svg width="30" height="34" viewBox="0 0 30 34" fill="none" xmlns="http://www.w3.org/2000/svg">
<path fill-rule="evenodd" clip-rule="evenodd" d="M6.79993 11.7079C2.90605 16.0363 3.02761 22.7794 7.1646 26.957C11.4189 31.2531 18.353 31.2531 22.6072 26.957C26.8655 22.6569 26.8695 15.6386 22.6191 11.3335C17.0841 6.21767 23.417 -1.77288 22.3337 2.2329C21.4831 5.37826 23.8075 8.08508 25.1902 9.69532C25.2512 9.76632 25.3103 9.83518 25.3672 9.90186C25.4114 9.95351 25.449 10.0097 25.4803 10.0696C30.1105 15.5668 29.8557 23.8553 24.7161 29.0454C19.3005 34.5142 10.4714 34.5142 5.05574 29.0454C-0.351912 23.5846 -0.351912 14.6939 5.05574 9.23321C5.12438 9.16389 5.19816 9.10276 5.27587 9.04983C6.59552 7.40559 8.23016 4.98631 7.5222 2.24158C6.46548 -1.85532 12.881 6.59789 6.79993 11.7079Z" fill="black"/>
<path d="M6.79993 11.7079L6.47826 11.3251C6.46047 11.34 6.44375 11.3562 6.42821 11.3735L6.79993 11.7079ZM7.1646 26.957L7.51988 26.6052L7.1646 26.957ZM22.6072 26.957L22.9625 27.3088L22.9625 27.3088L22.6072 26.957ZM22.6191 11.3335L22.9749 10.9822C22.9695 10.9768 22.964 10.9715 22.9584 10.9663L22.6191 11.3335ZM22.3337 2.2329L22.8164 2.36342L22.3337 2.2329ZM25.1902 9.69532L24.8109 10.0211L24.8109 10.0211L25.1902 9.69532ZM25.3672 9.90186L24.987 10.2266L24.987 10.2266L25.3672 9.90186ZM25.4803 10.0696L25.0373 10.3015C25.0542 10.3337 25.0745 10.3639 25.0979 10.3917L25.4803 10.0696ZM24.7161 29.0454L25.0714 29.3972L24.7161 29.0454ZM5.05574 29.0454L5.41101 28.6936L5.05574 29.0454ZM5.05574 9.23321L4.70046 8.88139L4.70046 8.88139L5.05574 9.23321ZM5.27587 9.04983L5.55737 9.46305C5.59828 9.43518 5.63483 9.40139 5.66581 9.36279L5.27587 9.04983ZM7.5222 2.24158L8.00636 2.1167L7.5222 2.24158ZM6.42821 11.3735C2.35827 15.8976 2.48471 22.9418 6.80933 27.3088L7.51988 26.6052C3.5705 22.617 3.45383 16.175 7.17165 12.0423L6.42821 11.3735ZM6.80933 27.3088C11.2592 31.8024 18.5126 31.8024 22.9625 27.3088L22.252 26.6052C18.1933 30.7037 11.5785 30.7037 7.51988 26.6052L6.80933 27.3088ZM22.9625 27.3088C27.4136 22.8141 27.4177 15.4823 22.9749 10.9822L22.2632 11.6848C26.3212 15.795 26.3175 22.4998 22.252 26.6052L22.9625 27.3088ZM22.8164 2.36342C22.8887 2.09613 22.9347 1.86246 22.9526 1.66374C22.9695 1.477 22.9669 1.26993 22.8976 1.08686C22.8606 0.989315 22.7968 0.878044 22.6871 0.788956C22.5719 0.695385 22.4361 0.650994 22.3027 0.647076C22.0664 0.640133 21.8732 0.758492 21.7573 0.845284C21.5044 1.0346 21.2468 1.36026 21.0137 1.74298C20.7735 2.13719 20.5353 2.63164 20.3357 3.19581C19.5416 5.43981 19.3114 8.95721 22.2797 11.7007L22.9584 10.9663C20.3917 8.59399 20.5605 5.55818 21.2784 3.52939C21.4567 3.02536 21.6661 2.59413 21.8676 2.26329C22.0762 1.92095 22.2546 1.72217 22.3567 1.64575C22.4182 1.59967 22.3822 1.64984 22.2733 1.64664C22.2037 1.6446 22.1242 1.62006 22.0567 1.56524C21.9947 1.5149 21.97 1.46127 21.9624 1.44117C21.9517 1.41298 21.9688 1.43999 21.9567 1.5738C21.9457 1.69561 21.9142 1.86894 21.8511 2.10237L22.8164 2.36342ZM25.5695 9.36959C24.8741 8.55974 23.9865 7.523 23.37 6.31281C22.7572 5.11007 22.434 3.77763 22.8164 2.36342L21.8511 2.10237C21.3829 3.83353 21.7965 5.42718 22.479 6.76675C23.1576 8.09887 24.1236 9.22066 24.8109 10.0211L25.5695 9.36959ZM25.7474 9.57712C25.69 9.50986 25.6304 9.44049 25.5695 9.36959L24.8109 10.0211C24.8719 10.0922 24.9306 10.1605 24.987 10.2266L25.7474 9.57712ZM25.9232 9.83764C25.8753 9.74609 25.8169 9.6585 25.7474 9.57712L24.987 10.2266C25.0058 10.2485 25.0226 10.2734 25.0373 10.3015L25.9232 9.83764ZM25.0979 10.3917C29.5631 15.6931 29.3166 23.6891 24.3608 28.6936L25.0714 29.3972C30.3949 24.0215 30.6578 15.4405 25.8627 9.74747L25.0979 10.3917ZM24.3608 28.6936C19.1409 33.9648 10.631 33.9648 5.41101 28.6936L4.70046 29.3972C10.3117 35.0636 19.4601 35.0636 25.0714 29.3972L24.3608 28.6936ZM5.41101 28.6936C0.19633 23.4277 0.19633 14.8509 5.41101 9.58503L4.70046 8.88139C-0.900153 14.537 -0.900153 23.7416 4.70046 29.3972L5.41101 28.6936ZM5.41101 9.58503C5.45697 9.53862 5.50603 9.49803 5.55737 9.46305L4.99436 8.6366C4.89029 8.7075 4.79179 8.78916 4.70046 8.88139L5.41101 9.58503ZM5.66581 9.36279C6.98164 7.72332 8.78173 5.12281 8.00636 2.1167L7.03805 2.36645C7.67859 4.84982 6.20941 7.08786 4.88593 8.73686L5.66581 9.36279ZM8.00636 2.1167C7.94466 1.87747 7.91479 1.70095 7.90527 1.57797C7.89469 1.44143 7.91334 1.41948 7.89926 1.45353C7.88932 1.47757 7.85921 1.53632 7.78796 1.58705C7.71117 1.64171 7.62653 1.65859 7.56002 1.65536C7.45932 1.65047 7.43379 1.60418 7.49987 1.65888C7.60989 1.74994 7.79177 1.9708 7.99731 2.33484C8.19678 2.68815 8.40054 3.14433 8.56868 3.67355C9.2444 5.8004 9.30832 8.94698 6.47826 11.3251L7.12159 12.0907C10.3726 9.35881 10.2693 5.72378 9.52173 3.37075C9.33404 2.78 9.10346 2.26006 8.8681 1.8432C8.6388 1.43706 8.38535 1.09369 8.13752 0.88855C8.02468 0.795147 7.83961 0.667755 7.6085 0.656536C7.47678 0.650143 7.33421 0.682549 7.208 0.7724C7.08731 0.858315 7.01628 0.971912 6.97513 1.07144C6.89864 1.25645 6.89375 1.46799 6.90825 1.65522C6.92381 1.85602 6.96766 2.09356 7.03805 2.36645L8.00636 2.1167Z" fill="white"/>
<path fill-rule="evenodd" clip-rule="evenodd" d="M8.23736 19.1398C8.23736 22.8649 11.2248 25.8657 14.8868 25.8657C18.5488 25.8657 21.5362 22.8649 21.5362 19.1398C21.5362 15.4148 18.5488 12.414 14.8868 12.414C11.2248 12.414 8.23736 15.4148 8.23736 19.1398ZM14.8868 28.1323C9.95216 28.1323 5.9707 24.0958 5.9707 19.1398C5.9707 14.1839 9.95216 10.1473 14.8868 10.1473C19.8214 10.1473 23.8029 14.1839 23.8029 19.1398C23.8029 24.0958 19.8214 28.1323 14.8868 28.1323Z" fill="black" stroke="white" stroke-miterlimit="10" stroke-linecap="round" stroke-linejoin="round"/>
<path fill-rule="evenodd" clip-rule="evenodd" d="M14.9811 15.2764C17.0687 15.2764 18.761 16.9687 18.761 19.0563C18.761 21.1439 17.0687 22.8362 14.9811 22.8362C12.8935 22.8362 11.2012 21.1439 11.2012 19.0563C11.2012 16.9687 12.8935 15.2764 14.9811 15.2764Z" fill="black" stroke="white" stroke-miterlimit="10" stroke-linecap="round" stroke-linejoin="round"/>
</svg>
