<svg version="1.1" id="Camada_1" xmlns:x="&ns_extend;" xmlns:i="&ns_ai;" xmlns:graph="&ns_graphs;"
	 xmlns="http://www.w3.org/2000/svg" xmlns:xlink="http://www.w3.org/1999/xlink" x="0px" y="0px" viewBox="0 0 560 400"
	 style="enable-background:new 0 0 560 400;" xml:space="preserve">
<style type="text/css">
	.st0{fill:#FFFFFF;}
	.st1{fill:#2CA6E0;}
	.st2{fill-rule:evenodd;clip-rule:evenodd;fill:#2CA6E0;}
</style>
<metadata>
	<sfw  xmlns="&ns_sfw;">
		<slices></slices>
		<sliceSourceBounds  bottomLeftOrigin="true" height="107.3" width="356.8" x="101.2" y="146.3"></sliceSourceBounds>
	</sfw>
</metadata>
<g transform="matrix(.151548 0 0 .151548 101.19 146.344)">
	<path class="st0" d="M876.2,176.5v199.8H677.7v-174c0-14.3-11.6-25.9-25.9-25.9h-67.2v478.3c0,14.3,11.6,25.9,25.9,25.9h67.2V457.5
		h198.6v197.1c-0.2,14.3,11.2,26.1,25.5,26.3h67.6V202.3c0-14.3-11.6-25.9-25.9-25.9L876.2,176.5L876.2,176.5z M1270.4,301.5v239.7
		c0.2,21.8-11.2,42.1-30,53.3c-52.6,30.4-107.1-7.7-107.1-57.7V327.4c0-14.3-11.6-25.9-25.9-25.9h-67.2v243.9
		c0.2,78.6,63.8,142.2,142.4,142.6h38.2c78.7-0.2,142.5-64,142.7-142.7V327.4c0-14.3-11.6-25.9-25.9-25.9H1270.4z"/>
	<path class="st1" d="M2287.1,680.9h67.2V341.3c0-14.3-11.6-25.9-25.9-25.9h-67.2v339.4c-0.1,14.3,11.4,26,25.7,26.1
		C2286.9,680.9,2287.1,680.9,2287.1,680.9z"/>
	
		<ellipse transform="matrix(0.3827 -0.9239 0.9239 0.3827 1214.4136 2272.5723)" class="st2" cx="2307.8" cy="227.5" rx="46" ry="46"/>
	<g>
		<path class="st0" d="M1603.7,301.3c-97.5,0-177.3,69.7-177.3,167.2v52.7c0,97.5,79.8,166.8,177.3,166.8S1781,618.7,1781,521.2
			v-52.7C1781.1,371,1701.3,301.3,1603.7,301.3z M1687.5,527.5c0,46.1-37.7,76.8-83.9,76.8s-83.8-30.7-83.8-76.8v-65.8
			c0-46.1,37.7-76.8,83.8-76.8s83.9,30.7,83.9,76.8V527.5z"/>
		<path class="st1" d="M2021.2,301.3c-29.2-0.2-58,6.4-84.3,19.1V202.8c0-14.3-11.6-25.9-25.9-25.9h-67.2v344.3
			c0,97.5,79.8,166.8,177.3,166.8c97.5,0,177.3-69.3,177.3-166.8v-52.7C2198.5,371,2118.9,301.3,2021.2,301.3z M2105.1,527.5
			c0,46.1-37.7,76.8-83.9,76.8c-46.1,0-83.8-30.7-83.8-76.8v-65.8c0-46.1,37.7-76.8,83.8-76.8c46.1,0,83.9,30.7,83.9,76.8V527.5z"/>
		<path class="st0" d="M303.2,217.8c0-101.6-49.5-189.1-87.2-217.5c0,0-2.9-1.6-2.6,2.5C210.3,199.1,110,252.3,54.9,323.9
			c-127.2,165.4-9,346.7,111.6,380.2c67.2,18.8-15.6-33.2-26.3-142.9C127.1,428.8,303.2,327.6,303.2,217.8L303.2,217.8z"/>
		<path class="st1" d="M361,284.7c-0.8-0.5-1.9-0.9-2.6,0.4c-2.1,24.7-27.3,77.5-59.3,126.1c-108.5,164.6-46.7,244-11.9,286.7
			c20.2,24.7,0,0,50.4-25.3c62.3-37.8,102.7-103.2,108.7-175.8C456.2,379.8,386,306.1,361,284.7z"/>
	</g>
</g>
</svg>
