<svg width="23" height="27" viewBox="0 0 23 27" fill="none" xmlns="http://www.w3.org/2000/svg">
<path d="M20.3071 0H2.69293C2.33803 0.00125538 1.98686 0.0723519 1.65946 0.20923C1.33205 0.346108 1.03484 0.546087 0.784779 0.797749C0.534718 1.04941 0.33671 1.34783 0.20206 1.67596C0.0674104 2.00409 -0.00124368 2.35551 1.70534e-05 2.71016V20.2735C-0.00124368 20.6282 0.0674104 20.9796 0.20206 21.3077C0.33671 21.6358 0.534718 21.9343 0.784779 22.1859C1.03484 22.4376 1.33205 22.6376 1.65946 22.7744C1.98686 22.9113 2.33803 22.9824 2.69293 22.9837H17.595L16.905 20.5512L18.5821 22.3037L20.1729 23.7689L23 26.2684V2.71016C23.0012 2.35551 22.9326 2.00409 22.7979 1.67596C22.6633 1.34783 22.4653 1.04941 22.2152 0.797749C21.9652 0.546087 21.6679 0.346108 21.3405 0.20923C21.0131 0.0723519 20.662 0.00125538 20.3071 0ZM15.2279 17.1516C15.2279 17.1516 14.7583 16.5865 14.3654 16.0886C15.3172 15.865 16.1592 15.312 16.7421 14.5276C16.268 14.8421 15.7601 15.1023 15.2279 15.3033C14.6135 15.5664 13.9702 15.7561 13.3112 15.8683C12.184 16.0806 11.0269 16.0806 9.89959 15.8683C9.24464 15.7394 8.60302 15.5503 7.98292 15.3033C7.65285 15.1807 7.3325 15.0335 7.02459 14.8628L6.90001 14.7957H6.85209C6.61251 14.6617 6.47834 14.5659 6.47834 14.5659C7.04079 15.3349 7.85425 15.8836 8.77834 16.1173L7.90626 17.209C7.12515 17.2293 6.35093 17.0584 5.65106 16.7113C4.95119 16.3641 4.3469 15.8511 3.89084 15.2171C3.93947 12.5511 4.59493 9.93112 5.80751 7.55588C6.86462 6.7252 8.15393 6.24331 9.49709 6.17686L9.63125 6.33966C8.36623 6.65067 7.18514 7.23589 6.17167 8.05386C6.17167 8.05386 6.45917 7.90063 6.94792 7.6708C7.89225 7.2424 8.89792 6.96451 9.92834 6.84722H10.1583C11.04 6.74117 11.9312 6.74117 12.8129 6.84722C14.2013 7.00445 15.5456 7.43057 16.7708 8.10174C15.8083 7.3213 14.6913 6.75341 13.4933 6.43543L13.6754 6.22474C15.0214 6.29173 16.3136 6.77346 17.3746 7.60376C18.5849 9.97983 19.2403 12.5993 19.2912 15.265C18.8191 15.8865 18.202 16.3833 17.4938 16.7121C16.7856 17.0409 16.0078 17.1918 15.2279 17.1516Z" fill="white"/>
<path d="M13.9209 13.9209C14.6563 13.9209 15.2525 13.2705 15.2525 12.4683C15.2525 11.666 14.6563 11.0156 13.9209 11.0156C13.1855 11.0156 12.5894 11.666 12.5894 12.4683C12.5894 13.2705 13.1855 13.9209 13.9209 13.9209Z" fill="white"/>
<path d="M9.08057 11.0211C8.78768 10.9951 8.49413 11.0624 8.23869 11.2139C7.98325 11.3654 7.77796 11.5941 7.64992 11.8697C7.52189 12.1453 7.47714 12.4549 7.52159 12.7576C7.56604 13.0603 7.69759 13.3418 7.89887 13.5649C8.10016 13.7881 8.36169 13.9424 8.64893 14.0074C8.93617 14.0724 9.2356 14.0452 9.50765 13.9292C9.7797 13.8133 10.0116 13.6141 10.1727 13.3579C10.3337 13.1018 10.4164 12.8008 10.4098 12.4947C10.4175 12.1167 10.2827 11.7506 10.0341 11.4751C9.78559 11.1995 9.44322 11.0365 9.08057 11.0211Z" fill="white"/>
</svg>
