<svg width="26" height="26" viewBox="0 0 26 26" fill="none" xmlns="http://www.w3.org/2000/svg">
<path fill-rule="evenodd" clip-rule="evenodd" d="M13 0C5.82098 0 0 5.96639 0 13.3315C0 19.2224 3.72589 24.2138 8.89107 25.9782C9.54107 26.1 9.77902 25.688 9.77902 25.3339C9.77902 25.0147 9.76741 24.179 9.76161 23.0646C6.14598 23.8713 5.37991 21.277 5.37991 21.277C4.78795 19.739 3.93482 19.3269 3.93482 19.3269C2.7567 18.497 4.02187 18.5144 4.02187 18.5144C5.32768 18.6072 6.0125 19.8899 6.0125 19.8899C7.17321 21.9271 9.05357 21.3409 9.79643 20.9984C9.9125 20.1395 10.2491 19.5475 10.6205 19.2166C7.73616 18.88 4.70089 17.7367 4.70089 12.6292C4.70089 11.1725 5.2058 9.98267 6.03571 9.05405C5.90223 8.71742 5.45536 7.35932 6.16339 5.52529C6.16339 5.52529 7.25446 5.16545 9.73839 6.8892C10.7772 6.5932 11.8857 6.44811 12.9942 6.4423C14.0969 6.44811 15.2112 6.5932 16.25 6.8892C18.7339 5.16545 19.8192 5.52529 19.8192 5.52529C20.5272 7.35932 20.0804 8.71742 19.9469 9.05405C20.7768 9.98847 21.2817 11.1783 21.2817 12.6292C21.2817 17.7483 18.2406 18.8742 15.3446 19.205C15.8089 19.6171 16.2268 20.4296 16.2268 21.6717C16.2268 23.4535 16.2094 24.8928 16.2094 25.3281C16.2094 25.6822 16.4415 26.1 17.1031 25.9665C22.2799 24.208 26 19.2166 26 13.3315C26 5.96639 20.179 0 13 0Z" fill="white"/>
</svg>
