<svg width="28" height="29" viewBox="0 0 28 29" fill="none" xmlns="http://www.w3.org/2000/svg">
<path d="M11.0469 17.1797C10.6458 17.1797 10.3177 17.0521 10.0625 16.7969C9.80729 16.5417 9.67969 16.2318 9.67969 15.8672C9.67969 15.5026 9.80729 15.1927 10.0625 14.9375C10.3177 14.6458 10.6276 14.5 10.9922 14.5C11.3932 14.5 11.7214 14.6458 11.9766 14.9375C12.2318 15.1927 12.3594 15.5026 12.3594 15.8672C12.3594 16.2318 12.2318 16.5417 11.9766 16.7969C11.7214 17.0521 11.4115 17.1797 11.0469 17.1797ZM27.5625 14.5C27.5625 16.9427 26.9427 19.2031 25.7031 21.2812C24.5 23.3594 22.8594 25 20.7812 26.2031C18.7031 27.4427 16.4427 28.0625 14 28.0625C11.5573 28.0625 9.29688 27.4427 7.21875 26.2031C5.14062 25 3.48177 23.3594 2.24219 21.2812C1.03906 19.2031 0.4375 16.9427 0.4375 14.5C0.4375 12.0573 1.03906 9.79688 2.24219 7.71875C3.48177 5.64062 5.14062 4 7.21875 2.79688C9.29688 1.55729 11.5573 0.9375 14 0.9375C16.4427 0.9375 18.7031 1.55729 20.7812 2.79688C22.8594 4 24.5 5.64062 25.7031 7.71875C26.9427 9.79688 27.5625 12.0573 27.5625 14.5ZM20.3438 12.2578C19.8333 12.2578 19.3958 12.4401 19.0312 12.8047C17.7188 11.8932 16.151 11.401 14.3281 11.3281L15.2578 7.0625L18.3203 7.71875C18.3203 8.11979 18.4479 8.44792 18.7031 8.70312C18.9583 8.95833 19.2682 9.08594 19.6328 9.08594C20.0339 9.08594 20.362 8.95833 20.6172 8.70312C20.8724 8.41146 21 8.08333 21 7.71875C21 7.35417 20.8724 7.04427 20.6172 6.78906C20.362 6.4974 20.0339 6.35156 19.6328 6.35156C19.3776 6.35156 19.1406 6.42448 18.9219 6.57031C18.7031 6.71615 18.5391 6.89844 18.4297 7.11719L15.0938 6.35156C15.0208 6.35156 14.9479 6.38802 14.875 6.46094C14.8021 6.4974 14.7474 6.55208 14.7109 6.625L13.6719 11.3281C11.849 11.401 10.2812 11.8932 8.96875 12.8047C8.64062 12.4401 8.20312 12.2578 7.65625 12.2578C7.07292 12.2578 6.59896 12.4948 6.23438 12.9688C5.90625 13.4062 5.79688 13.8984 5.90625 14.4453C6.01562 14.9922 6.34375 15.4115 6.89062 15.7031C6.81771 15.9583 6.78125 16.2318 6.78125 16.5234C6.78125 17.4714 7.10938 18.3464 7.76562 19.1484C8.42188 19.9505 9.29688 20.5885 10.3906 21.0625C11.4844 21.5 12.6875 21.7188 14 21.7188C15.3125 21.7188 16.5156 21.5 17.6094 21.0625C18.7396 20.5885 19.6328 19.9505 20.2891 19.1484C20.9453 18.3464 21.2734 17.4714 21.2734 16.5234C21.237 16.2318 21.2005 15.9401 21.1641 15.6484C21.7109 15.3932 22.0208 14.9922 22.0938 14.4453C22.2031 13.862 22.0755 13.3516 21.7109 12.9141C21.3828 12.4766 20.9271 12.2578 20.3438 12.2578ZM16.5703 18.6016C16.2422 18.9297 15.7318 19.1484 15.0391 19.2578C14.3464 19.3672 13.6536 19.3672 12.9609 19.2578C12.2682 19.1484 11.7578 18.9297 11.4297 18.6016C11.3932 18.5286 11.3203 18.4922 11.2109 18.4922C11.138 18.4922 11.0651 18.5286 10.9922 18.6016C10.9193 18.6745 10.8828 18.7656 10.8828 18.875C10.8828 18.9479 10.9193 19.0208 10.9922 19.0938C11.3932 19.4948 11.9948 19.7682 12.7969 19.9141C13.599 20.0599 14.401 20.0599 15.2031 19.9141C16.0052 19.7682 16.6068 19.4948 17.0078 19.0938C17.0807 19.0208 17.1172 18.9479 17.1172 18.875C17.1172 18.7656 17.0807 18.6745 17.0078 18.6016C16.9349 18.5286 16.8438 18.4922 16.7344 18.4922C16.6615 18.4922 16.6068 18.5286 16.5703 18.6016ZM17.0078 14.5C16.6068 14.5 16.2786 14.6458 16.0234 14.9375C15.7682 15.1927 15.6406 15.5026 15.6406 15.8672C15.6406 16.2318 15.7682 16.5417 16.0234 16.7969C16.2786 17.0521 16.5885 17.1797 16.9531 17.1797C17.3542 17.1797 17.6823 17.0521 17.9375 16.7969C18.1927 16.5417 18.3203 16.2318 18.3203 15.8672C18.3203 15.5026 18.1927 15.1927 17.9375 14.9375C17.6823 14.6458 17.3724 14.5 17.0078 14.5Z" fill="white"/>
</svg>
