<svg width="26" height="22" viewBox="0 0 26 22" fill="none" xmlns="http://www.w3.org/2000/svg">
<path d="M26 2.60677C25.0413 3.04792 24.0165 3.34583 22.9366 3.48333C24.0386 2.79583 24.8871 1.70729 25.2837 0.4125C24.2534 1.04844 23.1129 1.5125 21.8953 1.75885C20.9201 0.676042 19.5317 0 18 0C15.0523 0 12.6667 2.48646 12.6667 5.55156C12.6667 5.98698 12.7107 6.41094 12.8044 6.81771C8.36915 6.58854 4.43526 4.37708 1.80716 1.01406C1.34986 1.83333 1.0854 2.7901 1.0854 3.80417C1.0854 5.72917 2.02755 7.43073 3.46006 8.4276C2.58402 8.40469 1.75758 8.1526 1.04132 7.73438C1.04132 7.75729 1.04132 7.78021 1.04132 7.80312C1.04132 10.4958 2.88154 12.7359 5.32231 13.2458C4.87603 13.3719 4.4022 13.4406 3.91736 13.4406C3.57576 13.4406 3.23967 13.4062 2.9146 13.3375C3.59229 15.5432 5.56474 17.1474 7.90083 17.1932C6.07713 18.6828 3.7741 19.5708 1.27273 19.5708C0.842975 19.5708 0.418733 19.5422 0 19.4906C2.35813 21.0833 5.16253 22 8.1708 22C17.989 22 23.3554 13.538 23.3554 6.19896C23.3554 5.95833 23.3499 5.71771 23.3388 5.48281C24.3802 4.69792 25.2837 3.71823 26 2.60677Z" fill="white"/>
</svg>
