<svg width="27" height="23" viewBox="0 0 27 23" fill="none" xmlns="http://www.w3.org/2000/svg">
<g clip-path="url(#clip0)">
<path d="M18.759 7.5682C16.2536 7.70115 14.0692 8.4477 12.2988 10.1453C10.5078 11.8634 9.68994 13.9599 9.91771 16.5575C8.93419 16.4348 8.04386 16.3019 7.14317 16.2303C6.83258 16.1996 6.47024 16.2405 6.20106 16.3837C5.33143 16.8746 4.49286 17.4166 3.49899 18.0302C3.68534 17.2223 3.79922 16.5064 4.00628 15.8212C4.16157 15.3201 4.0891 15.044 3.62323 14.7167C0.631278 12.6202 -0.642112 9.4806 0.310342 6.23872C1.19033 3.2525 3.3437 1.43214 6.27353 0.491274C10.2697 -0.797299 14.7732 0.521954 17.1957 3.65135C18.0757 4.78652 18.614 6.06486 18.759 7.5682ZM7.22599 6.55575C7.24669 5.96259 6.72905 5.4308 6.10789 5.41035C5.47637 5.3899 4.95873 5.87055 4.93803 6.48416C4.91732 7.10799 5.4039 7.6091 6.03542 7.61933C6.67729 7.63978 7.20528 7.15913 7.22599 6.55575ZM13.2409 5.41035C12.6198 5.42058 12.1021 5.94214 12.1125 6.53529C12.1228 7.1489 12.6405 7.62956 13.272 7.62956C13.9139 7.61933 14.3901 7.13867 14.3901 6.50461C14.3797 5.89101 13.8725 5.40012 13.2409 5.41035Z" fill="white"/>
<path d="M24.3908 23.0001C23.5936 22.6524 22.8689 22.1308 22.0925 22.049C21.316 21.9672 20.5085 22.4069 19.701 22.4887C17.237 22.7342 15.0319 22.0592 13.2202 20.4025C9.76234 17.2424 10.2593 12.3949 14.2554 9.80753C17.8064 7.50651 23.0242 8.27352 25.5296 11.4643C27.714 14.2459 27.4552 17.948 24.7946 20.29C24.0181 20.9649 23.7386 21.5274 24.2355 22.4171C24.3287 22.5808 24.339 22.7955 24.3908 23.0001ZM15.3528 14.3584C15.8601 14.3584 16.2742 13.9698 16.2949 13.4789C16.3156 12.9574 15.8912 12.5176 15.3632 12.5176C14.8352 12.5176 14.4004 12.9574 14.4211 13.4687C14.4418 13.9596 14.8559 14.3584 15.3528 14.3584ZM21.1814 12.5176C20.6949 12.5176 20.2704 12.9062 20.2497 13.3971C20.229 13.9187 20.6431 14.3482 21.1607 14.3482C21.668 14.3482 22.0718 13.9698 22.0821 13.4687C22.1132 12.9574 21.6991 12.5176 21.1814 12.5176Z" fill="white"/>
</g>
<defs>
<clipPath id="clip0">
<rect width="27" height="23" fill="white"/>
</clipPath>
</defs>
</svg>
