<svg width="31" height="21" viewBox="0 0 31 21" fill="none" xmlns="http://www.w3.org/2000/svg">
<path d="M29.5181 3.28125C29.3358 2.625 29.0077 2.0599 28.5337 1.58594C28.0598 1.11198 27.4947 0.783854 26.8384 0.601562C25.8905 0.346354 23.6666 0.164062 20.1666 0.0546875L15.19 0L10.2134 0.0546875C6.71344 0.164062 4.48948 0.346354 3.54156 0.601562C2.88531 0.783854 2.32021 1.11198 1.84625 1.58594C1.37229 2.0599 1.04417 2.625 0.861875 3.28125C0.606667 4.26562 0.424375 5.76042 0.315 7.76562C0.278542 8.78646 0.260312 9.69792 0.260312 10.5L0.315 13.2344C0.424375 15.276 0.606667 16.7891 0.861875 17.7734C1.04417 18.3932 1.37229 18.9401 1.84625 19.4141C2.32021 19.888 2.88531 20.2161 3.54156 20.3984C4.48948 20.6536 6.71344 20.8359 10.2134 20.9453L15.19 21L20.1666 20.9453C23.6666 20.8359 25.8905 20.6536 26.8384 20.3984C27.4947 20.2161 28.0598 19.888 28.5337 19.4141C29.0077 18.9401 29.3358 18.3932 29.5181 17.7734C29.7733 16.7891 29.9556 15.276 30.065 13.2344L30.1197 10.5L30.065 7.76562C29.9556 5.76042 29.7733 4.26562 29.5181 3.28125ZM12.1275 14.9844V6.07031L19.9478 10.5L12.1275 14.9844Z" fill="white"/>
</svg>
