<svg width="56" height="60" viewBox="0 0 56 60" fill="none" xmlns="http://www.w3.org/2000/svg">
<path d="M3.13815 13.8435L26.0541 1.08354C27.2639 0.409875 28.7361 0.409875 29.9459 1.08354L52.8619 13.8435C54.2312 14.606 54.2312 16.5758 52.8619 17.3383L29.9459 30.0983C28.7361 30.7719 27.2639 30.7719 26.0541 30.0983L3.13815 17.3383C1.76878 16.5758 1.76877 14.606 3.13815 13.8435Z" stroke="black"/>
<path d="M2 16V44.2092C2 44.9541 2.41391 45.6372 3.07413 45.982L27.0741 58.5165C27.6542 58.8194 28.3458 58.8194 28.9259 58.5164L52.9259 45.982C53.5861 45.6372 54 44.9541 54 44.2092V16" stroke="black" stroke-linecap="round" stroke-linejoin="round"/>
<path d="M28 31.1818V58.2273" stroke="black" stroke-linecap="round" stroke-linejoin="round"/>
</svg>
