<svg width="173" height="151" viewBox="0 0 173 151" fill="none" xmlns="http://www.w3.org/2000/svg">
<rect width="180.815" height="1.36742" rx="0.68371" transform="matrix(0.707107 0.707107 0.707107 -0.707107 21.2593 9.98006)" fill="black"/>
<circle cx="87" cy="72" r="63.5" stroke="black"/>
<path d="M86.3095 24.4898C124.598 24.4898 171.619 72.812 171.619 72.812C171.619 72.812 124.598 121.134 86.3095 121.134C48.0207 121.134 1 72.812 1 72.812C1 72.812 48.0207 24.4898 86.3095 24.4898Z" fill="white" stroke="black"/>
<circle cx="86.9068" cy="72.2154" r="36.4874" stroke="black"/>
<ellipse cx="86.9464" cy="72.3177" rx="21.6182" ry="21.091" fill="black"/>
<ellipse cx="73.7637" cy="55.9721" rx="10.5455" ry="10.0182" fill="white"/>
<circle cx="73.7638" cy="55.4449" r="6.32729" fill="black"/>
<rect width="169.014" height="6.20021" transform="matrix(0.707107 -0.707107 -0.707107 -0.707107 30.6313 136.645)" fill="white"/>
<rect width="180.815" height="1.36742" rx="0.68371" transform="matrix(0.707107 -0.707107 -0.707107 -0.707107 22.2261 137.835)" fill="black"/>
<path d="M39.6449 1H13.2173C12.1127 1 11.2173 1.89543 11.2173 3V29.4276" stroke="black"/>
<path d="M131.79 1H158.217C159.322 1 160.217 1.89543 160.217 3V29.4276" stroke="black"/>
<path d="M39.6449 150H13.2173C12.1127 150 11.2173 149.105 11.2173 148V121.572" stroke="black"/>
<path d="M131.79 150H158.217C159.322 150 160.217 149.105 160.217 148V121.572" stroke="black"/>
</svg>
