<svg width="192" height="191" viewBox="0 0 192 191" fill="none" xmlns="http://www.w3.org/2000/svg">
<path d="M137.137 189.583V143.329H130.794V100.877L127.623 97.7094V114.183H122.549L112.401 124.321V189.583" stroke="black" stroke-linecap="round"/>
<path d="M1 190V151.738H6.38462V116.621L9.07692 114V127.628H13.3846L22 136.014V190" stroke="black" stroke-linecap="round"/>
<path d="M116.31 135.641L122.788 123.622V143.232L119.254 147.027V174.86H116.31V135.641Z" fill="black"/>
<path d="M19 144.852L13 135V151.074L16.2727 154.185V177H19V144.852Z" fill="black"/>
<path d="M184.651 189.328V155.353L186.588 153.423H188.139L189.883 151.686H184.651V148.211L186.588 146.28H184.651L183.294 144.929L181.938 146.28V139.331H180.581V132.188L183.294 129.486V125.046L184.651 123.695H183.294L181.938 122.343L180.581 123.695H170.117V189.328" stroke="black" stroke-linecap="round"/>
<path d="M22 189.877V156.603L32.6008 146.002V105.071H35.8399V96.5315L38.1957 94.1758V53.8338L43.7905 48.2389V32.9267L40.8459 29.982L48.7965 22.0314V16.1421L52.0356 12.9029V35.8713L53.8024 37.6381V19.3812L56.4526 22.0314V44.7053L59.9862 48.2389V71.5018L62.6364 74.152V80.6303L59.9862 83.2805V96.5315L65.5811 102.126V144.235L67.3479 146.002V189.877" stroke="black" stroke-linecap="round"/>
<path d="M67.001 155.166L71.3011 150.866V142.983L75.2187 139.16V104.521L77.4224 102.371V97.5927L80.6054 94.487V104.998H83.5436V76.0921L85.2576 74.4198V69.6419L83.5436 67.9697V58.6528H86.237L92.6031 71.792V108.389L97.0104 112.643V86.1257L100.193 77.7644V98.7871L101.907 99.7427V153.733L106.975 158.801V166.817L111.917 171.759" stroke="black" stroke-linecap="round"/>
<path d="M170.117 189.583V97.17L167.58 94.6381V74.3832L164.408 71.2184V57.9261L160.603 54.1283V71.2184L146.65 85.1436V106.031H143.479V161.1L137.136 167.429V189.583" stroke="black" stroke-linecap="round" stroke-linejoin="round"/>
<path d="M161.068 99.1371L157.263 95.3536V123.729L152.823 128.144V157.781L161.068 149.583V99.1371Z" fill="black"/>
<path d="M97.101 116.244L93.2956 112.46V140.836L88.856 145.25V157.317L97.101 149.12V116.244Z" fill="black"/>
<path d="M153.412 164.018V172.286L161.068 165.29V156.385L153.412 164.018Z" fill="black"/>
<path d="M45.8516 61.49L49.0907 58.2508V80.9248L53.5077 85.3418V114.199L45.8516 106.543V61.49Z" fill="black"/>
<path d="M167.761 74.152V62.3733" stroke="black" stroke-linecap="round" stroke-linejoin="round"/>
<path d="M160.694 54.1283V42.3496" stroke="black" stroke-linecap="round" stroke-linejoin="round"/>
<path d="M182.196 122.043V110.264" stroke="black" stroke-linecap="round" stroke-linejoin="round"/>
<path d="M111.917 124.239V112.46" stroke="black" stroke-linecap="round" stroke-linejoin="round"/>
<path d="M127.713 97.7094V85.9307" stroke="black" stroke-linecap="round" stroke-linejoin="round"/>
<path d="M85.562 58.6527V43.2791" stroke="black" stroke-linecap="round" stroke-linejoin="round"/>
<path d="M80.0718 94.8905V79.5169" stroke="black" stroke-linecap="round" stroke-linejoin="round"/>
<path d="M38.3433 54.2603V38.8867" stroke="black" stroke-linecap="round" stroke-linejoin="round"/>
<path d="M32.8525 105.872V90.4981" stroke="black" stroke-linecap="round" stroke-linejoin="round"/>
<path d="M99.8374 79.5169V64.1433" stroke="black" stroke-linecap="round" stroke-linejoin="round"/>
<path d="M59.9863 48.2389V36.4603" stroke="black" stroke-linecap="round" stroke-linejoin="round"/>
<path d="M40.5396 29.8012V18.0225" stroke="black" stroke-linecap="round" stroke-linejoin="round"/>
<path d="M57.0112 23.2125V11.4338" stroke="black" stroke-linecap="round" stroke-linejoin="round"/>
<path d="M52.3301 12.9029V1.12427" stroke="black" stroke-linecap="round" stroke-linejoin="round"/>
<path d="M143.615 105.954V94.1758" stroke="black" stroke-linecap="round" stroke-linejoin="round"/>
<path d="M147.057 110.264H149.253" stroke="black" stroke-width="2" stroke-linejoin="round"/>
<path d="M161.332 77.3207H163.528" stroke="black" stroke-width="2" stroke-linejoin="round"/>
<path d="M161.332 83.9094H163.528" stroke="black" stroke-width="2" stroke-linejoin="round"/>
<path d="M161.332 90.4981H163.528" stroke="black" stroke-width="2" stroke-linejoin="round"/>
<path d="M147.057 115.755H149.253" stroke="black" stroke-width="2" stroke-linejoin="round"/>
<path d="M147.057 126.736H149.253" stroke="black" stroke-width="2" stroke-linejoin="round"/>
<path d="M147.057 132.226H149.253" stroke="black" stroke-width="2" stroke-linejoin="round"/>
<path d="M130.585 147.6H132.781" stroke="black" stroke-width="2" stroke-linejoin="round"/>
<path d="M37.2447 111.362H39.4409" stroke="black" stroke-width="2" stroke-linejoin="round"/>
<path d="M43.8336 115.755H46.0298" stroke="black" stroke-width="2" stroke-linejoin="round"/>
<path d="M39.441 122.343H41.6372" stroke="black" stroke-width="2" stroke-linejoin="round"/>
<path d="M44.9317 128.932H47.1279" stroke="black" stroke-width="2" stroke-linejoin="round"/>
<path d="M49.3243 134.423H51.5205" stroke="black" stroke-width="2" stroke-linejoin="round"/>
<path d="M53.7164 139.913H55.9126" stroke="black" stroke-width="2" stroke-linejoin="round"/>
<path d="M53.7164 68.5358H55.9126" stroke="black" stroke-width="2" stroke-linejoin="round"/>
<path d="M53.7164 63.0452H55.9126" stroke="black" stroke-width="2" stroke-linejoin="round"/>
<path d="M53.7164 57.5546H55.9126" stroke="black" stroke-width="2" stroke-linejoin="round"/>
<path d="M53.7164 52.0641H55.9126" stroke="black" stroke-width="2" stroke-linejoin="round"/>
<path d="M40.5391 149.796H42.7354" stroke="black" stroke-width="2" stroke-linejoin="round"/>
<path d="M52.6187 157.483H54.8149" stroke="black" stroke-width="2" stroke-linejoin="round"/>
<path d="M80.0714 109.166H84.4639" stroke="black" stroke-width="2" stroke-linejoin="round"/>
<path d="M147.057 137.717H149.253" stroke="black" stroke-width="2" stroke-linejoin="round"/>
<path d="M130.585 153.091H132.781" stroke="black" stroke-width="2" stroke-linejoin="round"/>
<path d="M80.0714 113.558H84.4639" stroke="black" stroke-width="2" stroke-linejoin="round"/>
<path d="M170.117 133.325H174.509" stroke="black" stroke-width="2" stroke-linejoin="round"/>
<path d="M170.117 136.619H174.509" stroke="black" stroke-width="2" stroke-linejoin="round"/>
<path d="M170.117 127.834H176.706" stroke="black" stroke-width="2" stroke-linejoin="round"/>
<path d="M170.117 145.404H175.607" stroke="black" stroke-width="2" stroke-linejoin="round"/>
<path d="M170.117 142.109H175.607" stroke="black" stroke-width="2" stroke-linejoin="round"/>
<path d="M130.585 158.581H132.781" stroke="black" stroke-width="2" stroke-linejoin="round"/>
<path d="M80.0714 119.049H84.4639" stroke="black" stroke-width="2" stroke-linejoin="round"/>
<path d="M147.057 148.698H149.253" stroke="black" stroke-width="2" stroke-linejoin="round"/>
<path d="M130.585 164.072H132.781" stroke="black" stroke-width="2" stroke-linejoin="round"/>
<path d="M80.0714 123.441H84.4639" stroke="black" stroke-width="2" stroke-linejoin="round"/>
<path d="M147.057 154.189H149.253" stroke="black" stroke-width="2" stroke-linejoin="round"/>
<path d="M130.585 169.562H132.781" stroke="black" stroke-width="2" stroke-linejoin="round"/>
<path d="M80.0714 128.932H84.4639" stroke="black" stroke-width="2" stroke-linejoin="round"/>
<path d="M170.117 97.7094V85.9307" stroke="black" stroke-linecap="round" stroke-linejoin="round"/>
</svg>
