<svg width="180" height="199" viewBox="0 0 180 199" fill="none" xmlns="http://www.w3.org/2000/svg">
<path d="M107.603 188.982H137.584" stroke="black"/>
<path d="M107.603 185.651H137.584" stroke="black"/>
<path d="M1 198.5V157.572L10.5181 148.054V128.066L1 118.548V81.4277L10.5181 71.9096V50.9699H68.5783V81.4277L55.7289 94.2771V148.054L46.2108 157.572V198.5H179.464" stroke="black"/>
<path d="M43.8314 61.4398H47.6387" stroke="black" stroke-width="2" stroke-linejoin="round"/>
<path d="M6.71098 85.2349H9.56641" stroke="black" stroke-width="2" stroke-linejoin="round"/>
<path d="M6.71098 89.994H9.56641" stroke="black" stroke-width="2" stroke-linejoin="round"/>
<path d="M6.71098 99.5121H9.56641" stroke="black" stroke-width="2" stroke-linejoin="round"/>
<path d="M6.71098 104.271H9.56641" stroke="black" stroke-width="2" stroke-linejoin="round"/>
<path d="M6.71098 109.03H9.56641" stroke="black" stroke-width="2" stroke-linejoin="round"/>
<path d="M6.71098 113.789H9.56641" stroke="black" stroke-width="2" stroke-linejoin="round"/>
<path d="M21.9399 153.765L12.4219 163.504L21.9399 172.801V153.765Z" stroke="black"/>
<path d="M90.4697 184.843L93.3916 180.084L96.1806 184.843L90.4697 184.843Z" stroke="black"/>
<path d="M148.53 184.843L151.452 180.084L154.241 184.843L148.53 184.843Z" stroke="black"/>
<path d="M51.4457 56.6807H55.2529" stroke="black" stroke-width="2" stroke-linejoin="round"/>
<path d="M51.4457 61.4398H55.2529" stroke="black" stroke-width="2" stroke-linejoin="round"/>
<path d="M51.4457 70.9578H55.2529" stroke="black" stroke-width="2" stroke-linejoin="round"/>
<path d="M119.024 71.4337H120.928" stroke="black" stroke-width="2" stroke-linejoin="round"/>
<path d="M111.41 114.265H113.313" stroke="black" stroke-width="2" stroke-linejoin="round"/>
<path d="M111.41 138.06H113.313" stroke="black" stroke-width="2" stroke-linejoin="round"/>
<path d="M119.024 76.1928H120.928" stroke="black" stroke-width="2" stroke-linejoin="round"/>
<path d="M111.41 119.024H113.313" stroke="black" stroke-width="2" stroke-linejoin="round"/>
<path d="M111.41 142.819H113.313" stroke="black" stroke-width="2" stroke-linejoin="round"/>
<path d="M119.024 80.9518H120.928" stroke="black" stroke-width="2" stroke-linejoin="round"/>
<path d="M111.41 123.783H113.313" stroke="black" stroke-width="2" stroke-linejoin="round"/>
<path d="M111.41 147.578H113.313" stroke="black" stroke-width="2" stroke-linejoin="round"/>
<path d="M119.024 85.7108H120.928" stroke="black" stroke-width="2" stroke-linejoin="round"/>
<path d="M111.41 128.542H113.313" stroke="black" stroke-width="2" stroke-linejoin="round"/>
<path d="M111.41 152.337H113.313" stroke="black" stroke-width="2" stroke-linejoin="round"/>
<path d="M119.024 90.4699H120.928" stroke="black" stroke-width="2" stroke-linejoin="round"/>
<path d="M111.41 133.301H113.313" stroke="black" stroke-width="2" stroke-linejoin="round"/>
<path d="M59.0604 56.6807H62.8677" stroke="black" stroke-width="2" stroke-linejoin="round"/>
<path d="M59.0604 61.4398H62.8677" stroke="black" stroke-width="2" stroke-linejoin="round"/>
<path d="M59.0604 66.1988H62.8677" stroke="black" stroke-width="2" stroke-linejoin="round"/>
<path d="M59.0604 70.9578H62.8677" stroke="black" stroke-width="2" stroke-linejoin="round"/>
<path d="M10.5181 50.9123V39.5482" stroke="black" stroke-linecap="round" stroke-linejoin="round"/>
<path d="M1 81.3701V70.006" stroke="black" stroke-linecap="round" stroke-linejoin="round"/>
<path d="M178.036 173.396V142.469L173.984 138.692L144.723 111.41V185.651H148.317L151.912 191.361L155.507 185.651H159.101V166.883L155.827 163.548V151.657L178.036 173.396Z" stroke="black"/>
<path d="M67.6267 173.396V142.469L71.6783 138.692L100.94 111.41V185.651H97.3452L93.7505 191.361L90.1558 185.651H86.5611V166.883L89.8355 163.548V151.657L67.6267 173.396Z" stroke="black"/>
<path d="M107.603 36.2169L122.831 20.9879H127.59L142.819 36.2169V57.6325L137.584 62.8675V188.982L132.825 192.789H111.41L107.603 188.982V162.331L122.831 177.56V170.422L107.603 155.193V111.41L115.217 103.795V68.1024L107.603 60.4879V36.2169Z" stroke="black"/>
<path d="M111 37.2051L119.308 29H129.692L138 37.2051V49L129.173 40.2821H119.827L111 49V37.2051Z" fill="black"/>
<path d="M117.121 164.235V115.693L124.735 108.078V66.6747L129.97 61.4398H135.205L142.819 53.8253" stroke="black"/>
<path d="M34.3132 132.349L25.271 141.392V50.9699L34.3132 41.9277V113.313V115.455L51.9216 97.6084V110.458L34.3132 127.114V132.349Z" fill="black"/>
<path d="M33.3613 46.2108L33.3613 20.0361" stroke="black" stroke-linecap="round" stroke-linejoin="round"/>
<path d="M68.5781 71.2751L92 47.5359V57.6886L68.5781 81.4277V71.2751Z" stroke="black"/>
<path d="M100.94 127.125L107.603 119.976V137.574L100.94 144.723V127.125Z" stroke="black"/>
<path d="M138.06 137.574L144.723 144.723V127.125L138.06 119.976V137.574Z" stroke="black"/>
<path d="M119.024 94.2771L91.4215 94.2771V99.0361V103.795L119.024 103.795V94.2771Z" stroke="black" stroke-linejoin="round"/>
<path d="M108 48L92 48V53V58L108 58V48Z" stroke="black" stroke-linejoin="round"/>
<path d="M119.024 94.2771L115.217 94.2771V99.0361V103.795L119.024 103.795V94.2771Z" fill="black"/>
<path d="M96.1809 98.0843H98.0845" stroke="black" stroke-width="2" stroke-linejoin="round"/>
<path d="M96 52H97" stroke="black" stroke-width="2" stroke-linejoin="round"/>
<path d="M101.892 98.0843H103.795" stroke="black" stroke-width="2" stroke-linejoin="round"/>
<path d="M100 52H101" stroke="black" stroke-width="2" stroke-linejoin="round"/>
<path d="M107.602 98.0843H109.506" stroke="black" stroke-width="2" stroke-linejoin="round"/>
<path d="M104 52H105" stroke="black" stroke-width="2" stroke-linejoin="round"/>
<path d="M68.5781 51.9217V37.6446" stroke="black" stroke-linecap="round" stroke-linejoin="round"/>
<path d="M127.59 21.9398L127.59 1" stroke="black" stroke-linecap="round" stroke-linejoin="round"/>
<path d="M120 43V29" stroke="white" stroke-width="2" stroke-linecap="round" stroke-linejoin="round"/>
<path d="M130 43V29" stroke="white" stroke-width="2" stroke-linecap="round" stroke-linejoin="round"/>
<path d="M122.832 24.7952V10.5181" stroke="black" stroke-linecap="round" stroke-linejoin="round"/>
<path d="M102.843 87.6144V73.3373" stroke="black" stroke-linecap="round" stroke-linejoin="round"/>
<path d="M151.386 87.6144V73.3373" stroke="black" stroke-linecap="round" stroke-linejoin="round"/>
<path d="M178.036 146.627V132.349" stroke="black" stroke-linecap="round" stroke-linejoin="round"/>
<path d="M67.6265 146.627V132.349" stroke="black" stroke-linecap="round" stroke-linejoin="round"/>
<path d="M28.6022 56.6807H30.5059" stroke="white" stroke-width="2" stroke-linejoin="round"/>
<path d="M28.6022 64.2952H30.5059" stroke="white" stroke-width="2" stroke-linejoin="round"/>
<path d="M28.6022 71.9096H30.5059" stroke="white" stroke-width="2" stroke-linejoin="round"/>
<path d="M28.6022 79.5241H30.5059" stroke="white" stroke-width="2" stroke-linejoin="round"/>
<path d="M28.6022 87.1385H30.5059" stroke="white" stroke-width="2" stroke-linejoin="round"/>
<path d="M28.6022 94.753H30.5059" stroke="white" stroke-width="2" stroke-linejoin="round"/>
<path d="M28.6022 102.367H30.5059" stroke="white" stroke-width="2" stroke-linejoin="round"/>
<path d="M28.6022 109.982H30.5059" stroke="white" stroke-width="2" stroke-linejoin="round"/>
<path d="M28.6022 117.596H30.5059" stroke="white" stroke-width="2" stroke-linejoin="round"/>
<path d="M28.6022 125.211H30.5059" stroke="white" stroke-width="2" stroke-linejoin="round"/>
<path d="M34.7891 139.488L25.7469 148.53V182.319L6.23486 163.283V171.849L25.7469 191.361V198.5H34.7891V139.488Z" fill="black"/>
<path d="M28.6022 154.717H30.5059" stroke="white" stroke-width="2" stroke-linejoin="round"/>
<path d="M28.6022 162.331H30.5059" stroke="white" stroke-width="2" stroke-linejoin="round"/>
<path d="M28.6022 169.946H30.5059" stroke="white" stroke-width="2" stroke-linejoin="round"/>
<path d="M28.6022 177.56H30.5059" stroke="white" stroke-width="2" stroke-linejoin="round"/>
<path d="M28.6022 185.175H30.5059" stroke="white" stroke-width="2" stroke-linejoin="round"/>
<path d="M41.9277 134.211L51.4458 124.693V129.928L41.9277 139.446V134.211Z" stroke="black" stroke-linecap="round" stroke-linejoin="round"/>
<path d="M42.0879 143.612L91.4217 93.9598V99.0361V104.112L42.0879 153.765V143.612Z" fill="white" stroke="black" stroke-linecap="round" stroke-linejoin="round"/>
<path d="M119.976 123.691L127.591 130.446V126.731L119.976 119.976V123.691Z" fill="black"/>
<path d="M119.976 136.065L127.591 142.819V139.104L119.976 132.349V136.065Z" fill="black"/>
<path d="M119.976 148.438L127.591 155.193V151.478L119.976 144.723V148.438Z" fill="black"/>
<path d="M62.8676 80.4759L38.1206 104.271V97.0772L49.0553 86.563V80.4759H62.8676Z" stroke="black"/>
<path d="M138.06 73.3374L151.385 87.3456L146.223 87.3456L142.428 83.2486L138.06 83.2486L138.06 73.3374Z" stroke="black"/>
<path d="M115.217 73.3374L101.891 87.3456L107.054 87.3456L110.849 83.2486L115.217 83.2486L115.217 73.3374Z" stroke="black"/>
<path d="M123.426 25.747L120.928 23.3675L123.426 20.9879H126.996L129.494 23.3675L126.996 25.747H123.426Z" fill="black" stroke="black"/>
<rect x="87.6143" y="195.169" width="72.3373" height="2.85542" fill="black"/>
<path d="M115 51.5455L121.909 45H127.091L134 51.5455L131.409 54H117.591L115 51.5455Z" stroke="black"/>
</svg>
