<svg xmlns="http://www.w3.org/2000/svg" width="663" height="759" class="hidden sr-only">
    <g xmlns="http://www.w3.org/2000/svg" fill="none" viewBox="0 0 663 759" id="blocks">
    <path fill="#4A6184" d="M373.658 119.654h-.39l-.26-.52.26-.519-50.903-29.347-.26.52-.259-.52-50.903 29.347.259.519h-.519v58.695h.649l-.259.519 50.903 29.347.259-.519.26.519 50.903-29.347h.39v-58.694h-.13zm-52.202 86.353l-49.604-28.568v-57.266l49.604 28.568v57.266zm1.299-57.136l49.604-28.568v57.266l-49.604 28.568v-57.266zm48.955-29.737l-49.605 28.568-49.604-28.568 49.604-28.568 49.605 28.568z"></path>
    <path fill="#C8D1E1" d="M272.631 119.654h-.39l-.259-.52.259-.519-50.903-29.347-.259.52-.26-.52-50.903 29.347.26.519h-.65v58.695h.65l-.26.519 50.903 29.347.26-.519.259.519 50.903-29.347h.39v-58.694zm-52.202 86.353l-49.604-28.568v-57.266l49.604 28.568v57.266zm1.299-57.136l49.604-28.568v57.266l-49.604 28.568v-57.266zm48.955-29.737l-49.604 28.568-49.605-28.568 49.605-28.568 49.604 28.568zm153.228-88.171h-.389l-.26-.52.26-.519L372.619.577l-.26.52-.389-.52-50.903 29.347.259.52h-.649v58.694h.649l-.259.52 50.903 29.476.259-.519.26.519 50.903-29.347h.39V30.963h.129zm-52.201 86.483l-49.605-28.568V31.612l49.605 28.569v57.265zm1.298-57.265l49.605-28.569v57.266l-49.605 28.568V60.181zm48.956-29.737l-49.605 28.568-49.604-28.568 49.604-28.568 49.605 28.568zm53.37 148.943h-.39l-.259-.52.259-.519-50.903-29.347-.259.519-.26-.519-50.903 29.347.26.519h-.65v58.695h.65l-.26.519 50.903 29.347.26-.519.259.519 50.903-29.347h.39v-58.694zm-52.072 86.483l-49.604-28.568v-57.266l49.604 28.568v57.266zm1.299-57.266l49.604-28.568v57.266l-49.604 28.568v-57.266zm48.825-29.737l-49.604 28.568-49.605-28.568 49.605-28.568 49.604 28.568z"></path>
    <path fill="#C8D1E1" d="M423.262 266.909h-.389l-.26-.52.26-.519-50.903-29.347-.26.519-.26-.519-50.903 29.347.26.519h-.649v58.695h.649l-.26.519 50.903 29.347.26-.519.26.519 50.903-29.347h.389v-58.694zm-52.201 86.483l-49.605-28.568v-57.266l49.605 28.568v57.266zm1.298-57.266l49.605-28.568v57.266l-49.605 28.568v-57.266zm48.955-29.737l-49.604 28.568-49.605-28.568 49.605-28.568 49.604 28.568z"></path>
    <path fill="#4A6184" d="M526.886 91.346h-.389l-.26-.52.26-.52-50.903-29.346-.26.519-.26-.52-50.903 29.348.26.52h-.52v58.693h.65l-.26.52 50.903 29.347.26-.52.259.52 50.903-29.347h.39V91.346h-.13zm-52.201 86.483l-49.605-28.568V91.995l49.605 28.568v57.266zm1.298-57.266l49.605-28.568v57.266l-49.605 28.568v-57.266zm48.955-29.737l-49.604 28.568-49.605-28.568 49.605-28.568 49.604 28.568zm53.371 147.904h-.39l-.26-.519.26-.519-50.903-29.347-.26.519-.259-.519-50.903 29.347.259.519h-.649v58.694h.649l-.259.52 50.903 29.347.259-.52.26.52 50.903-29.347h.39V238.73zm-52.072 86.354l-49.605-28.568V239.25l49.605 28.568v57.266zm1.298-57.136l49.605-28.568v57.266l-49.605 28.568v-57.266zm48.826-29.737l-49.605 28.568-49.604-28.568 49.604-28.568 49.605 28.568z"></path>
    <path fill="#C8D1E1" d="M322.106 207.695h-.39l-.26-.519.26-.52-50.773-29.477-.26.52-.26-.52-50.903 29.348.26.519h-.649v58.694h.649l-.26.52 50.903 29.347.26-.52.26.52 50.903-29.347h.389v-58.565h-.129zm-52.072 86.353l-49.605-28.568v-57.265l49.605 28.568v57.265zm1.298-57.136l49.605-28.568v57.136l-49.605 28.568v-57.136zm48.826-29.736l-49.605 28.568-49.604-28.568 49.604-28.568 49.605 28.568z"></path>
    <path fill="#4A6184" d="M204.07 413.571h-.39l-.26-.519.26-.52-50.903-29.347-.26.519-.259-.519-50.903 29.347.259.52h-.649v58.694h.649l-.259.519 50.903 29.347.259-.519.26.519 50.903-29.347h.39v-58.694zm-52.072 86.483l-49.605-28.568V414.22l49.605 28.568v57.266zm1.298-57.266l49.605-28.568v57.266l-49.605 28.568v-57.266zm48.826-29.736l-49.605 28.568-49.604-28.568 49.604-28.568 49.605 28.568z"></path>
    <path fill="#C8D1E1" d="M103.043 413.571h-.39l-.26-.519.26-.52-50.903-29.347-.26.519-.26-.519L.329 412.532l.26.52h-.52v58.694h.65l-.39.649 50.903 29.347.26-.519.26.519 51.032-29.347h.39v-58.824h-.13zm-52.072 86.483L1.367 471.356V414.09l49.604 28.568v57.396zm1.299-57.266l49.604-28.568v57.266L52.27 500.054v-57.266zm48.825-29.736L51.49 441.62 1.886 413.052l49.604-28.568 49.605 28.568zm153.228-88.042h-.389l-.26-.519.26-.52-50.773-29.477-.26.52-.26-.52-50.903 29.347.26.52h-.649v58.694h.649l-.26.519 50.903 29.348.26-.52.26.52 50.903-29.348h.389V325.01h-.13zm-52.201 86.353l-49.605-28.568v-57.266l49.605 28.568v57.266zm1.298-57.136l49.605-28.568v57.136l-49.605 28.568v-57.136zm48.955-29.736l-49.604 28.568-49.604-28.568 49.604-28.568 49.604 28.568z"></path>
    <path fill="#C8D1E1" d="M152.647 325.01h-.389l-.26-.519.26-.52-50.774-29.477-.259.52-.26-.52-50.903 29.347.26.52h-.65v58.694h.65l-.26.519 50.903 29.348.26-.52.259.52 50.903-29.348h.39V325.01h-.13zm-52.201 86.353l-49.605-28.568v-57.266l49.605 28.568v57.266zm1.298-57.136l49.605-28.568v57.136l-49.605 28.568v-57.136zm48.955-29.736l-49.604 28.568-49.605-28.568 49.605-28.568 49.604 28.568z"></path>
    <path fill="#4A6184" d="M152.647 501.612h-.389l-.26-.519.26-.52-50.903-29.347-.26.52-.26-.52-50.903 29.347.26.52h-.65v58.694h.65l-.26.52 50.903 29.347.26-.52.26.52 50.903-29.347h.389v-58.695zm-52.201 86.483l-49.605-28.568v-57.265l49.605 28.568v57.265zm1.298-57.265l49.605-28.568v57.136l-49.605 28.568V530.83zm48.955-29.737l-49.604 28.568-49.605-28.568 49.605-28.568 49.604 28.568z"></path>
    <path fill="#fff" d="M255.799 669.79l50.421-29.162 50.967 29.162v59.143l-50.967 28.89-50.421-28.89V669.79z"></path>
    <path fill="#fff" d="M205.928 581.646l50.421-29.162 50.967 29.162v59.143l-50.967 28.89-50.421-28.89v-59.143zm102.098.775l50.421-29.162 50.967 29.162v59.143l-50.967 28.89-50.421-28.89v-59.143z"></path>
    <path fill="#fff" d="M408.414 581.031l50.421-29.163 50.967 29.163v59.142l-50.967 28.891-50.421-28.891v-59.142z"></path>
    <path fill="#C8D1E1" d="M511.518 582.254h-.389l-.26-.52.26-.519-50.903-29.347-.26.519-.26-.519-50.903 29.347.26.519h-.649v58.695h.649l-.26.519 50.903 29.347.26-.519.26.519 50.903-29.347h.389v-58.694zm-52.201 86.483l-49.605-28.568v-57.266l49.605 28.568v57.266zm1.298-57.266l49.605-28.568v57.266l-49.605 28.568v-57.266zm48.955-29.737l-49.604 28.568-49.604-28.568 49.604-28.568 49.604 28.568zm-201.396.52h-.39l-.259-.52.259-.519-50.902-29.347-.26.519-.26-.519-50.903 29.347.26.519h-.649v58.695h.649l-.26.519 50.903 29.347.26-.519.26.519 50.902-29.347h.39v-58.694zm-52.201 86.483l-49.605-28.568v-57.266l49.605 28.568v57.266zm1.298-57.266l49.605-28.568v57.266l-49.605 28.568v-57.266zm48.955-29.737l-49.604 28.568-49.605-28.568 49.605-28.568 49.604 28.568z"></path>
    <path fill="#C8D1E1" d="M357.649 493.693h-.39l-.26-.519.26-.52-50.903-29.347-.26.519-.259-.519-50.903 29.347.259.52h-.649v58.694h.649l-.259.519 50.903 29.347.259-.519.26.519 50.903-29.347h.39v-58.694zm-52.072 86.353l-49.604-28.568v-57.266l49.604 28.568v57.266zm1.298-57.136l49.605-28.568v57.266l-49.605 28.568V522.91zm48.826-29.736l-49.605 28.568-49.604-28.568 49.604-28.568 49.605 28.568zm306.457-57.266h-.39l-.26-.52.26-.519-50.903-29.347-.26.519-.259-.519-50.903 29.347.259.519h-.649v58.695h.649l-.259.519 50.903 29.347.259-.519.26.519 50.903-29.347h.39v-58.694zm-52.202 86.483l-49.604-28.568v-57.266l49.604 28.568v57.266zm1.299-57.266l49.604-28.568v57.266l-49.604 28.568v-57.266zm48.955-29.737l-49.605 28.568-49.604-28.568 49.604-28.568 49.605 28.568z"></path>
    <path fill="#C8D1E1" d="M409.468 581.638h-.39l-.26-.52.26-.519-50.773-29.347-.26.519-.259-.519-50.903 29.347.259.519h-.649v58.695h.649l-.259.519 50.903 29.347.259-.519.26.519 50.903-29.347h.39v-58.694h-.13zm-52.072 86.353l-49.604-28.568v-57.266l49.604 28.568v57.266zm1.299-57.136l49.604-28.568v57.266l-49.604 28.568v-57.266zm48.825-29.737l-49.605 28.569-49.604-28.569 49.604-28.568 49.605 28.568z"></path>
    <path fill="#4A6184" d="M358.774 670.398h-.39l-.26-.52.26-.519-50.773-29.347-.26.519-.259-.519-50.903 29.347.259.519h-.649v58.695h.649l-.259.519 50.903 29.347.259-.519.26.519 50.903-29.347h.39v-58.694h-.13zm-52.202 86.483l-49.604-28.568v-57.266l49.604 28.568v57.266zm1.299-57.266l49.604-28.568v57.266l-49.604 28.568v-57.266zm48.955-29.737l-49.605 28.568-49.604-28.568 49.604-28.568 49.605 28.568z"></path>
  </g>
</svg>
