<svg width="460" height="72" viewBox="0 0 460 72" fill="none" xmlns="http://www.w3.org/2000/svg">
<path d="M70.7532 47.0885L61.9957 23.7268C61.9957 23.3617 61.2659 22.9967 60.901 22.9967H47.0348L38.6421 0.730054C38.6421 0.365027 38.2772 0 37.9123 0C37.5474 0 37.1825 0 36.8176 0.365027L16.0184 22.9967H1.78732C1.42242 22.9967 1.05752 22.9967 0.69262 23.7268C0.327721 23.7268 0.327721 24.4568 0.69262 24.8218L9.0853 47.8186C9.0853 48.1836 9.81509 48.5486 10.18 48.5486H24.0462L32.0739 70.8153C32.0739 71.1803 32.4388 71.5453 32.8037 71.5453C32.8037 71.5453 32.8037 71.5453 33.1686 71.5453C33.5335 71.5453 33.8984 71.5453 33.8984 71.1803L46.305 57.6743L54.6977 48.5486H69.2936C69.6585 48.5486 70.0234 48.5486 70.3883 47.8186C71.1181 47.8186 71.1181 47.4535 70.7532 47.0885ZM37.1825 3.65027L44.8454 23.7268L36.0878 33.2175L32.4388 23.7268C32.4388 23.3617 31.709 22.9967 31.3441 22.9967H19.3025L37.1825 3.65027ZM3.61181 25.5519H30.6143L34.2633 35.4076L24.776 45.9934H11.2747L3.61181 25.5519ZM44.8454 56.2142L33.8984 68.2601L26.6004 47.8186L35.358 38.3278L39.007 47.8186C39.007 48.1836 39.7368 48.5486 40.1017 48.5486H52.1434L44.8454 56.2142ZM40.8315 46.3584L37.1825 36.1377L46.6699 25.5519H60.1712L67.834 46.3584H40.8315Z" fill="white"/>
<path d="M80.9705 47.8186C79.146 45.6284 78.0513 43.0732 78.0513 39.788C78.0513 39.0579 78.0513 37.9628 78.0513 36.1377C78.0513 34.3126 78.0513 33.2175 78.0513 32.4874C78.0513 29.2022 79.146 26.282 80.9705 24.4568C82.795 22.2667 85.3492 21.5366 88.9982 21.5366C91.5525 21.5366 93.377 21.9016 95.2015 22.9967C96.6611 23.7268 98.1207 25.1869 98.8505 26.282C99.5803 27.7421 99.9452 29.2022 100.31 30.2973C100.31 30.2973 100.31 30.6623 99.9452 31.0273C99.9452 31.0273 99.5803 31.0273 99.2154 31.0273H98.4856C98.1207 31.0273 97.7558 30.6623 97.7558 30.2973C96.6611 27.7421 95.9313 25.9169 94.4717 25.1869C93.0121 24.4568 91.1876 23.7268 88.9982 23.7268C86.4439 23.7268 84.2546 24.4568 82.795 25.9169C81.3354 27.3771 80.6056 29.5672 80.2407 32.4874C80.2407 33.2175 80.2407 34.3126 80.2407 35.7727C80.2407 37.2328 80.2407 38.3279 80.2407 39.423C80.2407 42.3432 80.9705 44.8984 82.795 45.9934C84.2546 47.4535 86.079 48.1836 88.9982 48.1836C91.5525 48.1836 93.0121 47.8186 94.4717 46.7235C95.9313 45.9934 97.026 44.1683 97.3909 41.9781C97.3909 41.2481 97.7558 41.2481 98.1207 41.2481H98.8505C99.2154 41.2481 99.2154 41.2481 99.5803 41.6131C99.5803 41.6131 99.9452 41.9781 99.9452 42.3432C99.9452 43.8033 99.5803 45.2634 98.4856 46.3585C97.7558 47.8186 96.6611 48.9137 94.8366 49.6437C93.377 50.3738 91.1876 51.1038 88.6333 51.1038C85.3493 50.7388 82.795 49.6437 80.9705 47.8186Z" fill="white"/>
<path d="M99.8055 49.7816V49.4166L110.388 22.4046C110.388 21.6746 111.117 21.6746 111.482 21.6746H112.942C113.672 21.6746 114.037 22.0396 114.037 22.4046L124.619 49.4166V49.7816C124.619 49.7816 124.619 50.1467 124.254 50.5117C124.254 50.5117 123.889 50.8767 123.524 50.8767H122.794C122.429 50.8767 122.429 50.8767 122.064 50.8767L121.699 50.5117L119.145 43.9412H104.549L102.36 49.7816C102.36 49.7816 102.36 50.1467 101.995 50.1467C101.995 50.1467 101.63 50.1467 101.265 50.1467C101.265 50.1467 99.8055 50.1467 99.8055 49.7816ZM106.009 40.656H118.78L112.212 24.2297L106.009 40.656Z" fill="white"/>
<path d="M133.151 50.374C133.151 50.374 132.786 50.009 132.786 49.644V22.267C132.786 21.9019 132.786 21.9019 133.151 21.5369C133.151 21.5369 133.516 21.1719 133.881 21.1719H143.368C146.287 21.1719 148.842 21.9019 150.301 23.362C151.761 24.8221 152.855 26.6473 152.855 29.5675C152.855 31.7577 152.126 33.5828 151.396 34.6779C150.301 36.138 148.842 36.868 146.652 37.2331L153.22 48.5489V48.9139C153.22 48.9139 153.22 49.279 152.855 49.644C152.855 49.644 152.491 50.009 152.126 50.009H151.761C151.396 50.009 151.031 50.009 151.031 49.644C151.031 49.644 150.666 49.279 150.301 48.9139L144.098 37.9631H135.705V49.279C135.705 49.644 135.705 49.644 135.34 50.009C135.34 50.009 134.975 50.374 134.611 50.374H133.881C133.516 50.374 133.151 50.374 133.151 50.374ZM143.003 35.773C145.557 35.773 147.017 35.4079 148.477 34.3128C149.571 33.2178 150.301 31.7577 150.301 29.9325C150.301 28.1074 149.571 26.6473 148.477 25.5522C147.382 24.4571 145.557 24.0921 143.003 24.0921H135.34V35.773H143.003Z" fill="white"/>
<path d="M165.262 50.374C165.262 50.374 164.897 50.009 164.897 49.644V23.7271H156.869C156.504 23.7271 156.504 23.7271 156.139 23.362C156.139 23.362 155.775 22.997 155.775 22.632V22.267C155.775 21.9019 155.775 21.9019 156.139 21.5369C156.139 21.5369 156.504 21.1719 156.869 21.1719H175.844C176.209 21.1719 176.574 21.1719 176.574 21.5369C176.574 21.5369 176.939 21.9019 176.939 22.267V22.997C176.939 23.362 176.939 23.362 176.574 23.7271C176.574 23.7271 176.209 24.0921 175.844 24.0921H167.816V49.644C167.816 50.009 167.816 50.009 167.451 50.374C167.451 50.374 167.086 50.7391 166.722 50.7391H165.992C165.992 50.374 165.627 50.374 165.262 50.374Z" fill="white"/>
<path d="M182.412 50.374C182.412 50.374 182.047 50.009 182.047 49.644V22.267C182.047 21.9019 182.047 21.9019 182.412 21.5369C182.412 21.5369 182.777 21.1719 183.142 21.1719H199.198C199.563 21.1719 199.928 21.1719 199.928 21.5369C199.928 21.5369 200.292 21.9019 200.292 22.267V22.997C200.292 23.362 200.292 23.362 199.928 23.7271C199.928 23.7271 199.563 24.0921 199.198 24.0921H184.602V34.6779H198.103C198.468 34.6779 198.833 34.6779 198.833 35.0429C198.833 35.0429 199.198 35.4079 199.198 35.773V36.503C199.198 36.868 199.198 36.868 198.833 37.2331C198.833 37.2331 198.468 37.5981 198.103 37.5981H184.602V48.5489H199.198C199.563 48.5489 199.928 48.5489 199.928 48.9139C199.928 48.9139 200.292 49.279 200.292 49.644C200.292 50.009 200.292 50.009 199.928 50.374C199.928 50.374 199.563 50.7391 199.198 50.7391H182.777C182.412 50.374 182.412 50.374 182.412 50.374Z" fill="white"/>
<path d="M206.131 46.7237C205.401 45.6286 204.671 44.1685 204.671 43.0734C204.671 43.0734 204.671 42.7084 205.036 42.3434C205.036 42.3434 205.401 41.9783 205.766 41.9783H206.496C206.861 41.9783 207.225 42.3433 207.225 42.7084C207.225 44.1685 207.955 45.2636 209.415 45.9936C210.874 47.0887 212.699 47.4537 214.888 47.4537C217.443 47.4537 219.632 47.0887 220.727 45.9936C222.186 45.2636 222.551 43.8035 222.551 41.9783C222.551 40.8832 222.186 40.1532 221.821 39.4231C221.092 38.6931 220.362 37.963 219.267 37.598C218.172 37.233 216.348 36.5029 213.794 35.7729C211.604 35.0428 210.145 34.3128 208.685 33.5827C207.59 32.8526 206.496 32.1226 206.131 31.0275C205.401 30.2975 205.401 28.8373 205.401 27.3772C205.401 25.9171 205.766 24.822 206.496 23.3619C207.225 22.2669 208.32 21.1718 209.78 20.8068C211.239 20.0767 213.064 19.7117 214.888 19.7117C216.713 19.7117 218.902 20.0767 219.997 20.8068C221.456 21.5368 222.551 22.2669 223.281 23.727C224.011 24.822 224.376 25.9171 224.376 27.0122C224.376 27.0122 224.376 27.3772 224.011 27.7423C224.011 27.7423 223.646 28.1073 223.281 28.1073H222.551C222.551 28.1073 222.186 28.1073 221.821 28.1073C221.821 28.1073 221.456 27.7423 221.456 27.3772C221.456 25.9171 220.727 24.822 219.267 24.092C217.808 23.3619 216.348 22.6319 214.523 22.6319C212.334 22.6319 210.51 22.9969 209.415 23.727C208.32 24.457 207.59 25.9171 207.59 27.3772C207.59 28.4723 207.955 29.2024 208.32 29.9324C209.05 30.6625 209.78 31.3925 210.874 31.7576C211.969 32.1226 213.794 32.8526 215.983 33.5827C218.172 34.3128 219.997 35.0428 221.456 35.7729C222.916 36.5029 223.646 37.233 224.376 38.3281C225.105 39.0581 225.47 40.5182 225.47 41.9783C225.47 44.5335 224.741 46.3586 222.551 47.8188C220.727 49.2789 218.172 50.0089 214.888 50.0089C212.699 50.3739 207.225 48.1838 206.131 46.7237Z" fill="white"/>
<path d="M231.674 50.374C231.674 50.374 231.309 50.009 231.309 49.644V22.267C231.309 21.9019 231.309 21.9019 231.674 21.5369C231.674 21.5369 232.038 21.1719 232.403 21.1719H233.133C233.498 21.1719 233.498 21.1719 233.863 21.5369C233.863 21.5369 234.228 21.9019 234.228 22.267V49.644C234.228 50.009 234.228 50.009 233.863 50.374C233.863 50.374 233.498 50.7391 233.133 50.7391H232.403C232.038 50.374 232.038 50.374 231.674 50.374Z" fill="white"/>
<path d="M265.353 48.6108C264.988 48.2457 264.988 48.2457 264.988 47.8807V38.755H255.866C255.501 38.755 255.501 38.755 255.136 38.39C254.771 38.025 254.771 38.025 254.771 37.6599V36.1998C254.771 35.8348 254.771 35.8348 255.136 35.4698C255.501 35.1048 255.501 35.1047 255.866 35.1047H264.988V26.3441C264.988 25.9791 264.988 25.614 265.353 25.614C265.353 25.249 265.718 25.249 266.083 25.249H267.542C267.907 25.249 268.272 25.249 268.272 25.614C268.272 25.614 268.637 25.9791 268.637 26.3441V35.4698H277.76C278.124 35.4698 278.124 35.4698 278.489 35.8348C278.854 36.1998 278.854 36.1998 278.854 36.5649V38.025C278.854 38.39 278.854 38.39 278.489 38.755C278.124 39.12 278.124 39.12 277.76 39.12H268.637V48.2457C268.637 48.6108 268.637 48.6108 268.272 48.9758C267.907 49.3408 267.907 49.3408 267.542 49.3408H266.083C265.718 48.9758 265.353 48.6108 265.353 48.6108Z" fill="white"/>
<path d="M313.52 36.5651L313.155 36.2C312.79 35.835 312.425 36.2 312.425 36.5651V42.7705C312.425 43.1355 312.79 43.1355 312.79 43.1355H318.993C319.358 43.1355 319.723 42.4055 319.358 42.4055C318.993 42.0405 318.993 42.0405 319.358 41.6754L325.926 35.1049C326.291 34.7399 326.291 34.7399 325.926 34.3749L325.196 33.6448C324.832 33.2798 325.196 32.9148 325.561 32.9148H331.765C332.13 32.9148 332.13 33.2798 332.13 33.2798V39.4853C332.13 39.8503 331.4 40.2153 331.4 39.8503L331.035 39.4853C330.67 39.1202 330.67 39.1202 330.305 39.4853L319.358 50.4361C318.993 50.8011 318.993 50.8011 318.628 50.4361L305.127 36.9301C304.762 36.5651 304.762 36.5651 305.127 36.2L324.102 17.2186C324.467 16.8536 324.467 16.8536 324.102 16.4886L319.723 12.1082C319.358 11.7432 319.358 11.7432 318.993 12.1082L294.545 36.5651C294.18 36.9301 294.18 36.9301 294.545 37.2951L318.993 61.7519C319.358 62.1169 319.358 62.1169 319.723 61.7519L344.171 37.2951C344.536 36.9301 344.536 36.9301 344.171 36.5651L329.94 22.329C329.575 21.964 329.575 21.964 329.21 22.329L314.979 36.5651C313.885 36.9301 313.52 36.9301 313.52 36.5651Z" fill="white"/>
<path d="M427.368 43.1354C426.638 43.1354 426.273 43.5004 425.544 43.8654C425.179 44.2305 424.814 44.9605 424.814 45.6906C424.814 46.7857 425.179 47.5157 426.273 47.8807C427.368 48.2458 428.098 47.8808 428.828 47.1507C429.193 46.7857 429.558 46.0556 429.558 45.3256C429.558 44.5955 429.193 44.2305 428.828 43.5004C428.828 43.1354 428.098 43.1354 427.368 43.1354ZM389.419 25.2491H387.594C386.864 25.2491 386.135 25.9791 386.135 26.7092V27.8043C384.31 25.9791 382.121 24.884 379.931 24.884C377.377 24.884 374.823 25.9791 372.998 27.8043C371.174 29.9944 370.444 32.5496 370.444 35.4698C370.444 38.39 371.174 41.3103 372.998 43.1354C374.823 45.3256 377.012 46.0556 379.931 46.0556C382.121 46.0556 384.31 45.3256 386.135 43.5004V45.3256C386.135 46.4206 386.864 47.1507 387.959 47.1507H390.878V26.7092C391.243 25.6141 390.513 25.2491 389.419 25.2491ZM385.04 39.8502C383.945 40.9452 382.486 41.6753 380.661 41.6753C379.201 41.6753 377.742 40.9452 376.647 39.8502C375.552 38.7551 375.188 36.9299 375.188 35.1048C375.188 33.2797 375.552 31.8196 376.647 30.3594C377.742 29.2644 379.201 28.5343 380.661 28.5343C382.486 28.5343 383.58 29.2644 384.675 30.3594C385.77 31.4545 386.135 33.2797 386.135 35.1048C386.499 37.295 386.135 38.7551 385.04 39.8502ZM370.444 28.5343V26.3441C370.444 25.6141 369.714 24.884 368.984 24.884H367.16C366.43 24.884 365.7 25.6141 365.7 26.3441V27.0742C363.876 25.2491 362.051 24.154 359.497 24.154C356.578 24.154 354.388 25.2491 352.564 27.4392C350.739 29.6294 350.01 32.1846 350.01 35.1048C350.01 38.025 350.739 40.5802 352.564 42.7704C354.388 44.9605 356.578 45.6906 359.497 45.6906C362.051 45.6906 364.241 44.5955 366.065 42.7704V45.6906C366.065 50.0709 364.241 51.896 360.956 51.896C359.132 51.896 357.672 51.166 356.578 50.0709C356.213 49.7059 356.213 49.3409 355.848 48.9758C355.483 48.2458 355.118 47.8807 354.388 47.8807H352.564C351.834 47.8807 351.104 48.6108 351.104 49.7059C351.469 51.531 352.564 52.9911 354.023 54.0862C355.848 55.5463 358.037 56.2764 360.592 56.2764C363.876 56.2764 366.43 55.1813 368.254 52.9911C369.349 51.896 369.714 50.4359 370.079 48.9758C370.079 48.2458 370.444 47.8808 370.444 47.1507C370.444 46.4206 370.444 45.6906 370.444 44.5955V41.6753C368.984 39.8502 368.619 37.66 368.619 34.7398C368.619 32.5496 368.984 30.3594 370.444 28.5343ZM364.605 39.8502C363.511 41.3103 362.051 41.6753 360.227 41.6753C358.402 41.6753 356.943 40.9452 355.848 39.8502C354.753 38.7551 354.388 37.295 354.388 35.4698C354.388 33.6447 354.753 32.1846 355.848 30.7245C356.943 29.2644 358.402 28.8993 360.227 28.8993C362.051 28.8993 363.146 29.6294 364.241 30.7245C365.335 31.8196 365.7 33.6447 365.7 35.4698C366.065 37.295 365.335 38.7551 364.605 39.8502ZM409.488 25.2491H399.636V19.0436C399.636 18.3135 398.906 17.5835 398.176 17.5835H396.352C395.622 17.5835 394.892 18.3135 394.892 19.0436V24.884H393.068V29.2644H394.892V46.7857H397.446C398.541 46.7857 399.636 46.0556 399.636 44.5955V29.2644H404.379C404.744 28.5343 405.109 27.8043 405.839 27.0742C406.934 26.3441 408.028 25.6141 409.488 25.2491ZM433.571 17.5835C432.842 17.5835 432.112 17.9485 431.382 18.3135C430.652 19.0436 430.287 19.7737 430.287 20.8687C430.287 21.5988 430.652 22.3288 431.017 23.0589C431.747 23.789 432.477 23.789 433.207 23.789C433.936 23.789 434.666 23.4239 435.396 23.0589C436.126 22.3288 436.126 21.5988 436.126 20.8687C436.126 20.1387 435.761 19.4086 435.396 18.6786C435.031 17.9485 434.301 17.5835 433.571 17.5835ZM434.301 27.4392H432.477C431.747 27.4392 431.017 28.1693 431.017 28.8993V43.8654C431.382 44.2305 431.382 44.9605 431.382 45.3256C431.382 46.0556 431.382 46.4206 431.017 46.7857V47.5157H433.936C435.031 47.5157 435.761 46.7857 435.761 45.6906V28.5343C435.761 28.1693 435.031 27.4392 434.301 27.4392ZM456.56 30.3594C454.371 28.1693 451.816 27.0742 448.897 27.0742C445.978 27.0742 443.424 28.1693 441.234 29.9944C439.045 32.1846 437.95 34.3747 437.95 37.66C437.95 40.9452 439.045 43.5004 440.869 45.3256C443.059 47.5157 445.613 48.6108 448.532 48.6108C451.451 48.6108 454.371 47.5157 456.195 45.6906C458.385 43.5004 459.479 40.9452 459.479 38.025C459.479 34.7398 458.385 32.1846 456.56 30.3594ZM452.911 42.7704C451.816 43.8654 450.357 44.5955 448.532 44.5955C446.708 44.5955 445.248 43.8654 444.153 42.7704C443.059 41.6753 442.694 39.8502 442.694 38.025C442.694 36.1999 443.424 34.7398 444.518 33.2797C445.613 32.1846 447.073 31.4545 448.897 31.4545C450.722 31.4545 452.181 32.1846 453.276 33.2797C454.371 34.3747 455.1 36.1999 455.1 38.025C454.736 39.8502 454.006 41.3103 452.911 42.7704Z" fill="white"/>
<path d="M411.313 41.675C410.218 40.5799 409.853 39.4848 409.853 37.6597H422.989C423.719 37.6597 424.084 37.2946 424.084 36.5646C424.084 33.2793 423.354 30.7242 421.53 28.534C419.705 26.7089 417.516 25.6138 414.597 25.6138C411.677 25.6138 409.123 26.7089 407.299 28.534C405.474 31.0892 404.744 33.6444 404.744 36.9296C404.744 40.2149 405.839 42.77 407.664 44.5952C409.123 46.0553 410.583 46.7853 412.407 47.1504C413.137 47.5154 413.867 47.5154 414.961 47.5154C418.246 47.5154 421.165 47.5154 424.449 47.8804V47.5154C424.084 47.1504 423.719 46.4203 423.719 46.0553C423.719 45.3252 424.084 44.9602 424.449 44.5952V43.8651C421.895 43.8651 415.326 43.8651 415.326 43.8651C413.502 43.1351 412.042 42.7701 411.313 41.675ZM410.583 32.5493C410.948 32.1843 411.313 31.8192 411.677 31.4542C412.042 31.0892 412.407 30.7242 413.137 30.7242C413.502 30.7242 414.232 30.3591 414.597 30.3591C417.151 30.3591 418.61 31.4542 419.34 34.0094H409.853C409.853 33.2793 410.218 32.9143 410.583 32.5493Z" fill="white"/>
</svg>
