<svg xmlns="http://www.w3.org/2000/svg" width="67" height="61" class="hidden sr-only">
    <g viewBox="0 0 67 61" fill="none" xmlns="http://www.w3.org/2000/svg" id="ico-people">
    <path d="M61.545 48.41l-10.661-4.617c-.251-.126-.53-.432-.768-.841l7.118-.006c.124.012 3.059.28 5.412-.73a3.206 3.206 0 0 0 1.82-2.08 3.237 3.237 0 0 0-.464-2.753c-2.035-2.896-6.783-10.461-6.932-18.134-.003-.132-.433-13.182-13.32-13.288-1.897.016-3.651.337-5.247.93A9.07 9.07 0 0 0 36.88 4.21C34.64 1.652 31.004.356 26.072.356c-4.932 0-8.568 1.296-10.809 3.851-2.583 2.947-2.343 6.52-2.282 7.118v5.803a4.35 4.35 0 0 0-1.09 2.863v4.364c0 1.328.602 2.566 1.632 3.392 1 3.956 3.09 6.938 3.822 7.895v3.61a2.883 2.883 0 0 1-1.502 2.53L6.11 47.091a9.84 9.84 0 0 0-5.13 8.642v4.623h65.455v-4.033a8.798 8.798 0 0 0-4.89-7.912zm-12.564 9.764H3.163v-2.441a7.654 7.654 0 0 1 3.992-6.724l9.732-5.309a5.066 5.066 0 0 0 2.64-4.447v-4.385l-.255-.303c-.026-.032-2.7-3.266-3.72-7.707l-.099-.432-.372-.24a2.176 2.176 0 0 1-1.009-1.83v-4.363c0-.612.26-1.183.731-1.61l.36-.323v-6.795l-.01-.143c-.003-.03-.374-3.053 1.751-5.477 1.808-2.062 4.893-3.107 9.168-3.107 4.26 0 7.339 1.037 9.148 3.085.9 1.017 1.353 2.152 1.579 3.128l.05.227.043.229a13.77 13.77 0 0 1 .062.419 8.049 8.049 0 0 1 .058 1.054v.032c-.005.257-.022.41-.022.413l-.009 6.934.36.326c.471.425.731.996.731 1.608v4.363a2.17 2.17 0 0 1-1.551 2.072l-.544.167-.174.54a22.838 22.838 0 0 1-3.092 6.232c-.324.46-.639.866-.913 1.177l-.271.31v4.5c0 .276.027.547.07.813.008.056.023.111.034.168a5.115 5.115 0 0 0 .222.788c.085.229.184.449.3.66l.038.074c.158.279.34.544.55.788l.248.307h.043c.374.369.804.69 1.293.934l10.421 5.21a7.614 7.614 0 0 1 4.235 6.85v2.228zm15.273 0H51.163v-2.228a9.787 9.787 0 0 0-5.44-8.802l-7.48-3.742c.184-.42.208-.903.046-1.368a1.86 1.86 0 0 0-1.778-1.265h-2.419c-.05-.088-.082-.185-.123-.28-.054-.125-.119-.248-.155-.38a2.845 2.845 0 0 1-.106-.755v-3.688c.25-.306.513-.654.785-1.038a24.97 24.97 0 0 0 3.222-6.326 4.329 4.329 0 0 0 2.539-3.946v-4.363a4.35 4.35 0 0 0-1.091-2.864v-5.803a9.573 9.573 0 0 0-.092-2.333c1.406-.552 2.98-.837 4.68-.851 10.736.088 11.128 10.703 11.139 11.15.16 8.273 5.177 16.284 7.327 19.344.184.262.24.591.152.902a1.02 1.02 0 0 1-.584.671c-1.832.789-4.319.565-4.446.56h-7.51a2 2 0 0 0-1.71.953 1.988 1.988 0 0 0-.093 1.945c.341.689.944 1.608 1.936 2.103l10.633 4.605a6.627 6.627 0 0 1 3.659 5.948v1.851z"
      fill="#6A83A8"></path>
  </g>
</svg>