<svg xmlns="http://www.w3.org/2000/svg" width="41" height="39" class="hidden sr-only">
    <g viewBox="0 0 41 39" fill="none" xmlns="http://www.w3.org/2000/svg" id="ico-star">
    <path d="M39.399 17.243a2.827 2.827 0 0 0 .72-2.915 2.827 2.827 0 0 0-2.298-1.936l-9.603-1.396a1.254 1.254 0 0 1-.945-.687l-4.294-8.702A2.827 2.827 0 0 0 20.43.022c-1.09 0-2.069.607-2.55 1.585l-4.295 8.702a1.255 1.255 0 0 1-.946.687l-9.604 1.396a2.825 2.825 0 0 0-2.296 1.936 2.827 2.827 0 0 0 .72 2.915l6.948 6.773c.297.29.432.706.363 1.112l-1.64 9.565a2.826 2.826 0 0 0 1.13 2.781 2.82 2.82 0 0 0 2.996.217l8.589-4.516a1.257 1.257 0 0 1 1.169 0l8.59 4.516a2.833 2.833 0 0 0 2.996-.217 2.826 2.826 0 0 0 1.13-2.781l-1.641-9.564c-.07-.407.066-.823.362-1.112l6.949-6.774zm-8.876 8.154l1.64 9.564a1.23 1.23 0 0 1-.5 1.229 1.233 1.233 0 0 1-1.321.096l-8.59-4.517a2.855 2.855 0 0 0-2.648.001l-8.587 4.516a1.24 1.24 0 0 1-1.324-.096 1.234 1.234 0 0 1-.5-1.229l1.64-9.564a2.844 2.844 0 0 0-.817-2.517l-6.95-6.774a1.231 1.231 0 0 1-.317-1.287c.15-.466.53-.785 1.013-.856l9.603-1.395a2.84 2.84 0 0 0 2.142-1.556l4.294-8.702c.216-.439.638-.7 1.127-.7s.91.261 1.127.7l4.294 8.702a2.839 2.839 0 0 0 2.14 1.556l9.604 1.395c.484.07.863.39 1.014.856.15.464.032.945-.318 1.287l-6.948 6.773a2.843 2.843 0 0 0-.818 2.518z"
      fill="#6A83A8"></path>
  </g>
</svg>