<svg xmlns="http://www.w3.org/2000/svg" width="39" height="39" class="hidden sr-only">
    <g viewBox="0 0 39 39" fill="none" xmlns="http://www.w3.org/2000/svg" id="ico-key">
    <path d="M27.74.558c-5.987 0-10.858 4.871-10.858 10.857 0 2.23.677 4.303 1.834 6.029L.796 35.364a.678.678 0 1 0 .959.96l2.913-2.913 4.949 4.948a.676.676 0 0 0 .96 0 .678.678 0 0 0 0-.959l-4.95-4.949 2.434-2.433 3.592 3.591a.676.676 0 0 0 .96 0 .678.678 0 0 0 0-.959L9.02 29.058l2.434-2.433 4.949 4.949a.677.677 0 0 0 .96 0 .678.678 0 0 0 0-.96l-4.95-4.948 7.14-7.14c1.992 2.29 4.92 3.747 8.186 3.747 5.987 0 10.858-4.871 10.858-10.857 0-5.987-4.871-10.858-10.858-10.858zm0 20.358c-5.24 0-9.5-4.262-9.5-9.5 0-5.24 4.26-9.5 9.5-9.5 5.238 0 9.5 4.26 9.5 9.5 0 5.238-4.262 9.5-9.5 9.5z"
      fill="#6A83A8"
    >
    </path>
  </g>
</svg>