<svg xmlns="http://www.w3.org/2000/svg" width="163" height="161" class="hidden sr-only">
    <g viewBox="0 0 163 161" fill="none" xmlns="http://www.w3.org/2000/svg" id="ico-chat">
    <g clip-path="url(#clip0)" fill="#6A83A8" stroke="#DFE5EF" stroke-width=".5">
      <path d="M78.992 43.445c0-1.584 1.302-2.875 2.913-2.875 1.612 0 2.915 1.29 2.915 2.875 0 1.583-1.303 2.875-2.914 2.875-1.612 0-2.915-1.292-2.915-2.875zm-46.696 50c0 1.583-1.303 2.875-2.914 2.875-1.611 0-2.914-1.292-2.914-2.875 0-1.584 1.303-2.875 2.914-2.875 1.611 0 2.914 1.29 2.914 2.875z"></path>
      <path d="M53.557 53.149l.221-.011.017-.22C55.59 28.641 78.834 9.32 107.218 9.32c14.05 0 27.916 4.912 38.267 13.2 10.348 8.287 17.171 19.94 17.171 33.425 0 10.852-4.348 21.372-12.272 29.713l-.045.048-.016.064a19.097 19.097 0 0 0 5.152 18.143 2.848 2.848 0 0 1 .631 3.131 2.915 2.915 0 0 1-2.693 1.776c-8.959 0-17.594-3.471-24.009-9.585l-.109-.104-.143.048c-5.426 1.826-12.293 3.032-18.898 3.321l-.222.01-.017.221c-1.801 24.271-25.043 43.589-53.422 43.589-7.482 0-15.668-1.281-21.934-3.391l-.143-.048-.11.104c-6.414 6.114-15.049 9.585-24.008 9.585a2.914 2.914 0 0 1-2.693-1.776 2.847 2.847 0 0 1 .631-3.131 19.098 19.098 0 0 0 5.152-18.143l-.016-.064-.045-.048c-7.924-8.341-12.271-18.861-12.271-29.713 0-25.952 25.354-45.206 52.401-46.546zm-18.733 83.715v.001c5.735 2.253 14.277 3.705 21.769 3.705 26.27 0 47.711-18.301 47.711-40.875 0-23.452-22.352-40.875-47.711-40.875-26.846 0-49.61 18.672-49.61 40.875 0 9.62 3.984 18.962 11.205 26.308.335.34.58.758.711 1.214a24.742 24.742 0 0 1-1.91 18.414l-.26.492.54-.132c5.46-1.333 10.47-4.234 14.325-8.396a2.943 2.943 0 0 1 3.23-.731zm111.717-34.623l.54.132-.259-.492a24.735 24.735 0 0 1-1.91-18.413c.131-.456.376-.874.711-1.215 7.221-7.346 11.204-16.688 11.204-26.308 0-22.203-22.763-40.875-49.609-40.875-25.075 0-45.746 16.672-47.578 37.82l-.022.257.258.014c8.268.44 16.298 2.537 23.449 6.132l.053.027h51.051c1.612 0 2.914 1.29 2.914 2.875s-1.302 2.875-2.914 2.875H92.451l.55.444c10.155 8.207 16.086 19.253 17.005 30.997l.018.242.243-.012c6.673-.326 13.748-1.673 18.72-3.626a2.945 2.945 0 0 1 3.231.73c3.854 4.162 8.865 7.064 14.323 8.396z"></path>
      <path d="M42.038 90.57h39.868c1.612 0 2.914 1.29 2.914 2.875s-1.302 2.875-2.914 2.875H42.038c-1.612 0-2.914-1.29-2.914-2.875s1.302-2.875 2.914-2.875zm-12.656 18.75h52.523c1.613 0 2.915 1.289 2.915 2.875 0 1.585-1.302 2.875-2.914 2.875H29.382c-1.612 0-2.914-1.29-2.914-2.875 0-1.586 1.302-2.875 2.914-2.875zm65.18-68.75h39.867c1.612 0 2.914 1.29 2.914 2.875s-1.302 2.875-2.914 2.875H94.562c-1.613 0-2.914-1.29-2.914-2.875 0-1.586 1.301-2.875 2.914-2.875z"></path>
    </g>
    <defs>
      <clipPath id="clip0">
        <path fill="#fff" d="M.906.945h162v160h-162z"></path>
      </clipPath>
    </defs>
  </g>
</svg>