<svg xmlns="http://www.w3.org/2000/svg" width="39" height="39" class="hidden sr-only">
    <g viewBox="0 0 39 39" fill="none" xmlns="http://www.w3.org/2000/svg" id="ico-network">
    <path d="M34.451.85a4.15 4.15 0 0 0-4.145 4.146c0 .715.182 1.388.502 1.976l-6.791 6.791a5.487 5.487 0 0 0-6.768 0l-5.298-5.3c.243-.41.391-.883.391-1.394A2.766 2.766 0 0 0 9.58 4.305 2.766 2.766 0 0 0 6.815 7.07a2.766 2.766 0 0 0 2.764 2.763c.51 0 .983-.148 1.395-.391l5.298 5.298a5.495 5.495 0 0 0 0 6.768l-8.75 8.75a4.125 4.125 0 0 0-2.78-1.08 4.15 4.15 0 0 0-4.145 4.146 4.15 4.15 0 0 0 4.145 4.146 4.15 4.15 0 0 0 4.146-4.146c0-.715-.182-1.388-.502-1.976l8.864-8.863a5.494 5.494 0 0 0 2.693 1.118v7.02a4.148 4.148 0 0 0-3.455 4.083 4.15 4.15 0 0 0 4.146 4.146 4.15 4.15 0 0 0 4.145-4.146 4.15 4.15 0 0 0-3.454-4.083v-7.02a5.494 5.494 0 0 0 2.693-1.118l5.299 5.298a2.725 2.725 0 0 0-.393 1.396 2.766 2.766 0 0 0 2.764 2.764 2.766 2.766 0 0 0 2.763-2.764 2.766 2.766 0 0 0-2.763-2.764c-.512 0-.984.149-1.395.392l-5.299-5.299a5.495 5.495 0 0 0 0-6.767l6.678-6.678a4.122 4.122 0 0 0 2.78 1.08 4.15 4.15 0 0 0 4.145-4.146A4.15 4.15 0 0 0 34.45.851zM8.197 7.07c0-.762.62-1.382 1.382-1.382a1.383 1.383 0 0 1 0 2.764c-.762 0-1.382-.62-1.382-1.382zM4.742 36.087a2.766 2.766 0 0 1-2.763-2.764 2.766 2.766 0 0 1 2.763-2.763 2.766 2.766 0 0 1 2.764 2.763 2.766 2.766 0 0 1-2.764 2.764zm18.655-1.382a2.766 2.766 0 0 1-2.764 2.764 2.766 2.766 0 0 1-2.764-2.764 2.766 2.766 0 0 1 2.764-2.763 2.766 2.766 0 0 1 2.764 2.763zM20.633 22.27a4.15 4.15 0 0 1-4.145-4.146 4.15 4.15 0 0 1 4.145-4.145 4.15 4.15 0 0 1 4.146 4.145 4.15 4.15 0 0 1-4.146 4.146zm12.436 6.909c0 .762-.62 1.382-1.381 1.382-.762 0-1.382-.62-1.382-1.382 0-.762.62-1.382 1.382-1.382.762 0 1.381.62 1.381 1.382zM34.451 7.76a2.766 2.766 0 0 1-2.763-2.764 2.766 2.766 0 0 1 2.763-2.764 2.766 2.766 0 0 1 2.764 2.764 2.766 2.766 0 0 1-2.764 2.764z"
      fill="#6A83A8"></path>
  </g>
</svg>