<svg xmlns="http://www.w3.org/2000/svg" width="69" height="77" class="hidden sr-only">
    <g viewBox="0 0 69 77" fill="none" xmlns="http://www.w3.org/2000/svg" id="ico-hand">
    <path d="M6.39 50.742a1.613 1.613 0 1 0 .001 3.225 1.613 1.613 0 0 0-.001-3.225z" fill="#6A83A8"></path>
    <path d="M61.656 55.187l.002-.001c2.35-.843 4.944.08 6.046 2.12l.166-.09-.166.09c1.51 2.794.207 5.957-2.43 7.027l-.005.002-24.778 10.91-.002.001a16.728 16.728 0 0 1-15.525-.886l-6.942-4.166c-1.128-.676-2.899-1.125-4.413-1.313l-.155-.02-.056.146a3.79 3.79 0 0 1-3.53 2.427H1.903a1.127 1.127 0 0 1-1.128-1.127V46.412c0-.623.505-1.128 1.128-1.128h7.965a3.788 3.788 0 0 1 3.565 2.522l.048.133h9.552a9.1 9.1 0 0 1 4.459 1.169l7.013 3.945c.23.129.488.196.75.196h8.597a5.116 5.116 0 0 1 5.11 5.11c0 .306-.03.608-.083.906l-.06.335.322-.11 12.515-4.303zm-50.26 12.472V49.067a1.53 1.53 0 0 0-1.528-1.528H3.03V69.18h6.838a1.53 1.53 0 0 0 1.527-1.52zM64.41 62.25l.005-.002c1.453-.581 2.152-2.303 1.305-3.87-.583-1.08-2.042-1.523-3.305-1.068l-8.07 2.775-5.548 1.907-1.828.628-.512.176-.135.046-.035.012-.008.003-.002.001h-.001l.065.19-.065-.19-.015.005-.014.008a5.1 5.1 0 0 1-2.395.598H30.357a1.127 1.127 0 1 1 0-2.254h13.495a2.862 2.862 0 0 0 2.855-2.856 2.858 2.858 0 0 0-2.855-2.855h-8.596c-.65 0-1.292-.168-1.856-.486l-7.014-3.945a6.842 6.842 0 0 0-3.353-.879H13.65v16.42l.176.021c1.806.216 3.903.755 5.355 1.626l6.943 4.166a14.468 14.468 0 0 0 13.437.763l.278-.122.788-.347 2.812-1.238 8.532-3.757 8.53-3.756 2.811-1.238.788-.346.207-.092.053-.023.014-.006.002-.001a2.127 2.127 0 0 0 .033-.014z"
      fill="#6A83A8" stroke="#DFE5EF" stroke-width=".4"></path>
    <path d="M27.009 16.594l13.347-14.65 5.496 14.69m-.186 20.896l-7.798 8.523L32.37 31.35" stroke="#6A83A8" stroke-width="2" stroke-miterlimit="10" stroke-linecap="round" stroke-linejoin="round"></path>
    <path d="M51.334 31.35l-5.669 6.18" stroke="#6A83A8" stroke-width="2" stroke-miterlimit="10"></path>
    <path d="M45.825 16.634h9.582l5.496 14.716H41.926L36.43 16.634H17.454L22.95 31.35h9.421" stroke="#6A83A8" stroke-width="2" stroke-miterlimit="10" stroke-linecap="round" stroke-linejoin="round"></path>
    <path d="M45.839 16.634L32.358 31.35" stroke="#6A83A8" stroke-width="2" stroke-miterlimit="10"></path>
  </g>
</svg>
