<svg xmlns="http://www.w3.org/2000/svg" width="44" height="39" class="hidden sr-only">
    <g viewBox="0 0 44 39" fill="none" xmlns="http://www.w3.org/2000/svg" id="ico-megaphone">
    <path d="M39.342.977a3.73 3.73 0 0 0-3.726 3.726v1.69L6.531 15.615a2.974 2.974 0 0 0-2.954-2.716 2.983 2.983 0 0 0-2.98 2.98v8.196a2.983 2.983 0 0 0 2.98 2.98 2.974 2.974 0 0 0 2.954-2.715l2.51.796a2.943 2.943 0 0 0-.849 1.283 2.962 2.962 0 0 0 .184 2.273 2.95 2.95 0 0 0 1.733 1.48l10.632 3.445a2.963 2.963 0 0 0 2.272-.183 2.956 2.956 0 0 0 1.528-3.383l11.075 3.51v1.69a3.73 3.73 0 0 0 3.726 3.726 3.73 3.73 0 0 0 3.725-3.725V4.702A3.73 3.73 0 0 0 39.342.978zM23.078 31.24a1.48 1.48 0 0 1-.741.866c-.356.182-.76.214-1.135.093l-10.634-3.444a1.477 1.477 0 0 1-.865-.742 1.476 1.476 0 0 1-.093-1.135 1.493 1.493 0 0 1 1.876-.959l10.634 3.445a1.491 1.491 0 0 1 .958 1.876zm-18.01-7.165a1.491 1.491 0 0 1-2.981 0V15.88a1.491 1.491 0 0 1 2.98 0v8.196zm1.49-1.29V17.17l29.058-9.214V32L6.558 22.785zm35.02 12.467a2.238 2.238 0 0 1-2.236 2.235 2.238 2.238 0 0 1-2.235-2.235V4.702a2.238 2.238 0 0 1 2.235-2.235 2.238 2.238 0 0 1 2.235 2.236v30.549z"
      fill="#6A83A8"></path>
  </g>
</svg>