<svg xmlns="http://www.w3.org/2000/svg" width="81" height="81" class="hidden sr-only">
    <g viewBox="0 0 81 81" fill="none" xmlns="http://www.w3.org/2000/svg" id="ico-magnetic">
    <g clip-path="url(#clip0)" fill="#6A83A8" stroke="#DFE5EF" stroke-width=".5">
      <path d="M22.117 12.944v.25h1.229a3.75 3.75 0 0 1 3.719 4.216l-.812 6.501a2.417 2.417 0 0 1-2.396 2.117H7.7a1.083 1.083 0 0 1-1.084-1.083V14.278c0-.598.485-1.084 1.084-1.084h5.33c.156.003.31.04.45.109l.091.044.097-.032a2.38 2.38 0 0 1 .703-.12l.245-.005v-1.58a3.75 3.75 0 0 1 7.5 0v1.333zM9.034 15.361h-.25v8.5h3.167v-8.5H9.034zm5.333 0h-.25v8.5h9.96l.028-.219.813-6.501a1.583 1.583 0 0 0-.384-1.245 1.587 1.587 0 0 0-1.188-.535h-2.312a1.083 1.083 0 0 1-1.083-1.083V11.61a1.583 1.583 0 0 0-3.167 0v2.667c0 .598-.485 1.083-1.083 1.083h-1.334zm54.417 1.584v.25h1.228a3.748 3.748 0 0 1 3.72 4.215l-.813 6.5a2.417 2.417 0 0 1-2.396 2.118H54.367a1.083 1.083 0 0 1-1.083-1.083V18.278c0-.598.485-1.083 1.083-1.083h5.331c.156.003.31.04.449.108l.092.044.097-.032a2.38 2.38 0 0 1 .703-.12l.245-.005v-1.58a3.75 3.75 0 0 1 7.5 0v1.334zM55.701 19.36h-.25v8.5h3.166v-8.5h-2.916zm14.823 8.5h.22l.028-.219.813-6.501a1.583 1.583 0 0 0-.384-1.245 1.587 1.587 0 0 0-1.188-.535H67.7a1.083 1.083 0 0 1-1.084-1.083V15.61a1.583 1.583 0 0 0-3.166 0v2.667c0 .598-.485 1.083-1.084 1.083h-1.583v8.5h9.74zM46.117 6.278v.25h1.229a3.75 3.75 0 0 1 3.719 4.215l-.812 6.501a2.417 2.417 0 0 1-2.396 2.117H31.7a1.083 1.083 0 0 1-1.084-1.083V7.61c0-.598.485-1.083 1.084-1.083h5.33c.156.003.31.04.45.108l.091.045.097-.032a2.38 2.38 0 0 1 .703-.121l.245-.005V4.945a3.75 3.75 0 0 1 7.5 0v1.333zm2.417 2.952a1.587 1.587 0 0 0-1.188-.535h-2.312a1.083 1.083 0 0 1-1.083-1.084V4.945a1.583 1.583 0 0 0-3.167 0V7.61c0 .599-.485 1.084-1.083 1.084h-1.584v8.5h9.96l.028-.22.813-6.5a1.583 1.583 0 0 0-.384-1.245zm-15.5-.535h-.25v8.5h3.167v-8.5h-2.917zM25.43 31.07c.122-.16.204-.346.237-.542h2.178a3.314 3.314 0 0 1-.541 1.628 1.358 1.358 0 0 0-.001 1.578c.73 1.145.73 2.609.002 3.754a1.226 1.226 0 0 0-.237.54H24.89c.034-.579.22-1.14.54-1.627a1.353 1.353 0 0 0 .002-1.575 3.5 3.5 0 0 1-.003-3.756zm14.668-5.784a2.72 2.72 0 0 0 .515-1.425h2.17a4.832 4.832 0 0 1-.813 2.521 2.964 2.964 0 0 0-.002 3.345 5.115 5.115 0 0 1 .002 5.54 2.734 2.734 0 0 0-.515 1.427h-2.169c.032-.897.312-1.77.813-2.519a2.97 2.97 0 0 0 0-3.353 5.11 5.11 0 0 1-.001-5.536zm17.854 12.671l-2.258.063a2.56 2.56 0 0 1 .408-1.171c.034-.05.064-.104.09-.16l.024-.05v-.265l-.023-.05a1.093 1.093 0 0 0-.09-.156 2.692 2.692 0 0 1 .017-2.901l2.254-.065a2.566 2.566 0 0 1-.409 1.174 1.129 1.129 0 0 0-.092.171l-.021.048v.263l.023.05a1.1 1.1 0 0 0 .09.156 2.692 2.692 0 0 1 0 2.874.086.086 0 0 0-.013.02zm-3.585 5.404h-.25v4.5h4.5v-4.5h-4.25zm-30.666 0h-.25v4.5h4.5v-4.5H23.7zm-.25 17.584c.01 9.706 7.877 17.572 17.583 17.583 9.706-.011 17.572-7.877 17.583-17.583V50.028h-4.5v10.917c0 7.225-5.857 13.083-13.083 13.083S27.951 68.17 27.951 60.945V50.028h-4.5v10.917zm29.583-19.75h6.667c.598 0 1.083.485 1.083 1.083v18.667c0 10.907-8.843 19.75-19.75 19.75s-19.75-8.843-19.75-19.75V42.278c0-.598.485-1.083 1.083-1.083h6.667c.598 0 1.083.485 1.083 1.083v18.667c0 6.029 4.888 10.916 10.917 10.916 6.03 0 10.917-4.887 10.917-10.916V42.278c0-.598.485-1.083 1.083-1.083z"></path>
    </g>
    <defs>
      <clipPath id="clip0">
        <path fill="#fff" d="M.201.945h80v80h-80z"></path>
      </clipPath>
    </defs>
  </g>
</svg>