<svg xmlns="http://www.w3.org/2000/svg" width="40" height="40" class="hidden sr-only">
    <g viewBox="0 0 40 40" fill="none" id="ico-position">
    <g clip-path="url(#clip0)">
      <path d="M26.54 17.525L39.107 6.5a.67.67 0 0 0 .192-.29l.084-.25c.395-.498.617-1.045.617-1.628 0-.068-.014-.133-.02-.2a.666.666 0 0 0-.083-.449C39.283 1.544 35.67 0 31 0c-4.63 0-8.223 1.52-8.882 3.631-.005.007-.013.01-.018.016L20 7.021l-2.1-3.374c-.005-.006-.014-.009-.018-.016C17.223 1.52 13.631 0 9 0 3.87 0 0 1.863 0 4.333c0 .583.222 1.13.617 1.628l.084.25a.67.67 0 0 0 .192.29L13.46 17.525.1 38.98a.667.667 0 0 0 1.007.854L20 23.26l18.893 16.574a.669.669 0 0 0 .872.007.667.667 0 0 0 .134-.86L26.54 17.524zM31 1.333c4.317 0 7.377 1.444 7.64 2.81a.57.57 0 0 0 .008.052c.006.046.019.092.019.138 0 .27-.116.546-.332.816-.015.015-.035.024-.05.041-.456.533-1.336 1.07-2.572 1.471l-.002.001c-.145.047-.296.092-.45.135l-.18.047a11.177 11.177 0 0 1-.951.215c-.041.008-.085.014-.127.021-.18.031-.363.061-.551.087l-.176.023c-.175.023-.354.043-.536.06l-.204.019c-.183.015-.37.027-.56.037-.067.003-.131.008-.199.01-.254.01-.512.017-.777.017-4.518 0-7.667-1.58-7.667-3 0-1.419 3.149-3 7.667-3zm-22 0c4.518 0 7.667 1.581 7.667 3 0 1.42-3.149 3-7.667 3-.265 0-.523-.006-.778-.016l-.198-.011a18.553 18.553 0 0 1-.765-.056 16.03 16.03 0 0 1-.536-.06l-.176-.023a14.47 14.47 0 0 1-.551-.087l-.127-.021a13.18 13.18 0 0 1-.6-.126c-.12-.028-.235-.058-.351-.089a10.973 10.973 0 0 1-.63-.182h-.002c-1.235-.403-2.115-.939-2.571-1.472-.015-.017-.035-.026-.051-.041-.215-.27-.33-.546-.33-.816 0-1.419 3.148-3 7.666-3zM4.863 8.21a17.02 17.02 0 0 0 2.944.419c.043.003.085.007.128.009.349.018.703.03 1.065.03.294 0 .583-.008.869-.02.09-.004.178-.01.268-.015a17.993 17.993 0 0 0 1.422-.133c.087-.012.175-.022.262-.035.22-.033.435-.07.646-.11l.12-.021c.247-.049.487-.104.722-.163.07-.017.136-.037.204-.055.164-.044.326-.09.484-.139l.233-.075c.145-.048.285-.098.423-.151.072-.027.144-.054.214-.082.153-.062.3-.127.444-.193l.136-.062c.182-.088.356-.18.521-.277.045-.026.085-.054.129-.08a6.77 6.77 0 0 0 .342-.223 5.88 5.88 0 0 0 .42-.331 4.244 4.244 0 0 0 .38-.372c.03-.034.064-.067.093-.101.096-.115.184-.232.26-.352l1.622 2.605-2.263 3.635-2.777 4.46-9.31-8.168zm10.028 9.54l5.676-9.114 1.841-2.958c.076.12.164.238.26.352.029.035.063.068.093.102.076.084.156.168.243.25a5.16 5.16 0 0 0 .403.338c.052.038.102.077.155.114.108.076.223.15.34.222.045.027.085.056.13.082.165.096.34.188.521.276.045.022.094.042.139.063.143.067.289.13.44.192l.217.083a9.656 9.656 0 0 0 .656.226c.156.048.317.094.48.137.069.019.137.039.208.056.234.059.473.113.72.162l.123.022c.21.04.425.077.643.11l.264.035a17.099 17.099 0 0 0 1.42.132c.09.005.178.012.269.015a19.499 19.499 0 0 0 1.933-.009l.127-.008a17.075 17.075 0 0 0 2.944-.419l-9.9 8.685h-.001l-5.675 4.978v.001L3.613 35.861 14.891 17.75zm6.12 4.626l4.513-3.959 10.862 17.445-15.375-13.486z"
        fill="#6A83A8"></path>
    </g>
    <defs>
      <clipPath id="clip0">
        <path fill="#fff" d="M0 0h40v40H0z"></path>
      </clipPath>
    </defs>
  </g>
</svg>