<svg xmlns="http://www.w3.org/2000/svg" width="57" height="61" class="hidden sr-only">
    <g viewBox="0 0 57 61" fill="none" xmlns="http://www.w3.org/2000/svg" id="ico-share">
        <path d="M38.686 43.291a10.316 10.316 0 0 0-1.389 1.738L19.723 34.362c.465-1.164.728-2.429.728-3.756a10.12 10.12 0 0 0-.727-3.756l17.579-10.587c1.805 2.836 4.97 4.726 8.574 4.726 5.608 0 10.17-4.563 10.17-10.17 0-5.609-4.562-10.171-10.17-10.171s-10.17 4.562-10.17 10.17c0 1.278.247 2.496.678 3.623l-17.602 10.6c-1.818-2.77-4.949-4.606-8.503-4.606-5.608 0-10.17 4.563-10.17 10.17 0 5.609 4.562 10.171 10.17 10.171 3.555 0 6.684-1.836 8.502-4.606l17.6 10.682a10.155 10.155 0 0 0-.676 3.63c0 2.717 1.058 5.272 2.979 7.192a10.14 10.14 0 0 0 7.191 2.974c2.605 0 5.21-.992 7.192-2.974a10.103 10.103 0 0 0 2.979-7.191 10.1 10.1 0 0 0-2.98-7.192c-3.965-3.966-10.416-3.966-14.381 0zm7.191-40.609c4.486 0 8.136 3.65 8.136 8.136 0 4.486-3.65 8.137-8.136 8.137-4.486 0-8.136-3.65-8.136-8.137 0-4.486 3.65-8.136 8.136-8.136zm-35.596 36.06c-4.486 0-8.136-3.65-8.136-8.136 0-4.486 3.65-8.137 8.136-8.137 4.486 0 8.136 3.65 8.136 8.137 0 4.486-3.65 8.136-8.136 8.136zM51.63 56.236c-3.173 3.172-8.334 3.172-11.506 0a8.085 8.085 0 0 1-2.383-5.753c0-2.173.846-4.217 2.383-5.754a8.109 8.109 0 0 1 5.753-2.379 8.11 8.11 0 0 1 5.754 2.38 8.085 8.085 0 0 1 2.383 5.753 8.082 8.082 0 0 1-2.384 5.753z"
            fill="#6A83A8"
        >
        </path>
    </g>
</svg>