<svg xmlns="http://www.w3.org/2000/svg" width="40" height="39" class="hidden sr-only">
    <g viewBox="0 0 40 39" fill="none" xmlns="http://www.w3.org/2000/svg" id="ico-calander">
    <path d="M29.196 2.936A3.339 3.339 0 0 0 25.93.27a.666.666 0 1 0 0 1.333c1.103 0 2 .897 2 2s-.897 2-2 2a.666.666 0 1 0 0 1.333 3.34 3.34 0 0 0 3.266-2.666h8.734v6h-36v-6h11.334a.666.666 0 1 0 0-1.334h-1.211a1.996 1.996 0 0 1 1.877-1.333c1.103 0 2 .897 2 2s-.897 2-2 2a.666.666 0 1 0 0 1.333 3.337 3.337 0 0 0 3.334-3.333A3.337 3.337 0 0 0 13.93.27a3.34 3.34 0 0 0-3.266 2.666H.597V38.27h38.666V2.935H29.196zm8.734 34h-36V11.603h36v25.333z"
      fill="#6A83A8"></path>
    <path d="M17.93 1.603c1.103 0 2 .897 2 2s-.897 2-2 2a.666.666 0 1 0 0 1.333 3.337 3.337 0 0 0 3.334-3.333A3.337 3.337 0 0 0 17.93.27a.666.666 0 1 0 0 1.333z" fill="#6A83A8"></path>
    <path d="M21.93 1.603c1.103 0 2 .897 2 2s-.897 2-2 2a.666.666 0 1 0 0 1.333 3.337 3.337 0 0 0 3.334-3.333A3.337 3.337 0 0 0 21.93.27a.666.666 0 1 0 0 1.333zm-6.666 15.333a.667.667 0 1 0 0-1.333.667.667 0 0 0 0 1.333zm4.666 0a.667.667 0 1 0 0-1.333.667.667 0 0 0 0 1.333zm4.667 0a.667.667 0 1 0 0-1.333.667.667 0 0 0 0 1.333zm4.667 0a.667.667 0 1 0 0-1.333.667.667 0 0 0 0 1.333zm4.666 0a.667.667 0 1 0 0-1.333.667.667 0 0 0 0 1.333zm-28 5.334a.667.667 0 1 0 0-1.334.667.667 0 0 0 0 1.334zm4.667 0a.667.667 0 1 0 0-1.334.667.667 0 0 0 0 1.334zm4.667 0a.667.667 0 1 0 0-1.334.667.667 0 0 0 0 1.334zm4.666 0a.667.667 0 1 0 0-1.334.667.667 0 0 0 0 1.334zm4.667 0a.667.667 0 1 0 0-1.334.667.667 0 0 0 0 1.334zm4.667 0a.667.667 0 1 0 0-1.334.667.667 0 0 0 0 1.334zm4.666 0a.667.667 0 1 0 0-1.334.667.667 0 0 0 0 1.334zm-28 4.666a.667.667 0 1 0 0-1.333.667.667 0 0 0 0 1.333zm4.667 0a.667.667 0 1 0 0-1.333.667.667 0 0 0 0 1.333zm4.667 0a.667.667 0 1 0 0-1.333.667.667 0 0 0 0 1.333zm4.666 0a.667.667 0 1 0 0-1.333.667.667 0 0 0 0 1.333zm4.667 0a.667.667 0 1 0 0-1.333.667.667 0 0 0 0 1.333zm4.667 0a.667.667 0 1 0 0-1.333.667.667 0 0 0 0 1.333zm4.666 0a.667.667 0 1 0 0-1.333.667.667 0 0 0 0 1.333zm-28 5.334a.667.667 0 1 0 0-1.334.667.667 0 0 0 0 1.334zm4.667 0a.667.667 0 1 0 0-1.334.667.667 0 0 0 0 1.334zm4.667 0a.667.667 0 1 0 0-1.334.667.667 0 0 0 0 1.334zm4.666 0a.667.667 0 1 0 0-1.334.667.667 0 0 0 0 1.334zm4.667 0a.667.667 0 1 0 0-1.334.667.667 0 0 0 0 1.334z"
      fill="#6A83A8"></path>
  </g>
</svg>