<svg xmlns="http://www.w3.org/2000/svg" width="61" height="61" class="hidden sr-only">
    <g viewBox="0 0 61 61" fill="none" xmlns="http://www.w3.org/2000/svg" id="ico-motion">
        <path d="M56.965 40.03a26.89 26.89 0 0 0 .705-6.041c0-9.409-4.791-17.976-12.816-22.917a1.034 1.034 0 1 0-1.086 1.762c7.41 4.562 11.833 12.47 11.833 21.155 0 1.785-.207 3.57-.593 5.324a7.252 7.252 0 0 0-1.476-.152c-3.993 0-7.241 3.25-7.241 7.242s3.248 7.24 7.24 7.24c3.994 0 7.242-3.248 7.242-7.24a7.248 7.248 0 0 0-3.808-6.374zm-3.433 11.545a5.178 5.178 0 0 1-5.173-5.172 5.178 5.178 0 0 1 5.173-5.173 5.178 5.178 0 0 1 5.172 5.173 5.178 5.178 0 0 1-5.172 5.172zM40.26 56.937a24.69 24.69 0 0 1-9.487 1.88 24.876 24.876 0 0 1-17.604-7.336 7.214 7.214 0 0 0 2.087-5.077c0-3.992-3.248-7.242-7.242-7.242-3.993 0-7.24 3.25-7.24 7.242s3.247 7.24 7.24 7.24c1.269 0 2.46-.33 3.498-.904 5.047 5.183 12.013 8.146 19.26 8.146 3.554 0 7.013-.686 10.28-2.039.527-.218.778-.823.56-1.352a1.036 1.036 0 0 0-1.352-.558zM2.842 46.404a5.178 5.178 0 0 1 5.172-5.173 5.178 5.178 0 0 1 5.173 5.173 5.178 5.178 0 0 1-5.173 5.172 5.178 5.178 0 0 1-5.172-5.172zm2.069-13.229l.074.003c.539 0 .992-.415 1.031-.962.737-10.437 7.848-19.158 17.814-22.049.883 3.003 3.659 5.202 6.943 5.202 3.993 0 7.241-3.25 7.241-7.241 0-3.992-3.248-7.242-7.24-7.242-3.985 0-7.227 3.235-7.241 7.216-10.946 3.048-18.776 12.563-19.58 23.97a1.032 1.032 0 0 0 .958 1.103zm25.862-30.22a5.178 5.178 0 0 1 5.173 5.173 5.178 5.178 0 0 1-5.173 5.172 5.178 5.178 0 0 1-5.172-5.172 5.178 5.178 0 0 1 5.172-5.173z"
            fill="#6A83A8"
        >
        </path>
    </g>
</svg>