<svg xmlns="http://www.w3.org/2000/svg" width="31" height="39" class="hidden sr-only">
    <g viewBox="0 0 31 39" fill="none" xmlns="http://www.w3.org/2000/svg" id="ico-certified">
    <path d="M21.404.407H.877v38h29.766V9.645L21.404.407zm.372 2.163l6.704 6.704h-6.704V2.57zM2.142 37.14V1.675H20.51v8.867h8.867v26.6H2.142z" fill="#6A83A8"></path>
    <path d="M7.21 11.174h5.7a.633.633 0 1 0 0-1.267h-5.7a.633.633 0 1 0 0 1.267zm0 5.067h3.166a.633.633 0 1 0 0-1.267H7.209a.633.633 0 1 0 0 1.267zm9.5 0h4.432a.633.633 0 1 0 0-1.267H16.71a.633.633 0 1 0 0 1.267zm-3.617-1.077a.637.637 0 0 0 0 .893c.12.114.285.184.45.184a.64.64 0 0 0 .633-.633c0-.166-.07-.33-.184-.45a.657.657 0 0 0-.9.006zm11.216 1.076c.165 0 .33-.069.45-.183a.666.666 0 0 0 .183-.45.67.67 0 0 0-.183-.45.663.663 0 0 0-.9 0 .66.66 0 0 0-.184.45c0 .165.07.33.184.45.12.114.285.184.45.184zm-9.499 3.8h-4.434a.633.633 0 1 0 0 1.267h4.433a.633.633 0 1 0 0-1.266zm-7.6 1.267c.164 0 .328-.07.449-.183a.64.64 0 0 0 0-.9.663.663 0 0 0-.9 0 .625.625 0 0 0-.183.45c0 .165.069.33.183.45.12.114.285.183.45.183zm1.99 4.539c-1.386.722-1.853 2.104-2.023 3.535l-.787-.658c-.62-.52-1.521.371-.896.896l1.778 1.489c.416.349 1.062.128 1.08-.448.047-1.372.112-3.003 1.488-3.72.723-.376.083-1.47-.64-1.094zm4.213 2.526c-.877.203-1.876 1.32-2.493.067-.36-.73-1.454-.09-1.094.64.327.663.95 1.129 1.69 1.223.377.047.717-.006 1.07-.143.258-.101 1.226-.829 1.435-.455.398.712 1.492.074 1.094-.639-.34-.609-1.029-.85-1.702-.693zm12.951-6.106a.403.403 0 0 1-.23-.555 1.656 1.656 0 0 0-.328-1.9 1.656 1.656 0 0 0-1.9-.328.403.403 0 0 1-.555-.23 1.653 1.653 0 0 0-1.575-1.112c-.717 0-1.335.436-1.575 1.112a.403.403 0 0 1-.556.23 1.658 1.658 0 0 0-1.9.328 1.655 1.655 0 0 0-.328 1.899.406.406 0 0 1-.23.556 1.653 1.653 0 0 0-1.111 1.575c0 .717.436 1.335 1.111 1.575a.402.402 0 0 1 .23.556 1.656 1.656 0 0 0 .328 1.9c.245.244.546.399.864.46v7.805l3.167-3.167 3.166 3.167v-7.805c.318-.061.62-.215.864-.46a1.655 1.655 0 0 0 .328-1.9.406.406 0 0 1 .23-.556 1.653 1.653 0 0 0 1.112-1.575c0-.717-.436-1.335-1.112-1.575zm-4.588 8.913l-1.9 1.9v-4.913a.452.452 0 0 1 .099.025.394.394 0 0 1 .226.239c.24.675.858 1.111 1.575 1.111s1.335-.436 1.575-1.111a.393.393 0 0 1 .308-.262l.016-.002v4.912l-1.9-1.9zm4.164-6.956a1.672 1.672 0 0 0-.95 2.294.387.387 0 0 1-.08.46.396.396 0 0 1-.355.107l-.14-.043c-.057-.026-.118-.04-.177-.059-.045-.014-.088-.032-.133-.043-.062-.014-.126-.018-.19-.025-.05-.006-.1-.016-.152-.018-.061-.001-.122.01-.183.014-.052.005-.106.004-.158.014a1.65 1.65 0 0 0-.33.098c-.029.012-.052.03-.08.043-.078.038-.157.075-.229.124a1.668 1.668 0 0 0-.236.203c-.008.008-.019.014-.027.023-.16.168-.284.37-.364.591a.386.386 0 0 1-.38.268.388.388 0 0 1-.382-.269 1.67 1.67 0 0 0-.364-.591c-.006-.007-.014-.012-.021-.019a1.678 1.678 0 0 0-.243-.207c-.068-.047-.145-.083-.22-.12-.03-.014-.056-.034-.088-.047-.013-.006-.027-.008-.04-.013a1.669 1.669 0 0 0-.283-.083c-.077-.015-.154-.019-.23-.023-.03-.001-.058-.008-.086-.008h-.005c-.237 0-.467.046-.663.142l-.144.045a.395.395 0 0 1-.366-.105.387.387 0 0 1-.08-.461 1.676 1.676 0 0 0-.95-2.293.386.386 0 0 1-.269-.38c0-.087.026-.297.27-.383a1.672 1.672 0 0 0 .95-2.294.387.387 0 0 1 .08-.46.389.389 0 0 1 .46-.08 1.67 1.67 0 0 0 2.293-.95.386.386 0 0 1 .38-.267c.087 0 .297.026.383.269a1.673 1.673 0 0 0 2.294.95c.231-.112.4.018.46.08.06.06.19.226.08.46a1.675 1.675 0 0 0 .95 2.293.386.386 0 0 1 .267.381.388.388 0 0 1-.27.382z"
      fill="#6A83A8"></path>
  </g>
</svg>