<svg xmlns="http://www.w3.org/2000/svg" width="60" height="60" class="hidden sr-only">
    <g viewBox="0 0 60 60" fill="none" xmlns="http://www.w3.org/2000/svg" id="ico-block">
    <path d="M23.983.386H3.63a3.522 3.522 0 0 0-3.52 3.52V24.26a3.523 3.523 0 0 0 3.52 3.52h20.354a3.523 3.523 0 0 0 3.52-3.52V3.905a3.523 3.523 0 0 0-3.52-3.519zm1.412 23.874c0 .779-.633 1.412-1.412 1.412H3.63a1.413 1.413 0 0 1-1.412-1.412V3.905c0-.778.633-1.412 1.412-1.412h20.354c.78 0 1.412.634 1.412 1.412V24.26zM55.59.386H35.237a3.522 3.522 0 0 0-3.52 3.52V24.26a3.522 3.522 0 0 0 3.52 3.52H55.59a3.522 3.522 0 0 0 3.519-3.52V3.905A3.522 3.522 0 0 0 55.59.386zm1.412 23.874c0 .779-.633 1.412-1.411 1.412H35.236a1.413 1.413 0 0 1-1.412-1.412V3.905c0-.778.633-1.412 1.412-1.412H55.59c.778 0 1.411.634 1.411 1.412V24.26zm-33.019 7.733H3.63a3.522 3.522 0 0 0-3.52 3.52v20.354a3.522 3.522 0 0 0 3.52 3.52h20.354a3.522 3.522 0 0 0 3.52-3.52V35.512a3.522 3.522 0 0 0-3.52-3.519zm1.412 23.874c0 .779-.633 1.412-1.412 1.412H3.63a1.413 1.413 0 0 1-1.412-1.412V35.512c0-.778.633-1.412 1.412-1.412h20.354c.78 0 1.412.634 1.412 1.412v20.355zm32.661-11.231h-11.59v-11.59a1.053 1.053 0 1 0-2.106 0v11.59H32.77a1.053 1.053 0 1 0 0 2.107h11.59v11.59a1.053 1.053 0 1 0 2.107 0v-11.59h11.589a1.053 1.053 0 1 0 0-2.107z"
      fill="#6A83A8"></path>
  </g>
</svg>
 