<svg xmlns="http://www.w3.org/2000/svg" width="61" height="61" class="hidden sr-only">
    <g viewBox="0 0 61 61" fill="none" id="ico-world">
        <path d="M47.793 5.704l.049-.032-1.323-.816c-.078-.048-.16-.088-.238-.136a30.705 30.705 0 0 0-1.323-.754c-.227-.122-.457-.237-.687-.353a29.078 29.078 0 0 0-1.022-.492c-.203-.093-.405-.188-.61-.276a29.737 29.737 0 0 0-1.625-.648c-.113-.04-.228-.076-.342-.116a30.211 30.211 0 0 0-3.581-1.008c-.053-.01-.104-.025-.157-.036a29.393 29.393 0 0 0-1.865-.325c-.138-.02-.278-.035-.416-.053A30.133 30.133 0 0 0 33.17.505c-.168-.013-.335-.028-.503-.038A27.927 27.927 0 0 0 30.786.4a30.32 30.32 0 0 0-2.557.116c-.631.053-1.258.121-1.878.214-.062.01-.124.017-.186.026a29.606 29.606 0 0 0-2.454.494c-.562.136-1.118.285-1.667.452-.174.053-.346.111-.518.167-.492.16-.98.333-1.46.518a29.434 29.434 0 0 0-2.291.984c-.175.085-.348.18-.523.27-.418.211-.83.432-1.236.663a29.803 29.803 0 0 0-2.101 1.305c-.067.046-.138.084-.204.131l-.545.378.005.022C5.673 11.596.786 20.435.786 30.4c0 16.542 13.458 30 30 30s30-13.458 30-30c0-10.23-5.152-19.278-12.993-24.695zM15.875 6.717c.323-.204.65-.4.98-.59.183-.107.364-.216.55-.318.464-.254.935-.49 1.41-.717.207-.098.415-.189.624-.282.349-.155.7-.302 1.054-.443.195-.078.389-.159.587-.232.506-.188 1.018-.36 1.534-.517.189-.058.382-.109.573-.163.4-.113.804-.218 1.21-.313.183-.043.365-.088.548-.127a28.172 28.172 0 0 1 1.689-.308c.129-.019.26-.032.389-.05a28.745 28.745 0 0 1 1.948-.195 30.417 30.417 0 0 1 1.815-.063c.529 0 1.057.018 1.583.048.15.008.3.023.45.034.379.028.758.06 1.135.103.167.02.333.042.499.064a26.515 26.515 0 0 1 1.57.251c.378.072.753.153 1.126.24.138.032.277.062.414.096.46.115.917.241 1.37.38.046.013.093.024.139.038.484.15.962.316 1.437.491.19.071.376.148.564.223.276.11.55.22.823.338a29.606 29.606 0 0 1 1.784.852c-3.822 1.532-6.196 3.41-8.853 6.866a2.645 2.645 0 0 0-.551 1.686c-.23-.552-.565-.972-1.013-1.266-.926-.608-2.138-.565-3.703.133l-.285.032c-2.006.224-3.111.348-3.211 2.53-.051 1.104.54 2.194 1.508 2.776.245.147.502.254.764.32.028.094.072.191.137.29l.403.556.643-.107a6.964 6.964 0 0 1 1.325-.104c-.047.444.03.898.23 1.303.279.562.757.972 1.347 1.154.564.174.613.343.68.576.322 1.105 1.052 1.922 2.004 2.24.91.304 1.92.107 2.778-.536.514-.389.805-.308 1.928.235.733.354 1.646.796 2.828.948.186.023.297.08.338.122.813.854 1.437 1.916 2.04 2.943.924 1.573 1.797 3.06 3.299 3.84 1.175.61-.141 4.06-.772 5.716-.127.334-.246.645-.345.923-1.524 1.174-2.455 2.507-3.356 3.797-.807 1.155-1.641 2.35-2.934 3.462-1.953 1.681-3.605 2.688-5.523 3.37a.525.525 0 0 1-.594-.163.496.496 0 0 1-.06-.584c1.973-3.532 4.255-8.513 1.3-10.958-2.895-2.396-3.98-5.875-2.763-8.86.517-1.269-.06-2.69-1.337-3.359-.11-.133-.187-.714-.238-1.099-.113-.845-.253-1.896-.878-2.813-.26-.38-.726-.723-1.047-.879-1.221-.598-2.393-.769-3.526-.933-.902-.132-1.755-.256-2.625-.589-3.313-1.27-5.671-6.646-7.393-10.572-.246-.562-.483-1.1-.711-1.606l.36-.23zM30.785 58.4c-15.438 0-28-12.56-28-28 0-9.077 4.346-17.156 11.062-22.275.177.397.358.807.546 1.235 1.967 4.485 4.415 10.066 8.508 11.636 1.077.413 2.082.56 3.053.7 1.026.15 1.995.29 2.937.752.076.037.233.16.273.21.357.523.454 1.247.547 1.947.129.966.275 2.061 1.253 2.578.318.17.596.51.453.86-1.553 3.812-.242 8.191 3.34 11.157.919.76 1.357 2.842-1.771 8.442a2.497 2.497 0 0 0 .279 2.851 2.525 2.525 0 0 0 2.792.756c2.165-.77 4.006-1.888 6.157-3.739 1.485-1.276 2.392-2.575 3.27-3.832.886-1.269 1.724-2.468 3.097-3.479.2-.146.348-.345.427-.575.108-.316.25-.688.406-1.098 1.028-2.696 2.582-6.77-.174-8.204-.991-.515-1.688-1.702-2.497-3.077-.63-1.073-1.345-2.289-2.316-3.31-.376-.396-.906-.647-1.53-.728-.86-.11-1.547-.443-2.213-.765-1.097-.53-2.464-1.19-4.001-.034-.232.175-.583.356-.943.238-.32-.107-.581-.435-.715-.899-.194-.67-.6-1.495-2.012-1.93a.238.238 0 0 1-.143-.132.404.404 0 0 1-.003-.325c.189-.515.11-1.035-.214-1.428-.357-.432-.994-.654-1.901-.668a.987.987 0 0 0-.263-.47l-.607-.556-.682.402c-.177.105-.377.092-.594-.04-.336-.2-.56-.6-.542-.97.01-.23.025-.36.038-.435.245-.072.83-.138 1.398-.2l.607-.07.147-.068c.893-.415 1.608-.54 1.912-.344.123.081.519.47.474 2.076l-.025.888.878.13c1.14.171 1.987-.052 2.514-.657.545-.626.644-1.555.29-2.76a.637.637 0 0 1 .116-.548c2.767-3.6 5.089-5.257 9.508-6.783C53.65 11.85 58.786 20.533 58.786 30.4c0 15.44-12.561 28-28 28z"
        fill="#6A83A8">
        </path>
    </g>
</svg>
