<svg xmlns="http://www.w3.org/2000/svg" width="170" height="54" class="hidden sr-only">
  <g viewBox="0 0 169 53" fill="none" id="logo-cartesi">
    <g opacity=".7">
      <path d="M12.33 18.115L27.327 1.656 33.5 18.16m-.209 23.475l-8.76 9.575-6.175-16.518" stroke="#000" stroke-width="2" stroke-miterlimit="10" stroke-linecap="round" stroke-linejoin="round"></path>
      <path d="M39.66 34.692l-6.369 6.943" stroke="#000" stroke-width="2" stroke-miterlimit="10"></path>
      <path d="M33.47 18.16h10.765l6.174 16.532H29.09l-6.174-16.533H1.596l6.175 16.533h10.585" stroke="#000" stroke-width="2" stroke-miterlimit="10" stroke-linecap="round" stroke-linejoin="round"></path>
      <path d="M33.485 18.16L18.341 34.691" stroke="#000" stroke-width="2" stroke-miterlimit="10"></path>
      <path d="M58.512 34.885c-1.286-1.442-1.988-3.39-2.078-5.843a96.213 96.213 0 0 1-.03-2.602c0-1.219.015-2.11.03-2.66.105-2.44.792-4.387 2.078-5.844 1.286-1.442 3.214-2.17 5.8-2.17 1.765 0 3.23.327 4.396.966 1.166.64 2.033 1.442 2.602 2.423.568.982.882 1.978.941 3.003v.06c0 .164-.06.282-.179.387a.654.654 0 0 1-.448.148h-.599c-.358 0-.568-.208-.657-.624-.374-1.68-1.062-2.855-2.048-3.553-.987-.684-2.333-1.041-4.007-1.041-1.869 0-3.304.52-4.336 1.56-1.031 1.042-1.584 2.647-1.66 4.818a89.35 89.35 0 0 0-.03 2.453c0 1.1.016 1.948.03 2.513.075 2.17.629 3.776 1.66 4.817 1.032 1.04 2.482 1.56 4.336 1.56 1.69 0 3.02-.341 4.007-1.04.986-.684 1.674-1.873 2.048-3.553.074-.417.299-.625.657-.625h.599c.179 0 .328.06.463.164.135.104.18.253.164.431-.06 1.026-.373 2.022-.942 3.003-.568.981-1.435 1.784-2.6 2.424-1.167.639-2.632.966-4.396.966-2.587.045-4.515-.684-5.8-2.14zm16.027 1.71a.561.561 0 0 1-.18-.416l.06-.328 7.52-19.178c.165-.402.449-.595.867-.595h1.017c.419 0 .703.193.867.595l7.52 19.179.06.327a.56.56 0 0 1-.18.416.567.567 0 0 1-.418.178h-.598c-.18 0-.33-.044-.434-.148a.972.972 0 0 1-.224-.298L88.577 31.6H78.052l-1.839 4.728a.972.972 0 0 1-.224.298c-.105.104-.254.148-.434.148h-.598a.567.567 0 0 1-.418-.178zm4.216-6.78h9.09L83.3 18.175l-4.545 11.64zm17.178 6.78a.649.649 0 0 1-.18-.476V16.747a.71.71 0 0 1 .18-.49.612.612 0 0 1 .478-.194h6.922c2.138 0 3.812.505 5.023 1.502 1.211 1.01 1.809 2.497 1.809 4.46 0 1.56-.388 2.81-1.166 3.776-.777.952-1.884 1.606-3.334 1.933l4.784 8.103c.06.119.09.223.09.327 0 .163-.06.297-.179.416a.57.57 0 0 1-.419.178h-.329c-.299 0-.523-.06-.673-.193-.149-.134-.299-.327-.463-.61l-4.724-7.953h-6.13v8.102c0 .194-.06.357-.194.476a.719.719 0 0 1-.494.178h-.538a.578.578 0 0 1-.463-.163zm7.251-10.348c1.719 0 3.005-.357 3.857-1.055.837-.7 1.256-1.755 1.256-3.152 0-1.398-.419-2.453-1.256-3.152-.838-.7-2.123-1.056-3.857-1.056h-5.562v8.4h5.562v.015zm16.056 10.348a.647.647 0 0 1-.179-.476V17.847h-5.891a.655.655 0 0 1-.478-.178.648.648 0 0 1-.18-.476v-.446c0-.194.06-.357.18-.49a.61.61 0 0 1 .478-.194h13.62c.224 0 .389.06.508.178.12.12.18.283.18.506v.446c0 .193-.06.357-.195.476a.717.717 0 0 1-.493.178h-5.861v18.272a.603.603 0 0 1-.194.476.717.717 0 0 1-.493.178h-.538a.646.646 0 0 1-.464-.178zm12.02 0a.647.647 0 0 1-.179-.476V16.747c0-.194.059-.357.179-.49a.613.613 0 0 1 .479-.194h11.586c.224 0 .389.06.508.178.12.12.18.283.18.506v.446c0 .193-.06.357-.195.476a.717.717 0 0 1-.493.178h-10.376v7.538h9.718c.224 0 .389.06.508.178.12.12.18.283.18.506v.446c0 .193-.06.357-.194.476a.722.722 0 0 1-.494.178h-9.718v7.835h10.615c.224 0 .389.06.508.178.12.12.18.283.18.506v.446c0 .193-.06.357-.194.476a.72.72 0 0 1-.494.178h-11.825c-.21-.015-.374-.074-.479-.193zm19.63-.283c-1.136-.505-2.018-1.16-2.616-1.962-.599-.803-.927-1.68-.972-2.602 0-.164.06-.297.179-.416a.61.61 0 0 1 .449-.179h.598c.358 0 .568.194.657.595.135.952.688 1.77 1.63 2.483.957.714 2.317 1.07 4.096 1.07 1.884 0 3.289-.342 4.201-1.026.927-.683 1.376-1.635 1.376-2.854 0-.743-.224-1.368-.673-1.844-.448-.475-1.091-.907-1.943-1.278-.853-.372-2.138-.818-3.873-1.368-1.524-.49-2.72-.981-3.588-1.442-.867-.476-1.495-1.056-1.913-1.74-.419-.683-.628-1.56-.628-2.631 0-1.011.269-1.918.822-2.72.538-.804 1.331-1.443 2.362-1.904 1.032-.46 2.258-.699 3.693-.699 1.465 0 2.721.268 3.782.788 1.047.52 1.839 1.19 2.378 1.978.538.802.822 1.605.867 2.408 0 .164-.06.297-.165.416-.104.12-.269.179-.463.179h-.598a.773.773 0 0 1-.419-.134c-.134-.09-.224-.238-.239-.46-.12-.982-.643-1.8-1.585-2.44-.942-.638-2.123-.966-3.558-.966-1.525 0-2.736.298-3.648.892-.897.595-1.345 1.472-1.345 2.662 0 .773.209 1.397.613 1.903.403.505 1.016.936 1.823 1.293.808.372 2.019.803 3.604 1.309 1.629.505 2.9 1.01 3.797 1.471.912.476 1.6 1.041 2.063 1.71.463.67.703 1.532.703 2.602 0 1.77-.658 3.152-1.989 4.148-1.33.996-3.154 1.487-5.472 1.487-1.524.03-2.87-.223-4.006-.729zm15.952.283a.648.648 0 0 1-.18-.476V16.717c0-.193.06-.357.18-.476a.655.655 0 0 1 .478-.178h.568c.195 0 .359.06.479.178a.651.651 0 0 1 .179.476v19.387a.65.65 0 0 1-.179.476.658.658 0 0 1-.479.178h-.568a.574.574 0 0 1-.478-.163z"
        fill="#000"></path>
    </g>
  </g>
</svg>