<svg width="79" height="19" viewBox="0 0 79 19" fill="none" xmlns="http://www.w3.org/2000/svg">
<g clip-path="url(#clip0)">
<path d="M0.735352 15.2986C0.735352 15.2986 2.45274 18.9999 5.88753 18.9999C9.32231 18.9999 70.4124 18.9999 70.4124 18.9999C70.4124 18.9999 78.5086 19.2466 78.5086 15.2986H0.735352Z" fill="url(#paint0_linear)"/>
<path d="M2.69994 7.64935L7.36143 4.44156C9.32417 2.96104 11.7776 1.72727 14.231 0.987013C15.2124 0.74026 15.9484 0.493506 16.6844 0.493506L36.8024 0C42.6906 0 48.3335 1.23377 53.731 3.45455C57.4111 4.93506 64.7714 6.41558 72.6223 7.4026C74.8304 7.64935 77.0385 8.88312 78.0198 10.8571C79.0012 12.5844 79.2465 14.5584 77.7745 16.7792H1.96392C1.96392 16.7792 0.982552 16.5325 0.246527 14.8052C-0.489498 12.0909 0.491868 9.37662 2.69994 7.64935Z" fill="url(#paint1_linear)"/>
</g>
<defs>
<linearGradient id="paint0_linear" x1="0.616116" y1="17.0937" x2="13.6114" y2="17.0937" gradientUnits="userSpaceOnUse">
<stop stop-color="#E65145"/>
<stop offset="0.8227" stop-color="#61153C"/>
</linearGradient>
<linearGradient id="paint1_linear" x1="0.00118509" y1="8.33384" x2="78.9715" y2="8.33384" gradientUnits="userSpaceOnUse">
<stop stop-color="#E65145"/>
<stop offset="0.8227" stop-color="#61153C"/>
</linearGradient>
<clipPath id="clip0">
<rect width="79" height="19" fill="white"/>
</clipPath>
</defs>
</svg>
