<svg width="45" height="45" viewBox="0 0 45 45" fill="none" xmlns="http://www.w3.org/2000/svg">
<path d="M42.2787 7.94469C42.2133 7.67641 41.9428 7.51196 41.6745 7.57737L37.3026 8.64342C37.0343 8.70884 36.8699 8.97936 36.9353 9.24764C37.0007 9.51592 37.2712 9.68037 37.5395 9.61496L41.4257 8.66735L42.3733 12.5535C42.4387 12.8218 42.7092 12.9862 42.9775 12.9208C43.2458 12.8554 43.4102 12.5849 43.3448 12.3166L42.2787 7.94469ZM16.6884 21.0576L17.0729 20.738C16.9722 20.6168 16.8202 20.5502 16.6628 20.5583C16.5054 20.5664 16.361 20.6482 16.2732 20.7791L16.6884 21.0576ZM26.6256 33.0126L26.2411 33.3322C26.3444 33.4564 26.5013 33.5231 26.6624 33.5112C26.8235 33.4993 26.969 33.4104 27.0529 33.2723L26.6256 33.0126ZM16.2732 20.7791L0.58287 44.1692L1.41333 44.7263L17.1037 21.3362L16.2732 20.7791ZM41.3657 7.80341L26.1984 32.7529L27.0529 33.2723L42.2202 8.32287L41.3657 7.80341ZM27.0102 32.693L17.0729 20.738L16.3039 21.3773L26.2411 33.3322L27.0102 32.693Z" fill="#666666"/>
<path d="M1 1.44775V44.4478H44" stroke="#666666" stroke-linecap="round" stroke-linejoin="round"/>
</svg>
