<svg width="53" height="63" viewBox="0 0 53 63" fill="none" xmlns="http://www.w3.org/2000/svg">
<path d="M13.1432 32.5845C13.8481 29.412 16.1393 24.154 17.1968 21.9216L20.9861 15.6648C23.1892 15.4005 28.1594 15.0304 30.4153 15.6648C33.2352 16.458 35.1739 20.5116 35.6146 21.481C36.0552 22.4503 37.377 26.504 38.2583 28.9714C39.1395 31.4389 41.695 37.5193 41.695 41.9255C41.695 46.3316 39.9326 46.5079 38.2583 49.1516C36.5839 51.7953 36.0552 52.1478 32.1778 54.7033C28.3004 57.2589 20.193 54.8796 18.4306 53.9102C16.6681 52.9409 15.0819 49.5041 13.1432 45.4504C11.2045 41.3968 12.2619 36.55 13.1432 32.5845Z" fill="white" stroke="#666666" stroke-linecap="round" stroke-linejoin="round"/>
<path fill-rule="evenodd" clip-rule="evenodd" d="M19.9123 21.388C19.9924 23.095 19.7183 24.8002 19.1073 26.3961C18.3588 28.106 17.4468 29.7396 16.3841 31.2741C14.3832 34.5773 12.1456 39.5618 14.549 43.315C15.4134 44.4202 16.4071 45.4179 17.5089 46.2867C18.385 47.1273 20.4688 48.2166 20.824 49.365C21.6883 52.1 17.5089 52.8222 15.804 52.2657C11.4115 50.8094 9.80131 46.3459 9.11462 42.3678C7.48075 32.9908 14.7384 23.827 14.7148 21.1749C14.7148 18.9845 14.5016 16.7824 14.5964 14.5447C14.7858 10.093 15.5435 5.073 19.7229 2.63404C21.6692 1.59734 23.8917 1.19737 26.0773 1.49048C28.2629 1.7836 30.3015 2.75502 31.9059 4.2679C33.9186 6.24512 34.2738 9.08663 34.7711 11.7624C35.7064 16.4982 36.6772 20.2277 39.6372 24.3124C42.5971 28.397 46.6817 32.2686 46.9422 37.8095C47.0961 40.8405 47.0843 43.1966 45.4149 45.7184C44.2309 47.4825 41.2118 50.5371 38.9505 48.2758C37.6718 46.9971 38.027 43.0545 37.8494 41.3022C37.6034 38.4086 37.0436 35.5503 36.18 32.7777C34.842 28.3222 32.4407 24.2589 29.1828 20.9381" fill="white"/>
<path d="M19.9123 21.388C19.9924 23.095 19.7183 24.8002 19.1073 26.3961C18.3588 28.106 17.4468 29.7396 16.3841 31.2741C14.3832 34.5773 12.1456 39.5618 14.549 43.315C15.4134 44.4202 16.4071 45.4179 17.5089 46.2867C18.385 47.1273 20.4688 48.2166 20.824 49.365C21.6883 52.1 17.5089 52.8222 15.804 52.2657C11.4115 50.8094 9.80131 46.3459 9.11462 42.3678C7.48075 32.9908 14.7384 23.8269 14.7148 21.1749C14.7148 18.9845 14.5017 16.7824 14.5964 14.5447C14.7858 10.093 15.5435 5.073 19.7229 2.63404C21.6692 1.59734 23.8917 1.19737 26.0773 1.49048C28.2629 1.7836 30.3015 2.75502 31.9059 4.2679C33.9186 6.24512 34.2738 9.08663 34.7711 11.7624C35.7064 16.4982 36.6772 20.2277 39.6372 24.3124C42.5971 28.397 46.6817 32.2686 46.9422 37.8095C47.0961 40.8405 47.0843 43.1966 45.4149 45.7184C44.2309 47.4825 41.2118 50.5371 38.9505 48.2758C37.6718 46.9971 38.027 43.0545 37.8494 41.3022C37.6034 38.4086 37.0436 35.5503 36.18 32.7777C34.842 28.3222 32.4407 24.2589 29.1828 20.9381" stroke="#666666" stroke-linecap="round" stroke-linejoin="round"/>
<path fill-rule="evenodd" clip-rule="evenodd" d="M9.10312 60.7311C11.9683 61.9151 15.4729 63.2766 18.2315 61.0863C21.4637 58.5289 18.0894 54.3022 16.2306 52.0527C15.0221 50.7749 13.9726 49.3557 13.1049 47.8259C12.2998 46.1921 11.8262 43.8597 10.145 42.8651C7.77709 41.4325 6.4629 44.6055 5.11318 45.9908C3.76346 47.376 3.23069 46.6183 1.80994 47.3879C0.389182 48.1574 1.17059 48.9152 1.65602 50.2767C2.57951 52.9288 0.0221413 55.2494 1.53761 57.7357C3.05308 60.222 6.77072 59.8076 9.10312 60.7311Z" fill="white" stroke="#666666" stroke-linecap="round" stroke-linejoin="round"/>
<path fill-rule="evenodd" clip-rule="evenodd" d="M34.8766 56.7533C35.0444 55.2131 35.2974 53.6835 35.6343 52.1713C35.8592 50.5256 35.3738 48.8681 35.5277 47.2224C35.7408 44.9965 37.7654 42.4865 38.9257 45.7898C41.1752 52.2897 46.9411 40.7935 48.3974 45.9555C48.5808 47.0209 49.0799 48.0067 49.83 48.7852C51.0139 49.8981 52.6242 50.7861 51.748 52.5976C49.9602 56.2915 45.0231 56.8717 42.0159 59.2159C40.1689 60.6485 38.3337 61.4181 36.2263 59.9026C35.754 59.5341 35.3825 59.0521 35.1465 58.5014C34.9106 57.9508 34.8177 57.3494 34.8766 56.7533Z" fill="white" stroke="#666666" stroke-linecap="round" stroke-linejoin="round"/>
<path fill-rule="evenodd" clip-rule="evenodd" d="M27.9405 8.21019C26.4961 7.87869 24.1282 8.31675 24.3886 15.0535C24.3886 8.31675 22.2812 8.10364 20.9788 8.10364C18.8358 8.10364 16.9297 10.8267 16.9297 14.0234C16.9297 17.2201 18.6582 19.9433 20.7894 19.9433C22.3877 19.9433 23.7493 18.4751 24.3413 16.3914C24.9332 18.487 26.2948 19.9433 27.8931 19.9433C30.0243 19.9433 31.7529 17.3267 31.7529 14.0234C31.7529 10.7202 30.7228 8.87321 27.9405 8.21019Z" fill="white" stroke="#666666" stroke-linecap="round" stroke-linejoin="round"/>
<path d="M21.8743 15.3143C21.8743 15.7825 21.7499 16.1851 21.5745 16.4554C21.3961 16.7303 21.2077 16.8151 21.0719 16.8151C20.9361 16.8151 20.7477 16.7303 20.5693 16.4554C20.3938 16.1851 20.2695 15.7825 20.2695 15.3143C20.2695 14.846 20.3938 14.4434 20.5693 14.1731C20.7477 13.8982 20.9361 13.8134 21.0719 13.8134C21.2077 13.8134 21.3961 13.8982 21.5745 14.1731C21.7499 14.4434 21.8743 14.846 21.8743 15.3143Z" fill="#808080" stroke="#666666" stroke-linecap="round" stroke-linejoin="round"/>
<path d="M28.9797 15.3143C28.9797 15.7825 28.8554 16.1851 28.68 16.4554C28.5016 16.7303 28.3132 16.8151 28.1774 16.8151C28.0416 16.8151 27.8532 16.7303 27.6748 16.4554C27.4993 16.1851 27.375 15.7825 27.375 15.3143C27.375 14.846 27.4993 14.4434 27.6748 14.1731C27.8532 13.8982 28.0416 13.8134 28.1774 13.8134C28.3132 13.8134 28.5016 13.8982 28.68 14.1731C28.8554 14.4434 28.9797 14.846 28.9797 15.3143Z" fill="#808080" stroke="#666666" stroke-linecap="round" stroke-linejoin="round"/>
<path fill-rule="evenodd" clip-rule="evenodd" d="M19.2498 17.8835C20.8481 16.7824 24.3882 15.1603 25.5603 15.5155C27.2871 16.1835 28.9066 17.1009 30.3672 18.2387C30.6479 18.4983 30.827 18.8493 30.8726 19.2289C30.9181 19.6085 30.8271 19.9919 30.6158 20.3106C30.1186 21.0091 27.3955 22.1457 25.88 22.7851C25.1848 23.1433 24.4051 23.305 23.6248 23.2528C22.8445 23.2007 22.0933 22.9366 21.452 22.4891C20.4824 21.9477 19.587 21.2831 18.788 20.5119C17.6159 19.4108 18.8591 18.1794 19.2498 17.8835Z" fill="white" stroke="#666666" stroke-linecap="round" stroke-linejoin="round"/>
</svg>
