<svg width="323" height="403" viewBox="0 0 323 403" fill="none" xmlns="http://www.w3.org/2000/svg">
<path fill-rule="evenodd" clip-rule="evenodd" d="M229.034 122.612C180.294 73.8708 102.885 71.2887 51.0979 114.844C21.0042 140.087 15.2729 137.823 1.41717 135.614C1.23891 135.587 1.06603 135.554 0.887773 135.527C0.844558 135.517 0.795948 135.511 0.758134 135.506C-13.8538 133.242 -29.3085 137.731 -40.5659 148.989C-59.3049 167.728 -59.2995 198.102 -40.5659 216.836C-34.6185 222.783 -27.4935 226.84 -19.9525 229.012C-6.92866 232.971 -0.743556 233.679 14.4626 267.359C20.8854 282.501 30.263 296.686 42.6062 309.029C94.0857 360.509 177.544 360.509 229.024 309.029C280.509 257.555 280.514 174.091 229.034 122.612Z" fill="url(#paint0_linear)" stroke="#F9F9F9" stroke-width="0.5" stroke-miterlimit="10"/>
<defs>
<linearGradient id="paint0_linear" x1="24.4129" y1="39.5155" x2="-33.6974" y2="498.46" gradientUnits="userSpaceOnUse">
<stop stop-color="#F9F9F9" stop-opacity="0"/>
<stop offset="1" stop-color="#E5E5E5"/>
</linearGradient>
</defs>
</svg>
