<svg xmlns="http://www.w3.org/2000/svg" xmlns:xlink="http://www.w3.org/1999/xlink" width="212" height="64" viewBox="0 0 212 64"><defs><clipPath id="a"><rect width="212" height="64" fill="rgba(32,0,255,0)"/></clipPath><clipPath id="b"><rect width="73.133" height="23.399" transform="translate(0 0)" fill="none"/></clipPath></defs><g transform="translate(-20616 -11571)"><g transform="translate(20616 11571)"><rect width="212" height="64" fill="rgba(32,0,255,0)"/><g clip-path="url(#a)"><path d="M70.895,27.538l-3.223,1a4.645,4.645,0,0,1-.967-.9,2.447,2.447,0,0,1-.483-1.611q0-1.935,2.352-2.708l3.61-1.225h1.193a2.783,2.783,0,0,1,3,3V41.881q-.354.064-1.063.161a7.4,7.4,0,0,1-1.386.129,7.824,7.824,0,0,1-1.29-.1,2.154,2.154,0,0,1-.934-.386,2.019,2.019,0,0,1-.613-.774,3.813,3.813,0,0,1-.193-1.321Zm9.2-5.64a2.865,2.865,0,0,1,.806-2.063A2.967,2.967,0,0,1,83.1,19a2.858,2.858,0,0,1,2.159.838,2.958,2.958,0,0,1,0,4.126A2.858,2.858,0,0,1,83.1,24.8a2.967,2.967,0,0,1-2.192-.838A2.863,2.863,0,0,1,80.1,21.9m5.737,19.983q-.354.064-1.063.161a7.383,7.383,0,0,1-1.386.129,7.8,7.8,0,0,1-1.289-.1,2.153,2.153,0,0,1-.935-.386,2.007,2.007,0,0,1-.612-.774,3.811,3.811,0,0,1-.194-1.321V26.475c.237-.043.58-.1,1.032-.161a7.9,7.9,0,0,1,1.418-.129,7.356,7.356,0,0,1,1.257.1,2.2,2.2,0,0,1,.967.387,1.75,1.75,0,0,1,.58.806,3.09,3.09,0,0,1,.225,1.289Zm13.416-9.9a1.723,1.723,0,0,0-.581-1.45,2.211,2.211,0,0,0-1.514-.484,5.278,5.278,0,0,0-1.29.162A3.21,3.21,0,0,0,94.8,30.7V41.881a7.5,7.5,0,0,1-1.032.193,9.943,9.943,0,0,1-1.418.1,7.82,7.82,0,0,1-1.289-.1,2.158,2.158,0,0,1-.935-.386,2.007,2.007,0,0,1-.612-.774,3.813,3.813,0,0,1-.193-1.321v-9.67a2.574,2.574,0,0,1,.354-1.418,4.189,4.189,0,0,1,1.031-1,9.247,9.247,0,0,1,2.74-1.257,13.358,13.358,0,0,1,3.707-.483,8.637,8.637,0,0,1,5.608,1.611,5.348,5.348,0,0,1,1.966,4.416V41.881a7.5,7.5,0,0,1-1.032.193,9.943,9.943,0,0,1-1.418.1,7.82,7.82,0,0,1-1.289-.1,2.158,2.158,0,0,1-.935-.386,2.007,2.007,0,0,1-.612-.774,3.813,3.813,0,0,1-.193-1.321Zm17.694-1.9a4.7,4.7,0,0,0-1.547.257,3.559,3.559,0,0,0-2.1,2,4.333,4.333,0,0,0-.322,1.74,3.8,3.8,0,0,0,1.128,3,4.152,4.152,0,0,0,2.8,1,5.531,5.531,0,0,0,1.676-.226,10.181,10.181,0,0,0,1.257-.483,3.266,3.266,0,0,1,.967,1,2.326,2.326,0,0,1,.322,1.257,2.293,2.293,0,0,1-1.257,2.063,7.135,7.135,0,0,1-3.48.709,11.009,11.009,0,0,1-3.675-.58,8.864,8.864,0,0,1-2.836-1.676,7.687,7.687,0,0,1-1.805-2.611,8.471,8.471,0,0,1-.645-3.352,9.363,9.363,0,0,1,.677-3.707,7.345,7.345,0,0,1,1.9-2.643,8.031,8.031,0,0,1,2.739-1.547,10.653,10.653,0,0,1,3.32-.515,6.428,6.428,0,0,1,3.578.838,2.509,2.509,0,0,1,1.257,2.159,2.448,2.448,0,0,1-.29,1.16,4.148,4.148,0,0,1-.677.9,9.189,9.189,0,0,0-1.322-.484,5.29,5.29,0,0,0-1.676-.257m22.409,11.8a7.512,7.512,0,0,1-1.031.193,9.958,9.958,0,0,1-1.419.1,7.82,7.82,0,0,1-1.289-.1,2.149,2.149,0,0,1-.934-.386,2.019,2.019,0,0,1-.613-.774,3.813,3.813,0,0,1-.193-1.321V32.437A2.179,2.179,0,0,0,133.2,30.6a2.4,2.4,0,0,0-1.612-.548,4.528,4.528,0,0,0-1.224.162,3.492,3.492,0,0,0-.935.386V41.881a7.512,7.512,0,0,1-1.031.193,9.957,9.957,0,0,1-1.419.1,7.82,7.82,0,0,1-1.289-.1,2.149,2.149,0,0,1-.934-.386,2.019,2.019,0,0,1-.613-.774,3.813,3.813,0,0,1-.193-1.321V20.9q.354-.064,1.031-.161a7.915,7.915,0,0,1,1.418-.129,7.233,7.233,0,0,1,1.257.1,2.181,2.181,0,0,1,.967.386,1.743,1.743,0,0,1,.58.806,3.072,3.072,0,0,1,.226,1.289v3.159a9.933,9.933,0,0,1,1.257-.355,7.585,7.585,0,0,1,1.9-.225,7.114,7.114,0,0,1,4.963,1.611,5.962,5.962,0,0,1,1.8,4.738Z" fill="rgba(32,0,255,0)"/></g></g><rect width="212" height="64" transform="translate(20616 11571)" fill="rgba(32,0,255,0)"/><g transform="translate(20685 11591)"><g clip-path="url(#b)"><path d="M4.674,8.541l-3.223,1a4.648,4.648,0,0,1-.968-.9A2.447,2.447,0,0,1,0,7.027Q0,5.092,2.353,4.319l3.61-1.225H7.156A2.962,2.962,0,0,1,9.347,3.9a2.963,2.963,0,0,1,.806,2.192V22.884q-.354.064-1.063.161a7.417,7.417,0,0,1-1.387.129,7.824,7.824,0,0,1-1.29-.1,2.159,2.159,0,0,1-.934-.386,2.016,2.016,0,0,1-.612-.774A3.79,3.79,0,0,1,4.674,20.6Zm9.2-5.64A2.865,2.865,0,0,1,14.683.838,2.969,2.969,0,0,1,16.875,0a2.861,2.861,0,0,1,2.16.838A2.807,2.807,0,0,1,19.872,2.9a2.805,2.805,0,0,1-.837,2.063,2.861,2.861,0,0,1-2.16.838,2.969,2.969,0,0,1-2.192-.838A2.863,2.863,0,0,1,13.877,2.9m5.737,19.983q-.354.064-1.063.161a7.373,7.373,0,0,1-1.385.129,7.815,7.815,0,0,1-1.29-.1,2.158,2.158,0,0,1-.935-.386,2.007,2.007,0,0,1-.612-.774,3.835,3.835,0,0,1-.194-1.321V7.478c.237-.043.58-.1,1.032-.161a7.9,7.9,0,0,1,1.418-.129,7.356,7.356,0,0,1,1.257.1,2.194,2.194,0,0,1,.967.387,1.75,1.75,0,0,1,.58.806,3.09,3.09,0,0,1,.225,1.289Zm13.416-9.9a1.726,1.726,0,0,0-.58-1.45,2.216,2.216,0,0,0-1.515-.484,5.276,5.276,0,0,0-1.289.162,3.192,3.192,0,0,0-1.063.483V22.884a7.524,7.524,0,0,1-1.033.193,9.943,9.943,0,0,1-1.418.1,7.82,7.82,0,0,1-1.289-.1,2.159,2.159,0,0,1-.934-.386,2,2,0,0,1-.613-.774A3.816,3.816,0,0,1,23.1,20.6v-9.67a2.574,2.574,0,0,1,.354-1.418,4.166,4.166,0,0,1,1.03-1,9.241,9.241,0,0,1,2.741-1.257,13.356,13.356,0,0,1,3.706-.483A8.637,8.637,0,0,1,36.543,8.38,5.345,5.345,0,0,1,38.509,12.8V22.884a7.481,7.481,0,0,1-1.031.193,9.957,9.957,0,0,1-1.419.1,7.8,7.8,0,0,1-1.288-.1,2.157,2.157,0,0,1-.936-.386,2.016,2.016,0,0,1-.612-.774A3.813,3.813,0,0,1,33.03,20.6Zm17.694-1.9a4.711,4.711,0,0,0-1.547.257,3.62,3.62,0,0,0-1.256.774,3.657,3.657,0,0,0-.839,1.225,4.35,4.35,0,0,0-.322,1.74,3.8,3.8,0,0,0,1.128,3,4.152,4.152,0,0,0,2.8,1,5.521,5.521,0,0,0,1.676-.226,10.181,10.181,0,0,0,1.257-.483,3.254,3.254,0,0,1,.967,1,2.326,2.326,0,0,1,.322,1.257,2.293,2.293,0,0,1-1.256,2.063,7.141,7.141,0,0,1-3.482.709,11.011,11.011,0,0,1-3.674-.58,8.86,8.86,0,0,1-2.835-1.676,7.7,7.7,0,0,1-1.806-2.611,8.471,8.471,0,0,1-.645-3.352,9.345,9.345,0,0,1,.678-3.707,7.333,7.333,0,0,1,1.9-2.643,8.021,8.021,0,0,1,2.739-1.547,10.647,10.647,0,0,1,3.319-.515,6.428,6.428,0,0,1,3.578.838,2.507,2.507,0,0,1,1.257,2.159,2.448,2.448,0,0,1-.29,1.16,4.148,4.148,0,0,1-.677.9,9.144,9.144,0,0,0-1.322-.484,5.29,5.29,0,0,0-1.676-.257m22.409,11.8a7.46,7.46,0,0,1-1.03.193,9.977,9.977,0,0,1-1.419.1,7.82,7.82,0,0,1-1.289-.1,2.139,2.139,0,0,1-.934-.386,2.012,2.012,0,0,1-.614-.774,3.813,3.813,0,0,1-.193-1.321V13.44a2.182,2.182,0,0,0-.676-1.837,2.406,2.406,0,0,0-1.612-.548,4.523,4.523,0,0,0-1.224.162,3.5,3.5,0,0,0-.936.386V22.884a7.481,7.481,0,0,1-1.031.193,9.953,9.953,0,0,1-1.418.1,7.832,7.832,0,0,1-1.29-.1,2.145,2.145,0,0,1-.933-.386,2.012,2.012,0,0,1-.614-.774,3.84,3.84,0,0,1-.192-1.321V1.9q.354-.064,1.03-.161a7.915,7.915,0,0,1,1.418-.129,7.225,7.225,0,0,1,1.257.1A2.182,2.182,0,0,1,62.4,2.1a1.729,1.729,0,0,1,.58.806,3.057,3.057,0,0,1,.226,1.289V7.349a9.957,9.957,0,0,1,1.258-.355,7.58,7.58,0,0,1,1.9-.225A7.111,7.111,0,0,1,71.328,8.38a5.959,5.959,0,0,1,1.805,4.738Z" fill="#e1ebff"/></g></g></g></svg>