<svg xmlns="http://www.w3.org/2000/svg" width="212" height="64" viewBox="0 0 212 64">
  <g id="bancor" transform="translate(-20855 -12022)">
    <rect id="Rectangle_415" data-name="Rectangle 415" width="212" height="64" transform="translate(20855 12022)" fill="none"/>
    <g id="bancor-2" data-name="bancor" transform="translate(20900.074 12038.889)">
      <path id="Path_663" data-name="Path 663" d="M9.477.057l7.382,4.09a.4.4,0,0,1,0,.715L9.477,8.953a.448.448,0,0,1-.43,0L1.665,4.863a.4.4,0,0,1,0-.715L9.047.057A.431.431,0,0,1,9.477.057Z" transform="translate(0.061 0)" fill="#e1ebff" fill-rule="evenodd"/>
      <path id="Path_664" data-name="Path 664" d="M18.214,6.194v8.184a.42.42,0,0,1-.215.359L10.45,18.911a.429.429,0,0,1-.644-.359V10.371a.42.42,0,0,1,.215-.359l7.545-4.18A.435.435,0,0,1,18.214,6.194Z" transform="translate(0.413 0.243)" fill="#e1ebff" fill-rule="evenodd"/>
      <path id="Path_665" data-name="Path 665" d="M20.3,14.96,10.021,20.637A.412.412,0,0,0,9.806,21V29.18a.431.431,0,0,0,.644.359l10.271-5.68a.412.412,0,0,0,.215-.359V15.316A.427.427,0,0,0,20.3,14.96Z" transform="translate(0.413 0.628)" fill="#e1ebff" fill-rule="evenodd"/>
      <path id="Path_666" data-name="Path 666" d="M0,14.372V6.191a.431.431,0,0,1,.644-.359l7.541,4.18a.412.412,0,0,1,.215.359v8.181a.431.431,0,0,1-.644.359L.215,14.728A.411.411,0,0,1,0,14.372Z" transform="translate(0 0.243)" fill="#e1ebff" fill-rule="evenodd"/>
      <path id="Path_667" data-name="Path 667" d="M0,16.755V24.94a.42.42,0,0,0,.215.359l7.541,4.177a.43.43,0,0,0,.644-.359V20.936a.42.42,0,0,0-.215-.359L.644,16.4A.431.431,0,0,0,0,16.755Z" transform="translate(0 0.689)" fill="#e1ebff" fill-rule="evenodd"/>
      <path id="Path_668" data-name="Path 668" d="M40.552,16.834A4.459,4.459,0,0,1,41.6,19.751a4.57,4.57,0,0,1-.758,2.614,5.021,5.021,0,0,1-2.189,1.763,8.3,8.3,0,0,1-3.386.636H26.982V6.249h7.928a8.555,8.555,0,0,1,3.372.609,4.749,4.749,0,0,1,2.147,1.7,4.339,4.339,0,0,1,.73,2.466,4.126,4.126,0,0,1-.894,2.705,4.778,4.778,0,0,1-2.381,1.538A4.361,4.361,0,0,1,40.552,16.834ZM30.837,13.89h3.523a3.315,3.315,0,0,0,2.119-.6,2.067,2.067,0,0,0,.744-1.713,2.1,2.1,0,0,0-.744-1.723,3.256,3.256,0,0,0-2.119-.609H30.837Zm6.071,7.217a2.189,2.189,0,0,0,.785-1.8,2.286,2.286,0,0,0-.827-1.871,3.42,3.42,0,0,0-2.231-.676h-3.8v4.986h3.882A3.39,3.39,0,0,0,36.908,21.107Z" transform="translate(1.137 0.263)" fill="#e1ebff"/>
      <path id="Path_669" data-name="Path 669" d="M43.267,13.267a6.629,6.629,0,0,1,2.5-2.655,6.857,6.857,0,0,1,3.536-.929,6.434,6.434,0,0,1,2.988.663,5.985,5.985,0,0,1,2.049,1.672V9.926h3.882v14.7H54.348v-2.15A5.692,5.692,0,0,1,52.3,24.184a6.476,6.476,0,0,1-3.013.676,6.664,6.664,0,0,1-3.509-.956,6.774,6.774,0,0,1-2.5-2.692,8.392,8.392,0,0,1-.922-3.994A8.176,8.176,0,0,1,43.267,13.267ZM53.8,14.952a3.812,3.812,0,0,0-1.487-1.487,4.079,4.079,0,0,0-2.011-.518,4.022,4.022,0,0,0-1.983.5,3.885,3.885,0,0,0-1.473,1.474,4.47,4.47,0,0,0-.566,2.295,4.615,4.615,0,0,0,.566,2.321,3.986,3.986,0,0,0,1.487,1.524A3.889,3.889,0,0,0,50.3,21.6a4.079,4.079,0,0,0,2.011-.518A3.812,3.812,0,0,0,53.8,19.592a4.632,4.632,0,0,0,.551-2.321A4.627,4.627,0,0,0,53.8,14.952Z" transform="translate(1.785 0.408)" fill="#e1ebff"/>
      <path id="Path_670" data-name="Path 670" d="M73.39,11.37A6.2,6.2,0,0,1,75.069,16v8.62H71.215V16.5a3.724,3.724,0,0,0-.908-2.692,3.275,3.275,0,0,0-2.479-.942,3.354,3.354,0,0,0-2.517.942A3.69,3.69,0,0,0,64.39,16.5v8.119H60.535V9.927H64.39v1.83a5.306,5.306,0,0,1,1.969-1.5,6.278,6.278,0,0,1,2.629-.545A6.018,6.018,0,0,1,73.39,11.37Z" transform="translate(2.551 0.409)" fill="#e1ebff"/>
      <path id="Path_671" data-name="Path 671" d="M77.338,13.28a6.771,6.771,0,0,1,2.671-2.655,7.944,7.944,0,0,1,3.91-.942,7.7,7.7,0,0,1,4.692,1.366A6.62,6.62,0,0,1,91.1,14.882H86.946a2.918,2.918,0,0,0-1.114-1.5,3.32,3.32,0,0,0-1.941-.545,3.226,3.226,0,0,0-2.615,1.154,4.978,4.978,0,0,0-.964,3.277,4.936,4.936,0,0,0,.964,3.25,3.226,3.226,0,0,0,2.615,1.154,2.92,2.92,0,0,0,3.055-2.015H91.1a6.754,6.754,0,0,1-2.5,3.792,7.564,7.564,0,0,1-4.678,1.406,7.942,7.942,0,0,1-3.91-.942,6.748,6.748,0,0,1-2.671-2.655,8,8,0,0,1-.964-3.994A7.923,7.923,0,0,1,77.338,13.28Z" transform="translate(3.218 0.408)" fill="#e1ebff"/>
      <path id="Path_672" data-name="Path 672" d="M95.4,23.921a6.931,6.931,0,0,1-2.768-2.665,7.758,7.758,0,0,1-1.005-3.98,7.606,7.606,0,0,1,1.033-3.98,7.02,7.02,0,0,1,2.821-2.665,8.923,8.923,0,0,1,7.981,0,7.069,7.069,0,0,1,2.82,2.665,7.606,7.606,0,0,1,1.034,3.98,7.422,7.422,0,0,1-1.062,3.98,7.193,7.193,0,0,1-2.862,2.665,8.56,8.56,0,0,1-4.033.942A8.289,8.289,0,0,1,95.4,23.921Zm5.931-2.786a3.631,3.631,0,0,0,1.474-1.47,4.824,4.824,0,0,0,.551-2.389,4.335,4.335,0,0,0-1.141-3.223,3.832,3.832,0,0,0-2.793-1.127,3.734,3.734,0,0,0-2.765,1.127,4.388,4.388,0,0,0-1.114,3.223A4.466,4.466,0,0,0,96.629,20.5a3.65,3.65,0,0,0,2.737,1.127A4.135,4.135,0,0,0,101.331,21.135Z" transform="translate(3.861 0.408)" fill="#e1ebff"/>
      <path id="Path_673" data-name="Path 673" d="M114.531,10.375a5.57,5.57,0,0,1,2.737-.663v3.9h-1.019a4.009,4.009,0,0,0-2.737.821,3.707,3.707,0,0,0-.922,2.866v7.321h-3.854V9.924h3.854v2.281A5.3,5.3,0,0,1,114.531,10.375Z" transform="translate(4.582 0.409)" fill="#e1ebff"/>
    </g>
  </g>
</svg>
