<svg xmlns="http://www.w3.org/2000/svg" xmlns:xlink="http://www.w3.org/1999/xlink" width="212" height="64" viewBox="0 0 212 64">
  <defs>
    <clipPath id="clip-path">
      <rect id="Rectangle_411" data-name="Rectangle 411" width="164.436" height="26.277" fill="#e1ebff"/>
    </clipPath>
    <clipPath id="clip-path-2">
      <rect id="Rectangle_410" data-name="Rectangle 410" width="164.436" height="26.279" transform="translate(0 0)" fill="#e1ebff"/>
    </clipPath>
  </defs>
  <g id="binance-us" transform="translate(-20616 -12022)">
    <rect id="Rectangle_405" data-name="Rectangle 405" width="212" height="64" transform="translate(20616 12022)" fill="none"/>
    <g id="Binance.us" transform="translate(20631.219 12034.929)">
      <g id="Group_550" data-name="Group 550" transform="translate(5.839 6.447)">
        <g id="Group_549" data-name="Group 549" clip-path="url(#clip-path)">
          <g id="Group_548" data-name="Group 548" transform="translate(-0.007 0.003)" clip-path="url(#clip-path-2)">
            <path id="Path_662" data-name="Path 662" d="M-346.062-43.115l-2.97,2.968L-352-43.115l2.968-2.968Zm7.2-7.207,5.087,5.087,2.968-2.968-8.055-8.052-8.052,8.052,2.968,2.968,5.087-5.087Zm10.174,4.239-2.968,2.968,2.968,2.968,2.965-2.968-2.965-2.968ZM-338.861-35.91l-5.087-5.085-2.968,2.968,8.052,8.052,8.055-8.052-2.968-2.965-5.085,5.082Zm0-4.237,2.968-2.968-2.968-2.968-2.968,2.968,2.968,2.968Zm31.32.285V-39.9c0-1.937-1.028-2.9-2.7-3.541a3.358,3.358,0,0,0,1.9-3.109v-.041c0-2.264-1.814-3.728-4.758-3.728h-6.685v14.414h6.855c3.253,0,5.393-1.318,5.39-3.954Zm-3.952-6.161c0,1.071-.884,1.524-2.287,1.524H-316.7v-3.042h3.129c1.339,0,2.079.534,2.079,1.48l0,.039Zm.8,5.766c0,1.069-.843,1.562-2.243,1.562H-316.7v-3.165h3.664c1.629,0,2.346.6,2.346,1.567l0,.036Zm9.81,4.35V-50.319h-3.181v14.411Zm17.045,0V-50.319h-3.14v8.874l-6.755-8.874h-2.921v14.411h3.129v-9.165l6.978,9.162,2.708,0Zm17.561,0-6.187-14.514h-2.921l-6.177,14.514h3.232L-277-39.14h6.092l1.321,3.232Zm-5.766-6.033h-3.836l1.914-4.671Zm20.878,6.033V-50.319h-3.14v8.874l-6.752-8.877h-2.924V-35.91h3.129v-9.162l6.981,9.162,2.705,0Zm16.367-2.328-2.017-2.04a5.207,5.207,0,0,1-3.787,1.688,4.28,4.28,0,0,1-4.18-4.53v-.041a4.271,4.271,0,0,1,4.18-4.489,5.328,5.328,0,0,1,3.684,1.626l2.012-2.325a7.439,7.439,0,0,0-5.681-2.222,7.321,7.321,0,0,0-7.513,7.446v.041a7.272,7.272,0,0,0,7.389,7.41,7.329,7.329,0,0,0,5.9-2.564Zm13.527,2.328v-2.824H-229.1v-3.032h6.8v-2.826h-6.8V-47.5h7.718v-2.824H-232.25V-35.91l10.981,0Zm3.782,0v-2.163h1.9v2.163Zm16.683-6.159c0,4.2-2.413,6.385-6.015,6.385s-6-2.181-6-6.261v-8.384h1.626v8.281c0,3.109,1.644,4.859,4.409,4.859,2.657,0,4.347-1.606,4.347-4.758v-8.384h1.629l.008,8.263Zm8.54-1.837c3.214.7,4.7,1.876,4.7,4.108,0,2.492-2.055,4.108-4.925,4.108a8.517,8.517,0,0,1-5.9-2.31l1.023-1.2a6.865,6.865,0,0,0,4.943,2.04c1.935-.008,3.219-1.015,3.219-2.474,0-1.362-.722-2.122-3.751-2.762-3.317-.722-4.843-1.8-4.843-4.183,0-2.31,2-3.952,4.74-3.952A7.509,7.509,0,0,1-188-48.754l-.956,1.254a6.333,6.333,0,0,0-4.162-1.567c-1.873,0-3.081,1.028-3.081,2.348.015,1.377.758,2.13,3.931,2.819Z" transform="translate(352 56.254)" fill="#e1ebff"/>
          </g>
        </g>
      </g>
      <rect id="Rectangle_412" data-name="Rectangle 412" width="182.561" height="38.143" transform="translate(0 0)" fill="none"/>
    </g>
  </g>
</svg>
