<svg xmlns="http://www.w3.org/2000/svg" xmlns:xlink="http://www.w3.org/1999/xlink" width="212" height="64" viewBox="0 0 212 64"><defs><clipPath id="a"><rect width="132.095" height="24.541" transform="translate(0 0)" fill="none"/></clipPath></defs><g transform="translate(-20849 -11571)"><rect width="212" height="64" transform="translate(20849 11571)" fill="rgba(32,0,255,0)"/><g transform="translate(20889 11591)"><path d="M13.212,0,5.1,7.54l2.985,2.772,5.131-4.764,5.134,4.768,2.983-2.774Z" fill="#e1ebff"/><path d="M0,12.27l2.985,2.773L5.97,12.27,2.985,9.5Z" fill="#e1ebff"/><path d="M13.212,19,8.081,14.229,5.091,17,5.1,17l8.116,7.539L21.329,17l0,0-2.986-2.77Z" fill="#e1ebff"/><path d="M20.449,12.272,23.434,9.5l2.985,2.773-2.985,2.773Z" fill="#e1ebff"/><path d="M16.24,12.269,13.212,9.455l-2.239,2.079-.258.239-.53.492,0,0,0,.006,3.027,2.81,3.028-2.814,0,0Z" fill="#e1ebff"/><g clip-path="url(#a)"><path d="M31.076,5.946H37.57a5.162,5.162,0,0,1,3.656,1.163,3.016,3.016,0,0,1,.721,1.006A2.82,2.82,0,0,1,42.184,9.3V9.34a3.027,3.027,0,0,1-.149.985,2.989,2.989,0,0,1-.974,1.38,3.8,3.8,0,0,1-.707.446,4.777,4.777,0,0,1,1.913,1.163,2.84,2.84,0,0,1,.7,2.035v.037a3.18,3.18,0,0,1-.369,1.562,3.14,3.14,0,0,1-1.058,1.117,5.215,5.215,0,0,1-1.659.668,9.559,9.559,0,0,1-2.147.223H31.076Zm5.843,5.261a3.413,3.413,0,0,0,1.621-.326,1.162,1.162,0,0,0,.46-.446,1.054,1.054,0,0,0,.137-.6V9.794a1.082,1.082,0,0,0-.123-.559,1.168,1.168,0,0,0-.4-.436,2.729,2.729,0,0,0-1.5-.343H34.079v2.751Zm.82,5.243a3.154,3.154,0,0,0,1.607-.343,1.212,1.212,0,0,0,.447-.461,1.113,1.113,0,0,0,.133-.609V15a1.158,1.158,0,0,0-.132-.578,1.258,1.258,0,0,0-.409-.453,3.037,3.037,0,0,0-1.74-.388H34.079V16.45Z" fill="#e1ebff"/><rect width="3.082" height="13.014" transform="translate(46.831 5.947)" fill="#e1ebff"/><path d="M54.578,5.947H57.42l6.569,8.009V5.947h3.042V18.961H64.409l-6.784-8.273v8.273H54.578Z" fill="#e1ebff"/><path d="M76.361,5.854H79.2l6,13.107H81.985L80.7,16.042H74.78L73.5,18.961H70.356Zm3.243,7.66L77.739,9.292l-1.857,4.222Z" fill="#e1ebff"/><path d="M88.536,5.947h2.842l6.565,8.009V5.947h3.042V18.961H98.362l-6.784-8.273v8.273H88.536Z" fill="#e1ebff"/><path d="M112.078,19.189a7.783,7.783,0,0,1-2.863-.519,7,7,0,0,1-2.278-1.421,6.465,6.465,0,0,1-2.046-4.753v-.037a6.506,6.506,0,0,1,2.044-4.751,6.98,6.98,0,0,1,2.3-1.45,7.987,7.987,0,0,1,2.96-.529,9.94,9.94,0,0,1,1.791.15,7.768,7.768,0,0,1,1.473.409,6.53,6.53,0,0,1,1.221.631,8.225,8.225,0,0,1,1.043.818l-1.96,2.1a7.426,7.426,0,0,0-1.669-1.08,4.536,4.536,0,0,0-1.91-.388,4.142,4.142,0,0,0-1.6.3,3.9,3.9,0,0,0-1.323.887,4.033,4.033,0,0,0-.843,1.293,4.151,4.151,0,0,0-.3,1.572v.037a4.219,4.219,0,0,0,.3,1.57,4.054,4.054,0,0,0,.835,1.3,3.838,3.838,0,0,0,1.319.9,4.086,4.086,0,0,0,1.6.31,4.55,4.55,0,0,0,2.03-.409,7.891,7.891,0,0,0,1.651-1.116l1.962,1.841a9.89,9.89,0,0,1-1.121.969,6.793,6.793,0,0,1-1.271.735,6.957,6.957,0,0,1-1.511.463,9.6,9.6,0,0,1-1.832.163" fill="#e1ebff"/><path d="M121.447,5.947h10.544V8.494h-7.512v2.64h6.615v2.547h-6.6v2.733h7.605v2.547H121.453Z" fill="#e1ebff"/></g></g></g></svg>