<svg xmlns="http://www.w3.org/2000/svg" width="212" height="64" viewBox="0 0 212 64">
  <g id="bitvavo" transform="translate(-21094 -12022)">
    <rect id="Rectangle_416" data-name="Rectangle 416" width="212" height="64" transform="translate(21094 12022)" fill="none"/>
    <g id="Group_554" data-name="Group 554">
      <path id="Union_2" data-name="Union 2" d="M96.869,14.748A8.51,8.51,0,0,1,110.223,8.51V6.966h3.648V23.987h-3.648V22.459a8.349,8.349,0,0,1-1.275.736,8.489,8.489,0,0,1-12.079-8.447Zm4.28-1.707a4.862,4.862,0,1,0,4.211-2.431A4.863,4.863,0,0,0,101.149,13.041Zm-58.2,9.41v1.527H39.307V0h3.647V8.51a8.517,8.517,0,1,1,4.862,15.495A8.414,8.414,0,0,1,42.953,22.451Zm.652-9.4a4.863,4.863,0,0,0,4.212,7.295v-.013A4.857,4.857,0,1,0,43.6,13.053Zm79.336,10.942L116.3,6.975h3.648l4.887,12.514,4.883-12.514h3.647l-6.646,17.02Zm-37.323,0L78.976,6.975h3.647L87.53,19.489,92.393,6.975h3.656l-6.642,17.02Zm-26.05,0V6.974h3.647v17.02Zm75.754-4.267a8.509,8.509,0,1,1,7.37,4.255A8.509,8.509,0,0,1,135.322,19.727Zm3.158-6.686a4.862,4.862,0,1,0,4.211-2.431A4.863,4.863,0,0,0,138.48,13.041ZM73.31,23.979a4.248,4.248,0,0,1-4.239-4.252V10.622H66.053V6.975h3V3.368L72.7,2.084V6.97h3.785l1.281,3.647H72.682v7.9a1.659,1.659,0,0,0,1.621,1.82H77.14l.021,3.643Zm-59.357-.271,6.218-10.5H28.6l-6.222,10.5ZM0,23.708,12.431,2.848H20.86L8.415,23.708ZM59.568,5.154V1.508h3.647V5.154Z" transform="translate(21124 12042)" fill="#e1ebff"/>
    </g>
  </g>
</svg>
