<svg xmlns="http://www.w3.org/2000/svg" xmlns:xlink="http://www.w3.org/1999/xlink" width="212" height="64" viewBox="0 0 212 64"><defs><clipPath id="a"><rect width="135.945" height="31.413" transform="translate(0 0)" fill="none"/></clipPath></defs><g transform="translate(-21079 -11571)"><rect width="212" height="64" transform="translate(21079 11571)" fill="rgba(32,0,255,0)"/><g transform="translate(21117 11587)"><g clip-path="url(#a)"><path d="M38.472,15.815a6.022,6.022,0,0,1,10.559-3.988l-1.088,1.155a4.671,4.671,0,0,0-3.557-1.7,4.288,4.288,0,0,0-4.146,4.532,4.324,4.324,0,0,0,4.237,4.508,4.761,4.761,0,0,0,3.489-1.744L49.1,19.621a5.966,5.966,0,0,1-10.627-3.806M51.047,6.094l1.722-.838v6.8a4.415,4.415,0,0,1,3.965-2.265c2.787,0,4.419,1.88,4.419,4.645v7.182H59.431v-6.8c0-2.153-1.156-3.49-3.195-3.49a3.4,3.4,0,0,0-3.467,3.626v6.638H51.047ZM71.666,17.333V16.268a12.148,12.148,0,0,0-3.376-.5c-2.153,0-3.376.952-3.376,2.379,0,1.45,1.337,2.311,2.9,2.311,2.13-.022,3.852-1.291,3.852-3.126m-8.5.861c0-2.493,2.017-3.784,4.939-3.784a11.964,11.964,0,0,1,3.535.5v-.362c0-2.062-1.246-3.127-3.421-3.127a7.954,7.954,0,0,0-3.512.838l-.521-1.4a9.39,9.39,0,0,1,4.214-1,5.215,5.215,0,0,1,3.739,1.268,4.551,4.551,0,0,1,1.2,3.4v7.069h-1.7V19.87a5.125,5.125,0,0,1-4.169,1.972c-2.152,0-4.305-1.247-4.305-3.648m13.1-8.18h1.722v2.017a4.415,4.415,0,0,1,3.965-2.266c2.787,0,4.419,1.881,4.419,4.645v7.182H84.649V14.818c0-2.153-1.156-3.49-3.195-3.49a3.4,3.4,0,0,0-3.467,3.626v6.638H76.265ZM98.538,15.2a4.056,4.056,0,0,0-4.26-3.92,3.836,3.836,0,0,0-4.01,3.943,3.917,3.917,0,0,0,4.01,3.942,4.093,4.093,0,0,0,4.26-3.965m-9.494,8.406.793-1.337a7.268,7.268,0,0,0,4.441,1.473c2.538,0,4.214-1.405,4.214-4.124V18.262a5.5,5.5,0,0,1-4.531,2.447,5.369,5.369,0,0,1-5.438-5.461,5.467,5.467,0,0,1,9.947-3.127V10.037h1.722v9.539a5.651,5.651,0,0,1-1.473,4.1,5.981,5.981,0,0,1-4.4,1.541,9.19,9.19,0,0,1-5.279-1.609m22.7-8.5c-.2-2.107-1.4-3.9-3.693-3.9-1.994,0-3.512,1.654-3.761,3.9Zm-3.376,5.234a4.847,4.847,0,0,0,3.648-1.631l1.065.974a5.99,5.99,0,0,1-4.758,2.175,5.77,5.77,0,0,1-5.778-6.049c0-3.354,2.356-6.05,5.551-6.05,3.421,0,5.393,2.742,5.393,6.14,0,.159,0,.34-.023.612h-9.176a4.041,4.041,0,0,0,4.078,3.829M115.893,6.82l1.722-.861V21.57h-1.722Zm4.872-.726,1.722-.838V21.615h-1.722Zm4.01,18.557.59-1.359a3.576,3.576,0,0,0,1.812.43c1.019,0,1.676-.544,2.379-2.175L124.3,10.014h1.9l4.191,9.652,3.716-9.652h1.835L131.1,21.977c-.975,2.4-2.108,3.263-3.852,3.263a5.166,5.166,0,0,1-2.47-.589" fill="#e1ebff"/><path d="M16.2,26.532a5.887,5.887,0,0,1-.816.68,13.265,13.265,0,0,1-1.79,1.133,15.117,15.117,0,0,1-3.942,1.382c-.34.068-.68.136-1.02.181l-.521.068L7.862,30l-.249.022-.521.046-.521.022c-.34.023-.7.023-1.043.046Q4,30.135,2.47,30c.113-.159.226-.34.339-.521a17.851,17.851,0,0,0,.884-1.586,22.717,22.717,0,0,0,1.2-3.354,34,34,0,0,1,1.065-3.262,26.264,26.264,0,0,1,1.427-3.15,10.739,10.739,0,0,0-1.042,1.405c-.317.476-.634,1-.906,1.495a21.206,21.206,0,0,0-1.45,3.2,27.364,27.364,0,0,1-1.36,3.1,15.914,15.914,0,0,1-1.88,2.742L0,30.973l1.178.159a25.917,25.917,0,0,0,4.4.271c.362-.022.747-.022,1.11-.068l.544-.045.543-.068c.363-.045.725-.136,1.088-.181.363-.091.725-.159,1.088-.272.362-.091.7-.227,1.064-.34.34-.136.7-.272,1.043-.43A12.614,12.614,0,0,0,14,28.911a10.212,10.212,0,0,0,1.7-1.427,7.45,7.45,0,0,0,1.268-1.768,5.308,5.308,0,0,1-.77.816M24.311,6.979a2.187,2.187,0,0,1,3.082,0,2.179,2.179,0,1,1-3.082,3.081,2.189,2.189,0,0,1,0-3.081m1.541,5.029a3.463,3.463,0,0,0,2.47-1.019,3.5,3.5,0,0,0-4.939-4.962,3.5,3.5,0,0,0,0,4.939,3.406,3.406,0,0,0,2.469,1.042m1.02,5.03c-5.008,4.419-7.092,4.827-9.177,3.875l2.266-2.855a3.665,3.665,0,0,0,.7-1.427L21.57,12.8l-3.807.906a3.663,3.663,0,0,0-1.427.7l-2.855,2.266c-.974-2.085-.544-4.169,3.852-9.176C21.5,2.764,30.293,1.677,32.9,1.45c-.2,2.606-1.292,11.42-6.027,15.588m-3.331,6.843a.815.815,0,0,1-.34.521c-.521.363-1.337.861-2.062,1.314l.046-.136a4.947,4.947,0,0,0,0-3.172A11.732,11.732,0,0,0,24.311,20.8c-.294,1.065-.611,2.333-.77,3.081m-7.907-2.47a1.485,1.485,0,0,1-1.247.567H13.232l3.942-4.758-4.758,3.942V20.007a1.488,1.488,0,0,1,.567-1.247l4.169-3.308A2.865,2.865,0,0,1,18.058,15l1.7-.408-.408,1.7a2.357,2.357,0,0,1-.453.929Zm-6.8-8.2-.136.046c.431-.725.929-1.541,1.292-2.062a.819.819,0,0,1,.521-.34c.748-.159,2.016-.476,3.081-.748a11.833,11.833,0,0,0-1.608,3.15,4.289,4.289,0,0,0-3.15-.046M33.6.068c-.476.023-11.986.544-17.265,6.548-.5.566-.974,1.156-1.45,1.745-.771.2-3.444.929-4.622,1.178a2.163,2.163,0,0,0-1.36.906c-.815,1.178-2.22,3.6-2.265,3.693l-1.02,1.745,1.858-.816C8.7,14.546,10.74,14,11.465,14.433a.612.612,0,0,1,.271.544,5.834,5.834,0,0,0,.68,2.537l-.249.2A2.828,2.828,0,0,0,11.1,20.052v3.24h3.24a2.828,2.828,0,0,0,2.334-1.065l.2-.249a5.534,5.534,0,0,0,2.537.68.594.594,0,0,1,.544.271c.453.726-.09,2.787-.634,4.011L18.511,28.8l1.745-1.02c.113-.068,2.515-1.473,3.693-2.288a2.164,2.164,0,0,0,.884-1.36c.249-1.178.974-3.874,1.178-4.644.544-.431,1.11-.929,1.722-1.473C33.714,12.734,34.258,1.2,34.281.725L34.3,0Z" fill="#e1ebff"/></g></g></g></svg>