<svg xmlns="http://www.w3.org/2000/svg" xmlns:xlink="http://www.w3.org/1999/xlink" width="212" height="64" viewBox="0 0 212 64"><defs><clipPath id="a"><rect width="156.279" height="30.005" transform="translate(0 0.001)" fill="none"/></clipPath></defs><g transform="translate(-21079 -11654)"><rect width="212" height="64" transform="translate(21079 11654)" fill="rgba(32,0,255,0)"/><g transform="translate(21107 11671)"><g clip-path="url(#a)"><path d="M40.58,21.957a5.889,5.889,0,0,1-5.965-5.991A5.976,5.976,0,0,1,40.606,9.9a5.773,5.773,0,0,1,4.61,1.98l-1.641,1.771a3.86,3.86,0,0,0-2.995-1.432,3.482,3.482,0,0,0-3.334,3.7,3.534,3.534,0,0,0,3.464,3.751,4.12,4.12,0,0,0,3-1.433l1.588,1.589a5.967,5.967,0,0,1-4.714,2.136" fill="#e1ebff"/><path d="M50.322,21.957H47.665V9.924h2.657v2.813a4.083,4.083,0,0,1,4.089-2.813v2.813h-.156c-2.318,0-3.933,1.51-3.933,4.584Z" fill="#e1ebff"/><path d="M68.294,9.872l-5.86,15.315H59.751l1.276-3.229L56,9.872h2.839l3.412,8.934,3.282-8.934Z" fill="#e1ebff"/><path d="M76.108,12.19a3.465,3.465,0,0,0-3.36,3.724,3.481,3.481,0,0,0,3.36,3.725c1.823,0,3.308-1.433,3.308-3.725a3.411,3.411,0,0,0-3.308-3.724m.6,9.741A4.7,4.7,0,0,1,72.8,19.9v5.288H70.143V9.871H72.8v2.162a4.63,4.63,0,0,1,3.907-2.162c2.735,0,5.392,2.162,5.392,6.017s-2.631,6.043-5.392,6.043" fill="#e1ebff"/><path d="M87.907,12.4v5.678a1.259,1.259,0,0,0,1.433,1.433h1.041v2.37H88.558c-1.927,0-3.308-.86-3.308-3.386V12.4H83.792V10.132H85.25V6.954h2.657v3.178h2.474V12.4Z" fill="#e1ebff"/><path d="M98.742,12.19a3.477,3.477,0,0,0-3.49,3.7,3.574,3.574,0,0,0,3.516,3.751,3.477,3.477,0,0,0,3.49-3.7,3.526,3.526,0,0,0-3.516-3.75m0,9.767a5.973,5.973,0,0,1-6.121-5.991A6.05,6.05,0,0,1,98.794,9.9a5.985,5.985,0,0,1,6.147,6.017,6.05,6.05,0,0,1-6.2,6.043" fill="#e1ebff"/><path d="M130.284,12.19a3.477,3.477,0,0,0-3.49,3.7,3.574,3.574,0,0,0,3.516,3.751,3.477,3.477,0,0,0,3.49-3.7,3.542,3.542,0,0,0-3.516-3.75m0,9.767a5.973,5.973,0,0,1-6.121-5.991A6.05,6.05,0,0,1,130.336,9.9a5.985,5.985,0,0,1,6.147,6.017,6.067,6.067,0,0,1-6.2,6.043" fill="#e1ebff"/><path d="M152.215,9.872c2.527,0,4.063,1.589,4.063,4.428v7.632h-2.656V15.107c0-1.849-.86-2.813-2.345-2.813-1.432,0-2.474,1.016-2.474,2.865v6.8h-2.657V15.107c0-1.8-.885-2.813-2.344-2.813s-2.474,1.094-2.474,2.891v6.773h-2.657V9.9h2.657v1.98a4.164,4.164,0,0,1,3.516-1.98,3.644,3.644,0,0,1,3.438,2.032,4.741,4.741,0,0,1,3.933-2.058" fill="#e1ebff"/><path d="M109.812,19.509v1.354l-.078.131-1.172.651H108.4l-1.146-.651-.078-.131V19.509l.078-.13,1.146-.651h.157l1.172.651Z" fill="#e1ebff"/><path d="M117.86,21.931A5.925,5.925,0,0,1,112,15.81a5.945,5.945,0,0,1,6.12-5.939,5.823,5.823,0,0,1,4.585,2.084L121.038,13.7a3.92,3.92,0,0,0-2.97-1.51,3.46,3.46,0,0,0-3.386,3.646,3.5,3.5,0,0,0,3.386,3.8,4.03,4.03,0,0,0,3.022-1.381l1.563,1.615a5.927,5.927,0,0,1-4.793,2.058" fill="#e1ebff"/></g><path d="M-21094.006-11640.993h0l-12.994-7.5v-15.007l12.994-7.5,13,7.5v15.007l-13,7.5Zm-6.324-16.517-3.437,2.554,4.66,8.125h1.875l2.215-2.055v-1.044l-2.293-2.187v-3.464Zm12.682-.026-2.994,1.955v3.464l-2.293,2.188v1.044l2.215,2.028h1.848l4.641-8.1Zm-9.662-.959,1.117,2.914-.334,3.257h5.049l-.312-3.257,1.1-2.914Zm-1.82-6.018-1.2,5.207h12.654l-1.223-5.207Z" transform="translate(21107 11671)" fill="#e1ebff" stroke="rgba(0,0,0,0)" stroke-miterlimit="10" stroke-width="1"/></g></g></svg>