<svg xmlns="http://www.w3.org/2000/svg" xmlns:xlink="http://www.w3.org/1999/xlink" width="212" height="64" viewBox="0 0 212 64"><defs><clipPath id="a"><rect width="102.561" height="27.777" transform="translate(0 0)" fill="none"/></clipPath></defs><g transform="translate(-21311 -11654)"><rect width="212" height="64" transform="translate(21311 11654)" fill="rgba(32,0,255,0)"/><g transform="translate(21366 11672)"><g clip-path="url(#a)"><path d="M57.059,6.483H55.916a.894.894,0,0,0-.9.893v.638a5.6,5.6,0,0,0-4.133-1.9A5.726,5.726,0,0,0,46.443,8.1a7.127,7.127,0,0,0-1.775,4.948,7.37,7.37,0,0,0,1.773,5.042,5.853,5.853,0,0,0,8.58.213V19.56a1.112,1.112,0,0,0,1.109,1.111h1.952V7.505a1.023,1.023,0,0,0-1.023-1.022m-2.893,9.691h0a3.5,3.5,0,0,1-2.736,1.163,3.32,3.32,0,0,1-2.63-1.2,4.6,4.6,0,0,1-1.016-3.091,4.4,4.4,0,0,1,1.043-2.982,3.365,3.365,0,0,1,2.629-1.191,3.438,3.438,0,0,1,2.71,1.183,4.5,4.5,0,0,1,1.046,3.06,4.508,4.508,0,0,1-1.046,3.063" fill="#e1ebff"/><path d="M100.531,9.847h0a7.221,7.221,0,0,0-10-.01A6.553,6.553,0,0,0,88.48,14.7a6.84,6.84,0,0,0,2.006,5.043,6.715,6.715,0,0,0,4.974,2.032,7,7,0,0,0,5.056-1.992,6.7,6.7,0,0,0,2.046-4.974,6.729,6.729,0,0,0-2.031-4.963M98.373,17.9a4.111,4.111,0,0,1-5.72-.016,4.454,4.454,0,0,1-1.058-3.13,4.247,4.247,0,0,1,1.085-3.007,4.055,4.055,0,0,1,5.693,0,4.328,4.328,0,0,1,1.072,3.073A4.346,4.346,0,0,1,98.373,17.9Z" fill="#e1ebff"/><path d="M70.016,6.493h0v-.01H63.693V2.61a.9.9,0,0,0-.9-.9H61.557a.913.913,0,0,0-.912.912V6.483h-1.3V9.326h1.3V20.669h1.739a1.305,1.305,0,0,0,1.309-1.309V9.328h3.128a6.449,6.449,0,0,1,.9-1.3,5.629,5.629,0,0,1,2.3-1.531" fill="#e1ebff"/><path d="M81.714,18.15v0h0a1.54,1.54,0,0,0-1.533,1.521,1.617,1.617,0,0,0,.952,1.467,1.591,1.591,0,0,0,1.673-.364,1.48,1.48,0,0,0,.454-1.091,1.443,1.443,0,0,0-.454-1.082,1.493,1.493,0,0,0-1.093-.447" fill="#e1ebff"/><path d="M86.2,7.977v0H85.091a1.027,1.027,0,0,0-1.029,1.029v9.681a1.546,1.546,0,0,1,0,1.947v.545h1.963a1.088,1.088,0,0,0,1.087-1.09V8.889a.914.914,0,0,0-.916-.912" fill="#e1ebff"/><path d="M43.744,6.485H42.538a.918.918,0,0,0-.921.92v.568a5.323,5.323,0,0,0-4.148-1.858,5.615,5.615,0,0,0-4.582,2.142,7.6,7.6,0,0,0-1.613,4.906,7.229,7.229,0,0,0,1.737,4.948,5.613,5.613,0,0,0,4.418,1.951,5.694,5.694,0,0,0,4.188-1.855V20.05q0,4.109-3.347,4.109a3.272,3.272,0,0,1-2.764-1.235,2.7,2.7,0,0,1-.4-.779,1.081,1.081,0,0,0-1.024-.727H32.925a.9.9,0,0,0-.869,1.119,5.537,5.537,0,0,0,1.835,2.933,6.564,6.564,0,0,0,4.351,1.424,6.182,6.182,0,0,0,4.921-2.058,5.6,5.6,0,0,0,1.273-2.562,11.222,11.222,0,0,0,.169-1.255q.06-.709.06-1.646V17.455a7.541,7.541,0,0,1-1.283-4.412,7.3,7.3,0,0,1,1.283-4.332h0v-1.3a.92.92,0,0,0-.922-.922M40.8,16.066v0a3.348,3.348,0,0,1-2.765,1.269A3.284,3.284,0,0,1,35.3,16.076a4.634,4.634,0,0,1-.907-2.954A4.678,4.678,0,0,1,35.3,10.14a3.289,3.289,0,0,1,2.739-1.286,3.405,3.405,0,0,1,2.669,1.178,4.444,4.444,0,0,1,1.032,3.078,4.544,4.544,0,0,1-.936,2.956" fill="#e1ebff"/><path d="M85.577,1.707l0,0a1.9,1.9,0,0,0-1.394.585A1.9,1.9,0,0,0,83.6,3.677,1.942,1.942,0,0,0,84.185,5.1a1.924,1.924,0,0,0,1.41.581A1.86,1.86,0,0,0,86.988,5.1a1.921,1.921,0,0,0,.586-1.41A1.862,1.862,0,0,0,86.989,2.3a1.917,1.917,0,0,0-1.412-.588" fill="#e1ebff"/><path d="M71.154,17.368v0a3.968,3.968,0,0,1-1.06-2.589h8.741a.733.733,0,0,0,.733-.717,7.3,7.3,0,0,0-1.68-5.11A6.612,6.612,0,0,0,68.644,9a7.316,7.316,0,0,0-1.734,5.07A7.126,7.126,0,0,0,68.7,19.142a5.823,5.823,0,0,0,3.064,1.726,6.5,6.5,0,0,0,1.566.175c2.171.045,4.06.089,6.232.134l0-.319a1.488,1.488,0,0,1-.4-1.043,1.466,1.466,0,0,1,.41-1.028l0-.386c-1.712-.043-5.863-.084-6.029-.084a3.2,3.2,0,0,1-2.393-.949m-.424-6.1v0a3.073,3.073,0,0,1,.686-.765,2.917,2.917,0,0,1,.888-.488,3.16,3.16,0,0,1,1.046-.169,2.925,2.925,0,0,1,3.078,2.437H70.3a3.628,3.628,0,0,1,.433-1.017" fill="#e1ebff"/><path d="M70.73,11.269Z" fill="#e1ebff"/><path d="M19.692,5.685a.289.289,0,0,0-.409,0l-7.989,7.984a.29.29,0,0,1-.411,0l-.241-.242a.29.29,0,0,0-.495.2V17.09a.291.291,0,0,0,.291.29H13.9a.289.289,0,0,0,.2-.494.289.289,0,0,1,0-.409l3.679-3.691a.289.289,0,0,0,0-.409l-.335-.334a.29.29,0,0,1,.2-.494h3.457a.29.29,0,0,1,.29.29V15.3a.291.291,0,0,1-.5.205l-.233-.233a.283.283,0,0,0-.408,0l-6.2,6.2a.29.29,0,0,1-.41,0L6.059,13.88a.29.29,0,0,1,0-.411l10.506-10.5a.29.29,0,0,0,0-.41L14.1.084a.29.29,0,0,0-.41,0l-13.6,13.6a.292.292,0,0,0,0,.41l13.6,13.6a.29.29,0,0,0,.41,0l13.6-13.6a.291.291,0,0,0,0-.409Z" fill="#e1ebff"/></g></g></g></svg>