<svg xmlns="http://www.w3.org/2000/svg" xmlns:xlink="http://www.w3.org/1999/xlink" width="212" height="64" viewBox="0 0 212 64"><defs><clipPath id="a"><rect width="104.581" height="31.457" fill="none"/></clipPath></defs><g transform="translate(-20616 -11738)"><rect width="212" height="64" transform="translate(20616 11738)" fill="rgba(32,0,255,0)"/><g transform="translate(20670 11754)"><g clip-path="url(#a)"><path d="M38.919,7.841v8.876H30.1V8.987a1.15,1.15,0,0,0-1.15-1.15H25.966V29.084a1.15,1.15,0,0,0,1.15,1.151H30.1V20.324h8.823V29.08a1.151,1.151,0,0,0,1.133,1.168h3V8.987a1.151,1.151,0,0,0-1.151-1.15Zm17.512,5.553V24.042A2.728,2.728,0,0,1,55.1,26.41a3.084,3.084,0,0,1-4.757-2.563v-9.3a1.151,1.151,0,0,0-1.151-1.151H46.205V24.229a6.354,6.354,0,0,0,6.326,6.335h1.7a6.358,6.358,0,0,0,6.339-6.34V14.545a1.151,1.151,0,0,0-1.151-1.151Z" fill="#e1ebff"/><path d="M101.6,30.248h2.985V15.162a1.151,1.151,0,0,0-1.15-1.151h-2.986V29.089a1.151,1.151,0,0,0,1.142,1.159h.009" fill="#85b4ff"/><path d="M100.627,9.323a2.044,2.044,0,1,1,1.106,2.67,2.043,2.043,0,0,1-1.106-2.67" fill="#85b4ff" fill-rule="evenodd"/><path d="M71.237,13.385c-4.331,0-7.876,3.1-7.876,7.428v2.341c0,4.331,3.545,7.41,7.876,7.41s7.877-3.079,7.877-7.41V20.813c0-4.331-3.541-7.428-7.877-7.428M74.96,23.434a3.739,3.739,0,0,1-7.45,0V20.51a3.739,3.739,0,0,1,7.45,0Z" fill="#e1ebff"/><path d="M89.784,13.385a8.479,8.479,0,0,0-3.745.849V9.01a1.151,1.151,0,0,0-1.151-1.151H81.9V23.154c0,4.331,3.545,7.41,7.876,7.41s7.877-3.079,7.877-7.41V20.813c0-4.331-3.532-7.428-7.872-7.428m3.727,10.049a3.739,3.739,0,0,1-7.45,0V20.51a3.739,3.739,0,0,1,7.45,0Z" fill="#85b4ff"/><path d="M13.465,9.676c0-4.513-2.2-8.4-3.875-9.662,0,0-.128-.071-.114.111-.138,8.72-4.594,11.084-7.041,14.264a10.691,10.691,0,0,0,4.957,16.89c2.986.835-.693-1.475-1.168-6.348-.582-5.882,7.241-10.377,7.241-15.255" fill="#e1ebff"/><path d="M16.032,12.648c-.036-.022-.084-.04-.115.018-.094,1.1-1.213,3.443-2.635,5.6C8.462,25.58,11.208,29.107,12.754,31c.9,1.1,0,0,2.238-1.124a10.107,10.107,0,0,0,4.829-7.81,11.308,11.308,0,0,0-3.789-9.422" fill="#85b4ff"/></g></g></g></svg>