<svg xmlns="http://www.w3.org/2000/svg" xmlns:xlink="http://www.w3.org/1999/xlink" width="212" height="64" viewBox="0 0 212 64"><defs><clipPath id="a"><rect width="87.998" height="23.467" transform="translate(0 0)" fill="none"/></clipPath></defs><g transform="translate(-20849 -11738)"><rect width="212" height="64" transform="translate(20849 11738)" fill="rgba(32,0,255,0)"/><g transform="translate(20911 11758)"><g clip-path="url(#a)"><path d="M11.734,0A11.733,11.733,0,1,1,0,11.609,11.732,11.732,0,0,1,11.734,0m.25.851a10.873,10.873,0,1,0-.25,21.744,10.529,10.529,0,0,0,7.66-3.166,10.561,10.561,0,0,0,3.173-8.68,10.425,10.425,0,0,0-3.131-6.688A10.625,10.625,0,0,0,11.981.852Z" fill="#e1ebff"/><path d="M22.277,10.581A10.164,10.164,0,0,0,19.268,4.27a10.335,10.335,0,0,0-7.56-3.148,10.608,10.608,0,0,0-.071,21.21A10.23,10.23,0,0,0,19.2,19.246a10.284,10.284,0,0,0,3.075-8.665m-5.962-7.1a.323.323,0,0,1,.31.394.332.332,0,0,1-.092.164.328.328,0,0,1-.168.084.323.323,0,0,1-.329-.146.314.314,0,0,1-.05-.181.324.324,0,0,1,.329-.315M14.864,2.8a.323.323,0,1,1,0,.645.307.307,0,0,1-.124-.023.3.3,0,0,1-.1-.071.3.3,0,0,1-.068-.105.313.313,0,0,1-.022-.124A.324.324,0,0,1,14.64,2.9a.319.319,0,0,1,.224-.1m-1.529-.415a.368.368,0,0,1,.33.319.351.351,0,0,1-.355.326A.325.325,0,0,1,13,2.708a.333.333,0,0,1,.338-.319m-1.6-.133a.324.324,0,0,1,.3.2.32.32,0,0,1,.02.186.327.327,0,0,1-.087.165.32.32,0,0,1-.164.089.328.328,0,0,1-.186-.016.324.324,0,0,1-.146-.118.318.318,0,0,1,.038-.406.325.325,0,0,1,.227-.1m-1.581.134a.338.338,0,0,1,.219.1.333.333,0,0,1,.1.22.324.324,0,0,1-.1.232.329.329,0,0,1-.236.089A.321.321,0,0,1,10.014,3a.325.325,0,0,1-.1-.07.329.329,0,0,1-.068-.1.322.322,0,0,1-.023-.122.332.332,0,0,1,.328-.319ZM8.608,2.8a.322.322,0,0,1,.226.1.316.316,0,0,1,.092.228.289.289,0,0,1-.022.123.3.3,0,0,1-.069.105.291.291,0,0,1-.1.069.306.306,0,0,1-.123.023.329.329,0,0,1-.128-.022.316.316,0,0,1-.109-.071A.33.33,0,0,1,8.3,3.248a.341.341,0,0,1-.024-.127A.333.333,0,0,1,8.608,2.8m-1.454.675a.323.323,0,0,1,.131.018.33.33,0,0,1,.188.176.322.322,0,0,1-.076.365.309.309,0,0,1-.112.069.341.341,0,0,1-.131.018.324.324,0,0,1,0-.646m-1.3.913a.33.33,0,0,1,.322.325.324.324,0,0,1-.322.322.311.311,0,0,1-.124-.02.328.328,0,0,1-.106-.067.337.337,0,0,1-.071-.1.325.325,0,0,1-.024-.123A.329.329,0,0,1,5.553,4.6a.316.316,0,0,1,.069-.108.339.339,0,0,1,.107-.073.349.349,0,0,1,.127-.024M4.734,5.519a.326.326,0,0,1,.313.332.323.323,0,0,1-.326.316.332.332,0,0,1-.227-.1.336.336,0,0,1-.1-.228.34.34,0,0,1,.1-.229.336.336,0,0,1,.233-.094ZM3.812,6.831a.308.308,0,0,1,.228.092.309.309,0,0,1,.069.105.329.329,0,0,1-.3.451.336.336,0,0,1-.33-.332.324.324,0,0,1,.327-.316ZM3.138,8.273a.344.344,0,0,1,.127.027.322.322,0,0,1,.106.074.326.326,0,0,1,.069.109.306.306,0,0,1,.021.127.324.324,0,0,1-.108.215.319.319,0,1,1-.443-.459.334.334,0,0,1,.228-.093M2.717,9.812a.334.334,0,0,1,.233.1.33.33,0,0,1,.1.233.324.324,0,0,1-.328.316.318.318,0,0,1-.121-.024.323.323,0,0,1-.1-.069.318.318,0,0,1-.09-.225.323.323,0,0,1,.31-.326Zm-.459,1.921a.337.337,0,0,1,.1-.228.343.343,0,0,1,.226-.1.325.325,0,0,1,.123.024.318.318,0,0,1,.176.172.347.347,0,0,1,0,.254.312.312,0,0,1-.073.11.3.3,0,0,1-.111.072.345.345,0,0,1-.131.02.332.332,0,0,1-.31-.324m.15,1.587a.324.324,0,0,1,.319-.325.336.336,0,0,1,.33.333.325.325,0,0,1-.331.313.307.307,0,0,1-.124-.023.312.312,0,0,1-.105-.07.306.306,0,0,1-.068-.106.313.313,0,0,1-.021-.125Zm.738,1.862a.324.324,0,0,1-.331-.314.319.319,0,0,1,.551-.234.331.331,0,0,1,.1.224.321.321,0,0,1-.321.321Zm.672,1.449a.332.332,0,0,1-.328-.319.322.322,0,0,1,.025-.126.336.336,0,0,1,.072-.107.323.323,0,0,1,.234-.093.306.306,0,0,1,.123.023.309.309,0,0,1,.1.069.306.306,0,0,1,.068.106.29.29,0,0,1,.021.124.312.312,0,0,1-.025.124.317.317,0,0,1-.178.174.311.311,0,0,1-.125.022Zm0-2.527.017-.059H7.264c.891,0,.891,0,.891-.9,0-.752.007-1.505,0-2.257,0-.245.033-.359.326-.347.646.027,1.294.018,1.939,0,.226,0,.3.069.3.29q-.01,1.894,0,3.789c0,.241-.075.363-.329.339a1.039,1.039,0,0,0-.223,0c-.29.031-.39-.081-.39-.366.014-.913,0-1.824,0-2.737,0-.252-.078-.368-.347-.368s-.358.085-.354.352c.012.913,0,1.827.011,2.738,0,.3-.092.385-.382.381-.924-.015-1.85.042-2.768-.026a4.613,4.613,0,0,1-1.273-.441c-.284-.111-.567-.257-.854-.389Zm.949,3.839a.337.337,0,0,1-.141-.015.313.313,0,0,1-.123-.072A.33.33,0,0,1,4.4,17.6a.349.349,0,0,1,.106-.231.353.353,0,0,1,.234-.1.376.376,0,0,1,.228.119.381.381,0,0,1,.1.238.386.386,0,0,1-.1.2.38.38,0,0,1-.2.109ZM5.85,19.06a.284.284,0,0,1-.122-.025.293.293,0,0,1-.1-.071.3.3,0,0,1-.067-.106.31.31,0,0,1-.019-.124.325.325,0,0,1,.1-.227.321.321,0,0,1,.228-.093.333.333,0,0,1,.226.1.339.339,0,0,1,.1.227.326.326,0,0,1-.028.127.3.3,0,0,1-.075.106.326.326,0,0,1-.111.068.318.318,0,0,1-.129.018Zm1.321.917a.33.33,0,0,1-.124-.021.308.308,0,0,1-.106-.067.3.3,0,0,1-.071-.1.3.3,0,0,1-.025-.123.309.309,0,0,1,.021-.127.326.326,0,0,1,.069-.109.339.339,0,0,1,.107-.073.323.323,0,0,1,.126-.026.332.332,0,0,1,.322.325.335.335,0,0,1-.024.125.325.325,0,0,1-.071.1.311.311,0,0,1-.106.07.32.32,0,0,1-.126.023Zm1.447.672a.339.339,0,0,1-.13-.019.331.331,0,0,1-.111-.07.322.322,0,0,1-.076-.107.307.307,0,0,1,.076-.352.341.341,0,0,1,.226-.094.323.323,0,0,1,.323.322.3.3,0,0,1-.022.122.312.312,0,0,1-.068.1.316.316,0,0,1-.225.093ZM7.394,15.762c-.286-.115-.56-.259-.84-.39l.035-.092H10.98c.68,0,.592.06.594-.6,0-1.964.007-3.928,0-5.891,0-.324.089-.421.412-.409.626.024,1.252.015,1.879,0,.226,0,.326.058.326.3q-.008,3.646,0,7.292c0,.261-.111.343-.352.3a1.163,1.163,0,0,0-.249-.038c-.4.014-.4.017-.4-.4V9.815c0-.165.063-.379-.213-.422-.321-.052-.418.024-.418.36v6.114c0,.415,0,.417-.427.417-1.062,0-2.122-.016-3.184,0a3.725,3.725,0,0,1-1.562-.522Zm2.76,5.3a.342.342,0,0,1-.127-.021.332.332,0,0,1-.108-.069.31.31,0,0,1-.073-.106.323.323,0,0,1,.07-.357.325.325,0,1,1,.238.553m1.581.15a.331.331,0,0,1-.325-.335.324.324,0,0,1,.059-.179.33.33,0,0,1,.149-.117.326.326,0,0,1,.188-.014.322.322,0,0,1,.165.091.331.331,0,0,1,.086.168.327.327,0,0,1-.02.188.333.333,0,0,1-.121.144.325.325,0,0,1-.181.054m1.564-.15a.325.325,0,0,1-.3-.33.332.332,0,0,1,.03-.124.318.318,0,0,1,.075-.1.327.327,0,0,1,.108-.067.318.318,0,0,1,.126-.02.313.313,0,0,1,.124.029.318.318,0,0,1,.1.075.327.327,0,0,1,.067.108.32.32,0,0,1,.02.126.326.326,0,0,1-.032.126.312.312,0,0,1-.078.1.321.321,0,0,1-.242.078m1.563-.412a.324.324,0,0,1-.123-.023.314.314,0,0,1-.174-.176.323.323,0,0,1-.022-.123.332.332,0,0,1,.1-.224.326.326,0,0,1,.223-.095.336.336,0,0,1,.33.332.325.325,0,0,1-.33.309m1.452-.675a.312.312,0,0,1-.124-.021.333.333,0,0,1-.105-.068.32.32,0,0,1-.072-.1.347.347,0,0,1-.026-.123.333.333,0,0,1,.328-.333.328.328,0,0,1,.226.558.309.309,0,0,1-.1.069.306.306,0,0,1-.123.023Zm.272-3.1c.048-.478-.021-7.2-.019-9.239,0-.2.021-.381-.282-.376-.243,0-.3.089-.3.319.009,1.06-.016,8.977-.016,8.977v1c-.113.012-.205.029-.3.03-1.378,0-2.757.027-4.134-.015a3.17,3.17,0,0,1-1.027-.371,6.454,6.454,0,0,1-1.119-.581c.09,0,.18-.017.271-.017l4.615.02c.707,0,.7,0,.7-.68v-9.3c0-.26.059-.38.354-.371.667.021,1.337.013,2,0,.224,0,.3.076.3.3V17.147c0,.429,0,.429-.443.43-.683.006-.672-.012-.6-.7Zm1.031,2.187a.321.321,0,0,1-.325-.317.333.333,0,0,1,.332-.329.324.324,0,0,1,.315.329.315.315,0,0,1-.023.125.293.293,0,0,1-.07.1.3.3,0,0,1-.231.089Zm.01-14.019a.346.346,0,0,1-.127-.021.323.323,0,0,1-.208-.3.33.33,0,0,1,.322-.325.32.32,0,0,1,.227.092.347.347,0,0,1,.078.351.314.314,0,0,1-.17.18.308.308,0,0,1-.123.025ZM18.74,17.932a.322.322,0,1,1,0-.645.322.322,0,1,1,0,.645m0-11.76a.331.331,0,0,1-.231-.1.326.326,0,1,1,.231.1m2.321,3.971a.331.331,0,0,1-.022.124.318.318,0,0,1-.07.1.3.3,0,0,1-.106.068.29.29,0,0,1-.124.021.321.321,0,0,1-.326-.318.328.328,0,0,1,.1-.238.312.312,0,0,1,.112-.07.344.344,0,0,1,.131-.022.325.325,0,0,1,.216.1.321.321,0,0,1,.084.226M19.656,6.834a.326.326,0,0,1,.325.32.335.335,0,0,1-.334.328.324.324,0,0,1-.224-.1.332.332,0,0,1-.089-.23.32.32,0,0,1,.023-.126.343.343,0,0,1,.072-.106.313.313,0,0,1,.233-.088Zm0,9.8a.325.325,0,0,1-.123-.024.318.318,0,0,1-.173-.175.325.325,0,0,1-.024-.123.3.3,0,0,1,.021-.124.314.314,0,0,1,.067-.1.306.306,0,0,1,.1-.071.314.314,0,0,1,.124-.023.327.327,0,0,1,.127.022.335.335,0,0,1,.108.07.362.362,0,0,1,.072.106.327.327,0,0,1,.025.127.33.33,0,0,1-.324.317Zm.674-8.358a.332.332,0,0,1,.33.318.331.331,0,0,1-.1.231.327.327,0,0,1-.557-.231.328.328,0,0,1,.323-.318m.011,6.906a.317.317,0,0,1-.23-.087.324.324,0,0,1-.1-.224.35.35,0,0,1,.016-.132.321.321,0,0,1,.067-.114.322.322,0,0,1,.236-.108.323.323,0,0,1,.13.024.328.328,0,0,1,.182.186.338.338,0,0,1,.021.13.327.327,0,0,1-.093.228.322.322,0,0,1-.226.1m.4-1.541a.328.328,0,0,1-.32-.324.335.335,0,0,1,.342-.322.324.324,0,0,1,.217.106.343.343,0,0,1,.059.35.32.32,0,0,1-.175.169.322.322,0,0,1-.123.021m.151-1.589a.31.31,0,0,1-.3-.192.292.292,0,0,1-.024-.124.3.3,0,0,1,.013-.122.294.294,0,0,1,.06-.106.283.283,0,0,1,.1-.074.29.29,0,0,1,.119-.029.347.347,0,0,1,.337.2.36.36,0,0,1,.032.133.327.327,0,0,1-.025.124.333.333,0,0,1-.071.1.315.315,0,0,1-.231.089Z" fill="#e1ebff"/><rect width="3.055" height="16.848" transform="translate(26.362 4.213)" fill="#e1ebff"/><path d="M49.806,14.011a7.333,7.333,0,0,1-.536,2.837,6.618,6.618,0,0,1-3.708,3.69,7.355,7.355,0,0,1-2.808.522H34.5a1.573,1.573,0,0,1-.61-.117,1.476,1.476,0,0,1-.811-.811,1.564,1.564,0,0,1-.118-.611V5.748a1.566,1.566,0,0,1,.441-1.1,1.453,1.453,0,0,1,.488-.33,1.573,1.573,0,0,1,.61-.117h8.25a7.358,7.358,0,0,1,2.808.529,6.62,6.62,0,0,1,3.708,3.7,7.36,7.36,0,0,1,.534,2.827Zm-3.057-2.75a4.489,4.489,0,0,0-.287-1.634,3.576,3.576,0,0,0-.817-1.263,3.687,3.687,0,0,0-1.264-.811,4.41,4.41,0,0,0-1.627-.287H36.019v10.74h6.735a4.424,4.424,0,0,0,1.621-.287,3.687,3.687,0,0,0,1.264-.811,3.584,3.584,0,0,0,.817-1.258,4.449,4.449,0,0,0,.287-1.639Z" fill="#e1ebff"/><path d="M68.033,21.06H57.011a4.947,4.947,0,0,1-1.387-.223,4.055,4.055,0,0,1-2.462-2.062,4.264,4.264,0,0,1-.429-2V5.748a1.534,1.534,0,0,1,.117-.6,1.562,1.562,0,0,1,.324-.494,1.456,1.456,0,0,1,.487-.329,1.578,1.578,0,0,1,.611-.117H68.033V7.264H55.787v9.507a1.238,1.238,0,0,0,.317.916,1.256,1.256,0,0,0,.928.317h11Zm-1.375-6.887H57.011V11.1H66.66Z" fill="#e1ebff"/><path d="M78.671,10.229l5.148-6.017H88l-7.251,8.446,7.2,8.4H83.8l-5.131-5.969L73.578,21.06h-4.16l7.192-8.4L69.394,4.212h4.137Z" fill="#e1ebff"/></g></g></g></svg>