<svg xmlns="http://www.w3.org/2000/svg" width="212" height="64" viewBox="0 0 212 64">
  <g id="newton" transform="translate(-20855 -12093)">
    <rect id="Rectangle_417" data-name="Rectangle 417" width="212" height="64" transform="translate(20855 12093)" fill="none"/>
    <g id="Marketing-Site-v4" transform="translate(20908 12113)">
      <g id="Home-Page-Copy" transform="translate(0 0)">
        <g id="Logo_new-maybe" data-name="Logo/new-maybe" transform="translate(0)">
          <path id="Combined-Shape" d="M61.833,11.1,58.206,22.814H53.35L49.877,12.485,46.469,22.814H41.516L36.5,6.822h5.081l2.669,9.46L47.4,6.822h5.177L55.7,16.314l2.669-9.493h3.208c.135,0,.255,0,.32-.006A3.528,3.528,0,0,0,65.066,4.6a15,15,0,0,0,.678-2.446h3.869V6.822h3.232l-.03,4.28h-3.2v5.985a1.538,1.538,0,0,0,.482,1.335,2.2,2.2,0,0,0,1.286.338,5.117,5.117,0,0,0,.723-.048,4.3,4.3,0,0,0,.563-.113l-.03,3.945a3.763,3.763,0,0,1-.742.366,6.193,6.193,0,0,1-1.769.193A5.41,5.41,0,0,1,66.2,21.736a5.012,5.012,0,0,1-1.415-3.781V11.1Zm43.875-.8a8.816,8.816,0,0,1,.338,2.478v10.04h-4.888v-9.2a3.08,3.08,0,0,0-.627-1.979,2.374,2.374,0,0,0-1.978-.788,2.461,2.461,0,0,0-1.929.788,2.9,2.9,0,0,0-.708,2.011v9.171H91.028V6.822h4.727V8.656a3.4,3.4,0,0,1,.836-1,5.2,5.2,0,0,1,1.11-.692,6.156,6.156,0,0,1,1.254-.418,5.915,5.915,0,0,1,1.27-.145,6.235,6.235,0,0,1,2.6.5,5.055,5.055,0,0,1,1.817,1.368A5.558,5.558,0,0,1,105.707,10.3ZM85.024,16.572a4.63,4.63,0,0,0,.305-1.77,4.659,4.659,0,0,0-.305-1.754,3.543,3.543,0,0,0-.8-1.239,3.285,3.285,0,0,0-1.142-.724,3.813,3.813,0,0,0-1.351-.241,3.858,3.858,0,0,0-1.335.241,3.251,3.251,0,0,0-1.157.724,3.54,3.54,0,0,0-.8,1.239,4.659,4.659,0,0,0-.305,1.754,4.659,4.659,0,0,0,.305,1.754,3.717,3.717,0,0,0,.8,1.255,3.145,3.145,0,0,0,1.157.74,3.858,3.858,0,0,0,1.335.241,3.813,3.813,0,0,0,1.351-.241,3.176,3.176,0,0,0,1.142-.74A3.753,3.753,0,0,0,85.024,16.572Zm2.6-7.851a8.264,8.264,0,0,1,1.8,2.671,8.6,8.6,0,0,1,.659,3.411,8.721,8.721,0,0,1-.659,3.427,8.071,8.071,0,0,1-4.486,4.441,9.227,9.227,0,0,1-6.689,0,8.07,8.07,0,0,1-4.486-4.441A8.719,8.719,0,0,1,73.1,14.8a8.6,8.6,0,0,1,.659-3.411,8.263,8.263,0,0,1,1.8-2.671A8.147,8.147,0,0,1,78.25,6.967a9.225,9.225,0,0,1,6.689,0A8.145,8.145,0,0,1,87.624,8.72ZM25.764,12.9h6.4a3.427,3.427,0,0,0-.209-.933,2.381,2.381,0,0,0-.563-.869,3.117,3.117,0,0,0-.981-.644,3.682,3.682,0,0,0-1.463-.257,3.3,3.3,0,0,0-1.351.257,3.382,3.382,0,0,0-.981.644,2.665,2.665,0,0,0-.611.869A2.862,2.862,0,0,0,25.764,12.9Zm3.387-6.564A7.894,7.894,0,0,1,35.02,8.495a8.218,8.218,0,0,1,2.138,6.05q0,.515-.032.981a2.571,2.571,0,0,1-.064.531H25.936a2.845,2.845,0,0,0,.338,1.239,3.37,3.37,0,0,0,.8.981,3.618,3.618,0,0,0,1.142.643,4.055,4.055,0,0,0,1.351.225,3.09,3.09,0,0,0,3.215-2.092l4.084,1.158a7.052,7.052,0,0,1-.9,1.963A6.333,6.333,0,0,1,34.425,21.8a7.5,7.5,0,0,1-2.171,1.094,8.864,8.864,0,0,1-2.749.4,8.733,8.733,0,0,1-3.151-.579,8.029,8.029,0,0,1-2.669-1.673,7.906,7.906,0,0,1-1.833-2.671,9.08,9.08,0,0,1-.675-3.6,8.892,8.892,0,0,1,.659-3.491A8.107,8.107,0,0,1,23.6,8.624a7.939,7.939,0,0,1,5.547-2.285Zm-14.424,7.53V0h5.081V22.814h-5.37l-9.39-15v15H0V0H6.174Z" transform="translate(0 0)" fill="#e1ebff" fill-rule="evenodd"/>
        </g>
      </g>
    </g>
  </g>
</svg>
