<svg xmlns="http://www.w3.org/2000/svg" xmlns:xlink="http://www.w3.org/1999/xlink" width="212" height="64" viewBox="0 0 212 64"><defs><clipPath id="a"><rect width="113.131" height="17.634" transform="translate(0 0)" fill="none"/></clipPath></defs><g transform="translate(-21311 -11738)"><rect width="212" height="64" transform="translate(21311 11738)" fill="rgba(32,0,255,0)"/><g transform="translate(21360 11761)"><g clip-path="url(#a)"><path d="M74.3,1.066c0-.6-.125-.874-.781-.812-.588.056-1.186.012-1.779.012-.946,0-.949,0-.956.915q-.041,4.878-.076,9.758c0,.245,0,.489,0,.734l-.176.034c-.127-.211-.262-.419-.381-.635C68.282,7.688,66.408,4.308,64.562.913a1.046,1.046,0,0,0-1.1-.66,25.669,25.669,0,0,1-2.774,0c-.638-.034-.854.146-.853.82.01,5.2-.02,10.4-.035,15.6,0,.249.03.5.044.726h3.543V5.8a1.388,1.388,0,0,1,.477.554q2.856,5.287,5.716,10.574c.111.2.327.493.5.5,1.39.041,2.782.023,4.228.023,0-1.767,0-3.447,0-5.128,0-3.752-.026-7.5-.007-11.255" fill="#e1ebff"/><path d="M57.782,8.6c0-1.375.069-2.754-.017-4.124A4.128,4.128,0,0,0,54.328.407,18.271,18.271,0,0,0,46.854.365a4.157,4.157,0,0,0-3.663,4.257c-.11,2.862-.1,5.736.011,8.6A4.1,4.1,0,0,0,47.016,17.4a31.428,31.428,0,0,0,6.365.107c2.936-.28,4.254-1.84,4.413-4.784.073-1.371.012-2.749.012-4.123h-.024m-3.951,3.909a1.9,1.9,0,0,1-1.953,1.814,17.487,17.487,0,0,1-2.84-.006A1.944,1.944,0,0,1,47.1,12.4c-.128-1.2-.143-2.412-.207-3.616.061-1.167.072-2.332.2-3.484a1.815,1.815,0,0,1,1.777-1.886,16.682,16.682,0,0,1,3.46.051,1.641,1.641,0,0,1,1.5,1.655c.065,2.461.073,4.926,0,7.387" fill="#e1ebff"/><path d="M26.283.359A19.454,19.454,0,0,0,19.071.333a4.129,4.129,0,0,0-3.669,3.8c-.091.773-.133,1.552-.161,2.33-.02.547,0,3.272,0,4.1,0,.68,0,1.36.026,2.04.11,2.865,1.381,4.487,4.2,4.848a29.106,29.106,0,0,0,6.162.044,4.257,4.257,0,0,0,4.28-4.453,75.613,75.613,0,0,0,.021-8.328C29.761,2.087,28.6.821,26.283.359M26.09,8.882c-.014.047.014,2.051-.017,3a2.216,2.216,0,0,1-2.408,2.468,19.169,19.169,0,0,1-2.274-.009A2.1,2.1,0,0,1,19.2,12.121c-.051-2.179-.048-4.361-.008-6.54a2.029,2.029,0,0,1,1.966-2.209,13.017,13.017,0,0,1,2.979.006,2.092,2.092,0,0,1,1.942,2.243c.066.992.019,3.237.012,3.261" fill="#e1ebff"/><path d="M94.016.252Q88.893.3,83.769.253c-.637,0-.849.145-.846.822.02,5.223,0,10.446-.012,15.669v.646H94.784V14.2h-.8c-2.182,0-4.366-.014-6.547.01-.513.005-.732-.126-.71-.674.035-.853.034-1.71,0-2.563-.024-.552.2-.68.712-.673,1.8.025,3.605.009,5.408.009h1.645V7.064H86.715c0-1.056.014-2.025-.007-2.994-.01-.459.158-.626.622-.621,1.589.02,3.177.007,4.768.007h2.7c0-.885-.039-1.646.012-2.4.043-.625-.156-.809-.791-.8" fill="#e1ebff"/><path d="M10.869.492A7.576,7.576,0,0,0,9.259.276C6.46.255,3.66.285.861.251.214.244.017.413.019,1.079c.016,5.2-.009,10.4-.019,15.6,0,.231.021.462.033.733H3.811c0-1.77.019-3.455-.011-5.139-.01-.536.163-.695.69-.686,1.661.029,3.322.024,4.982.007,2.264-.024,3.651-1.058,4.062-3.281a15.146,15.146,0,0,0,.181-4.023c-.153-1.785-.839-3.34-2.846-3.8M9.958,7.153A1.41,1.41,0,0,1,8.575,8.672a15.852,15.852,0,0,1-2.189.108c-.687,0-1.384.033-2.069-.035a.71.71,0,0,1-.487-.477q-.061-2.349-.012-4.7a.7.7,0,0,1,.47-.5c1.42,0,2.844.009,4.26.107A1.44,1.44,0,0,1,9.98,4.733c.03.805.023,1.615-.022,2.42" fill="#e1ebff"/><path d="M106.834,8.5q-2.673-3.949-5.408-7.858a.906.906,0,0,0-.615-.361C99.366.252,97.921.267,96.322.267c.2.33.312.533.439.726,1.612,2.462,3.217,4.928,4.85,7.376a.746.746,0,0,1-.024,1c-1.064,1.484-2.1,2.989-3.148,4.487-.808,1.158-1.614,2.317-2.5,3.593,1.686,0,3.22.013,4.753-.018.182,0,.4-.216.53-.389q2.81-3.9,5.583-7.823a.79.79,0,0,0,.032-.718" fill="#e1ebff"/><path d="M35.562,13.289,35.541,1.176c0-.909,0-.909-.943-.91-.664,0-1.333.045-1.992-.012s-.835.19-.835.836c.007,5.2-.021,10.4-.036,15.6,0,.23.027.459.044.722H42.1V14.187H35.562v-.9" fill="#e1ebff"/><path d="M79.885.261c-.758.018-1.52.044-2.276-.007-.643-.045-.859.156-.859.823,0,5.221-.045,10.442-.071,15.664,0,.225.031.45.048.688h3.715a.843.843,0,0,0,.082-.2Q80.491,9,80.458.779c0-.412-.194-.527-.573-.518" fill="#e1ebff"/><path d="M105.688,14.058c.753,1.06,1.473,2.086,2.211,3.1a.686.686,0,0,0,.44.29c1.55.021,3.1.013,4.792.013l-4.87-6.994-2.573,3.592" fill="#e1ebff"/><path d="M112.838.24c-1.666,0-3.159-.009-4.652.012a.746.746,0,0,0-.516.272c-.675.941-1.321,1.9-1.977,2.86l2.582,3.791c1.541-2.341,3.017-4.585,4.563-6.935" fill="#e1ebff"/></g></g></g></svg>