<svg xmlns="http://www.w3.org/2000/svg" xmlns:xlink="http://www.w3.org/1999/xlink" width="212" height="64" viewBox="0 0 212 64"><defs><clipPath id="a"><rect width="81.865" height="18.749" transform="translate(0 0)" fill="#e1ebff"/></clipPath></defs><g transform="translate(-21311 -11823)"><rect width="212" height="64" transform="translate(21311 11823)" fill="rgba(32,0,255,0)"/><g transform="translate(21376 11845.625)"><g clip-path="url(#a)"><path d="M54.968,5.623H48.633L50.462,0H44.835L38.744,18.749H50.453A6.252,6.252,0,0,0,56.4,14.43l1.531-4.7a3.127,3.127,0,0,0-2.96-4.1M52.352,9.565l-1.267,3.9a3.127,3.127,0,0,1-2.972,2.161H45.385l2.234-6.876h4.139a.622.622,0,0,1,.284.068.624.624,0,0,1,.31.749M64.836,0l-1.22,3.751h5.627L70.46,0ZM58.743,18.749h5.626L68.631,5.623H63.008Zm18.325-10h3.783l1.014-3.125H78.082L79.911,0H74.284L69.522,14.657A3.128,3.128,0,0,0,72.5,18.749h6.244l1.017-3.125H75.689a.611.611,0,0,1-.281-.069.6.6,0,0,1-.22-.189.609.609,0,0,1-.11-.268.63.63,0,0,1,.023-.289Z" fill="#e1ebff"/><path d="M16.059,6.543,22.212,0H15.621L10.544,15.624H6.323a.626.626,0,0,1-.281-.071.627.627,0,0,1-.329-.458.625.625,0,0,1,.022-.288L10.541,0H4.915L.153,14.663a3.123,3.123,0,0,0,2.969,4.086H15.154L19.416,5.623ZM36.871,0H23.937l1.929,6.543L23.1,5.626l-4.28,13.123h5.627l2.031-6.25h6.082a6.248,6.248,0,0,0,5.941-4.318l1.331-4.095A3.123,3.123,0,0,0,36.871,0m-2.61,3.939L33.2,7.217a3.126,3.126,0,0,1-2.972,2.157H27.5l2.031-6.249H33.67a.62.62,0,0,1,.283.067.629.629,0,0,1,.221.189.617.617,0,0,1,.087.558" fill="#e1ebff"/></g></g></g></svg>