<svg xmlns="http://www.w3.org/2000/svg" width="212" height="64" viewBox="0 0 212 64">
  <g id="vauld" transform="translate(-21094 -12093)">
    <rect id="Rectangle_418" data-name="Rectangle 418" width="212" height="64" transform="translate(21094 12093)" fill="none"/>
    <g id="vauld-2" data-name="vauld" transform="translate(21149.668 12109.503)">
      <rect id="Rectangle_413" data-name="Rectangle 413" width="30.993" height="30.993" transform="translate(0 0)" fill="none"/>
      <g id="Group_551" data-name="Group 551" transform="translate(0.913 0.881)">
        <path id="Path_674" data-name="Path 674" d="M40.155,26.69a39.3,39.3,0,0,1-3.013,11.584A30.136,30.136,0,0,1,28.25,50.069l-2.971,2.3-2.959-2.3a31.706,31.706,0,0,1-10.3-15.531,40.188,40.188,0,0,1-1.607-7.845,27.536,27.536,0,0,1,9.455-3.816,30.553,30.553,0,0,0,1.389,8.758c.048.183.111.379.172.569.048.111.086.233.122.344.086.231.159.449.245.672.048.12.1.231.133.338.145.353.285.709.449,1.05.059.145.133.285.194.438.026.048.051.1.074.145.063.145.133.285.207.43a22.716,22.716,0,0,0,2.424,3.836h0c3.312-4.18,5.3-10.159,5.407-16.581a27.536,27.536,0,0,1,9.47,3.819Z" transform="translate(-10.417 -22.874)" fill="#85b4ff" opacity="0.6"/>
        <path id="Path_675" data-name="Path 675" d="M77.558,26.693A39.137,39.137,0,0,1,74.545,38.28a30.176,30.176,0,0,1-8.884,11.783L62.69,52.374V39.455C66,35.275,68,29.3,68.1,22.88A27.443,27.443,0,0,1,77.558,26.693Z" transform="translate(-47.813 -22.88)" fill="#e1ebff"/>
      </g>
      <g id="Group_553" data-name="Group 553" transform="translate(37.02 9.471)">
        <rect id="Rectangle_414" data-name="Rectangle 414" width="62.847" height="12.053" transform="translate(0 0)" fill="none"/>
        <g id="Group_552" data-name="Group 552" transform="translate(0.391 0.223)">
          <path id="Path_676" data-name="Path 676" d="M230.672,66.228a6.021,6.021,0,0,1-2.882-.658A4.721,4.721,0,0,1,225.9,63.75a5.122,5.122,0,0,1-.672-2.612V54.57h2.561v6.543a2.948,2.948,0,0,0,.39,1.528,2.778,2.778,0,0,0,1.05,1.027,2.993,2.993,0,0,0,2.882,0,2.777,2.777,0,0,0,1.05-1.027,2.948,2.948,0,0,0,.39-1.528V54.57h2.561v6.569a5.053,5.053,0,0,1-.683,2.612,4.812,4.812,0,0,1-1.894,1.821A5.947,5.947,0,0,1,230.672,66.228Z" transform="translate(-199.575 -54.37)" fill="#e1ebff"/>
          <path id="Path_677" data-name="Path 677" d="M321.711,57.329a5.121,5.121,0,0,0-1.947-2.032,4.791,4.791,0,0,0-.464-.242,5.535,5.535,0,0,0-2.333-.486H311V66.236h5.976a5.494,5.494,0,0,0,2.788-.731,5.019,5.019,0,0,0,1.881-1.912,1.2,1.2,0,0,0,.065-.12,6.419,6.419,0,0,0,.7-3.079,6.346,6.346,0,0,0-.7-3.066Zm-2.032,4.61a.069.069,0,0,1,0,.02,2.945,2.945,0,0,1-1.087,1.1,3.131,3.131,0,0,1-1.636.418h-3.335V57.315h3.32a3.144,3.144,0,0,1,1.636.418,2.974,2.974,0,0,1,1.087,1.1.072.072,0,0,1,0,.02,3.2,3.2,0,0,1,0,3.082Z" transform="translate(-260.947 -54.369)" fill="#e1ebff"/>
          <path id="Path_678" data-name="Path 678" d="M282.233,63.6v2.629h-4.16a4.183,4.183,0,0,1-4.183-4.183V54.57h2.629v7.475a1.55,1.55,0,0,0,1.517,1.55.729.729,0,0,0,.08,0Z" transform="translate(-234.397 -54.37)" fill="#e1ebff"/>
          <path id="Path_679" data-name="Path 679" d="M140.689,66.17l-.78-.612C136.9,63.216,135.1,59.079,135.1,54.5h2.561a12.06,12.06,0,0,0,3.025,8.323,10.529,10.529,0,0,0,2.411-4.2,13.689,13.689,0,0,0,.621-4.132h2.561a16.306,16.306,0,0,1-.737,4.9,12.532,12.532,0,0,1-4.07,6.161Z" transform="translate(-135.1 -54.312)" fill="#e1ebff"/>
          <path id="Path_680" data-name="Path 680" d="M188.315,60.75a12.731,12.731,0,0,0-4.132-6.261l-.8-.621-.8.621c-3.056,2.382-4.877,6.579-4.877,11.237h2.607a14.092,14.092,0,0,1,.157-2.123h5.859a14.885,14.885,0,0,1,.151,2.123h2.609a16.518,16.518,0,0,0-.766-4.971Zm-7.3.569a10.468,10.468,0,0,1,2.374-4.046,10.55,10.55,0,0,1,2.37,4.046Z" transform="translate(-165.579 -53.869)" fill="#e1ebff"/>
        </g>
      </g>
    </g>
  </g>
</svg>
