<svg xmlns="http://www.w3.org/2000/svg" xmlns:xlink="http://www.w3.org/1999/xlink" width="212" height="64" viewBox="0 0 212 64"><defs><clipPath id="a"><rect width="105.423" height="23.357" transform="translate(0 0)" fill="none"/></clipPath></defs><g transform="translate(-20616 -11908)"><rect width="212" height="64" transform="translate(20616 11908)" fill="rgba(32,0,255,0)"/><g transform="translate(20669 11926.321)"><g clip-path="url(#a)"><path d="M39.358,14.977c.554-1.994,1.036-3.877,1.576-5.731.511-1.771.1-1.451,1.931-1.478,1.7-.014,1.69,0,2.144,1.631.5,1.813,1.008,3.612,1.562,5.634.426-1.729.8-3.263,1.179-4.783.155-.656.3-1.311.5-1.953.057-.195.3-.474.469-.488,1.15-.041,2.3-.028,3.578-.028-.071.321-.1.558-.171.8C51.015,12.118,49.879,15.66,48.8,19.2c-.2.656-.483.976-1.221.893a9.039,9.039,0,0,0-1.846,0c-.61.055-.809-.21-.951-.739-.582-2.259-1.207-4.518-1.874-6.973-.355,1.367-.668,2.552-.98,3.737-.3,1.13-.6,2.246-.866,3.375a.625.625,0,0,1-.724.572c-.824-.014-1.662.028-2.485-.028a.869.869,0,0,1-.639-.446q-1.767-5.607-3.493-11.24a4.069,4.069,0,0,1-.071-.572c1.25,0,2.442-.027,3.635.028.156,0,.355.391.412.628.511,1.98.98,3.96,1.462,5.94.043.154.1.307.2.6" fill="#e1ebff"/><path d="M13.658,0c.71,1,1.292,1.841,1.874,2.677,1.278,1.869,2.542,3.738,3.834,5.592.355.5.4.8-.185,1.227-4.146,3.082-8.249,6.206-12.395,9.288a2.907,2.907,0,0,1-1.4.46c-.98.069-1.974.014-3.139.014C6.062,12.8,9.81,6.484,13.658,0" fill="#e1ebff"/><path d="M62.273,19.16c-1.647,1.841-4.841,1.562-6.516.628a6.671,6.671,0,0,1-3.323-7.042A6.493,6.493,0,0,1,57.389,7.5,5.309,5.309,0,0,1,62.3,8.66c.029-.293.043-.558.086-.921,1.136,0,2.273-.013,3.394.028.114,0,.312.363.312.558.028,1.227.014,2.454.014,3.7,0,2.4-.014,4.783.014,7.182.014.641-.184.851-.851.8a14.439,14.439,0,0,0-2.2,0c-.54.014-1.037.056-.8-.837m0-5.257a3.028,3.028,0,0,0-2.882-3.026,3.141,3.141,0,0,0-3.194,2.9,3.109,3.109,0,0,0,3,3.1,3.02,3.02,0,0,0,3.081-2.97" fill="#e1ebff"/><path d="M26.41,19.244H9.13a1.356,1.356,0,0,0-.1-.153L27.432,5.2l.213.083c-.411,4.63-.809,9.26-1.235,13.959" fill="#e1ebff"/><path d="M98.338,10.835c.568-.906,1.108-1.715,1.59-2.552a.958.958,0,0,1,.966-.544c1.277.028,2.541.014,4.032.014-.653.879-1.178,1.618-1.732,2.357-.739.99-1.463,1.994-2.229,2.97a.62.62,0,0,0,.028.907c1.278,1.673,2.542,3.346,3.805,5.034.185.251.369.529.625.906-.341.056-.554.126-.767.139-1.093.014-2.172-.013-3.266.014a.989.989,0,0,1-.979-.53c-.639-1.018-1.335-2.021-2.059-3.123-.71,1.074-1.363,2.05-1.988,3.054a1.113,1.113,0,0,1-1.093.6c-1.065-.041-2.13-.014-3.2-.014-.2,0-.411-.041-.795-.069.355-.53.625-.949.909-1.339,1.136-1.548,2.258-3.1,3.436-4.6a.732.732,0,0,0-.014-1.074c-1.136-1.506-2.258-3.039-3.365-4.559-.114-.154-.2-.307-.341-.53a2.9,2.9,0,0,1,.5-.126c1.165-.014,2.314-.028,3.479.014a1.249,1.249,0,0,1,.823.474c.54.781,1.051,1.646,1.633,2.58" fill="#e1ebff"/><path d="M72.285,17.166h4.628c0,.879.015,1.7-.028,2.524,0,.126-.3.335-.468.335-2.741.014-5.481.014-8.235.014-.412,0-.568-.14-.6-.572a4.458,4.458,0,0,1,1.051-3.458c1.434-1.66,2.669-3.473,4.089-5.355H67.614c0-.921-.015-1.757.028-2.58,0-.126.3-.335.469-.349,2.768-.028,5.537-.014,8.306-.028.355,0,.511.112.511.489-.015.739.014,1.492-.015,2.231a1.381,1.381,0,0,1-.283.683c-1.25,1.743-2.527,3.472-3.791,5.2-.157.265-.3.5-.554.865" fill="#e1ebff"/><path d="M26.351,20.889v2.468H1.234c-.014-.139-.043-.279-.043-.418v-2.05Z" fill="#e1ebff"/><path d="M88.37,8.771A3.944,3.944,0,0,1,90.926,7.39c.4-.041.582.07.582.475,0,.934-.014,1.854,0,2.789,0,.334-.113.488-.483.516a4.084,4.084,0,0,0-1.164.251A1.616,1.616,0,0,0,88.7,13.066c0,2.05-.028,4.086,0,6.136.014.613-.141.906-.823.85a23.418,23.418,0,0,0-2.414,0c-.5.014-.653-.181-.653-.655.014-3.668.014-7.349,0-11.016,0-.475.143-.67.639-.656a20.221,20.221,0,0,0,2.06,0c.639-.028,1.092.056.865,1.046" fill="#e1ebff"/><path d="M82.32,7.739v2.05c0,3.179-.014,6.359.014,9.538,0,.544-.156.739-.724.725-.852-.028-1.7-.014-2.556,0-.468.014-.625-.181-.625-.613.015-3.71,0-7.419.029-11.142,0-.182.27-.53.426-.53,1.108-.042,2.215-.028,3.436-.028" fill="#e1ebff"/><path d="M0,4.839c.681.46,1.178.795,1.675,1.143C3.081,6.959,4.487,7.935,5.906,8.9c.313.209.455.418.228.8-1.562,2.594-3.1,5.2-4.643,7.795-.043.07-.128.111-.341.293C.752,13.443.383,9.259,0,4.839" fill="#e1ebff"/><path d="M82.037,5.146a1.661,1.661,0,1,1-3.322,0,1.584,1.584,0,0,1,1.675-1.59,1.537,1.537,0,0,1,1.647,1.59" fill="#e1ebff"/></g></g></g></svg>