<svg width="38" height="39" viewBox="0 0 38 39" fill="none" xmlns="http://www.w3.org/2000/svg">
<path d="M4.14545 38.1274C6.43167 38.1274 8.29091 36.2682 8.29091 33.982C8.29091 33.2669 8.1092 32.5939 7.78931 32.006L14.5803 25.215C15.5164 25.944 16.6882 26.382 17.9636 26.382C19.2391 26.382 20.4108 25.944 21.3477 25.2157L26.6463 30.5143C26.4031 30.9254 26.2545 31.398 26.2545 31.9093C26.2545 33.4334 27.494 34.6729 29.0182 34.6729C30.5423 34.6729 31.7818 33.4334 31.7818 31.9093C31.7818 30.3851 30.5423 29.1456 29.0182 29.1456C28.5069 29.1456 28.0343 29.2942 27.6232 29.5374L22.3247 24.2388C23.0529 23.3019 23.4909 22.1301 23.4909 20.8547C23.4909 19.5793 23.0529 18.4075 22.3247 17.4713L31.0743 8.72097C31.8108 9.38908 32.7843 9.80017 33.8545 9.80017C36.1408 9.80017 38 7.94094 38 5.65472C38 3.3685 36.1408 1.50926 33.8545 1.50926C31.5683 1.50926 29.7091 3.3685 29.7091 5.65472C29.7091 6.36981 29.8908 7.04275 30.2107 7.63072L21.347 16.4944C20.5829 15.9002 19.6612 15.5022 18.6539 15.3758L18.6539 8.35617C20.6112 8.02592 22.1084 6.32352 22.1084 4.2729C22.1084 1.98668 20.2492 0.127444 17.9629 0.127443C15.6767 0.127443 13.8175 1.98668 13.8175 4.2729C13.8175 6.32282 15.3147 8.02522 17.272 8.35617L17.272 15.3758C16.2647 15.5022 15.343 15.9002 14.5789 16.4944L9.28029 11.1958C9.52418 10.784 9.67273 10.3114 9.67273 9.80017C9.67273 8.27602 8.43324 7.03653 6.90909 7.03653C5.38494 7.03653 4.14545 8.27602 4.14545 9.80017C4.14545 11.3243 5.38494 12.5638 6.90909 12.5638C7.42036 12.5638 7.89295 12.4153 8.30404 12.1721L13.6026 17.4706C12.8744 18.4075 12.4364 19.5793 12.4364 20.8547C12.4364 22.1301 12.8744 23.3019 13.6026 24.2381L6.92498 30.9157C6.18916 30.2476 5.21567 29.8365 4.14545 29.8365C1.85923 29.8365 -3.25242e-06 31.6958 -3.45229e-06 33.982C-3.65216e-06 36.2682 1.85923 38.1274 4.14545 38.1274ZM30.4 31.9093C30.4 32.6713 29.7803 33.2911 29.0182 33.2911C28.2561 33.2911 27.6364 32.6713 27.6364 31.9093C27.6364 31.1472 28.2561 30.5274 29.0182 30.5274C29.7803 30.5274 30.4 31.1472 30.4 31.9093ZM33.8545 2.89108C35.3787 2.89108 36.6182 4.13057 36.6182 5.65472C36.6182 7.17886 35.3787 8.41835 33.8545 8.41835C32.3304 8.41835 31.0909 7.17886 31.0909 5.65472C31.0909 4.13057 32.3304 2.89108 33.8545 2.89108ZM15.2 4.2729C15.2 2.74875 16.4395 1.50926 17.9636 1.50926C19.4878 1.50926 20.7273 2.74875 20.7273 4.2729C20.7273 5.79704 19.4878 7.03653 17.9636 7.03653C16.4395 7.03653 15.2 5.79704 15.2 4.2729ZM17.9636 16.7093C20.2499 16.7093 22.1091 18.5685 22.1091 20.8547C22.1091 23.1409 20.2499 25.0002 17.9636 25.0002C15.6774 25.0002 13.8182 23.1409 13.8182 20.8547C13.8182 18.5685 15.6774 16.7093 17.9636 16.7093ZM5.52727 9.80017C5.52727 9.0381 6.14702 8.41835 6.90909 8.41835C7.67116 8.41835 8.29091 9.0381 8.29091 9.80017C8.29091 10.5622 7.67116 11.182 6.90909 11.182C6.14702 11.182 5.52727 10.5622 5.52727 9.80017ZM4.14545 31.2183C5.6696 31.2183 6.90909 32.4578 6.90909 33.982C6.90909 35.5061 5.6696 36.7456 4.14545 36.7456C2.62131 36.7456 1.38182 35.5061 1.38182 33.982C1.38182 32.4578 2.62131 31.2183 4.14545 31.2183Z" fill="white"/>
</svg>
