<svg width="11" height="6" viewBox="0 0 11 6" fill="none" xmlns="http://www.w3.org/2000/svg">
<path d="M0.302455 5.26674C0.235491 5.19978 0.202009 5.12277 0.202009 5.03571C0.202009 4.94866 0.235491 4.87165 0.302455 4.80469L4.98326 0.123884C5.05022 0.0569194 5.12723 0.0234373 5.21429 0.0234373C5.30134 0.0234373 5.37835 0.0569194 5.44531 0.123884L10.1261 4.80469C10.1931 4.87165 10.2266 4.94866 10.2266 5.03571C10.2266 5.12277 10.1931 5.19978 10.1261 5.26674L9.62388 5.76897C9.55692 5.83594 9.47991 5.86942 9.39286 5.86942C9.3058 5.86942 9.2288 5.83594 9.16183 5.76897L5.21429 1.82143L1.26674 5.76897C1.19978 5.83594 1.12277 5.86942 1.03571 5.86942C0.948661 5.86942 0.871652 5.83594 0.804688 5.76897L0.302455 5.26674Z" fill="white"/>
</svg>
