<svg width="88" height="24" viewBox="0 0 88 24" fill="none" xmlns="http://www.w3.org/2000/svg">
<path d="M11.734 0.533364C14.0599 0.533496 16.3333 1.22491 18.2654 2.51979C20.1976 3.81467 21.7013 5.65458 22.5856 7.80585C23.4699 9.95712 23.6948 12.3227 23.2319 14.602C22.7689 16.8814 21.639 18.9718 19.9855 20.6076C18.3321 22.2435 16.2297 23.351 13.9455 23.7896C11.6613 24.2281 9.29833 23.9778 7.15665 23.0706C5.01496 22.1634 3.19124 20.6401 1.9171 18.6942C0.642968 16.7483 -0.0240856 14.4676 0.000664587 12.1418C0.063844 5.74416 5.29269 0.516817 11.734 0.533364ZM11.9837 1.38478C5.753 1.38629 0.885176 6.24959 0.859603 12.199C0.832526 18.207 5.71689 23.1501 11.734 23.129C14.7139 23.1185 17.2877 22.064 19.3937 19.9625C21.79 17.5722 22.84 14.6404 22.5662 11.2829C22.3739 8.74624 21.2605 6.36752 19.4358 4.5949C17.3133 2.48892 14.732 1.42389 11.9807 1.38478H11.9837Z" fill="white"/>
<path d="M22.2768 11.1144C22.0516 8.72134 20.9857 6.48554 19.2682 4.80396C17.1908 2.71904 14.6592 1.66003 11.7078 1.65552C8.93822 1.71161 6.30047 2.84883 4.35833 4.8241C2.41619 6.79937 1.32375 9.45599 1.31451 12.2261C1.30528 14.9962 2.37998 17.6601 4.30891 19.6482C6.23784 21.6364 8.86795 22.7912 11.6371 22.8657C14.5764 22.8868 17.1262 21.8579 19.2021 19.779C21.5863 17.3932 22.6153 14.4794 22.2768 11.1144ZM16.3154 4.01271C16.3794 4.01393 16.4417 4.03415 16.4943 4.07082C16.5468 4.10749 16.5873 4.15894 16.6106 4.21866C16.6338 4.27837 16.6388 4.34365 16.6249 4.40621C16.611 4.46877 16.5789 4.5258 16.5325 4.57004C16.4861 4.61429 16.4277 4.64376 16.3645 4.65472C16.3014 4.66568 16.2364 4.65764 16.1779 4.63161C16.1193 4.60558 16.0698 4.56274 16.0356 4.50853C16.0014 4.45431 15.9842 4.39116 15.9859 4.3271C15.9887 4.24198 16.0247 4.16134 16.0864 4.10254C16.148 4.04374 16.2302 4.01148 16.3154 4.01271ZM14.8637 3.33729C14.9517 3.33769 15.0358 3.37289 15.0978 3.43519C15.1599 3.4975 15.1947 3.58183 15.1947 3.66974C15.1919 3.75499 15.1556 3.83571 15.0936 3.89431C15.0316 3.95291 14.949 3.98465 14.8637 3.98262C14.8214 3.98326 14.7793 3.97528 14.7401 3.95918C14.7009 3.94307 14.6654 3.91917 14.6357 3.88893C14.6061 3.85869 14.5828 3.82273 14.5675 3.78324C14.5521 3.74375 14.5449 3.70156 14.5463 3.65921C14.5467 3.57472 14.5801 3.49374 14.6395 3.43358C14.6988 3.37342 14.7793 3.33886 14.8637 3.33729ZM13.3354 2.92211C13.4183 2.93024 13.4959 2.96619 13.5557 3.0241C13.6156 3.08201 13.654 3.15847 13.6648 3.24102C13.6587 3.33053 13.6184 3.41427 13.5524 3.475C13.4864 3.53572 13.3995 3.56881 13.3098 3.56745C13.2254 3.5647 13.1453 3.529 13.0869 3.468C13.0284 3.40699 12.9961 3.32552 12.9969 3.24102C13.0008 3.1543 13.0384 3.0725 13.1015 3.01297C13.1647 2.95344 13.2486 2.92085 13.3354 2.92211ZM11.7349 2.78974C11.7985 2.78944 11.8607 2.808 11.9138 2.84306C11.9669 2.87812 12.0084 2.92811 12.033 2.98673C12.0577 3.04535 12.0645 3.10997 12.0525 3.17243C12.0405 3.23489 12.0102 3.29239 11.9656 3.33768C11.9209 3.38297 11.8638 3.41401 11.8015 3.42689C11.7393 3.43977 11.6746 3.43391 11.6156 3.41006C11.5566 3.3862 11.5061 3.34541 11.4703 3.29283C11.4345 3.24026 11.415 3.17826 11.4144 3.11466C11.4144 3.02926 11.4481 2.94729 11.508 2.88649C11.568 2.82568 11.6495 2.79092 11.7349 2.78974ZM10.1539 2.92362C10.2365 2.92829 10.3146 2.96323 10.3731 3.02177C10.4317 3.08031 10.4666 3.15836 10.4713 3.24102C10.4711 3.2844 10.4622 3.3273 10.4451 3.36716C10.428 3.40703 10.4031 3.44306 10.3718 3.47309C10.3405 3.50312 10.3035 3.52656 10.2629 3.54199C10.2224 3.55743 10.1792 3.56455 10.1358 3.56293C10.0939 3.56254 10.0525 3.5539 10.014 3.53751C9.97546 3.52112 9.94053 3.4973 9.9112 3.4674C9.88186 3.43751 9.8587 3.40213 9.84304 3.36329C9.82738 3.32445 9.81952 3.2829 9.81992 3.24102C9.82338 3.15599 9.85931 3.07553 9.92032 3.0162C9.98133 2.95687 10.0628 2.9232 10.1479 2.92211L10.1539 2.92362ZM8.60748 3.33729C8.69273 3.33848 8.77407 3.37329 8.83379 3.43414C8.89351 3.49498 8.92679 3.57695 8.92638 3.66221C8.92741 3.70444 8.91987 3.74644 8.90423 3.78568C8.88858 3.82492 8.86515 3.86058 8.83535 3.89052C8.80555 3.92046 8.77 3.94406 8.73084 3.95988C8.69168 3.97571 8.64971 3.98345 8.60748 3.98262C8.56387 3.98385 8.52047 3.97623 8.47988 3.96024C8.43929 3.94425 8.40235 3.92022 8.3713 3.88958C8.34024 3.85895 8.3157 3.82234 8.29916 3.78198C8.28262 3.74161 8.27441 3.69831 8.27504 3.65469C8.27927 3.56928 8.31611 3.48875 8.37796 3.4297C8.43982 3.37065 8.52196 3.33757 8.60748 3.33729ZM7.15435 4.01271C7.19858 4.00969 7.24295 4.01579 7.28472 4.03064C7.32649 4.04549 7.36476 4.06876 7.39716 4.09902C7.42955 4.12928 7.45538 4.16587 7.47304 4.20653C7.4907 4.24719 7.49982 4.29105 7.49982 4.33538C7.49982 4.3797 7.4907 4.42356 7.47304 4.46422C7.45538 4.50488 7.42955 4.54147 7.39716 4.57173C7.36476 4.60199 7.32649 4.62527 7.28472 4.64011C7.24295 4.65496 7.19858 4.66106 7.15435 4.65804C7.07258 4.65246 6.99599 4.61603 6.94004 4.55614C6.8841 4.49624 6.85298 4.41734 6.85298 4.33538C6.85298 4.25342 6.8841 4.17451 6.94004 4.11462C6.99599 4.05472 7.07258 4.0183 7.15435 4.01271ZM5.85617 4.9258C5.94145 4.92774 6.02266 4.96269 6.0827 5.02329C6.14274 5.08389 6.17694 5.16542 6.17808 5.25073C6.17769 5.33598 6.14364 5.41763 6.08336 5.47792C6.02307 5.5382 5.94142 5.57224 5.85617 5.57264C5.8139 5.57448 5.77169 5.56769 5.73214 5.55268C5.69258 5.53767 5.65649 5.51475 5.62609 5.48533C5.59568 5.45591 5.57159 5.4206 5.55528 5.38155C5.53897 5.34251 5.5308 5.30055 5.53124 5.25825C5.52961 5.21479 5.53683 5.17145 5.55249 5.13087C5.56814 5.09029 5.59189 5.05332 5.62229 5.02222C5.65269 4.99112 5.6891 4.96653 5.72931 4.94995C5.76952 4.93338 5.81268 4.92516 5.85617 4.9258ZM4.73398 6.0525C4.81924 6.05602 4.89973 6.09279 4.95821 6.15493C5.01669 6.21707 5.04852 6.29963 5.04687 6.38495C5.0449 6.46993 5.00954 6.55073 4.94845 6.60985C4.88736 6.66897 4.80545 6.70166 4.72044 6.70084C4.63513 6.69855 4.55397 6.66353 4.49377 6.60305C4.43356 6.54256 4.39892 6.46124 4.39702 6.37592C4.40051 6.28918 4.43734 6.20713 4.49984 6.14688C4.56233 6.08663 4.64567 6.05282 4.73248 6.0525H4.73398ZM3.81186 7.36423C3.8541 7.3634 3.89606 7.37114 3.93522 7.38697C3.97439 7.40279 4.00994 7.42639 4.03974 7.45633C4.06954 7.48627 4.09296 7.52193 4.10861 7.56117C4.12425 7.60041 4.13179 7.64241 4.13077 7.68464C4.13158 7.77004 4.09873 7.85233 4.03933 7.91371C3.97993 7.97508 3.89876 8.01059 3.81337 8.01257C3.72582 8.01101 3.64232 7.97544 3.58055 7.91339C3.51878 7.85133 3.48359 7.76767 3.48243 7.68012C3.48517 7.59513 3.52097 7.51455 3.58222 7.45556C3.64347 7.39656 3.72532 7.36379 3.81036 7.36423H3.81186ZM3.13795 8.80682C3.18146 8.8072 3.22446 8.81627 3.26442 8.83351C3.30437 8.85075 3.34048 8.8758 3.37061 8.9072C3.40075 8.93859 3.4243 8.97569 3.43988 9.01632C3.45547 9.05695 3.46277 9.10029 3.46137 9.14378C3.45382 9.22657 3.41497 9.30336 3.35274 9.35848C3.29051 9.41361 3.20959 9.44291 3.12649 9.44042C3.0434 9.43792 2.96438 9.40382 2.90557 9.34506C2.84676 9.2863 2.81259 9.20732 2.81002 9.12422C2.81313 9.03921 2.849 8.9587 2.91012 8.89954C2.97124 8.84038 3.05288 8.80715 3.13795 8.80682ZM2.71675 10.3457C2.80429 10.3461 2.88817 10.3808 2.95034 10.4424C3.01252 10.504 3.04802 10.5876 3.0492 10.6751C3.04684 10.7603 3.01115 10.841 2.94982 10.9001C2.88849 10.9592 2.80642 10.9918 2.72127 10.991C2.67974 10.9912 2.63859 10.9831 2.60023 10.9672C2.56188 10.9513 2.52711 10.9278 2.49795 10.8982C2.4688 10.8687 2.44585 10.8336 2.43047 10.795C2.41509 10.7564 2.40758 10.7151 2.40838 10.6736C2.40714 10.5895 2.43887 10.5083 2.49679 10.4473C2.5547 10.3862 2.6342 10.3503 2.71826 10.3472L2.71675 10.3457ZM2.25795 12.2666C2.2598 12.1813 2.29412 12.0998 2.35394 12.0389C2.41375 11.978 2.49455 11.9421 2.57987 11.9387C2.62214 11.9383 2.66408 11.9463 2.70329 11.9621C2.7425 11.9779 2.77821 12.0013 2.80838 12.0309C2.83855 12.0605 2.86259 12.0957 2.87914 12.1347C2.89568 12.1736 2.90439 12.2153 2.90479 12.2576C2.90676 12.3022 2.89935 12.3467 2.88305 12.3882C2.86675 12.4297 2.84192 12.4674 2.81017 12.4987C2.77841 12.53 2.74043 12.5544 2.69869 12.5701C2.65695 12.5858 2.61237 12.5926 2.56783 12.5901C2.48517 12.5845 2.40757 12.5482 2.35025 12.4884C2.29293 12.4285 2.26001 12.3495 2.25795 12.2666ZM2.40838 13.8537C2.40797 13.7684 2.44125 13.6864 2.50097 13.6256C2.5607 13.5647 2.64203 13.5299 2.72728 13.5287C2.81469 13.5303 2.89803 13.5659 2.95956 13.628C3.02109 13.6901 3.05595 13.7738 3.05672 13.8612C3.05397 13.9464 3.01764 14.0271 2.95566 14.0857C2.89368 14.1443 2.81105 14.1761 2.72578 14.1741C2.68329 14.1751 2.64104 14.1675 2.60165 14.1515C2.56225 14.1355 2.52656 14.1117 2.49679 14.0813C2.46702 14.051 2.44381 14.0149 2.4286 13.9752C2.41339 13.9355 2.40651 13.8931 2.40838 13.8506V13.8537ZM3.14547 15.7159C3.06005 15.7176 2.97743 15.6855 2.9155 15.6266C2.85356 15.5678 2.81728 15.4869 2.81453 15.4015C2.81529 15.314 2.8501 15.2302 2.9116 15.1678C2.97309 15.1055 3.05643 15.0695 3.14397 15.0676C3.22785 15.0717 3.30709 15.1073 3.36592 15.1672C3.42474 15.2272 3.45882 15.3071 3.46137 15.391C3.46097 15.4763 3.42693 15.5579 3.36664 15.6182C3.30636 15.6785 3.22471 15.7125 3.13945 15.7129L3.14547 15.7159ZM3.81788 17.1645C3.73268 17.1638 3.65103 17.1303 3.58995 17.0709C3.52886 17.0115 3.49304 16.9308 3.48995 16.8456C3.48974 16.8023 3.49819 16.7594 3.51481 16.7194C3.53142 16.6794 3.55586 16.6432 3.5867 16.6128C3.61753 16.5823 3.65413 16.5584 3.69435 16.5423C3.73457 16.5263 3.77759 16.5184 3.82089 16.5192C3.86319 16.5184 3.90521 16.5262 3.9444 16.5421C3.98359 16.558 4.01911 16.5818 4.04882 16.6119C4.07852 16.642 4.10177 16.6779 4.11715 16.7173C4.13254 16.7567 4.13973 16.7989 4.13829 16.8411C4.1383 16.8839 4.12977 16.9261 4.1132 16.9655C4.09663 17.0049 4.07235 17.0405 4.0418 17.0704C4.01125 17.1003 3.97503 17.1237 3.93529 17.1393C3.89554 17.155 3.85306 17.1625 3.81036 17.1615L3.81788 17.1645ZM3.81788 14.6374L3.83443 14.5787H7.26416C8.15469 14.5787 8.15469 14.5787 8.15469 13.6761C8.15469 12.924 8.16222 12.1719 8.15469 11.4197C8.15469 11.1745 8.18779 11.0602 8.48112 11.0723C9.12645 11.0993 9.77479 11.0903 10.4201 11.0723C10.6458 11.0723 10.721 11.1414 10.721 11.3626C10.714 12.6252 10.714 13.8882 10.721 15.1518C10.721 15.3925 10.6458 15.5144 10.3915 15.4903C10.3175 15.4825 10.2429 15.4825 10.1689 15.4903C9.87859 15.5219 9.77931 15.4091 9.77931 15.1248C9.79284 14.2117 9.77931 13.3001 9.77931 12.387C9.77931 12.1358 9.70108 12.0199 9.43182 12.0199C9.16256 12.0199 9.0738 12.1042 9.07832 12.3719C9.09035 13.285 9.07832 14.1981 9.08885 15.1097C9.08885 15.4106 8.99709 15.4948 8.70676 15.4903C7.78314 15.4753 6.85651 15.5324 5.9389 15.4647C5.50567 15.4331 5.08598 15.1894 4.66629 15.024C4.38198 14.9127 4.09918 14.7667 3.81186 14.6344L3.81788 14.6374ZM4.76708 18.4763C4.71947 18.4817 4.67124 18.4768 4.6257 18.4619C4.58016 18.447 4.53839 18.4224 4.50324 18.3898C4.4681 18.3572 4.44041 18.3175 4.42207 18.2732C4.40374 18.2289 4.3952 18.1812 4.39702 18.1333C4.40225 18.0458 4.44006 17.9635 4.50299 17.9025C4.56591 17.8415 4.6494 17.8063 4.73699 17.8039C4.82466 17.8157 4.90544 17.8578 4.96533 17.9229C5.02522 17.988 5.06045 18.072 5.06492 18.1604C5.05232 18.2375 5.01647 18.3089 4.96217 18.3651C4.90787 18.4213 4.8377 18.4596 4.76106 18.4748L4.76708 18.4763ZM5.85015 19.5939C5.80796 19.594 5.7662 19.5855 5.72741 19.5689C5.68862 19.5523 5.6536 19.528 5.62448 19.4975C5.59535 19.467 5.57274 19.4308 5.55801 19.3913C5.54327 19.3518 5.53673 19.3097 5.53877 19.2675C5.53995 19.1821 5.57471 19.1006 5.63552 19.0407C5.69632 18.9807 5.77829 18.9471 5.86369 18.9471C5.94887 18.9502 6.02966 18.9857 6.08951 19.0464C6.14936 19.107 6.18374 19.1883 6.1856 19.2735C6.18529 19.3174 6.17601 19.3607 6.15835 19.4009C6.14069 19.441 6.11502 19.4771 6.0829 19.507C6.05079 19.5368 6.01291 19.5598 5.97159 19.5745C5.93027 19.5892 5.88639 19.5953 5.84263 19.5924L5.85015 19.5939ZM7.1709 20.51C7.12861 20.5117 7.08643 20.5047 7.04689 20.4897C7.00734 20.4746 6.97125 20.4517 6.94077 20.4223C6.91029 20.393 6.88605 20.3578 6.8695 20.3188C6.85296 20.2799 6.84444 20.238 6.84447 20.1957C6.84307 20.1522 6.85038 20.109 6.86598 20.0684C6.88158 20.0279 6.90516 19.9909 6.93531 19.9596C6.96547 19.9283 7.00159 19.9034 7.04153 19.8863C7.08148 19.8693 7.12445 19.8604 7.16789 19.8602C7.25306 19.8625 7.33405 19.8976 7.39401 19.9581C7.45398 20.0186 7.48829 20.0999 7.48981 20.1851C7.49022 20.228 7.48203 20.2705 7.46573 20.3101C7.44944 20.3497 7.42536 20.3856 7.39492 20.4158C7.36449 20.446 7.32832 20.4697 7.28855 20.4856C7.24878 20.5016 7.20621 20.5093 7.16338 20.5085L7.1709 20.51ZM8.61801 21.1825C8.57385 21.1849 8.52965 21.1783 8.48812 21.1631C8.44659 21.1479 8.4086 21.1243 8.37649 21.0939C8.34438 21.0635 8.31882 21.0268 8.30138 20.9862C8.28393 20.9455 8.27497 20.9018 8.27504 20.8575C8.27991 20.7731 8.31634 20.6937 8.37708 20.6349C8.43783 20.5761 8.51846 20.5423 8.60297 20.5401C8.68836 20.5405 8.77017 20.5745 8.83069 20.6348C8.89122 20.695 8.9256 20.7767 8.92638 20.862C8.92719 20.9039 8.91959 20.9455 8.90404 20.9843C8.88849 21.0232 8.8653 21.0585 8.83585 21.0883C8.80639 21.118 8.77127 21.1415 8.73256 21.1575C8.69385 21.1734 8.65234 21.1814 8.61049 21.181L8.61801 21.1825ZM7.39353 16.2951C7.10772 16.1808 6.83394 16.0363 6.55415 15.9055L6.58875 15.8137C8.0519 15.8137 9.51556 15.8137 10.9797 15.8137C11.6596 15.8137 11.5724 15.8739 11.5739 15.212C11.5739 13.2489 11.5814 11.2844 11.5739 9.32128C11.5739 8.99786 11.6627 8.90009 11.9861 8.91212C12.6118 8.93619 13.2376 8.92716 13.8649 8.91212C14.0905 8.91212 14.1913 8.97079 14.1913 9.21297C14.1863 11.6439 14.1863 14.0743 14.1913 16.5042C14.1913 16.7659 14.08 16.8471 13.8393 16.805C13.7577 16.7837 13.674 16.7711 13.5896 16.7674C13.191 16.781 13.1895 16.784 13.1895 16.3658C13.1895 14.3601 13.1895 12.3544 13.1895 10.3487C13.1895 10.1832 13.2527 9.96962 12.9774 9.926C12.6555 9.87485 12.5592 9.95007 12.5592 10.287C12.5592 12.3248 12.5592 14.3626 12.5592 16.4004C12.5592 16.8156 12.5592 16.8171 12.132 16.8171C11.07 16.8171 10.0095 16.802 8.94744 16.8171C8.33972 16.8411 7.89145 16.4967 7.38601 16.2951H7.39353ZM10.1539 21.5931C10.1106 21.5947 10.0674 21.5876 10.027 21.5722C9.98652 21.5567 9.9496 21.5333 9.91842 21.5032C9.88724 21.4731 9.86245 21.4371 9.84552 21.3972C9.8286 21.3574 9.81989 21.3145 9.81992 21.2712C9.81992 21.1846 9.85431 21.1016 9.91553 21.0404C9.97675 20.9792 10.0598 20.9448 10.1463 20.9448C10.2329 20.9448 10.3159 20.9792 10.3772 21.0404C10.4384 21.1016 10.4728 21.1846 10.4728 21.2712C10.472 21.3558 10.4383 21.4368 10.3787 21.4969C10.3191 21.557 10.2385 21.5916 10.1539 21.5931ZM11.7349 21.7435C11.6473 21.742 11.564 21.7058 11.5031 21.6429C11.4422 21.58 11.4087 21.4956 11.4099 21.4081C11.4117 21.3439 11.4324 21.2816 11.4694 21.2291C11.5064 21.1766 11.5581 21.1362 11.6179 21.1129C11.6778 21.0896 11.7432 21.0845 11.806 21.0982C11.8687 21.1119 11.926 21.1439 11.9707 21.19C12.0154 21.2362 12.0455 21.2945 12.0572 21.3576C12.0689 21.4208 12.0617 21.486 12.0365 21.5451C12.0114 21.6042 11.9693 21.6545 11.9156 21.6898C11.862 21.7251 11.7991 21.7438 11.7349 21.7435ZM13.2993 21.5931C13.2164 21.5873 13.139 21.5499 13.083 21.4886C13.027 21.4273 12.9967 21.3467 12.9984 21.2637C13 21.2208 13.01 21.1787 13.0279 21.1397C13.0458 21.1007 13.0711 21.0656 13.1026 21.0364C13.134 21.0072 13.1709 20.9845 13.2111 20.9695C13.2513 20.9546 13.294 20.9477 13.3369 20.9493C13.3798 20.9509 13.4219 20.9609 13.4609 20.9787C13.4999 20.9966 13.535 21.022 13.5642 21.0534C13.5934 21.0848 13.6161 21.1217 13.6311 21.1619C13.646 21.2021 13.6529 21.2449 13.6513 21.2878C13.6493 21.3313 13.6384 21.3739 13.6194 21.4131C13.6004 21.4523 13.5736 21.4873 13.5407 21.5158C13.5078 21.5444 13.4694 21.5659 13.4279 21.5792C13.3864 21.5925 13.3427 21.5972 13.2993 21.5931ZM14.8622 21.181C14.8199 21.1818 14.7778 21.174 14.7385 21.1581C14.6993 21.1422 14.6636 21.1184 14.6338 21.0883C14.604 21.0582 14.5806 21.0224 14.565 20.983C14.5495 20.9436 14.5421 20.9014 14.5433 20.859C14.5452 20.7751 14.5795 20.6951 14.6389 20.6357C14.6983 20.5763 14.7783 20.542 14.8622 20.5401C14.9495 20.5421 15.0326 20.5778 15.0941 20.6398C15.1555 20.7018 15.1905 20.7853 15.1917 20.8726C15.1878 20.9568 15.1512 21.0361 15.0896 21.0937C15.0281 21.1513 14.9465 21.1826 14.8622 21.181ZM16.3139 20.507C16.2716 20.508 16.2296 20.5006 16.1902 20.4852C16.1508 20.4698 16.1149 20.4468 16.0846 20.4174C16.0542 20.388 16.03 20.3529 16.0133 20.314C15.9966 20.2752 15.9878 20.2334 15.9874 20.1911C15.987 20.1036 16.0213 20.0195 16.0828 19.9572C16.1442 19.8949 16.2279 19.8595 16.3154 19.8587C16.4008 19.8607 16.4819 19.8962 16.5413 19.9576C16.6007 20.0189 16.6336 20.1012 16.6328 20.1866C16.6338 20.2291 16.6262 20.2713 16.6105 20.3107C16.5948 20.3501 16.5712 20.3859 16.5413 20.416C16.5114 20.4461 16.4756 20.4698 16.4363 20.4857C16.3969 20.5016 16.3548 20.5094 16.3124 20.5085L16.3139 20.507ZM16.5861 17.4037C16.6343 16.9254 16.5651 10.2028 16.5666 8.1645C16.5666 7.96744 16.5876 7.78392 16.2853 7.78843C16.0416 7.78843 15.9844 7.87718 15.9844 8.10734C15.9934 9.16785 15.9679 17.0848 15.9679 17.0848C15.9679 17.0848 15.9679 17.7362 15.9679 18.0807C15.8551 18.0927 15.7633 18.1092 15.667 18.1107C14.2891 18.1107 12.9097 18.1378 11.5333 18.0957C11.1873 18.0852 10.8428 17.8655 10.5059 17.7241C10.1146 17.5679 9.73974 17.3734 9.38669 17.1435C9.47695 17.1435 9.5672 17.1269 9.65746 17.1269L14.2726 17.1465C14.9796 17.1465 14.969 17.1465 14.969 16.4666C14.969 13.3678 14.969 10.269 14.969 7.16867C14.969 6.90843 15.0277 6.78809 15.3225 6.79712C15.9904 6.81818 16.6598 6.81065 17.3277 6.79712C17.5519 6.79712 17.6286 6.87383 17.6286 7.09797C17.6286 9.42257 17.6286 11.7467 17.6286 14.0703C17.6286 15.2737 17.6286 16.4771 17.6286 17.6805C17.6286 18.1092 17.6286 18.1092 17.1863 18.1107C16.5034 18.1168 16.5139 18.0987 16.5846 17.4052L16.5861 17.4037ZM17.6166 19.5909C17.5314 19.5917 17.4495 19.5588 17.3886 19.4993C17.3277 19.4398 17.2928 19.3587 17.2916 19.2735C17.2928 19.186 17.3283 19.1025 17.3905 19.0408C17.4527 18.9792 17.5365 18.9445 17.6241 18.9441C17.7093 18.9465 17.7902 18.9824 17.8491 19.0441C17.908 19.1058 17.9401 19.1883 17.9385 19.2735C17.9398 19.3162 17.9322 19.3586 17.9164 19.3981C17.9005 19.4377 17.8767 19.4736 17.8463 19.5035C17.816 19.5335 17.7797 19.5568 17.74 19.5721C17.7002 19.5874 17.6576 19.5943 17.6151 19.5924L17.6166 19.5909ZM17.6271 5.57114C17.5837 5.57275 17.5405 5.56563 17.5 5.55019C17.4594 5.53476 17.4224 5.51133 17.3911 5.48129C17.3598 5.45126 17.3349 5.41523 17.3178 5.37537C17.3007 5.3355 17.2918 5.2926 17.2916 5.24922C17.2932 5.16404 17.3275 5.08272 17.3874 5.0222C17.4474 4.96167 17.5284 4.92661 17.6136 4.9243C17.6987 4.9239 17.7805 4.95722 17.8411 5.01699C17.9017 5.07675 17.9362 5.15809 17.937 5.2432C17.9394 5.28559 17.9332 5.32803 17.9187 5.36792C17.9041 5.4078 17.8816 5.4443 17.8524 5.47515C17.8232 5.506 17.7881 5.53057 17.7491 5.54733C17.7101 5.5641 17.668 5.57271 17.6256 5.57264L17.6271 5.57114ZM18.7402 18.4657C18.6547 18.4657 18.5726 18.4317 18.5121 18.3712C18.4516 18.3107 18.4176 18.2287 18.4176 18.1431C18.4176 18.0575 18.4516 17.9754 18.5121 17.9149C18.5726 17.8544 18.6547 17.8204 18.7402 17.8204C18.8258 17.8204 18.9079 17.8544 18.9684 17.9149C19.0289 17.9754 19.0629 18.0575 19.0629 18.1431C19.0629 18.2287 19.0289 18.3107 18.9684 18.3712C18.9079 18.4317 18.8258 18.4657 18.7402 18.4657ZM18.7402 6.70535C18.6537 6.70535 18.5706 6.67096 18.5094 6.60975C18.4482 6.54853 18.4138 6.4655 18.4138 6.37893C18.4138 6.29235 18.4482 6.20933 18.5094 6.14811C18.5706 6.08689 18.6537 6.0525 18.7402 6.0525C18.8268 6.0525 18.9099 6.08689 18.9711 6.14811C19.0323 6.20933 19.0667 6.29235 19.0667 6.37893C19.0667 6.4655 19.0323 6.54853 18.9711 6.60975C18.9099 6.67096 18.8268 6.70535 18.7402 6.70535ZM21.0613 10.6766C21.0622 10.7189 21.0544 10.761 21.0385 10.8001C21.0225 10.8393 20.9988 10.8749 20.9686 10.9046C20.9385 10.9343 20.9027 10.9575 20.8632 10.9729C20.8238 10.9883 20.7817 10.9955 20.7394 10.994C20.6539 10.9948 20.5715 10.9617 20.5104 10.902C20.4492 10.8422 20.4142 10.7606 20.413 10.6751C20.4138 10.6306 20.4234 10.5866 20.4414 10.5458C20.4593 10.505 20.4853 10.4682 20.5176 10.4375C20.55 10.4068 20.5881 10.3829 20.6298 10.3671C20.6715 10.3514 20.7159 10.3441 20.7605 10.3457C20.8436 10.3515 20.9213 10.3891 20.9773 10.4508C21.0334 10.5124 21.0635 10.5933 21.0613 10.6766ZM19.6563 7.36723C19.7416 7.36761 19.8234 7.40135 19.8841 7.46123C19.9448 7.52111 19.9797 7.60238 19.9813 7.68764C19.9789 7.77492 19.9428 7.85788 19.8805 7.91905C19.8182 7.98022 19.7346 8.01483 19.6473 8.01558C19.5622 8.01244 19.4817 7.976 19.4232 7.9141C19.3647 7.8522 19.3328 7.7698 19.3344 7.68464C19.3334 7.64162 19.3412 7.59884 19.3573 7.55898C19.3735 7.51912 19.3978 7.48302 19.4286 7.45295C19.4593 7.42288 19.496 7.39948 19.5362 7.38421C19.5764 7.36895 19.6194 7.36214 19.6624 7.36423L19.6563 7.36723ZM19.6563 17.1645C19.6141 17.1646 19.5724 17.1562 19.5334 17.14C19.4944 17.1238 19.459 17.1001 19.4293 17.0702C19.3995 17.0403 19.3759 17.0048 19.3599 16.9657C19.3439 16.9267 19.3357 16.8848 19.3359 16.8426C19.3343 16.8004 19.3413 16.7582 19.3565 16.7187C19.3717 16.6792 19.3948 16.6433 19.4243 16.613C19.4539 16.5827 19.4893 16.5588 19.5284 16.5427C19.5675 16.5266 19.6095 16.5186 19.6518 16.5192C19.6951 16.5182 19.7382 16.5259 19.7785 16.5418C19.8188 16.5576 19.8555 16.5814 19.8865 16.6117C19.9174 16.642 19.9421 16.6781 19.9588 16.718C19.9756 16.758 19.9843 16.8008 19.9843 16.8441C19.9808 16.9285 19.9453 17.0084 19.8849 17.0674C19.8245 17.1264 19.7438 17.1601 19.6594 17.1615L19.6563 17.1645ZM20.3303 8.80682C20.4156 8.80676 20.4976 8.83982 20.5591 8.89902C20.6205 8.95822 20.6566 9.03895 20.6597 9.12422C20.6597 9.2108 20.6253 9.29382 20.5641 9.35504C20.5029 9.41626 20.4198 9.45065 20.3333 9.45065C20.2467 9.45065 20.1637 9.41626 20.1025 9.35504C20.0412 9.29382 20.0068 9.2108 20.0068 9.12422C20.0095 9.03986 20.0447 8.95979 20.1049 8.90067C20.1652 8.84156 20.2459 8.80794 20.3303 8.80682ZM20.3408 15.7129C20.2555 15.7154 20.1727 15.684 20.1105 15.6257C20.0482 15.5674 20.0115 15.4868 20.0083 15.4015C20.0045 15.3571 20.0099 15.3123 20.0241 15.2699C20.0383 15.2276 20.061 15.1887 20.0908 15.1555C20.1207 15.1223 20.157 15.0955 20.1976 15.0769C20.2382 15.0583 20.2822 15.0483 20.3268 15.0473C20.3714 15.0464 20.4158 15.0546 20.4571 15.0715C20.4984 15.0884 20.5359 15.1136 20.5671 15.1456C20.5983 15.1775 20.6226 15.2155 20.6385 15.2572C20.6544 15.2989 20.6617 15.3434 20.6597 15.388C20.6597 15.4731 20.6263 15.5549 20.5667 15.6157C20.507 15.6764 20.4259 15.7114 20.3408 15.7129ZM20.7394 14.1711C20.6544 14.1695 20.5734 14.1348 20.5135 14.0744C20.4537 14.014 20.4198 13.9327 20.419 13.8476C20.4222 13.7599 20.4598 13.6768 20.5237 13.6166C20.5876 13.5563 20.6727 13.5237 20.7605 13.5257C20.8441 13.5315 20.9223 13.5696 20.9784 13.6319C21.0345 13.6942 21.0643 13.7759 21.0613 13.8597C21.0614 13.9015 21.053 13.9428 21.0367 13.9813C21.0204 14.0198 20.9965 14.0546 20.9664 14.0837C20.9364 14.1127 20.9008 14.1354 20.8618 14.1504C20.8228 14.1655 20.7812 14.1725 20.7394 14.1711ZM20.8899 12.5825C20.8475 12.5844 20.8051 12.5776 20.7655 12.5625C20.7258 12.5473 20.6896 12.5243 20.6592 12.4947C20.6288 12.4651 20.6047 12.4296 20.5885 12.3904C20.5723 12.3512 20.5643 12.3091 20.5649 12.2666C20.5608 12.2256 20.5651 12.1841 20.5777 12.1447C20.5903 12.1054 20.6109 12.0691 20.6381 12.038C20.6653 12.007 20.6987 11.9819 20.736 11.9643C20.7734 11.9467 20.814 11.9369 20.8553 11.9357C20.9014 11.9324 20.9476 11.9385 20.9914 11.9535C21.0351 11.9685 21.0753 11.9921 21.1097 12.023C21.1441 12.0539 21.1719 12.0914 21.1915 12.1332C21.2111 12.1751 21.2221 12.2205 21.2238 12.2666C21.2238 12.309 21.2153 12.351 21.1988 12.39C21.1823 12.429 21.158 12.4643 21.1276 12.4938C21.0971 12.5233 21.061 12.5463 21.0215 12.5616C20.9819 12.5768 20.9397 12.584 20.8974 12.5825H20.8899Z" fill="white"/>
<path d="M29.4165 21.5943H26.3613V4.74646H29.4165V21.5943Z" fill="white"/>
<path d="M49.8052 14.5442C49.8163 15.516 49.6343 16.4803 49.2697 17.3812C48.9348 18.216 48.4332 18.9737 47.7957 19.6081C47.1582 20.2425 46.398 20.7404 45.5617 21.0712C44.6687 21.4273 43.7145 21.6046 42.7532 21.5932H34.5038C34.2944 21.5952 34.0868 21.5553 33.8931 21.4759C33.7105 21.4019 33.5447 21.292 33.4054 21.1527C33.2661 21.0134 33.1562 20.8476 33.0822 20.6651C33.0028 20.4713 32.9629 20.2637 32.9649 20.0543V6.28122C32.9633 6.07481 33.0032 5.87019 33.0822 5.67951C33.1577 5.49595 33.2674 5.32848 33.4057 5.18611C33.5439 5.04415 33.7098 4.93203 33.8931 4.85667C34.0868 4.7774 34.2944 4.73751 34.5038 4.73934H42.7532C43.715 4.7303 44.6692 4.9102 45.5617 5.26884C46.3986 5.60037 47.1591 6.09913 47.7967 6.73463C48.4342 7.37012 48.9355 8.129 49.2697 8.96484C49.632 9.86267 49.8135 10.8232 49.8037 11.7914L49.8052 14.5442ZM46.7486 11.7944C46.7554 11.2367 46.658 10.6826 46.4612 10.1607C46.2817 9.68635 46.0033 9.25561 45.6444 8.89714C45.2832 8.54321 44.8531 8.26724 44.3808 8.08634C43.8611 7.88925 43.309 7.79178 42.7532 7.79903H36.0186V18.5395H42.7532C43.307 18.5462 43.857 18.4487 44.3748 18.2522C44.8472 18.0715 45.2773 17.7955 45.6384 17.4414C45.9964 17.0845 46.2747 16.656 46.4552 16.1838C46.6531 15.6602 46.7505 15.1039 46.7425 14.5442L46.7486 11.7944Z" fill="white"/>
<path d="M68.0326 21.5932H57.0108C56.5402 21.586 56.073 21.511 55.6238 21.3705C55.0945 21.2127 54.603 20.9484 54.1795 20.5937C53.7561 20.2391 53.4096 19.8016 53.1613 19.3082C52.8578 18.685 52.7106 17.9973 52.7326 17.3045V6.2812C52.731 6.07479 52.7709 5.87017 52.85 5.67949C52.9254 5.49593 53.0351 5.32846 53.1734 5.18609C53.3116 5.0441 53.4775 4.93197 53.6608 4.85665C53.8545 4.77738 54.0621 4.73749 54.2715 4.73932H68.0326V7.7975H55.7863V17.3045C55.775 17.4707 55.7973 17.6374 55.8518 17.7948C55.9064 17.9522 55.992 18.097 56.1037 18.2206C56.3153 18.4322 56.6247 18.538 57.0318 18.538H68.0326V21.5932ZM66.6577 14.7066H57.0108V11.6289H66.6592L66.6577 14.7066Z" fill="white"/>
<path d="M78.6714 10.7624L83.819 4.74536H87.9979L80.7473 13.1918L87.9512 21.5932H83.8024L78.6714 15.6242L73.5779 21.5932H69.4186L76.6105 13.1918L69.3945 4.74536H73.5313L78.6714 10.7624Z" fill="white"/>
</svg>
