<svg width="32" height="33" viewBox="0 0 32 33" fill="none" xmlns="http://www.w3.org/2000/svg">
<g clip-path="url(#clip0)">
<path d="M17.5104 12.2106H13.8854V8.58561C13.8854 8.25211 13.6148 7.98145 13.2813 7.98145C12.9478 7.98145 12.6771 8.25211 12.6771 8.58561V12.2106H9.05216C8.71866 12.2106 8.448 12.4812 8.448 12.8147C8.448 13.1482 8.71866 13.4189 9.05216 13.4189H12.6771V17.0439C12.6771 17.3774 12.9478 17.648 13.2813 17.648C13.6148 17.648 13.8854 17.3774 13.8854 17.0439V13.4189H17.5104C17.8439 13.4189 18.1146 13.1482 18.1146 12.8147C18.1146 12.4812 17.8439 12.2106 17.5104 12.2106Z" fill="black"/>
<path d="M31.2376 31.1046L22.2604 21.7685C24.5502 19.4721 25.9688 16.3063 25.9688 12.8148C25.9688 5.81864 20.2776 0.127441 13.2814 0.127441C6.28519 0.127441 0.593994 5.81864 0.593994 12.8148C0.593994 19.811 6.28519 25.5022 13.2814 25.5022C16.3523 25.5022 19.1707 24.4044 21.3675 22.5829L30.3665 31.942C30.4849 32.0658 30.6432 32.1274 30.8021 32.1274C30.9531 32.1274 31.1035 32.0713 31.2207 31.9589C31.4612 31.7275 31.4684 31.3451 31.2376 31.1046ZM1.80232 12.8148C1.80232 6.48503 6.95158 1.33576 13.2814 1.33576C19.6112 1.33576 24.7604 6.48503 24.7604 12.8148C24.7604 19.1446 19.6112 24.2939 13.2814 24.2939C6.95158 24.2939 1.80232 19.1446 1.80232 12.8148Z" fill="black"/>
</g>
<defs>
<clipPath id="clip0">
<rect width="32" height="32" fill="white" transform="translate(0 0.127441)"/>
</clipPath>
</defs>
</svg>
