<svg width="32" height="33" viewBox="0 0 32 33" fill="none" xmlns="http://www.w3.org/2000/svg">
<path d="M29.969 21.0042C30.2135 19.9443 30.3448 18.8641 30.3448 17.7827C30.3448 12.7648 27.7897 8.19539 23.5095 5.56037C23.2485 5.40037 22.9098 5.48147 22.7503 5.74078C22.5903 6.00064 22.6714 6.33995 22.9307 6.49995C26.8822 8.93305 29.2413 13.1504 29.2413 17.7827C29.2413 18.735 29.131 19.6867 28.9252 20.6224C28.6708 20.5694 28.4077 20.5413 28.1379 20.5413C26.0082 20.5413 24.2758 22.2743 24.2758 24.4034C24.2758 26.5325 26.0082 28.2654 28.1379 28.2654C30.2675 28.2654 31.9999 26.5325 31.9999 24.4034C31.9999 22.9363 31.1773 21.658 29.969 21.0042ZM28.1379 27.162C26.6168 27.162 25.3793 25.9245 25.3793 24.4034C25.3793 22.8823 26.6168 21.6447 28.1379 21.6447C29.659 21.6447 30.8965 22.8823 30.8965 24.4034C30.8965 25.9245 29.659 27.162 28.1379 27.162Z" fill="black"/>
<path d="M21.0598 30.0207C19.4515 30.6861 17.7495 31.0237 16 31.0237C12.4772 31.0237 9.08853 29.6031 6.61129 27.1109C7.29874 26.413 7.72412 25.4574 7.72412 24.4031C7.72412 22.274 5.99171 20.541 3.86206 20.541C1.73241 20.541 0 22.274 0 24.4031C0 26.5322 1.73241 28.2651 3.86206 28.2651C4.53847 28.2651 5.17406 28.0891 5.72743 27.7824C8.41929 30.5471 12.1346 32.1272 16 32.1272C17.8951 32.1272 19.7395 31.7614 21.4819 31.0397C21.7633 30.9233 21.8973 30.6006 21.7809 30.3186C21.6645 30.0378 21.3412 29.9043 21.0598 30.0207ZM1.10345 24.4031C1.10345 22.882 2.34096 21.6445 3.86206 21.6445C5.38316 21.6445 6.62067 22.882 6.62067 24.4031C6.62067 25.9242 5.38316 27.1617 3.86206 27.1617C2.34096 27.1617 1.10345 25.9242 1.10345 24.4031Z" fill="black"/>
<path d="M2.20694 17.3484C2.22018 17.3495 2.23342 17.35 2.24611 17.35C2.53356 17.35 2.77521 17.1282 2.79618 16.8369C3.18901 11.2706 6.98155 6.61901 12.2968 5.0775C12.768 6.6786 14.2483 7.85156 16 7.85156C18.1297 7.85156 19.8621 6.1186 19.8621 3.9895C19.8621 1.8604 18.1297 0.127441 16 0.127441C13.8753 0.127441 12.1462 1.85268 12.1385 3.97571C6.30072 5.60164 2.12473 10.6764 1.69549 16.7597C1.67398 17.0631 1.90294 17.3274 2.20694 17.3484ZM16 1.23089C17.5211 1.23089 18.7586 2.4684 18.7586 3.9895C18.7586 5.5106 17.5211 6.74812 16 6.74812C14.4789 6.74812 13.2414 5.5106 13.2414 3.9895C13.2414 2.4684 14.4789 1.23089 16 1.23089Z" fill="black"/>
</svg>
