<svg width="36" height="45" viewBox="0 0 36 45" fill="none" xmlns="http://www.w3.org/2000/svg">
<path d="M36 4.53564H8.4V9.6785H4.2V14.8214H0V39.8009H27.6V34.6581H31.8V29.5152H36V4.53564ZM26.4 38.3316H1.2V16.2907H4.2V34.6581H26.4V38.3316ZM30.6 33.1887H27.6H24H20.4H16.8H13.2H9.6H6H5.4V32.454V28.0458V23.6377V19.2295V14.8214V11.1479H8.4V12.6173V17.0254V21.4336V25.8418V29.5152H11.4H15H18.6H22.2H25.8H29.4H30.6V33.1887ZM34.8 28.0458H31.8H9.6V9.6785V6.00503H34.8V28.0458Z" fill="black"/>
<path d="M17.4583 13.7683L22.9878 7.69922L25.2647 13.7848" stroke="black" stroke-miterlimit="10" stroke-linecap="round" stroke-linejoin="round"/>
<path d="M25.1877 22.4414L21.9571 25.9721L19.6802 19.8811" stroke="black" stroke-miterlimit="10" stroke-linecap="round" stroke-linejoin="round"/>
<path d="M27.536 19.8811L25.1875 22.4414" stroke="black" stroke-miterlimit="10"/>
<path d="M25.2538 13.7847H29.2231L31.5 19.8812H23.6384L21.3616 13.7847H13.5L15.7769 19.8812H19.6801" stroke="black" stroke-miterlimit="10" stroke-linecap="round" stroke-linejoin="round"/>
<path d="M25.2592 13.7847L19.6746 19.8812" stroke="black" stroke-miterlimit="10"/>
</svg>
