<svg width="45" height="45" viewBox="0 0 45 45" fill="none" xmlns="http://www.w3.org/2000/svg">
<path d="M10.6518 35.367H30.6766L29.7203 32.2704L32.008 34.2337L34.1047 36.1127L37.9246 39.3048V9.0759C37.8291 7.19686 36.2112 5.6001 34.2058 5.6001L10.6588 5.60431C8.65482 5.60431 7.02856 7.20388 7.02856 9.08292V31.8898C7.02856 33.8713 8.65201 35.367 10.6518 35.367ZM25.4651 13.5811L25.4187 13.5979L25.4356 13.5811H25.4651ZM14.7484 15.3632C17.3226 13.4898 19.7086 13.5797 19.7086 13.5797L19.901 13.7693C16.751 14.5206 15.3227 15.9278 15.3227 15.9278C15.3227 15.9278 15.7047 15.741 16.3718 15.4559C20.6144 13.7875 25.2474 13.9083 29.5363 16.0205C29.5363 16.0205 28.1053 14.7046 25.1491 13.862L25.4103 13.605C25.819 13.6064 27.9817 13.6822 30.2961 15.3745C30.2961 15.3745 32.8857 19.7982 32.8857 25.2331C32.8001 25.1292 31.2791 27.5728 27.3652 27.657C27.3652 27.657 26.7023 26.9071 26.2304 26.2527C28.5195 25.5954 29.3762 24.2809 29.3762 24.2809C28.6249 24.7542 27.9395 25.0351 27.3834 25.316C26.5282 25.6923 25.6715 25.8777 24.8162 26.0673C20.7661 26.7245 18.4924 25.6249 16.3437 24.7528L15.6092 24.3792C15.6092 24.3792 16.4645 25.6937 18.6623 26.351C18.0851 27.0096 17.5135 27.7582 17.5135 27.7582C13.601 27.6655 12.1742 25.2219 12.1742 25.2219C12.1742 19.7786 14.7484 15.3632 14.7484 15.3632Z" fill="white"/>
<path d="M25.7171 23.5355C26.7156 23.5355 27.5288 22.6929 27.5288 21.6536C27.5288 20.6214 26.7199 19.7788 25.7171 19.7788V19.783C24.7229 19.783 23.9083 20.6228 23.9055 21.6621C23.9055 22.6929 24.7186 23.5355 25.7171 23.5355Z" fill="white"/>
<path d="M19.2318 23.5355C20.2303 23.5355 21.0434 22.6929 21.0434 21.6536C21.0434 20.6214 20.2359 19.7788 19.2374 19.7788L19.2318 19.783C18.2333 19.783 17.4202 20.6228 17.4202 21.6621C17.4202 22.6929 18.2333 23.5355 19.2318 23.5355Z" fill="white"/>
</svg>
