<svg width="1920" height="943" viewBox="0 0 1920 943" fill="none" xmlns="http://www.w3.org/2000/svg">
<rect opacity="0.31" x="-42.2995" y="661.38" width="83.8528" height="83.8528" rx="2.5" transform="rotate(-37.1853 -42.2995 661.38)" stroke="#8EAAC6"/>
<rect opacity="0.31" x="1455.7" y="282.929" width="101.667" height="101.667" rx="2.5" transform="rotate(-52.1853 1455.7 282.929)" stroke="#8EAAC6"/>
<g style="mix-blend-mode:overlay">
<rect x="1459" y="541.601" width="35.8907" height="35.8907" rx="2.5" transform="rotate(-24.8882 1459 541.601)" stroke="#C8D6ED"/>
</g>
<rect x="1631.56" y="652.122" width="31.2847" height="31.2847" rx="2.5" transform="rotate(-37.1853 1631.56 652.122)" stroke="#C8D6ED"/>
<g style="mix-blend-mode:overlay">
<rect x="32.645" y="499.818" width="63.5985" height="63.5985" rx="1.5" transform="rotate(-60.8711 32.645 499.818)" stroke="#C8D6ED"/>
</g>
<g style="mix-blend-mode:overlay">
<rect x="298.524" y="613.235" width="63.5985" height="63.5985" rx="1.5" transform="rotate(-60.8711 298.524 613.235)" stroke="#C8D6ED"/>
</g>
<path opacity="0.3" d="M187.027 543.482C187.696 542.542 189.133 542.679 189.613 543.729L204.731 576.811C205.211 577.861 204.374 579.037 203.225 578.928L167.015 575.479C165.866 575.37 165.266 574.057 165.935 573.116L187.027 543.482Z" stroke="white"/>
<path opacity="0.3" d="M495.134 558.791C495.932 557.957 497.334 558.3 497.657 559.409L507.835 594.329C508.159 595.437 507.16 596.48 506.039 596.206L470.708 587.56C469.587 587.286 469.183 585.9 469.981 585.066L495.134 558.791Z" stroke="white"/>
<path opacity="0.65" d="M1811.09 652.993C1811.82 652.1 1813.25 652.334 1813.65 653.414L1846.7 741.022C1847.11 742.102 1846.2 743.218 1845.06 743.031L1752.66 727.851C1751.52 727.664 1751.01 726.313 1751.75 725.42L1811.09 652.993Z" stroke="#6765E0"/>
<g style="mix-blend-mode:overlay">
<path d="M1752.9 402.523C1753.41 401.488 1754.85 401.396 1755.49 402.357L1775.65 432.633C1776.29 433.594 1775.65 434.887 1774.5 434.961L1738.2 437.281C1737.04 437.355 1736.24 436.153 1736.76 435.118L1752.9 402.523Z" stroke="white"/>
</g>
<path opacity="0.3" d="M265.188 395.863C266.327 395.673 267.244 396.787 266.839 397.869L254.081 431.931C253.676 433.012 252.252 433.249 251.518 432.358L228.399 404.278C227.665 403.387 228.171 402.035 229.31 401.845L265.188 395.863Z" stroke="#0080FF"/>
<path opacity="0.3" d="M1501.51 406.709C1502.27 405.841 1503.69 406.122 1504.06 407.216L1515.75 441.658C1516.12 442.752 1515.17 443.837 1514.04 443.611L1478.36 436.516C1477.23 436.291 1476.77 434.924 1477.53 434.056L1501.51 406.709Z" stroke="#0080FF"/>
<path opacity="0.3" d="M1687.07 804.037C1687.67 803.045 1689.11 803.066 1689.67 804.074L1703.3 828.469C1703.86 829.477 1703.12 830.716 1701.97 830.7L1674.03 830.305C1672.87 830.289 1672.17 829.029 1672.76 828.037L1687.07 804.037Z" stroke="#0080FF"/>
<circle opacity="0.31" cx="105.294" cy="372.307" r="33.5" transform="rotate(7.81471 105.294 372.307)" stroke="url(#paint0_linear)"/>
<circle opacity="0.31" cx="1369.47" cy="396.736" r="50.5" transform="rotate(7.81471 1369.47 396.736)" stroke="#93A6EA"/>
<g style="mix-blend-mode:overlay">
<circle cx="371.826" cy="471.427" r="26" transform="rotate(7.81471 371.826 471.427)" stroke="#F0F5FC"/>
</g>
<g style="mix-blend-mode:overlay">
<circle cx="1631.32" cy="520.249" r="26" transform="rotate(7.81471 1631.32 520.249)" stroke="#0060FF"/>
</g>
<circle cx="1819.96" cy="877.719" r="22.5" transform="rotate(7.81471 1819.96 877.719)" stroke="#0060FF"/>
<defs>
<linearGradient id="paint0_linear" x1="143.294" y1="410.641" x2="109.294" y2="345.641" gradientUnits="userSpaceOnUse">
<stop stop-color="#93A6EA"/>
<stop offset="1" stop-color="#93A6EA" stop-opacity="0.92"/>
</linearGradient>
</defs>
</svg>
