<svg width="44" height="45" viewBox="0 0 44 45" fill="none" xmlns="http://www.w3.org/2000/svg">
<path d="M21.7174 6.5625C12.4064 6.5625 4.86499 13.9534 4.86499 23.0688C4.86499 30.3631 9.69319 36.5487 16.3878 38.7296C17.2304 38.885 17.5394 38.374 17.5394 37.9359C17.5394 37.544 17.5253 36.5053 17.5183 35.1293C12.8305 36.1246 11.8419 32.9149 11.8419 32.9149C11.0751 31.0098 9.96704 30.5002 9.96704 30.5002C8.4405 29.477 10.085 29.498 10.085 29.498C11.7773 29.6128 12.6662 31.1987 12.6662 31.1987C14.1689 33.7226 16.6111 32.9933 17.5745 32.5719C17.7262 31.5039 18.1601 30.7774 18.6418 30.3645C14.8992 29.9515 10.9655 28.5321 10.9655 22.2079C10.9655 20.4064 11.6186 18.9338 12.6999 17.779C12.5103 17.3618 11.9416 15.6835 12.8474 13.4103C12.8474 13.4103 14.2588 12.9679 17.4818 15.1026C18.83 14.7359 20.2624 14.5539 21.6949 14.5455C23.1273 14.5539 24.5598 14.7359 25.908 15.1026C29.1099 12.9679 30.5213 13.4103 30.5213 13.4103C31.4271 15.6835 30.8584 17.3618 30.6898 17.779C31.7642 18.9338 32.4172 20.4064 32.4172 22.2079C32.4172 28.5489 28.478 29.9445 24.7283 30.3505C25.3181 30.846 25.8658 31.858 25.8658 33.4048C25.8658 35.6137 25.8448 37.3886 25.8448 37.9247C25.8448 38.3572 26.1397 38.8738 27.0034 38.7086C33.7457 36.5417 38.5697 30.3519 38.5697 23.0688C38.5697 13.9534 31.0241 6.5625 21.7174 6.5625Z" fill="white"/>
</svg>
