<svg width="44" height="45" viewBox="0 0 44 45" fill="none" xmlns="http://www.w3.org/2000/svg">
<path d="M36.4446 12.1076L39.1339 9.53483V8.97168H29.8174L23.1775 25.4982L15.6235 8.97168H5.85472V9.53483L8.99628 13.3168C9.30243 13.5963 9.46253 14.0049 9.42181 14.4164V29.2788C9.51871 29.8138 9.34457 30.3644 8.9682 30.7534L5.4292 35.0423V35.5984H15.4634V35.0353L11.9244 30.7534C11.541 30.363 11.3598 29.8223 11.4371 29.2788V16.4232L20.2452 35.6054H21.269L28.8428 16.4232V31.7041C28.8428 32.1072 28.8428 32.19 28.5787 32.4541L25.8543 35.09V35.6546H39.0721V35.0914L36.446 32.5201C36.2157 32.3459 36.0963 32.0538 36.1454 31.7701V12.8576C36.0963 12.5725 36.2143 12.2804 36.4446 12.1076Z" fill="white"/>
</svg>
