<svg width="44" height="45" viewBox="0 0 44 45" fill="none" xmlns="http://www.w3.org/2000/svg">
<path d="M38.8515 12.2137C37.5981 12.7635 36.2625 13.1279 34.8701 13.3048C36.3025 12.4496 37.3958 11.1056 37.9098 9.48568C36.5743 10.282 35.0997 10.8444 33.5282 11.1583C32.2601 9.80798 30.4527 8.97168 28.4809 8.97168C24.6554 8.97168 21.5757 12.0767 21.5757 15.8833C21.5757 16.431 21.622 16.9576 21.7358 17.459C15.9912 17.1788 10.9081 14.4255 7.49342 10.2314C6.89727 11.2657 6.54758 12.4496 6.54758 13.724C6.54758 16.1171 7.77991 18.2384 9.61682 19.4665C8.50667 19.4454 7.41758 19.1231 6.49492 18.6154C6.49492 18.6365 6.49492 18.6639 6.49492 18.6913C6.49492 22.0491 8.89006 24.8382 12.0309 25.4807C11.4685 25.6345 10.8555 25.7082 10.2193 25.7082C9.77692 25.7082 9.33033 25.6829 8.91113 25.5902C9.80641 28.3266 12.3469 30.3384 15.3677 30.4037C13.0168 32.2427 10.0318 33.3507 6.80037 33.3507C6.23371 33.3507 5.69022 33.3255 5.14673 33.2559C8.20754 35.2298 11.835 36.3568 15.7469 36.3568C28.462 36.3568 35.4136 25.824 35.4136 16.6943C35.4136 16.3888 35.403 16.0939 35.3883 15.8011C36.7597 14.8279 37.9119 13.6124 38.8515 12.2137Z" fill="white"/>
</svg>
