<svg width="64" height="64" viewBox="0 0 64 64" fill="none" xmlns="http://www.w3.org/2000/svg">
<mask id="path-1-inside-1" fill="white">
<path d="M64 32C64 14.3552 49.6448 0 32 0C14.3552 0 0 14.3552 0 32C0 38.5515 1.98187 44.6475 5.37387 49.7259L5.37173 49.7483L5.59253 50.0715C5.78453 50.352 5.99147 50.6176 6.192 50.8907C6.27307 51.0016 6.35307 51.1136 6.43627 51.2245C6.69013 51.5616 6.95147 51.8923 7.21707 52.2176C7.29387 52.3115 7.37173 52.4043 7.4496 52.4971C8.68373 53.9744 10.0384 55.3269 11.4955 56.544C11.584 56.6176 11.6715 56.6923 11.7611 56.7659C12.0789 57.0251 12.4 57.2789 12.7275 57.5253C12.8597 57.6256 12.9941 57.7227 13.1275 57.8208C13.4389 58.0491 13.7504 58.2752 14.0704 58.4917C14.2411 58.608 14.4181 58.7168 14.5909 58.8299C15.0347 59.1179 15.4827 59.3963 15.9392 59.6608C16.2571 59.8464 16.576 60.0309 16.9013 60.2059C17.0976 60.3115 17.2981 60.4096 17.4965 60.5109C17.8421 60.688 18.1909 60.8597 18.544 61.024C18.7221 61.1061 18.9003 61.1872 19.0795 61.2661C19.488 61.4475 19.9019 61.6192 20.3189 61.7835C20.448 61.8347 20.576 61.8869 20.7061 61.9371C21.8507 62.3701 23.0261 62.7413 24.2283 63.0421C24.2773 63.0549 24.3275 63.0645 24.3765 63.0763C24.9077 63.2064 25.4443 63.3227 25.9861 63.4261C26.1301 63.4539 26.2741 63.4784 26.4181 63.504C26.8704 63.584 27.3248 63.6544 27.7835 63.7152C27.9584 63.7387 28.1323 63.7611 28.3072 63.7824C28.7541 63.8336 29.2043 63.8741 29.6565 63.9072C29.8251 63.92 29.9925 63.936 30.1611 63.9456C30.7701 63.9776 31.3824 64 32 64C32.6176 64 33.2299 63.9776 33.8389 63.9435C34.0075 63.9339 34.1749 63.9168 34.3435 63.9051C34.7957 63.872 35.2459 63.8325 35.6928 63.7803C35.8677 63.76 36.0427 63.7365 36.2165 63.7131C36.6752 63.6523 37.1296 63.5819 37.5819 63.5019C37.7259 63.4763 37.8699 63.4517 38.0139 63.424C38.5557 63.3205 39.0923 63.2043 39.6235 63.0741C39.6725 63.0624 39.7227 63.0517 39.7717 63.04C40.9739 62.7392 42.1493 62.368 43.2939 61.9349C43.424 61.8859 43.5531 61.8325 43.6832 61.7813C44.1003 61.6171 44.5131 61.4453 44.9216 61.2651C45.1008 61.1861 45.28 61.1051 45.4571 61.0229C45.8101 60.8587 46.1589 60.6869 46.5045 60.5099C46.704 60.4085 46.9035 60.3093 47.0997 60.2048C47.4251 60.0299 47.7429 59.8453 48.0619 59.6597C48.5184 59.3941 48.9675 59.1168 49.4101 58.8288C49.584 58.7157 49.76 58.6069 49.9307 58.4907C50.2496 58.2741 50.5621 58.048 50.8736 57.8197C51.0069 57.7216 51.1413 57.6245 51.2736 57.5243C51.6 57.2779 51.9221 57.024 52.24 56.7648C52.3296 56.6912 52.4171 56.6165 52.5056 56.5429C53.9627 55.3248 55.3173 53.9733 56.5525 52.4949C56.6304 52.4021 56.7072 52.3104 56.7829 52.2165C57.0485 51.8912 57.3099 51.5605 57.5637 51.2235C57.6469 51.1136 57.7259 51.0016 57.808 50.8896C58.0085 50.6165 58.2155 50.3509 58.4075 50.0704L58.6283 49.7472L58.6261 49.7248C62.0181 44.6475 64 38.5515 64 32ZM61.8667 32C61.8667 37.3035 60.4704 42.2848 58.0363 46.6069C56.2795 40.7829 51.0357 36.6091 44.8 36.3008V36.2667H44.0651H38.4H37.7227C37.5083 36.2667 37.3333 36.0917 37.3333 35.8773V35.1893C37.3333 34.9941 37.4923 34.8661 37.6277 34.8139C44.496 32.2315 48.7797 21.5189 47.8816 14.0267C47.4133 10.1248 45.4816 6.63787 42.6731 4.112C53.8848 8.41813 61.8667 19.2917 61.8667 32ZM56.0405 49.696C55.9541 49.8123 55.8677 49.9275 55.7803 50.0427C55.5424 50.3552 55.3024 50.6656 55.0528 50.9685C55.0272 50.9995 55.0005 51.0293 54.9749 51.0603C54.1131 52.0971 53.1819 53.0741 52.1899 53.9861C52.1312 54.0405 52.0725 54.096 52.0128 54.1493C51.7173 54.4171 51.4144 54.6773 51.1083 54.9333C51.0123 55.0133 50.9152 55.0923 50.8181 55.1712C50.5205 55.4133 50.2208 55.6512 49.9147 55.8816C49.8112 55.9595 49.7045 56.0331 49.6 56.1099C49.424 56.2389 49.2459 56.3637 49.0667 56.4885V44.8H44.8V38.4331C50.7456 38.7776 55.6139 43.2437 56.4171 49.168C56.2923 49.3451 56.1696 49.5221 56.0405 49.696ZM45.9883 58.3776C45.7995 58.4779 45.6075 58.5749 45.4155 58.672C45.0933 58.8341 44.7691 58.9909 44.4416 59.1413C44.2816 59.2149 44.1227 59.2885 43.9616 59.3589C43.5509 59.5381 43.136 59.7088 42.7179 59.8699C42.6315 59.9029 42.5472 59.9392 42.4608 59.9712C41.3941 60.3701 40.304 60.7093 39.1936 60.9845C39.1136 61.0048 39.0325 61.0208 38.9525 61.04C38.4928 61.1499 38.0299 61.2501 37.5637 61.3376C37.4251 61.3643 37.2864 61.3877 37.1467 61.4123C36.7328 61.4848 36.3168 61.5477 35.8987 61.6021C35.7376 61.6235 35.5765 61.6459 35.4144 61.664C35.0005 61.712 34.5835 61.7472 34.1664 61.7781C34.0117 61.7888 33.8581 61.8048 33.7024 61.8133C33.136 61.8475 32.5696 61.8667 32 61.8667C31.4304 61.8667 30.864 61.8475 30.2987 61.8155C30.1429 61.8069 29.9893 61.7909 29.8347 61.7803C29.4176 61.7493 29.0005 61.7141 28.5867 61.6661C28.4245 61.648 28.2635 61.6256 28.1024 61.6043C27.6843 61.5488 27.2683 61.4859 26.8544 61.4144C26.7157 61.3899 26.576 61.3664 26.4373 61.3397C25.9712 61.2512 25.5072 61.152 25.0475 61.0411C24.9675 61.0219 24.8875 61.0048 24.8075 60.9856C23.6971 60.7093 22.6059 60.3712 21.5392 59.9723C21.4528 59.9403 21.3675 59.904 21.2821 59.8709C20.864 59.7099 20.4491 59.5392 20.0395 59.36C19.8784 59.2896 19.7184 59.216 19.5584 59.1424C19.2309 58.992 18.9067 58.8352 18.5845 58.6731C18.3925 58.576 18.2005 58.48 18.0117 58.3787C17.7355 58.2325 17.4635 58.0768 17.1915 57.9221C17.1499 57.8976 17.1072 57.8741 17.0656 57.8496V46.9333H19.1989H25.5989H38.3989H44.7989H46.9323V57.8485C46.8907 57.8731 46.8491 57.8965 46.8064 57.9211C46.5365 58.0768 46.2645 58.2315 45.9883 58.3776ZM14.0864 55.8816C13.7803 55.6512 13.4805 55.4133 13.184 55.1723C13.0859 55.0933 12.9888 55.0133 12.8917 54.9333C12.5856 54.6784 12.2837 54.4181 11.9893 54.1504C11.9285 54.096 11.8699 54.0395 11.8101 53.9851C10.8181 53.0731 9.88693 52.0971 9.02613 51.0603C9.00053 51.0293 8.97387 50.9995 8.94827 50.9685C8.69867 50.6656 8.45867 50.3552 8.2208 50.0427C8.13333 49.9275 8.04587 49.8123 7.96053 49.696C7.83253 49.5221 7.70987 49.3451 7.58507 49.168C8.38613 43.2437 13.2544 38.7776 19.2 38.4331V44.8H14.9333V56.4885C14.7552 56.3637 14.576 56.2379 14.4 56.1099C14.2955 56.0331 14.1899 55.9595 14.0864 55.8816ZM27.1904 32.8437C22.0896 30.9568 18.1333 22.24 18.1333 16C18.1333 15.8635 18.1493 15.7301 18.1536 15.5947L18.9344 14.6315C20.6955 12.5365 23.7024 11.9371 26.4139 13.1381C27.504 13.6224 28.6656 13.8667 29.8667 13.8667C33.0357 13.8667 35.8827 12.144 37.3632 9.40373C40.7573 10.5184 43.7867 12.6197 45.8357 15.2683C46.1483 21.7749 42.3221 30.7701 36.8779 32.8171C35.8581 33.2011 35.2 34.1323 35.2 35.1893V35.8773C35.2 37.2672 36.3328 38.4 37.7227 38.4H38.4V44.8H25.6V38.4H26.2773C27.6672 38.4 28.8 37.2672 28.8 35.8773V35.2C28.8 34.1483 28.1547 33.2011 27.1904 32.8437ZM32.0427 2.13547C32.0555 2.13547 32.0661 2.13547 32.0779 2.13547C32.5995 2.13867 33.1125 2.16747 33.6032 2.224C38.8928 2.81387 43.3376 6.496 45.072 11.3856C42.816 9.4208 40.0501 7.90827 37.0752 7.09013L36.1579 6.8384L35.8027 7.71947C34.8203 10.1568 32.4907 11.7333 29.8667 11.7333C28.9653 11.7333 28.0939 11.5499 27.2779 11.1883C24.3275 9.88267 21.1051 10.2357 18.7264 11.9659C19.3803 9.8048 20.5611 7.82507 22.2048 6.18453C24.8224 3.57333 28.2987 2.13547 32.0427 2.13547ZM42.6667 44.8H40.5333V38.4H42.6667V44.8ZM23.4667 44.8H21.3333V38.4H23.4667V44.8ZM21.3141 4.11733C21.1083 4.30293 20.896 4.47787 20.6976 4.6752C17.6683 7.6992 16 11.7195 16 16C16 23.0709 20.4693 32.6325 26.4501 34.8437C26.5771 34.8917 26.6667 35.0379 26.6667 35.2V35.8773C26.6667 36.0917 26.4917 36.2667 26.2773 36.2667H25.6H19.9349H19.2V36.3008C12.9643 36.6091 7.72053 40.7829 5.96373 46.6069C3.5296 42.2848 2.13333 37.3035 2.13333 32C2.13333 19.296 10.1099 8.42667 21.3141 4.11733Z"/>
</mask>
<path d="M64 32C64 14.3552 49.6448 0 32 0C14.3552 0 0 14.3552 0 32C0 38.5515 1.98187 44.6475 5.37387 49.7259L5.37173 49.7483L5.59253 50.0715C5.78453 50.352 5.99147 50.6176 6.192 50.8907C6.27307 51.0016 6.35307 51.1136 6.43627 51.2245C6.69013 51.5616 6.95147 51.8923 7.21707 52.2176C7.29387 52.3115 7.37173 52.4043 7.4496 52.4971C8.68373 53.9744 10.0384 55.3269 11.4955 56.544C11.584 56.6176 11.6715 56.6923 11.7611 56.7659C12.0789 57.0251 12.4 57.2789 12.7275 57.5253C12.8597 57.6256 12.9941 57.7227 13.1275 57.8208C13.4389 58.0491 13.7504 58.2752 14.0704 58.4917C14.2411 58.608 14.4181 58.7168 14.5909 58.8299C15.0347 59.1179 15.4827 59.3963 15.9392 59.6608C16.2571 59.8464 16.576 60.0309 16.9013 60.2059C17.0976 60.3115 17.2981 60.4096 17.4965 60.5109C17.8421 60.688 18.1909 60.8597 18.544 61.024C18.7221 61.1061 18.9003 61.1872 19.0795 61.2661C19.488 61.4475 19.9019 61.6192 20.3189 61.7835C20.448 61.8347 20.576 61.8869 20.7061 61.9371C21.8507 62.3701 23.0261 62.7413 24.2283 63.0421C24.2773 63.0549 24.3275 63.0645 24.3765 63.0763C24.9077 63.2064 25.4443 63.3227 25.9861 63.4261C26.1301 63.4539 26.2741 63.4784 26.4181 63.504C26.8704 63.584 27.3248 63.6544 27.7835 63.7152C27.9584 63.7387 28.1323 63.7611 28.3072 63.7824C28.7541 63.8336 29.2043 63.8741 29.6565 63.9072C29.8251 63.92 29.9925 63.936 30.1611 63.9456C30.7701 63.9776 31.3824 64 32 64C32.6176 64 33.2299 63.9776 33.8389 63.9435C34.0075 63.9339 34.1749 63.9168 34.3435 63.9051C34.7957 63.872 35.2459 63.8325 35.6928 63.7803C35.8677 63.76 36.0427 63.7365 36.2165 63.7131C36.6752 63.6523 37.1296 63.5819 37.5819 63.5019C37.7259 63.4763 37.8699 63.4517 38.0139 63.424C38.5557 63.3205 39.0923 63.2043 39.6235 63.0741C39.6725 63.0624 39.7227 63.0517 39.7717 63.04C40.9739 62.7392 42.1493 62.368 43.2939 61.9349C43.424 61.8859 43.5531 61.8325 43.6832 61.7813C44.1003 61.6171 44.5131 61.4453 44.9216 61.2651C45.1008 61.1861 45.28 61.1051 45.4571 61.0229C45.8101 60.8587 46.1589 60.6869 46.5045 60.5099C46.704 60.4085 46.9035 60.3093 47.0997 60.2048C47.4251 60.0299 47.7429 59.8453 48.0619 59.6597C48.5184 59.3941 48.9675 59.1168 49.4101 58.8288C49.584 58.7157 49.76 58.6069 49.9307 58.4907C50.2496 58.2741 50.5621 58.048 50.8736 57.8197C51.0069 57.7216 51.1413 57.6245 51.2736 57.5243C51.6 57.2779 51.9221 57.024 52.24 56.7648C52.3296 56.6912 52.4171 56.6165 52.5056 56.5429C53.9627 55.3248 55.3173 53.9733 56.5525 52.4949C56.6304 52.4021 56.7072 52.3104 56.7829 52.2165C57.0485 51.8912 57.3099 51.5605 57.5637 51.2235C57.6469 51.1136 57.7259 51.0016 57.808 50.8896C58.0085 50.6165 58.2155 50.3509 58.4075 50.0704L58.6283 49.7472L58.6261 49.7248C62.0181 44.6475 64 38.5515 64 32ZM61.8667 32C61.8667 37.3035 60.4704 42.2848 58.0363 46.6069C56.2795 40.7829 51.0357 36.6091 44.8 36.3008V36.2667H44.0651H38.4H37.7227C37.5083 36.2667 37.3333 36.0917 37.3333 35.8773V35.1893C37.3333 34.9941 37.4923 34.8661 37.6277 34.8139C44.496 32.2315 48.7797 21.5189 47.8816 14.0267C47.4133 10.1248 45.4816 6.63787 42.6731 4.112C53.8848 8.41813 61.8667 19.2917 61.8667 32ZM56.0405 49.696C55.9541 49.8123 55.8677 49.9275 55.7803 50.0427C55.5424 50.3552 55.3024 50.6656 55.0528 50.9685C55.0272 50.9995 55.0005 51.0293 54.9749 51.0603C54.1131 52.0971 53.1819 53.0741 52.1899 53.9861C52.1312 54.0405 52.0725 54.096 52.0128 54.1493C51.7173 54.4171 51.4144 54.6773 51.1083 54.9333C51.0123 55.0133 50.9152 55.0923 50.8181 55.1712C50.5205 55.4133 50.2208 55.6512 49.9147 55.8816C49.8112 55.9595 49.7045 56.0331 49.6 56.1099C49.424 56.2389 49.2459 56.3637 49.0667 56.4885V44.8H44.8V38.4331C50.7456 38.7776 55.6139 43.2437 56.4171 49.168C56.2923 49.3451 56.1696 49.5221 56.0405 49.696ZM45.9883 58.3776C45.7995 58.4779 45.6075 58.5749 45.4155 58.672C45.0933 58.8341 44.7691 58.9909 44.4416 59.1413C44.2816 59.2149 44.1227 59.2885 43.9616 59.3589C43.5509 59.5381 43.136 59.7088 42.7179 59.8699C42.6315 59.9029 42.5472 59.9392 42.4608 59.9712C41.3941 60.3701 40.304 60.7093 39.1936 60.9845C39.1136 61.0048 39.0325 61.0208 38.9525 61.04C38.4928 61.1499 38.0299 61.2501 37.5637 61.3376C37.4251 61.3643 37.2864 61.3877 37.1467 61.4123C36.7328 61.4848 36.3168 61.5477 35.8987 61.6021C35.7376 61.6235 35.5765 61.6459 35.4144 61.664C35.0005 61.712 34.5835 61.7472 34.1664 61.7781C34.0117 61.7888 33.8581 61.8048 33.7024 61.8133C33.136 61.8475 32.5696 61.8667 32 61.8667C31.4304 61.8667 30.864 61.8475 30.2987 61.8155C30.1429 61.8069 29.9893 61.7909 29.8347 61.7803C29.4176 61.7493 29.0005 61.7141 28.5867 61.6661C28.4245 61.648 28.2635 61.6256 28.1024 61.6043C27.6843 61.5488 27.2683 61.4859 26.8544 61.4144C26.7157 61.3899 26.576 61.3664 26.4373 61.3397C25.9712 61.2512 25.5072 61.152 25.0475 61.0411C24.9675 61.0219 24.8875 61.0048 24.8075 60.9856C23.6971 60.7093 22.6059 60.3712 21.5392 59.9723C21.4528 59.9403 21.3675 59.904 21.2821 59.8709C20.864 59.7099 20.4491 59.5392 20.0395 59.36C19.8784 59.2896 19.7184 59.216 19.5584 59.1424C19.2309 58.992 18.9067 58.8352 18.5845 58.6731C18.3925 58.576 18.2005 58.48 18.0117 58.3787C17.7355 58.2325 17.4635 58.0768 17.1915 57.9221C17.1499 57.8976 17.1072 57.8741 17.0656 57.8496V46.9333H19.1989H25.5989H38.3989H44.7989H46.9323V57.8485C46.8907 57.8731 46.8491 57.8965 46.8064 57.9211C46.5365 58.0768 46.2645 58.2315 45.9883 58.3776ZM14.0864 55.8816C13.7803 55.6512 13.4805 55.4133 13.184 55.1723C13.0859 55.0933 12.9888 55.0133 12.8917 54.9333C12.5856 54.6784 12.2837 54.4181 11.9893 54.1504C11.9285 54.096 11.8699 54.0395 11.8101 53.9851C10.8181 53.0731 9.88693 52.0971 9.02613 51.0603C9.00053 51.0293 8.97387 50.9995 8.94827 50.9685C8.69867 50.6656 8.45867 50.3552 8.2208 50.0427C8.13333 49.9275 8.04587 49.8123 7.96053 49.696C7.83253 49.5221 7.70987 49.3451 7.58507 49.168C8.38613 43.2437 13.2544 38.7776 19.2 38.4331V44.8H14.9333V56.4885C14.7552 56.3637 14.576 56.2379 14.4 56.1099C14.2955 56.0331 14.1899 55.9595 14.0864 55.8816ZM27.1904 32.8437C22.0896 30.9568 18.1333 22.24 18.1333 16C18.1333 15.8635 18.1493 15.7301 18.1536 15.5947L18.9344 14.6315C20.6955 12.5365 23.7024 11.9371 26.4139 13.1381C27.504 13.6224 28.6656 13.8667 29.8667 13.8667C33.0357 13.8667 35.8827 12.144 37.3632 9.40373C40.7573 10.5184 43.7867 12.6197 45.8357 15.2683C46.1483 21.7749 42.3221 30.7701 36.8779 32.8171C35.8581 33.2011 35.2 34.1323 35.2 35.1893V35.8773C35.2 37.2672 36.3328 38.4 37.7227 38.4H38.4V44.8H25.6V38.4H26.2773C27.6672 38.4 28.8 37.2672 28.8 35.8773V35.2C28.8 34.1483 28.1547 33.2011 27.1904 32.8437ZM32.0427 2.13547C32.0555 2.13547 32.0661 2.13547 32.0779 2.13547C32.5995 2.13867 33.1125 2.16747 33.6032 2.224C38.8928 2.81387 43.3376 6.496 45.072 11.3856C42.816 9.4208 40.0501 7.90827 37.0752 7.09013L36.1579 6.8384L35.8027 7.71947C34.8203 10.1568 32.4907 11.7333 29.8667 11.7333C28.9653 11.7333 28.0939 11.5499 27.2779 11.1883C24.3275 9.88267 21.1051 10.2357 18.7264 11.9659C19.3803 9.8048 20.5611 7.82507 22.2048 6.18453C24.8224 3.57333 28.2987 2.13547 32.0427 2.13547ZM42.6667 44.8H40.5333V38.4H42.6667V44.8ZM23.4667 44.8H21.3333V38.4H23.4667V44.8ZM21.3141 4.11733C21.1083 4.30293 20.896 4.47787 20.6976 4.6752C17.6683 7.6992 16 11.7195 16 16C16 23.0709 20.4693 32.6325 26.4501 34.8437C26.5771 34.8917 26.6667 35.0379 26.6667 35.2V35.8773C26.6667 36.0917 26.4917 36.2667 26.2773 36.2667H25.6H19.9349H19.2V36.3008C12.9643 36.6091 7.72053 40.7829 5.96373 46.6069C3.5296 42.2848 2.13333 37.3035 2.13333 32C2.13333 19.296 10.1099 8.42667 21.3141 4.11733Z" fill="#557ECE" stroke="white" stroke-linecap="round" stroke-linejoin="round" mask="url(#path-1-inside-1)"/>
<path d="M17 17.5V27.25V37" stroke="#557ECE" stroke-linecap="round" stroke-linejoin="round"/>
<path d="M47 17.5V37" stroke="#557ECE" stroke-linecap="round" stroke-linejoin="round"/>
</svg>
