<svg width="62" height="64" viewBox="0 0 62 64" fill="none" xmlns="http://www.w3.org/2000/svg">
<path d="M61.5 32C61.5 49.418 48.3764 63.5 31 63.5C13.6236 63.5 0.5 49.418 0.5 32C0.5 14.582 13.6236 0.5 31 0.5C48.3764 0.5 61.5 14.582 61.5 32Z" stroke="#557ECE"/>
<path d="M58.5 32C58.5 48.3139 45.2714 62.5 29 62.5C12.75 62.5 0.5 48.3368 0.5 32C0.5 15.6632 12.75 1.5 29 1.5C45.2714 1.5 58.5 15.6861 58.5 32Z" stroke="#557ECE"/>
<path d="M54.6782 27.8491C54.8386 28.8785 54.9406 29.9238 54.9807 30.9805C54.7068 30.9883 54.4898 31.2154 54.4951 31.49C54.4984 31.6597 54.5 31.8297 54.5 32C54.5 32.1703 54.4984 32.3403 54.4951 32.51C54.4898 32.7846 54.7068 33.0117 54.9807 33.0195C54.9406 34.0762 54.8386 35.1215 54.6782 36.1509C54.4079 36.1062 54.1514 36.2877 54.1042 36.5582C54.0457 36.893 53.9809 37.226 53.9099 37.5571C53.8524 37.8256 54.0221 38.09 54.2896 38.1498C54.0497 39.1765 53.7517 40.1839 53.3991 41.1675C53.142 41.0726 52.8559 41.2026 52.7586 41.4594C52.6382 41.7771 52.5119 42.0922 52.38 42.4045C52.2731 42.6575 52.3903 42.949 52.6418 43.0579C52.2148 44.0199 51.7344 44.9545 51.2047 45.8569C50.9696 45.716 50.6644 45.7907 50.5211 46.025C50.3439 46.3149 50.1615 46.6012 49.9739 46.8838C49.8221 47.1126 49.8833 47.4208 50.1103 47.5744C49.5132 48.4401 48.8684 49.2699 48.1801 50.0591C47.9752 49.8771 47.6615 49.8939 47.4772 50.0975C47.2494 50.3493 47.017 50.5967 46.7801 50.8394C46.5883 51.036 46.5911 51.3501 46.7855 51.5433C46.0381 52.2818 45.2492 52.976 44.4229 53.621C44.2564 53.4034 43.9453 53.3602 43.7257 53.5251C43.4544 53.7287 43.1793 53.927 42.9003 54.1198C42.6745 54.2759 42.617 54.5847 42.7706 54.8115C41.8967 55.3913 40.9879 55.9186 40.0485 56.3884C39.9284 56.1422 39.6322 56.0382 39.3843 56.1561C39.0786 56.3016 38.7697 56.4408 38.4578 56.5737C38.2053 56.6813 38.087 56.9721 38.1919 57.2251C37.2226 57.6155 36.2257 57.9462 35.2053 58.2125C35.1389 57.9469 34.8708 57.7837 34.6039 57.8475C34.2754 57.9261 33.9446 57.9979 33.6115 58.0627C33.3422 58.1151 33.1657 58.3746 33.2153 58.6439C32.1916 58.8213 31.1479 58.9344 30.0878 58.9787C30.0792 58.705 29.8518 58.4887 29.5774 58.4946C29.4079 58.4982 29.2381 58.5 29.0678 58.5C28.8995 58.5 28.7317 58.4982 28.5645 58.4947C28.2901 58.4889 28.0627 58.7053 28.0542 58.9789C27.0088 58.9353 25.9839 58.8244 24.9823 58.6506C25.032 58.3815 24.8558 58.1218 24.5865 58.0692C24.2579 58.0049 23.932 57.9337 23.6088 57.8557C23.3421 57.7914 23.0737 57.9539 23.0068 58.2193C22.0023 57.954 21.0251 57.6243 20.0782 57.2348C20.185 56.9828 20.0692 56.6912 19.8177 56.5815C19.5114 56.4478 19.2084 56.3077 18.9089 56.1614C18.6623 56.0409 18.3651 56.1417 18.2424 56.3864C17.3243 55.9137 16.4396 55.3828 15.5916 54.7989C15.7493 54.575 15.6974 54.2654 15.4746 54.1051C15.2034 53.9101 14.9361 53.7095 14.673 53.5034C14.4569 53.3342 14.1451 53.3709 13.9741 53.5848C13.1769 52.9344 12.4186 52.2344 11.7025 51.4897C11.9019 51.3017 11.9129 50.9879 11.7264 50.7864C11.4995 50.5411 11.2771 50.2912 11.0593 50.0368C10.8808 49.8282 10.5677 49.8027 10.3579 49.979C9.70503 49.1865 9.09566 48.3534 8.53299 47.4846C8.7644 47.3378 8.83465 47.0315 8.68959 46.7983C8.51304 46.5145 8.34148 46.227 8.17502 45.9359C8.03869 45.6975 7.73581 45.6139 7.49669 45.7479C7.00366 44.8485 6.558 43.9176 6.16279 42.9597C6.41712 42.8574 6.54195 42.569 6.44169 42.3133C6.31968 42.0021 6.20304 41.6881 6.09188 41.3715C6.00089 41.1123 5.71805 40.9753 5.45863 41.0639C5.13629 40.0915 4.86448 39.096 4.64611 38.0818C4.91462 38.0265 5.08882 37.7649 5.03568 37.4954C4.97102 37.1675 4.91204 36.8377 4.85882 36.5062C4.81529 36.235 4.56123 36.0499 4.29018 36.0911C4.14565 35.0787 4.0539 34.0512 4.01766 33.0126C4.29173 33.0054 4.50929 32.7786 4.50445 32.5039C4.50149 32.3362 4.5 32.1682 4.5 32C4.5 31.8318 4.50149 31.6638 4.50445 31.4961C4.50929 31.2214 4.29173 30.9946 4.01766 30.9874C4.0539 29.9488 4.14565 28.9213 4.29019 27.9089C4.56123 27.9501 4.81529 27.765 4.85882 27.4938C4.91204 27.1623 4.97102 26.8325 5.03568 26.5046C5.08882 26.2351 4.91462 25.9735 4.64611 25.9182C4.86448 24.904 5.13629 23.9085 5.45863 22.9361C5.71806 23.0247 6.00089 22.8877 6.09188 22.6285C6.20304 22.3119 6.31968 21.9979 6.44169 21.6867C6.54195 21.431 6.41713 21.1426 6.16279 21.0403C6.558 20.0824 7.00366 19.1515 7.49669 18.2521C7.73581 18.3861 8.03869 18.3025 8.17502 18.0641C8.34148 17.773 8.51304 17.4855 8.68959 17.2017C8.83465 16.9685 8.7644 16.6622 8.53299 16.5154C9.09565 15.6466 9.70503 14.8135 10.3579 14.021C10.5677 14.1973 10.8808 14.1718 11.0593 13.9632C11.2771 13.7088 11.4995 13.4589 11.7264 13.2136C11.9129 13.0121 11.9019 12.6983 11.7025 12.5103C12.4186 11.7656 13.1769 11.0656 13.9741 10.4152C14.1451 10.6291 14.4569 10.6658 14.673 10.4966C14.9361 10.2905 15.2034 10.0899 15.4746 9.89485C15.6974 9.73464 15.7493 9.42504 15.5916 9.20113C16.4396 8.61719 17.3243 8.08635 18.2424 7.6136C18.3651 7.8583 18.6623 7.95909 18.9088 7.83862C19.2084 7.69226 19.5114 7.55217 19.8177 7.41853C20.0692 7.30881 20.185 7.01717 20.0782 6.76517C21.0251 6.37574 22.0023 6.046 23.0067 5.78073C23.0737 6.0461 23.3421 6.20865 23.6088 6.14429C23.932 6.0663 24.2579 5.99509 24.5865 5.93083C24.8558 5.87818 25.032 5.61855 24.9823 5.3494C25.9839 5.17561 27.0088 5.06474 28.0542 5.0211C28.0627 5.29475 28.2901 5.51108 28.5645 5.5053C28.7317 5.50177 28.8995 5.5 29.0678 5.5C29.2381 5.5 29.4079 5.50181 29.5774 5.50542C29.8518 5.51126 30.0792 5.29496 30.0878 5.0213C31.1479 5.06565 32.1916 5.17873 33.2153 5.3561C33.1657 5.62536 33.3422 5.88492 33.6115 5.93732C33.9446 6.00213 34.2754 6.07389 34.6039 6.15245C34.8708 6.2163 35.1389 6.0531 35.2053 5.78747C36.2257 6.05378 37.2226 6.38452 38.1919 6.77489C38.087 7.02786 38.2053 7.31867 38.4578 7.42628C38.7697 7.55919 39.0786 7.69845 39.3843 7.84388C39.6322 7.9618 39.9284 7.85777 40.0485 7.6116C40.9879 8.08144 41.8967 8.60871 42.7706 9.1885C42.617 9.41531 42.6745 9.72407 42.9003 9.88018C43.1793 10.073 43.4544 10.2713 43.7257 10.4749C43.9453 10.6398 44.2564 10.5966 44.4229 10.379C45.2492 11.024 46.0381 11.7182 46.7855 12.4567C46.5911 12.6499 46.5883 12.964 46.7801 13.1606C47.017 13.4033 47.2494 13.6507 47.4772 13.9025C47.6615 14.1061 47.9752 14.1229 48.1801 13.9409C48.8684 14.7301 49.5132 15.5599 50.1103 16.4256C49.8833 16.5792 49.8221 16.8874 49.9739 17.1162C50.1615 17.3988 50.3439 17.6851 50.5211 17.975C50.6644 18.2093 50.9696 18.284 51.2047 18.1431C51.7344 19.0455 52.2148 19.9801 52.6418 20.9421C52.3903 21.051 52.2731 21.3425 52.38 21.5955C52.5119 21.9078 52.6382 22.2229 52.7586 22.5406C52.8559 22.7974 53.142 22.9274 53.3991 22.8325C53.7517 23.8161 54.0497 24.8235 54.2896 25.8502C54.0221 25.91 53.8524 26.1744 53.9099 26.4429C53.9809 26.774 54.0457 27.107 54.1042 27.4418C54.1514 27.7123 54.4079 27.8938 54.6782 27.8491Z" stroke="#557ECE" stroke-linecap="round" stroke-linejoin="round" stroke-dasharray="1 4"/>
<path d="M20.4187 27.3643L29.4061 17.5L33.1068 27.3911" stroke="#557ECE" stroke-miterlimit="10" stroke-linecap="round" stroke-linejoin="round"/>
<path d="M32.9813 41.4613L27.7305 47.1999L24.0298 37.2999" stroke="#557ECE" stroke-miterlimit="10" stroke-linecap="round" stroke-linejoin="round"/>
<path d="M36.7986 37.2999L32.9814 41.4613" stroke="#557ECE" stroke-miterlimit="10"/>
<path d="M33.0889 27.3911H39.5405L43.2412 37.3H30.4635L26.7628 27.3911H13.9851L17.6858 37.3H24.0298" stroke="#557ECE" stroke-miterlimit="10" stroke-linecap="round" stroke-linejoin="round"/>
<path d="M33.098 27.3911L24.021 37.3" stroke="#557ECE" stroke-miterlimit="10"/>
<path d="M40.9998 3.93686L42 2.43701" stroke="#557ECE"/>
<path d="M56 19.2456L58.8063 17.7046" stroke="#557ECE"/>
<path d="M45.5 6.93701L46 6.18701L47 4.93701" stroke="#557ECE"/>
<path d="M57.0161 24.0055L60.0001 22.9371" stroke="#557ECE"/>
<path d="M50 10.937L52.0001 8.93703" stroke="#557ECE"/>
<path d="M57.9794 31.1864L61.5 31.1864" stroke="#557ECE"/>
<path d="M53 14.437L55.7888 12.5904" stroke="#557ECE"/>
<path d="M57.9999 37.3365L61.5 38" stroke="#557ECE"/>
<path d="M56.144 43.7725L59 45" stroke="#557ECE"/>
<path d="M52.5 50L55.1241 51.858" stroke="#557ECE"/>
<path d="M48 54.5L49.879 57.0237" stroke="#557ECE"/>
<path d="M42 59L43.2442 60.8651" stroke="#557ECE"/>
</svg>
