<svg width="64" height="64" viewBox="0 0 64 64" fill="none" xmlns="http://www.w3.org/2000/svg">
<mask id="path-1-inside-1" fill="white">
<path d="M64 32C64 14.3552 49.6448 0 32 0C14.3552 0 0 14.3552 0 32C0 38.5515 1.98187 44.6475 5.37387 49.7259L5.37173 49.7483L5.59253 50.0715C5.78453 50.352 5.99147 50.6176 6.192 50.8907C6.27307 51.0016 6.35307 51.1136 6.43627 51.2245C6.69013 51.5616 6.95147 51.8923 7.21707 52.2176C7.29387 52.3115 7.37173 52.4043 7.4496 52.4971C8.68373 53.9744 10.0384 55.3269 11.4955 56.544C11.584 56.6176 11.6715 56.6923 11.7611 56.7659C12.0789 57.0251 12.4 57.2789 12.7275 57.5253C12.8597 57.6256 12.9941 57.7227 13.1275 57.8208C13.4389 58.0491 13.7504 58.2752 14.0704 58.4917C14.2411 58.608 14.4181 58.7168 14.5909 58.8299C15.0347 59.1179 15.4827 59.3963 15.9392 59.6608C16.2571 59.8464 16.576 60.0309 16.9013 60.2059C17.0976 60.3115 17.2981 60.4096 17.4965 60.5109C17.8421 60.688 18.1909 60.8597 18.544 61.024C18.7221 61.1061 18.9003 61.1872 19.0795 61.2661C19.488 61.4475 19.9019 61.6192 20.3189 61.7835C20.448 61.8347 20.576 61.8869 20.7061 61.9371C21.8507 62.3701 23.0261 62.7413 24.2283 63.0421C24.2773 63.0549 24.3275 63.0645 24.3765 63.0763C24.9077 63.2064 25.4443 63.3227 25.9861 63.4261C26.1301 63.4539 26.2741 63.4784 26.4181 63.504C26.4395 63.5083 26.4597 63.5115 26.4811 63.5147L26.4779 63.536L27.0411 63.6149C27.1691 63.6352 27.2971 63.6501 27.4251 63.6683L27.5424 63.6843C27.5648 63.6875 27.5861 63.6885 27.6085 63.6907C27.6661 63.6981 27.7248 63.7056 27.7824 63.7131C27.9573 63.7365 28.1312 63.7589 28.3061 63.7803C28.7296 63.8293 29.1552 63.8677 29.584 63.8997C29.6736 63.9061 29.7632 63.9168 29.8517 63.9232C29.9541 63.9296 30.0576 63.9371 30.16 63.9435C30.7701 63.9776 31.3824 64 32 64C32.6176 64 33.2299 63.9776 33.8389 63.9435C33.9445 63.9371 34.0501 63.9296 34.1557 63.9221C34.2453 63.9157 34.3349 63.9051 34.4256 63.8987C34.8501 63.8667 35.2736 63.8283 35.6939 63.7803C35.8688 63.76 36.0437 63.7365 36.2176 63.7131C36.2869 63.7035 36.3563 63.696 36.4245 63.6864C36.4459 63.6832 36.4683 63.6821 36.4896 63.68L36.5973 63.6651C36.7179 63.648 36.8395 63.6331 36.9589 63.6139L37.5573 63.5296L37.5541 63.5072C37.5637 63.5051 37.5733 63.504 37.5829 63.5019C37.7269 63.4763 37.8709 63.4517 38.0149 63.424C38.5568 63.3205 39.0933 63.2043 39.6245 63.0741C39.6736 63.0624 39.7237 63.0517 39.7728 63.04C40.9749 62.7392 42.1504 62.368 43.2949 61.9349C43.4251 61.8859 43.5541 61.8325 43.6843 61.7813C44.1013 61.6171 44.5141 61.4453 44.9227 61.2651C45.1019 61.1861 45.2811 61.1051 45.4581 61.0229C45.8112 60.8587 46.16 60.6869 46.5056 60.5099C46.7051 60.4085 46.9045 60.3093 47.1008 60.2048C47.4261 60.0299 47.744 59.8453 48.0629 59.6597C48.5195 59.3941 48.9685 59.1168 49.4112 58.8288C49.5851 58.7157 49.7611 58.6069 49.9317 58.4907C50.2507 58.2741 50.5632 58.048 50.8747 57.8197C51.008 57.7216 51.1424 57.6245 51.2747 57.5243C51.6011 57.2779 51.9232 57.024 52.2411 56.7648C52.3307 56.6912 52.4181 56.6165 52.5067 56.5429C53.9637 55.3248 55.3184 53.9733 56.5536 52.4949C56.6315 52.4021 56.7083 52.3104 56.784 52.2165C57.0496 51.8912 57.3109 51.5605 57.5648 51.2235C57.648 51.1136 57.7269 51.0016 57.8091 50.8896C58.0096 50.6165 58.2165 50.3509 58.4085 50.0704L58.6293 49.7472L58.6272 49.7248C62.0181 44.6475 64 38.5515 64 32ZM61.8667 32C61.8667 37.3035 60.4704 42.2848 58.0363 46.6069C56.3221 40.9237 51.2885 36.8043 45.2523 36.3221L45.2117 36.2667H44.0651H38.9675H37.7237C37.5083 36.2667 37.3333 36.0917 37.3333 35.8773V35.1893C37.3333 34.9941 37.4923 34.8661 37.6277 34.8139C44.496 32.2315 48.7797 21.5189 47.8816 14.0267C47.4133 10.1248 45.4816 6.63787 42.6731 4.112C53.8848 8.41813 61.8667 19.2917 61.8667 32ZM56.0405 49.696C55.9541 49.8123 55.8677 49.9275 55.7803 50.0427C55.5424 50.3552 55.3024 50.6656 55.0528 50.9685C55.0272 50.9995 55.0005 51.0293 54.9749 51.0603C54.1131 52.0971 53.1819 53.0741 52.1899 53.9861C52.1312 54.0405 52.0725 54.096 52.0128 54.1493C51.7173 54.4171 51.4144 54.6773 51.1083 54.9333C51.0123 55.0133 50.9152 55.0923 50.8181 55.1712C50.5205 55.4133 50.2208 55.6512 49.9147 55.8816C49.8112 55.9595 49.7045 56.0331 49.6 56.1099C49.424 56.2389 49.2459 56.3637 49.0667 56.4885V51.2H46.9333V57.8485C46.8917 57.8731 46.8501 57.8965 46.8075 57.9211C46.5355 58.0768 46.2635 58.2315 45.9872 58.3776C45.7984 58.4779 45.6064 58.5749 45.4144 58.672C45.0923 58.8341 44.768 58.9909 44.4405 59.1413C44.2805 59.2149 44.1216 59.2885 43.9605 59.3589C43.5499 59.5381 43.1349 59.7088 42.7168 59.8699C42.6304 59.9029 42.5461 59.9392 42.4597 59.9712C41.3931 60.3701 40.3029 60.7093 39.1925 60.9845C39.1125 61.0048 39.0315 61.0208 38.9515 61.04C38.4917 61.1499 38.0288 61.2501 37.5627 61.3376C37.4539 61.3579 37.344 61.3771 37.2341 61.3963L35.3728 49.0667H36.2667V46.4373L41.0357 49.616L45.4869 38.4885C51.1179 39.1232 55.6459 43.4731 56.4171 49.168C56.2923 49.3451 56.1696 49.5221 56.0405 49.696ZM25.0475 61.0411C24.9675 61.0219 24.8875 61.0048 24.8075 60.9856C23.6971 60.7093 22.6059 60.3712 21.5392 59.9723C21.4528 59.9403 21.3675 59.904 21.2821 59.8709C20.864 59.7099 20.4491 59.5392 20.0395 59.36C19.8784 59.2896 19.7184 59.216 19.5584 59.1424C19.2309 58.992 18.9067 58.8352 18.5845 58.6731C18.3925 58.576 18.2005 58.48 18.0117 58.3787C17.7355 58.2325 17.4635 58.0768 17.1915 57.9221C17.1499 57.8976 17.1072 57.8741 17.0656 57.8496V51.2H14.9323V56.4885C14.7541 56.3637 14.5749 56.2379 14.3989 56.1099C14.2944 56.0331 14.1877 55.9595 14.0843 55.8816C13.7781 55.6512 13.4784 55.4133 13.1819 55.1723C13.0837 55.0933 12.9867 55.0133 12.8896 54.9333C12.5835 54.6784 12.2816 54.4181 11.9872 54.1504C11.9264 54.096 11.8677 54.0395 11.808 53.9851C10.816 53.0731 9.8848 52.0971 9.024 51.0603C8.9984 51.0293 8.97173 50.9995 8.94613 50.9685C8.69653 50.6656 8.45653 50.3552 8.21867 50.0427C8.1312 49.9275 8.04373 49.8123 7.9584 49.696C7.8304 49.5221 7.70773 49.3451 7.58293 49.168C8.3552 43.4731 12.8821 39.1232 18.5131 38.4885L22.9643 49.616L27.7333 46.4373V49.0667H28.6293L26.7947 61.4037C26.6752 61.3824 26.5557 61.3621 26.4373 61.3397C25.9712 61.2512 25.5072 61.1509 25.0475 61.0411ZM27.1904 32.8437C22.0896 30.9568 18.1333 22.24 18.1333 16C18.1333 15.8635 18.1493 15.7301 18.1536 15.5947L18.9344 14.6315C20.6955 12.5365 23.7013 11.9371 26.4139 13.1381C27.504 13.6224 28.6656 13.8667 29.8667 13.8667C33.0357 13.8667 35.8827 12.144 37.3632 9.40373C40.7573 10.5184 43.7867 12.6197 45.8357 15.2683C46.1483 21.7749 42.3221 30.7701 36.8779 32.8171C35.8581 33.2011 35.2 34.1323 35.2 35.1893V35.8773C35.2 37.0997 36.0747 38.1205 37.2309 38.3509L35.4112 40.5333H28.5888L26.7691 38.3499C27.9253 38.1205 28.8 37.0987 28.8 35.8773V35.2C28.8 34.1483 28.1547 33.2011 27.1904 32.8437ZM32.0427 2.13547C32.0555 2.13547 32.0661 2.13547 32.0779 2.13547C32.5995 2.13867 33.1125 2.16747 33.6032 2.224C38.8928 2.81387 43.3376 6.496 45.072 11.3856C42.816 9.4208 40.0501 7.90827 37.0752 7.09013L36.1579 6.8384L35.8027 7.71947C34.8203 10.1568 32.4907 11.7333 29.8667 11.7333C28.9653 11.7333 28.0939 11.5499 27.2779 11.1883C24.3275 9.88267 21.1061 10.2357 18.7264 11.9669C19.3803 9.80587 20.5611 7.82613 22.2048 6.1856C24.8224 3.57333 28.2987 2.13547 32.0427 2.13547ZM36.2667 42.8395L39.9669 38.4H43.2245L40.032 46.3829L36.2667 43.8741V42.8395ZM34.5227 61.7472C34.2347 61.7717 33.9456 61.7995 33.6597 61.8165C33.1115 61.8464 32.56 61.8667 32.0075 61.8667C31.9712 61.8667 31.9339 61.8635 31.8976 61.8635C31.3803 61.8613 30.864 61.8453 30.3509 61.8165C30.0693 61.8005 29.7856 61.7728 29.5019 61.7493C29.3035 61.7323 29.1061 61.7163 28.9088 61.6949L30.7861 49.0667H33.2149L35.12 61.6928C34.9216 61.7131 34.7221 61.7301 34.5227 61.7472ZM34.1333 46.9333H29.8667V45.0155V42.6667H34.1333V45.0155V46.9333ZM27.7333 42.8395V43.8741L23.9691 46.384L20.7765 38.4H24.0341L27.7333 42.8395ZM21.3141 4.11733C21.1083 4.30293 20.896 4.47787 20.6976 4.6752C17.6683 7.6992 16 11.7195 16 16C16 23.0709 20.4693 32.6325 26.4501 34.8437C26.5771 34.8917 26.6667 35.0379 26.6667 35.2V35.8773C26.6667 36.0917 26.4917 36.2667 26.2773 36.2667H25.0336H19.936H19.3547C19.2523 36.2667 19.1509 36.2816 19.0549 36.3083C12.8843 36.6741 7.70773 40.8299 5.9648 46.608C3.5296 42.2848 2.13333 37.3035 2.13333 32C2.13333 19.296 10.1099 8.42667 21.3141 4.11733Z"/>
</mask>
<path d="M64 32C64 14.3552 49.6448 0 32 0C14.3552 0 0 14.3552 0 32C0 38.5515 1.98187 44.6475 5.37387 49.7259L5.37173 49.7483L5.59253 50.0715C5.78453 50.352 5.99147 50.6176 6.192 50.8907C6.27307 51.0016 6.35307 51.1136 6.43627 51.2245C6.69013 51.5616 6.95147 51.8923 7.21707 52.2176C7.29387 52.3115 7.37173 52.4043 7.4496 52.4971C8.68373 53.9744 10.0384 55.3269 11.4955 56.544C11.584 56.6176 11.6715 56.6923 11.7611 56.7659C12.0789 57.0251 12.4 57.2789 12.7275 57.5253C12.8597 57.6256 12.9941 57.7227 13.1275 57.8208C13.4389 58.0491 13.7504 58.2752 14.0704 58.4917C14.2411 58.608 14.4181 58.7168 14.5909 58.8299C15.0347 59.1179 15.4827 59.3963 15.9392 59.6608C16.2571 59.8464 16.576 60.0309 16.9013 60.2059C17.0976 60.3115 17.2981 60.4096 17.4965 60.5109C17.8421 60.688 18.1909 60.8597 18.544 61.024C18.7221 61.1061 18.9003 61.1872 19.0795 61.2661C19.488 61.4475 19.9019 61.6192 20.3189 61.7835C20.448 61.8347 20.576 61.8869 20.7061 61.9371C21.8507 62.3701 23.0261 62.7413 24.2283 63.0421C24.2773 63.0549 24.3275 63.0645 24.3765 63.0763C24.9077 63.2064 25.4443 63.3227 25.9861 63.4261C26.1301 63.4539 26.2741 63.4784 26.4181 63.504C26.4395 63.5083 26.4597 63.5115 26.4811 63.5147L26.4779 63.536L27.0411 63.6149C27.1691 63.6352 27.2971 63.6501 27.4251 63.6683L27.5424 63.6843C27.5648 63.6875 27.5861 63.6885 27.6085 63.6907C27.6661 63.6981 27.7248 63.7056 27.7824 63.7131C27.9573 63.7365 28.1312 63.7589 28.3061 63.7803C28.7296 63.8293 29.1552 63.8677 29.584 63.8997C29.6736 63.9061 29.7632 63.9168 29.8517 63.9232C29.9541 63.9296 30.0576 63.9371 30.16 63.9435C30.7701 63.9776 31.3824 64 32 64C32.6176 64 33.2299 63.9776 33.8389 63.9435C33.9445 63.9371 34.0501 63.9296 34.1557 63.9221C34.2453 63.9157 34.3349 63.9051 34.4256 63.8987C34.8501 63.8667 35.2736 63.8283 35.6939 63.7803C35.8688 63.76 36.0437 63.7365 36.2176 63.7131C36.2869 63.7035 36.3563 63.696 36.4245 63.6864C36.4459 63.6832 36.4683 63.6821 36.4896 63.68L36.5973 63.6651C36.7179 63.648 36.8395 63.6331 36.9589 63.6139L37.5573 63.5296L37.5541 63.5072C37.5637 63.5051 37.5733 63.504 37.5829 63.5019C37.7269 63.4763 37.8709 63.4517 38.0149 63.424C38.5568 63.3205 39.0933 63.2043 39.6245 63.0741C39.6736 63.0624 39.7237 63.0517 39.7728 63.04C40.9749 62.7392 42.1504 62.368 43.2949 61.9349C43.4251 61.8859 43.5541 61.8325 43.6843 61.7813C44.1013 61.6171 44.5141 61.4453 44.9227 61.2651C45.1019 61.1861 45.2811 61.1051 45.4581 61.0229C45.8112 60.8587 46.16 60.6869 46.5056 60.5099C46.7051 60.4085 46.9045 60.3093 47.1008 60.2048C47.4261 60.0299 47.744 59.8453 48.0629 59.6597C48.5195 59.3941 48.9685 59.1168 49.4112 58.8288C49.5851 58.7157 49.7611 58.6069 49.9317 58.4907C50.2507 58.2741 50.5632 58.048 50.8747 57.8197C51.008 57.7216 51.1424 57.6245 51.2747 57.5243C51.6011 57.2779 51.9232 57.024 52.2411 56.7648C52.3307 56.6912 52.4181 56.6165 52.5067 56.5429C53.9637 55.3248 55.3184 53.9733 56.5536 52.4949C56.6315 52.4021 56.7083 52.3104 56.784 52.2165C57.0496 51.8912 57.3109 51.5605 57.5648 51.2235C57.648 51.1136 57.7269 51.0016 57.8091 50.8896C58.0096 50.6165 58.2165 50.3509 58.4085 50.0704L58.6293 49.7472L58.6272 49.7248C62.0181 44.6475 64 38.5515 64 32ZM61.8667 32C61.8667 37.3035 60.4704 42.2848 58.0363 46.6069C56.3221 40.9237 51.2885 36.8043 45.2523 36.3221L45.2117 36.2667H44.0651H38.9675H37.7237C37.5083 36.2667 37.3333 36.0917 37.3333 35.8773V35.1893C37.3333 34.9941 37.4923 34.8661 37.6277 34.8139C44.496 32.2315 48.7797 21.5189 47.8816 14.0267C47.4133 10.1248 45.4816 6.63787 42.6731 4.112C53.8848 8.41813 61.8667 19.2917 61.8667 32ZM56.0405 49.696C55.9541 49.8123 55.8677 49.9275 55.7803 50.0427C55.5424 50.3552 55.3024 50.6656 55.0528 50.9685C55.0272 50.9995 55.0005 51.0293 54.9749 51.0603C54.1131 52.0971 53.1819 53.0741 52.1899 53.9861C52.1312 54.0405 52.0725 54.096 52.0128 54.1493C51.7173 54.4171 51.4144 54.6773 51.1083 54.9333C51.0123 55.0133 50.9152 55.0923 50.8181 55.1712C50.5205 55.4133 50.2208 55.6512 49.9147 55.8816C49.8112 55.9595 49.7045 56.0331 49.6 56.1099C49.424 56.2389 49.2459 56.3637 49.0667 56.4885V51.2H46.9333V57.8485C46.8917 57.8731 46.8501 57.8965 46.8075 57.9211C46.5355 58.0768 46.2635 58.2315 45.9872 58.3776C45.7984 58.4779 45.6064 58.5749 45.4144 58.672C45.0923 58.8341 44.768 58.9909 44.4405 59.1413C44.2805 59.2149 44.1216 59.2885 43.9605 59.3589C43.5499 59.5381 43.1349 59.7088 42.7168 59.8699C42.6304 59.9029 42.5461 59.9392 42.4597 59.9712C41.3931 60.3701 40.3029 60.7093 39.1925 60.9845C39.1125 61.0048 39.0315 61.0208 38.9515 61.04C38.4917 61.1499 38.0288 61.2501 37.5627 61.3376C37.4539 61.3579 37.344 61.3771 37.2341 61.3963L35.3728 49.0667H36.2667V46.4373L41.0357 49.616L45.4869 38.4885C51.1179 39.1232 55.6459 43.4731 56.4171 49.168C56.2923 49.3451 56.1696 49.5221 56.0405 49.696ZM25.0475 61.0411C24.9675 61.0219 24.8875 61.0048 24.8075 60.9856C23.6971 60.7093 22.6059 60.3712 21.5392 59.9723C21.4528 59.9403 21.3675 59.904 21.2821 59.8709C20.864 59.7099 20.4491 59.5392 20.0395 59.36C19.8784 59.2896 19.7184 59.216 19.5584 59.1424C19.2309 58.992 18.9067 58.8352 18.5845 58.6731C18.3925 58.576 18.2005 58.48 18.0117 58.3787C17.7355 58.2325 17.4635 58.0768 17.1915 57.9221C17.1499 57.8976 17.1072 57.8741 17.0656 57.8496V51.2H14.9323V56.4885C14.7541 56.3637 14.5749 56.2379 14.3989 56.1099C14.2944 56.0331 14.1877 55.9595 14.0843 55.8816C13.7781 55.6512 13.4784 55.4133 13.1819 55.1723C13.0837 55.0933 12.9867 55.0133 12.8896 54.9333C12.5835 54.6784 12.2816 54.4181 11.9872 54.1504C11.9264 54.096 11.8677 54.0395 11.808 53.9851C10.816 53.0731 9.8848 52.0971 9.024 51.0603C8.9984 51.0293 8.97173 50.9995 8.94613 50.9685C8.69653 50.6656 8.45653 50.3552 8.21867 50.0427C8.1312 49.9275 8.04373 49.8123 7.9584 49.696C7.8304 49.5221 7.70773 49.3451 7.58293 49.168C8.3552 43.4731 12.8821 39.1232 18.5131 38.4885L22.9643 49.616L27.7333 46.4373V49.0667H28.6293L26.7947 61.4037C26.6752 61.3824 26.5557 61.3621 26.4373 61.3397C25.9712 61.2512 25.5072 61.1509 25.0475 61.0411ZM27.1904 32.8437C22.0896 30.9568 18.1333 22.24 18.1333 16C18.1333 15.8635 18.1493 15.7301 18.1536 15.5947L18.9344 14.6315C20.6955 12.5365 23.7013 11.9371 26.4139 13.1381C27.504 13.6224 28.6656 13.8667 29.8667 13.8667C33.0357 13.8667 35.8827 12.144 37.3632 9.40373C40.7573 10.5184 43.7867 12.6197 45.8357 15.2683C46.1483 21.7749 42.3221 30.7701 36.8779 32.8171C35.8581 33.2011 35.2 34.1323 35.2 35.1893V35.8773C35.2 37.0997 36.0747 38.1205 37.2309 38.3509L35.4112 40.5333H28.5888L26.7691 38.3499C27.9253 38.1205 28.8 37.0987 28.8 35.8773V35.2C28.8 34.1483 28.1547 33.2011 27.1904 32.8437ZM32.0427 2.13547C32.0555 2.13547 32.0661 2.13547 32.0779 2.13547C32.5995 2.13867 33.1125 2.16747 33.6032 2.224C38.8928 2.81387 43.3376 6.496 45.072 11.3856C42.816 9.4208 40.0501 7.90827 37.0752 7.09013L36.1579 6.8384L35.8027 7.71947C34.8203 10.1568 32.4907 11.7333 29.8667 11.7333C28.9653 11.7333 28.0939 11.5499 27.2779 11.1883C24.3275 9.88267 21.1061 10.2357 18.7264 11.9669C19.3803 9.80587 20.5611 7.82613 22.2048 6.1856C24.8224 3.57333 28.2987 2.13547 32.0427 2.13547ZM36.2667 42.8395L39.9669 38.4H43.2245L40.032 46.3829L36.2667 43.8741V42.8395ZM34.5227 61.7472C34.2347 61.7717 33.9456 61.7995 33.6597 61.8165C33.1115 61.8464 32.56 61.8667 32.0075 61.8667C31.9712 61.8667 31.9339 61.8635 31.8976 61.8635C31.3803 61.8613 30.864 61.8453 30.3509 61.8165C30.0693 61.8005 29.7856 61.7728 29.5019 61.7493C29.3035 61.7323 29.1061 61.7163 28.9088 61.6949L30.7861 49.0667H33.2149L35.12 61.6928C34.9216 61.7131 34.7221 61.7301 34.5227 61.7472ZM34.1333 46.9333H29.8667V45.0155V42.6667H34.1333V45.0155V46.9333ZM27.7333 42.8395V43.8741L23.9691 46.384L20.7765 38.4H24.0341L27.7333 42.8395ZM21.3141 4.11733C21.1083 4.30293 20.896 4.47787 20.6976 4.6752C17.6683 7.6992 16 11.7195 16 16C16 23.0709 20.4693 32.6325 26.4501 34.8437C26.5771 34.8917 26.6667 35.0379 26.6667 35.2V35.8773C26.6667 36.0917 26.4917 36.2667 26.2773 36.2667H25.0336H19.936H19.3547C19.2523 36.2667 19.1509 36.2816 19.0549 36.3083C12.8843 36.6741 7.70773 40.8299 5.9648 46.608C3.5296 42.2848 2.13333 37.3035 2.13333 32C2.13333 19.296 10.1099 8.42667 21.3141 4.11733Z" fill="#557ECE" stroke="white" stroke-linecap="round" stroke-linejoin="round" mask="url(#path-1-inside-1)"/>
</svg>
