<svg width="64" height="64" viewBox="0 0 64 64" fill="none" xmlns="http://www.w3.org/2000/svg">
<path d="M24.2833 43.7333C24.2833 45.9483 22.4817 47.75 20.2667 47.75C18.0517 47.75 16.25 45.9483 16.25 43.7333C16.25 41.5183 18.0517 39.7167 20.2667 39.7167C22.4817 39.7167 24.2833 41.5183 24.2833 43.7333ZM22.65 43.7333C22.65 42.4187 21.5813 41.35 20.2667 41.35C18.9521 41.35 17.8833 42.4187 17.8833 43.7333C17.8833 45.0479 18.9521 46.1167 20.2667 46.1167C21.5813 46.1167 22.65 45.0479 22.65 43.7333Z" fill="#557ECE" stroke="white" stroke-width="0.5" stroke-linecap="round" stroke-linejoin="round"/>
<path d="M42.9167 17.0667C42.9167 14.8517 44.7184 13.05 46.9334 13.05C49.1484 13.05 50.9501 14.8517 50.9501 17.0667C50.9501 19.2817 49.1484 21.0834 46.9334 21.0834C44.7184 21.0834 42.9167 19.2817 42.9167 17.0667ZM44.5501 17.0667C44.5501 18.3813 45.6188 19.45 46.9334 19.45C48.248 19.45 49.3167 18.3813 49.3167 17.0667C49.3167 15.7521 48.248 14.6834 46.9334 14.6834C45.6188 14.6834 44.5501 15.7521 44.5501 17.0667Z" fill="#557ECE" stroke="white" stroke-width="0.5" stroke-linecap="round" stroke-linejoin="round"/>
<path d="M28.5501 43.7333C28.5501 48.3003 24.8337 52.0166 20.2667 52.0166C15.6997 52.0166 11.9834 48.3003 11.9834 43.7333C11.9834 39.1663 15.6997 35.45 20.2667 35.45C24.8337 35.45 28.5501 39.1663 28.5501 43.7333ZM26.9167 43.7333C26.9167 40.0656 23.9344 37.0833 20.2667 37.0833C16.5991 37.0833 13.6167 40.0656 13.6167 43.7333C13.6167 47.401 16.5991 50.3833 20.2667 50.3833C23.9344 50.3833 26.9167 47.401 26.9167 43.7333Z" fill="#557ECE" stroke="white" stroke-width="0.5" stroke-linecap="round" stroke-linejoin="round"/>
<mask id="path-4-inside-1" fill="white">
<path d="M63.1328 39.3739C63.2608 38.8331 63.3749 38.288 63.4741 37.7376C63.4795 37.7088 63.4869 37.6811 63.4923 37.6523C63.4933 37.6459 63.4923 37.6395 63.4933 37.6331C63.8197 35.8016 64 33.9221 64 32C64 27.5989 63.1061 23.4037 61.4923 19.584C61.4859 19.5669 61.4859 19.5477 61.4784 19.5307C60.24 16.608 58.5568 13.8944 56.5259 11.4763C55.3312 10.0512 54.0149 8.7328 52.5941 7.53493C50.1579 5.47733 47.4208 3.77173 44.4693 2.52267C44.4533 2.5152 44.4352 2.5152 44.4181 2.50987C40.5984 0.893867 36.4011 0 32 0C30.1461 0 28.3307 0.167467 26.5621 0.471467C26.5589 0.471467 26.5557 0.471467 26.5536 0.471467C26.5237 0.4768 26.4939 0.4832 26.4629 0.4896C26.0309 0.565333 25.6011 0.647467 25.1755 0.740267C25.152 0.7456 25.1285 0.752 25.104 0.757333C23.4005 1.1328 21.7493 1.64587 20.1589 2.2816C20.0128 2.34027 19.8645 2.39467 19.7195 2.45547C19.4805 2.55467 19.2469 2.6624 19.0112 2.76693C18.7808 2.86933 18.5504 2.97067 18.3221 3.0784C18.1365 3.16693 17.9531 3.25973 17.7696 3.35147C17.7184 3.37707 17.6672 3.4016 17.616 3.4272C17.6021 3.4336 17.5861 3.4336 17.5712 3.44107C17.5072 3.47307 17.4464 3.50933 17.3824 3.5424C17.2331 3.6192 17.0859 3.6992 16.9376 3.77813C16.8064 3.84853 16.6763 3.92 16.5461 3.99253C16.3947 4.0768 16.2411 4.1568 16.0907 4.2432C15.9125 4.3456 15.7387 4.45333 15.5627 4.55893C15.4709 4.6144 15.3803 4.6688 15.2896 4.72533C14.9184 4.95253 14.5525 5.18827 14.1899 5.4304C14.1525 5.45493 14.1152 5.47947 14.0789 5.50507C13.8891 5.63307 13.6992 5.76 13.5125 5.89227C13.488 5.90933 13.4635 5.92853 13.4389 5.94667C13.0411 6.2304 12.6496 6.52373 12.2645 6.8256C12.2517 6.8352 12.2389 6.84373 12.2272 6.85333C12.224 6.85547 12.2229 6.85867 12.2208 6.8608C10.4672 8.24 8.848 9.80373 7.4016 11.5403C7.3824 11.5627 7.3728 11.5904 7.3568 11.6149C2.76373 17.1541 0 24.2603 0 32C0 35.1947 0.4768 38.2795 1.35253 41.1925C1.35467 41.2 1.35147 41.2085 1.3536 41.216C1.36427 41.2501 1.37707 41.2821 1.38667 41.3163C1.56373 41.8965 1.7536 42.4715 1.96267 43.0368C2.03627 43.2384 2.12053 43.4347 2.1984 43.6341C2.32747 43.9648 2.4576 44.2944 2.59733 44.6187C2.74027 44.9525 2.89173 45.28 3.04533 45.6075C3.11787 45.76 3.18933 45.9125 3.264 46.0629C6.3872 52.4651 11.5445 57.6213 17.9477 60.7424C18.0907 60.8128 18.2357 60.8811 18.3797 60.9493C18.7136 61.1061 19.0485 61.2608 19.3888 61.4059C19.6981 61.5392 20.0117 61.6619 20.3264 61.7856C20.5408 61.8699 20.752 61.9605 20.9696 62.0395C21.5296 62.2453 22.0992 62.4341 22.6731 62.6091C22.7104 62.6208 22.7456 62.6347 22.784 62.6464C22.7968 62.6507 22.8107 62.6485 22.8235 62.6517C25.7323 63.5253 28.8117 64 32 64C37.328 64 42.352 62.6837 46.7755 60.3712C46.8043 60.3595 46.8341 60.3531 46.8629 60.3381C46.9408 60.2976 47.0133 60.2507 47.0912 60.2101C47.3504 60.0704 47.6043 59.9232 47.8592 59.7771C48.0981 59.6405 48.3403 59.5083 48.5749 59.3653C49.0251 59.0923 49.4677 58.8075 49.9029 58.512C50.0896 58.3861 50.2688 58.2507 50.4523 58.1205C50.7424 57.9147 51.0315 57.7088 51.3141 57.4933C51.4731 57.3717 51.6288 57.2469 51.7856 57.1232C52.1003 56.8757 52.4096 56.6229 52.7147 56.3637C52.8288 56.2667 52.9419 56.1685 53.0539 56.0693C53.4251 55.7451 53.7877 55.4112 54.1429 55.0699C54.1845 55.0293 54.2272 54.9909 54.2688 54.9493C54.7829 54.4501 55.2843 53.9371 55.7643 53.4048C55.7803 53.3888 55.8037 53.3824 55.8187 53.3643C58.1888 50.7243 60.0789 47.7461 61.456 44.5003C61.5061 44.3829 61.5509 44.2635 61.5989 44.1461C61.7141 43.8667 61.8315 43.5893 61.9392 43.3056C61.9435 43.2949 61.9413 43.2832 61.9445 43.2725C62.4085 42.0437 62.7968 40.7787 63.1083 39.4837C63.1168 39.4475 63.1243 39.4101 63.1328 39.3739ZM52.3093 53.872C52.0427 54.1205 51.7685 54.3616 51.4923 54.6005C51.3877 54.6912 51.2843 54.784 51.1776 54.8736C50.9611 55.0571 50.7381 55.2331 50.5152 55.4091C50.3445 55.5445 50.176 55.6811 50.0021 55.8123C49.8315 55.9413 49.6576 56.0661 49.4837 56.192C49.3216 56.3093 49.1595 56.4256 48.9952 56.5397C49.2245 55.5168 49.1285 54.4341 48.6933 53.4368C48 51.8475 46.5621 50.7413 44.8491 50.4779L43.7333 50.3051V48.4096L44.7936 48.2069C46.4971 47.8784 47.8923 46.7189 48.5259 45.1051C49.1595 43.4912 48.9259 41.6928 47.8997 40.2933L47.232 39.3835L48.5728 38.0416L49.9392 38.9685C51.3429 39.92 53.1168 40.0992 54.6837 39.4507C56.2507 38.8021 57.3781 37.4197 57.6981 35.7536L58.0096 34.1333H59.9051L60.0768 35.2491C60.2272 36.2251 60.6421 37.104 61.2896 37.824C61.0293 39.136 60.6741 40.4224 60.2411 41.6779C59.8976 41.6256 59.5499 41.6 59.2 41.6C55.3771 41.6 52.2667 44.7104 52.2667 48.5333C52.2667 50.0117 52.736 51.4187 53.5915 52.5952C53.2128 52.9931 52.8267 53.3835 52.4256 53.76C52.3872 53.7973 52.3488 53.8357 52.3093 53.872ZM59.0144 44.6976C57.9563 46.9344 56.6197 49.0325 55.0507 50.944C54.6272 50.2187 54.4 49.3931 54.4 48.5333C54.4 45.8869 56.5536 43.7333 59.2 43.7333C59.2811 43.7333 59.3611 43.7355 59.4411 43.7397C59.3205 44.0192 59.2011 44.2987 59.0731 44.5739C59.0539 44.6155 59.0336 44.656 59.0144 44.6976ZM46.9333 29.8667C39.8752 29.8667 34.1333 24.1248 34.1333 17.0667C34.1333 11.1723 38.2325 5.9968 43.9296 4.6272C46.0075 5.536 47.9637 6.672 49.7643 8.00747C49.7995 8.03413 49.8357 8.05867 49.8709 8.08533C50.1643 8.30507 50.4491 8.53333 50.7339 8.76373C50.8256 8.83733 50.9205 8.9088 51.0112 8.98347C51.2245 9.16053 51.4315 9.34507 51.6395 9.52747C51.7909 9.65973 51.9456 9.78773 52.0949 9.92427C52.1739 9.9968 52.2496 10.0736 52.3285 10.1461C52.8704 10.6507 53.3931 11.1733 53.8965 11.7163C53.9552 11.7792 54.016 11.8389 54.0747 11.9029C54.2155 12.0576 54.3499 12.2197 54.4875 12.3776C54.6645 12.5803 54.8448 12.7797 55.0165 12.9877C55.0944 13.0816 55.168 13.1797 55.2448 13.2757C55.472 13.5573 55.6981 13.8389 55.9147 14.128C55.9445 14.1675 55.9723 14.2091 56.0021 14.2496C57.3355 16.0469 58.4672 18 59.3749 20.0736C58.0021 25.7685 52.8277 29.8667 46.9333 29.8667ZM24.7765 3.02293C24.6091 3.8176 24.6731 4.65493 24.9824 5.44213C25.5157 6.80107 26.6912 7.77813 28.1259 8.0544L28.8 8.18347V9.34187L28.0885 9.45067C26.6453 9.67253 25.4347 10.6037 24.8501 11.9424C24.2656 13.2821 24.4053 14.8043 25.2256 16.0128L25.6107 16.5824L24.7915 17.4005L24.6027 17.2619C23.3984 16.3787 21.856 16.192 20.4757 16.7637C19.0965 17.3355 18.1365 18.5589 17.9104 20.0331L17.8741 20.2667H16.7168L16.5867 19.5925C16.3115 18.1568 15.3344 16.9824 13.9744 16.448C12.6144 15.9147 11.0997 16.1131 9.92213 16.9749L9.34187 17.4005L8.52267 16.5835L8.90773 16.0139C9.62987 14.9472 9.81547 13.6576 9.45067 12.4491C9.55733 12.3264 9.66187 12.2016 9.7696 12.0811C10.0416 11.7771 10.3221 11.4816 10.6059 11.1904C10.8992 10.8885 11.2 10.5941 11.5051 10.3051C11.6469 10.1717 11.792 10.0416 11.936 9.91147C12.5483 12.1813 14.6059 13.8667 17.0667 13.8667C20.0075 13.8667 22.4 11.4741 22.4 8.53333C22.4 6.90453 21.6608 5.43573 20.4725 4.4512C21.1253 4.17813 21.7899 3.93067 22.4619 3.70453C22.5312 3.68107 22.5995 3.6576 22.6688 3.63413C23.3632 3.40587 24.0651 3.2 24.7765 3.02293ZM13.8773 8.29013C13.9637 8.224 14.0459 8.15467 14.1333 8.0896C14.5621 7.7696 15.0048 7.46667 15.4507 7.168C15.6661 7.024 15.8784 6.87467 16.0971 6.73707C16.1248 6.71893 16.1525 6.7008 16.1803 6.68373C16.6315 6.40107 17.0955 6.1408 17.5605 5.88373C17.7643 5.77067 17.9637 5.64907 18.1696 5.54133C19.4219 5.99787 20.2667 7.17867 20.2667 8.53333C20.2667 10.2976 18.8309 11.7333 17.0667 11.7333C15.3024 11.7333 13.8667 10.2976 13.8667 8.53333C13.8667 8.45333 13.8709 8.37227 13.8773 8.29013ZM13.9915 27.8571C14.0224 27.8475 14.0544 27.8517 14.0853 27.8389C14.1227 27.824 14.1483 27.7941 14.1835 27.776C16.0768 27.0603 18.1269 26.6667 20.2667 26.6667C29.6768 26.6667 37.3333 34.3232 37.3333 43.7333C37.3333 46.1781 36.8128 48.5035 35.8891 50.6123C35.8795 50.6304 35.8624 50.6421 35.8539 50.6613C35.8432 50.6848 35.8464 50.7104 35.8379 50.7339C33.5797 55.7813 28.9397 59.5445 23.1648 60.5323C23.1616 60.5312 23.1595 60.5312 23.1563 60.5301C22.6304 60.368 22.1141 60.1867 21.6011 59.9968C21.3611 59.9083 21.1253 59.8101 20.8885 59.7152C20.6432 59.6171 20.3989 59.5168 20.1568 59.4133C19.84 59.2757 19.5243 59.1339 19.2128 58.9856C19.0987 58.9312 18.9856 58.8747 18.8715 58.8192C12.9301 55.8987 8.09493 51.0635 5.17653 45.1221C5.12213 45.0112 5.06773 44.9003 5.0144 44.7883C4.86507 44.4757 4.7232 44.1589 4.58453 43.84C4.48 43.5979 4.3808 43.3536 4.28267 43.1083C4.18773 42.8725 4.09067 42.6368 4.00213 42.3979C3.81227 41.8837 3.63093 41.3653 3.46773 40.8384C3.46773 40.8363 3.46667 40.8352 3.46667 40.8331C4.50133 34.7861 8.58027 29.9819 13.9915 27.8571ZM27.4368 61.5179C31.7845 59.7877 35.2789 56.5643 37.3568 52.496L39.0325 53.2405C39.1744 53.3045 39.3216 53.3333 39.4667 53.3333C39.8752 53.3333 40.2656 53.0965 40.4427 52.6997C40.6816 52.1611 40.4395 51.5307 39.9008 51.2917L38.2325 50.5504C39.0304 48.4288 39.4667 46.1301 39.4667 43.7333C39.4667 41.6555 39.1243 39.6576 38.5109 37.7824L39.8528 37.2608C40.4021 37.0475 40.6741 36.4299 40.4608 35.8805C40.2475 35.3312 39.632 35.0571 39.0805 35.2736L37.7291 35.7984C35.9328 31.8624 32.8533 28.64 29.0197 26.6656L29.7749 24.9664C30.0139 24.4277 29.7717 23.7973 29.2331 23.5584C28.6944 23.3205 28.0651 23.5627 27.8251 24.1003L27.0688 25.8016C24.9515 24.9952 22.6645 24.5333 20.2667 24.5333C18.1888 24.5333 16.1931 24.8768 14.3136 25.4837L13.7941 24.1472C13.5808 23.5979 12.9611 23.3248 12.4139 23.5403C11.8645 23.7525 11.5925 24.3712 11.8059 24.9205L12.3221 26.2475C7.86987 28.2603 4.32747 31.9275 2.48213 36.5643C2.2528 35.0752 2.13333 33.5509 2.13333 32C2.13333 26.5621 3.60107 21.4635 6.15147 17.0667C6.20267 17.2139 6.2752 17.3536 6.39147 17.4688L8.48 19.5563C8.85227 19.9296 9.43893 19.9744 9.86453 19.6629L11.1829 18.6965C11.7771 18.2613 12.5088 18.1653 13.1947 18.4352C13.8795 18.704 14.352 19.2725 14.4917 19.9968L14.7883 21.536C14.8853 22.0373 15.3248 22.4 15.8357 22.4H18.7893C19.3163 22.4 19.7632 22.016 19.8432 21.4955L20.0181 20.3595C20.1301 19.6256 20.6069 19.0197 21.2917 18.7371C21.9765 18.4501 22.7424 18.5451 23.3408 18.9835L24.2677 19.6629C24.6923 19.9744 25.28 19.9296 25.6523 19.5563L27.7408 17.4688C28.1024 17.1072 28.1568 16.5397 27.8699 16.1163L26.9899 14.8171C26.5771 14.2069 26.5088 13.4699 26.8032 12.7947C27.0976 12.1205 27.6832 11.6693 28.4107 11.5584L30.0267 11.3099C30.5493 11.2299 30.9333 10.7819 30.9333 10.256V7.30133C30.9333 6.7904 30.5707 6.34987 30.0672 6.25387L28.528 5.9584C27.8048 5.81973 27.2363 5.3472 26.9675 4.66133C26.6987 3.97653 26.7936 3.24267 27.2277 2.65067L27.3397 2.4992C28.8587 2.26027 30.4149 2.13333 32 2.13333C35.0677 2.13333 38.0277 2.59947 40.816 3.4624C39.4827 4.06507 38.2539 4.84907 37.1691 5.79307L36.3744 4.9984C35.9573 4.58133 35.2832 4.58133 34.8661 4.9984C34.4491 5.41547 34.4491 6.0896 34.8661 6.50667L35.6683 7.3088C33.6011 9.69813 32.2837 12.7264 32.0469 15.9989H30.9333C30.3445 15.9989 29.8667 16.4757 29.8667 17.0656C29.8667 17.6555 30.3445 18.1323 30.9333 18.1323H32.0544C32.2901 21.4475 33.6064 24.4619 35.6608 26.8299L34.8661 27.6245C34.4491 28.0416 34.4491 28.7157 34.8661 29.1328C35.0741 29.3408 35.3472 29.4453 35.6203 29.4453C35.8933 29.4453 36.1664 29.3408 36.3744 29.1328L37.1691 28.3381C39.5371 30.3925 42.5525 31.7088 45.8667 31.9445V33.0667C45.8667 33.6565 46.3445 34.1333 46.9333 34.1333C47.5221 34.1333 48 33.6565 48 33.0667V31.9531C51.2725 31.7163 54.3008 30.3989 56.6901 28.3317L57.4923 29.1339C57.7003 29.3419 57.9733 29.4464 58.2464 29.4464C58.5195 29.4464 58.7925 29.3419 59.0005 29.1339C59.4176 28.7168 59.4176 28.0427 59.0005 27.6256L58.2059 26.8309C59.1499 25.7461 59.9339 24.5173 60.5376 23.184C61.4005 25.9723 61.8667 28.9323 61.8667 32C61.8667 32.2752 61.8528 32.5472 61.8453 32.8213C61.7312 32.3467 61.3163 32 60.8203 32H57.1285C56.6176 32 56.1771 32.3627 56.0811 32.8661L55.6032 35.3525C55.4155 36.3253 54.7829 37.1019 53.8677 37.4805C52.9536 37.8592 51.9563 37.76 51.136 37.2021L49.04 35.7813C48.6176 35.4944 48.0491 35.5499 47.6875 35.9104L45.0773 38.5216C44.7051 38.8939 44.6603 39.4816 44.9707 39.9072L46.1792 41.5552C46.7701 42.3605 46.9045 43.3963 46.5397 44.3253C46.1749 45.2544 45.3717 45.9221 44.3915 46.1109L42.4661 46.4811C41.9627 46.5771 41.6 47.0165 41.6 47.5285V51.2213C41.6 51.7472 41.984 52.1952 42.5045 52.2752L44.5248 52.5856C45.5115 52.7381 46.3392 53.3739 46.7392 54.2901C47.1381 55.2043 47.0421 56.2453 46.4821 57.072L45.3888 58.6859C41.3579 60.7157 36.8117 61.8667 32 61.8667C30.4491 61.8667 28.9248 61.7472 27.4368 61.5179Z"/>
</mask>
<path d="M63.1328 39.3739C63.2608 38.8331 63.3749 38.288 63.4741 37.7376C63.4795 37.7088 63.4869 37.6811 63.4923 37.6523C63.4933 37.6459 63.4923 37.6395 63.4933 37.6331C63.8197 35.8016 64 33.9221 64 32C64 27.5989 63.1061 23.4037 61.4923 19.584C61.4859 19.5669 61.4859 19.5477 61.4784 19.5307C60.24 16.608 58.5568 13.8944 56.5259 11.4763C55.3312 10.0512 54.0149 8.7328 52.5941 7.53493C50.1579 5.47733 47.4208 3.77173 44.4693 2.52267C44.4533 2.5152 44.4352 2.5152 44.4181 2.50987C40.5984 0.893867 36.4011 0 32 0C30.1461 0 28.3307 0.167467 26.5621 0.471467C26.5589 0.471467 26.5557 0.471467 26.5536 0.471467C26.5237 0.4768 26.4939 0.4832 26.4629 0.4896C26.0309 0.565333 25.6011 0.647467 25.1755 0.740267C25.152 0.7456 25.1285 0.752 25.104 0.757333C23.4005 1.1328 21.7493 1.64587 20.1589 2.2816C20.0128 2.34027 19.8645 2.39467 19.7195 2.45547C19.4805 2.55467 19.2469 2.6624 19.0112 2.76693C18.7808 2.86933 18.5504 2.97067 18.3221 3.0784C18.1365 3.16693 17.9531 3.25973 17.7696 3.35147C17.7184 3.37707 17.6672 3.4016 17.616 3.4272C17.6021 3.4336 17.5861 3.4336 17.5712 3.44107C17.5072 3.47307 17.4464 3.50933 17.3824 3.5424C17.2331 3.6192 17.0859 3.6992 16.9376 3.77813C16.8064 3.84853 16.6763 3.92 16.5461 3.99253C16.3947 4.0768 16.2411 4.1568 16.0907 4.2432C15.9125 4.3456 15.7387 4.45333 15.5627 4.55893C15.4709 4.6144 15.3803 4.6688 15.2896 4.72533C14.9184 4.95253 14.5525 5.18827 14.1899 5.4304C14.1525 5.45493 14.1152 5.47947 14.0789 5.50507C13.8891 5.63307 13.6992 5.76 13.5125 5.89227C13.488 5.90933 13.4635 5.92853 13.4389 5.94667C13.0411 6.2304 12.6496 6.52373 12.2645 6.8256C12.2517 6.8352 12.2389 6.84373 12.2272 6.85333C12.224 6.85547 12.2229 6.85867 12.2208 6.8608C10.4672 8.24 8.848 9.80373 7.4016 11.5403C7.3824 11.5627 7.3728 11.5904 7.3568 11.6149C2.76373 17.1541 0 24.2603 0 32C0 35.1947 0.4768 38.2795 1.35253 41.1925C1.35467 41.2 1.35147 41.2085 1.3536 41.216C1.36427 41.2501 1.37707 41.2821 1.38667 41.3163C1.56373 41.8965 1.7536 42.4715 1.96267 43.0368C2.03627 43.2384 2.12053 43.4347 2.1984 43.6341C2.32747 43.9648 2.4576 44.2944 2.59733 44.6187C2.74027 44.9525 2.89173 45.28 3.04533 45.6075C3.11787 45.76 3.18933 45.9125 3.264 46.0629C6.3872 52.4651 11.5445 57.6213 17.9477 60.7424C18.0907 60.8128 18.2357 60.8811 18.3797 60.9493C18.7136 61.1061 19.0485 61.2608 19.3888 61.4059C19.6981 61.5392 20.0117 61.6619 20.3264 61.7856C20.5408 61.8699 20.752 61.9605 20.9696 62.0395C21.5296 62.2453 22.0992 62.4341 22.6731 62.6091C22.7104 62.6208 22.7456 62.6347 22.784 62.6464C22.7968 62.6507 22.8107 62.6485 22.8235 62.6517C25.7323 63.5253 28.8117 64 32 64C37.328 64 42.352 62.6837 46.7755 60.3712C46.8043 60.3595 46.8341 60.3531 46.8629 60.3381C46.9408 60.2976 47.0133 60.2507 47.0912 60.2101C47.3504 60.0704 47.6043 59.9232 47.8592 59.7771C48.0981 59.6405 48.3403 59.5083 48.5749 59.3653C49.0251 59.0923 49.4677 58.8075 49.9029 58.512C50.0896 58.3861 50.2688 58.2507 50.4523 58.1205C50.7424 57.9147 51.0315 57.7088 51.3141 57.4933C51.4731 57.3717 51.6288 57.2469 51.7856 57.1232C52.1003 56.8757 52.4096 56.6229 52.7147 56.3637C52.8288 56.2667 52.9419 56.1685 53.0539 56.0693C53.4251 55.7451 53.7877 55.4112 54.1429 55.0699C54.1845 55.0293 54.2272 54.9909 54.2688 54.9493C54.7829 54.4501 55.2843 53.9371 55.7643 53.4048C55.7803 53.3888 55.8037 53.3824 55.8187 53.3643C58.1888 50.7243 60.0789 47.7461 61.456 44.5003C61.5061 44.3829 61.5509 44.2635 61.5989 44.1461C61.7141 43.8667 61.8315 43.5893 61.9392 43.3056C61.9435 43.2949 61.9413 43.2832 61.9445 43.2725C62.4085 42.0437 62.7968 40.7787 63.1083 39.4837C63.1168 39.4475 63.1243 39.4101 63.1328 39.3739ZM52.3093 53.872C52.0427 54.1205 51.7685 54.3616 51.4923 54.6005C51.3877 54.6912 51.2843 54.784 51.1776 54.8736C50.9611 55.0571 50.7381 55.2331 50.5152 55.4091C50.3445 55.5445 50.176 55.6811 50.0021 55.8123C49.8315 55.9413 49.6576 56.0661 49.4837 56.192C49.3216 56.3093 49.1595 56.4256 48.9952 56.5397C49.2245 55.5168 49.1285 54.4341 48.6933 53.4368C48 51.8475 46.5621 50.7413 44.8491 50.4779L43.7333 50.3051V48.4096L44.7936 48.2069C46.4971 47.8784 47.8923 46.7189 48.5259 45.1051C49.1595 43.4912 48.9259 41.6928 47.8997 40.2933L47.232 39.3835L48.5728 38.0416L49.9392 38.9685C51.3429 39.92 53.1168 40.0992 54.6837 39.4507C56.2507 38.8021 57.3781 37.4197 57.6981 35.7536L58.0096 34.1333H59.9051L60.0768 35.2491C60.2272 36.2251 60.6421 37.104 61.2896 37.824C61.0293 39.136 60.6741 40.4224 60.2411 41.6779C59.8976 41.6256 59.5499 41.6 59.2 41.6C55.3771 41.6 52.2667 44.7104 52.2667 48.5333C52.2667 50.0117 52.736 51.4187 53.5915 52.5952C53.2128 52.9931 52.8267 53.3835 52.4256 53.76C52.3872 53.7973 52.3488 53.8357 52.3093 53.872ZM59.0144 44.6976C57.9563 46.9344 56.6197 49.0325 55.0507 50.944C54.6272 50.2187 54.4 49.3931 54.4 48.5333C54.4 45.8869 56.5536 43.7333 59.2 43.7333C59.2811 43.7333 59.3611 43.7355 59.4411 43.7397C59.3205 44.0192 59.2011 44.2987 59.0731 44.5739C59.0539 44.6155 59.0336 44.656 59.0144 44.6976ZM46.9333 29.8667C39.8752 29.8667 34.1333 24.1248 34.1333 17.0667C34.1333 11.1723 38.2325 5.9968 43.9296 4.6272C46.0075 5.536 47.9637 6.672 49.7643 8.00747C49.7995 8.03413 49.8357 8.05867 49.8709 8.08533C50.1643 8.30507 50.4491 8.53333 50.7339 8.76373C50.8256 8.83733 50.9205 8.9088 51.0112 8.98347C51.2245 9.16053 51.4315 9.34507 51.6395 9.52747C51.7909 9.65973 51.9456 9.78773 52.0949 9.92427C52.1739 9.9968 52.2496 10.0736 52.3285 10.1461C52.8704 10.6507 53.3931 11.1733 53.8965 11.7163C53.9552 11.7792 54.016 11.8389 54.0747 11.9029C54.2155 12.0576 54.3499 12.2197 54.4875 12.3776C54.6645 12.5803 54.8448 12.7797 55.0165 12.9877C55.0944 13.0816 55.168 13.1797 55.2448 13.2757C55.472 13.5573 55.6981 13.8389 55.9147 14.128C55.9445 14.1675 55.9723 14.2091 56.0021 14.2496C57.3355 16.0469 58.4672 18 59.3749 20.0736C58.0021 25.7685 52.8277 29.8667 46.9333 29.8667ZM24.7765 3.02293C24.6091 3.8176 24.6731 4.65493 24.9824 5.44213C25.5157 6.80107 26.6912 7.77813 28.1259 8.0544L28.8 8.18347V9.34187L28.0885 9.45067C26.6453 9.67253 25.4347 10.6037 24.8501 11.9424C24.2656 13.2821 24.4053 14.8043 25.2256 16.0128L25.6107 16.5824L24.7915 17.4005L24.6027 17.2619C23.3984 16.3787 21.856 16.192 20.4757 16.7637C19.0965 17.3355 18.1365 18.5589 17.9104 20.0331L17.8741 20.2667H16.7168L16.5867 19.5925C16.3115 18.1568 15.3344 16.9824 13.9744 16.448C12.6144 15.9147 11.0997 16.1131 9.92213 16.9749L9.34187 17.4005L8.52267 16.5835L8.90773 16.0139C9.62987 14.9472 9.81547 13.6576 9.45067 12.4491C9.55733 12.3264 9.66187 12.2016 9.7696 12.0811C10.0416 11.7771 10.3221 11.4816 10.6059 11.1904C10.8992 10.8885 11.2 10.5941 11.5051 10.3051C11.6469 10.1717 11.792 10.0416 11.936 9.91147C12.5483 12.1813 14.6059 13.8667 17.0667 13.8667C20.0075 13.8667 22.4 11.4741 22.4 8.53333C22.4 6.90453 21.6608 5.43573 20.4725 4.4512C21.1253 4.17813 21.7899 3.93067 22.4619 3.70453C22.5312 3.68107 22.5995 3.6576 22.6688 3.63413C23.3632 3.40587 24.0651 3.2 24.7765 3.02293ZM13.8773 8.29013C13.9637 8.224 14.0459 8.15467 14.1333 8.0896C14.5621 7.7696 15.0048 7.46667 15.4507 7.168C15.6661 7.024 15.8784 6.87467 16.0971 6.73707C16.1248 6.71893 16.1525 6.7008 16.1803 6.68373C16.6315 6.40107 17.0955 6.1408 17.5605 5.88373C17.7643 5.77067 17.9637 5.64907 18.1696 5.54133C19.4219 5.99787 20.2667 7.17867 20.2667 8.53333C20.2667 10.2976 18.8309 11.7333 17.0667 11.7333C15.3024 11.7333 13.8667 10.2976 13.8667 8.53333C13.8667 8.45333 13.8709 8.37227 13.8773 8.29013ZM13.9915 27.8571C14.0224 27.8475 14.0544 27.8517 14.0853 27.8389C14.1227 27.824 14.1483 27.7941 14.1835 27.776C16.0768 27.0603 18.1269 26.6667 20.2667 26.6667C29.6768 26.6667 37.3333 34.3232 37.3333 43.7333C37.3333 46.1781 36.8128 48.5035 35.8891 50.6123C35.8795 50.6304 35.8624 50.6421 35.8539 50.6613C35.8432 50.6848 35.8464 50.7104 35.8379 50.7339C33.5797 55.7813 28.9397 59.5445 23.1648 60.5323C23.1616 60.5312 23.1595 60.5312 23.1563 60.5301C22.6304 60.368 22.1141 60.1867 21.6011 59.9968C21.3611 59.9083 21.1253 59.8101 20.8885 59.7152C20.6432 59.6171 20.3989 59.5168 20.1568 59.4133C19.84 59.2757 19.5243 59.1339 19.2128 58.9856C19.0987 58.9312 18.9856 58.8747 18.8715 58.8192C12.9301 55.8987 8.09493 51.0635 5.17653 45.1221C5.12213 45.0112 5.06773 44.9003 5.0144 44.7883C4.86507 44.4757 4.7232 44.1589 4.58453 43.84C4.48 43.5979 4.3808 43.3536 4.28267 43.1083C4.18773 42.8725 4.09067 42.6368 4.00213 42.3979C3.81227 41.8837 3.63093 41.3653 3.46773 40.8384C3.46773 40.8363 3.46667 40.8352 3.46667 40.8331C4.50133 34.7861 8.58027 29.9819 13.9915 27.8571ZM27.4368 61.5179C31.7845 59.7877 35.2789 56.5643 37.3568 52.496L39.0325 53.2405C39.1744 53.3045 39.3216 53.3333 39.4667 53.3333C39.8752 53.3333 40.2656 53.0965 40.4427 52.6997C40.6816 52.1611 40.4395 51.5307 39.9008 51.2917L38.2325 50.5504C39.0304 48.4288 39.4667 46.1301 39.4667 43.7333C39.4667 41.6555 39.1243 39.6576 38.5109 37.7824L39.8528 37.2608C40.4021 37.0475 40.6741 36.4299 40.4608 35.8805C40.2475 35.3312 39.632 35.0571 39.0805 35.2736L37.7291 35.7984C35.9328 31.8624 32.8533 28.64 29.0197 26.6656L29.7749 24.9664C30.0139 24.4277 29.7717 23.7973 29.2331 23.5584C28.6944 23.3205 28.0651 23.5627 27.8251 24.1003L27.0688 25.8016C24.9515 24.9952 22.6645 24.5333 20.2667 24.5333C18.1888 24.5333 16.1931 24.8768 14.3136 25.4837L13.7941 24.1472C13.5808 23.5979 12.9611 23.3248 12.4139 23.5403C11.8645 23.7525 11.5925 24.3712 11.8059 24.9205L12.3221 26.2475C7.86987 28.2603 4.32747 31.9275 2.48213 36.5643C2.2528 35.0752 2.13333 33.5509 2.13333 32C2.13333 26.5621 3.60107 21.4635 6.15147 17.0667C6.20267 17.2139 6.2752 17.3536 6.39147 17.4688L8.48 19.5563C8.85227 19.9296 9.43893 19.9744 9.86453 19.6629L11.1829 18.6965C11.7771 18.2613 12.5088 18.1653 13.1947 18.4352C13.8795 18.704 14.352 19.2725 14.4917 19.9968L14.7883 21.536C14.8853 22.0373 15.3248 22.4 15.8357 22.4H18.7893C19.3163 22.4 19.7632 22.016 19.8432 21.4955L20.0181 20.3595C20.1301 19.6256 20.6069 19.0197 21.2917 18.7371C21.9765 18.4501 22.7424 18.5451 23.3408 18.9835L24.2677 19.6629C24.6923 19.9744 25.28 19.9296 25.6523 19.5563L27.7408 17.4688C28.1024 17.1072 28.1568 16.5397 27.8699 16.1163L26.9899 14.8171C26.5771 14.2069 26.5088 13.4699 26.8032 12.7947C27.0976 12.1205 27.6832 11.6693 28.4107 11.5584L30.0267 11.3099C30.5493 11.2299 30.9333 10.7819 30.9333 10.256V7.30133C30.9333 6.7904 30.5707 6.34987 30.0672 6.25387L28.528 5.9584C27.8048 5.81973 27.2363 5.3472 26.9675 4.66133C26.6987 3.97653 26.7936 3.24267 27.2277 2.65067L27.3397 2.4992C28.8587 2.26027 30.4149 2.13333 32 2.13333C35.0677 2.13333 38.0277 2.59947 40.816 3.4624C39.4827 4.06507 38.2539 4.84907 37.1691 5.79307L36.3744 4.9984C35.9573 4.58133 35.2832 4.58133 34.8661 4.9984C34.4491 5.41547 34.4491 6.0896 34.8661 6.50667L35.6683 7.3088C33.6011 9.69813 32.2837 12.7264 32.0469 15.9989H30.9333C30.3445 15.9989 29.8667 16.4757 29.8667 17.0656C29.8667 17.6555 30.3445 18.1323 30.9333 18.1323H32.0544C32.2901 21.4475 33.6064 24.4619 35.6608 26.8299L34.8661 27.6245C34.4491 28.0416 34.4491 28.7157 34.8661 29.1328C35.0741 29.3408 35.3472 29.4453 35.6203 29.4453C35.8933 29.4453 36.1664 29.3408 36.3744 29.1328L37.1691 28.3381C39.5371 30.3925 42.5525 31.7088 45.8667 31.9445V33.0667C45.8667 33.6565 46.3445 34.1333 46.9333 34.1333C47.5221 34.1333 48 33.6565 48 33.0667V31.9531C51.2725 31.7163 54.3008 30.3989 56.6901 28.3317L57.4923 29.1339C57.7003 29.3419 57.9733 29.4464 58.2464 29.4464C58.5195 29.4464 58.7925 29.3419 59.0005 29.1339C59.4176 28.7168 59.4176 28.0427 59.0005 27.6256L58.2059 26.8309C59.1499 25.7461 59.9339 24.5173 60.5376 23.184C61.4005 25.9723 61.8667 28.9323 61.8667 32C61.8667 32.2752 61.8528 32.5472 61.8453 32.8213C61.7312 32.3467 61.3163 32 60.8203 32H57.1285C56.6176 32 56.1771 32.3627 56.0811 32.8661L55.6032 35.3525C55.4155 36.3253 54.7829 37.1019 53.8677 37.4805C52.9536 37.8592 51.9563 37.76 51.136 37.2021L49.04 35.7813C48.6176 35.4944 48.0491 35.5499 47.6875 35.9104L45.0773 38.5216C44.7051 38.8939 44.6603 39.4816 44.9707 39.9072L46.1792 41.5552C46.7701 42.3605 46.9045 43.3963 46.5397 44.3253C46.1749 45.2544 45.3717 45.9221 44.3915 46.1109L42.4661 46.4811C41.9627 46.5771 41.6 47.0165 41.6 47.5285V51.2213C41.6 51.7472 41.984 52.1952 42.5045 52.2752L44.5248 52.5856C45.5115 52.7381 46.3392 53.3739 46.7392 54.2901C47.1381 55.2043 47.0421 56.2453 46.4821 57.072L45.3888 58.6859C41.3579 60.7157 36.8117 61.8667 32 61.8667C30.4491 61.8667 28.9248 61.7472 27.4368 61.5179Z" fill="#557ECE" stroke="white" stroke-linecap="round" stroke-linejoin="round" mask="url(#path-4-inside-1)"/>
</svg>
