<svg width="316" height="264" viewBox="0 0 316 264" fill="none" xmlns="http://www.w3.org/2000/svg">
<g opacity="0.2">
<rect x="27.5583" y="210.164" width="52.6543" height="52.6543" fill="white" stroke="black" stroke-opacity="0.3"/>
<rect x="132.867" y="210.164" width="52.6543" height="52.6543" fill="white" stroke="black" stroke-opacity="0.3"/>
<rect x="80.2126" y="157.51" width="52.6543" height="52.6543" fill="white" stroke="black" stroke-opacity="0.3"/>
<rect x="132.867" y="157.51" width="52.6543" height="52.6543" fill="white" stroke="black" stroke-opacity="0.3"/>
<rect x="27.5583" y="104.856" width="52.6543" height="52.6543" fill="white" stroke="black" stroke-opacity="0.3"/>
<rect x="80.2126" y="104.856" width="52.6543" height="52.6543" fill="white" stroke="black" stroke-opacity="0.3"/>
<rect x="132.867" y="104.856" width="52.6543" height="52.6543" fill="white" stroke="black" stroke-opacity="0.3"/>
<rect x="80" y="52.202" width="52.6543" height="52.6543" fill="white" stroke="black" stroke-opacity="0.3"/>
<rect x="185.521" y="210.164" width="52.6543" height="52.6543" fill="white" stroke="black" stroke-opacity="0.3"/>
<rect x="185.521" y="157.51" width="52.6543" height="52.6543" fill="white" stroke="black" stroke-opacity="0.3"/>
<rect x="185.521" y="104.856" width="52.6543" height="52.6543" fill="white" stroke="black" stroke-opacity="0.3"/>
<rect x="185.521" y="52.202" width="52.6543" height="52.6543" fill="white" stroke="black" stroke-opacity="0.3"/>
<rect x="238.176" y="210.164" width="52.6543" height="52.6543" fill="white" stroke="black" stroke-opacity="0.3"/>
<rect x="238.176" y="104.856" width="52.6543" height="52.6543" fill="white" stroke="black" stroke-opacity="0.3"/>
</g>
<g opacity="0.3">
<mask id="mask0" mask-type="alpha" maskUnits="userSpaceOnUse" x="27" y="105" width="53" height="53">
<rect width="52.0278" height="52.0278" transform="matrix(1 8.74228e-08 8.74228e-08 -1 27.5581 157.028)" fill="#C4C4C4"/>
</mask>
<g mask="url(#mask0)">
<g opacity="0.6">
<path d="M99.5659 217.094L25.6178 143.516" stroke="#808080"/>
<path d="M99.5659 205.648L25.6178 132.07" stroke="#808080"/>
<path d="M99.5659 194.202L25.6178 120.624" stroke="#808080"/>
<path d="M99.5659 182.756L25.6178 109.177" stroke="#808080"/>
<path d="M99.5659 171.31L25.6178 97.7313" stroke="#808080"/>
<path d="M99.5659 159.864L25.6178 86.2852" stroke="#808080"/>
<path d="M99.5659 148.417L25.6178 74.8387" stroke="#808080"/>
<path d="M99.5659 138.012L25.6178 64.4333" stroke="#808080"/>
</g>
</g>
</g>
<g opacity="0.3">
<mask id="mask1" mask-type="alpha" maskUnits="userSpaceOnUse" x="133" y="210" width="53" height="53">
<rect width="52.0278" height="52.0278" transform="matrix(1 8.74228e-08 8.74228e-08 -1 133.225 262.819)" fill="#C4C4C4"/>
</mask>
<g mask="url(#mask1)">
<g opacity="0.6">
<path d="M205.232 322.885L131.284 249.306" stroke="#808080"/>
<path d="M205.232 311.439L131.284 237.861" stroke="#808080"/>
<path d="M205.232 299.993L131.284 226.415" stroke="#808080"/>
<path d="M205.232 288.547L131.284 214.968" stroke="#808080"/>
<path d="M205.232 277.1L131.284 203.522" stroke="#808080"/>
<path d="M205.232 265.655L131.284 192.076" stroke="#808080"/>
<path d="M205.232 254.208L131.284 180.63" stroke="#808080"/>
<path d="M205.232 243.803L131.284 170.224" stroke="#808080"/>
</g>
</g>
</g>
<g opacity="0.3">
<mask id="mask2" mask-type="alpha" maskUnits="userSpaceOnUse" x="186" y="52" width="53" height="53">
<rect width="52.0278" height="52.0278" transform="matrix(1 8.74228e-08 8.74228e-08 -1 186.761 104.543)" fill="#C4C4C4"/>
</mask>
<g mask="url(#mask2)">
<g opacity="0.6">
<path d="M258.768 164.61L184.82 91.0312" stroke="#808080"/>
<path d="M258.769 153.164L184.82 79.5852" stroke="#808080"/>
<path d="M258.769 141.717L184.82 68.1389" stroke="#808080"/>
<path d="M258.769 130.271L184.82 56.6926" stroke="#808080"/>
<path d="M258.769 118.825L184.82 45.2464" stroke="#808080"/>
<path d="M258.769 107.379L184.82 33.8002" stroke="#808080"/>
<path d="M258.768 95.9326L184.82 22.3542" stroke="#808080"/>
<path d="M258.768 85.527L184.82 11.9486" stroke="#808080"/>
</g>
</g>
</g>
<rect x="80" y="105" width="158" height="105" fill="white" stroke="#557ECE"/>
<rect x="80" y="105" width="158" height="88" fill="white" stroke="#557ECE"/>
<circle cx="215.934" cy="141.977" r="3.15926" transform="rotate(180 215.934 141.977)" fill="#557ECE"/>
<circle cx="159.194" cy="115.477" r="3.15926" transform="rotate(180 159.194 115.477)" fill="#557ECE"/>
<circle cx="107.036" cy="141.803" r="3.15926" transform="rotate(180 107.036 141.803)" fill="#557ECE"/>
<path d="M216 142L254 79" stroke="#557ECE" stroke-dasharray="2 5"/>
<path d="M106 142L52 76.5" stroke="#557ECE" stroke-dasharray="2 5"/>
<path d="M159.239 116.5L150.5 66.5" stroke="#557ECE" stroke-dasharray="2 5"/>
<circle cx="146" cy="35" r="34.5" fill="white" stroke="#557ECE"/>
<path d="M150.189 10.5664C150.141 10.5822 150.094 10.6058 150.039 10.6215C150.063 10.8892 150.07 11.157 150.118 11.4168C150.448 13.4169 149.937 15.2122 148.756 16.8185C147.661 18.3068 146.212 19.4328 144.779 20.5745C143.118 21.8974 141.44 23.1966 140.094 24.8817C139.054 26.1888 138.905 27.6062 139.44 29.0865C139.992 30.6063 141.039 31.8346 142.133 33C142.763 33.6772 143.44 34.315 144.11 34.9607C144.44 35.2757 144.795 35.5591 145.133 35.8584C145.173 35.8269 145.212 35.7875 145.251 35.756C145.165 35.5591 145.11 35.3465 144.992 35.1654C144.07 33.7087 143.102 32.2835 142.22 30.8031C141.755 30.0236 141.574 29.1023 141.661 28.1889C141.81 26.5825 142.661 25.3148 143.795 24.2439C145.047 23.0628 146.377 21.9604 147.637 20.7871C148.866 19.6454 149.874 18.3382 150.59 16.8107C151.291 15.3146 151.456 13.7791 151.039 12.1806C150.882 11.5822 150.59 11.0467 150.189 10.5664Z" fill="#557ECE"/>
<path d="M135.338 50.213C135.338 50.1579 135.346 50.1027 135.346 50.0555C135.078 50.0004 134.803 49.8901 134.535 49.8901C133.18 49.898 131.889 50.2051 130.629 50.6854C129.732 51.0319 128.858 51.4099 128.22 52.1579C127.928 52.5044 127.905 52.9217 128.283 53.1501C128.787 53.4572 129.346 53.7091 129.913 53.8587C130.724 54.0635 131.558 54.1737 132.393 54.2682C135.322 54.6068 138.251 54.9296 141.204 54.969C144.007 55.0084 146.811 54.9769 149.606 54.6855C152.126 54.4257 154.63 54.1028 157.063 53.3942C158.063 53.1028 159.071 52.78 159.921 52.1343C160.15 51.9611 160.354 51.7012 160.465 51.4414C160.646 51.0161 160.26 50.5201 159.748 50.5122C159.898 50.9768 159.819 51.3941 159.386 51.6382C158.968 51.8744 158.52 52.0949 158.063 52.2209C155.858 52.843 153.583 53.0871 151.323 53.276C148.756 53.4887 146.165 53.5516 143.582 53.5989C141.897 53.6304 140.196 53.5595 138.511 53.4572C136.259 53.3233 134.015 53.1107 131.865 52.3863C131.566 52.2839 131.133 52.2603 131.117 51.8587C131.102 51.4729 131.488 51.3075 131.81 51.1973C132.614 50.9138 133.417 50.6461 134.228 50.402C134.59 50.3075 134.968 50.2838 135.338 50.213Z" fill="#557ECE"/>
<path d="M155.567 20.1413C155.543 20.0941 155.512 20.0547 155.488 20.0074C155.205 20.0862 154.905 20.1413 154.63 20.2358C153.126 20.7634 151.63 21.3224 150.236 22.1256C148.543 23.0941 146.921 24.1572 145.96 25.9289C145.488 26.8108 145.204 27.7714 145.378 28.8029C145.653 30.4171 146.512 31.7321 147.535 32.9526C148.008 33.5117 148.299 34.1259 148.299 34.874C148.299 35.622 148.023 36.2677 147.551 36.8425C147.425 37 147.33 37.189 147.228 37.3622C147.26 37.3858 147.291 37.4094 147.315 37.4331C147.464 37.3622 147.638 37.3228 147.771 37.2283C148.803 36.5118 149.756 35.7086 150.338 34.5747C150.882 33.5117 150.882 32.4172 150.275 31.3857C149.748 30.4959 149.102 29.6848 148.582 28.7951C147.992 27.7714 147.921 26.6848 148.606 25.6769C149.039 25.0469 149.535 24.4249 150.126 23.9524C151.409 22.9445 152.764 22.0311 154.094 21.0862C154.575 20.7476 155.079 20.4563 155.567 20.1413Z" fill="#557ECE"/>
<path d="M139.645 36.26C139.637 36.2285 139.637 36.1891 139.63 36.1576C139.173 36.1576 138.708 36.1104 138.26 36.1655C136.267 36.3939 134.37 36.9608 132.574 37.8742C132.228 38.0553 131.787 38.2522 131.803 38.6774C131.818 39.1262 132.267 39.2837 132.661 39.4254C133.897 39.8743 135.189 40.0003 136.48 40.1105C139.275 40.3546 142.078 40.4648 144.882 40.1892C146.835 40.0003 148.787 39.7955 150.74 39.5593C151.417 39.4806 152.102 39.3703 152.732 39.1498C153.441 38.9057 154.102 38.512 154.78 38.1734C154.843 38.1419 154.866 38.0474 154.913 37.9766C154.898 37.9451 154.882 37.9136 154.866 37.8742C154.551 37.9136 154.228 37.953 153.913 38.0002C153.693 38.0317 153.48 38.1026 153.26 38.1262C150.669 38.4333 148.094 38.8427 145.48 38.8742C143.016 38.9057 140.551 38.953 138.086 38.9057C137.252 38.89 136.409 38.6616 135.59 38.4569C135.181 38.3545 135.181 38.0789 135.511 37.8112C135.582 37.7561 135.661 37.6931 135.74 37.6616C136.511 37.3466 137.283 37.0317 138.071 36.7403C138.598 36.5513 139.126 36.4175 139.645 36.26Z" fill="#557ECE"/>
<path d="M138.913 46.717C138.81 46.6934 138.724 46.6383 138.676 46.6619C138.18 46.9139 137.653 47.1343 137.196 47.4414C136.818 47.7013 136.747 48.2446 137.078 48.5596C137.495 48.9533 137.983 49.3155 138.511 49.536C139.873 50.1187 141.346 50.2683 142.802 50.4258C144.409 50.5911 145.999 50.4494 147.59 50.2525C149.212 50.0478 150.771 49.6305 152.291 49.0242C152.401 48.9769 152.488 48.8745 152.582 48.7958C152.488 48.7171 152.409 48.6226 152.307 48.5674C151.771 48.2997 151.188 48.095 150.692 47.7722C150.283 47.5044 149.905 47.4808 149.464 47.5832C148.968 47.6934 148.464 47.8036 147.96 47.8745C145.369 48.2289 142.779 48.1737 140.196 47.8745C139.787 47.8273 139.393 47.654 138.999 47.5202C138.724 47.4257 138.653 47.221 138.81 46.9611C138.842 46.8902 138.873 46.8194 138.913 46.717Z" fill="#557ECE"/>
<path d="M153.33 43.9375C153.338 43.8745 153.346 43.8193 153.346 43.7564C153.157 43.6304 152.952 43.528 152.779 43.3863C152.023 42.7878 151.22 42.4099 150.228 42.7878C150.165 42.8115 150.094 42.8036 150.031 42.8193C148.196 43.2445 146.322 43.3626 144.448 43.3784C142.606 43.3941 140.755 43.2524 138.913 43.1422C138.519 43.1185 138.125 42.9532 137.763 42.7957C137.48 42.6697 137.401 42.402 137.558 42.0949C137.637 41.9374 137.7 41.7721 137.795 41.5437C137.613 41.5673 137.503 41.5516 137.424 41.5909C136.889 41.8823 136.322 42.1421 135.842 42.5044C135.314 42.9059 135.361 43.4335 135.897 43.8351C136.157 44.032 136.448 44.1894 136.739 44.3154C138.275 44.9611 139.921 45.1186 141.551 45.2052C144.818 45.3784 148.07 45.1422 151.275 44.4099C151.976 44.2761 152.653 44.1028 153.33 43.9375Z" fill="#557ECE"/>
<path d="M134.622 55.7958C134.606 55.8588 134.59 55.9218 134.574 55.9848C135.086 56.1501 135.59 56.3863 136.11 56.4651C137.819 56.7092 139.535 56.9927 141.26 57.0793C146.425 57.3391 151.583 57.2919 156.693 56.2761C158.071 56.0005 159.441 55.6777 160.677 54.9926C161.237 54.6855 161.74 54.2367 162.205 53.7879C162.41 53.591 162.457 53.2367 162.575 52.9532C162.528 52.9296 162.489 52.9059 162.441 52.8823C162.315 52.9689 162.197 53.0556 162.063 53.1422C161.748 53.3469 161.457 53.6146 161.111 53.7564C160.189 54.1264 159.276 54.5359 158.315 54.7564C156.457 55.1816 154.575 55.6068 152.685 55.8194C150.071 56.1107 147.433 56.2682 144.803 56.3548C142.945 56.4178 141.086 56.284 139.22 56.1895C138.078 56.1344 136.945 56.0084 135.811 55.9139C135.409 55.8824 135.015 55.8352 134.622 55.7958Z" fill="#557ECE"/>
<path d="M155.213 44.6932C155.228 44.7405 155.252 44.7877 155.268 44.835C155.441 44.8114 155.614 44.8035 155.78 44.7562C157.016 44.3783 158.236 43.9373 159.362 43.2838C160.449 42.646 161.402 41.8979 162.079 40.8034C162.796 39.6538 162.788 37.7246 161.441 36.5671C160.134 35.4489 157.772 35.4017 156.599 36.1182C156.496 36.1812 156.417 36.2993 156.26 36.4726C156.52 36.4726 156.662 36.5041 156.787 36.4647C157.717 36.1497 158.567 36.3387 159.378 36.8348C160.197 37.3309 160.756 38.6222 160.543 39.4805C160.292 40.4805 159.756 41.3073 159.032 42.0003C158.024 42.9767 156.866 43.7641 155.614 44.394C155.465 44.4728 155.347 44.5909 155.213 44.6932Z" fill="#557ECE"/>
<circle cx="35" cy="59" r="34.5" fill="white" stroke="#557ECE"/>
<path d="M148.884 154.283C149.526 151.392 151.614 146.601 152.578 144.566L156.031 138.864C158.039 138.623 162.568 138.286 164.624 138.864C167.194 139.587 168.96 143.281 169.362 144.165C169.763 145.048 170.968 148.742 171.771 150.991C172.574 153.239 174.903 158.78 174.903 162.796C174.903 166.811 173.297 166.972 171.771 169.381C170.245 171.79 169.763 172.111 166.23 174.44C162.696 176.769 155.308 174.601 153.702 173.717C152.096 172.834 150.65 169.702 148.884 166.008C147.117 162.314 148.081 157.897 148.884 154.283Z" fill="white" stroke="#557ECE"/>
<path fill-rule="evenodd" clip-rule="evenodd" d="M155.235 144.487C155.308 146.043 155.058 147.597 154.501 149.051C153.819 150.609 152.988 152.098 152.02 153.496C150.196 156.506 148.157 161.049 150.347 164.469C151.135 165.476 152.041 166.385 153.045 167.177C153.843 167.943 155.742 168.936 156.066 169.983C156.854 172.475 153.045 173.133 151.491 172.626C147.488 171.299 146.021 167.231 145.395 163.606C143.906 155.061 150.52 146.71 150.499 144.293C150.499 142.297 150.304 140.29 150.391 138.251C150.563 134.194 151.254 129.619 155.063 127.396C156.836 126.452 158.862 126.087 160.853 126.354C162.845 126.621 164.703 127.507 166.165 128.885C167.999 130.687 168.323 133.277 168.776 135.715C169.628 140.031 170.513 143.43 173.21 147.152C175.908 150.874 179.63 154.402 179.868 159.452C180.008 162.214 179.997 164.361 178.476 166.659C177.397 168.267 174.645 171.051 172.585 168.99C171.419 167.825 171.743 164.232 171.581 162.635C171.357 159.998 170.847 157.393 170.06 154.866C168.841 150.806 166.652 147.103 163.683 144.077" fill="white"/>
<path d="M155.235 144.487C155.308 146.043 155.058 147.597 154.501 149.051C153.819 150.609 152.988 152.098 152.02 153.496C150.196 156.506 148.157 161.049 150.347 164.469C151.135 165.476 152.041 166.385 153.045 167.177C153.843 167.943 155.742 168.936 156.066 169.983C156.854 172.475 153.045 173.133 151.491 172.626C147.488 171.299 146.021 167.231 145.395 163.606C143.906 155.061 150.52 146.71 150.499 144.293C150.499 142.297 150.304 140.29 150.391 138.251C150.563 134.194 151.254 129.619 155.063 127.396C156.836 126.452 158.862 126.087 160.853 126.354C162.845 126.621 164.703 127.507 166.165 128.885C167.999 130.687 168.323 133.277 168.776 135.715C169.628 140.031 170.513 143.43 173.21 147.152C175.908 150.874 179.63 154.402 179.868 159.452C180.008 162.214 179.997 164.361 178.476 166.659C177.397 168.267 174.645 171.051 172.585 168.99C171.419 167.825 171.743 164.232 171.581 162.635C171.357 159.998 170.847 157.393 170.06 154.866C168.841 150.806 166.652 147.103 163.683 144.077" stroke="#557ECE" stroke-width="0.7" stroke-linecap="round" stroke-linejoin="round"/>
<path fill-rule="evenodd" clip-rule="evenodd" d="M145.384 180.34C147.995 181.419 151.189 182.66 153.703 180.664C156.649 178.334 153.574 174.482 151.88 172.432C150.778 171.267 149.822 169.974 149.031 168.58C148.298 167.091 147.866 164.965 146.334 164.059C144.176 162.754 142.978 165.645 141.748 166.908C140.518 168.17 140.033 167.479 138.738 168.181C137.443 168.882 138.155 169.573 138.598 170.813C139.439 173.23 137.109 175.345 138.49 177.611C139.871 179.877 143.259 179.499 145.384 180.34Z" fill="white" stroke="#557ECE" stroke-width="0.7" stroke-linecap="round" stroke-linejoin="round"/>
<path fill-rule="evenodd" clip-rule="evenodd" d="M168.873 176.715C169.026 175.312 169.257 173.918 169.564 172.54C169.769 171.04 169.326 169.529 169.466 168.03C169.661 166.001 171.506 163.714 172.563 166.724C174.613 172.647 179.868 162.171 181.195 166.875C181.362 167.846 181.817 168.744 182.5 169.454C183.579 170.468 185.047 171.277 184.248 172.928C182.619 176.294 178.12 176.823 175.379 178.959C173.696 180.265 172.024 180.966 170.103 179.585C169.673 179.249 169.334 178.81 169.119 178.308C168.904 177.806 168.819 177.258 168.873 176.715Z" fill="white" stroke="#557ECE" stroke-width="0.7" stroke-linecap="round" stroke-linejoin="round"/>
<path fill-rule="evenodd" clip-rule="evenodd" d="M162.55 132.478C161.234 132.176 159.076 132.575 159.313 138.714C159.313 132.575 157.393 132.381 156.206 132.381C154.253 132.381 152.516 134.862 152.516 137.776C152.516 140.689 154.091 143.17 156.033 143.17C157.49 143.17 158.731 141.832 159.27 139.934C159.81 141.843 161.051 143.17 162.507 143.17C164.449 143.17 166.025 140.786 166.025 137.776C166.025 134.765 165.086 133.082 162.55 132.478Z" fill="white" stroke="#557ECE" stroke-width="0.7" stroke-linecap="round" stroke-linejoin="round"/>
<path d="M157.129 138.952C157.129 139.396 157.012 139.784 156.839 140.05C156.665 140.319 156.464 140.426 156.293 140.426C156.121 140.426 155.921 140.319 155.746 140.05C155.573 139.784 155.456 139.396 155.456 138.952C155.456 138.508 155.573 138.12 155.746 137.855C155.921 137.586 156.121 137.479 156.293 137.479C156.464 137.479 156.665 137.586 156.839 137.855C157.012 138.12 157.129 138.508 157.129 138.952Z" fill="#557ECE" stroke="#557ECE" stroke-width="0.7"/>
<path d="M163.603 138.952C163.603 139.396 163.486 139.784 163.313 140.05C163.138 140.319 162.938 140.426 162.766 140.426C162.595 140.426 162.394 140.319 162.22 140.05C162.047 139.784 161.93 139.396 161.93 138.952C161.93 138.508 162.047 138.12 162.22 137.855C162.394 137.586 162.595 137.479 162.766 137.479C162.938 137.479 163.138 137.586 163.313 137.855C163.486 138.12 163.603 138.508 163.603 138.952Z" fill="#557ECE" stroke="#557ECE" stroke-width="0.7"/>
<path fill-rule="evenodd" clip-rule="evenodd" d="M154.631 141.293C156.088 140.29 159.314 138.812 160.382 139.135C161.956 139.744 163.432 140.58 164.763 141.617C165.018 141.854 165.182 142.173 165.223 142.519C165.265 142.865 165.182 143.215 164.989 143.505C164.536 144.142 162.055 145.178 160.673 145.76C160.04 146.087 159.329 146.234 158.618 146.186C157.907 146.139 157.223 145.898 156.638 145.49C155.755 144.997 154.939 144.391 154.211 143.689C153.142 142.685 154.275 141.563 154.631 141.293Z" fill="white" stroke="#557ECE" stroke-width="0.7" stroke-linecap="round" stroke-linejoin="round"/>
<path d="M169.553 172.399C169.553 172.399 162 179.952 152.829 173.122" stroke="#557ECE" stroke-width="0.7" stroke-linecap="round" stroke-linejoin="round"/>
<circle cx="280.275" cy="51" r="34.5" fill="white" stroke="#557ECE"/>
<path d="M268.999 60.06L263.724 52.2327L270.02 46.4473L289.758 41.5127L294.863 52.2327L274.274 61.4212L268.999 60.06Z" fill="white" stroke="#557ECE" stroke-width="1.2"/>
<path d="M268.628 59.9165H261.551C261.551 59.9165 256.585 58.5695 256.585 49.9856C256.585 41.4018 262.007 41.4132 262.007 41.4132H279.46V37.9888H269.53V32.5325C269.53 32.5325 270.728 27.2589 279.803 27.2589C288.877 27.2589 289.871 32.3499 289.871 32.3499V46.6411C289.871 46.6411 289.266 50.408 286.446 50.408H272.863C270.306 50.408 269.096 53.4101 269.096 54.1634V68.1921C269.096 68.1921 269.701 73.4657 279.369 73.4657C289.037 73.4657 290.053 68.1921 290.053 68.1921V63.0783H279.517V60.0648H297.575C297.575 60.0648 302.689 59.7681 302.689 50.5906C302.689 41.4132 297.267 40.9566 297.267 40.9566H290.955" fill="white"/>
<path d="M268.628 59.9165H261.551C261.551 59.9165 256.585 58.5695 256.585 49.9856C256.585 41.4018 262.007 41.4132 262.007 41.4132H279.46V37.9888H269.53V32.5325C269.53 32.5325 270.728 27.2589 279.803 27.2589C288.877 27.2589 289.871 32.3499 289.871 32.3499V46.6411C289.871 46.6411 289.266 50.408 286.446 50.408H272.863C270.306 50.408 269.096 53.4101 269.096 54.1634V68.1921C269.096 68.1921 269.701 73.4657 279.369 73.4657C289.037 73.4657 290.053 68.1921 290.053 68.1921V63.0783H279.517V60.0648H297.575C297.575 60.0648 302.689 59.7681 302.689 50.5906C302.689 41.4132 297.267 40.9566 297.267 40.9566H290.955" stroke="#557ECE" stroke-width="1.2" stroke-linecap="round" stroke-linejoin="round"/>
<path d="M274.969 33.3595C275.082 33.246 275.146 33.0922 275.146 32.9317C275.146 32.7702 275.082 32.6151 274.969 32.4998C274.856 32.3846 274.702 32.3183 274.541 32.3153C274.393 32.3355 274.258 32.4085 274.16 32.5208C274.062 32.6331 274.008 32.777 274.008 32.926C274.008 33.075 274.062 33.2189 274.16 33.3312C274.258 33.4435 274.393 33.5165 274.541 33.5367C274.701 33.5367 274.855 33.4729 274.969 33.3595Z" fill="#557ECE" stroke="#557ECE" stroke-linecap="round" stroke-linejoin="round"/>
<path d="M286.264 67.4276C286.266 67.5256 286.239 67.622 286.186 67.7044C286.133 67.7869 286.056 67.8516 285.966 67.8901C285.876 67.9287 285.776 67.9394 285.68 67.9208C285.584 67.9022 285.495 67.8552 285.426 67.7859C285.356 67.7166 285.309 67.6281 285.291 67.5318C285.272 67.4356 285.283 67.3359 285.322 67.2458C285.36 67.1557 285.425 67.0791 285.507 67.0261C285.59 66.973 285.686 66.9459 285.784 66.9481C285.911 66.9481 286.033 66.9986 286.123 67.0885C286.213 67.1785 286.264 67.3004 286.264 67.4276Z" fill="#557ECE" stroke="#557ECE" stroke-linecap="round" stroke-linejoin="round"/>
<path d="M54.9904 54.5509C54.9952 54.5229 54.9979 54.4955 54.9993 54.4668C55.0006 54.4333 54.9999 54.4012 54.9972 54.3677C54.9945 54.339 54.9904 54.3117 54.9835 54.2837C54.976 54.2508 54.9658 54.2194 54.9535 54.188C54.9473 54.1716 54.9459 54.1545 54.9384 54.1388C54.933 54.1271 54.9234 54.1183 54.9172 54.1066C54.9111 54.095 54.9084 54.0827 54.9015 54.0711L48.0666 43.1352C48.0351 43.0853 47.9982 43.0402 47.9565 43.0006L47.9545 42.9992C47.8957 42.9438 47.826 42.9042 47.7515 42.8727C47.7419 42.8686 47.7358 42.8604 47.7255 42.8563C47.718 42.8536 47.7098 42.855 47.7023 42.8529C47.6333 42.8297 47.5622 42.814 47.4877 42.814H21.5149C21.4411 42.814 21.3707 42.8297 21.3031 42.8522C21.2955 42.8543 21.288 42.8529 21.2812 42.8557C21.2709 42.8591 21.2648 42.8673 21.2552 42.8714C21.1841 42.9008 21.1171 42.939 21.0591 42.991C21.0556 42.9944 21.0509 42.9965 21.0474 42.9992C21.0051 43.0388 20.9675 43.0846 20.936 43.1345L14.1011 54.0704C14.0943 54.0813 14.0915 54.0943 14.0854 54.1059C14.0792 54.1176 14.0697 54.1265 14.0642 54.1381C14.0567 54.1538 14.0553 54.1709 14.0485 54.1873C14.0362 54.2187 14.0259 54.2502 14.0184 54.283C14.0122 54.311 14.0075 54.339 14.0047 54.3677C13.9999 54.4012 13.9993 54.434 14.0006 54.4668C14.002 54.4955 14.0047 54.5229 14.0095 54.5509C14.015 54.5837 14.0239 54.6158 14.0348 54.648C14.0437 54.6746 14.0533 54.7006 14.0656 54.7266C14.0717 54.7389 14.0738 54.7525 14.0806 54.7648C14.0915 54.7847 14.1079 54.7997 14.1202 54.8181C14.1298 54.8325 14.1353 54.8482 14.1469 54.8619L33.9607 79.4581C33.962 79.4601 33.9648 79.4628 33.9648 79.4628L33.9682 79.4676C33.9702 79.4704 33.9736 79.471 33.9757 79.4738C34.0317 79.5414 34.1015 79.5927 34.1773 79.6337C34.1978 79.6447 34.217 79.6542 34.2382 79.6631C34.3209 79.698 34.4083 79.7226 34.4999 79.7226C34.5779 79.7226 34.6565 79.7089 34.7344 79.6809C34.746 79.6768 34.7535 79.6672 34.7651 79.6624C34.8 79.6481 34.8273 79.6248 34.8588 79.605C34.9107 79.5722 34.9592 79.538 34.9996 79.4936C35.0091 79.4834 35.0235 79.4786 35.0324 79.4676L54.8537 54.8619C54.8646 54.8482 54.8701 54.8318 54.8803 54.8181C54.8933 54.7997 54.909 54.7847 54.92 54.7648C54.9268 54.7525 54.9289 54.7389 54.935 54.7266C54.9473 54.7006 54.9569 54.6753 54.9658 54.648C54.9753 54.6158 54.9849 54.5844 54.9904 54.5509ZM35.9366 44.1816H46.5028L43.181 53.0978L35.9366 44.1816ZM41.9493 53.7505H27.0512L34.4999 44.5828L41.9493 53.7505ZM25.7711 53.1573L22.491 44.1816H33.0639L25.7711 53.1573ZM42.4285 55.1175L34.3803 76.72L26.4867 55.1175H42.4285ZM47.6421 45.0381L53.0875 53.7512H44.3962L47.6421 45.0381ZM21.3516 45.0469L24.5319 53.7505H15.9124L21.3516 45.0469ZM25.0315 55.1175L32.4399 75.3927L16.1071 55.1175H25.0315ZM36.1383 75.9162L43.887 55.1175H52.8927L36.1383 75.9162Z" fill="#557ECE"/>
</svg>
