<svg width="318" height="266" viewBox="0 0 318 266" fill="none" xmlns="http://www.w3.org/2000/svg">
<rect x="263.355" y="1" width="54" height="53" fill="white" stroke="#557ECE"/>
<rect x="1.35547" y="212" width="52.6442" height="52.6442" fill="white" stroke="#557ECE"/>
<rect x="1" y="54.0004" width="52.6442" height="52.6442" fill="white" stroke="#557ECE"/>
<rect x="264.067" y="212" width="52.6442" height="52.6442" stroke="#557ECE" stroke-linecap="round"/>
<g opacity="0.2">
<rect x="106" y="211.932" width="52.6442" height="52.6442" fill="white" stroke="black" stroke-opacity="0.3" stroke-linecap="round"/>
<rect x="53.3555" y="159.286" width="52.6442" height="52.6442" fill="white" stroke="black" stroke-opacity="0.3" stroke-linecap="round"/>
<rect x="106" y="159.286" width="52.6442" height="52.6442" fill="white" stroke="black" stroke-opacity="0.3" stroke-linecap="round"/>
<rect x="53.356" y="106.643" width="52.6442" height="52.6442" fill="white" stroke="black" stroke-opacity="0.3" stroke-linecap="round"/>
<rect x="106" y="106.643" width="52.6442" height="52.6442" fill="white" stroke="black" stroke-opacity="0.3" stroke-linecap="round"/>
<rect x="158.644" y="159.286" width="52.6442" height="52.6442" fill="white" stroke="black" stroke-opacity="0.3" stroke-linecap="round"/>
<rect x="158.644" y="106.643" width="52.6442" height="52.6442" fill="white" stroke="black" stroke-opacity="0.3" stroke-linecap="round"/>
<rect x="211.288" y="211.932" width="52.6442" height="52.6442" fill="white" stroke="black" stroke-opacity="0.3" stroke-linecap="round"/>
<rect x="211.288" y="159.286" width="52.6442" height="52.6442" fill="white" stroke="black" stroke-opacity="0.3" stroke-linecap="round"/>
<rect x="211.288" y="106.643" width="52.6442" height="52.6442" fill="white" stroke="black" stroke-opacity="0.3" stroke-linecap="round"/>
<rect x="264.355" y="106.643" width="52.6442" height="52.6442" fill="white" stroke="black" stroke-opacity="0.3" stroke-linecap="round"/>
<rect x="106" y="54" width="52.6442" height="52.6442" fill="white" stroke="black" stroke-opacity="0.3" stroke-linecap="round"/>
<rect x="211.355" y="54" width="52" height="53" fill="white" stroke="black" stroke-opacity="0.3" stroke-linecap="round"/>
</g>
<rect x="106.132" y="106.337" width="105.025" height="105.025" fill="white" stroke="#557ECE" stroke-linecap="round"/>
<rect x="113.567" y="113.5" width="90" height="91" fill="white" stroke="#557ECE" stroke-linecap="round"/>
<path d="M143.334 144.473L160.165 126L167.095 144.523" stroke="#557ECE" stroke-miterlimit="10" stroke-linecap="round" stroke-linejoin="round"/>
<path d="M166.86 170.872L157.027 181.619L150.097 163.079" stroke="#557ECE" stroke-miterlimit="10" stroke-linecap="round" stroke-linejoin="round"/>
<path d="M174.009 163.079L166.861 170.872" stroke="#557ECE" stroke-miterlimit="10" stroke-linecap="round"/>
<path d="M167.062 144.523H179.144L186.074 163.079H162.145L155.215 144.523H131.286L138.217 163.079H150.097" stroke="#557ECE" stroke-miterlimit="10" stroke-linecap="round" stroke-linejoin="round"/>
<path d="M167.079 144.523L150.081 163.079" stroke="#557ECE" stroke-miterlimit="10" stroke-linecap="round"/>
<path d="M143.985 196C143.925 196 143.874 195.979 143.832 195.937C143.79 195.895 143.769 195.844 143.769 195.784V189.925C143.769 189.859 143.787 189.805 143.823 189.763C143.865 189.721 143.919 189.7 143.985 189.7H146.316C147.054 189.7 147.63 189.871 148.044 190.213C148.464 190.555 148.674 191.041 148.674 191.671C148.674 192.109 148.569 192.478 148.359 192.778C148.149 193.072 147.855 193.285 147.477 193.417L148.782 195.712C148.8 195.748 148.809 195.781 148.809 195.811C148.809 195.865 148.788 195.91 148.746 195.946C148.71 195.982 148.668 196 148.62 196H147.792C147.696 196 147.621 195.979 147.567 195.937C147.513 195.889 147.465 195.829 147.423 195.757L146.271 193.624H145.038V195.784C145.038 195.844 145.017 195.895 144.975 195.937C144.933 195.979 144.879 196 144.813 196H143.985ZM146.289 192.598C146.649 192.598 146.919 192.52 147.099 192.364C147.279 192.202 147.369 191.968 147.369 191.662C147.369 191.356 147.279 191.122 147.099 190.96C146.919 190.792 146.649 190.708 146.289 190.708H145.038V192.598H146.289ZM150.05 196C149.99 196 149.939 195.979 149.897 195.937C149.855 195.895 149.834 195.844 149.834 195.784V189.916C149.834 189.85 149.855 189.799 149.897 189.763C149.939 189.721 149.99 189.7 150.05 189.7H150.914C150.98 189.7 151.031 189.721 151.067 189.763C151.109 189.799 151.13 189.85 151.13 189.916V195.784C151.13 195.844 151.109 195.895 151.067 195.937C151.031 195.979 150.98 196 150.914 196H150.05ZM154.728 196.09C154.188 196.09 153.726 196.009 153.342 195.847C152.958 195.685 152.667 195.472 152.469 195.208C152.271 194.944 152.166 194.656 152.154 194.344C152.154 194.296 152.172 194.254 152.208 194.218C152.244 194.176 152.289 194.155 152.343 194.155H153.162C153.228 194.155 153.282 194.17 153.324 194.2C153.366 194.23 153.405 194.272 153.441 194.326C153.501 194.53 153.636 194.701 153.846 194.839C154.062 194.977 154.356 195.046 154.728 195.046C155.148 195.046 155.463 194.977 155.673 194.839C155.889 194.695 155.997 194.5 155.997 194.254C155.997 194.092 155.943 193.957 155.835 193.849C155.727 193.741 155.562 193.648 155.34 193.57C155.124 193.486 154.8 193.387 154.368 193.273C153.66 193.105 153.141 192.883 152.811 192.607C152.481 192.331 152.316 191.935 152.316 191.419C152.316 191.071 152.412 190.762 152.604 190.492C152.796 190.216 153.069 190 153.423 189.844C153.783 189.688 154.2 189.61 154.674 189.61C155.172 189.61 155.601 189.697 155.961 189.871C156.327 190.045 156.603 190.264 156.789 190.528C156.981 190.786 157.083 191.044 157.095 191.302C157.095 191.35 157.077 191.395 157.041 191.437C157.005 191.473 156.96 191.491 156.906 191.491H156.051C155.919 191.491 155.829 191.437 155.781 191.329C155.751 191.137 155.634 190.978 155.43 190.852C155.226 190.72 154.974 190.654 154.674 190.654C154.344 190.654 154.083 190.717 153.891 190.843C153.705 190.969 153.612 191.152 153.612 191.392C153.612 191.554 153.66 191.689 153.756 191.797C153.852 191.905 154.002 192.001 154.206 192.085C154.41 192.163 154.707 192.253 155.097 192.355C155.631 192.475 156.054 192.61 156.366 192.76C156.684 192.91 156.918 193.099 157.068 193.327C157.218 193.555 157.293 193.846 157.293 194.2C157.293 194.59 157.185 194.929 156.969 195.217C156.759 195.499 156.459 195.715 156.069 195.865C155.685 196.015 155.238 196.09 154.728 196.09ZM160.745 196.09C159.917 196.09 159.275 195.88 158.819 195.46C158.369 195.034 158.129 194.431 158.099 193.651C158.093 193.489 158.09 193.225 158.09 192.859C158.09 192.487 158.093 192.217 158.099 192.049C158.129 191.281 158.372 190.684 158.828 190.258C159.284 189.826 159.923 189.61 160.745 189.61C161.279 189.61 161.744 189.703 162.14 189.889C162.536 190.069 162.842 190.318 163.058 190.636C163.28 190.954 163.397 191.311 163.409 191.707V191.725C163.409 191.773 163.388 191.815 163.346 191.851C163.31 191.881 163.268 191.896 163.22 191.896H162.347C162.275 191.896 162.221 191.881 162.185 191.851C162.149 191.815 162.119 191.755 162.095 191.671C162.005 191.299 161.849 191.038 161.627 190.888C161.405 190.732 161.111 190.654 160.745 190.654C159.887 190.654 159.44 191.134 159.404 192.094C159.398 192.256 159.395 192.505 159.395 192.841C159.395 193.177 159.398 193.432 159.404 193.606C159.44 194.566 159.887 195.046 160.745 195.046C161.105 195.046 161.396 194.971 161.618 194.821C161.846 194.665 162.005 194.401 162.095 194.029C162.119 193.945 162.149 193.888 162.185 193.858C162.221 193.822 162.275 193.804 162.347 193.804H163.22C163.274 193.804 163.319 193.822 163.355 193.858C163.397 193.894 163.415 193.939 163.409 193.993C163.397 194.389 163.28 194.746 163.058 195.064C162.842 195.382 162.536 195.634 162.14 195.82C161.744 196 161.279 196.09 160.745 196.09ZM164.469 193.822C164.409 193.822 164.358 193.801 164.316 193.759C164.274 193.717 164.253 193.666 164.253 193.606V192.994C164.253 192.934 164.274 192.883 164.316 192.841C164.358 192.799 164.409 192.778 164.469 192.778H167.241C167.307 192.778 167.358 192.799 167.394 192.841C167.436 192.877 167.457 192.928 167.457 192.994V193.606C167.457 193.666 167.436 193.717 167.394 193.759C167.352 193.801 167.301 193.822 167.241 193.822H164.469ZM170.206 196C170.026 196 169.909 195.916 169.855 195.748L167.929 189.97C167.923 189.952 167.92 189.925 167.92 189.889C167.92 189.835 167.938 189.79 167.974 189.754C168.01 189.718 168.055 189.7 168.109 189.7H168.91C168.988 189.7 169.051 189.721 169.099 189.763C169.147 189.805 169.18 189.85 169.198 189.898L170.701 194.506L172.213 189.898C172.225 189.85 172.255 189.805 172.303 189.763C172.351 189.721 172.414 189.7 172.492 189.7H173.302C173.35 189.7 173.392 189.718 173.428 189.754C173.47 189.79 173.491 189.835 173.491 189.889L173.473 189.97L171.556 195.748C171.496 195.916 171.379 196 171.205 196H170.206Z" fill="#557ECE"/>
<line x1="118.385" y1="105.335" x2="118.385" y2="97.4999" stroke="#557ECE" stroke-linecap="round"/>
<line x1="127.22" y1="105.335" x2="127.22" y2="97.4999" stroke="#557ECE" stroke-linecap="round"/>
<line x1="136.055" y1="105.335" x2="136.055" y2="97.4999" stroke="#557ECE" stroke-linecap="round"/>
<line x1="144.891" y1="105.335" x2="144.891" y2="97.4999" stroke="#557ECE" stroke-linecap="round"/>
<line x1="153.726" y1="105.335" x2="153.726" y2="97.4999" stroke="#557ECE" stroke-linecap="round"/>
<line x1="162.562" y1="105.335" x2="162.562" y2="97.4999" stroke="#557ECE" stroke-linecap="round"/>
<line x1="171.397" y1="105.335" x2="171.397" y2="97.4999" stroke="#557ECE" stroke-linecap="round"/>
<line x1="180.233" y1="105.335" x2="180.233" y2="97.4999" stroke="#557ECE" stroke-linecap="round"/>
<line x1="189.068" y1="105.335" x2="189.068" y2="97.4999" stroke="#557ECE" stroke-linecap="round"/>
<line x1="197.903" y1="105.335" x2="197.903" y2="97.4999" stroke="#557ECE" stroke-linecap="round"/>
<line x1="118.385" y1="220.196" x2="118.385" y2="212.36" stroke="#557ECE" stroke-linecap="round"/>
<line x1="127.22" y1="220.196" x2="127.22" y2="212.36" stroke="#557ECE" stroke-linecap="round"/>
<line x1="136.056" y1="220.196" x2="136.056" y2="212.36" stroke="#557ECE" stroke-linecap="round"/>
<line x1="144.891" y1="220.196" x2="144.891" y2="212.36" stroke="#557ECE" stroke-linecap="round"/>
<line x1="153.727" y1="220.196" x2="153.727" y2="212.36" stroke="#557ECE" stroke-linecap="round"/>
<line x1="162.562" y1="220.196" x2="162.562" y2="212.36" stroke="#557ECE" stroke-linecap="round"/>
<line x1="171.398" y1="220.196" x2="171.398" y2="212.36" stroke="#557ECE" stroke-linecap="round"/>
<line x1="180.233" y1="220.196" x2="180.233" y2="212.36" stroke="#557ECE" stroke-linecap="round"/>
<line x1="189.069" y1="220.196" x2="189.069" y2="212.36" stroke="#557ECE" stroke-linecap="round"/>
<line x1="197.904" y1="220.196" x2="197.904" y2="212.36" stroke="#557ECE" stroke-linecap="round"/>
<line x1="105.132" y1="195.791" x2="97.2964" y2="195.791" stroke="#557ECE" stroke-linecap="round"/>
<line x1="105.132" y1="186.956" x2="97.2964" y2="186.956" stroke="#557ECE" stroke-linecap="round"/>
<line x1="105.132" y1="178.123" x2="97.2964" y2="178.123" stroke="#557ECE" stroke-linecap="round"/>
<line x1="105.132" y1="169.283" x2="97.2964" y2="169.283" stroke="#557ECE" stroke-linecap="round"/>
<line x1="105.132" y1="160.45" x2="97.2964" y2="160.45" stroke="#557ECE" stroke-linecap="round"/>
<line x1="105.132" y1="151.613" x2="97.2964" y2="151.613" stroke="#557ECE" stroke-linecap="round"/>
<line x1="105.132" y1="142.778" x2="97.2964" y2="142.778" stroke="#557ECE" stroke-linecap="round"/>
<line x1="105.132" y1="133.939" x2="97.2964" y2="133.939" stroke="#557ECE" stroke-linecap="round"/>
<line x1="105.132" y1="125.104" x2="97.2964" y2="125.104" stroke="#557ECE" stroke-linecap="round"/>
<line x1="105.132" y1="116.272" x2="97.2964" y2="116.272" stroke="#557ECE" stroke-linecap="round"/>
<line x1="219.992" y1="195.791" x2="212.157" y2="195.791" stroke="#557ECE" stroke-linecap="round"/>
<line x1="219.992" y1="186.956" x2="212.157" y2="186.956" stroke="#557ECE" stroke-linecap="round"/>
<line x1="219.992" y1="178.123" x2="212.157" y2="178.123" stroke="#557ECE" stroke-linecap="round"/>
<line x1="219.992" y1="169.282" x2="212.157" y2="169.282" stroke="#557ECE" stroke-linecap="round"/>
<line x1="219.992" y1="160.45" x2="212.157" y2="160.45" stroke="#557ECE" stroke-linecap="round"/>
<line x1="219.992" y1="151.613" x2="212.157" y2="151.613" stroke="#557ECE" stroke-linecap="round"/>
<line x1="219.992" y1="142.778" x2="212.157" y2="142.778" stroke="#557ECE" stroke-linecap="round"/>
<line x1="219.992" y1="133.939" x2="212.157" y2="133.939" stroke="#557ECE" stroke-linecap="round"/>
<line x1="219.992" y1="125.104" x2="212.157" y2="125.104" stroke="#557ECE" stroke-linecap="round"/>
<line x1="219.992" y1="116.272" x2="212.157" y2="116.272" stroke="#557ECE" stroke-linecap="round"/>
<g opacity="0.3">
<mask id="mask0" mask-type="alpha" maskUnits="userSpaceOnUse" x="264" y="107" width="53" height="53">
<rect width="52.0278" height="52.0278" transform="matrix(1 8.74228e-08 8.74228e-08 -1 264.355 159.028)" fill="#C4C4C4"/>
</mask>
<g mask="url(#mask0)">
<g opacity="0.6">
<path d="M336.363 219.094L262.415 145.516" stroke="#808080"/>
<path d="M336.363 207.648L262.415 134.07" stroke="#808080"/>
<path d="M336.363 196.202L262.415 122.624" stroke="#808080"/>
<path d="M336.363 184.756L262.415 111.177" stroke="#808080"/>
<path d="M336.363 173.31L262.415 99.7312" stroke="#808080"/>
<path d="M336.363 161.864L262.415 88.2852" stroke="#808080"/>
<path d="M336.363 150.417L262.415 76.8386" stroke="#808080"/>
<path d="M336.363 140.012L262.415 66.4333" stroke="#808080"/>
</g>
</g>
</g>
<g opacity="0.3">
<mask id="mask1" mask-type="alpha" maskUnits="userSpaceOnUse" x="106" y="54" width="53" height="53">
<rect width="52.0278" height="52.0278" transform="matrix(1 8.74228e-08 8.74228e-08 -1 106.355 106.028)" fill="#C4C4C4"/>
</mask>
<g mask="url(#mask1)">
<g opacity="0.6">
<path d="M178.363 166.094L104.415 92.5157" stroke="#808080"/>
<path d="M178.363 154.648L104.415 81.0699" stroke="#808080"/>
<path d="M178.363 143.202L104.415 69.6237" stroke="#808080"/>
<path d="M178.363 131.756L104.415 58.1773" stroke="#808080"/>
<path d="M178.363 120.31L104.415 46.7313" stroke="#808080"/>
<path d="M178.363 108.864L104.415 35.2852" stroke="#808080"/>
<path d="M178.363 97.4171L104.415 23.8387" stroke="#808080"/>
<path d="M178.363 87.0117L104.415 13.4333" stroke="#808080"/>
</g>
</g>
</g>
<path d="M26.9738 79.7701C26.6325 79.8693 26.4354 80.2261 26.5339 80.5681C26.5513 80.628 28.271 86.7453 27.7976 100.332C27.7847 100.689 28.0629 100.987 28.4185 100.998C28.4262 100.999 28.4339 100.999 28.4416 100.999C28.7869 100.999 29.0722 100.725 29.0844 100.378C29.5655 86.5856 27.8446 80.4638 27.7718 80.21C27.6733 79.868 27.3171 79.6735 26.9738 79.7701Z" fill="#557ECE"/>
<path d="M43.169 73.6135C40.4408 67.1664 34.1547 63 27.1538 63C24.8435 63 22.5906 63.4515 20.4581 64.3416C19.2769 64.8343 18.1607 65.4204 17.1405 66.0831C16.8423 66.2776 16.7573 66.6763 16.9512 66.9745C17.1457 67.2727 17.545 67.3577 17.8426 67.1639C18.7977 66.543 19.8443 65.9936 20.954 65.5305C22.9294 64.7055 25.0148 64.2881 27.1538 64.2881C33.6356 64.2881 39.4566 68.1454 41.982 74.1159C43.0318 76.5981 43.5992 81.1683 43.844 83.6725C43.8768 84.0054 44.1564 84.2534 44.4842 84.2534C44.5048 84.2534 44.526 84.2521 44.5479 84.2502C44.9015 84.2154 45.1604 83.9004 45.1257 83.5462C44.8184 80.3993 44.2298 76.1208 43.169 73.6135Z" fill="#557ECE"/>
<path d="M15.2314 69.2545C15.4852 69.0053 15.4871 68.597 15.2378 68.3438C14.9886 68.0907 14.5809 68.0882 14.3271 68.3374C10.8634 71.7496 7.41314 78.0956 10.645 88.9454C10.7281 89.2256 10.9838 89.406 11.2621 89.406C11.3226 89.406 11.3844 89.3969 11.4456 89.3789C11.7863 89.2778 11.9808 88.919 11.8791 88.5783C9.46576 80.4747 10.6244 73.7933 15.2314 69.2545Z" fill="#557ECE"/>
<path d="M27.6483 66.8734C25.6775 66.7967 23.7595 67.1516 21.9464 67.9078C15.6308 70.5426 12.2726 77.4875 14.1359 84.0634C14.322 84.721 14.5127 85.4204 14.6151 86.1173C14.8456 87.6946 14.8579 90.5974 14.8579 95.2018C14.8579 95.558 15.1458 95.8459 15.5019 95.8459C15.8581 95.8459 16.146 95.558 16.146 95.2018C16.146 90.3984 16.1338 87.5993 15.8897 85.9299C15.7763 85.1557 15.5734 84.4099 15.3751 83.7117C13.6896 77.7632 16.7276 71.4797 22.4424 69.096C24.0834 68.4114 25.8295 68.1003 27.6026 68.1596C32.1825 68.3245 37.3736 72.3614 38.9394 76.9761C40.2945 80.9687 40.306 87.7706 40.1379 93.8963C40.1283 94.2518 40.4091 94.5481 40.7646 94.5577C41.1137 94.5513 41.4164 94.2879 41.4261 93.9311C41.5967 87.6908 41.5794 80.7465 40.1592 76.5614C38.4093 71.4044 32.7969 67.0576 27.6483 66.8734Z" fill="#557ECE"/>
<path d="M27.1537 70.7288C26.4536 70.7288 25.7567 70.8041 25.0811 70.9535C24.7339 71.0302 24.5143 71.3735 24.5909 71.7213C24.6676 72.0684 25.007 72.2835 25.3587 72.2114C25.9428 72.0826 26.547 72.0169 27.153 72.0169C30.5234 72.0169 33.5505 74.0225 34.8637 77.1275C36.4288 80.8244 36.5312 86.7582 36.1699 97.1121C36.157 97.4676 36.4352 97.7665 36.7908 97.7781C36.7985 97.7787 36.8062 97.7787 36.8139 97.7787C37.1592 97.7787 37.4445 97.505 37.4567 97.1572C37.8329 86.3865 37.7182 80.5674 36.0494 76.6251C34.5353 73.0435 31.0432 70.7288 27.1537 70.7288Z" fill="#557ECE"/>
<path d="M22.3702 73.5221C22.6613 73.3179 22.7321 72.916 22.5273 72.6249C22.3238 72.3338 21.9213 72.2623 21.6301 72.4678C18.3132 74.7967 16.8718 79.271 18.0459 83.6068C18.0595 83.6538 19.3669 88.4128 19.3669 95.8466C19.3669 96.2027 19.6548 96.4906 20.011 96.4906C20.3671 96.4906 20.655 96.2027 20.655 95.8466C20.655 88.2383 19.3424 83.46 19.2877 83.2648C18.2566 79.4558 19.4957 75.5406 22.3702 73.5221Z" fill="#557ECE"/>
<path d="M33.5363 93.9188C33.5389 93.5627 33.253 93.2728 32.8968 93.2703C32.8955 93.2703 32.8936 93.2703 32.8923 93.2703C32.5387 93.2703 32.2508 93.5556 32.2482 93.9098C32.245 94.3942 32.2611 95.1013 32.2785 95.8652C32.3036 96.9762 32.3319 98.2353 32.3043 99.0449C32.2914 99.4004 32.5696 99.6986 32.9258 99.7102C32.9335 99.7109 32.9406 99.7109 32.9483 99.7109C33.2935 99.7109 33.5788 99.4372 33.5911 99.0887C33.6207 98.2431 33.5917 96.964 33.566 95.8356C33.5486 95.0872 33.5331 94.3935 33.5363 93.9188Z" fill="#557ECE"/>
<path d="M27.1536 75.2372C26.4696 75.2372 25.8023 75.3711 25.1692 75.6352C22.6625 76.6812 21.4446 79.5092 22.3354 82.2137C22.821 83.6879 23.2313 91.4057 23.2313 99.0668C23.2313 99.423 23.5191 99.7109 23.8753 99.7109C24.2315 99.7109 24.5194 99.423 24.5194 99.0668C24.5194 92.1709 24.1523 83.6126 23.5597 81.8111C22.8809 79.7521 23.7871 77.608 25.6658 76.8242C26.1405 76.6258 26.6409 76.5253 27.1536 76.5253C28.709 76.5253 30.106 77.4515 30.7146 78.889C31.9171 81.7351 32.2745 86.8876 32.3621 90.7095C32.3705 91.0598 32.6571 91.3387 33.0062 91.3387C33.0107 91.3387 33.0165 91.3387 33.021 91.3387C33.3765 91.3304 33.658 91.0354 33.6502 90.6799C33.5594 86.7472 33.1827 81.4215 31.8984 78.3828C31.0907 76.4718 29.2281 75.2372 27.1536 75.2372Z" fill="#557ECE"/>
<rect x="287.976" y="18.3326" width="5.15131" height="4.12105" fill="white" stroke="#557ECE"/>
<rect x="272.855" y="22.8208" width="35.8828" height="23.814" fill="white" stroke="#557ECE"/>
<mask id="path-94-inside-1" fill="white">
<path fill-rule="evenodd" clip-rule="evenodd" d="M300.15 29.4366H296.638V32.9483L293.127 32.9483L293.127 36.4598H296.638V39.9712H300.15V36.4598H303.661V32.9483L300.15 32.9483V29.4366Z"/>
</mask>
<path fill-rule="evenodd" clip-rule="evenodd" d="M300.15 29.4366H296.638V32.9483L293.127 32.9483L293.127 36.4598H296.638V39.9712H300.15V36.4598H303.661V32.9483L300.15 32.9483V29.4366Z" fill="white"/>
<path d="M296.638 29.4366V28.4366H295.638V29.4366H296.638ZM300.15 29.4366H301.15V28.4366H300.15V29.4366ZM296.638 32.9483V33.9483L297.638 33.9483V32.9483H296.638ZM293.127 32.9483L293.127 31.9483L292.127 31.9483V32.9483H293.127ZM293.127 36.4598H292.127V37.4598H293.127V36.4598ZM296.638 36.4598H297.638V35.4598H296.638V36.4598ZM296.638 39.9712H295.638V40.9712H296.638V39.9712ZM300.15 39.9712V40.9712H301.15V39.9712H300.15ZM300.15 36.4598V35.4598H299.15V36.4598H300.15ZM303.661 36.4598V37.4598H304.661V36.4598H303.661ZM303.661 32.9483H304.661V31.9483H303.661V32.9483ZM300.15 32.9483H299.15V33.9483H300.15V32.9483ZM296.638 30.4366H300.15V28.4366H296.638V30.4366ZM297.638 32.9483V29.4366H295.638V32.9483H297.638ZM293.127 33.9483H296.638V31.9483L293.127 31.9483L293.127 33.9483ZM294.127 36.4598L294.127 32.9483H292.127L292.127 36.4598H294.127ZM296.638 35.4598H293.127V37.4598H296.638V35.4598ZM297.638 39.9712V36.4598H295.638V39.9712H297.638ZM300.15 38.9712H296.638V40.9712H300.15V38.9712ZM299.15 36.4598V39.9712H301.15V36.4598H299.15ZM303.661 35.4598H300.15V37.4598H303.661V35.4598ZM302.661 32.9483V36.4598H304.661V32.9483H302.661ZM300.15 33.9483L303.661 33.9483V31.9483L300.15 31.9483V33.9483ZM299.15 29.4366V32.9483H301.15V29.4366H299.15Z" fill="#557ECE" mask="url(#path-94-inside-1)"/>
<circle cx="279.585" cy="31.6504" r="1.87741" fill="white" stroke="#557ECE"/>
<circle cx="284.34" cy="37.5938" r="1.87741" fill="white" stroke="#557ECE"/>
<path d="M290.551 18.3329V13.9144C290.551 12.2294 289.185 10.8635 287.5 10.8635H287.412C285.776 10.8635 284.45 12.1896 284.45 13.8255V13.8255C284.45 15.4614 283.123 16.7875 281.487 16.7875H281.399C279.714 16.7875 278.348 15.4215 278.348 13.7366V7" stroke="#557ECE"/>
<path d="M20.9246 237.882C19.4225 236.186 17.4196 235.252 15.2837 235.252C13.1479 235.252 11.145 236.186 9.64346 237.882C6.59281 241.329 6.59281 246.936 9.64346 250.383L15.2837 256.755L20.924 250.383C23.9753 246.936 23.9753 241.329 20.9246 237.882ZM19.9338 249.506L15.2844 254.759L10.6343 249.506C8.01097 246.543 8.01097 241.722 10.6343 238.759C11.8812 237.35 13.5328 236.575 15.2837 236.575C17.0346 236.575 18.6869 237.35 19.9331 238.759C22.5565 241.722 22.5565 246.543 19.9338 249.506Z" fill="#557ECE"/>
<path d="M39.2642 234.925L43.5399 230.106C45.8404 227.513 45.8404 223.296 43.5399 220.703C42.4022 219.421 40.8834 218.715 39.2635 218.715C37.6443 218.715 36.1256 219.421 34.9879 220.703C32.6873 223.296 32.6873 227.513 34.9879 230.106L39.2642 234.925ZM35.9774 221.581C36.8605 220.586 38.0273 220.038 39.2635 220.038C40.5005 220.038 41.6673 220.586 42.5503 221.581C44.4209 223.689 44.4209 227.12 42.5503 229.228L39.2642 232.932L35.9774 229.228C34.1068 227.12 34.1068 223.689 35.9774 221.581Z" fill="#557ECE"/>
<path d="M41.8154 254.776C41.4589 254.696 41.105 254.919 41.025 255.276C40.9489 255.613 40.8014 255.923 40.5864 256.197C40.3609 256.484 40.4098 256.9 40.6975 257.125C40.8192 257.221 40.9628 257.267 41.1057 257.267C41.3021 257.267 41.4959 257.18 41.6262 257.014C41.9596 256.591 42.1977 256.091 42.3155 255.567C42.3955 255.21 42.1719 254.856 41.8154 254.776Z" fill="#557ECE"/>
<path d="M28.1836 239.22C27.8972 239.22 27.6188 239.169 27.3555 239.068C27.0168 238.939 26.6325 239.109 26.5016 239.451C26.3719 239.792 26.5432 240.174 26.8839 240.305C27.298 240.462 27.7339 240.543 28.1823 240.543H28.4185C28.7842 240.543 29.0799 240.248 29.0799 239.882C29.0799 239.516 28.7842 239.22 28.4185 239.22H28.1836Z" fill="#557ECE"/>
<path d="M26.6133 235.037C26.733 235.037 26.8534 235.005 26.9625 234.937C27.2555 234.755 27.5797 234.643 27.9243 234.605C28.2874 234.564 28.5494 234.238 28.5097 233.874C28.47 233.511 28.1452 233.252 27.7794 233.289C27.2357 233.349 26.7251 233.525 26.262 233.814C25.9518 234.007 25.8579 234.416 26.051 234.726C26.1767 234.927 26.3923 235.037 26.6133 235.037Z" fill="#557ECE"/>
<path d="M18.9685 257.08H17.6456C17.2798 257.08 16.9841 257.375 16.9841 257.741C16.9841 258.107 17.2798 258.403 17.6456 258.403H18.9685C19.3343 258.403 19.63 258.107 19.63 257.741C19.63 257.375 19.3336 257.08 18.9685 257.08Z" fill="#557ECE"/>
<path d="M30.828 245.174C30.7711 245.174 30.7149 245.175 30.6586 245.178C30.2935 245.192 30.0104 245.5 30.025 245.865C30.0388 246.221 30.3325 246.5 30.6851 246.5C30.6943 246.5 30.7036 246.5 30.7129 246.499L32.0087 246.497C32.3745 246.497 32.6701 246.201 32.6701 245.835C32.6701 245.469 32.3745 245.174 32.0087 245.174H30.828Z" fill="#557ECE"/>
<path d="M30.4972 234.59H31.8201C32.1859 234.59 32.4815 234.294 32.4815 233.929C32.4815 233.563 32.1859 233.267 31.8201 233.267H30.4972C30.1314 233.267 29.8357 233.563 29.8357 233.929C29.8357 234.294 30.1314 234.59 30.4972 234.59Z" fill="#557ECE"/>
<path d="M38.6231 245.174C38.2573 245.174 37.9617 245.469 37.9617 245.835C37.9617 246.201 38.2573 246.497 38.6231 246.497H39.946C40.3118 246.497 40.6075 246.201 40.6075 245.835C40.6075 245.469 40.3118 245.174 39.946 245.174H38.6231Z" fill="#557ECE"/>
<path d="M40.9867 239.882C40.9867 239.516 40.691 239.22 40.3252 239.22H39.0023C38.6365 239.22 38.3408 239.516 38.3408 239.882C38.3408 240.247 38.6365 240.543 39.0023 240.543H40.3252C40.6903 240.543 40.9867 240.247 40.9867 239.882Z" fill="#557ECE"/>
<path d="M34.6544 246.497H35.9773C36.3431 246.497 36.6388 246.201 36.6388 245.835C36.6388 245.469 36.3431 245.174 35.9773 245.174H34.6544C34.2886 245.174 33.9929 245.469 33.9929 245.835C33.9929 246.201 34.2893 246.497 34.6544 246.497Z" fill="#557ECE"/>
<path d="M35.7888 234.59C36.1546 234.59 36.4503 234.294 36.4503 233.929C36.4503 233.563 36.1546 233.267 35.7888 233.267H34.4659C34.1001 233.267 33.8044 233.563 33.8044 233.929C33.8044 234.294 34.1001 234.59 34.4659 234.59H35.7888Z" fill="#557ECE"/>
<path d="M31.0648 239.22C30.699 239.22 30.4033 239.516 30.4033 239.882C30.4033 240.247 30.699 240.543 31.0648 240.543H32.3877C32.7535 240.543 33.0492 240.247 33.0492 239.882C33.0492 239.516 32.7535 239.22 32.3877 239.22H31.0648Z" fill="#557ECE"/>
<path d="M37.0181 239.882C37.0181 239.516 36.7225 239.22 36.3567 239.22H35.0338C34.668 239.22 34.3723 239.516 34.3723 239.882C34.3723 240.247 34.668 240.543 35.0338 240.543H36.3567C36.7218 240.543 37.0181 240.247 37.0181 239.882Z" fill="#557ECE"/>
<path d="M46.328 242.284C46.2698 241.923 45.9292 241.676 45.57 241.736C45.2089 241.793 44.9635 242.133 45.0217 242.494C45.0402 242.612 45.0508 242.731 45.0494 242.859C45.0494 243.081 45.0177 243.301 44.9555 243.512C44.853 243.863 45.0534 244.231 45.4047 244.333C45.4668 244.351 45.529 244.36 45.5905 244.36C45.8769 244.36 46.1409 244.173 46.2255 243.884C46.3228 243.551 46.3724 243.207 46.3724 242.864C46.3737 242.673 46.3591 242.478 46.328 242.284Z" fill="#557ECE"/>
<path d="M34.8438 257.08H33.5208C33.155 257.08 32.8594 257.375 32.8594 257.741C32.8594 258.107 33.155 258.403 33.5208 258.403H34.8438C35.2095 258.403 35.5052 258.107 35.5052 257.741C35.5052 257.375 35.2089 257.08 34.8438 257.08Z" fill="#557ECE"/>
<path d="M30.8748 257.08H29.5518C29.1861 257.08 28.8904 257.375 28.8904 257.741C28.8904 258.107 29.1861 258.403 29.5518 258.403H30.8748C31.2405 258.403 31.5362 258.107 31.5362 257.741C31.5362 257.375 31.2399 257.08 30.8748 257.08Z" fill="#557ECE"/>
<path d="M38.1517 251.788C38.1517 251.422 37.856 251.127 37.4902 251.127H36.1673C35.8015 251.127 35.5059 251.422 35.5059 251.788C35.5059 252.154 35.8015 252.45 36.1673 252.45H37.4902C37.8554 252.45 38.1517 252.154 38.1517 251.788Z" fill="#557ECE"/>
<path d="M34.1829 251.788C34.1829 251.422 33.8873 251.127 33.5215 251.127H32.1986C31.8328 251.127 31.5371 251.422 31.5371 251.788C31.5371 252.154 31.8328 252.45 32.1986 252.45H33.5215C33.8866 252.45 34.1829 252.154 34.1829 251.788Z" fill="#557ECE"/>
<path d="M38.7655 257.08H37.4889C37.1231 257.08 36.8274 257.375 36.8274 257.741C36.8274 258.107 37.1231 258.403 37.4889 258.403L38.7926 258.402L38.8118 257.74V258.402C39.1776 258.402 39.4501 258.106 39.4501 257.74C39.4501 257.375 39.1313 257.08 38.7655 257.08Z" fill="#557ECE"/>
<path d="M41.1055 253.587C41.2484 253.587 41.3932 253.54 41.5136 253.445C41.8014 253.219 41.8503 252.803 41.6248 252.516C41.292 252.094 40.8628 251.744 40.3819 251.506C40.0531 251.342 39.6576 251.477 39.4949 251.803C39.3321 252.131 39.4658 252.528 39.7925 252.69C40.0988 252.842 40.3726 253.065 40.5843 253.335C40.7152 253.5 40.9091 253.587 41.1055 253.587Z" fill="#557ECE"/>
<path d="M43.6286 244.994C43.3449 245.113 43.0446 245.173 42.7343 245.173H42.5921C42.2263 245.173 41.9307 245.469 41.9307 245.835C41.9307 246.201 42.2263 246.496 42.5921 246.496H42.7343C43.2212 246.496 43.6941 246.401 44.1399 246.214C44.4773 246.072 44.6354 245.685 44.4938 245.348C44.3529 245.011 43.9627 244.853 43.6286 244.994Z" fill="#557ECE"/>
<path d="M25.5602 238.463C25.9068 238.349 26.096 237.975 25.9822 237.628C25.9061 237.395 25.8671 237.153 25.8671 236.908C25.8678 236.808 25.8737 236.708 25.8856 236.611C25.9313 236.248 25.6746 235.917 25.3121 235.872C24.9384 235.83 24.6183 236.084 24.5733 236.446C24.5548 236.595 24.5449 236.747 24.5442 236.905C24.5442 237.294 24.605 237.676 24.7248 238.041C24.8167 238.319 25.0753 238.496 25.3532 238.496C25.4219 238.496 25.4921 238.486 25.5602 238.463Z" fill="#557ECE"/>
<path d="M22.9375 257.08H21.6146C21.2488 257.08 20.9531 257.375 20.9531 257.741C20.9531 258.107 21.2488 258.403 21.6146 258.403H22.9375C23.3033 258.403 23.599 258.107 23.599 257.741C23.599 257.375 23.3026 257.08 22.9375 257.08Z" fill="#557ECE"/>
<path d="M29.5905 252.181C29.8418 252.181 30.0813 252.037 30.1924 251.795C30.3439 251.462 30.1984 251.07 29.8663 250.918C29.5561 250.776 29.275 250.562 29.054 250.299C28.8186 250.019 28.4018 249.983 28.1221 250.218C27.8423 250.453 27.8059 250.871 28.0414 251.15C28.388 251.562 28.8285 251.898 29.316 252.121C29.4053 252.161 29.4985 252.181 29.5905 252.181Z" fill="#557ECE"/>
<path d="M44.5553 239.708C44.083 239.435 43.5671 239.274 43.0227 239.231C42.6595 239.204 42.3401 239.474 42.3116 239.839C42.2832 240.203 42.555 240.521 42.9195 240.55C43.2648 240.577 43.5922 240.679 43.8918 240.853C43.9963 240.914 44.1108 240.942 44.2232 240.942C44.4514 240.942 44.6737 240.824 44.7961 240.613C44.9793 240.297 44.8715 239.892 44.5553 239.708Z" fill="#557ECE"/>
<path d="M26.906 257.08H25.5831C25.2173 257.08 24.9216 257.375 24.9216 257.741C24.9216 258.107 25.2173 258.403 25.5831 258.403H26.906C27.2718 258.403 27.5675 258.107 27.5675 257.741C27.5675 257.375 27.2711 257.08 26.906 257.08Z" fill="#557ECE"/>
<path d="M28.5539 248.374C28.6194 248.034 28.757 247.72 28.9634 247.44C29.1797 247.146 29.1168 246.732 28.8225 246.515C28.5281 246.299 28.1147 246.361 27.8978 246.656C27.5743 247.096 27.3573 247.59 27.2542 248.125C27.1854 248.484 27.4202 248.831 27.7794 248.9C27.821 248.908 27.8634 248.912 27.9044 248.912C28.2153 248.911 28.4924 248.69 28.5539 248.374Z" fill="#557ECE"/>
<path d="M39.4271 228.637C41.4326 228.637 43.0651 227.005 43.0651 224.999C43.0651 222.993 41.4326 221.361 39.4271 221.361C37.4215 221.361 35.7891 222.993 35.7891 224.999C35.7891 227.005 37.4215 228.637 39.4271 228.637ZM39.4271 222.684C40.7037 222.684 41.7422 223.722 41.7422 224.999C41.7422 226.276 40.7037 227.314 39.4271 227.314C38.1505 227.314 37.112 226.276 37.112 224.999C37.112 223.722 38.1511 222.684 39.4271 222.684Z" fill="#557ECE"/>
<path d="M15.2837 239.22C13.0949 239.22 11.3149 241 11.3149 243.189C11.3149 245.378 13.0949 247.158 15.2837 247.158C17.4725 247.158 19.2524 245.378 19.2524 243.189C19.2524 241 17.4725 239.22 15.2837 239.22ZM15.2837 245.835C13.8245 245.835 12.6379 244.648 12.6379 243.189C12.6379 241.73 13.8245 240.543 15.2837 240.543C16.7429 240.543 17.9295 241.73 17.9295 243.189C17.9295 244.648 16.7429 245.835 15.2837 245.835Z" fill="#557ECE"/>
<path d="M285.689 250.667C284.218 250.667 283.022 251.863 283.022 253.333C283.022 254.804 284.218 256 285.689 256C287.16 256 288.356 254.804 288.356 253.333C288.356 251.863 287.16 250.667 285.689 250.667ZM285.689 254.667C284.954 254.667 284.356 254.069 284.356 253.333C284.356 252.598 284.954 252 285.689 252C286.424 252 287.022 252.598 287.022 253.333C287.022 254.069 286.424 254.667 285.689 254.667Z" fill="#557ECE"/>
<path d="M283.689 221.333H286.356C286.724 221.333 287.022 221.035 287.022 220.667C287.022 220.298 286.724 220 286.356 220H283.689C283.321 220 283.022 220.298 283.022 220.667C283.022 221.035 283.321 221.333 283.689 221.333Z" fill="#557ECE"/>
<path d="M288.356 221.333H289.022C289.39 221.333 289.689 221.035 289.689 220.667C289.689 220.298 289.39 220 289.022 220H288.356C287.988 220 287.689 220.298 287.689 220.667C287.689 221.035 287.988 221.333 288.356 221.333Z" fill="#557ECE"/>
<path d="M309.689 226H297.689V220.937C297.689 219.318 296.372 218 294.752 218H277.959C276.34 218 275.022 219.318 275.022 220.937V255.063C275.022 256.682 276.34 258 277.959 258H294.752C296.372 258 297.689 256.682 297.689 255.063V240H309.689V226ZM277.959 219.333H294.752C295.636 219.333 296.356 220.053 296.356 220.937V222H276.356V220.937C276.356 220.053 277.075 219.333 277.959 219.333ZM294.752 256.667H277.959C277.075 256.667 276.356 255.947 276.356 255.063V250H296.356V255.063C296.356 255.947 295.636 256.667 294.752 256.667ZM296.356 248.667H276.356V223.333H296.356V226H284.356V240H287.022V244.667L293.244 240H296.356V248.667ZM308.356 238.667H297.689H292.8L288.356 242V238.667H285.689V227.333H297.689H308.356V238.667Z" fill="#557ECE"/>
<path d="M289.022 232H295.689C296.057 232 296.355 231.702 296.355 231.333C296.355 230.965 296.057 230.667 295.689 230.667H289.022C288.654 230.667 288.355 230.965 288.355 231.333C288.355 231.702 288.654 232 289.022 232Z" fill="#557ECE"/>
<path d="M288.355 234.667C288.355 235.035 288.654 235.333 289.022 235.333H305.022C305.39 235.333 305.689 235.035 305.689 234.667C305.689 234.298 305.39 234 305.022 234H289.022C288.654 234 288.355 234.298 288.355 234.667Z" fill="#557ECE"/>
</svg>
