<svg width="85" height="18" viewBox="0 0 85 18" fill="none" xmlns="http://www.w3.org/2000/svg">
<path d="M85 9.51327C85.0548 6.80271 82.9458 4.5828 80.2411 4.5279C77.5363 4.473 75.3212 6.58655 75.2664 9.29711C75.2116 12.0077 77.3206 14.2276 80.0254 14.2825H80.1349C81.7578 14.3374 83.3258 13.6306 84.2981 12.3302L83.1101 11.517C82.4083 12.4365 81.3264 12.9787 80.1349 12.9272C78.5121 12.9272 77.1597 11.7881 76.8379 10.2166H84.9486C85 9.94558 85 9.72942 85 9.51327ZM80.1349 6.09934C81.7578 6.09934 83.1101 7.23846 83.4319 8.80989H76.8345C77.1597 7.23846 78.5669 6.09934 80.1349 6.09934ZM40.9336 4.85385H42.3921V13.9565H40.9336V4.85385Z" fill="white"/>
<path d="M41.6901 3.55017C42.2271 3.55017 42.6624 3.11391 42.6624 2.57575C42.6624 2.03758 42.2271 1.60132 41.6901 1.60132C41.1531 1.60132 40.7178 2.03758 40.7178 2.57575C40.7178 3.11391 41.1531 3.55017 41.6901 3.55017Z" fill="white"/>
<path d="M34.4452 4.528C31.7404 4.528 29.5801 6.69645 29.5801 9.40357C29.5801 12.1107 31.7439 14.2791 34.4452 14.2791C37.1465 14.2791 39.3102 12.1141 39.3102 9.40357C39.3102 6.69302 37.1465 4.528 34.4452 4.528ZM34.4452 12.8175C32.5519 12.8175 30.9838 11.301 30.9838 9.40357C30.9838 7.50618 32.4971 5.93818 34.3904 5.93818C36.2837 5.93818 37.8517 7.45472 37.8517 9.35211V9.407C37.8517 11.301 36.3385 12.8175 34.4452 12.8175ZM59.2636 4.528C56.5588 4.528 54.3985 6.69645 54.3985 9.40357C54.3985 12.1107 56.5588 14.2826 59.2636 14.2826C61.9683 14.2826 64.1287 12.1141 64.1287 9.40357C64.1287 6.69302 61.9649 4.528 59.2636 4.528ZM59.2636 12.8175C57.3703 12.8175 55.8022 11.301 55.8022 9.40357C55.8022 7.50618 57.3155 5.93475 59.2088 5.93475C61.1021 5.93475 62.6702 7.45129 62.6702 9.34867C62.6702 11.301 61.1535 12.8175 59.2636 12.8175ZM48.8795 4.528C47.7976 4.4731 46.7157 4.96032 45.9591 5.77348V4.85395H44.5006V13.9017H45.9591V9.24231C45.9591 7.29002 47.0957 5.88328 48.8795 5.88328C50.6632 5.88328 51.6356 7.23856 51.6356 9.35211V13.9052H53.0941V9.35211C53.0975 6.3156 51.4781 4.528 48.8795 4.528Z" fill="white"/>
<path d="M14.4375 9.24253C14.4375 9.24253 13.3008 10.9238 12.438 12.0046C11.3561 13.3049 10.1681 14.1181 8.38437 14.1181C5.78921 14.1181 3.62543 12.0046 3.62543 9.40379V9.24253C3.57065 6.64177 5.62487 4.41843 8.22003 4.36696H8.38095C10.1647 4.36696 11.3014 5.12523 12.4346 6.48051C13.359 7.5613 14.4375 9.18763 14.4375 9.24253L16.3856 6.53197C14.9271 2.14362 10.1681 -0.240986 5.73443 1.22409C1.30074 2.68916 -1.02396 7.45494 0.434541 11.8982C1.89304 16.3414 6.65198 18.6711 11.0857 17.2095C13.5713 16.3963 15.5741 14.3926 16.3856 11.8982L14.4375 9.24253Z" fill="white"/>
<path d="M69.8067 4.52808C68.7248 4.47319 67.6429 4.9604 66.8863 5.77357V4.85404H65.4278V13.9018H66.8863V9.24239C66.8863 7.29011 68.0229 5.88336 69.8067 5.88336C71.5904 5.88336 72.5627 7.23864 72.5627 9.35219V13.9052H74.0212V9.35219C73.9699 6.31568 72.4018 4.52808 69.8067 4.52808ZM25.2541 4.36682C22.4432 4.36682 20.2247 6.64163 20.1699 9.40708C20.1151 12.1691 22.4398 14.4473 25.1993 14.5022C26.6064 14.5022 27.9554 13.9052 28.9311 12.8759L27.904 11.8466C26.5517 13.3631 24.2818 13.4729 22.7685 12.1725C21.2552 10.8722 21.1456 8.54245 22.4432 7.02591C23.7408 5.50937 26.0655 5.39958 27.5788 6.69996L27.904 7.02591L28.9311 5.99659C27.9588 4.9604 26.6612 4.36682 25.2541 4.36682Z" fill="white"/>
</svg>
