<svg width="59" height="56" viewBox="0 0 59 56" fill="none" xmlns="http://www.w3.org/2000/svg">
<g filter="url(#filter0_d)">
<path fill-rule="evenodd" clip-rule="evenodd" d="M4 48L19.1336 7.48665C21.0539 2.75655 24.6341 0.0790569 29.3936 0.0017226V0C29.4291 0 29.4645 0.000143673 29.5 0.000429552C29.5354 0.000143673 29.5708 0 29.6064 0V0.0017226C34.3659 0.0790569 37.946 2.75655 39.8664 7.48665L55 48L45.6287 44.8154L32.701 10.2073C31.9141 8.29308 31.0057 7.60404 29.4999 7.57359C27.9942 7.60404 27.0859 8.29308 26.299 10.2073L13.3713 44.8154L4 48ZM36.0849 32.5734C36.0849 36.1122 33.1765 38.9809 29.5888 38.9809C26.0012 38.9809 23.0928 36.1122 23.0928 32.5734C23.0928 29.0346 26.0012 26.1659 29.5888 26.1659C33.1765 26.1659 36.0849 29.0346 36.0849 32.5734Z" fill="white"/>
</g>
<defs>
<filter id="filter0_d" x="0" y="0" width="59" height="56" filterUnits="userSpaceOnUse" color-interpolation-filters="sRGB">
<feFlood flood-opacity="0" result="BackgroundImageFix"/>
<feColorMatrix in="SourceAlpha" type="matrix" values="0 0 0 0 0 0 0 0 0 0 0 0 0 0 0 0 0 0 127 0"/>
<feOffset dy="4"/>
<feGaussianBlur stdDeviation="2"/>
<feColorMatrix type="matrix" values="0 0 0 0 0 0 0 0 0 0 0 0 0 0 0 0 0 0 0.25 0"/>
<feBlend mode="normal" in2="BackgroundImageFix" result="effect1_dropShadow"/>
<feBlend mode="normal" in="SourceGraphic" in2="effect1_dropShadow" result="shape"/>
</filter>
</defs>
</svg>
