<svg width="60" height="60" viewBox="0 0 60 60" fill="none" xmlns="http://www.w3.org/2000/svg">
<path d="M18.3525 25.2113L30.0059 13.5629L41.6641 25.2208L48.441 18.4393L30.0059 0L11.5708 18.4346L18.3525 25.2113Z" fill="white"/>
<path d="M0 30.001L6.77918 23.222L13.5584 30.001L6.77918 36.78L0 30.001Z" fill="white"/>
<path d="M18.3524 34.7884L30.0059 46.4416L41.6641 34.7837L48.4457 41.5557L48.441 41.5604L30.0059 59.9998L11.5708 41.5699L11.5613 41.5604L18.3524 34.7884Z" fill="white"/>
<path d="M46.4417 30.0034L53.2208 23.2244L60 30.0034L53.2208 36.7824L46.4417 30.0034Z" fill="white"/>
<path d="M36.882 29.9977L30.0055 23.1167L24.9205 28.2016L24.3328 28.7845L23.1291 29.9882L23.1196 29.9977L23.1291 30.0119L30.0055 36.8834L36.882 30.0024L36.8867 29.9977H36.882Z" fill="white"/>
</svg>
