<svg width="27" height="41" viewBox="0 0 27 41" fill="none" xmlns="http://www.w3.org/2000/svg">
<path fill-rule="evenodd" clip-rule="evenodd" d="M13.4 0C21.2 0 25.8 4.62255 25.8 11.0539C25.8 15.4755 23.2 18.4902 19.6 19.8971C24.2 21.1029 27 25.3235 27 29.7451C27 36.1765 21.8 41 14.4 41H0V0H13.4ZM12.8 17.8873C17.4 17.8873 20 15.0735 20 11.2549C20 7.43627 17.2 4.82353 12.6 4.82353H5.8V17.8873H12.8ZM13.6 35.9755C18.2 35.9755 21.2 33.3627 21.2 29.3431C21.2 25.3235 18.8 22.7108 13.8 22.7108H5.8V35.9755H13.6Z" fill="white"/>
</svg>
