<svg width="61" height="62" viewBox="0 0 61 62" fill="none" xmlns="http://www.w3.org/2000/svg">
<path d="M53.0303 37.0467C52.5476 37.3799 51.9841 37.5764 51.3993 37.6158C50.8144 37.6551 50.2298 37.5357 49.7069 37.2702C48.4796 36.5758 47.8181 34.9473 47.8181 32.7282V25.9271C47.8181 22.6623 46.527 20.3394 44.3673 19.7088C40.7171 18.6391 37.9915 23.1173 36.9395 24.8016L30.4841 35.2666V22.4947C30.4123 19.5491 29.456 17.785 27.6468 17.2581C26.4514 16.9069 24.6582 17.0506 22.9129 19.7168L8.47975 42.9218C6.55937 39.2418 5.56363 35.1484 5.57878 30.996C5.57878 17.0107 16.7363 5.63564 30.4841 5.63564C44.2318 5.63564 55.4292 17.0107 55.4292 30.996V31.0679C55.4292 31.0679 55.4292 31.1157 55.4292 31.1397C55.5647 33.8458 54.688 36.001 53.0383 37.0467H53.0303ZM61 31.004V30.8683C60.8884 13.8257 47.2443 0 30.4841 0C13.7238 0 0 13.9055 0 30.996C0 48.0865 13.676 62 30.4841 62C38.193 61.9996 45.6086 59.04 51.2052 53.7301C51.7485 53.2175 52.0682 52.5111 52.095 51.764C52.1219 51.0169 51.8537 50.2893 51.3487 49.7389C51.107 49.4711 50.8149 49.2539 50.489 49.0997C50.1632 48.9454 49.8102 48.8572 49.4502 48.8402C49.0902 48.8231 48.7304 48.8775 48.3915 49.0002C48.0526 49.123 47.7413 49.3116 47.4754 49.5553C45.0659 51.8446 42.2193 53.6226 39.1066 54.7826C35.9939 55.9426 32.6793 56.4606 29.3618 56.3055C26.0442 56.1504 22.7922 55.3255 19.8009 53.8802C16.8096 52.4349 14.1407 50.3991 11.9545 47.8949L24.9451 26.9808V36.6316C24.9451 41.2695 26.7383 42.7702 28.2446 43.2092C29.7508 43.6483 32.0541 43.3449 34.4689 39.4175L41.6416 27.787C41.8648 27.4119 42.08 27.0926 42.2712 26.8132V32.7282C42.2712 37.0627 44.0086 40.5271 47.053 42.2354C48.4374 42.9839 49.9973 43.3455 51.5692 43.2823C53.1411 43.2191 54.6671 42.7334 55.9871 41.8761C59.3343 39.6969 61.1594 35.7536 60.9681 31.004H61Z" fill="white"/>
</svg>
