<svg width="30" height="22" viewBox="0 0 30 22" fill="none" xmlns="http://www.w3.org/2000/svg">
<path d="M22.1406 21.7502C22.1406 21.7502 21.216 20.6367 20.4453 19.6528C23.8102 18.6947 25.0944 16.5716 25.0944 16.5716C24.0412 17.2707 23.0396 17.7628 22.1406 18.0991C20.8564 18.643 19.6234 19.0053 18.4163 19.2126C15.9504 19.6786 13.6901 19.5492 11.7638 19.1867C10.2997 18.9018 9.04108 18.4876 7.98812 18.0734C7.39728 17.8403 6.75518 17.5555 6.1129 17.193C6.03599 17.1411 5.95891 17.1153 5.88183 17.0634C5.83056 17.0376 5.80475 17.0118 5.77911 16.9859C5.31681 16.727 5.05993 16.5457 5.05993 16.5457C5.05993 16.5457 6.29287 18.6172 9.55483 19.6009C8.78438 20.585 7.83395 21.7501 7.83395 21.7501C2.15738 21.5688 0 17.8145 0 17.8145C0 9.47701 3.69864 2.71895 3.69864 2.71895C7.39728 -0.0774877 10.9161 0.000215372 10.9161 0.000215372L11.173 0.31103C6.54974 1.65712 4.41782 3.70289 4.41782 3.70289C4.41782 3.70289 4.98285 3.39226 5.9331 2.95206C8.68149 1.735 10.8649 1.39852 11.7638 1.32082C11.9178 1.2948 12.0463 1.26896 12.2005 1.26896C13.9217 1.04292 15.6636 1.02557 17.389 1.21727C19.8289 1.50207 22.4489 2.22706 25.12 3.70289C25.12 3.70289 23.091 1.76102 18.7244 0.414574L19.084 0.00039242C19.084 0.00039242 22.6029 -0.0774877 26.3015 2.71912C26.3015 2.71912 30.0003 9.47701 30.0003 17.8145C30.0003 17.8145 27.817 21.569 22.1406 21.7502ZM10.1969 9.65826C8.73293 9.65826 7.57725 10.9528 7.57725 12.5322C7.57725 14.1118 8.75857 15.4064 10.1969 15.4064C11.6611 15.4064 12.8168 14.1118 12.8168 12.5322C12.8426 10.9528 11.6609 9.65826 10.1969 9.65826ZM19.5722 9.65826C18.108 9.65826 16.9521 10.9528 16.9521 12.5322C16.9521 14.1118 18.1338 15.4064 19.5722 15.4064C21.0362 15.4064 22.1918 14.1118 22.1918 12.5322C22.1918 10.9528 21.0362 9.65826 19.5722 9.65826Z" fill="#4827A6"/>
</svg>
