<svg width="26" height="26" viewBox="0 0 26 26" fill="none" xmlns="http://www.w3.org/2000/svg">
<path d="M13 0C5.81736 0 0 5.90608 0 13.1983C0 19.4009 4.19208 24.5488 9.84791 26C9.78264 25.8349 9.75055 25.6035 9.75055 25.3732V23.129H8.12528C7.24792 23.129 6.43472 22.7336 6.07736 22.0068C5.65472 21.2149 5.58945 19.994 4.51736 19.2346C4.19209 18.9707 4.45209 18.7067 4.80945 18.7393C5.49209 18.937 6.04417 19.3997 6.56417 20.0917C7.08417 20.7847 7.31209 20.9498 8.28681 20.9498C8.74153 20.9498 9.45626 20.9173 10.1068 20.8173C10.4642 19.8929 11.0815 19.0684 11.8294 18.673C7.47472 18.1451 5.39472 15.9671 5.39472 12.9972C5.39472 11.7099 5.94681 10.489 6.85736 9.4331C6.56528 8.40982 6.17472 6.29809 6.98791 5.47363C8.93847 5.47363 10.1079 6.76088 10.4 7.08999C11.3747 6.75975 12.4479 6.56206 13.5521 6.56206C14.6894 6.56206 15.7294 6.75975 16.7042 7.08999C16.9963 6.75975 18.1668 5.47363 20.1163 5.47363C20.8963 6.26552 20.5389 8.40982 20.2136 9.4331C21.1242 10.4564 21.6442 11.7099 21.6442 12.9972C21.6442 15.9671 19.5963 18.1451 15.2747 18.6067C16.4774 19.2335 17.3226 21.015 17.3226 22.3348V25.3407C17.3226 25.4395 17.2906 25.5383 17.2906 25.6372C22.36 23.8557 26 18.9729 26 13.1983C26 5.90608 20.1826 0 13 0Z" fill="black"/>
</svg>
