<svg width="27" height="22" viewBox="0 0 27 22" fill="none" xmlns="http://www.w3.org/2000/svg">
<path d="M9.854 20.6493C10.4564 20.6493 10.7175 20.3681 11.0588 20.0469C11.5809 19.5448 18.2878 13.0187 18.2878 13.0187L14.1713 12.0146L10.356 14.4243L9.854 20.4485V20.6493Z" fill="#5BC7FF"/>
<path d="M10.2558 14.5047L19.9748 21.6734C21.0792 22.2758 21.8825 21.9746 22.1636 20.6493L26.1195 2.01457C26.5211 0.38805 25.497 -0.334848 24.4327 0.147085L1.21961 9.103C-0.366751 9.74557 -0.34667 10.6291 0.938483 11.0106L6.9024 12.8781L20.6977 4.18327C21.3403 3.78166 21.9427 4.00255 21.4608 4.44432L10.2558 14.5047Z" fill="#5BC7FF"/>
<path d="M8.95079 20.3427L6.9165 12.6124L7.73022 12.2056L10.5782 20.3427C9.92725 20.9937 9.22203 20.6139 8.95079 20.3427Z" fill="#5BC7FF"/>
</svg>
