<svg width="30" height="23" viewBox="0 0 30 23" fill="none" xmlns="http://www.w3.org/2000/svg">
<path d="M30 2.7211C28.8965 3.18302 27.7113 3.49529 26.4652 3.63565C27.737 2.91721 28.7113 1.77874 29.1713 0.423778C27.9632 1.10068 26.6411 1.57722 25.2623 1.8327C24.1403 0.704423 22.5402 0 20.7701 0C17.3723 0 14.6167 2.5985 14.6167 5.80572C14.6167 6.26014 14.671 6.70348 14.7753 7.12913C9.66041 6.88663 5.12575 4.5753 2.09046 1.06323C1.56046 1.92098 1.25709 2.91826 1.25709 3.98231C1.25709 5.99629 2.34371 7.77323 3.9948 8.81413C3.01738 8.78555 2.06141 8.53667 1.20681 8.08827V8.16164C1.20681 10.9748 3.32785 13.3206 6.14341 13.854C5.6262 13.9877 5.08341 14.0576 4.52187 14.0576C4.12484 14.0576 3.73965 14.0221 3.36336 13.9554C4.14653 16.2611 6.41938 17.9395 9.11166 17.987C7.00538 19.5446 4.3514 20.4731 1.46887 20.4731C0.972387 20.4731 0.481706 20.4451 0 20.3903C2.72397 22.0381 5.95825 23 9.43385 23C20.7533 23 26.944 14.1533 26.944 6.48144C26.944 6.22957 26.9381 5.97957 26.9252 5.73048C28.1314 4.90747 29.1726 3.88844 30 2.7211Z" fill="#00A0E6"/>
</svg>
